%FSTAX23Y23*%
%MOIN*%
%SFA1B1*%

%IPPOS*%
%ADD12C,0.010000*%
%ADD20C,0.008000*%
%LNspinn5power-1*%
%LPD*%
G54D12*
X0013Y00822D02*
Y00869D01*
X00154*
X00161Y00861*
Y00846*
X00154Y00838*
X0013*
X00146D02*
X00161Y00822D01*
X00177Y00861D02*
X00185Y00869D01*
X00201*
X00209Y00861*
Y00853*
X00201Y00846*
X00193*
X00201*
X00209Y00838*
Y0083*
X00201Y00822*
X00185*
X00177Y0083*
X00285Y01007D02*
Y01054D01*
X00309*
X00316Y01046*
Y01031*
X00309Y01023*
X00285*
X00332Y01046D02*
X0034Y01054D01*
X00356*
X00364Y01046*
Y01038*
X00356Y01031*
X00348*
X00356*
X00364Y01023*
Y01015*
X00356Y01007*
X0034*
X00332Y01015*
X00111Y00634D02*
X00096D01*
X00104*
Y00595*
X00096Y00587*
X00088*
X0008Y00595*
X00159Y00587D02*
X00127D01*
X00159Y00618*
Y00626*
X00151Y00634*
X00135*
X00127Y00626*
X00305Y01852D02*
Y01899D01*
X00329*
X00336Y01891*
Y01876*
X00329Y01868*
X00305*
X00352Y01852D02*
X00368D01*
X0036*
Y01899*
X00352Y01891*
X00295Y01417D02*
Y01464D01*
X00319*
X00326Y01456*
Y01441*
X00319Y01433*
X00295*
X00374Y01417D02*
X00342D01*
X00374Y01448*
Y01456*
X00366Y01464*
X0035*
X00342Y01456*
X0013Y01657D02*
Y01704D01*
X00154*
X00161Y01696*
Y01681*
X00154Y01673*
X0013*
X00146D02*
X00161Y01657D01*
X00177D02*
X00193D01*
X00185*
Y01704*
X00177Y01696*
X00135Y01222D02*
Y01269D01*
X00159*
X00166Y01261*
Y01246*
X00159Y01238*
X00135*
X00151D02*
X00166Y01222D01*
X00214D02*
X00182D01*
X00214Y01253*
Y01261*
X00206Y01269*
X0019*
X00182Y01261*
X0Y0D02*
Y01969D01*
Y0D02*
X00906D01*
Y01969*
X0D02*
X00906D01*
G54D20*
X00485Y00107D02*
Y00557D01*
X00035Y00107D02*
X00485D01*
X00035D02*
Y00557D01*
X00485*
X00045Y00907D02*
X00075D01*
X00045Y00772D02*
Y00907D01*
X00105Y00772D02*
Y00907D01*
X00075D02*
X00105D01*
X00075Y00762D02*
Y00771D01*
Y00907D02*
Y00916D01*
X00045Y00772D02*
X00105D01*
X00045Y01307D02*
X00075D01*
X00045Y01172D02*
Y01307D01*
X00105Y01172D02*
Y01307D01*
X00075D02*
X00105D01*
X00075Y01162D02*
Y01171D01*
Y01307D02*
Y01316D01*
X00045Y01172D02*
X00105D01*
X00045Y01607D02*
X00105D01*
X00075Y01742D02*
Y01751D01*
Y01597D02*
Y01606D01*
Y01742D02*
X00105D01*
Y01607D02*
Y01742D01*
X00045Y01607D02*
Y01742D01*
X00075*
X0037Y00954D02*
X00503D01*
X0052Y00937*
X00503Y0092D02*
X0052Y00937D01*
X0037Y0092D02*
X00503D01*
X0037Y00854D02*
X00503D01*
X0052Y00837*
X00503Y0082D02*
X0052Y00837D01*
X0037Y0082D02*
X00503D01*
X0037Y00754D02*
X00503D01*
X0052Y00737*
X00503Y0072D02*
X0052Y00737D01*
X0037Y0072D02*
X00503D01*
X0032Y00687D02*
Y00987D01*
Y00687D02*
X0037D01*
X0032Y00987D02*
X0037D01*
Y00687D02*
Y00987D01*
X00375Y01359D02*
X00508D01*
X00525Y01342*
X00508Y01325D02*
X00525Y01342D01*
X00375Y01325D02*
X00508D01*
X00375Y01259D02*
X00508D01*
X00525Y01242*
X00508Y01225D02*
X00525Y01242D01*
X00375Y01225D02*
X00508D01*
X00375Y01159D02*
X00508D01*
X00525Y01142*
X00508Y01125D02*
X00525Y01142D01*
X00375Y01125D02*
X00508D01*
X00325Y01092D02*
Y01392D01*
Y01092D02*
X00375D01*
X00325Y01392D02*
X00375D01*
Y01092D02*
Y01392D01*
Y01522D02*
Y01822D01*
X00325D02*
X00375D01*
X00325Y01522D02*
X00375D01*
X00325D02*
Y01822D01*
X00375Y01555D02*
X00508D01*
X00525Y01572*
X00508Y01589D02*
X00525Y01572D01*
X00375Y01589D02*
X00508D01*
X00375Y01655D02*
X00508D01*
X00525Y01672*
X00508Y01689D02*
X00525Y01672D01*
X00375Y01689D02*
X00508D01*
X00375Y01755D02*
X00508D01*
X00525Y01772*
X00508Y01789D02*
X00525Y01772D01*
X00375Y01789D02*
X00508D01*
M02*