%FSTAX23Y23*%
%MOIN*%
%SFA1B1*%

%IPPOS*%
%ADD10C,0.015000*%
%ADD11C,0.025000*%
%ADD12C,0.010000*%
%ADD13C,0.120000*%
%ADD14C,0.055000*%
%ADD15C,0.065000*%
%ADD16R,0.065000X0.065000*%
%ADD17C,0.059000*%
%ADD18R,0.059000X0.059000*%
%ADD19C,0.020000*%
%LNspinn5power-1*%
%LPD*%
G54D10*
X00275Y01772D02*
Y01777D01*
G54D11*
X00375Y00927D02*
X00565D01*
X00375D02*
Y00942D01*
Y01247*
X0027Y00837D02*
X00375Y00942D01*
X00455Y00322D02*
Y00737D01*
Y00177D02*
Y00322D01*
X00451Y00326D02*
X00455Y00322D01*
X00109Y00326D02*
X00451D01*
X0019Y01142D02*
Y01487D01*
Y00822D02*
Y01142D01*
X00275*
X0019Y01487D02*
X00275Y01572D01*
X00375Y01247D02*
Y01572D01*
X0037Y01242D02*
X00375Y01247D01*
X00275Y01242D02*
X0037D01*
X00275Y01672D02*
X00375Y01572D01*
X0019Y00822D02*
X00275Y00737D01*
X00455Y00177D02*
X0049Y00142D01*
X0068*
X00765Y00227*
X00275Y00737D02*
X00455D01*
G54D12*
X0Y0D02*
Y01969D01*
Y0D02*
X00906D01*
Y01969*
X0D02*
X00906D01*
G54D13*
X00109Y00326D03*
X00265Y00176D03*
X00305Y00482D03*
G54D14*
X00075Y00962D03*
Y00717D03*
Y01362D03*
Y01117D03*
Y01552D03*
Y01797D03*
G54D15*
X00765Y00727D03*
Y01027D03*
Y01327D03*
Y01627D03*
Y00527D03*
Y00427D03*
Y00327D03*
Y00227D03*
X00565Y00527D03*
Y00427D03*
Y00327D03*
Y00227D03*
X00765Y00627D03*
Y00827D03*
Y00927D03*
Y01127D03*
Y01227D03*
Y01427D03*
Y01527D03*
X00565Y00627D03*
Y00827D03*
Y00927D03*
Y01127D03*
Y01227D03*
Y01427D03*
Y01527D03*
Y01727D03*
Y00727D03*
Y01027D03*
Y01327D03*
Y01627D03*
G54D16*
X00765Y01727D03*
G54D17*
X0027Y00937D03*
Y00837D03*
X00275Y01342D03*
Y01242D03*
Y01672D03*
Y01772D03*
G54D18*
X0027Y00737D03*
X00275Y01142D03*
Y01572D03*
G54D19*
X0008Y01362D02*
X0014D01*
X00075Y00962D02*
X0014Y01027D01*
X00455Y01837D02*
X00565Y01727D01*
X00115Y01837D02*
X00455D01*
X00075Y01797D02*
X00115Y01837D01*
X0014Y01027D02*
Y01362D01*
Y01732*
X00075Y01797D02*
X0014Y01732D01*
M02*