%FSTAX23Y23*%
%MOIN*%
%SFA1B1*%

%IPPOS*%
%ADD10C,0.015000*%
%ADD11C,0.025000*%
%ADD12C,0.010000*%
%ADD13C,0.120000*%
%ADD14C,0.055000*%
%ADD15C,0.065000*%
%ADD16R,0.065000X0.065000*%
%ADD17C,0.059000*%
%ADD18R,0.059000X0.059000*%
%LNspinn5power-1*%
%LPD*%
G54D10*
X00615Y01777D02*
X00765Y01627D01*
X00675Y01437D02*
X00765Y01527D01*
X00675Y01366D02*
Y01437D01*
X00586Y01277D02*
X00675Y01366D01*
X00544Y01277D02*
X00586D01*
X00515Y01248D02*
X00544Y01277D01*
X00515Y01182D02*
Y01248D01*
X0027Y00937D02*
X00515Y01182D01*
X00075Y00717D02*
Y00742D01*
X00265Y00932*
X0027Y00937*
X00265Y00932D02*
X00275D01*
X00075Y01142D02*
X00275Y01342D01*
X00075Y01117D02*
Y01142D01*
X00275Y01342D02*
X00562Y01629D01*
X00075Y01572D02*
X00275Y01772D01*
X00075Y01552D02*
Y01572D01*
X00275Y01777D02*
X00615D01*
G54D11*
X00565Y00482D02*
Y00527D01*
Y00427D02*
Y00482D01*
X00305D02*
X00565D01*
X0056Y00332D02*
X00565Y00327D01*
X00765Y00827D02*
Y00927D01*
Y00727D02*
Y00827D01*
Y00627D02*
Y00727D01*
Y00527D02*
Y00627D01*
Y00427D02*
Y00527D01*
Y00327D02*
Y00427D01*
Y00227D02*
Y00327D01*
X00565Y00827D02*
Y00927D01*
Y00727D02*
Y00827D01*
Y00627D02*
Y00727D01*
Y00527D02*
Y00627D01*
Y00327D02*
Y00427D01*
Y00227D02*
Y00327D01*
G54D12*
X0Y0D02*
Y01969D01*
Y0D02*
X00906D01*
Y01969*
X0D02*
X00906D01*
G54D13*
X00109Y00326D03*
X00265Y00176D03*
X00305Y00482D03*
G54D14*
X00075Y00962D03*
Y00717D03*
Y01362D03*
Y01117D03*
Y01552D03*
Y01797D03*
G54D15*
X00765Y00727D03*
Y01027D03*
Y01327D03*
Y01627D03*
Y00527D03*
Y00427D03*
Y00327D03*
Y00227D03*
X00565Y00527D03*
Y00427D03*
Y00327D03*
Y00227D03*
X00765Y00627D03*
Y00827D03*
Y00927D03*
Y01127D03*
Y01227D03*
Y01427D03*
Y01527D03*
X00565Y00627D03*
Y00827D03*
Y00927D03*
Y01127D03*
Y01227D03*
Y01427D03*
Y01527D03*
Y01727D03*
Y00727D03*
Y01027D03*
Y01327D03*
Y01627D03*
G54D16*
X00765Y01727D03*
G54D17*
X0027Y00937D03*
Y00837D03*
X00275Y01342D03*
Y01242D03*
Y01672D03*
Y01772D03*
G54D18*
X0027Y00737D03*
X00275Y01142D03*
Y01572D03*
M02*