%FSTAX23Y23*%
%MOIN*%
%SFA1B1*%

%IPPOS*%
%ADD10C,0.015000*%
%ADD11C,0.050000*%
%ADD12C,0.010000*%
%ADD13C,0.055000*%
%ADD14C,0.065000*%
%ADD15R,0.065000X0.065000*%
%ADD16C,0.059000*%
%ADD17R,0.059000X0.059000*%
%ADD18C,0.090000*%
%ADD19C,0.020000*%
%ADD20C,0.025000*%
%LNspinn5power-1*%
%LPD*%
G54D10*
X00275Y01772D02*
Y01777D01*
G54D11*
X00455Y003D02*
Y00737D01*
Y00177D02*
X0049Y00142D01*
X0068*
X00765Y00227*
X00275Y00737D02*
X00455D01*
X00245Y003D02*
X00455D01*
Y00177D02*
Y003D01*
X00565Y00227D02*
Y00327D01*
Y00427*
Y00527*
Y00627*
Y00727*
Y00827*
Y00927*
X00765Y00227D02*
Y00327D01*
Y00427*
Y00527*
Y00627*
Y00727*
Y00827*
Y00927*
G54D12*
X0Y0D02*
Y01969D01*
Y0D02*
X00906D01*
Y01969*
X0D02*
X00906D01*
G54D13*
X00075Y00962D03*
Y00717D03*
Y01362D03*
Y01117D03*
Y01552D03*
Y01797D03*
G54D14*
X00765Y00727D03*
Y01027D03*
Y01327D03*
Y01627D03*
Y00527D03*
Y00427D03*
Y00327D03*
Y00227D03*
X00565Y00527D03*
Y00427D03*
Y00327D03*
Y00227D03*
X00765Y00627D03*
Y00827D03*
Y00927D03*
Y01127D03*
Y01227D03*
Y01427D03*
Y01527D03*
X00565Y00627D03*
Y00827D03*
Y00927D03*
Y01127D03*
Y01227D03*
Y01427D03*
Y01527D03*
Y01727D03*
Y00727D03*
Y01027D03*
Y01327D03*
Y01627D03*
G54D15*
X00765Y01727D03*
G54D16*
X0027Y00937D03*
Y00837D03*
X00275Y01342D03*
Y01242D03*
Y01672D03*
Y01772D03*
G54D17*
X0027Y00737D03*
X00275Y01142D03*
Y01572D03*
G54D18*
X00245Y003D03*
Y0048D03*
G54D19*
X00123Y00717D02*
D01*
X00122Y0072*
X00122Y00723*
X00121Y00726*
X00121Y0073*
X0012Y00733*
X00118Y00736*
X00117Y00739*
X00115Y00742*
X00113Y00745*
X00111Y00747*
X00109Y0075*
X00107Y00752*
X00104Y00754*
X00101Y00756*
X00099Y00758*
X00096Y0076*
X00092Y00761*
X00089Y00762*
X00086Y00763*
X00083Y00764*
X0008Y00764*
X00076Y00764*
X00073*
X00069Y00764*
X00066Y00764*
X00063Y00763*
X0006Y00762*
X00057Y00761*
X00053Y0076*
X0005Y00758*
X00048Y00756*
X00045Y00754*
X00042Y00752*
X0004Y0075*
X00038Y00747*
X00036Y00745*
X00034Y00742*
X00032Y00739*
X00031Y00736*
X00029Y00733*
X00028Y0073*
X00028Y00726*
X00027Y00723*
X00027Y0072*
X00027Y00717*
X00027Y00713*
X00027Y0071*
X00028Y00707*
X00028Y00703*
X00029Y007*
X00031Y00697*
X00032Y00694*
X00034Y00691*
X00036Y00688*
X00038Y00686*
X0004Y00683*
X00042Y00681*
X00045Y00679*
X00048Y00677*
X00051Y00675*
X00053Y00673*
X00057Y00672*
X0006Y00671*
X00063Y0067*
X00066Y00669*
X00069Y00669*
X00073Y00669*
X00076*
X0008Y00669*
X00083Y00669*
X00086Y0067*
X00089Y00671*
X00092Y00672*
X00096Y00673*
X00099Y00675*
X00101Y00677*
X00104Y00679*
X00107Y00681*
X00109Y00683*
X00111Y00686*
X00113Y00688*
X00115Y00691*
X00117Y00694*
X00118Y00697*
X0012Y007*
X00121Y00703*
X00121Y00707*
X00122Y0071*
X00122Y00713*
X00123Y00717*
X0008Y01009D02*
D01*
X00076Y01009*
X00073Y01009*
X0007Y01009*
X00066Y01008*
X00063Y01007*
X0006Y01006*
X00057Y01005*
X00054Y01004*
X00051Y01002*
X00048Y01001*
X00045Y00999*
X00043Y00997*
X00041Y00994*
X00038Y00992*
X00036Y00989*
X00034Y00987*
X00033Y00984*
X00031Y00981*
X0003Y00978*
X00029Y00975*
X00028Y00971*
X00028Y00968*
X00027Y00965*
X00027Y00962*
X00027Y00958*
X00028Y00955*
X00028Y00952*
X00029Y00949*
X0003Y00945*
X00031Y00942*
X00033Y00939*
X00034Y00937*
X00036Y00934*
X00038Y00931*
X0004Y00929*
X00043Y00926*
X00045Y00924*
X00048Y00922*
X00051Y00921*
X00054Y00919*
X00057Y00918*
X0006Y00917*
X00063Y00916*
X00066Y00915*
X0007Y00915*
X00073Y00914*
X00076Y00914*
X00079Y00914*
X00083Y00915*
X00086Y00916*
X00089Y00917*
X00092Y00918*
X00095Y00919*
X00098Y00921*
X00101Y00922*
X00104Y00924*
X00106Y00926*
X00108Y00929*
X00111Y00931*
X00113Y00934*
X00115Y00936*
X00116Y00939*
X00118Y00942*
X00119Y00945*
X0012Y00948*
X00121Y00952*
X00121Y00955*
X00122Y00958*
X00122Y00961*
X00123Y00962*
X0011Y01149D02*
D01*
X00107Y01151*
X00105Y01153*
X00102Y01155*
X00099Y01157*
X00096Y01159*
X00093Y0116*
X0009Y01161*
X00087Y01162*
X00084Y01163*
X00081Y01164*
X00077Y01164*
X00074Y01164*
X00071Y01164*
X00068Y01163*
X00064Y01163*
X00061Y01162*
X00058Y01161*
X00055Y0116*
X00052Y01158*
X00049Y01157*
X00046Y01155*
X00044Y01153*
X00041Y0115*
X00039Y01148*
X00037Y01145*
X00035Y01143*
X00033Y0114*
X00032Y01137*
X0003Y01134*
X00029Y01131*
X00028Y01128*
X00028Y01124*
X00027Y01121*
X00027Y01118*
X00027Y01114*
X00027Y01111*
X00028Y01108*
X00029Y01105*
X0003Y01102*
X00031Y01098*
X00032Y01095*
X00034Y01092*
X00035Y0109*
X00037Y01087*
X0004Y01084*
X00042Y01082*
X00044Y0108*
X00047Y01078*
X0005Y01076*
X00053Y01074*
X00056Y01073*
X00059Y01072*
X00062Y01071*
X00065Y0107*
X00068Y01069*
X00072Y01069*
X00075Y01069*
X00078Y01069*
X00081Y0107*
X00085Y0107*
X00088Y01071*
X00091Y01072*
X00094Y01073*
X00097Y01075*
X001Y01076*
X00103Y01078*
X00105Y0108*
X00108Y01083*
X0011Y01085*
X00123Y00962D02*
D01*
X00122Y00965*
X00122Y00967*
X00161Y01006D02*
D01*
X00162Y01007*
X00163Y01009*
X00164Y0101*
X00165Y01012*
X00166Y01014*
X00167Y01016*
X00168Y01018*
X00168Y0102*
X00169Y01022*
X00169Y01024*
X00169Y01026*
X0017Y01027*
X00161Y01006D02*
D01*
X00162Y01007*
X00163Y01009*
X00164Y0101*
X00165Y01012*
X00166Y01014*
X00167Y01016*
X00168Y01018*
X00168Y0102*
X00169Y01022*
X00169Y01024*
X00169Y01026*
X0017Y01027*
X00315Y003D02*
D01*
X00314Y00304*
X00314Y00309*
X00313Y00314*
X00312Y00319*
X0031Y00323*
X00308Y00328*
X00306Y00332*
X00304Y00337*
X00301Y00341*
X00298Y00344*
X00295Y00348*
X00291Y00352*
X00288Y00355*
X00284Y00358*
X0028Y0036*
X00275Y00362*
X00271Y00364*
X00266Y00366*
X00261Y00367*
X00257Y00368*
X00252Y00369*
X00247Y00369*
X00242*
X00237Y00369*
X00232Y00368*
X00228Y00367*
X00223Y00366*
X00218Y00364*
X00214Y00362*
X00209Y0036*
X00205Y00358*
X00201Y00355*
X00198Y00352*
X00194Y00348*
X00191Y00344*
X00188Y00341*
X00185Y00337*
X00183Y00332*
X00181Y00328*
X00179Y00323*
X00177Y00319*
X00176Y00314*
X00175Y00309*
X00175Y00304*
X00175Y003*
X00175Y00295*
X00175Y0029*
X00176Y00285*
X00177Y0028*
X00179Y00276*
X00181Y00271*
X00183Y00267*
X00185Y00262*
X00188Y00258*
X00191Y00255*
X00194Y00251*
X00198Y00247*
X00201Y00244*
X00205Y00241*
X0021Y00239*
X00214Y00237*
X00218Y00235*
X00223Y00233*
X00228Y00232*
X00232Y00231*
X00237Y0023*
X00242Y0023*
X00247*
X00252Y0023*
X00257Y00231*
X00261Y00232*
X00266Y00233*
X00271Y00235*
X00275Y00237*
X0028Y00239*
X00284Y00241*
X00288Y00244*
X00291Y00247*
X00295Y00251*
X00298Y00255*
X00301Y00258*
X00304Y00262*
X00306Y00267*
X00308Y00271*
X0031Y00276*
X00312Y0028*
X00313Y00285*
X00314Y0029*
X00314Y00295*
X00315Y003*
X0031Y0048D02*
D01*
X00309Y00484*
X00309Y00489*
X00308Y00493*
X00307Y00497*
X00306Y00502*
X00304Y00506*
X00302Y0051*
X003Y00514*
X00297Y00518*
X00294Y00521*
X00291Y00525*
X00288Y00528*
X00285Y00531*
X00281Y00533*
X00277Y00536*
X00273Y00538*
X00269Y0054*
X00265Y00541*
X0026Y00543*
X00256Y00544*
X00251Y00544*
X00247Y00544*
X00242*
X00238Y00544*
X00233Y00544*
X00229Y00543*
X00224Y00541*
X0022Y0054*
X00216Y00538*
X00212Y00536*
X00208Y00533*
X00204Y00531*
X00201Y00528*
X00198Y00525*
X00195Y00521*
X00192Y00518*
X00189Y00514*
X00187Y0051*
X00185Y00506*
X00183Y00502*
X00182Y00497*
X00181Y00493*
X0018Y00489*
X0018Y00484*
X0018Y0048*
X0018Y00475*
X0018Y0047*
X00181Y00466*
X00182Y00462*
X00183Y00457*
X00185Y00453*
X00187Y00449*
X00189Y00445*
X00192Y00441*
X00195Y00438*
X00198Y00434*
X00201Y00431*
X00204Y00428*
X00208Y00426*
X00212Y00423*
X00216Y00421*
X0022Y00419*
X00224Y00418*
X00229Y00416*
X00233Y00415*
X00238Y00415*
X00242Y00415*
X00247*
X00251Y00415*
X00256Y00415*
X0026Y00416*
X00265Y00418*
X00269Y00419*
X00273Y00421*
X00277Y00423*
X00281Y00426*
X00285Y00428*
X00288Y00431*
X00291Y00434*
X00294Y00438*
X00297Y00441*
X003Y00445*
X00302Y00449*
X00304Y00453*
X00306Y00457*
X00307Y00462*
X00308Y00466*
X00309Y0047*
X00309Y00475*
X0031Y0048*
X0029Y00791D02*
D01*
X00293Y00792*
X00296Y00794*
X00298Y00796*
X00301Y00798*
X00304Y008*
X00306Y00803*
X00308Y00805*
X0031Y00808*
X00312Y00811*
X00314Y00814*
X00315Y00817*
X00316Y0082*
X00317Y00824*
X00318Y00827*
X00318Y0083*
X00319Y00834*
X0032Y00837*
D01*
X00319Y00837*
X00319Y00838*
X00319Y00838*
X00319Y00839*
X00319Y0084*
X00273Y00886D02*
D01*
X00269Y00886*
X00266Y00885*
X00262Y00885*
X00259Y00884*
X00256Y00884*
X00252Y00882*
X00249Y00881*
X00246Y0088*
X00243Y00878*
X0024Y00876*
X00238Y00874*
X00235Y00872*
X00233Y00869*
X00231Y00866*
X00229Y00864*
X00227Y00861*
X00225Y00858*
X00224Y00854*
X00223Y00851*
X00222Y00848*
X00221Y00845*
X00221Y00841*
X0022Y00838*
X0022Y00834*
X00221Y00831*
X00221Y00828*
X00222Y00824*
X00223Y00821*
X00224Y00818*
X00226Y00815*
X00227Y00812*
X00229Y00809*
X00231Y00806*
X00233Y00803*
X00236Y00801*
X00238Y00799*
X00241Y00797*
X00244Y00795*
X00247Y00793*
X0025Y00791*
X0025Y00791*
X0032Y00937D02*
D01*
X00319Y0094*
X00319Y00943*
X00318Y00947*
X00318Y0095*
X00316Y00954*
X00315Y00957*
X00314Y0096*
X00312Y00963*
X0031Y00966*
X00308Y00969*
X00305Y00971*
X00303Y00974*
X003Y00976*
X00297Y00978*
X00295Y0098*
X00291Y00981*
X00288Y00983*
X00285Y00984*
X00282Y00985*
X00278Y00986*
X00275Y00986*
X00271Y00986*
X00268*
X00264Y00986*
X00261Y00986*
X00257Y00985*
X00254Y00984*
X00251Y00983*
X00248Y00981*
X00244Y0098*
X00242Y00978*
X00239Y00976*
X00236Y00974*
X00234Y00971*
X00231Y00969*
X00229Y00966*
X00227Y00963*
X00225Y0096*
X00224Y00957*
X00223Y00954*
X00221Y0095*
X00221Y00947*
X0022Y00943*
X0022Y0094*
X0022Y00936*
X0022Y00933*
X0022Y0093*
X00221Y00926*
X00221Y00923*
X00223Y00919*
X00224Y00916*
X00225Y00913*
X00227Y0091*
X00229Y00907*
X00231Y00904*
X00234Y00902*
X00236Y00899*
X00239Y00897*
X00242Y00895*
X00245Y00893*
X00248Y00892*
X00251Y0089*
X00254Y00889*
X00257Y00888*
X00261Y00887*
X00264Y00887*
X00268Y00887*
X00271*
X00275Y00888*
X00319Y00932D02*
D01*
X00319Y00935*
X0032Y00937*
X0011Y01394D02*
D01*
X00107Y01396*
X00105Y01398*
X00102Y014*
X00099Y01402*
X00096Y01404*
X00093Y01405*
X0009Y01406*
X00087Y01407*
X00084Y01408*
X00081Y01409*
X00077Y01409*
X00074Y01409*
X00071Y01409*
X00068Y01408*
X00064Y01408*
X00061Y01407*
X00058Y01406*
X00055Y01405*
X00052Y01403*
X00049Y01402*
X00046Y014*
X00044Y01398*
X00041Y01395*
X00039Y01393*
X00037Y0139*
X00035Y01388*
X00033Y01385*
X00032Y01382*
X0003Y01379*
X00029Y01376*
X00028Y01373*
X00028Y01369*
X00027Y01366*
X00027Y01363*
X00027Y01359*
X00027Y01356*
X00028Y01353*
X00029Y0135*
X0003Y01347*
X00031Y01343*
X00032Y0134*
X00034Y01337*
X00035Y01335*
X00037Y01332*
X0004Y01329*
X00042Y01327*
X00044Y01325*
X00047Y01323*
X0005Y01321*
X00053Y01319*
X00056Y01318*
X00059Y01317*
X00062Y01316*
X00065Y01315*
X00068Y01314*
X00072Y01314*
X00075Y01314*
X00078Y01314*
X00081Y01315*
X00085Y01315*
X00088Y01316*
X00091Y01317*
X00094Y01318*
X00097Y0132*
X001Y01321*
X00103Y01323*
X00105Y01325*
X00108Y01328*
X0011Y0133*
Y01584D02*
D01*
X00107Y01586*
X00105Y01588*
X00102Y0159*
X00099Y01592*
X00096Y01594*
X00093Y01595*
X0009Y01596*
X00087Y01597*
X00084Y01598*
X00081Y01599*
X00077Y01599*
X00074Y01599*
X00071Y01599*
X00068Y01598*
X00064Y01598*
X00061Y01597*
X00058Y01596*
X00055Y01595*
X00052Y01593*
X00049Y01592*
X00046Y0159*
X00044Y01588*
X00041Y01585*
X00039Y01583*
X00037Y0158*
X00035Y01578*
X00033Y01575*
X00032Y01572*
X0003Y01569*
X00029Y01566*
X00028Y01563*
X00028Y01559*
X00027Y01556*
X00027Y01553*
X00027Y01549*
X00027Y01546*
X00028Y01543*
X00029Y0154*
X0003Y01537*
X00031Y01533*
X00032Y0153*
X00034Y01527*
X00035Y01525*
X00037Y01522*
X0004Y01519*
X00042Y01517*
X00044Y01515*
X00047Y01513*
X0005Y01511*
X00053Y01509*
X00056Y01508*
X00059Y01507*
X00062Y01506*
X00065Y01505*
X00068Y01504*
X00072Y01504*
X00075Y01504*
X00078Y01504*
X00081Y01505*
X00085Y01505*
X00088Y01506*
X00091Y01507*
X00094Y01508*
X00097Y0151*
X001Y01511*
X00103Y01513*
X00105Y01515*
X00108Y01518*
X0011Y0152*
X0008Y01844D02*
D01*
X00076Y01844*
X00073Y01844*
X0007Y01844*
X00066Y01843*
X00063Y01842*
X0006Y01841*
X00057Y0184*
X00054Y01839*
X00051Y01837*
X00048Y01836*
X00045Y01834*
X00043Y01832*
X00041Y01829*
X00038Y01827*
X00036Y01824*
X00034Y01822*
X00033Y01819*
X00031Y01816*
X0003Y01813*
X00029Y0181*
X00028Y01806*
X00028Y01803*
X00027Y018*
X00027Y01797*
X00027Y01793*
X00028Y0179*
X00028Y01787*
X00029Y01784*
X0003Y0178*
X00031Y01777*
X00033Y01774*
X00034Y01772*
X00036Y01769*
X00038Y01766*
X0004Y01764*
X00043Y01761*
X00045Y01759*
X00048Y01757*
X00051Y01756*
X00054Y01754*
X00057Y01753*
X0006Y01752*
X00063Y01751*
X00066Y0175*
X0007Y0175*
X00073Y01749*
X00076Y01749*
X00079Y01749*
X0008Y0175*
X00115Y01867D02*
D01*
X00112Y01866*
X0011Y01866*
X00108Y01866*
X00106Y01865*
X00104Y01865*
X00102Y01864*
X001Y01863*
X00099Y01862*
X00097Y01861*
X00095Y01859*
X00094Y01858*
X00094Y01858*
X00115Y01867D02*
D01*
X00112Y01866*
X0011Y01866*
X00108Y01866*
X00106Y01865*
X00104Y01865*
X00102Y01864*
X001Y01863*
X00099Y01862*
X00097Y01861*
X00095Y01859*
X00094Y01858*
X00094Y01858*
X0017Y01732D02*
D01*
X00169Y01734*
X00169Y01736*
X00169Y01738*
X00168Y0174*
X00168Y01742*
X00167Y01744*
X00166Y01746*
X00165Y01747*
X00164Y01749*
X00162Y01751*
X00161Y01752*
X00161Y01753*
X0017Y01732D02*
D01*
X00169Y01734*
X00169Y01736*
X00169Y01738*
X00168Y0174*
X00168Y01742*
X00167Y01744*
X00166Y01746*
X00165Y01747*
X00164Y01749*
X00162Y01751*
X00161Y01752*
X00161Y01753*
X00122Y01792D02*
D01*
X00122Y01795*
X00123Y01797*
D01*
X00122Y018*
X00122Y01802*
X00295Y01196D02*
D01*
X00298Y01197*
X00301Y01199*
X00303Y01201*
X00306Y01203*
X00309Y01205*
X00311Y01208*
X00312Y01209*
Y01274D02*
D01*
X00309Y01276*
X00307Y01278*
X00304Y0128*
X00301Y01282*
X00298Y01284*
X00295Y01286*
X00292Y01287*
X00289Y01288*
X00286Y01289*
X00282Y0129*
X00279Y0129*
X00275Y0129*
X00272Y0129*
X00269Y0129*
X00265Y0129*
X00262Y01289*
X00259Y01288*
X00255Y01287*
X00252Y01285*
X00249Y01283*
X00247Y01282*
X00244Y0128*
X00241Y01277*
X00239Y01275*
X00237Y01272*
X00234Y0127*
X00233Y01267*
X00231Y01264*
X0023Y01261*
X00228Y01258*
X00227Y01254*
X00227Y01251*
X00226Y01248*
X00226Y01244*
X00226Y01241*
X00226Y01237*
X00226Y01234*
X00227Y01231*
X00228Y01227*
X00229Y01224*
X0023Y01221*
X00232Y01218*
X00233Y01215*
X00235Y01212*
X00238Y01209*
X0024Y01207*
X00242Y01205*
X00245Y01203*
X00248Y01201*
X00251Y01199*
X00254Y01197*
X00255Y01196*
X00325Y01342D02*
D01*
X00324Y01345*
X00324Y01348*
X00323Y01352*
X00323Y01355*
X00321Y01359*
X0032Y01362*
X00319Y01365*
X00317Y01368*
X00315Y01371*
X00313Y01374*
X0031Y01376*
X00308Y01379*
X00305Y01381*
X00302Y01383*
X003Y01385*
X00296Y01386*
X00293Y01388*
X0029Y01389*
X00287Y0139*
X00283Y01391*
X0028Y01391*
X00276Y01391*
X00273*
X00269Y01391*
X00266Y01391*
X00262Y0139*
X00259Y01389*
X00256Y01388*
X00253Y01386*
X00249Y01385*
X00247Y01383*
X00244Y01381*
X00241Y01379*
X00239Y01376*
X00236Y01374*
X00234Y01371*
X00232Y01368*
X0023Y01365*
X00229Y01362*
X00228Y01359*
X00226Y01355*
X00226Y01352*
X00225Y01348*
X00225Y01345*
X00225Y01342*
X00225Y01338*
X00225Y01335*
X00226Y01331*
X00226Y01328*
X00228Y01324*
X00229Y01321*
X0023Y01318*
X00232Y01315*
X00234Y01312*
X00236Y01309*
X00239Y01307*
X00241Y01304*
X00244Y01302*
X00247Y013*
X0025Y01298*
X00253Y01297*
X00256Y01295*
X00259Y01294*
X00262Y01293*
X00266Y01292*
X00269Y01292*
X00273Y01292*
X00276*
X0028Y01292*
X00283Y01292*
X00287Y01293*
X0029Y01294*
X00293Y01295*
X00296Y01297*
X003Y01298*
X00302Y013*
X00305Y01302*
X00308Y01304*
X0031Y01307*
X00313Y01309*
X00315Y01312*
X00317Y01315*
X00319Y01318*
X0032Y01321*
X00321Y01324*
X00323Y01328*
X00323Y01331*
X00324Y01335*
X00324Y01338*
X00325Y01342*
Y01672D02*
D01*
X00324Y01675*
X00324Y01678*
X00323Y01682*
X00323Y01685*
X00321Y01689*
X0032Y01692*
X00319Y01695*
X00317Y01698*
X00315Y01701*
X00313Y01704*
X0031Y01706*
X00308Y01709*
X00305Y01711*
X00302Y01713*
X003Y01715*
X00296Y01716*
X00293Y01718*
X0029Y01719*
X00287Y0172*
X00283Y01721*
X0028Y01721*
X00276Y01721*
X00273*
X00269Y01721*
X00266Y01721*
X00262Y0172*
X00259Y01719*
X00256Y01718*
X00253Y01716*
X00249Y01715*
X00247Y01713*
X00244Y01711*
X00241Y01709*
X00239Y01706*
X00236Y01704*
X00234Y01701*
X00232Y01698*
X0023Y01695*
X00229Y01692*
X00228Y01689*
X00226Y01685*
X00226Y01682*
X00225Y01678*
X00225Y01675*
X00225Y01671*
X00225Y01668*
X00225Y01665*
X00226Y01661*
X00226Y01658*
X00228Y01654*
X00229Y01651*
X0023Y01648*
X00232Y01645*
X00234Y01642*
X00236Y01639*
X00239Y01637*
X00241Y01634*
X00244Y01632*
X00247Y0163*
X0025Y01628*
X00253Y01627*
X00255Y01626*
X0024Y01807D02*
D01*
X00237Y01804*
X00235Y01801*
X00233Y01798*
X00231Y01795*
X0023Y01792*
X00228Y01789*
X00227Y01786*
X00226Y01783*
X00226Y01779*
X00225Y01776*
X00225Y01772*
X00225Y01769*
X00225Y01765*
X00226Y01762*
X00227Y01759*
X00228Y01755*
X00229Y01752*
X0023Y01749*
X00232Y01746*
X00234Y01743*
X00236Y0174*
X00238Y01738*
X00241Y01735*
X00243Y01733*
X00246Y01731*
X00249Y01729*
X00252Y01727*
X00255Y01726*
X00258Y01725*
X00262Y01724*
X00265Y01723*
X00268Y01722*
X00272Y01722*
X00275Y01722*
X00279Y01722*
X00282Y01723*
X00286Y01723*
X00289Y01724*
X00292Y01725*
X00295Y01727*
X00298Y01728*
X00301Y0173*
X00304Y01732*
X00307Y01734*
X0031Y01737*
X00312Y01739*
X00314Y01742*
X00316Y01745*
X00318Y01748*
X00319Y01751*
X00321Y01754*
X00322Y01757*
X00323Y0176*
X00323Y01764*
X00324Y01767*
X00324Y01771*
X00325Y01772*
D01*
X00324Y01775*
X00324Y01778*
X00323Y01782*
X00323Y01785*
X00321Y01789*
X0032Y01792*
X00319Y01795*
X00317Y01798*
X00315Y01801*
X00313Y01804*
X0031Y01806*
X0031Y01807*
X00407Y01572D02*
D01*
X00406Y01574*
X00406Y01576*
X00406Y01578*
X00405Y0158*
X00405Y01582*
X00404Y01585*
X00403Y01587*
X00402Y01588*
X004Y0159*
X00399Y01592*
X00398Y01594*
X00398Y01595*
X00407Y01572D02*
D01*
X00406Y01574*
X00406Y01576*
X00406Y01578*
X00405Y0158*
X00405Y01582*
X00404Y01585*
X00403Y01587*
X00402Y01588*
X004Y0159*
X00399Y01592*
X00398Y01594*
X00398Y01595*
X00324Y01668D02*
D01*
X00324Y01671*
X00325Y01672*
X0052Y00254D02*
D01*
X00518Y0025*
X00516Y00247*
X00515Y00244*
X00514Y0024*
X00513Y00236*
X00512Y00233*
X00512Y00229*
X00512Y00226*
X00512Y00222*
X00513Y00218*
X00513Y00215*
X00514Y00211*
X00516Y00208*
X00517Y00204*
X00519Y00201*
X00521Y00198*
X00523Y00195*
X00525Y00192*
X00527Y00189*
X0053Y00187*
X00533Y00185*
X00536Y00182*
X00539Y00181*
X00542Y00179*
X00546Y00177*
X00549Y00176*
X00553Y00175*
X00556Y00175*
X0056Y00174*
X00564Y00174*
X00567Y00174*
X00571Y00174*
X00575Y00175*
X00578Y00176*
X00582Y00177*
X00585Y00178*
X00588Y0018*
X00592Y00182*
X00595Y00184*
X00598Y00186*
X006Y00188*
X00603Y00191*
X00605Y00193*
X00608Y00196*
X0061Y002*
X00611Y00203*
X00613Y00206*
X00614Y00209*
X00615Y00213*
X00616Y00217*
X00617Y0022*
X00617Y00224*
X00617Y00227*
D01*
X00616Y0023*
X00616Y00234*
X00615Y00237*
X00614Y00241*
X00613Y00244*
X00612Y00248*
X0061Y00251*
X0061Y00254*
X0052Y00354D02*
D01*
X00518Y0035*
X00516Y00347*
X00515Y00344*
X00514Y0034*
X00513Y00336*
X00512Y00333*
X00512Y00329*
X00512Y00326*
X00512Y00322*
X00513Y00318*
X00513Y00315*
X00514Y00311*
X00516Y00308*
X00517Y00304*
X00519Y00301*
X0052Y003*
Y00454D02*
D01*
X00518Y0045*
X00516Y00447*
X00515Y00444*
X00514Y0044*
X00513Y00436*
X00512Y00433*
X00512Y00429*
X00512Y00426*
X00512Y00422*
X00513Y00418*
X00513Y00415*
X00514Y00411*
X00516Y00408*
X00517Y00404*
X00519Y00401*
X0052Y004*
X0061Y003D02*
D01*
X00611Y00303*
X00613Y00306*
X00614Y00309*
X00615Y00313*
X00616Y00317*
X00617Y0032*
X00617Y00324*
X00617Y00327*
D01*
X00616Y0033*
X00616Y00334*
X00615Y00337*
X00614Y00341*
X00613Y00344*
X00612Y00348*
X0061Y00351*
X0061Y00354*
X0052Y00554D02*
D01*
X00518Y0055*
X00516Y00547*
X00515Y00544*
X00514Y0054*
X00513Y00536*
X00512Y00533*
X00512Y00529*
X00512Y00526*
X00512Y00522*
X00513Y00518*
X00513Y00515*
X00514Y00511*
X00516Y00508*
X00517Y00504*
X00519Y00501*
X0052Y005*
X00617Y00427D02*
D01*
X00616Y0043*
X00616Y00434*
X00615Y00437*
X00614Y00441*
X00613Y00444*
X00612Y00448*
X0061Y00451*
X0061Y00454*
Y004D02*
D01*
X00611Y00403*
X00613Y00406*
X00614Y00409*
X00615Y00413*
X00616Y00417*
X00617Y0042*
X00617Y00424*
X00617Y00427*
X0061Y005D02*
D01*
X00611Y00503*
X00613Y00506*
X00614Y00509*
X00615Y00513*
X00616Y00517*
X00617Y0052*
X00617Y00524*
X00617Y00527*
D01*
X00616Y0053*
X00616Y00534*
X00615Y00537*
X00614Y00541*
X00613Y00544*
X00612Y00548*
X0061Y00551*
X0061Y00554*
X00737Y00577D02*
D01*
X00733Y00574*
X0073Y00572*
X00727Y0057*
X00724Y00567*
X00721Y00564*
X00719Y00561*
X00716Y00558*
X00714Y00554*
X00712Y0055*
X00711Y00547*
X0071Y00543*
X00709Y00539*
X00708Y00535*
X00707Y00531*
X00707Y00527*
X00707Y00523*
X00708Y00519*
X00708Y00515*
X00709Y00511*
X0071Y00508*
X00712Y00504*
X00714Y005*
X00716Y00497*
X00718Y00493*
X0072Y0049*
X00723Y00487*
X00726Y00484*
X00729Y00482*
X00732Y00479*
X00735Y00477*
X00737Y00477*
X0052Y00654D02*
D01*
X00518Y0065*
X00516Y00647*
X00515Y00644*
X00514Y0064*
X00513Y00636*
X00512Y00633*
X00512Y00629*
X00512Y00626*
X00512Y00622*
X00513Y00618*
X00513Y00615*
X00514Y00611*
X00516Y00608*
X00517Y00604*
X00519Y00601*
X0052Y006*
Y00754D02*
D01*
X00518Y0075*
X00516Y00747*
X00515Y00744*
X00514Y0074*
X00513Y00736*
X00512Y00733*
X00512Y00729*
X00512Y00726*
X00512Y00722*
X00513Y00718*
X00513Y00715*
X00514Y00711*
X00516Y00708*
X00517Y00704*
X00519Y00701*
X0052Y007*
X0061D02*
D01*
X00611Y00703*
X00613Y00706*
X00614Y00709*
X00615Y00713*
X00616Y00717*
X00617Y0072*
X00617Y00724*
X00617Y00727*
D01*
X00616Y0073*
X00616Y00734*
X00615Y00737*
X00614Y00741*
X00613Y00744*
X00612Y00748*
X0061Y00751*
X0061Y00754*
X0052Y00854D02*
D01*
X00518Y0085*
X00516Y00847*
X00515Y00844*
X00514Y0084*
X00513Y00836*
X00512Y00833*
X00512Y00829*
X00512Y00826*
X00512Y00822*
X00513Y00818*
X00513Y00815*
X00514Y00811*
X00516Y00808*
X00517Y00804*
X00519Y00801*
X0052Y008*
X00617Y00927D02*
D01*
X00616Y0093*
X00616Y00934*
X00615Y00937*
X00614Y00941*
X00613Y00944*
X00612Y00948*
X0061Y00951*
X00609Y00954*
X00607Y00957*
X00604Y0096*
X00602Y00963*
X00599Y00965*
X00597Y00967*
X00594Y0097*
X00591Y00972*
X00587Y00973*
X00584Y00975*
X00581Y00976*
X00581Y00977*
X0061Y008D02*
D01*
X00611Y00803*
X00613Y00806*
X00614Y00809*
X00615Y00813*
X00616Y00817*
X00617Y0082*
X00617Y00824*
X00617Y00827*
X0061Y006D02*
D01*
X00611Y00603*
X00613Y00606*
X00614Y00609*
X00615Y00613*
X00616Y00617*
X00617Y0062*
X00617Y00624*
X00617Y00627*
D01*
X00616Y0063*
X00616Y00634*
X00615Y00637*
X00614Y00641*
X00613Y00644*
X00612Y00648*
X0061Y00651*
X0061Y00654*
X00737Y00777D02*
D01*
X00733Y00774*
X0073Y00772*
X00727Y0077*
X00724Y00767*
X00721Y00764*
X00719Y00761*
X00716Y00758*
X00714Y00754*
X00712Y0075*
X00711Y00747*
X0071Y00743*
X00709Y00739*
X00708Y00735*
X00707Y00731*
X00707Y00727*
X00707Y00723*
X00708Y00719*
X00708Y00715*
X00709Y00711*
X0071Y00708*
X00712Y00704*
X00714Y007*
X00716Y00697*
X00718Y00693*
X0072Y0069*
X00723Y00687*
X00726Y00684*
X00729Y00682*
X00732Y00679*
X00735Y00677*
X00737Y00677*
X00617Y00827D02*
D01*
X00616Y0083*
X00616Y00834*
X00615Y00837*
X00614Y00841*
X00613Y00844*
X00612Y00848*
X0061Y00851*
X0061Y00854*
Y009D02*
D01*
X00611Y00903*
X00613Y00906*
X00614Y00909*
X00615Y00913*
X00616Y00917*
X00617Y0092*
X00617Y00924*
X00617Y00927*
X00737Y00877D02*
D01*
X00733Y00874*
X0073Y00872*
X00727Y0087*
X00724Y00867*
X00721Y00864*
X00719Y00861*
X00716Y00858*
X00714Y00854*
X00712Y0085*
X00711Y00847*
X0071Y00843*
X00709Y00839*
X00708Y00835*
X00707Y00831*
X00707Y00827*
X00707Y00823*
X00708Y00819*
X00708Y00815*
X00709Y00811*
X0071Y00808*
X00712Y00804*
X00714Y008*
X00716Y00797*
X00718Y00793*
X0072Y0079*
X00723Y00787*
X00726Y00784*
X00729Y00782*
X00732Y00779*
X00735Y00777*
X00737Y00777*
Y00377D02*
D01*
X00733Y00374*
X0073Y00372*
X00727Y0037*
X00724Y00367*
X00721Y00364*
X00719Y00361*
X00716Y00358*
X00714Y00354*
X00712Y0035*
X00711Y00347*
X0071Y00343*
X00709Y00339*
X00708Y00335*
X00707Y00331*
X00707Y00327*
X00707Y00323*
X00708Y00319*
X00708Y00315*
X00709Y00311*
X0071Y00308*
X00712Y00304*
X00714Y003*
X00716Y00297*
X00718Y00293*
X0072Y0029*
X00723Y00287*
X00726Y00284*
X00729Y00282*
X00732Y00279*
X00735Y00277*
X00737Y00277*
D01*
X00733Y00274*
X0073Y00272*
X00727Y0027*
X00724Y00267*
X00721Y00264*
X00719Y00261*
X00716Y00258*
X00714Y00254*
X00712Y0025*
X00711Y00247*
X0071Y00243*
X00709Y00239*
X00708Y00235*
X00707Y00231*
X00707Y00227*
X00707Y00223*
X00708Y00219*
X00708Y00215*
X00709Y00211*
X0071Y00208*
X00712Y00204*
X00714Y002*
X00716Y00197*
X00718Y00193*
X0072Y0019*
X00723Y00187*
X00726Y00184*
X00729Y00182*
X00732Y00179*
X00735Y00177*
X00739Y00175*
X00742Y00174*
X00746Y00172*
X0075Y00171*
X00754Y0017*
X00758Y0017*
X00762Y00169*
X00766Y00169*
X0077Y00169*
X00774Y0017*
X00778Y00171*
X00781Y00172*
X00785Y00173*
X00789Y00175*
X00793Y00177*
X00796Y00179*
X00799Y00181*
X00802Y00183*
X00805Y00186*
X00808Y00189*
X0081Y00192*
X00813Y00195*
X00815Y00199*
X00817Y00203*
X00818Y00206*
X00819Y0021*
X0082Y00214*
X00821Y00218*
X00822Y00222*
X00822Y00226*
X00822Y00227*
D01*
X00821Y0023*
X00821Y00234*
X0082Y00238*
X00819Y00242*
X00818Y00246*
X00817Y0025*
X00815Y00253*
X00813Y00257*
X00811Y0026*
X00808Y00263*
X00806Y00266*
X00803Y00269*
X008Y00271*
X00796Y00274*
X00793Y00276*
X00793Y00277*
D01*
X00796Y00279*
X00799Y00281*
X00802Y00283*
X00805Y00286*
X00808Y00289*
X0081Y00292*
X00813Y00295*
X00815Y00299*
X00817Y00303*
X00818Y00306*
X00819Y0031*
X0082Y00314*
X00821Y00318*
X00822Y00322*
X00822Y00326*
X00822Y00327*
X00737Y00477D02*
D01*
X00733Y00474*
X0073Y00472*
X00727Y0047*
X00724Y00467*
X00721Y00464*
X00719Y00461*
X00716Y00458*
X00714Y00454*
X00712Y0045*
X00711Y00447*
X0071Y00443*
X00709Y00439*
X00708Y00435*
X00707Y00431*
X00707Y00427*
X00707Y00423*
X00708Y00419*
X00708Y00415*
X00709Y00411*
X0071Y00408*
X00712Y00404*
X00714Y004*
X00716Y00397*
X00718Y00393*
X0072Y0039*
X00723Y00387*
X00726Y00384*
X00729Y00382*
X00732Y00379*
X00735Y00377*
X00737Y00377*
X00822Y00327D02*
D01*
X00821Y0033*
X00821Y00334*
X0082Y00338*
X00819Y00342*
X00818Y00346*
X00817Y0035*
X00815Y00353*
X00813Y00357*
X00811Y0036*
X00808Y00363*
X00806Y00366*
X00803Y00369*
X008Y00371*
X00796Y00374*
X00793Y00376*
X00793Y00377*
D01*
X00796Y00379*
X00799Y00381*
X00802Y00383*
X00805Y00386*
X00808Y00389*
X0081Y00392*
X00813Y00395*
X00815Y00399*
X00817Y00403*
X00818Y00406*
X00819Y0041*
X0082Y00414*
X00821Y00418*
X00822Y00422*
X00822Y00426*
X00822Y00427*
D01*
X00821Y0043*
X00821Y00434*
X0082Y00438*
X00819Y00442*
X00818Y00446*
X00817Y0045*
X00815Y00453*
X00813Y00457*
X00811Y0046*
X00808Y00463*
X00806Y00466*
X00803Y00469*
X008Y00471*
X00796Y00474*
X00793Y00476*
X00793Y00477*
D01*
X00796Y00479*
X00799Y00481*
X00802Y00483*
X00805Y00486*
X00808Y00489*
X0081Y00492*
X00813Y00495*
X00815Y00499*
X00817Y00503*
X00818Y00506*
X00819Y0051*
X0082Y00514*
X00821Y00518*
X00822Y00522*
X00822Y00526*
X00822Y00527*
D01*
X00821Y0053*
X00821Y00534*
X0082Y00538*
X00819Y00542*
X00818Y00546*
X00817Y0055*
X00815Y00553*
X00813Y00557*
X00811Y0056*
X00808Y00563*
X00806Y00566*
X00803Y00569*
X008Y00571*
X00796Y00574*
X00793Y00576*
X00793Y00577*
X00737Y00677D02*
D01*
X00733Y00674*
X0073Y00672*
X00727Y0067*
X00724Y00667*
X00721Y00664*
X00719Y00661*
X00716Y00658*
X00714Y00654*
X00712Y0065*
X00711Y00647*
X0071Y00643*
X00709Y00639*
X00708Y00635*
X00707Y00631*
X00707Y00627*
X00707Y00623*
X00708Y00619*
X00708Y00615*
X00709Y00611*
X0071Y00608*
X00712Y00604*
X00714Y006*
X00716Y00597*
X00718Y00593*
X0072Y0059*
X00723Y00587*
X00726Y00584*
X00729Y00582*
X00732Y00579*
X00735Y00577*
X00737Y00577*
X00822Y00627D02*
D01*
X00821Y0063*
X00821Y00634*
X0082Y00638*
X00819Y00642*
X00818Y00646*
X00817Y0065*
X00815Y00653*
X00813Y00657*
X00811Y0066*
X00808Y00663*
X00806Y00666*
X00803Y00669*
X008Y00671*
X00796Y00674*
X00793Y00676*
X00793Y00677*
Y00577D02*
D01*
X00796Y00579*
X00799Y00581*
X00802Y00583*
X00805Y00586*
X00808Y00589*
X0081Y00592*
X00813Y00595*
X00815Y00599*
X00817Y00603*
X00818Y00606*
X00819Y0061*
X0082Y00614*
X00821Y00618*
X00822Y00622*
X00822Y00626*
X00822Y00627*
X00793Y00677D02*
D01*
X00796Y00679*
X00799Y00681*
X00802Y00683*
X00805Y00686*
X00808Y00689*
X0081Y00692*
X00813Y00695*
X00815Y00699*
X00817Y00703*
X00818Y00706*
X00819Y0071*
X0082Y00714*
X00821Y00718*
X00822Y00722*
X00822Y00726*
X00822Y00727*
D01*
X00821Y0073*
X00821Y00734*
X0082Y00738*
X00819Y00742*
X00818Y00746*
X00817Y0075*
X00815Y00753*
X00813Y00757*
X00811Y0076*
X00808Y00763*
X00806Y00766*
X00803Y00769*
X008Y00771*
X00796Y00774*
X00793Y00776*
X00793Y00777*
X00742Y0098D02*
D01*
X00738Y00978*
X00734Y00976*
X00731Y00974*
X00728Y00971*
X00725Y00968*
X00722Y00966*
X00719Y00962*
X00717Y00959*
X00715Y00956*
X00713Y00952*
X00711Y00949*
X0071Y00945*
X00709Y00941*
X00708Y00937*
X00707Y00933*
X00707Y00929*
X00707Y00925*
X00707Y00921*
X00708Y00917*
X00708Y00913*
X00709Y00909*
X00711Y00905*
X00712Y00902*
X00714Y00898*
X00716Y00895*
X00719Y00891*
X00721Y00888*
X00724Y00885*
X00727Y00883*
X0073Y0088*
X00733Y00878*
X00737Y00877*
X00793Y00777D02*
D01*
X00796Y00779*
X00799Y00781*
X00802Y00783*
X00805Y00786*
X00808Y00789*
X0081Y00792*
X00813Y00795*
X00815Y00799*
X00817Y00803*
X00818Y00806*
X00819Y0081*
X0082Y00814*
X00821Y00818*
X00822Y00822*
X00822Y00826*
X00822Y00827*
X00793Y00877D02*
D01*
X00796Y00879*
X00799Y00881*
X00802Y00883*
X00805Y00886*
X00808Y00889*
X0081Y00892*
X00813Y00895*
X00815Y00899*
X00817Y00903*
X00818Y00906*
X00819Y0091*
X0082Y00914*
X00821Y00918*
X00822Y00922*
X00822Y00926*
X00822Y00927*
D01*
X00821Y0093*
X00821Y00934*
X0082Y00938*
X00819Y00942*
X00818Y00946*
X00817Y0095*
X00815Y00953*
X00813Y00957*
X00811Y0096*
X00808Y00963*
X00806Y00966*
X00803Y00969*
X008Y00971*
X00796Y00974*
X00793Y00976*
X00789Y00978*
X00788Y0098*
X00822Y00827D02*
D01*
X00821Y0083*
X00821Y00834*
X0082Y00838*
X00819Y00842*
X00818Y00846*
X00817Y0085*
X00815Y00853*
X00813Y00857*
X00811Y0086*
X00808Y00863*
X00806Y00866*
X00803Y00869*
X008Y00871*
X00796Y00874*
X00793Y00876*
X00793Y00877*
X00549Y00977D02*
D01*
X00545Y00975*
X00542Y00974*
X00538Y00972*
X00535Y0097*
X00532Y00968*
X0053Y00966*
X00527Y00963*
X00524Y0096*
X00524Y00959*
X00581Y00977D02*
D01*
X00584Y00978*
X00587Y00979*
X00591Y00981*
X00594Y00983*
X00597Y00985*
X00599Y00987*
X00602Y0099*
X00605Y00993*
X00607Y00995*
X00609Y00998*
X00611Y01002*
X00612Y01005*
X00614Y01008*
X00615Y01012*
X00616Y01015*
X00616Y01019*
X00617Y01023*
X00617Y01026*
X00617Y01027*
X00549Y01077D02*
D01*
X00545Y01075*
X00542Y01074*
X00538Y01072*
X00535Y0107*
X00532Y01068*
X0053Y01066*
X00527Y01063*
X00524Y0106*
X00522Y01058*
X0052Y01055*
X00518Y01051*
X00517Y01048*
X00515Y01045*
X00514Y01041*
X00513Y01038*
X00513Y01034*
X00512Y0103*
X00512Y01027*
X00512Y01023*
X00512Y01019*
X00513Y01016*
X00514Y01012*
X00515Y01009*
X00516Y01005*
X00518Y01002*
X0052Y00999*
X00522Y00996*
X00524Y00993*
X00527Y0099*
X00529Y00988*
X00532Y00985*
X00535Y00983*
X00538Y00981*
X00541Y00979*
X00545Y00978*
X00548Y00977*
X00549Y00977*
Y01177D02*
D01*
X00545Y01175*
X00542Y01174*
X00538Y01172*
X00535Y0117*
X00532Y01168*
X0053Y01166*
X00527Y01163*
X00524Y0116*
X00522Y01158*
X0052Y01155*
X00518Y01151*
X00517Y01148*
X00515Y01145*
X00514Y01141*
X00513Y01138*
X00513Y01134*
X00512Y0113*
X00512Y01127*
X00512Y01123*
X00512Y01119*
X00513Y01116*
X00514Y01112*
X00515Y01109*
X00516Y01105*
X00518Y01102*
X0052Y01099*
X00522Y01096*
X00524Y01093*
X00527Y0109*
X00529Y01088*
X00532Y01085*
X00535Y01083*
X00538Y01081*
X00541Y01079*
X00545Y01078*
X00548Y01077*
X00549Y01077*
X00617Y01027D02*
D01*
X00616Y0103*
X00616Y01034*
X00615Y01037*
X00614Y01041*
X00613Y01044*
X00612Y01048*
X0061Y01051*
X00609Y01054*
X00607Y01057*
X00604Y0106*
X00602Y01063*
X00599Y01065*
X00597Y01067*
X00594Y0107*
X00591Y01072*
X00587Y01073*
X00584Y01075*
X00581Y01076*
X00581Y01077*
D01*
X00584Y01078*
X00587Y01079*
X00591Y01081*
X00594Y01083*
X00597Y01085*
X00599Y01087*
X00602Y0109*
X00605Y01093*
X00607Y01095*
X00609Y01098*
X00611Y01102*
X00612Y01105*
X00614Y01108*
X00615Y01112*
X00616Y01115*
X00616Y01119*
X00617Y01123*
X00617Y01126*
X00617Y01127*
X00549Y01277D02*
D01*
X00545Y01275*
X00542Y01274*
X00538Y01272*
X00535Y0127*
X00532Y01268*
X0053Y01266*
X00527Y01263*
X00524Y0126*
X00522Y01258*
X0052Y01255*
X00518Y01251*
X00517Y01248*
X00515Y01245*
X00514Y01241*
X00513Y01238*
X00513Y01234*
X00512Y0123*
X00512Y01227*
X00512Y01223*
X00512Y01219*
X00513Y01216*
X00514Y01212*
X00515Y01209*
X00516Y01205*
X00518Y01202*
X0052Y01199*
X00522Y01196*
X00524Y01193*
X00527Y0119*
X00529Y01188*
X00532Y01185*
X00535Y01183*
X00538Y01181*
X00541Y01179*
X00545Y01178*
X00548Y01177*
X00549Y01177*
X00617Y01127D02*
D01*
X00616Y0113*
X00616Y01134*
X00615Y01137*
X00614Y01141*
X00613Y01144*
X00612Y01148*
X0061Y01151*
X00609Y01154*
X00607Y01157*
X00604Y0116*
X00602Y01163*
X00599Y01165*
X00597Y01167*
X00594Y0117*
X00591Y01172*
X00587Y01173*
X00584Y01175*
X00581Y01176*
X00581Y01177*
X00617Y01227D02*
D01*
X00616Y0123*
X00616Y01234*
X00615Y01237*
X00614Y01241*
X00613Y01244*
X00612Y01248*
X0061Y01251*
X00609Y01254*
X00607Y01257*
X00604Y0126*
X00602Y01263*
X00599Y01265*
X00597Y01267*
X00594Y0127*
X00591Y01272*
X00587Y01273*
X00584Y01275*
X00581Y01276*
X00581Y01277*
X00549Y01377D02*
D01*
X00545Y01375*
X00542Y01374*
X00538Y01372*
X00535Y0137*
X00532Y01368*
X0053Y01366*
X00527Y01363*
X00524Y0136*
X00522Y01358*
X0052Y01355*
X00518Y01351*
X00517Y01348*
X00515Y01345*
X00514Y01341*
X00513Y01338*
X00513Y01334*
X00512Y0133*
X00512Y01327*
X00512Y01323*
X00512Y01319*
X00513Y01316*
X00514Y01312*
X00515Y01309*
X00516Y01305*
X00518Y01302*
X0052Y01299*
X00522Y01296*
X00524Y01293*
X00527Y0129*
X00529Y01288*
X00532Y01285*
X00535Y01283*
X00538Y01281*
X00541Y01279*
X00545Y01278*
X00548Y01277*
X00549Y01277*
Y01477D02*
D01*
X00545Y01475*
X00542Y01474*
X00538Y01472*
X00535Y0147*
X00532Y01468*
X0053Y01466*
X00527Y01463*
X00524Y0146*
X00522Y01458*
X0052Y01455*
X00518Y01451*
X00517Y01448*
X00515Y01445*
X00514Y01441*
X00513Y01438*
X00513Y01434*
X00512Y0143*
X00512Y01427*
X00512Y01423*
X00512Y01419*
X00513Y01416*
X00514Y01412*
X00515Y01409*
X00516Y01405*
X00518Y01402*
X0052Y01399*
X00522Y01396*
X00524Y01393*
X00527Y0139*
X00529Y01388*
X00532Y01385*
X00535Y01383*
X00538Y01381*
X00541Y01379*
X00545Y01378*
X00548Y01377*
X00549Y01377*
X00581D02*
D01*
X00584Y01378*
X00587Y01379*
X00591Y01381*
X00594Y01383*
X00597Y01385*
X00599Y01387*
X00602Y0139*
X00605Y01393*
X00607Y01395*
X00609Y01398*
X00611Y01402*
X00612Y01405*
X00614Y01408*
X00615Y01412*
X00616Y01415*
X00616Y01419*
X00617Y01423*
X00617Y01426*
X00617Y01427*
D01*
X00616Y0143*
X00616Y01434*
X00615Y01437*
X00614Y01441*
X00613Y01444*
X00612Y01448*
X0061Y01451*
X00609Y01454*
X00607Y01457*
X00604Y0146*
X00602Y01463*
X00599Y01465*
X00597Y01467*
X00594Y0147*
X00591Y01472*
X00587Y01473*
X00584Y01475*
X00581Y01476*
X00581Y01477*
Y01177D02*
D01*
X00584Y01178*
X00587Y01179*
X00591Y01181*
X00594Y01183*
X00597Y01185*
X00599Y01187*
X00602Y0119*
X00605Y01193*
X00607Y01195*
X00609Y01198*
X00611Y01202*
X00612Y01205*
X00614Y01208*
X00615Y01212*
X00616Y01215*
X00616Y01219*
X00617Y01223*
X00617Y01226*
X00617Y01227*
Y01327D02*
D01*
X00616Y0133*
X00616Y01334*
X00615Y01337*
X00614Y01341*
X00613Y01344*
X00612Y01348*
X0061Y01351*
X00609Y01354*
X00607Y01357*
X00604Y0136*
X00602Y01363*
X00599Y01365*
X00597Y01367*
X00594Y0137*
X00591Y01372*
X00587Y01373*
X00584Y01375*
X00581Y01376*
X00581Y01377*
Y01277D02*
D01*
X00584Y01278*
X00587Y01279*
X00591Y01281*
X00594Y01283*
X00597Y01285*
X00599Y01287*
X00602Y0129*
X00605Y01293*
X00607Y01295*
X00609Y01298*
X00611Y01302*
X00612Y01305*
X00614Y01308*
X00615Y01312*
X00616Y01315*
X00616Y01319*
X00617Y01323*
X00617Y01326*
X00617Y01327*
X00549Y01577D02*
D01*
X00545Y01575*
X00542Y01574*
X00538Y01572*
X00535Y0157*
X00532Y01568*
X0053Y01566*
X00527Y01563*
X00524Y0156*
X00522Y01558*
X0052Y01555*
X00518Y01551*
X00517Y01548*
X00515Y01545*
X00514Y01541*
X00513Y01538*
X00513Y01534*
X00512Y0153*
X00512Y01527*
X00512Y01523*
X00512Y01519*
X00513Y01516*
X00514Y01512*
X00515Y01509*
X00516Y01505*
X00518Y01502*
X0052Y01499*
X00522Y01496*
X00524Y01493*
X00527Y0149*
X00529Y01488*
X00532Y01485*
X00535Y01483*
X00538Y01481*
X00541Y01479*
X00545Y01478*
X00548Y01477*
X00549Y01477*
Y01677D02*
D01*
X00545Y01675*
X00542Y01674*
X00538Y01672*
X00535Y0167*
X00532Y01668*
X0053Y01666*
X00527Y01663*
X00524Y0166*
X00522Y01658*
X0052Y01655*
X00518Y01651*
X00517Y01648*
X00515Y01645*
X00514Y01641*
X00513Y01638*
X00513Y01634*
X00512Y0163*
X00512Y01627*
X00512Y01623*
X00512Y01619*
X00513Y01616*
X00514Y01612*
X00515Y01609*
X00516Y01605*
X00518Y01602*
X0052Y01599*
X00522Y01596*
X00524Y01593*
X00527Y0159*
X00529Y01588*
X00532Y01585*
X00535Y01583*
X00538Y01581*
X00541Y01579*
X00545Y01578*
X00548Y01577*
X00549Y01577*
X00476Y01858D02*
D01*
X00474Y01859*
X00472Y0186*
X00471Y01861*
X00469Y01862*
X00467Y01863*
X00465Y01864*
X00463Y01865*
X00461Y01865*
X00459Y01866*
X00457Y01866*
X00455Y01866*
X00455Y01867*
X00476Y01858D02*
D01*
X00474Y01859*
X00472Y0186*
X00471Y01861*
X00469Y01862*
X00467Y01863*
X00465Y01864*
X00463Y01865*
X00461Y01865*
X00459Y01866*
X00457Y01866*
X00455Y01866*
X00455Y01867*
X00513Y01736D02*
D01*
X00512Y01732*
X00512Y01728*
X00512Y01724*
X00512Y01721*
X00513Y01717*
X00513Y01714*
X00514Y0171*
X00516Y01707*
X00517Y01703*
X00519Y017*
X00521Y01697*
X00523Y01694*
X00525Y01691*
X00528Y01688*
X00531Y01686*
X00534Y01684*
X00537Y01682*
X0054Y0168*
X00543Y01678*
X00547Y01677*
X00549Y01677*
X00617Y01527D02*
D01*
X00616Y0153*
X00616Y01534*
X00615Y01537*
X00614Y01541*
X00613Y01544*
X00612Y01548*
X0061Y01551*
X00609Y01554*
X00607Y01557*
X00604Y0156*
X00602Y01563*
X00599Y01565*
X00597Y01567*
X00594Y0157*
X00591Y01572*
X00587Y01573*
X00584Y01575*
X00581Y01576*
X00581Y01577*
Y01477D02*
D01*
X00584Y01478*
X00587Y01479*
X00591Y01481*
X00594Y01483*
X00597Y01485*
X00599Y01487*
X00602Y0149*
X00605Y01493*
X00607Y01495*
X00609Y01498*
X00611Y01502*
X00612Y01505*
X00614Y01508*
X00615Y01512*
X00616Y01515*
X00616Y01519*
X00617Y01523*
X00617Y01526*
X00617Y01527*
Y01627D02*
D01*
X00616Y0163*
X00616Y01634*
X00615Y01637*
X00614Y01641*
X00613Y01644*
X00612Y01648*
X0061Y01651*
X00609Y01654*
X00607Y01657*
X00604Y0166*
X00602Y01663*
X00599Y01665*
X00597Y01667*
X00594Y0167*
X00591Y01672*
X00587Y01673*
X00584Y01675*
X00581Y01676*
X00581Y01677*
Y01577D02*
D01*
X00584Y01578*
X00587Y01579*
X00591Y01581*
X00594Y01583*
X00597Y01585*
X00599Y01587*
X00602Y0159*
X00605Y01593*
X00607Y01595*
X00609Y01598*
X00611Y01602*
X00612Y01605*
X00614Y01608*
X00615Y01612*
X00616Y01615*
X00616Y01619*
X00617Y01623*
X00617Y01626*
X00617Y01627*
X00581Y01677D02*
D01*
X00584Y01678*
X00587Y01679*
X00591Y01681*
X00594Y01683*
X00597Y01685*
X00599Y01687*
X00602Y0169*
X00605Y01693*
X00607Y01695*
X00609Y01698*
X00611Y01702*
X00612Y01705*
X00614Y01708*
X00615Y01712*
X00616Y01715*
X00616Y01719*
X00617Y01723*
X00617Y01726*
X00617Y01727*
D01*
X00616Y0173*
X00616Y01734*
X00615Y01737*
X00614Y01741*
X00613Y01744*
X00612Y01748*
X0061Y01751*
X00609Y01754*
X00607Y01757*
X00604Y0176*
X00602Y01763*
X00599Y01765*
X00597Y01767*
X00594Y0177*
X00591Y01772*
X00587Y01773*
X00584Y01775*
X00581Y01776*
X00577Y01777*
X00574Y01778*
X0057Y01778*
X00566Y01778*
X00563*
X00559Y01778*
X00556Y01779*
X00749Y01077D02*
D01*
X00745Y01075*
X00742Y01074*
X00738Y01072*
X00735Y0107*
X00732Y01068*
X0073Y01066*
X00727Y01063*
X00724Y0106*
X00722Y01058*
X0072Y01055*
X00718Y01051*
X00717Y01048*
X00715Y01045*
X00714Y01041*
X00713Y01038*
X00713Y01034*
X00712Y0103*
X00712Y01027*
X00712Y01023*
X00712Y01019*
X00713Y01016*
X00714Y01012*
X00715Y01009*
X00716Y01005*
X00718Y01002*
X0072Y00999*
X00722Y00996*
X00724Y00993*
X00727Y0099*
X00729Y00988*
X00732Y00985*
X00735Y00983*
X00738Y00981*
X00741Y00979*
X00742Y0098*
X00749Y01177D02*
D01*
X00745Y01175*
X00742Y01174*
X00738Y01172*
X00735Y0117*
X00732Y01168*
X0073Y01166*
X00727Y01163*
X00724Y0116*
X00722Y01158*
X0072Y01155*
X00718Y01151*
X00717Y01148*
X00715Y01145*
X00714Y01141*
X00713Y01138*
X00713Y01134*
X00712Y0113*
X00712Y01127*
X00712Y01123*
X00712Y01119*
X00713Y01116*
X00714Y01112*
X00715Y01109*
X00716Y01105*
X00718Y01102*
X0072Y01099*
X00722Y01096*
X00724Y01093*
X00727Y0109*
X00729Y01088*
X00732Y01085*
X00735Y01083*
X00738Y01081*
X00741Y01079*
X00745Y01078*
X00748Y01077*
X00749Y01077*
X00817Y01127D02*
D01*
X00816Y0113*
X00816Y01134*
X00815Y01137*
X00814Y01141*
X00813Y01144*
X00812Y01148*
X0081Y01151*
X00809Y01154*
X00807Y01157*
X00804Y0116*
X00802Y01163*
X00799Y01165*
X00797Y01167*
X00794Y0117*
X00791Y01172*
X00787Y01173*
X00784Y01175*
X00781Y01176*
X00781Y01177*
X00817Y01027D02*
D01*
X00816Y0103*
X00816Y01034*
X00815Y01037*
X00814Y01041*
X00813Y01044*
X00812Y01048*
X0081Y01051*
X00809Y01054*
X00807Y01057*
X00804Y0106*
X00802Y01063*
X00799Y01065*
X00797Y01067*
X00794Y0107*
X00791Y01072*
X00787Y01073*
X00784Y01075*
X00781Y01076*
X00781Y01077*
D01*
X00784Y01078*
X00787Y01079*
X00791Y01081*
X00794Y01083*
X00797Y01085*
X00799Y01087*
X00802Y0109*
X00805Y01093*
X00807Y01095*
X00809Y01098*
X00811Y01102*
X00812Y01105*
X00814Y01108*
X00815Y01112*
X00816Y01115*
X00816Y01119*
X00817Y01123*
X00817Y01126*
X00817Y01127*
X00749Y01277D02*
D01*
X00745Y01275*
X00742Y01274*
X00738Y01272*
X00735Y0127*
X00732Y01268*
X0073Y01266*
X00727Y01263*
X00724Y0126*
X00722Y01258*
X0072Y01255*
X00718Y01251*
X00717Y01248*
X00715Y01245*
X00714Y01241*
X00713Y01238*
X00713Y01234*
X00712Y0123*
X00712Y01227*
X00712Y01223*
X00712Y01219*
X00713Y01216*
X00714Y01212*
X00715Y01209*
X00716Y01205*
X00718Y01202*
X0072Y01199*
X00722Y01196*
X00724Y01193*
X00727Y0119*
X00729Y01188*
X00732Y01185*
X00735Y01183*
X00738Y01181*
X00741Y01179*
X00745Y01178*
X00748Y01177*
X00749Y01177*
X00817Y01227D02*
D01*
X00816Y0123*
X00816Y01234*
X00815Y01237*
X00814Y01241*
X00813Y01244*
X00812Y01248*
X0081Y01251*
X00809Y01254*
X00807Y01257*
X00804Y0126*
X00802Y01263*
X00799Y01265*
X00797Y01267*
X00794Y0127*
X00791Y01272*
X00787Y01273*
X00784Y01275*
X00781Y01276*
X00781Y01277*
X00749Y01377D02*
D01*
X00745Y01375*
X00742Y01374*
X00738Y01372*
X00735Y0137*
X00732Y01368*
X0073Y01366*
X00727Y01363*
X00724Y0136*
X00722Y01358*
X0072Y01355*
X00718Y01351*
X00717Y01348*
X00715Y01345*
X00714Y01341*
X00713Y01338*
X00713Y01334*
X00712Y0133*
X00712Y01327*
X00712Y01323*
X00712Y01319*
X00713Y01316*
X00714Y01312*
X00715Y01309*
X00716Y01305*
X00718Y01302*
X0072Y01299*
X00722Y01296*
X00724Y01293*
X00727Y0129*
X00729Y01288*
X00732Y01285*
X00735Y01283*
X00738Y01281*
X00741Y01279*
X00745Y01278*
X00748Y01277*
X00749Y01277*
X00817Y01327D02*
D01*
X00816Y0133*
X00816Y01334*
X00815Y01337*
X00814Y01341*
X00813Y01344*
X00812Y01348*
X0081Y01351*
X00809Y01354*
X00807Y01357*
X00804Y0136*
X00802Y01363*
X00799Y01365*
X00797Y01367*
X00794Y0137*
X00791Y01372*
X00787Y01373*
X00784Y01375*
X00781Y01376*
X00781Y01377*
X00788Y0098D02*
D01*
X00791Y00981*
X00794Y00983*
X00797Y00985*
X008Y00988*
X00802Y0099*
X00805Y00993*
X00807Y00996*
X00809Y00999*
X00811Y01002*
X00812Y01005*
X00814Y01009*
X00815Y01012*
X00816Y01016*
X00816Y01019*
X00817Y01023*
X00817Y01027*
X00781Y01177D02*
D01*
X00784Y01178*
X00787Y01179*
X00791Y01181*
X00794Y01183*
X00797Y01185*
X00799Y01187*
X00802Y0119*
X00805Y01193*
X00807Y01195*
X00809Y01198*
X00811Y01202*
X00812Y01205*
X00814Y01208*
X00815Y01212*
X00816Y01215*
X00816Y01219*
X00817Y01223*
X00817Y01226*
X00817Y01227*
X00781Y01277D02*
D01*
X00784Y01278*
X00787Y01279*
X00791Y01281*
X00794Y01283*
X00797Y01285*
X00799Y01287*
X00802Y0129*
X00805Y01293*
X00807Y01295*
X00809Y01298*
X00811Y01302*
X00812Y01305*
X00814Y01308*
X00815Y01312*
X00816Y01315*
X00816Y01319*
X00817Y01323*
X00817Y01326*
X00817Y01327*
X00749Y01477D02*
D01*
X00745Y01475*
X00742Y01474*
X00738Y01472*
X00735Y0147*
X00732Y01468*
X0073Y01466*
X00727Y01463*
X00724Y0146*
X00722Y01458*
X0072Y01455*
X00718Y01451*
X00717Y01448*
X00715Y01445*
X00714Y01441*
X00713Y01438*
X00713Y01434*
X00712Y0143*
X00712Y01427*
X00712Y01423*
X00712Y01419*
X00713Y01416*
X00714Y01412*
X00715Y01409*
X00716Y01405*
X00718Y01402*
X0072Y01399*
X00722Y01396*
X00724Y01393*
X00727Y0139*
X00729Y01388*
X00732Y01385*
X00735Y01383*
X00738Y01381*
X00741Y01379*
X00745Y01378*
X00748Y01377*
X00749Y01377*
X00817Y01427D02*
D01*
X00816Y0143*
X00816Y01434*
X00815Y01437*
X00814Y01441*
X00813Y01444*
X00812Y01448*
X0081Y01451*
X00809Y01454*
X00807Y01457*
X00804Y0146*
X00802Y01463*
X00799Y01465*
X00797Y01467*
X00794Y0147*
X00791Y01472*
X00787Y01473*
X00784Y01475*
X00781Y01476*
X00781Y01477*
D01*
X00784Y01478*
X00787Y01479*
X00791Y01481*
X00794Y01483*
X00797Y01485*
X00799Y01487*
X00802Y0149*
X00805Y01493*
X00807Y01495*
X00809Y01498*
X00811Y01502*
X00812Y01505*
X00814Y01508*
X00815Y01512*
X00816Y01515*
X00816Y01519*
X00817Y01523*
X00817Y01526*
X00817Y01527*
X00749Y01577D02*
D01*
X00745Y01575*
X00742Y01574*
X00738Y01572*
X00735Y0157*
X00732Y01568*
X0073Y01566*
X00727Y01563*
X00724Y0156*
X00722Y01558*
X0072Y01555*
X00718Y01551*
X00717Y01548*
X00715Y01545*
X00714Y01541*
X00713Y01538*
X00713Y01534*
X00712Y0153*
X00712Y01527*
X00712Y01523*
X00712Y01519*
X00713Y01516*
X00714Y01512*
X00715Y01509*
X00716Y01505*
X00718Y01502*
X0072Y01499*
X00722Y01496*
X00724Y01493*
X00727Y0149*
X00729Y01488*
X00732Y01485*
X00735Y01483*
X00738Y01481*
X00741Y01479*
X00745Y01478*
X00748Y01477*
X00749Y01477*
X00817Y01527D02*
D01*
X00816Y0153*
X00816Y01534*
X00815Y01537*
X00814Y01541*
X00813Y01544*
X00812Y01548*
X0081Y01551*
X00809Y01554*
X00807Y01557*
X00804Y0156*
X00802Y01563*
X00799Y01565*
X00797Y01567*
X00794Y0157*
X00791Y01572*
X00787Y01573*
X00784Y01575*
X00781Y01576*
X00781Y01577*
X00743Y01674D02*
D01*
X00739Y01672*
X00736Y0167*
X00733Y01668*
X0073Y01666*
X00727Y01663*
X00725Y0166*
X00723Y01658*
X0072Y01655*
X00718Y01651*
X00717Y01648*
X00715Y01645*
X00714Y01641*
X00713Y01638*
X00712Y01634*
X00712Y0163*
X00712Y01627*
X00712Y01623*
X00712Y01619*
X00713Y01616*
X00713Y01612*
X00714Y01609*
X00716Y01605*
X00717Y01602*
X00719Y01599*
X00721Y01595*
X00723Y01593*
X00726Y0159*
X00728Y01587*
X00731Y01585*
X00734Y01582*
X00737Y0158*
X0074Y01579*
X00744Y01577*
X00747Y01576*
X00749Y01577*
X00781Y01377D02*
D01*
X00784Y01378*
X00787Y01379*
X00791Y01381*
X00794Y01383*
X00797Y01385*
X00799Y01387*
X00802Y0139*
X00805Y01393*
X00807Y01395*
X00809Y01398*
X00811Y01402*
X00812Y01405*
X00814Y01408*
X00815Y01412*
X00816Y01415*
X00816Y01419*
X00817Y01423*
X00817Y01426*
X00817Y01427*
X00781Y01577D02*
D01*
X00784Y01578*
X00787Y01579*
X00791Y01581*
X00794Y01583*
X00797Y01585*
X00799Y01587*
X00802Y0159*
X00805Y01593*
X00807Y01595*
X00809Y01598*
X00811Y01602*
X00812Y01605*
X00814Y01608*
X00815Y01612*
X00816Y01615*
X00816Y01619*
X00817Y01623*
X00817Y01626*
X00817Y01627*
D01*
X00816Y0163*
X00816Y01634*
X00815Y01637*
X00814Y01641*
X00813Y01644*
X00812Y01648*
X0081Y01651*
X00809Y01654*
X00807Y01657*
X00804Y0166*
X00802Y01663*
X00799Y01665*
X00797Y01667*
X00794Y0167*
X00791Y01672*
X00787Y01673*
X00787Y01674*
X0008Y01362D02*
X0014D01*
X00075Y00962D02*
X0014Y01027D01*
X00455Y01837D02*
X00565Y01727D01*
X00115Y01837D02*
X00455D01*
X00075Y01797D02*
X00115Y01837D01*
X0014Y01027D02*
Y01362D01*
Y01732*
X00075Y01797D02*
X0014Y01732D01*
X00025Y00317D02*
X00177D01*
X00025Y00277D02*
X00179D01*
X00025Y00297D02*
X00175D01*
X00025Y00477D02*
X0018D01*
X0006Y00025D02*
Y00672D01*
X0004Y00025D02*
Y00685D01*
X00025Y00337D02*
X00186D01*
X00025Y00237D02*
X00215D01*
X00025Y00257D02*
X0019D01*
X00025Y00437D02*
X00196D01*
X00025Y00457D02*
X00184D01*
X00025Y00357D02*
X00204D01*
X00025Y00417D02*
X00229D01*
X00025Y00697D02*
X00032D01*
X00025Y00497D02*
X00182D01*
X00025Y00677D02*
X00049D01*
X00025Y00737D02*
X00032D01*
X00025Y00757D02*
X00049D01*
X00025Y00777D02*
X00215D01*
X00025Y00517D02*
X00191D01*
X00025Y00537D02*
X00214D01*
X00025Y00837D02*
X0022D01*
X00025Y00857D02*
X00225D01*
X00025Y00797D02*
X00241D01*
X00025Y00817D02*
X00225D01*
X0018Y00326D02*
Y0048D01*
X002Y00025D02*
Y00246D01*
X0018Y00025D02*
Y00274D01*
X0008Y00025D02*
Y0067D01*
X0012Y00025D02*
Y00701D01*
X001Y00025D02*
Y00676D01*
X0022Y00025D02*
Y00235D01*
X0026Y00025D02*
Y00232D01*
X0024Y00025D02*
Y0023D01*
X00185Y003D02*
X00245D01*
X002Y00354D02*
Y00433D01*
X00245Y0024D02*
Y003D01*
Y0036*
X00118Y00697D02*
X00215D01*
X0022Y0054D02*
Y00682D01*
X00123Y00717D02*
X00215D01*
X00101Y00757D02*
X00215D01*
Y00682D02*
Y00791D01*
X00118Y00737D02*
X00215D01*
X0022Y00365D02*
Y0042D01*
X0026Y00368D02*
Y00417D01*
X0024Y0037D02*
Y00415D01*
Y00545D02*
Y00682D01*
X00215Y00791D02*
X0025D01*
X0026Y00543D02*
Y00682D01*
X0024Y00791D02*
Y00797D01*
X00025Y00977D02*
X0003D01*
X0004Y00749D02*
Y0093D01*
X00025Y00937D02*
X00035D01*
X00025Y00025D02*
Y01944D01*
Y00025D02*
Y01944D01*
X0004Y00994D02*
Y01085D01*
X00025Y00877D02*
X00241D01*
X0008Y00764D02*
Y00915D01*
X00025Y00897D02*
X00241D01*
X00025Y00917D02*
X0006D01*
Y00762D02*
Y00917D01*
X0009D02*
X00225D01*
X00025Y01097D02*
X00032D01*
X00025Y00997D02*
X00043D01*
X00025Y01077D02*
X00049D01*
X00025Y01137D02*
X00032D01*
X0004Y01149D02*
Y0133D01*
X00025Y01157D02*
X00049D01*
X00025Y01017D02*
X00088D01*
X0008Y01009D02*
X0011Y01039D01*
X00025Y01037D02*
X00108D01*
X00025Y01057D02*
X0011D01*
X0006Y01007D02*
Y01072D01*
X0008Y01009D02*
Y0107D01*
X001Y00757D02*
Y00921D01*
X0012Y00732D02*
Y00946D01*
X00122Y00967D02*
X00161Y01006D01*
X0016Y00025D02*
Y01004D01*
X0014Y00025D02*
Y00984D01*
X00115Y00937D02*
X0022D01*
X0024Y00876D02*
Y00897D01*
X00122Y00957D02*
X00225D01*
X0018Y0048D02*
Y01807D01*
X002Y00527D02*
Y01807D01*
X0022Y00791D02*
Y01807D01*
X0024Y00976D02*
Y01087D01*
X001Y01029D02*
Y01076D01*
X00101Y01077D02*
X0011D01*
Y01039D02*
Y01085D01*
X00101Y01157D02*
X0011D01*
X0017Y01027D02*
Y01362D01*
X0011Y01149D02*
Y0133D01*
X00132Y00977D02*
X00241D01*
X0026Y00985D02*
Y01087D01*
X0017Y01097D02*
X0022D01*
X0017Y01117D02*
X0022D01*
Y01087D02*
Y01196D01*
X0017Y01137D02*
X0022D01*
X00025Y00177D02*
X00549D01*
X00025Y00137D02*
X00881D01*
X00025Y00157D02*
X00881D01*
X00025Y00197D02*
X00522D01*
X00025Y00217D02*
X00513D01*
X00025Y00037D02*
X00881D01*
X00025Y00025D02*
X00881D01*
X00025D02*
X00881D01*
X00025Y00097D02*
X00881D01*
X00025Y00117D02*
X00881D01*
X00025Y00057D02*
X00881D01*
X00025Y00077D02*
X00881D01*
X00025Y00617D02*
X00513D01*
X00245Y003D02*
X00305D01*
X00025Y00637D02*
X00513D01*
X00215Y00682D02*
X00325D01*
X00225Y00737D02*
X0027D01*
X00025Y00557D02*
X0052D01*
X00025Y00377D02*
X0052D01*
X00025Y00397D02*
X0052D01*
X00025Y00577D02*
X0052D01*
X00025Y00597D02*
X0052D01*
X00025Y00657D02*
X0052D01*
X00101Y00677D02*
X0052D01*
X00275Y00237D02*
X00513D01*
X003Y00025D02*
Y00257D01*
X0028Y00025D02*
Y00239D01*
Y00361D02*
Y00425D01*
X0032Y00025D02*
Y00682D01*
X003Y00343D02*
Y00445D01*
Y00257D02*
X0052D01*
X00311Y00277D02*
X0052D01*
X00315Y00297D02*
X0052D01*
X00286Y00357D02*
X0052D01*
X00261Y00417D02*
X00513D01*
X00313Y00317D02*
X00513D01*
X00304Y00337D02*
X00513D01*
X00276Y00537D02*
X00513D01*
X00294Y00437D02*
X00513D01*
X00299Y00517D02*
X00513D01*
X0027Y00692D02*
Y00737D01*
X00315*
X003Y00515D02*
Y00682D01*
X0028Y00535D02*
Y00682D01*
X00306Y00457D02*
X0052D01*
X0031Y00477D02*
X0052D01*
X00308Y00497D02*
X0052D01*
X00325Y00737D02*
X00513D01*
X00325Y00757D02*
X0052D01*
X00325Y00697D02*
X0052D01*
X00325Y00717D02*
X00513D01*
X003Y00791D02*
Y00797D01*
X0029Y00791D02*
X00325D01*
X00299Y00797D02*
X0052D01*
X00315Y00817D02*
X00513D01*
X00319Y0084D02*
X00373Y00894D01*
X00319Y00932D02*
X00343Y00955D01*
X0032Y00837D02*
X00513D01*
X0032Y00937D02*
X00324D01*
X0022Y01087D02*
X0033D01*
X003Y00976D02*
Y01087D01*
X0028Y00985D02*
Y01087D01*
X0023Y01142D02*
X00275D01*
Y01097D02*
Y01142D01*
X0032*
X00152Y00997D02*
X00343D01*
X00315Y00957D02*
X00343D01*
X00299Y00977D02*
X00343D01*
X00168Y01017D02*
X00343D01*
X0017Y01037D02*
X00343D01*
X0017Y01057D02*
X00343D01*
X0017Y01077D02*
X00343D01*
X0032Y00791D02*
Y00841D01*
X0034Y00025D02*
Y00861D01*
X00325Y00682D02*
Y00791D01*
X0032Y00933D02*
Y01087D01*
X0034Y00953D02*
Y01209D01*
X00343Y00955D02*
Y01209D01*
X00325Y00777D02*
X0052D01*
X00336Y00857D02*
X0052D01*
X00356Y00877D02*
X0052D01*
X0036Y00025D02*
Y00881D01*
X00375Y00894D02*
X0052D01*
X004Y00025D02*
Y00894D01*
X0038Y00025D02*
Y00894D01*
X0033Y01117D02*
X00343D01*
X00407Y01037D02*
X00513D01*
X0033Y01097D02*
X00343D01*
X0033Y01137D02*
X00343D01*
X0033Y01157D02*
X00343D01*
X00407Y00959D02*
Y01247D01*
X0033Y01087D02*
Y01196D01*
X00407Y01057D02*
X00522D01*
X00407Y00959D02*
X00524D01*
X00407Y01017D02*
X00513D01*
X00407Y01137D02*
X00513D01*
X00407Y01157D02*
X00522D01*
X00407Y01077D02*
X00549D01*
X00407Y01097D02*
X00522D01*
X00025Y01217D02*
X0011D01*
X0006Y01162D02*
Y01317D01*
X00025D02*
X0006D01*
X00025Y01337D02*
X00035D01*
X00025Y01377D02*
X0003D01*
X0004Y01394D02*
Y0152D01*
X00025Y01237D02*
X0011D01*
X00025Y01177D02*
X0011D01*
X00025Y01197D02*
X0011D01*
X00025Y01257D02*
X0011D01*
X00025Y01277D02*
X0011D01*
X00025Y01297D02*
X0011D01*
X00025Y01397D02*
X00043D01*
X0006Y01407D02*
Y01507D01*
X00025Y01517D02*
X00043D01*
X00025Y01597D02*
X0006D01*
X00025Y01537D02*
X0003D01*
X00025Y01577D02*
X00035D01*
X00025Y01457D02*
X0011D01*
X00025Y01417D02*
X0011D01*
X00025Y01437D02*
X0011D01*
X00025Y01477D02*
X0011D01*
X00025Y01497D02*
X0011D01*
X00025Y01617D02*
X0011D01*
X0017Y01237D02*
X00226D01*
X0017Y01157D02*
X0022D01*
X0017Y01177D02*
X0022D01*
X0008Y01164D02*
Y01315D01*
X001Y01157D02*
Y01321D01*
X0009Y01317D02*
X0011D01*
X0017Y01197D02*
X00254D01*
X0024Y01196D02*
Y01207D01*
X0017Y01217D02*
X00232D01*
X0017Y01257D02*
X00228D01*
X0017Y01277D02*
X0024D01*
Y01307D01*
X0017Y01317D02*
X00232D01*
X0008Y01409D02*
Y01505D01*
X0011Y01394D02*
Y0152D01*
X001Y01402D02*
Y01511D01*
X0009Y01597D02*
X0011D01*
X0017Y01537D02*
X0022D01*
X0017Y01617D02*
X0022D01*
X0017Y01377D02*
X0024D01*
X0017Y01337D02*
X00226D01*
X0017Y01357D02*
X00228D01*
X0017Y01577D02*
X0022D01*
X0017Y01597D02*
X0022D01*
X0024Y01377D02*
Y01517D01*
X0017Y01557D02*
X0022D01*
X00025Y01737D02*
X00093D01*
X001Y01592D02*
Y01729D01*
X0008Y01599D02*
Y01749D01*
X0004Y01584D02*
Y01765D01*
X0006Y01597D02*
Y01752D01*
X00025Y01677D02*
X0011D01*
X00025Y01637D02*
X0011D01*
X00025Y01657D02*
X0011D01*
X00025Y01697D02*
X0011D01*
X00025Y01717D02*
X0011D01*
Y01584D02*
Y01719D01*
X0008Y0175D02*
X0011Y01719D01*
X00025Y01817D02*
X00032D01*
X00025Y01757D02*
X00049D01*
X00025Y01777D02*
X00032D01*
X00025Y01837D02*
X00049D01*
X0004Y01829D02*
Y01944D01*
X0006Y01842D02*
Y01944D01*
X00025Y01857D02*
X00093D01*
X0008Y01844D02*
X00094Y01858D01*
X0008Y01844D02*
Y01944D01*
X001Y01863D02*
Y01944D01*
X0012Y01867D02*
Y01944D01*
X0017Y01362D02*
Y01732D01*
X0022Y01517D02*
Y01626D01*
X00122Y01792D02*
X00161Y01753D01*
X0016Y01754D02*
Y01807D01*
X0017Y01657D02*
X00228D01*
X0024Y01626D02*
Y01637D01*
X0017D02*
X0024D01*
X0017Y01697D02*
X00232D01*
X0017Y01737D02*
X0024D01*
X0017Y01677D02*
X00226D01*
X0024Y01707D02*
Y01737D01*
X00122Y01802D02*
X00127Y01807D01*
X0014Y01774D02*
Y01807D01*
Y01867D02*
Y01944D01*
X0018Y01867D02*
Y01944D01*
X0016Y01867D02*
Y01944D01*
X00123Y01797D02*
X00232D01*
X00157Y01757D02*
X00228D01*
X00137Y01777D02*
X00226D01*
X00127Y01807D02*
X0024D01*
X002Y01867D02*
Y01944D01*
X0024Y01867D02*
Y01944D01*
X0022Y01867D02*
Y01944D01*
Y01196D02*
X00255D01*
X0017Y01297D02*
X00254D01*
X003Y01285D02*
Y01299D01*
X0026Y01289D02*
Y01295D01*
X00295Y01196D02*
X0033D01*
X00296Y01197D02*
X00343D01*
X00312Y01209D02*
X00343D01*
X00296Y01297D02*
X00343D01*
X00312Y01274D02*
X00343D01*
X0031Y01277D02*
X00343D01*
X0017Y01397D02*
X00343D01*
X0031Y01377D02*
X00343D01*
X0022Y01517D02*
X0033D01*
X0026Y01389D02*
Y01517D01*
X003Y01385D02*
Y01517D01*
X0028Y01391D02*
Y01517D01*
X0017Y01437D02*
X00343D01*
X00318Y01317D02*
X00343D01*
X0017Y01417D02*
X00343D01*
X0017Y01497D02*
X00343D01*
X0017Y01517D02*
X00343D01*
X0017Y01457D02*
X00343D01*
X0017Y01477D02*
X00343D01*
X0032Y01196D02*
Y01209D01*
X0033Y01177D02*
X00343D01*
X00407Y01217D02*
X00513D01*
X0032Y01274D02*
Y01321D01*
X00407Y01237D02*
X00513D01*
X00324Y01337D02*
X00343D01*
X00407Y01257D02*
X00522D01*
X00407Y01177D02*
X00549D01*
X00407Y01197D02*
X00522D01*
X00407Y01317D02*
X00513D01*
X00407Y01337D02*
X00513D01*
X00407Y01277D02*
X00549D01*
X00407Y01297D02*
X00522D01*
X00322Y01357D02*
X00343D01*
X00407Y01437D02*
X00513D01*
X00407Y01517D02*
X00513D01*
X0032Y01363D02*
Y01517D01*
X0033Y01537D02*
X00343D01*
X00407D02*
X00513D01*
X0033Y01557D02*
X00343D01*
X00407Y01397D02*
X00522D01*
X00407Y01357D02*
X00522D01*
X00407Y01377D02*
X00549D01*
X00407Y01477D02*
X00549D01*
X00407Y01497D02*
X00522D01*
X00407Y01417D02*
X00513D01*
X00407Y01457D02*
X00522D01*
X0022Y01626D02*
X00255D01*
X00275Y01527D02*
Y01572D01*
X0023D02*
X00275D01*
X0017Y01717D02*
X00254D01*
X003Y01715D02*
Y01729D01*
X0026Y01719D02*
Y01725D01*
X00275Y01572D02*
X0032D01*
X00318Y01697D02*
X00522D01*
X00296Y01717D02*
X00513D01*
X0032Y01693D02*
Y01751D01*
X0031Y01737D02*
X00513D01*
X00318Y01797D02*
X00453D01*
X0031Y01807D02*
X00443D01*
X0026Y01867D02*
Y01944D01*
X003Y01867D02*
Y01944D01*
X0028Y01867D02*
Y01944D01*
X00025Y01897D02*
X00881D01*
X00115Y01867D02*
X00455D01*
X00025Y01877D02*
X00881D01*
X00025Y01944D02*
X00881D01*
X00025D02*
X00881D01*
X00025Y01917D02*
X00881D01*
X00025Y01937D02*
X00881D01*
X0033Y01517D02*
Y01571D01*
X00343Y01274D02*
Y01558D01*
X0034Y01274D02*
Y01561D01*
X00324Y01668D02*
X00398Y01595D01*
X0033Y01571D02*
X00343Y01558D01*
X0038Y01613D02*
Y01807D01*
X00407Y01247D02*
Y01572D01*
Y01577D02*
X00549D01*
X00396Y01597D02*
X00522D01*
X00376Y01617D02*
X00513D01*
X004Y01593D02*
Y01807D01*
X0032Y01793D02*
Y01807D01*
X0034Y01653D02*
Y01807D01*
Y01867D02*
Y01944D01*
X0032Y01867D02*
Y01944D01*
X0036Y01633D02*
Y01807D01*
Y01867D02*
Y01944D01*
X00324Y01677D02*
X00549D01*
X00356Y01637D02*
X00513D01*
X00336Y01657D02*
X00522D01*
X00322Y01757D02*
X00493D01*
X00324Y01777D02*
X00473D01*
X004Y01867D02*
Y01944D01*
X0038Y01867D02*
Y01944D01*
X0054Y00025D02*
Y00181D01*
X0058Y00025D02*
Y00177D01*
X0056Y00025D02*
Y00175D01*
X0052Y00254D02*
Y003D01*
Y00025D02*
Y002D01*
Y00254D02*
Y003D01*
X00581Y00177D02*
X00737D01*
X006Y00025D02*
Y00188D01*
X00608Y00197D02*
X00716D01*
X0061Y00257D02*
X00716D01*
X0061Y00297D02*
X00716D01*
X0052Y00354D02*
Y004D01*
Y00354D02*
Y004D01*
Y00454D02*
Y005D01*
Y00554D02*
Y006D01*
X0061Y00357D02*
X00716D01*
X0052Y00454D02*
Y005D01*
X0061Y00554D02*
Y006D01*
Y00597D02*
X00716D01*
X0061Y00254D02*
Y003D01*
X00617Y00217D02*
X00708D01*
X00617Y00317D02*
X00708D01*
X0061Y00354D02*
Y004D01*
X00617Y00237D02*
X00708D01*
X0072Y00025D02*
Y00191D01*
Y00263D02*
Y00291D01*
X00617Y00337D02*
X00708D01*
X0061Y00397D02*
X00716D01*
X0072Y00363D02*
Y00391D01*
X00617Y00417D02*
X00708D01*
X0061Y00454D02*
Y005D01*
X00617Y00437D02*
X00708D01*
X00617Y00517D02*
X00708D01*
X00617Y00537D02*
X00708D01*
X0061Y00457D02*
X00716D01*
X0072Y00463D02*
Y00491D01*
X0061Y00477D02*
X00737D01*
X0061Y00497D02*
X00716D01*
X0061Y00557D02*
X00716D01*
X0072Y00563D02*
Y00591D01*
X0048Y00025D02*
Y00894D01*
X005Y00025D02*
Y00894D01*
X0052Y00554D02*
Y006D01*
X0042Y00025D02*
Y00894D01*
X0046Y00025D02*
Y00894D01*
X0044Y00025D02*
Y00894D01*
X0052Y00654D02*
Y007D01*
Y00654D02*
Y007D01*
X0061Y00654D02*
Y007D01*
X0052Y00754D02*
Y008D01*
X0061Y00754D02*
Y008D01*
X0052Y00754D02*
Y008D01*
Y00854D02*
Y00894D01*
Y00854D02*
Y00894D01*
X0061Y00797D02*
X00716D01*
X0061Y00757D02*
X00716D01*
X0061Y00777D02*
X00737D01*
X00608Y00957D02*
X00716D01*
X0061Y00854D02*
Y009D01*
X0062Y00025D02*
Y01944D01*
X0064Y00025D02*
Y01944D01*
X0068Y00025D02*
Y01944D01*
X0066Y00025D02*
Y01944D01*
X0061Y00657D02*
X00716D01*
X00617Y00617D02*
X00708D01*
X00617Y00637D02*
X00708D01*
X007Y00025D02*
Y01944D01*
X0061Y00677D02*
X00737D01*
X0072Y00663D02*
Y00691D01*
X00617Y00817D02*
X00708D01*
X00617Y00717D02*
X00708D01*
X00617Y00737D02*
X00708D01*
X00617Y00837D02*
X00708D01*
X00617Y00917D02*
X00708D01*
X0061Y00697D02*
X00716D01*
X0072Y00763D02*
Y00791D01*
X0061Y00857D02*
X00716D01*
X0061Y00897D02*
X00716D01*
X00617Y00937D02*
X00708D01*
X0072Y00863D02*
Y00891D01*
X0074Y00025D02*
Y00175D01*
X0076Y00025D02*
Y0017D01*
X00765Y00179D02*
Y00227D01*
X0061Y00277D02*
X00737D01*
X00718Y00227D02*
X00765D01*
X00812*
X0078Y00025D02*
Y00171D01*
X00793Y00177D02*
X00881D01*
X00793Y00277D02*
X00881D01*
X0061Y00377D02*
X00737D01*
X00718Y00327D02*
X00765D01*
X00718Y00427D02*
X00765D01*
X0061Y00577D02*
X00737D01*
X00718Y00527D02*
X00765D01*
Y00327D02*
X00812D01*
X00793Y00377D02*
X00881D01*
X00765Y00427D02*
X00812D01*
X00765Y00527D02*
X00812D01*
X008Y00025D02*
Y00181D01*
X0082Y00025D02*
Y0021D01*
X00822Y00237D02*
X00881D01*
X008Y00272D02*
Y00281D01*
X0082Y00244D02*
Y0031D01*
Y00344D02*
Y0041D01*
X00814Y00197D02*
X00881D01*
X00822Y00217D02*
X00881D01*
X00814Y00257D02*
X00881D01*
X00814Y00297D02*
X00881D01*
X00814Y00357D02*
X00881D01*
X00822Y00317D02*
X00881D01*
X00822Y00337D02*
X00881D01*
X008Y00372D02*
Y00381D01*
X00822Y00417D02*
X00881D01*
X00822Y00437D02*
X00881D01*
X0082Y00444D02*
Y0051D01*
X008Y00472D02*
Y00481D01*
X00793Y00477D02*
X00881D01*
X00814Y00397D02*
X00881D01*
X00814Y00457D02*
X00881D01*
X00814Y00497D02*
X00881D01*
X00814Y00557D02*
X00881D01*
X00822Y00517D02*
X00881D01*
X00822Y00537D02*
X00881D01*
X00718Y00627D02*
X00765D01*
X008Y00572D02*
Y00581D01*
X00765Y00627D02*
X00812D01*
X008Y00672D02*
Y00681D01*
X00718Y00727D02*
X00765D01*
X00793Y00577D02*
X00881D01*
X00793Y00677D02*
X00881D01*
X00765Y00727D02*
X00812D01*
X0061Y00877D02*
X00737D01*
X008Y00772D02*
Y00781D01*
X00718Y00827D02*
X00765D01*
Y00927D02*
X00812D01*
X00718D02*
X00765D01*
Y00827D02*
X00812D01*
X00793Y00777D02*
X00881D01*
X00793Y00877D02*
X00881D01*
X0082Y00544D02*
Y0061D01*
X0084Y00025D02*
Y01944D01*
X0082Y00644D02*
Y0071D01*
X0086Y00025D02*
Y01944D01*
X00881Y00025D02*
Y01944D01*
X0088Y00025D02*
Y01944D01*
X00814Y00597D02*
X00881D01*
X00822Y00617D02*
X00881D01*
X00822Y00637D02*
X00881D01*
X00814Y00657D02*
X00881D01*
X00814Y00697D02*
X00881D01*
Y00025D02*
Y01944D01*
X00822Y00717D02*
X00881D01*
X00814Y00757D02*
X00881D01*
X00822Y00737D02*
X00881D01*
X0082Y00744D02*
Y0081D01*
Y00844D02*
Y0091D01*
X008Y00872D02*
Y00881D01*
X00822Y00817D02*
X00881D01*
X0082Y00944D02*
Y01944D01*
X00814Y00797D02*
X00881D01*
X00822Y00837D02*
X00881D01*
X00814Y00857D02*
X00881D01*
X00814Y00897D02*
X00881D01*
X00814Y00957D02*
X00881D01*
X00822Y00917D02*
X00881D01*
X00822Y00937D02*
X00881D01*
X00407Y00997D02*
X00522D01*
X0052Y00959D02*
Y01D01*
X0054Y00973D02*
Y00981D01*
X00407Y01117D02*
X00513D01*
X0052Y01054D02*
Y011D01*
X0054Y01073D02*
Y01081D01*
X00407Y00977D02*
X00549D01*
X0052Y01154D02*
Y012D01*
X0054Y01173D02*
Y01181D01*
Y01273D02*
Y01281D01*
X0052Y01254D02*
Y013D01*
Y01354D02*
Y014D01*
X0054Y01373D02*
Y01381D01*
X006Y00966D02*
Y00988D01*
X00617Y01017D02*
X00713D01*
X00617Y01037D02*
X00713D01*
X006Y01066D02*
Y01088D01*
Y01166D02*
Y01188D01*
X00617Y01117D02*
X00713D01*
X0072Y00963D02*
Y01D01*
Y01054D02*
Y011D01*
X00617Y01137D02*
X00713D01*
X00608Y01197D02*
X00722D01*
X0072Y01154D02*
Y012D01*
X00617Y01217D02*
X00713D01*
X006Y01266D02*
Y01288D01*
Y01366D02*
Y01388D01*
X00617Y01417D02*
X00713D01*
X00617Y01437D02*
X00713D01*
X00608Y01257D02*
X00722D01*
X00617Y01237D02*
X00713D01*
X0072Y01254D02*
Y013D01*
X00617Y01317D02*
X00713D01*
X00608Y01357D02*
X00722D01*
X00617Y01337D02*
X00713D01*
X0072Y01354D02*
Y014D01*
X0048Y00959D02*
Y01769D01*
X005Y00959D02*
Y01749D01*
X0052Y01454D02*
Y015D01*
X0042Y00959D02*
Y01807D01*
X0046Y00959D02*
Y01789D01*
X0044Y00959D02*
Y01807D01*
X00407Y01557D02*
X00522D01*
X0054Y01473D02*
Y01481D01*
X0052Y01554D02*
Y016D01*
X0054Y01573D02*
Y01581D01*
X0052Y01654D02*
Y017D01*
X0044Y01867D02*
Y01944D01*
X0042Y01867D02*
Y01944D01*
X0048Y01854D02*
Y01944D01*
X0046Y01866D02*
Y01944D01*
X00443Y01807D02*
X00513Y01736D01*
X0054Y01673D02*
Y01681D01*
X00476Y01858D02*
X00556Y01779D01*
X005Y01834D02*
Y01944D01*
X0054Y01794D02*
Y01944D01*
X0052Y01814D02*
Y01944D01*
X006Y01466D02*
Y01488D01*
Y01566D02*
Y01588D01*
X00617Y01537D02*
X00713D01*
X0072Y01454D02*
Y015D01*
X00617Y01517D02*
X00713D01*
X00617Y01617D02*
X00713D01*
X00617Y01637D02*
X00713D01*
X0072Y01554D02*
Y016D01*
Y01654D02*
Y01674D01*
X006Y01666D02*
Y01688D01*
X00608Y01697D02*
X00713D01*
X0056Y01779D02*
Y01944D01*
X006Y01766D02*
Y01944D01*
X0058Y01777D02*
Y01944D01*
X00581Y01677D02*
X00713D01*
X00617Y01717D02*
X00713D01*
X00617Y01737D02*
X00713D01*
X00608Y01757D02*
X00713D01*
X00581Y01777D02*
X00713D01*
Y01674D02*
Y01779D01*
X0072D02*
Y01944D01*
X00581Y00977D02*
X00737D01*
X00608Y00997D02*
X00722D01*
X00608Y01057D02*
X00722D01*
X00608Y01157D02*
X00722D01*
X0074Y01073D02*
Y01081D01*
X00608Y01097D02*
X00722D01*
X00581Y01077D02*
X00749D01*
X00781D02*
X00881D01*
X00581Y01177D02*
X00749D01*
X0074Y01173D02*
Y01181D01*
X00608Y01297D02*
X00722D01*
X0074Y01273D02*
Y01281D01*
Y01373D02*
Y01381D01*
X00581Y01277D02*
X00749D01*
X00781Y01177D02*
X00881D01*
X00581Y01377D02*
X00749D01*
X00781Y01277D02*
X00881D01*
X00793Y00977D02*
X00881D01*
X008Y00972D02*
Y00988D01*
X00817Y01017D02*
X00881D01*
X008Y01066D02*
Y01088D01*
Y01166D02*
Y01188D01*
X00808Y00997D02*
X00881D01*
X00817Y01037D02*
X00881D01*
X00808Y01057D02*
X00881D01*
X00808Y01097D02*
X00881D01*
X00808Y01157D02*
X00881D01*
X00817Y01117D02*
X00881D01*
X00817Y01137D02*
X00881D01*
X00808Y01197D02*
X00881D01*
X00817Y01217D02*
X00881D01*
X008Y01266D02*
Y01288D01*
X00808Y01257D02*
X00881D01*
X008Y01366D02*
Y01388D01*
X00808Y01297D02*
X00881D01*
X00817Y01237D02*
X00881D01*
X00817Y01317D02*
X00881D01*
X00808Y01357D02*
X00881D01*
X00781Y01377D02*
X00881D01*
X00817Y01337D02*
X00881D01*
X00808Y01397D02*
X00881D01*
X00608D02*
X00722D01*
X00608Y01457D02*
X00722D01*
X0074Y01473D02*
Y01481D01*
X00608Y01497D02*
X00722D01*
X00608Y01557D02*
X00722D01*
X0074Y01573D02*
Y01581D01*
X00581Y01477D02*
X00749D01*
X00781Y01577D02*
X00881D01*
X00581D02*
X00749D01*
X00608Y01597D02*
X00722D01*
X00608Y01657D02*
X00722D01*
X00713Y01674D02*
X00743D01*
X0074Y01779D02*
Y01944D01*
X00517Y01817D02*
X00881D01*
X00713Y01779D02*
X00817D01*
X00537Y01797D02*
X00881D01*
X00497Y01837D02*
X00881D01*
X00477Y01857D02*
X00881D01*
X0078Y01779D02*
Y01944D01*
X0076Y01779D02*
Y01944D01*
X00817Y01417D02*
X00881D01*
X00808Y01457D02*
X00881D01*
X008Y01466D02*
Y01488D01*
Y01566D02*
Y01588D01*
X00781Y01477D02*
X00881D01*
X00817Y01437D02*
X00881D01*
X00808Y01497D02*
X00881D01*
X00808Y01557D02*
X00881D01*
X00808Y01597D02*
X00881D01*
X00817Y01517D02*
X00881D01*
X00817Y01537D02*
X00881D01*
X00787Y01674D02*
X00817D01*
Y01617D02*
X00881D01*
X00817Y01637D02*
X00881D01*
X008Y01666D02*
Y01674D01*
X00817D02*
Y01779D01*
X008D02*
Y01944D01*
X00808Y01657D02*
X00881D01*
X00817Y01677D02*
X00881D01*
X00817Y01697D02*
X00881D01*
X00817Y01757D02*
X00881D01*
X00817Y01777D02*
X00881D01*
X00817Y01717D02*
X00881D01*
X00817Y01737D02*
X00881D01*
G54D20*
X00375Y00927D02*
X00565D01*
X00375D02*
Y00942D01*
Y01247*
X0027Y00837D02*
X00375Y00942D01*
X0019Y01142D02*
Y01487D01*
Y00822D02*
Y01142D01*
X00275*
X0019Y01487D02*
X00275Y01572D01*
X00375Y01247D02*
Y01572D01*
X0037Y01242D02*
X00375Y01247D01*
X00275Y01242D02*
X0037D01*
X00275Y01672D02*
X00375Y01572D01*
X0019Y00822D02*
X00275Y00737D01*
M02*