G04 ================== begin FILE IDENTIFICATION RECORD ==================*
G04 Layout Name:  /home/amu4/spinnaker/PCB/spinnaker2_test_pcb_lib/bunnybot/physical/bunny15.brd*
G04 Film Name:    L3*
G04 File Format:  Gerber RS274X*
G04 File Origin:  16.01-S5*
G04 Origin Date:  Fri Oct  7 14:45:45 2011*
G04 *
G04 Layer:  ETCH/L3*
G04 Layer:  PIN/L3*
G04 Layer:  VIA CLASS/L3*
G04 *
G04 Offset:    (0.0000 0.0000)*
G04 Mirror:    No*
G04 Mode:      Positive*
G04 Rotation:  0*
G04 FullContactRelief:  No*
G04 UndefLineWidth:     0.0000*
G04 ================== end FILE IDENTIFICATION RECORD ====================*
%FSLAX55Y55*MOMM*%
%IR0*IPPOS*OFA0.00000B0.00000*MIA0B0*SFA1.00000B1.00000*%
%ADD10C,.5*%
%ADD17C,.55*%
%ADD11C,.48*%
%ADD15C,.9144*%
%ADD21C,1.1*%
%ADD13C,1.05*%
%ADD12C,1.524*%
%ADD20C,2.0828*%
%ADD18C,1.397*%
%ADD16C,2.667*%
%ADD19C,3.7592*%
%ADD14C,3.9878*%
%ADD22C,.15*%
%ADD23C,.25*%
%ADD27C,2.2148*%
%ADD26C,2.8244*%
%ADD25C,1.7804*%
%ADD24C,5.2882*%
G75*
%LPD*%
G75*
G36*
G01X-2849970Y-5899990D02*
Y-5349970D01*
X-4399990D01*
Y-4300000D01*
X2220350D01*
Y-4460520D01*
X2383500D01*
Y-4506220D01*
G02X2358620Y-4517510I-15001J-1D01*
G03Y-4651490I-58620J-66990D01*
G02X2383500Y-4662780I9879J-11289D01*
G01Y-5414750D01*
X2378600Y-5416560D01*
G03X2364490Y-5423250I30936J-83472D01*
G03X2274420I-45035J-76789D01*
G03X2184360I-45030J-76790D01*
G03X2094300I-45030J-76790D01*
G03X1980990Y-5557170I-45042J-76786D01*
G03X1978160Y-5637300I78019J-42870D01*
G02X1974710Y-5647140I-6811J-3137D01*
G03X1965160Y-5652680I39809J-79625D01*
G03X1866420Y-5652690I-49362J-74080D01*
G03Y-5800830I-49380J-74070D01*
G03X1965160Y-5800840I49378J74070D01*
G03X2063900Y-5800830I49362J74080D01*
G03X2162660I49380J74070D01*
G03X2261400Y-5800840I49378J74070D01*
G03X2360140Y-5800830I49362J74080D01*
G03X2490120Y-5688980I49376J74070D01*
G03Y-5613400I-80600J37790D01*
G03X2493000Y-5606530I-80587J37822D01*
G01X2494810Y-5601630D01*
X2581060D01*
G02X2593820Y-5624510I-1J-14999D01*
G03X2822850Y-5767010I114739J-70890D01*
G02X2848270I12710J-7964D01*
G03X3038360Y-5583850I114290J71607D01*
G01X3035080Y-5581620D01*
Y-5456590D01*
X3020290D01*
G02X3007960Y-5433050I3J15001D01*
G03X2778320Y-5036950I-207961J144051D01*
G02X2762360Y-5018930I-1280J14944D01*
G03X2547880Y-4822270I-165557J34728D01*
G02X2528540Y-4807910I-4340J14359D01*
G01Y-4315480D01*
X2365390D01*
Y-4300000D01*
X2668930D01*
G02X2681510Y-4323160I-3J-14998D01*
G03X2804730Y-4541140I118488J-76838D01*
G02X2816930Y-4565530I508J-14992D01*
G03X3041810Y-4736240I110073J-88473D01*
G02X3066190I12190J-8730D01*
G03X3295810I114810J82240D01*
G02X3320190I12190J-8730D01*
G03X3549810I114810J82240D01*
G02X3574190I12190J-8730D01*
G03X3803810I114810J82240D01*
G02X3828190I12190J-8730D01*
G03X3938270Y-4512860I114807J82237D01*
G02X3926070Y-4488470I-508J14992D01*
G03X3934490Y-4323160I-110069J88476D01*
G02X3947070Y-4300000I12583J8162D01*
G01X4399990D01*
Y-5899990D01*
X-2849970D01*
G37*
G36*
G01X-4399990Y-3849970D02*
Y-3142460D01*
X-4344000D01*
X-4342100Y-3143740D01*
G03X-4323210Y-3153430I49786J73797D01*
G01X-4318310Y-3155240D01*
Y-3214690D01*
X-4323210Y-3216500D01*
G03Y-3383500I30870J-83500D01*
G01X-4318310Y-3385310D01*
Y-3419820D01*
X-4370500D01*
Y-3849970D01*
X-4399990D01*
G37*
G36*
G01X-4061750Y-1328220D02*
G03X-4109810Y-1312040I-51256J-72780D01*
G02X-4117040Y-1304810I267J7497D01*
G03X-4144170Y-1243950I-88964J-3181D01*
G02X-4136700Y-1218450I10415J10793D01*
G03X-4110430Y-1208700I-17454J87292D01*
G02X-4088200Y-1219730I7370J-13063D01*
G03X-4040980Y-1286680I88196J12077D01*
G02Y-1313320I-6910J-13320D01*
G03X-4061750Y-1328220I40965J-79030D01*
G37*
G36*
G01X-3912800Y-1418480D02*
Y-1410250D01*
X-3912660Y-1409530D01*
G03X-3959020Y-1313320I-87341J17188D01*
G02Y-1286680I6910J13320D01*
G03X-3911300Y-1215220I-40976J79027D01*
G02X-3903770Y-1208360I7471J-638D01*
G03X-3890190Y-1207420I661J89017D01*
G02X-3873020Y-1222270I2169J-14844D01*
G01Y-1405710D01*
X-3877920Y-1407520D01*
G03X-3896780Y-1417200I30930J-83475D01*
G01X-3898680Y-1418480D01*
X-3912800D01*
G37*
G36*
G01X-3973500Y1328950D02*
X-3975070Y1329730D01*
G03X-3983740Y1333480I-39625J-79715D01*
G01X-3988640Y1335290D01*
Y1619150D01*
X-3982610Y1620360D01*
G03X-3982230Y1620430I-17390J87300D01*
G02X-3964240Y1605730I2991J-14698D01*
G01Y1328950D01*
X-3973500D01*
G37*
G36*
G01X-3964240Y1994270D02*
G02X-3982230Y1979570I-14999J-2D01*
G03X-3982610Y1979640I-17770J-87230D01*
G01X-3988640Y1980850D01*
Y2223160D01*
X-3987360Y2225060D01*
G03X-3978690Y2241330I-73804J49774D01*
G01X-3976790Y2246010D01*
X-3964240D01*
Y1994270D01*
G37*
G36*
G01X-3696520Y2536740D02*
G02X-3721290Y2525370I-14998J8D01*
G03X-3829080Y2531640I-58005J-67529D01*
G01X-3830980Y2530360D01*
X-4399990D01*
Y3899990D01*
X2170660D01*
G02X2184780Y3879920I2J-15001D01*
G03X2194750Y3800030I83771J-30113D01*
G01X2196030Y3798130D01*
Y3610720D01*
G02X2169350Y3601320I-14998J7D01*
G03X2026200Y3495720I-69348J-55819D01*
G01X2027480Y3493820D01*
Y3448030D01*
X1951680D01*
X1949780Y3449310D01*
G03X1815100Y3402270I-49778J-73800D01*
G01X1813450Y3397030D01*
X1777720D01*
Y3477520D01*
X1765640D01*
Y3487800D01*
X1767460Y3489910D01*
G03X1686260Y3635950I-67458J58087D01*
G02X1669330Y3647370I-2319J14822D01*
G03X1598700Y3703460I-70630J-16425D01*
G01X934250D01*
X933490Y3710110D01*
G03X756610I-88440J-10110D01*
G01X755850Y3703460D01*
X234250D01*
X233490Y3710110D01*
G03X56610I-88440J-10110D01*
G01X55850Y3703460D01*
X-465750D01*
X-466510Y3710110D01*
G03X-643390I-88440J-10110D01*
G01X-644150Y3703460D01*
X-1195750D01*
X-1196510Y3710110D01*
G03X-1373390I-88440J-10110D01*
G01X-1374150Y3703460D01*
X-1965750D01*
X-1966510Y3710110D01*
G03X-2143390I-88440J-10110D01*
G01X-2144150Y3703460D01*
X-2695750D01*
X-2696510Y3710110D01*
G03X-2873390I-88440J-10110D01*
G01X-2874150Y3703460D01*
X-3395750D01*
X-3396510Y3710110D01*
G03X-3573390I-88440J-10110D01*
G01X-3574150Y3703460D01*
X-4095750D01*
X-4096510Y3710110D01*
G03X-4158910Y3614870I-88443J-10115D01*
G02X-4139520Y3600530I4391J-14341D01*
G01Y2841180D01*
X-4146260Y2840500D01*
G03X-4017190Y2617760I14264J-140500D01*
G02X-3992810I12190J-8730D01*
G03X-3763190I114810J82240D01*
G02X-3738810I12190J-8730D01*
G03X-3699980Y2580960I114801J82247D01*
G01X-3696520Y2578750D01*
Y2536740D01*
G37*
G36*
G01X-3957170Y2257360D02*
G02X-3972170Y2272720I-3J15001D01*
G03Y2277100I-88990J2190D01*
G02X-3957170Y2292480I14995J380D01*
G01X-3722630D01*
Y2282700D01*
X-3723900Y2280810D01*
G03X-3728870Y2272420I73993J-49498D01*
G03X-3762680Y2258640I15980J-87575D01*
G01X-3764580Y2257360D01*
X-3957170D01*
G37*
G36*
G01X-2923270Y2827240D02*
G02X-2944780Y2840750I-6511J13512D01*
G01Y3021220D01*
X-3934480D01*
Y3055290D01*
X-3927280Y3055570D01*
G03X-3868500Y3074110I-4724J117427D01*
G03X-3741500I63500J98890D01*
G03X-3614500I63500J98890D01*
G03X-3487500I63500J98890D01*
G03X-3360500I63500J98890D01*
G03X-3233500I63500J98890D01*
G03X-3106500I63500J98890D01*
G03X-2979500I63500J98890D01*
G03X-2852500I63500J98890D01*
G03X-2826450Y3061610I63481J98899D01*
G02X-2821630Y3052460I-2396J-7107D01*
G03X-2809770Y2978440I85659J-24235D01*
G01X-2808490Y2976540D01*
Y2851400D01*
G02X-2827190Y2836860I-15001J-3D01*
G03X-2923270Y2827240I-34818J-136861D01*
G37*
G36*
G01X-3330330Y-1172630D02*
X-3332550Y-1169270D01*
G03X-3387590Y-1137020I-60447J-40070D01*
G03X-3419050Y-1122700I-51908J-72320D01*
G03X-3465940Y-1071240I-84007J-29453D01*
G03X-3460540Y-1041540I-83617J30544D01*
G02X-3445540Y-1026680I14998J-139D01*
G01X-3350160D01*
X-3348610Y-1032120D01*
G03X-3245220Y-1094940I85610J24408D01*
G03X-3241330Y-1101740I79142J40761D01*
G02X-3246220Y-1122570I-12681J-8012D01*
G03X-3283480Y-1167730I46217J-76083D01*
G01X-3285290Y-1172630D01*
X-3330330D01*
G37*
G36*
G01X-3768910Y1309660D02*
G02X-3786730Y1294930I-14999J1D01*
G03X-3804100Y1296520I-16761J-87430D01*
G02X-3819200Y1311520I-101J14999D01*
G01Y1715370D01*
X-3814300Y1717180D01*
G03X-3792750Y1728750I-30935J83472D01*
G02X-3768910Y1716630I8839J-12119D01*
G01Y1309660D01*
G37*
G36*
G01X-3457480Y2087090D02*
G02X-3480980Y2099440I-8502J12355D01*
G01Y2226160D01*
X-3479700Y2228060D01*
G03X-3473120Y2316090I-73801J49777D01*
G03X-3464630Y2397510I-74380J48909D01*
G02X-3453260Y2417760I13965J5476D01*
G03X-3445010Y2419620I-15431J87672D01*
G02X-3426020Y2405160I3990J-14459D01*
G01Y2100910D01*
X-3431460Y2099350D01*
G03X-3457480Y2087090I24435J-85602D01*
G37*
G36*
G01X-3226020Y2052250D02*
G02X-3249670Y2039990I-15000J-5D01*
G03X-3275620Y2052580I-51318J-72737D01*
G01X-3280980Y2054180D01*
Y2215230D01*
G02X-3264180Y2230120I14999J0D01*
G03X-3242820I10680J88380D01*
G02X-3226020Y2215230I1801J-14890D01*
G01Y2052250D01*
G37*
G36*
G01X-3776760Y1882550D02*
G02X-3798220Y1876260I-13542J6448D01*
G03X-3814300Y1884140I-47015J-75593D01*
G01X-3819200Y1885950D01*
Y2112320D01*
X-3764580D01*
X-3762680Y2111040D01*
G03X-3728590Y2097210I49789J73796D01*
G01X-3722410Y2096110D01*
Y1929550D01*
X-3727310Y1927740D01*
G03X-3776760Y1882550I30916J-83482D01*
G37*
G36*
G01X-2582260Y-3180980D02*
Y-3092500D01*
G03X-2582450Y-3087310I-70979J0D01*
G02X-2567480Y-3071240I14963J1069D01*
G01X-2504720D01*
G02X-2490060Y-3089420I2J-15000D01*
G03X-2476580Y-3158480I87000J-18864D01*
G03X-2484380Y-3175810I76812J-44993D01*
G01X-2486080Y-3180980D01*
X-2582260D01*
G37*
G36*
G01X-2950000Y1273650D02*
G03X-2976720Y1285920I-49998J-73651D01*
G01X-2982260Y1287420D01*
Y1628310D01*
G02X-2957560Y1639750I14999J0D01*
G03X-2847650Y1635660I57558J67910D01*
G02X-2824000Y1625760I8818J-12135D01*
G03X-2686190Y1565200I88030J13240D01*
G01X-2684290Y1566480D01*
X-2626020D01*
Y1477790D01*
X-2630920Y1475980D01*
G03Y1309020I30920J-83480D01*
G01X-2626020Y1307210D01*
Y1285290D01*
X-2630920Y1283480D01*
G03X-2650000Y1273650I30933J-83473D01*
G03X-2704140Y1288920I-49997J-73652D01*
G02X-2719750Y1302330I-692J14985D01*
G03X-2897240Y1296140I-88527J-9340D01*
G02X-2904370Y1288910I-7498J263D01*
G03X-2950000Y1273650I4368J-88911D01*
G37*
G36*
G01X-2788320Y1711000D02*
G02X-2811970Y1720900I-8818J12135D01*
G03X-2859020Y1786680I-88027J-13246D01*
G02Y1813320I6910J13320D01*
G03X-2957560Y1960250I-40978J79026D01*
G02X-2982260Y1971690I-9701J11440D01*
G01Y2061240D01*
X-2594040D01*
G02X-2584280Y2034850I-1J-15000D01*
G03X-2588980Y1904000I57931J-67590D01*
G03X-2530180Y1817600I88981J-2652D01*
G01X-2525220Y1815810D01*
Y1793200D01*
X-2530180Y1791410D01*
G03X-2588400Y1718140I30182J-83748D01*
G01X-2589190Y1711520D01*
X-2684290D01*
X-2686190Y1712800D01*
G03X-2788320Y1711000I-49780J-73800D01*
G37*
G36*
G01X-2344810Y1475020D02*
X-2346710Y1476300D01*
G03X-2374530Y1488770I-49784J-73798D01*
G01X-2380180Y1490210D01*
Y1788440D01*
G02X-2362480Y1803200I15000J5D01*
G03X-2279220Y1832380I16056J87561D01*
G02X-2258110Y1833910I11323J-9834D01*
G03X-2209430Y1812830I58108J67440D01*
G02X-2196020Y1797890I-1589J-14915D01*
G03X-2196000Y1796040I89018J37D01*
G02X-2203230Y1788400I-7500J-143D01*
G03X-2283420Y1730530I3225J-88963D01*
G03X-2255370Y1562080I38867J-80088D01*
G02X-2242240Y1546010I-1824J-14890D01*
G03X-2232030Y1497080I88742J-7013D01*
G02X-2245270Y1475020I-13235J-7060D01*
G01X-2344810D01*
G37*
G36*
G01X-2644570Y2836400D02*
G02X-2663450Y2850890I-3879J14490D01*
G01Y2976540D01*
X-2662170Y2978440D01*
G03X-2647940Y3041440I-73801J49777D01*
G02X-2636370Y3058310I14835J2228D01*
G03X-2626990Y3060820I-25662J114681D01*
G02X-2607520Y3046500I4469J-14320D01*
G01Y2969210D01*
X-2579520D01*
Y2855640D01*
G02X-2595810Y2840690I-15001J-5D01*
G03X-2644570Y2836400I-12190J-140691D01*
G37*
G36*
G01X-3050980Y2344520D02*
Y2398820D01*
X-2702300D01*
G02X-2687550Y2381110I-3J-15000D01*
G03X-2688900Y2360310I87549J-16126D01*
G02X-2703880Y2344520I-14978J-791D01*
G01X-3050980D01*
G37*
G36*
G01X-2288320Y2333860D02*
X-2289710Y2339580D01*
G03X-2372950Y2407460I-86488J-21081D01*
G01X-2380180Y2407720D01*
Y2544180D01*
G02X-2364110Y2559140I14999J-1D01*
G03X-2239190Y2617760I10114J140860D01*
G02X-2214810I12190J-8730D01*
G03X-2055410Y2566010I114801J82243D01*
G03X-1987460Y2531240I70610J54210D01*
G01X-1980180Y2531020D01*
Y2454200D01*
X-1987460Y2453980D01*
G03X-2064200Y2405240I2665J-88978D01*
G02X-2073580Y2401630I-6691J3393D01*
G03X-2191910Y2339580I-31842J-83131D01*
G01X-2193300Y2333860D01*
X-2288320D01*
G37*
G36*
G01X-2096120Y-3612820D02*
G02X-2111100Y-3597030I-2J14999D01*
G03X-2122250Y-3548990I-88898J4681D01*
G02X-2109140Y-3526690I13104J7300D01*
G01X-1848130D01*
X-1846230Y-3527970D01*
G03X-1808070Y-3542430I49784J73798D01*
G01X-1801550Y-3543290D01*
Y-3612820D01*
X-2096120D01*
G37*
G36*
G01X-1817570Y419840D02*
G02X-1829260Y444240I0J15001D01*
G03X-1815170Y469080I-69383J55772D01*
G01X-1813360Y473980D01*
X-1697690D01*
X-1695880Y469080D01*
G03X-1689370Y455270I83482J30914D01*
G03X-1695330Y427000I82973J-32256D01*
G01X-1695650Y419840D01*
X-1817570D01*
G37*
G36*
G01X-1813060Y125020D02*
X-1814830Y129990D01*
G03X-1820850Y143270I-83818J-29991D01*
G03X-1959570Y235320I-86808J19731D01*
G03X-1998270Y220570I5403J-72321D01*
G01X-2000280Y219020D01*
X-2018890D01*
X-2020220Y224850D01*
G03X-2031340Y251900I-86775J-19862D01*
G02X-2018590Y274800I12752J7899D01*
G01X-1729710D01*
X-1727460Y271720D01*
G03X-1696290Y247350I58559J42780D01*
G03X-1684610Y207240I88923J4139D01*
G03X-1694180Y143330I77250J-44239D01*
G02X-1708810Y125020I-14630J-3310D01*
G01X-1813060D01*
G37*
G36*
G01X-1689360Y944610D02*
G02X-1713810I-12225J8695D01*
G03X-1755420Y976480I-72536J-51606D01*
G01X-1760320Y978290D01*
Y1030980D01*
X-1663520D01*
X-1661620Y1029700D01*
G03X-1638130Y1018450I49783J73798D01*
G01X-1632850Y1016820D01*
Y980760D01*
X-1638520Y979340D01*
G03X-1689360Y944610I21696J-86336D01*
G37*
G36*
G01X-2115750Y740070D02*
Y795530D01*
X-2143320D01*
G02X-2151750Y822940I-4J15000D01*
G03X-2118210Y865910I-50033J73628D01*
G01X-2116400Y870830D01*
X-2097360D01*
X-2097090Y863610D01*
G03X-2033350Y781570I88957J3333D01*
G02X-2023430Y762260I-4251J-14387D01*
G03X-2027350Y746440I84083J-29230D01*
G01X-2028320Y740070D01*
X-2115750D01*
G37*
G36*
G01X-1624890Y1946610D02*
G02X-1652140Y1955260I-12252J8651D01*
G01Y2028990D01*
G02X-1626530Y2039590I15000J-2D01*
G01X-1586580Y1999640D01*
G02X-1590700Y1975520I-10611J-10599D01*
G03X-1624890Y1946610I38538J-80249D01*
G37*
G36*
G01X-2092880Y1919880D02*
G02X-2115100Y1928110I-7915J12740D01*
G03X-2166780Y1983940I-84903J-26757D01*
G02X-2173180Y2006850I5601J13914D01*
G03X-2173830Y2114520I-71220J53407D01*
G03X-2139460Y2181590I-54591J70317D01*
G01X-2139200Y2188820D01*
X-2040020D01*
Y1933390D01*
X-2047390Y1933270D01*
G03X-2092880Y1919880I1485J-89010D01*
G37*
G36*
G01X-2257510Y2917720D02*
G02X-2272510Y2933080I-3J15001D01*
G03X-2330580Y3018680I-88994J2125D01*
G01X-2335480Y3020490D01*
Y3046500D01*
G02X-2316010Y3060820I15001J0D01*
G03X-2245990I35010J112180D01*
G02X-2226520Y3046500I4469J-14320D01*
G01Y2917720D01*
X-2257510D01*
G37*
G36*
G01X-2081480Y2961230D02*
Y3046500D01*
G02X-2062010Y3060820I15001J0D01*
G03X-1963500Y3074110I35017J112181D01*
G03X-1901930Y3055500I63489J98894D01*
G02X-1887180Y3040500I-251J-14999D01*
G01Y2986900D01*
X-1888460Y2985000D01*
G03X-1898140Y2966130I73802J-49777D01*
G01X-1899960Y2961230D01*
X-2081480D01*
G37*
G36*
G01X-1440380Y-2567210D02*
G02X-1460890Y-2553260I-5511J13950D01*
G01Y-2500520D01*
G02X-1446000Y-2485520I14999J1D01*
G03X-1420490Y-2481590I-656J89019D01*
G03X-1381000Y-2492460I42736J78091D01*
G01X-1373770Y-2492720D01*
Y-2547710D01*
G02X-1391490Y-2562460I-15000J1D01*
G03X-1440380Y-2567210I-16171J-87540D01*
G37*
G36*
G01X-1403910Y-2318410D02*
G03X-1446000Y-2307480I-42742J-78089D01*
G02X-1460890Y-2292480I109J14999D01*
G01Y-2180800D01*
X-1405250D01*
G02X-1390260Y-2196060I-6J-14999D01*
G03X-1375050Y-2247390I89008J-1544D01*
G01X-1373770Y-2249290D01*
Y-2314280D01*
X-1381000Y-2314540D01*
G03X-1403910Y-2318410I3246J-88961D01*
G37*
G36*
G01X-1384680Y203710D02*
G02X-1400830Y188760I-14999J5D01*
G03X-1411220Y188950I-6820J-88760D01*
G02X-1426820Y203940I-601J14987D01*
G01Y354480D01*
X-1411080D01*
G02X-1396360Y336600I-2J-15001D01*
G03X-1385720Y274340I87361J-17109D01*
G01X-1384680Y272580D01*
Y203710D01*
G37*
G36*
G01X-1005310Y1848520D02*
X-1007210Y1849800D01*
G03X-1065200Y1864640I-49780J-73800D01*
G02X-1081580Y1879580I-1380J14936D01*
G01Y2049320D01*
X-1032520D01*
G02X-1021050Y2024650I3J-15000D01*
G03X-988500Y1885620I68050J-57393D01*
G03X-984770Y1868100I88493J9683D01*
G02X-999060Y1848520I-14284J-4579D01*
G01X-1005310D01*
G37*
G36*
G01X-1061180Y2819540D02*
G03X-1107000Y2832240I-45820J-76306D01*
G01X-1112940D01*
X-1114330Y2837970D01*
G03X-1128560Y2868920I-86502J-21025D01*
G02X-1116390Y2892680I12175J8761D01*
G01X-908570D01*
Y2843200D01*
G02X-929560Y2829450I-15000J2D01*
G03X-1061180Y2819540I-56436J-129451D01*
G37*
G36*
G01X-1128310Y2393860D02*
Y2451330D01*
G02X-1101780Y2460920I14998J0D01*
G03X-950430Y2485400I68449J56918D01*
G03X-929050Y2490860I-11168J88319D01*
G02X-908570Y2476900I5482J-13961D01*
G01Y2443530D01*
X-874850D01*
X-873040Y2438630D01*
G03X-861860Y2417610I83480J30918D01*
G02X-874040Y2393860I-12181J-8751D01*
G01X-1128310D01*
G37*
G36*
G01X-914770Y2194360D02*
X-915870Y2200540D01*
G03X-924970Y2226760I-87623J-15721D01*
G02X-911730Y2248820I13235J7060D01*
G01X-826020D01*
Y2194360D01*
X-914770D01*
G37*
G36*
G01X-1064480Y3447520D02*
Y3532760D01*
X-1063200Y3534660D01*
G03X-1053520Y3553520I-73795J49790D01*
G01X-1051710Y3558420D01*
X-619730D01*
X-617920Y3553520D01*
G03X-608240Y3534660I83475J30930D01*
G01X-606960Y3532760D01*
Y3473180D01*
X-608240Y3471280D01*
G03X-617920Y3452420I73795J-49790D01*
G01X-619730Y3447520D01*
X-1064480D01*
G37*
G36*
G01X-1408670Y3172500D02*
G02X-1428790Y3158400I-15001J0D01*
G03X-1477960Y3161730I-30365J-83680D01*
G02X-1496130Y3176390I-3170J14661D01*
G01Y3343200D01*
G02X-1471260Y3354490I14998J-1D01*
G03X-1414370Y3332500I58598J67014D01*
G03X-1409950Y3325220I78216J42507D01*
G01X-1408670Y3323320D01*
Y3172500D01*
G37*
G36*
G01X-822250Y-1464980D02*
Y-1435730D01*
X-821370Y-1434080D01*
G03X-811230Y-1385640I-78629J41741D01*
G03X-783280Y-1373140I-21826J86302D01*
G01X-781380Y-1371860D01*
X-727140D01*
X-725330Y-1376760D01*
G03X-718720Y-1390730I83468J30945D01*
G02X-724870Y-1411660I-12955J-7562D01*
G03X-767980Y-1460080I40368J-79342D01*
G01X-769790Y-1464980D01*
X-822250D01*
G37*
G36*
G01X-104030Y-1570980D02*
G02X-117300Y-1548990I1J15000D01*
G03X-123470Y-1455970I-78760J41490D01*
G03X-112110Y-1424670I-76524J45485D01*
G01X-111100Y-1418360D01*
X-58310D01*
X-56410Y-1419640D01*
G03X-36370Y-1429740I49764J73808D01*
G01X-31380Y-1431510D01*
Y-1570980D01*
X-104030D01*
G37*
G36*
G01X-180800Y2853650D02*
G02X-198510Y2838900I-15000J3D01*
G03X-237520Y2840570I-25487J-138900D01*
G02X-245580Y2846530I-714J7465D01*
G03X-301880Y2912180I-87218J-17830D01*
G01X-306780Y2913990D01*
Y2982680D01*
X-180800D01*
Y2853650D01*
G37*
G36*
G01X-679520Y2851660D02*
G02X-698120Y2837100I-14998J0D01*
G03X-746940Y2840430I-33875J-137099D01*
G02X-763530Y2855340I-1591J14914D01*
G01Y2922680D01*
X-679520D01*
Y2851660D01*
G37*
G36*
G01X-515500Y2836150D02*
G02X-534480Y2850610I-3980J14462D01*
G01Y2952680D01*
X-451820D01*
Y2855820D01*
G02X-467890Y2840860I-14999J1D01*
G03X-515500Y2836150I-10103J-140859D01*
G37*
G36*
G01X-461920Y3477520D02*
Y3532760D01*
X-460640Y3534660D01*
G03X-450960Y3553520I-73795J49790D01*
G01X-449150Y3558420D01*
X1513410D01*
X1515220Y3553520D01*
G03X1625350Y3499500I83480J30919D01*
G03X1632540Y3489910I74661J48486D01*
G01X1634360Y3487800D01*
Y3477520D01*
X-461920D01*
G37*
G36*
G01X419020Y-3273980D02*
Y-3184980D01*
X425040Y-3183770D01*
G03X459410Y-3168820I-17526J87276D01*
G03X465310Y-3168130I-5467J72313D01*
G01X465890Y-3168040D01*
X473980D01*
Y-3273980D01*
X419020D01*
G37*
G36*
G01X465520Y-1660980D02*
Y-1629410D01*
G02X490030Y-1617810I14999J2D01*
G03X596280Y-1622790I56467J68820D01*
G01X598180Y-1621510D01*
X666300D01*
X667480Y-1627570D01*
G03X669770Y-1636680I87358J17117D01*
G02X648540Y-1654420I-14337J-4415D01*
G03X557890Y-1659700I-40873J-79081D01*
G01X555990Y-1660980D01*
X465520D01*
G37*
G36*
G01X272230Y-1120800D02*
G02X248980Y-1133320I-14998J4D01*
G03X194880Y-1118790I-48968J-74343D01*
G02X179020Y-1103810I-859J14976D01*
G01Y-971180D01*
X245260D01*
X247160Y-972460D01*
G03X267230Y-982580I49795J73792D01*
G01X272230Y-984350D01*
Y-1120800D01*
G37*
G36*
G01X417270Y910940D02*
Y1107060D01*
X422200Y1108860D01*
G03X480740Y1192490I-30480J83639D01*
G02X495850Y1207480I14999J-9D01*
G03X502830Y1207700I688J89021D01*
G02X518860Y1193790I1068J-14961D01*
G03X532050Y1153010I88804J6200D01*
G03X524330Y1138850I73977J-49516D01*
G03X456690Y999290I5522J-88848D01*
G03X443900Y930760I74128J-49293D01*
G02X432810Y912950I-14645J-3239D01*
G03X427140Y911320I17185J-70454D01*
G01X425980Y910940D01*
X417270D01*
G37*
G36*
G01X641640Y1702270D02*
G02X623900Y1687530I-14999J6D01*
G03X604490Y1688960I-16206J-87532D01*
G02X588960Y1704490I-537J14993D01*
G03X496330Y1796600I-88961J3168D01*
G01X496170D01*
X488520D01*
Y1812410D01*
X496170D01*
X496330D01*
G03X503010Y1990320I3670J88943D01*
G02X488520Y2005310I509J14991D01*
G01Y2290070D01*
X489800Y2291970D01*
G03X494940Y2300600I-73791J49795D01*
G02X520060Y2302900I13300J-6933D01*
G03X551780Y2277420I70134J54825D01*
G02X555400Y2267600I-3232J-6769D01*
G03X634340Y2142350I81300J-36261D01*
G01X641640Y2142160D01*
Y1702270D01*
G37*
G36*
G01X310520Y2931220D02*
Y3002180D01*
X389730D01*
G02X404470Y2984440I-6J-14999D01*
G03X404990Y2949390I87529J-16230D01*
G02X390330Y2931220I-14661J-3170D01*
G01X310520D01*
G37*
G36*
G01X11230Y2839970D02*
G02X-5760Y2854830I-1991J14866D01*
G01Y3055750D01*
X680Y3056670D01*
G03X19010Y3060820I-16702J116325D01*
G02X38480Y3046500I4469J-14320D01*
G01Y3012690D01*
X56180D01*
Y2855820D01*
G02X40110Y2840860I-14999J1D01*
G03X11230Y2839970I-10113J-140859D01*
G37*
G36*
G01X1413820Y-2271230D02*
Y-1755380D01*
X1421660D01*
X1421990Y-1755410D01*
G03X1427820Y-1755740I7943J88664D01*
G01X1435140Y-1755920D01*
Y-2264230D01*
X1431320Y-2266380D01*
G03X1425490Y-2269970I43728J-77541D01*
G01X1423600Y-2271230D01*
X1413820D01*
G37*
G36*
G01X1263720Y-1450980D02*
Y1497020D01*
X1265000Y1498920D01*
G03X1222120Y1632180I-73800J49782D01*
G01X1217220Y1633990D01*
Y2009180D01*
X1252080D01*
X1252340Y2001950D01*
G03X1295170Y1929070I88959J3254D01*
G01X1298780Y1926880D01*
Y-1040360D01*
X1418320D01*
X1420220Y-1041640D01*
G03X1479570Y-1056340I49775J73802D01*
G02X1496180Y-1071260I1609J-14915D01*
G01Y-1450980D01*
X1263720D01*
G37*
G36*
G01X1273270Y2460210D02*
G02X1247220Y2470350I-11050J10143D01*
G01Y2548420D01*
G02X1265850Y2562970I14999J-3D01*
G03X1310110Y2559140I34153J137029D01*
G02X1326180Y2544180I1071J-14961D01*
G01Y2488320D01*
X1320250Y2487060D01*
G03X1273270Y2460210I18593J-87058D01*
G37*
G36*
G01X957150Y2367460D02*
G02X941360Y2382440I-791J14978D01*
G01Y2572060D01*
G02X964970Y2584340I15000J-2D01*
G03X970020Y2580960I81056J115642D01*
G01X973480Y2578750D01*
Y2382530D01*
G02X958960Y2367530I-15001J-7D01*
G03X957150Y2367460I2535J-88983D01*
G37*
G36*
G01X1126500Y3245520D02*
G02X1112180Y3264990I0J15001D01*
G03X1117430Y3295280I-112174J35043D01*
G01X1117710Y3302480D01*
X1572680D01*
Y3245520D01*
X1126500D01*
G37*
G36*
G01X2162660Y-5652690D02*
G03X2151350Y-5646290I-49380J-74070D01*
G02X2143520Y-5628020I6410J13560D01*
G03X2147920Y-5595590I-84510J27979D01*
G02X2154160Y-5587820I7489J377D01*
G03X2184360Y-5576830I-14842J87775D01*
G03X2274420I45030J76790D01*
G03X2321520Y-5589040I45039J76789D01*
G03X2328920Y-5613400I88001J13429D01*
G03X2321430Y-5638380I80603J-37781D01*
G03X2261400Y-5652680I-10665J-88380D01*
G03X2162660Y-5652690I-49362J-74080D01*
G37*
G36*
G01X1547520Y-3227120D02*
Y-3107730D01*
X1548800Y-3105830D01*
G03X1554870Y-3095360I-73800J49780D01*
G03X1563260Y-3091880I-29867J83861D01*
G01X1564790Y-3091150D01*
X1573980D01*
Y-3114020D01*
X1596400D01*
G02X1607730Y-3138840I-5J-14998D01*
G03X1589520Y-3222000I67271J-58304D01*
G03X1583280Y-3225840I43494J-77668D01*
G01X1581380Y-3227120D01*
X1547520D01*
G37*
G36*
G01X1982820Y-2736850D02*
G02X1959860Y-2749560I-15000J3D01*
G03X1933460Y-2738460I-47254J-75443D01*
G01X1927720Y-2737070D01*
Y-2509320D01*
G02X1943220Y-2494330I15000J-1D01*
G03X1964700Y-2492440I2995J88971D01*
G02X1982820Y-2507110I3121J-14670D01*
G01Y-2736850D01*
G37*
G36*
G01X2029320Y-1898330D02*
G02X2011150Y-1912990I-15000J1D01*
G03X2001490Y-1911450I-18824J-87008D01*
G02X1988420Y-1893150I1545J14921D01*
G03X1960960Y-1806630I-86722J20094D01*
G03X1955830Y-1740660I-84960J26578D01*
G02X1969280Y-1719020I13448J6641D01*
G01X2266320D01*
Y-1774040D01*
X2029320D01*
Y-1898330D01*
G37*
G36*
G01X2174360Y-1984040D02*
Y-1919080D01*
X2296320D01*
Y-1984040D01*
X2174360D01*
G37*
G36*
G01X1752680Y-2210490D02*
G02X1728640Y-2222460I-15001J2D01*
G03X1681240Y-2204700I-53644J-71039D01*
G03X1594770Y-2111010I-88898J4701D01*
G02X1580180Y-2096020I409J14993D01*
G01Y-1719020D01*
X1736130D01*
X1737020Y-1725490D01*
G03X1751400Y-1763060I88178J12214D01*
G01X1752680Y-1764960D01*
Y-1814710D01*
X1747780Y-1816520D01*
G03Y-1983480I30920J-83480D01*
G01X1752680Y-1985290D01*
Y-2210490D01*
G37*
G36*
G01X1947860Y-2256360D02*
G02X1927720Y-2242270I-5140J14091D01*
G01Y-2091420D01*
G02X1949880Y-2078240I15000J-1D01*
G03X1976640Y-2087630I42479J78233D01*
G01X1982820Y-2088730D01*
Y-2250800D01*
X1975550Y-2251020D01*
G03X1947860Y-2256360I2799J-88977D01*
G37*
G36*
G01X1460430Y-879340D02*
G02X1443820Y-864420I-1609J14915D01*
G01Y-607520D01*
G02X1460800Y-592650I15000J1D01*
G03X1480040Y-593190I12202J91711D01*
G02X1496180Y-608150I1140J-14957D01*
G01Y-864420D01*
G02X1479570Y-879340I-15001J-5D01*
G03X1460430I-9570J-88500D01*
G37*
G36*
G01X1777630Y-1573980D02*
X1775820Y-1569080D01*
G03X1687100Y-1511130I-83481J-30918D01*
G02X1671220Y-1496160I-882J14972D01*
G01Y-1141290D01*
X1676120Y-1139480D01*
G03X1719000Y-1006220I-30920J83478D01*
G01X1717720Y-1004320D01*
Y-853960D01*
G02X1739110Y-840390I15001J-2D01*
G03X1826620Y-833750I37895J80551D01*
G02X1849980Y-846200I8361J-12453D01*
G01Y-992020D01*
X2266320D01*
Y-1514710D01*
X2261420Y-1516520D01*
G03X2208860Y-1569080I30920J-83480D01*
G01X2207050Y-1573980D01*
X2192950D01*
X2191140Y-1569080D01*
G03X2050860Y-1531460I-83477J-30921D01*
G02X2026410Y-1521810I-9571J11549D01*
G03X1851890Y-1555240I-88306J-11253D01*
G02X1837360Y-1573980I-14527J-3739D01*
G01X1777630D01*
G37*
G36*
G01X1460430Y-237140D02*
G02X1443820Y-222220I-1609J14915D01*
G01Y-107520D01*
G02X1460800Y-92650I15000J1D01*
G03X1480040Y-93190I12202J91711D01*
G02X1496180Y-108150I1140J-14957D01*
G01Y-222220D01*
G02X1479570Y-237140I-15001J-5D01*
G03X1460430I-9570J-88500D01*
G37*
G36*
G01X2081560Y-437270D02*
G02X2057990Y-425350I-8574J12309D01*
G03X2042800Y-377870I-88990J-2300D01*
G01X2041520Y-375970D01*
Y-150790D01*
X2296320D01*
Y-404870D01*
G02X2275250Y-418590I-15001J-2D01*
G03X2081560Y-437270I-80250J-181411D01*
G37*
G36*
G01X1995020Y-846980D02*
Y-706340D01*
G02X2023020Y-698870I14998J-7D01*
G03X2275250Y-781410I171975J98871D01*
G02X2296320Y-795130I6069J-13718D01*
G01Y-846980D01*
X1995020D01*
G37*
G36*
G01X2351130Y512530D02*
G02X2326210Y501280I-14999J-1D01*
G03X2116460Y534660I-131208J-148780D01*
G02X2095520Y548430I-5940J13773D01*
G01Y969360D01*
G02X2121990Y979020I14999J-4D01*
G03X2325940Y966370I108010J90979D01*
G02X2351130Y955370I10191J-11005D01*
G01Y512530D01*
G37*
G36*
G01X2095520Y-5750D02*
Y156570D01*
G02X2116460Y170340I15000J-3D01*
G03X2326210Y203720I78542J182160D01*
G02X2351130Y192470I9921J-11249D01*
G01Y-5750D01*
X2095520D01*
G37*
G36*
G01X1460800Y90770D02*
G02X1443820Y105640I-1980J14869D01*
G01Y914180D01*
G02X1459890Y929140I14999J-1D01*
G03X1480110I10110J140860D01*
G02X1496180Y914180I1071J-14961D01*
G01Y106270D01*
G02X1480040Y91310I-15000J-3D01*
G03X1460800Y90770I-7038J-92251D01*
G37*
G36*
G01X3863000Y-3866250D02*
G02X3837390Y-3855640I-10609J10604D01*
G01Y-3849860D01*
X3729390D01*
X3729280Y-3849970D01*
X2770920D01*
X2770960Y-3849930D01*
X2680180D01*
Y-3628010D01*
X2685210Y-3626260D01*
G03X2705690Y-3616000I-29302J84059D01*
G01X2707590Y-3614720D01*
X2890240D01*
Y-3357470D01*
G02X2909100Y-3342970I15001J4D01*
G03X3003500Y-3328850I30909J115971D01*
G03X3130500I63500J101850D01*
G03X3257500I63500J101850D01*
G03X3384500I63500J101850D01*
G03X3511500I63500J101850D01*
G03X3638500I63500J101850D01*
G03X3765500I63500J101850D01*
G03X3892500I63500J101850D01*
G03X4019500I63500J101850D01*
G03X4184850Y-3163500I63500J101850D01*
G03X4019500Y-2998150I-101850J63500D01*
G03X3892500I-63500J-101850D01*
G03X3798110Y-2984020I-63499J-101849D01*
G02X3780040Y-2964730I-3860J14493D01*
G03X3783200Y-2952600I-84350J28451D01*
G03X3648840Y-2860550I-46857J75689D01*
G03X3610570Y-2962270I46860J-75689D01*
G02X3593870Y-2981470I-14343J-4388D01*
G03X3511500Y-2998150I-18872J-118529D01*
G03X3491720Y-2988230I-63466J-101867D01*
G02X3482960Y-2969510I5468J13968D01*
G03X3317800Y-2903780I-84437J28200D01*
G03X3245380Y-2973170I14676J-87803D01*
G02X3226630Y-2984500I-14674J3103D01*
G03X3130500Y-2998150I-32634J-115500D01*
G03X3003500I-63500J-101850D01*
G03X2909100Y-2984030I-63491J-101851D01*
G02X2890240Y-2969530I-3859J14496D01*
G01Y590130D01*
G02X2910180Y604300I15001J6D01*
G03Y772400I29320J84050D01*
G02X2890240Y786570I-4939J14164D01*
G01Y1526220D01*
X2382520D01*
G02X2367880Y1544460I5J14999D01*
G03X2311600Y1690260I-137879J30540D01*
G02Y1714740I8668J12240D01*
G03X2106780Y1898980I-81595J115260D01*
G02X2083490Y1895310I-13089J7330D01*
G03X2047000Y1915720I-60485J-65314D01*
G01X2041520Y1917260D01*
Y2729340D01*
G02X2062790Y2742970I15000J4D01*
G03X2149780Y2750040I37210J80870D01*
G01X2151680Y2751320D01*
X3294870D01*
G02X3308920Y2731080I-4J-14999D01*
G03X3475760I83420J-31080D01*
G02X3489810Y2751320I14054J5241D01*
G01X4050200D01*
G02X4064580Y2732060I-2J-14999D01*
G03X4117760Y2577190I135420J-40064D01*
G02Y2552810I-8730J-12190D01*
G03X4282240I82240J-114810D01*
G02Y2577190I8730J12190D01*
G03X4275980Y2811040I-82238J114807D01*
G01X4272520Y2813250D01*
Y2824750D01*
X4275980Y2826960D01*
G03X4282240Y3060810I-75978J119043D01*
G02Y3085190I8730J12190D01*
G03X4080960Y3275980I-82243J114804D01*
G01X4078750Y3272520D01*
X4065630D01*
Y3280800D01*
X4065790Y3281570D01*
G03X3890320Y3289320I-87092J18428D01*
G02X3875430Y3272520I-14890J-1801D01*
G01X3326800D01*
X3325100Y3277690D01*
G03X3190720Y3323800I-84602J-27690D01*
G01X3188820Y3322520D01*
X2830380D01*
X2828480Y3323800D01*
G03X2694100Y3277690I-49778J-73800D01*
G01X2692400Y3272520D01*
X2450220D01*
G02X2436200Y3292850I1J15000D01*
G03X2353210Y3413530I-83200J31660D01*
G03X2342350Y3435780I-84654J-27543D01*
G01X2341070Y3437680D01*
Y3656780D01*
X2348300Y3657040D01*
G03X2363100Y3833170I-3252J88960D01*
G02X2357160Y3841240I1524J7343D01*
G03X2352320Y3879920I-88608J8555D01*
G02X2366440Y3899990I14118J5069D01*
G01X4399990D01*
Y-3849970D01*
X3879280D01*
X3863000Y-3866250D01*
G37*
G36*
G01X1846040Y2894640D02*
G03X1739970Y2909710I-63036J-62859D01*
G02X1717720Y2922840I-7250J13131D01*
G01Y3190580D01*
X1723260Y3192080D01*
G03X1783480Y3247090I-23260J85929D01*
G01X1785290Y3251990D01*
X1808390D01*
G02X1821600Y3229880I3J-14999D01*
G03X1889840Y3099270I78399J-42170D01*
G01X1896480Y3098510D01*
Y2913040D01*
X1889840Y2912280D01*
G03X1846040Y2894640I10165J-88438D01*
G37*
G36*
G01X2151680Y2896360D02*
X2149780Y2897640D01*
G03X2062790Y2904710I-49780J-73800D01*
G02X2041520Y2918340I-6270J13626D01*
G01Y3127480D01*
X4078750D01*
X4080960Y3124020D01*
G03X4117760Y3085190I119047J75971D01*
G02Y3060810I-8730J-12190D01*
G03X4062300Y2914690I82243J-114801D01*
G02X4047670Y2896360I-14628J-3328D01*
G01X3443100D01*
X3442230Y2902860D01*
G03X3265770I-88230J-11860D01*
G01X3264900Y2896360D01*
X2666470D01*
G02X2658620Y2924140I3J15000D01*
G03X2565460I-46580J75860D01*
G02X2557610Y2896360I-7853J-12780D01*
G01X2151680D01*
G37*
G36*
G01X1878020Y2231950D02*
G02X1855520Y2244940I-7500J12990D01*
G01Y2376270D01*
X1861700Y2377370D01*
G03X1876360Y2381320I-15746J87618D01*
G02X1896480Y2367220I5119J-14100D01*
G01Y2240130D01*
X1891580Y2238320D01*
G03X1878020Y2231950I30936J-83472D01*
G37*
G36*
G01X2528540Y-5456590D02*
Y-5160490D01*
G02X2547880Y-5146130I15000J1D01*
G03X2565180Y-5150380I48951J161922D01*
G02X2575680Y-5172050I-2802J-14737D01*
G03X2592040Y-5433050I224321J-116952D01*
G02X2579710Y-5456590I-12333J-8539D01*
G01X2528540D01*
G37*
G36*
G01X2496180Y-109260D02*
Y-87070D01*
X2501070Y-85260D01*
G03X2550530Y36470I-30922J83477D01*
G03X2549860Y114360I-80380J38256D01*
G01X2549070Y115940D01*
Y125200D01*
X2569630D01*
X2569890Y117970D01*
G03X2585050Y71440I88960J3250D01*
G01X2586330Y69540D01*
Y-88590D01*
G02X2567490Y-103090I-14998J-2D01*
G03X2506860Y-108550I-22812J-86049D01*
G01X2505350Y-109260D01*
X2496180D01*
G37*
G36*
G01X2523980Y671320D02*
G02X2496170Y679120I-12810J7803D01*
G01Y1381180D01*
X2745200D01*
Y714140D01*
X2738660Y713290D01*
G03X2685820Y686680I11343J-88291D01*
G02X2664180I-10820J10397D01*
G03X2523980Y671320I-64184J-61682D01*
G37*
G36*
G01X2496170Y348550D02*
Y626450D01*
X2510710D01*
X2511160Y619420D01*
G03X2523690Y579160I88844J5571D01*
G03X2511160Y538910I76311J-45831D01*
G01X2510800Y533330D01*
X2511160Y527750D01*
G03X2523680Y487500I88845J5564D01*
G03X2511160Y447250I76325J-45814D01*
G01X2510800Y441670D01*
X2511160Y436090D01*
G03X2523690Y395840I88841J5581D01*
G03X2511160Y355580I76314J-45831D01*
G01X2510710Y348550D01*
X2496170D01*
G37*
%LPC*%
G75*
G36*
G01X960810Y-4782240D02*
G02Y-4617760I-114810J82240D01*
G03X985190I12190J8730D01*
G02Y-4782240I114810J-82240D01*
G03X960810I-12190J-8730D01*
G37*
G36*
G01X4167320Y-5172050D02*
G02X3964680Y-5036950I-224325J-116948D01*
G03X3980640Y-5018930I1280J14944D01*
G02X4177820Y-5150380I165558J34730D01*
G03X4167320Y-5172050I2802J-14737D01*
G37*
G36*
G01X3894730Y-5767010D02*
G02Y-5623790I-114290J71610D01*
G03X3920150I12710J7964D01*
G02Y-5767010I114290J-71610D01*
G03X3894730I-12710J-7964D01*
G37*
G36*
G01X3586680Y2259020D02*
G02Y2340980I-79020J40980D01*
G03X3613320I13320J6910D01*
G02Y2259020I79020J-40980D01*
G03X3586680I-13320J-6910D01*
G37*
G36*
G01X2582240Y2360810D02*
G02X2372050Y2186240I-82238J-114805D01*
G03X2350970Y2192880I-13587J-6354D01*
G02X2240690Y2329950I-44474J77116D01*
G03Y2340050I-5542J5050D01*
G02Y2459950I65810J59950D01*
G03Y2470050I-5542J5050D01*
G02X2223620Y2562500I65808J59952D01*
G02X2391770Y2620570I82879J32499D01*
G03X2415150Y2612890I14367J4308D01*
G02X2582240Y2385190I84851J-112892D01*
G03Y2360810I8730J-12190D01*
G37*
G36*
G01X3337500Y1774180D02*
G02X3225530Y1903690I-37499J80737D01*
G02Y2001230I74470J48770D01*
G02X3337500Y2130740I74471J48773D01*
G02X3412500I37500J-80740D01*
G02X3524470Y2001230I37499J-80737D01*
G02Y1903690I-74470J-48770D01*
G02X3412500Y1774180I-74471J-48773D01*
G02X3337500I-37500J80740D01*
G37*
G36*
G01X2664180Y1613320D02*
G02X2523690Y1720840I-64177J61689D01*
G02X2523680Y1812500I76310J45838D01*
G02X2523690Y1904160I76320J45822D01*
G02X2637500Y2030740I76310J45843D01*
G02X2712500I37500J-80740D01*
G02X2826310Y1904160I37500J-80737D01*
G02X2826320Y1812500I-76310J-45838D01*
G02X2826310Y1720840I-76320J-45822D01*
G02X2685820Y1613320I-76313J-45831D01*
G03X2664180I-10820J-10397D01*
G37*
G36*
G01X3975020Y1427080D02*
G02X3824980I-75020J-47910D01*
G02Y1522920I75020J47920D01*
G02Y1618750I75022J47915D01*
G02Y1714580I75022J47915D01*
G02Y1810420I75020J47920D01*
G02Y1906250I75022J47915D01*
G02X3811490Y1963700I75019J47924D01*
G02X3800000Y1967460I21877J86288D01*
G02X3788510Y1963700I-33367J82528D01*
G02X3775020Y1906250I-88509J-9526D01*
G02X3624980I-75020J-47920D01*
G02Y2002080I75022J47915D01*
G02X3733340Y2132540I75021J47919D01*
G02X3800000I33330J-82540D01*
G02X3866660I33330J-82540D01*
G02X3975020Y2002080I33339J-82541D01*
G02Y1906250I-75022J-47915D01*
G02Y1810420I-75022J-47915D01*
G02Y1714580I-75020J-47920D01*
G02Y1618750I-75022J-47915D01*
G02Y1522920I-75022J-47915D01*
G02Y1427080I-75020J-47920D01*
G37*
G36*
G01X3775020Y947920D02*
G02X3624980I-75020J-47920D01*
G02Y1043750I75022J47915D01*
G02Y1139580I75022J47915D01*
G02Y1235420I75020J47920D01*
G02Y1331250I75022J47915D01*
G02Y1427080I75022J47915D01*
G02Y1522920I75020J47920D01*
G02X3775020I75020J47910D01*
G02Y1427080I-75020J-47920D01*
G02Y1331250I-75022J-47915D01*
G02Y1235420I-75022J-47915D01*
G02Y1139580I-75020J-47920D01*
G02Y1043750I-75022J-47915D01*
G02Y947920I-75022J-47915D01*
G37*
G36*
G01X4232540Y-452410D02*
G02X3967460I-132540J-147590D01*
G03Y-430090I-10026J11160D01*
G02Y-134910I132540J147590D01*
G03Y-112590I-10026J11160D01*
G02Y182590I132540J147590D01*
G03Y204910I-10026J11160D01*
G02X4232540I132540J147590D01*
G03Y182590I10026J-11160D01*
G02Y-112590I-132540J-147590D01*
G03Y-134910I10026J-11160D01*
G02Y-430090I-132540J-147590D01*
G03Y-452410I10026J-11160D01*
G37*
G36*
G01X3104880Y-2531960D02*
G02X2994690Y-2402810I-34693J81982D01*
G02Y-2308470I75500J47170D01*
G02X3104880Y-2179320I75497J47168D01*
G02X3174240I34680J-81980D01*
G02X3243620I34690J-81980D01*
G02X3353800Y-2308470I34682J-81985D01*
G02Y-2402810I-75500J-47170D01*
G02X3243620Y-2531960I-75498J-47165D01*
G02X3174240I-34690J81980D01*
G02X3104880I-34680J81980D01*
G37*
G54D27*
X3500000Y-1732280D03*
G54D26*
X-1041400Y-5273040D03*
G54D25*
X1587050Y-4800000D03*
X2146300Y-4996180D03*
X823840Y-5200000D03*
X1900000Y3576160D03*
X2956300Y3746000D03*
X2571650Y3543190D03*
X2893000Y2641500D03*
X2800000Y2223840D03*
X3342200Y-1400000D03*
G54D24*
X-100000Y-4600000D03*
X408000Y-4917500D03*
X-100000Y-5235000D03*
%LPD*%
G75*
G54D10*
X-5100000Y-5000000D03*
Y3000000D03*
X5100000Y-5100000D03*
Y3000000D03*
G54D20*
X2596800Y-4984200D03*
X4146200D03*
G54D11*
X-3933060Y-3475840D03*
X-4107660Y-3300000D03*
X-4000000Y-3592340D03*
X-4292340Y-3300000D03*
X-3954660Y-3337700D03*
X-4248890Y-3638840D03*
X-3907000Y-3603480D03*
X-3908160Y-3293150D03*
X-3960440Y-3757660D03*
X-4206770D03*
X-4251480Y-3711160D03*
X-4113440Y-3804160D03*
X-4066940Y-3492340D03*
X-3933060Y-3538840D03*
X-4248890D03*
X-4107660Y-3000000D03*
X-4107650Y-2582050D03*
X-4230660Y-2870500D03*
X-4292340Y-3006940D03*
X-4292320Y-3069940D03*
X-4107660Y-2767190D03*
X-3894110Y-2692500D03*
X-3891720Y-3107500D03*
X-3903500Y-2808280D03*
X-4260650Y-2807500D03*
X-4092660Y-2649000D03*
X-4009000Y-2454000D03*
X-3891720Y-2500500D03*
X-3894660Y-2591720D03*
X-4086000Y-1987000D03*
Y-1917950D03*
Y-2050000D03*
X-3992500Y-2203500D03*
X-3991720Y-2103500D03*
X-3893500Y-2205890D03*
X-3891720Y-2307500D03*
X-4055500Y-2203500D03*
X-4009500Y-1804500D03*
X-4056000Y-1851000D03*
X-4009000Y-2303500D03*
X-4113000Y-1401000D03*
X-4000000Y-1392340D03*
X-4176000Y-1401000D03*
X-4000000Y-1207660D03*
X-4200660Y-1000660D03*
X-4066500Y-1054660D03*
Y-1561500D03*
X-4154160Y-1131160D03*
X-3903060Y-1119340D03*
X-4052150Y-954160D03*
X-3949560D03*
X-4206000Y-1308000D03*
Y-1084660D03*
X-4000000Y-298650D03*
X-4098650Y-200000D03*
X-4000000Y-509340D03*
X-4292340Y-200000D03*
X-4098650Y-279340D03*
X-3997040Y-582340D03*
X-3903060Y-205650D03*
X-4001840Y-675340D03*
X-4264170Y-355840D03*
X-3892500Y-91720D03*
X-3996060Y-198690D03*
X-4107660Y100000D03*
Y500000D03*
X-4292340D03*
Y100000D03*
X-4092660Y409000D03*
X-4077660Y316000D03*
X-4107660Y163000D03*
X-4260660Y656940D03*
X-4107660Y800000D03*
Y1200000D03*
X-4292340D03*
Y800000D03*
X-4011830Y1050000D03*
X-3900000Y992500D03*
X-4200660Y953000D03*
X-4009180Y950000D03*
X-3892500Y800000D03*
X-4014660Y1250000D03*
X-3903500Y1091720D03*
X-3891720Y1192500D03*
X-4000000Y1707660D03*
X-4107660Y1600000D03*
X-4000000Y1892340D03*
X-4292340Y1600000D03*
X-4260150Y1666940D03*
X-4245840Y1499000D03*
X-4130250Y2060260D03*
X-4061160Y2274840D03*
X-4184950Y3700000D03*
X-3200000Y-3407660D03*
X-3393000Y-3299980D03*
X-3400000Y-3200000D03*
X-3403500Y-3547170D03*
X-3666940Y-3538100D03*
X-3200000Y-3592340D03*
X-3300000Y-3200000D03*
Y-3329980D03*
X-3385330Y-3694970D03*
X-3603500Y-3191720D03*
X-3550000Y-3338220D03*
X-3346500Y-3384720D03*
X-3796430Y-3694970D03*
X-3696500Y-3291720D03*
X-3729940Y-3541250D03*
X-3618610Y-3593670D03*
X-3743000Y-3384720D03*
X-3572110Y-3640170D03*
X-3200000Y-3000000D03*
Y-2700000D03*
Y-2800000D03*
Y-2900000D03*
X-3491720D03*
X-3400000Y-2700000D03*
X-3500000Y-2600000D03*
Y-2700000D03*
X-3400000Y-2800000D03*
X-3500000D03*
X-3600000Y-2600000D03*
Y-2700000D03*
X-3400000Y-2900000D03*
X-3600000Y-2800000D03*
Y-2900000D03*
X-3491720Y-2500000D03*
X-3300000Y-2700000D03*
Y-2800000D03*
X-3600000Y-2500000D03*
X-3300000Y-2900000D03*
X-3292500Y-3093000D03*
X-3396500Y-2991720D03*
X-3396490Y-3096500D03*
X-3603500Y-3091720D03*
X-3691720Y-3092500D03*
X-3808280Y-2603500D03*
X-3691720Y-2703500D03*
X-3807500Y-2791720D03*
X-3796500Y-2692500D03*
X-3346500Y-2487440D03*
X-3708280Y-2796500D03*
X-3791720Y-3103500D03*
X-3797610Y-3008280D03*
X-3798720Y-2891720D03*
X-3691720Y-2907500D03*
X-3496490Y-3003500D03*
X-3796500Y-2491720D03*
X-3250440Y-2487440D03*
X-3692500Y-2601750D03*
X-3691720Y-2503500D03*
X-3500000Y-2300000D03*
X-3600000D03*
X-3300000Y-2108280D03*
Y-2000000D03*
Y-1900000D03*
X-3200000Y-2108280D03*
X-3596060Y-2008000D03*
X-3595000Y-2207000D03*
X-3503060Y-2101000D03*
X-3200000Y-2000000D03*
X-3507740D03*
X-3200000Y-1900000D03*
X-3500000D03*
X-3393000Y-2207000D03*
Y-2304480D03*
X-3800500Y-2008280D03*
X-3696490Y-2103500D03*
X-3693000Y-2008280D03*
X-3798870Y-2108280D03*
X-3598990Y-2101000D03*
X-3796500Y-2207000D03*
X-3691720D03*
X-3791720Y-2300000D03*
X-3691720Y-2307500D03*
X-3346500Y-2256720D03*
X-3796500Y-1806390D03*
X-3800500Y-1908280D03*
X-3599000Y-1899360D03*
X-3250440Y-2270480D03*
X-3166060Y-2262000D03*
X-3200000Y-1392340D03*
X-3600000Y-1394000D03*
X-3200000Y-1198650D03*
X-3600000Y-1207660D03*
X-3263000Y-1007710D03*
X-3847000Y-1491000D03*
X-3645500D03*
X-3549560Y-1040710D03*
X-3119560Y-1009660D03*
X-3707500Y-1444500D03*
X-3439500Y-1209340D03*
X-3346500Y-1395170D03*
X-3754000Y-1491000D03*
X-3503060Y-1152150D03*
X-3735060Y-831160D03*
X-3166060Y-1054210D03*
X-3346500Y-291180D03*
X-3200000Y-298650D03*
X-3400000Y-100000D03*
Y-200000D03*
X-3600000Y-298650D03*
X-3200000Y-492340D03*
X-3600000D03*
X-3300000Y-100000D03*
Y-239500D03*
X-3263000Y-492340D03*
X-3192500Y-91720D03*
X-3447010Y-298650D03*
X-3186500Y-781840D03*
X-3154000Y-237550D03*
X-3676500Y-522340D03*
X-3688560Y-784660D03*
X-3666940Y-439340D03*
X-3592500Y-97610D03*
X-3570010Y-209000D03*
X-3503500Y-108280D03*
X-3646000Y-209000D03*
X-3796490Y-91720D03*
X-3553500Y-784650D03*
X-3201000Y-193000D03*
X-3200000Y100000D03*
X-3300010Y-1000D03*
X-3200000Y400000D03*
Y300000D03*
Y200000D03*
X-3400000Y400000D03*
X-3500000Y500000D03*
Y400000D03*
X-3400000Y300000D03*
X-3500000D03*
X-3600000Y500000D03*
Y400000D03*
X-3400000Y200000D03*
X-3600000Y300000D03*
X-3500000Y200000D03*
X-3600000D03*
X-3300000Y400000D03*
X-3500000Y600000D03*
X-3300000Y300000D03*
X-3600000Y600000D03*
X-3300000Y200000D03*
X-3207000Y499000D03*
X-3396500Y107500D03*
X-3400500Y507000D03*
X-3791740Y600000D03*
X-3396490Y-1000D03*
X-3499500Y0D03*
X-3600000Y8280D03*
X-3160500Y553500D03*
X-3353500Y630000D03*
X-3500000Y800000D03*
X-3600000D03*
X-3300000Y1000000D03*
Y1100000D03*
Y1200000D03*
X-3200000Y1000000D03*
X-3400000D03*
X-3200000Y1100000D03*
X-3500000Y900000D03*
X-3400000Y1100000D03*
X-3500000Y1000000D03*
Y1100000D03*
X-3200000Y1200000D03*
X-3600000Y900000D03*
X-3400000Y1200000D03*
X-3600000Y1000000D03*
X-3500000Y1200000D03*
X-3600000Y1100000D03*
Y1200000D03*
X-3707500Y1002390D03*
X-3696490Y1092500D03*
X-3791720Y903510D03*
X-3301000Y1392500D03*
X-3407000Y1292500D03*
X-3803500Y1207500D03*
X-3796500Y1091720D03*
X-3307000Y893000D03*
X-3696390Y1192500D03*
X-3307000Y783000D03*
X-3200000Y1707660D03*
X-3600000D03*
X-3200000Y1892340D03*
X-3600000D03*
X-3845220Y1800660D03*
X-3453500Y1968840D03*
X-3301000Y1967260D03*
X-3407000Y2013760D03*
X-3712900Y2184840D03*
X-3696390Y1844260D03*
X-3547500Y2365000D03*
X-3468700Y2505430D03*
X-3649890Y2231340D03*
X-3553500Y2277840D03*
X-3253500Y2318500D03*
X-3353500Y2517840D03*
X-3779300Y2457840D03*
X-3484950Y3700000D03*
X-2807000Y-3547170D03*
X-2353500Y-3569760D03*
X-2500000Y-3407660D03*
X-3050000Y-3339460D03*
X-3000000Y-3200000D03*
X-2900000Y-3398650D03*
X-2500000Y-3592340D03*
X-2700000D03*
X-2900000D03*
X-2950000Y-3309000D03*
X-2563530Y-3346500D03*
X-2708280Y-3191720D03*
X-2448750Y-3638840D03*
X-2996500Y-3395840D03*
X-3056560Y-3592340D03*
X-3103060Y-3395840D03*
X-2400000Y-3407670D03*
X-2700000Y-3300000D03*
X-2400000D03*
X-2399780Y-3203500D03*
X-2807000Y-3091720D03*
X-3007500Y-3101000D03*
X-2807000Y-2998720D03*
X-2907000Y-3092500D03*
X-2701280D03*
X-2900000Y-2991720D03*
X-2700000Y-2500000D03*
X-2600000D03*
X-2950000Y-2560450D03*
X-2900000Y-2800000D03*
Y-2900000D03*
Y-2694990D03*
Y-2605000D03*
X-2608280Y-2895000D03*
X-2705000D03*
X-2695000Y-2792990D03*
X-3000000Y-2700000D03*
Y-2800000D03*
X-2700000Y-2600000D03*
X-3000000Y-2900000D03*
X-2600000Y-2600000D03*
X-3003500Y-2992500D03*
X-2807000Y-2800000D03*
X-2591720Y-2802000D03*
X-2392500Y-2808280D03*
X-2403060Y-3108280D03*
X-2491750Y-2108280D03*
X-3005000D03*
X-3000000Y-2000000D03*
Y-1900000D03*
X-2850000Y-2244000D03*
X-2605000Y-2107000D03*
X-2608280Y-1905000D03*
X-2700000Y-2200000D03*
X-2800000Y-2000000D03*
X-2700000D03*
X-2600000Y-2200000D03*
X-2800000Y-1900000D03*
X-2700000D03*
X-2600000Y-2000000D03*
X-2801000Y-2105000D03*
X-2700000Y-2300000D03*
X-2600000D03*
X-2983060Y-2308500D03*
X-2853500Y-2317000D03*
X-2508280Y-2008280D03*
X-2847500Y-1122910D03*
X-2920060Y-1135650D03*
X-3026560Y-1100710D03*
X-2424950Y-1135150D03*
X-2649560Y-948160D03*
X-2500000Y-1392340D03*
X-2900000Y-1394000D03*
X-2517950Y-1207660D03*
X-2900000Y-1198650D03*
X-3043060Y-1398000D03*
X-2565530Y-1444500D03*
X-2460760Y-995650D03*
X-2556560Y-1084660D03*
X-2679500Y-1395170D03*
X-2746500Y-1491000D03*
X-2907000D03*
X-2981040Y-1009660D03*
X-3073060Y-1168650D03*
X-2837000Y-943080D03*
X-2801000Y-1169410D03*
X-2633000Y-1239340D03*
X-2469500Y-1088650D03*
X-2714000Y-937660D03*
X-3014500Y-492340D03*
X-2920060Y-782550D03*
X-2649560Y-735350D03*
X-2500000Y-307660D03*
X-3000000Y-100000D03*
Y-200000D03*
X-2900000Y-307660D03*
X-2500000Y-492340D03*
X-2700000D03*
X-2900000D03*
X-2937000Y-209000D03*
X-2900000Y-100000D03*
X-2556560Y-790080D03*
X-2966940Y-735340D03*
Y-337660D03*
X-3061000Y-798250D03*
X-2707500Y-307660D03*
X-2837000D03*
X-2491010Y-738330D03*
X-2807000Y-3500D03*
X-3008280Y-1000D03*
X-2801750Y93000D03*
X-2991720D03*
X-2907500Y-1000D03*
X-2700000Y600000D03*
X-2600000D03*
X-2900000Y400000D03*
Y300000D03*
Y200000D03*
X-2600000Y205000D03*
Y508280D03*
X-3008280Y495000D03*
X-2809000Y550000D03*
X-2800000Y400000D03*
X-3000000Y300000D03*
X-2700000Y400000D03*
X-2800000Y300000D03*
X-2700000D03*
X-3000000Y200000D03*
X-2600000Y400000D03*
X-2800000Y200000D03*
X-2600000Y300000D03*
X-2700000Y200000D03*
X-3008280Y567010D03*
X-2500000Y0D03*
X-2908280Y630000D03*
X-2872000Y539000D03*
X-2407000Y607500D03*
X-2815280Y646500D03*
X-2500000Y607500D03*
X-2507500Y205000D03*
X-2607500Y-8280D03*
X-3000000Y1000000D03*
Y1100000D03*
Y1200000D03*
X-2800000Y1000000D03*
X-2700000Y900000D03*
X-2800000Y1100000D03*
X-2700000Y1000000D03*
Y1100000D03*
X-2600000Y900000D03*
X-2800000Y1200000D03*
X-2600000Y1000000D03*
X-2700000Y1200000D03*
X-2600000Y1100000D03*
Y1200000D03*
X-2900000Y1000000D03*
X-2700000Y800000D03*
X-2900000Y1100000D03*
X-2600000Y800000D03*
X-2900000Y1200000D03*
X-3008280Y893000D03*
X-2396490Y1402500D03*
X-2391720Y1196500D03*
X-2808280Y1293000D03*
X-2396490Y896500D03*
X-2500000Y891720D03*
X-2815290Y850010D03*
X-2403500Y791720D03*
X-2500000D03*
X-2908280Y846500D03*
X-2600000Y1392500D03*
X-2861790Y769500D03*
X-2403500Y1091720D03*
X-2499200Y1097610D03*
X-2396500Y991720D03*
X-2500000D03*
Y1707660D03*
X-2900000D03*
X-2500000Y1901350D03*
X-2900000Y1892340D03*
X-2383370Y2138340D03*
X-2499200Y1639000D03*
X-2735970D03*
X-2526350Y1967260D03*
X-2349370Y2013760D03*
X-2553500Y2272000D03*
X-2914200Y2564340D03*
X-3066650Y2584800D03*
X-2361500Y2935200D03*
X-2600000Y2365000D03*
X-2376200Y2318500D03*
X-2576750Y2471340D03*
X-2689470Y2601300D03*
X-2735970Y3028220D03*
X-2784950Y3700000D03*
X-1845310Y-3404830D03*
X-2137070Y-3300000D03*
X-2200000Y-3407660D03*
X-1592340Y-3300000D03*
X-1907660D03*
X-2200000Y-3592340D03*
X-1890860Y-3192500D03*
X-1796450Y-3454170D03*
X-2279700Y-3500670D03*
X-1953860Y-3199750D03*
X-1626900Y-3475040D03*
X-2326200Y-3311830D03*
X-2060570Y-3203500D03*
X-2207500Y-3108280D03*
Y-2608280D03*
Y-2991720D03*
X-2110500Y-3000000D03*
Y-2600000D03*
X-1907660Y-2533070D03*
X-1898650Y-2600000D03*
X-1594360Y-3000000D03*
X-1907660D03*
X-1601660Y-2567490D03*
X-2208280Y-2500000D03*
X-1907660Y-2663000D03*
X-1741530Y-2935010D03*
X-1907660Y-2937000D03*
X-2157270Y-2546500D03*
X-1754660Y-2660500D03*
X-1735160Y-2393500D03*
X-2131000Y-2838720D03*
X-1955830Y-2888510D03*
X-1691360Y-2996800D03*
X-1737860Y-3049140D03*
X-1698590Y-2723000D03*
X-1745090Y-2567500D03*
X-2092340Y-2300000D03*
Y-1900000D03*
X-1754660Y-2300000D03*
X-1898650Y-1900000D03*
X-1592340D03*
X-1770560Y-2144000D03*
X-1953860Y-2200000D03*
X-2072530Y-2144020D03*
X-2060370Y-2081020D03*
X-1924060Y-1647000D03*
X-1754660Y-2237000D03*
X-2191000Y-1954000D03*
X-1946600Y-2037500D03*
X-2029340Y-1988020D03*
X-2308280Y-1907500D03*
X-2191000Y-2246500D03*
X-1892840Y-1991000D03*
X-2307500Y-2008280D03*
X-1951910Y-1185910D03*
X-1894140Y-1139410D03*
X-2106450Y-1500000D03*
X-2200000Y-1404500D03*
X-1898650Y-1500000D03*
X-1592340D03*
X-2200000Y-1207660D03*
X-1907360Y-1237660D03*
X-2155450Y-1453500D03*
X-1647320Y-1185910D03*
X-2072890Y-1042150D03*
X-1892210D03*
X-2061930Y-1407000D03*
X-1622370Y-1088650D03*
X-1912200Y-793690D03*
X-1592370Y-522340D03*
X-2073060Y-307660D03*
X-2200000D03*
X-1898650Y-200000D03*
X-1592340D03*
X-2200000Y-492340D03*
X-1877060Y-439340D03*
X-1592370Y-54780D03*
X-1907660Y163000D03*
X-2098780Y100000D03*
Y500000D03*
X-1612400D03*
X-1898650D03*
Y100000D03*
X-1592340D03*
X-1663340Y656000D03*
X-1663330Y593000D03*
X-2308280Y394630D03*
X-1975780D03*
X-1953860Y667550D03*
X-1606400Y423000D03*
X-1600330Y593300D03*
X-1607370Y251500D03*
X-2291730Y603500D03*
X-2308280Y492500D03*
X-2107000Y205000D03*
X-1607360Y163000D03*
X-1892840Y623000D03*
X-1622400Y314500D03*
X-2008130Y866940D03*
X-2118000Y1200000D03*
X-1939340Y733060D03*
X-1606840Y1200000D03*
Y800000D03*
X-1907660Y1200000D03*
X-2145910Y1356000D03*
X-2191000Y1226500D03*
X-1861160Y1263000D03*
X-2128000D03*
X-2101130Y1096500D03*
X-2307500Y1191720D03*
X-2296490Y896500D03*
X-1768160Y1226250D03*
X-1611840Y1103500D03*
X-1616830Y893000D03*
X-1786340D03*
X-2145680Y1050000D03*
X-2190540Y1096500D03*
X-2201780Y896570D03*
X-2307500Y991920D03*
X-2092340Y1600000D03*
X-2200000Y1699440D03*
Y1901350D03*
X-1592340Y1600000D03*
X-1907660D03*
X-1598660Y1769500D03*
X-2044000D03*
X-2244550Y1650440D03*
X-2107000Y1797760D03*
X-2153500Y1539000D03*
X-1907660Y1723000D03*
X-2244400Y2060260D03*
X-2346430Y1890760D03*
X-2228420Y2184840D03*
X-2045900Y1844260D03*
X-1984800Y2743220D03*
Y2365000D03*
X-1814660Y2935220D03*
X-1861160Y2789720D03*
X-2227000Y2798700D03*
X-1615150Y2684340D03*
X-1645160Y2318500D03*
X-2105420D03*
X-1598650Y2471340D03*
X-1984800Y2620220D03*
X-2054950Y3700000D03*
X-1366930Y-3596350D03*
X-1366520Y-3451330D03*
X-966940Y-3461900D03*
X-1407660Y-3300000D03*
X-900000Y-3592340D03*
X-1300000Y-3591740D03*
X-963000Y-3622900D03*
X-1029940Y-3462590D03*
X-1003500Y-3197780D03*
X-950000Y-3309000D03*
X-1103500Y-3192500D03*
X-1147000Y-3477290D03*
X-1050000Y-3311830D03*
X-1076440Y-3591750D03*
X-1473900Y-3498740D03*
X-1446650Y-2396500D03*
X-1398650Y-3000000D03*
X-1461900Y-2749550D03*
X-900000Y-2700000D03*
Y-2800000D03*
Y-2900000D03*
X-1579910Y-2666940D03*
X-900000Y-2500000D03*
X-1097970Y-2391720D03*
X-1407660Y-2650000D03*
X-1101570Y-2598720D03*
X-991720Y-2692500D03*
X-1398900Y-2750000D03*
X-1101570Y-2692500D03*
X-991720Y-2792500D03*
X-1103500Y-3007500D03*
X-1003500D03*
X-900000Y-3095640D03*
X-1377750Y-2403500D03*
X-1003490Y-2407000D03*
X-991720Y-2492500D03*
X-1194740Y-2507500D03*
X-1091720Y-2505720D03*
X-992500Y-2591720D03*
X-1101740Y-2792490D03*
X-1003500Y-2891720D03*
X-1191720Y-2992500D03*
X-1335650Y-3002000D03*
X-891720Y-2305000D03*
X-1545770Y-1613430D03*
X-895000Y-2008280D03*
X-1003500Y-2192490D03*
X-903500Y-2207500D03*
X-1004980Y-2296500D03*
X-1207500Y-1608280D03*
X-1301250D03*
Y-1891720D03*
X-896660Y-1807500D03*
X-1301250Y-1991720D03*
X-1194740Y-1907890D03*
X-1101740Y-1991720D03*
X-1097980Y-1907500D03*
X-1301250Y-2108280D03*
X-1192500Y-2008280D03*
X-1097980Y-2091720D03*
X-1003500D03*
X-1301250Y-2197610D03*
X-1194740Y-2203500D03*
X-1101740Y-2303500D03*
X-907500Y-2108280D03*
X-908280Y-1597000D03*
X-1571660Y-2015280D03*
X-868280Y-840190D03*
X-1545770Y-1407000D03*
X-1300000Y-1394280D03*
X-900000Y-1392340D03*
Y-1207660D03*
X-1300000D03*
X-1320130Y-1515280D03*
X-833060Y-1299340D03*
X-1424250Y-1158660D03*
X-859500Y-1054660D03*
X-1313340Y-949150D03*
X-1148240Y-941170D03*
X-1003490Y-995650D03*
X-1003500Y-1453500D03*
X-1049990Y-1206180D03*
X-1096490Y-1280730D03*
X-1376340Y-949150D03*
X-1499270Y-1253860D03*
X-1452840Y-100000D03*
X-1300000Y-307660D03*
X-900000Y-298650D03*
X-1398650Y-200000D03*
X-900000Y-493750D03*
X-1300000Y-499990D03*
X-1499340Y-511170D03*
X-908280Y-97000D03*
X-1103500Y-453490D03*
X-1207500Y-100250D03*
X-1150000Y-517910D03*
X-1376340Y-307660D03*
X-1305650Y-192500D03*
X-903500D03*
X-1358660Y52500D03*
X-1407660Y100000D03*
X-1208280Y696500D03*
X-991720Y205000D03*
Y300000D03*
X-1336370Y-50500D03*
X-1545840Y376500D03*
X-1313500Y618150D03*
X-1203500Y591730D03*
X-1107500Y603500D03*
X-991720Y607500D03*
X-1376500Y639800D03*
X-1325580Y503500D03*
X-1003500Y508280D03*
X-1107500Y92000D03*
X-1103500Y699000D03*
X-1552160Y647900D03*
X-1000000Y92500D03*
X-896490Y-4000D03*
X-1309000Y319500D03*
X-1485840Y893000D03*
X-1407660Y1200000D03*
X-900000Y1100000D03*
Y1200000D03*
X-1454420Y1103500D03*
X-1203500Y903500D03*
X-1434940Y1356000D03*
X-1100010Y903500D03*
X-991720Y892500D03*
X-1388530Y750000D03*
X-1330000Y991720D03*
X-1208280Y796500D03*
X-1103500Y807510D03*
X-1003500D03*
X-1539360Y1402500D03*
X-1497940Y1339500D03*
X-1407660Y1263000D03*
X-1096500Y1191720D03*
X-1207000Y1100000D03*
X-1105150Y1096500D03*
X-1003500Y1097610D03*
X-1330000Y912610D03*
X-1203500Y991720D03*
X-1103510Y996500D03*
X-992500Y993000D03*
X-1407660Y1600000D03*
X-1371600Y1761900D03*
X-900000Y1707660D03*
Y1895270D03*
X-1300000Y1901350D03*
X-1507610Y1782660D03*
X-1552160Y1895270D03*
X-1203060Y1789140D03*
X-1554110Y1723000D03*
X-1103500Y1724170D03*
X-1003500Y2184840D03*
Y1599110D03*
X-1507450Y2138340D03*
X-1302110Y1967260D03*
X-953000D03*
X-1351800Y2013760D03*
X-1056990Y1776000D03*
X-1052520Y1645610D03*
X-1259650Y2888700D03*
X-1505650Y2838240D03*
X-1107000Y2743220D03*
X-1369740Y2420190D03*
X-1200830Y2816940D03*
X-1412650Y2830960D03*
X-1247330Y2620220D03*
X-961600Y2573720D03*
X-1033330Y2517840D03*
X-1552150Y2424840D03*
X-1284950Y3700000D03*
X-1137000Y3584440D03*
X-1459150Y3074720D03*
X-1412650Y3421500D03*
X-1568650Y3451500D03*
X-1336150Y3375000D03*
X-256530Y-3775340D03*
X-585720Y-3562340D03*
X-63000Y-3592620D03*
Y-3398650D03*
X-650990Y-3715900D03*
X-453500Y-3314660D03*
X-500000Y-3208280D03*
X-312900Y-3469340D03*
X-500000Y-3407660D03*
X-604490Y-3363000D03*
X-700000Y-3192500D03*
X-300000Y-3200000D03*
Y-3300000D03*
X-200000Y-3398650D03*
Y-3592340D03*
X-500000D03*
X-200000Y-3200000D03*
X-600000D03*
X-200000Y-3300000D03*
X-600000D03*
X-278280Y-3592340D03*
X-356560Y-3592620D03*
X-702230Y-3358330D03*
X-166060Y-3728840D03*
X-558720D03*
X-750000Y-3311830D03*
X-807000Y-3622900D03*
X-492500Y-2998250D03*
X-696500Y-2991720D03*
X-453500Y-2585220D03*
X-103060Y-2992500D03*
X-500000Y-3100000D03*
X-308280Y-3101000D03*
X-102300Y-3092500D03*
X-596490Y-3003500D03*
X-600250Y-3101000D03*
X-591720Y-2900000D03*
X-407000Y-2520010D03*
X-203500Y-3101000D03*
X-201750Y-3003500D03*
X-300000Y-3008280D03*
X-100000Y-2405000D03*
X-500000Y-2700000D03*
Y-2800000D03*
Y-2900000D03*
X-691720D03*
X-791720D03*
X-200000Y-2700000D03*
X-700000D03*
X-800000Y-2600000D03*
X-200000Y-2800000D03*
X-800000Y-2700000D03*
X-700000Y-2800000D03*
X-800000D03*
X-200000Y-2900000D03*
X-100000Y-2591720D03*
X-305000Y-2691720D03*
X-600000Y-2700000D03*
X-100000D03*
X-800000Y-2500000D03*
X-300000Y-2800000D03*
X-600000D03*
X-100000D03*
X-300000Y-2900000D03*
X-100000D03*
X-153500Y-2501000D03*
X-482990Y-2522220D03*
X-601000D03*
X-796500Y-3097570D03*
X-708280Y-3107500D03*
X-338720Y-2445720D03*
X-603500D03*
X-701000Y-2601000D03*
X-253500Y-2220480D03*
X-795000Y-2308280D03*
X-300000Y-2100000D03*
Y-2000000D03*
Y-1900000D03*
X-597740Y-1905000D03*
X-600000Y-2100000D03*
X-100000D03*
X-600000Y-2000000D03*
X-100000D03*
Y-1900000D03*
X-608000Y-1805000D03*
X-491720Y-1905000D03*
X-800000Y-2095000D03*
Y-2205000D03*
X-500000Y-2100000D03*
X-200000D03*
X-500000Y-2000000D03*
X-200000D03*
Y-1900000D03*
X-800000D03*
X-703580Y-2204720D03*
X-504740Y-1808280D03*
X-207000Y-2348290D03*
X-633500D03*
X-799000Y-2007500D03*
X-607500Y-1597000D03*
X-557070Y-2277310D03*
X-300000Y-2276500D03*
Y-1597000D03*
X-800000Y-1791720D03*
X-103060Y-2199000D03*
X-330000Y-1431000D03*
X-499500Y-945160D03*
X-103060Y-1068650D03*
X-330000Y-898660D03*
X-673500Y-835760D03*
X-627000Y-978160D03*
X-406500Y-952160D03*
X-500000Y-1413000D03*
X-200000Y-1410500D03*
Y-1207660D03*
X-500000D03*
X-196060Y-1507500D03*
X-254290Y-1158660D03*
X-563000Y-1207660D03*
X-684500Y-1491000D03*
X-703500Y-1252840D03*
X-237000Y-1005660D03*
X-149560Y-898660D03*
X-641850Y-1345840D03*
X-103060Y-975160D03*
X-107500Y-107990D03*
X-523750Y-574590D03*
X-330000Y-322840D03*
X-192500Y-96500D03*
X-500000Y-298650D03*
X-300000Y-100000D03*
X-700000D03*
X-300000Y-200000D03*
X-700000D03*
X-200000Y-298650D03*
X-500000Y-501590D03*
X-200000Y-492340D03*
X-600000Y-100000D03*
Y-200000D03*
X-200000D03*
X-594000Y-655160D03*
X-703500Y-527760D03*
X-90500Y-520090D03*
X-514270Y-642340D03*
X-201530D03*
X-137000Y-214660D03*
X-360000Y-249000D03*
X-796500D03*
X-800000Y-738330D03*
X-84310Y-261160D03*
X-648250Y-369340D03*
X-307890Y6510D03*
X-591720Y100000D03*
X-108280Y92500D03*
X-591720Y-1000D03*
X-200000Y100000D03*
X-500000Y400000D03*
Y300000D03*
Y200000D03*
X-703500Y196940D03*
X-200000Y400000D03*
X-700000D03*
X-800000Y500000D03*
X-200000Y300000D03*
X-700000D03*
X-800000D03*
X-200000Y200000D03*
X-108280Y205000D03*
X-150000Y509000D03*
X-300000Y400000D03*
X-600000D03*
X-800000Y600000D03*
X-300000Y300000D03*
X-600000D03*
X-300000Y200000D03*
X-600000D03*
X-653500Y593000D03*
X-696500Y92000D03*
X-196770Y598950D03*
X-207000Y661950D03*
X-100000Y291720D03*
X-804010Y699000D03*
X-311250Y569000D03*
X-803500Y103940D03*
X-807500Y-3500D03*
X-407000Y661010D03*
X-300000Y1000000D03*
Y1100000D03*
X-800000Y800000D03*
X-300000Y1200000D03*
X-600000Y1000000D03*
X-100000D03*
X-600000Y1100000D03*
X-100000D03*
X-600000Y1200000D03*
X-100000D03*
X-500000Y1000000D03*
X-200000D03*
X-700000D03*
X-500000Y1100000D03*
X-200000D03*
X-800000Y900000D03*
X-700000Y1100000D03*
X-800000Y1000000D03*
Y1100000D03*
X-500000Y1200000D03*
X-200000D03*
X-700000D03*
X-800000D03*
X-108280Y1291720D03*
X-253500Y860260D03*
X-146500Y874880D03*
Y706510D03*
X-308280Y1391720D03*
X-691000Y753500D03*
X-653500Y853500D03*
X-607000Y1391720D03*
X-807000Y1392500D03*
X-707000Y1291720D03*
X-500000Y875260D03*
X-553500Y2091840D03*
X-500000Y1693120D03*
X-200000D03*
Y1901350D03*
X-500000Y1892340D03*
X-379300Y2138340D03*
X-154780Y2015350D03*
X-707000Y2138340D03*
X-360000Y2013760D03*
X-332800Y2828700D03*
X-177500Y2325760D03*
X-789560Y2469550D03*
X-308280Y2373690D03*
X-554950Y3700000D03*
X-534440Y3584440D03*
Y3421500D03*
X514040Y-3592340D03*
X100000Y-3306980D03*
X193000Y-3292500D03*
X-50000Y-3328150D03*
X400060Y-3745340D03*
Y-3582160D03*
X609570Y-3545840D03*
X200000Y-3398650D03*
X500000Y-3399980D03*
X607660Y-3300000D03*
X353560Y-3522980D03*
X200000Y-3592340D03*
X0D03*
X684150Y-3196600D03*
X266940Y-3745340D03*
Y-3569470D03*
X298250Y-3339000D03*
X146510Y-3745340D03*
X609500Y-3193000D03*
X300000D03*
X100000Y-3399980D03*
X193000Y-2696950D03*
X100000Y-3091720D03*
X203500Y-3108280D03*
X193000Y-2803500D03*
X203500Y-3008280D03*
X635000Y-2810060D03*
X292500Y-2791720D03*
X509000Y-2650450D03*
X546500Y-3097040D03*
X407500Y-3096500D03*
X544660Y-2966060D03*
X392500Y-2991720D03*
X292110Y-2896500D03*
X0Y-3003500D03*
X509000Y-2850000D03*
X618500Y-2873060D03*
X196500Y-2891720D03*
X100000Y-2800000D03*
X572000Y-2819290D03*
X391720Y-2792500D03*
X607660Y-3000000D03*
X100000Y-2496500D03*
X607660Y-2600000D03*
X621660Y-2496500D03*
X100000Y-2896500D03*
X7000Y-2395000D03*
Y-2708280D03*
X-7000Y-2808280D03*
X100000Y-2603950D03*
Y-2992500D03*
X-4010Y-2501000D03*
X294110Y-3097140D03*
X200000Y-2392500D03*
X509000Y-2550000D03*
X396500Y-2503500D03*
X198250Y-2492500D03*
X192500Y-2591720D03*
X300000Y-2992500D03*
X607670Y-1733500D03*
X607660Y-2300000D03*
Y-1900000D03*
X100000Y-2208280D03*
X0Y-2200000D03*
Y-2100000D03*
Y-2000000D03*
X100000Y-2100000D03*
X0Y-1900000D03*
X100000Y-2000000D03*
Y-1900000D03*
X0Y-2300000D03*
X403060Y-1904140D03*
X500000Y-2206770D03*
X396500Y-2207500D03*
X293000Y-2108280D03*
X496060Y-2300000D03*
X303500Y-2308280D03*
X193000Y-2307500D03*
X100000Y-2308280D03*
X577660Y-2046500D03*
X91720Y-1597000D03*
X297730Y-1891720D03*
X200000Y-1405280D03*
X595500Y-1500000D03*
X500000Y-1393060D03*
Y-1207660D03*
X200000D03*
X16340Y-1021660D03*
X596940Y-1286560D03*
X450010Y-999150D03*
X-7890Y-1131160D03*
X450290Y-1161160D03*
X546500Y-1548990D03*
X193000Y-1478280D03*
X449560Y-1453500D03*
X543960Y-839590D03*
X250440D03*
X38610Y-1084660D03*
X643440Y-1059150D03*
X41140Y-1269340D03*
X296940Y-898660D03*
X-6630Y-1345840D03*
X-54390Y-738340D03*
X200000Y-307660D03*
X569000Y-321660D03*
X600810Y-200000D03*
X500000Y-492340D03*
X200000D03*
X0D03*
X591400Y-788970D03*
X496510Y-642340D03*
X-6920Y-688840D03*
X200000Y-793090D03*
X-5940D03*
X246500Y-642340D03*
X296500Y-493060D03*
Y-793090D03*
X607660Y100000D03*
X98720Y600000D03*
X0D03*
X607660Y500000D03*
X0D03*
Y400000D03*
Y300000D03*
X100000Y500000D03*
Y400000D03*
Y300000D03*
X0Y200000D03*
X100000D03*
X-8280Y-7500D03*
X191720Y596500D03*
X291720Y696500D03*
X603860Y650000D03*
X553550Y176500D03*
Y696500D03*
X292500Y596500D03*
X-7000Y91720D03*
X291720Y492500D03*
X293000Y-3500D03*
X542810Y-44500D03*
X606000Y800000D03*
X607660Y1200000D03*
X0Y900000D03*
Y1000000D03*
Y1100000D03*
X100000Y900000D03*
Y1000000D03*
X0Y1200000D03*
X100000Y1100000D03*
Y1200000D03*
X98720Y795000D03*
X0Y800000D03*
X509000Y842500D03*
X292500Y896500D03*
X291720Y796500D03*
X191720Y892500D03*
X509000Y750000D03*
X393000Y791730D03*
X5720Y1291720D03*
X192500Y791720D03*
X496510Y1296500D03*
X391720Y1192500D03*
X291720D03*
X529850Y1050000D03*
X606030Y1103500D03*
X298250Y1107500D03*
X193000Y1103500D03*
X530820Y950000D03*
X606350Y996500D03*
X191720Y1003500D03*
X-53500Y1799640D03*
X200000Y1693120D03*
X607660Y1600000D03*
X500000Y1707660D03*
Y1901350D03*
X200000D03*
X5720Y1884240D03*
X14720Y2015340D03*
X546500Y1484010D03*
X292500Y1659120D03*
X76500Y1682630D03*
X169500Y2231340D03*
X492000Y2968200D03*
X590200Y2357720D03*
X416000Y2341750D03*
X636700Y2231340D03*
X76500Y2420190D03*
X339500Y2232060D03*
X-31780Y2517840D03*
X293000Y2527220D03*
X145050Y3700000D03*
X823840Y-5200000D03*
X1006800Y-3300000D03*
X1014660Y-3143640D03*
X1318250Y-3745340D03*
X1227450Y-3120990D03*
X1372700Y-3299640D03*
X1300000Y-3150650D03*
X1378450Y-3149050D03*
X1100000Y-3399980D03*
X801350Y-3300000D03*
X1300000Y-3393980D03*
X980540Y-3206640D03*
X1453980Y-3749200D03*
X1425000Y-3011500D03*
X1273950Y-2869990D03*
X1180950Y-2625000D03*
X1227450Y-2575000D03*
X1104010Y-3050440D03*
X1425000Y-2388500D03*
X1082810Y-2771500D03*
X1279700Y-2725000D03*
X1285450Y-2965660D03*
X1180950Y-2771500D03*
X792340Y-2600000D03*
Y-3000000D03*
X730650Y-2486000D03*
X1082810Y-2439500D03*
X1059210Y-3097140D03*
X754850Y-1610500D03*
Y-2207000D03*
X1341300Y-1676970D03*
X1169850Y-1687000D03*
X1294800Y-2309770D03*
X1098340Y-2063150D03*
X801350Y-2160500D03*
X1207660Y-1600000D03*
X1292340Y-2000000D03*
Y-2200000D03*
X801350Y-1900000D03*
X1107660Y-2000000D03*
Y-2200000D03*
X801950Y-2067500D03*
X1430000Y-1666750D03*
X1096050Y-2263000D03*
X1098340Y-1916500D03*
X1082810Y-2346500D03*
X1216350Y-1826560D03*
X1014670Y-1387000D03*
X792340Y-1010150D03*
X801350Y-1500000D03*
X801910Y-1178040D03*
Y-1437000D03*
X1014660Y-1264000D03*
X945340Y-325640D03*
X792340Y-200000D03*
X1421890Y-434450D03*
X801350Y500000D03*
Y100000D03*
X815590Y437000D03*
X1016850Y576500D03*
X838840Y653000D03*
X970350Y-44500D03*
X822340Y1423700D03*
X801350Y800000D03*
Y1200000D03*
X852340Y996500D03*
X1016850Y1159500D03*
X792340Y732500D03*
X915340Y1206000D03*
X898840Y1043000D03*
X945380Y2078340D03*
X991880Y1945200D03*
X1341300Y2005200D03*
X885340Y1799640D03*
X792340Y1600000D03*
X1191200Y1548700D03*
X792340Y1673700D03*
X945380Y1990720D03*
X1338840Y2400000D03*
X961840Y2278560D03*
X1254160Y2231340D03*
X1292340Y2300000D03*
X1098200D03*
X760660Y2231340D03*
X751070Y2404220D03*
X845050Y3700000D03*
X1398700Y3014700D03*
X2059010Y-5600040D03*
X2049260Y-5500040D03*
X2139330D03*
X2212030Y-5726760D03*
X2113280D03*
X2014530D03*
X1915790D03*
X1817040D03*
X2146300Y-4996180D03*
X1587050Y-4800000D03*
X2131170Y-3800520D03*
X1633060Y-3299640D03*
X1918200Y-3612460D03*
X1675000Y-3197150D03*
X1700000Y-3392340D03*
X2000000Y-3399980D03*
X1500000Y-3393980D03*
X1855200Y-3795700D03*
Y-3612460D03*
X1946200Y-2405360D03*
X1475000Y-3056050D03*
X1525000Y-3011500D03*
X1901700Y-3089960D03*
X1912600Y-2825000D03*
X1725000Y-3041500D03*
X1994710Y-2995000D03*
X1911500Y-2918500D03*
X1500000Y-2600000D03*
X1600000D03*
X1700000D03*
Y-2700000D03*
X1600000D03*
X1500000D03*
Y-2800000D03*
X1600000D03*
X1700000D03*
X1825200Y-1713280D03*
X1475000Y-2343950D03*
X2055340Y-2016660D03*
X1507660Y-1646500D03*
X1575000Y-2267450D03*
X1692340Y-1600000D03*
X1978340Y-2340000D03*
X1778700Y-1900000D03*
X2107660Y-1600000D03*
X1992340Y-2000000D03*
X1592340Y-2200000D03*
X1675000Y-2293500D03*
X1901700Y-1873060D03*
X1876000Y-1780060D03*
X1938100Y-1533060D03*
X1470000Y-967840D03*
X1645200Y-1056000D03*
X1969000Y-427650D03*
X1470000Y-325640D03*
X1777000Y-759840D03*
X1714100Y193840D03*
X1700000Y378040D03*
X1876000Y121220D03*
X1922500Y2154840D03*
X2023000Y1830000D03*
X1736500Y2205000D03*
X2114810Y1656460D03*
X1876000Y1703700D03*
X1846000Y2718000D03*
Y2465000D03*
X2100000Y2823840D03*
X1900000D03*
Y2595000D03*
X1736500Y2335000D03*
X1783000Y2831780D03*
X1900000Y3375510D03*
X2100000Y3545500D03*
X1900000Y3576160D03*
X1700000Y3278010D03*
Y3548000D03*
X1900000Y3187710D03*
X1598700Y3584440D03*
X2229390Y-5500040D03*
X2319460D03*
X2409520D03*
Y-5575610D03*
Y-5651190D03*
Y-5726760D03*
X2310770D03*
X2300000Y-4584500D03*
X2267660Y-3795700D03*
X2301940Y-3300360D03*
X2658850Y-3479200D03*
X2377160Y-3672700D03*
X2655910Y-3542200D03*
X2771220Y-3368340D03*
X2291940Y-2400000D03*
X2492340D03*
X2292340Y-1600000D03*
X2303440Y-2293500D03*
X2377150Y-2103060D03*
X2607660Y-1700000D03*
X2498170Y-235640D03*
X2544670Y-189140D03*
X2939500Y688350D03*
X2658850Y121220D03*
X2600000Y441670D03*
Y533330D03*
Y625000D03*
X2750000D03*
Y533330D03*
Y441670D03*
Y350000D03*
X2675000D03*
X2600000D03*
X2470150Y74720D03*
Y-1780D03*
X2600000Y1675000D03*
Y1766670D03*
Y1858330D03*
Y1950000D03*
X2675000D03*
X2750000D03*
Y1858330D03*
Y1766670D03*
Y1675000D03*
X2893000Y2641500D03*
X2800000Y2223840D03*
X2306500Y2595000D03*
Y2530000D03*
Y2400000D03*
Y2270000D03*
X2778700Y3250000D03*
X2345050Y3746000D03*
X2612040Y3000000D03*
X2571650Y3543190D03*
X2956300Y3746000D03*
X2353000Y3324510D03*
X2268550Y3386000D03*
Y3849810D03*
X3695700Y-2936240D03*
X3736340Y-2876910D03*
X3332480Y-2991580D03*
X3398520Y-2941320D03*
X3070190Y-2355640D03*
X3278300D03*
Y-2449980D03*
X3208930D03*
X3139560D03*
X3070190D03*
Y-2261300D03*
X3139560D03*
X3208930D03*
X3278300D03*
X3342200Y-1400000D03*
X3700000Y995830D03*
Y1091670D03*
Y1187500D03*
Y1283330D03*
Y1379170D03*
Y900000D03*
Y1475000D03*
Y1570830D03*
Y1858330D03*
Y1954170D03*
Y2050000D03*
X3300000Y1952460D03*
Y2050000D03*
X3375000D03*
X3450000D03*
Y1952460D03*
Y1854920D03*
X3375000D03*
X3300000D03*
X3692340Y2300000D03*
X3354000Y2891000D03*
X3507660Y2300000D03*
X3392340Y2700000D03*
X3240500Y3250000D03*
X3900000Y1379170D03*
X3766670Y2050000D03*
X3833330D03*
X3900000D03*
Y1954170D03*
Y1858330D03*
Y1762500D03*
Y1666670D03*
Y1570830D03*
Y1475000D03*
X3978700Y3300000D03*
G54D12*
X-4132000Y2700000D03*
X-3878000D03*
X-3624000D03*
X-3370000D03*
X-3116000D03*
X-2862000D03*
X-2608000D03*
X-2354000D03*
X-2100000D03*
X-1041400Y-5273040D03*
X-986000Y2700000D03*
X-732000D03*
X-478000D03*
X-224000D03*
X30000D03*
X284000D03*
X538000D03*
X846000Y-4700000D03*
X1100000D03*
X1470000Y1070000D03*
Y1325000D03*
Y1830000D03*
Y1575000D03*
X792000Y2700000D03*
X1046000D03*
X1300000D03*
X2230000Y1070000D03*
Y1325000D03*
Y1575000D03*
Y1830000D03*
X2927000Y-4654000D03*
X2800000Y-4400000D03*
X2500000Y2246000D03*
Y2500000D03*
X3689000Y-4654000D03*
X3435000D03*
X3181000D03*
X3562000Y-4400000D03*
X3308000D03*
X3054000D03*
X3943000Y-4654000D03*
X3816000Y-4400000D03*
X4200000Y2438000D03*
Y2692000D03*
Y2946000D03*
Y3200000D03*
G54D21*
X2940000Y-3227000D03*
Y-3100000D03*
X3702000Y-3227000D03*
X3575000D03*
X3448000D03*
X3321000D03*
X3194000D03*
X3067000D03*
X3702000Y-3100000D03*
X3575000D03*
X3448000D03*
X3321000D03*
X3194000D03*
X3067000D03*
X4083000Y-3227000D03*
X3956000D03*
X3829000D03*
X4083000Y-3100000D03*
X3956000D03*
X3829000D03*
G54D22*
G01X-3847000Y-1491000D02*
X-4337150D01*
Y-2960440D01*
X-4245790D01*
Y-3429340D01*
X-3812920D01*
Y-3454170D01*
X-1796450D01*
G01X-1194740Y-1907890D02*
Y-1793500D01*
X-3390000D01*
Y-1758000D01*
X-4154150D01*
Y-2720690D01*
X-4031160D01*
Y-3191720D01*
X-3603500D01*
G01X-3550000Y-3338220D02*
X-3801660D01*
Y-3246650D01*
X-4154160D01*
Y-2764000D01*
X-4184150D01*
Y-1728000D01*
X-3004000D01*
Y-1753500D01*
X-1146000D01*
Y-1991720D01*
X-1101740D01*
G01X496510Y1296500D02*
X344750D01*
Y-1673500D01*
X-980990D01*
Y-1723500D01*
X-2644000D01*
Y-1698000D01*
X-4214150D01*
Y-2794000D01*
X-4184160D01*
Y-3346500D01*
X-4001160D01*
Y-3337700D01*
X-3954660D01*
G01X-3907000Y-3603480D02*
X-3953500D01*
Y-3638840D01*
X-4248890D01*
G01X-3908160Y-3293150D02*
Y-3384200D01*
X-4215730D01*
Y-2930440D01*
X-4307150D01*
Y-1608000D01*
X-2246490D01*
Y-1561780D01*
X-1040980D01*
Y-1597000D01*
X-908280D01*
G01X-4206770Y-3757660D02*
X-3960440D01*
G01X-4251480Y-3711160D02*
X-3883940D01*
Y-3745340D01*
X-1473900D01*
Y-3498740D01*
G01X-4066940Y-3492340D02*
X-4297980D01*
Y-3851840D01*
X2344160D01*
Y-3817460D01*
X2568840D01*
Y-1933500D01*
X2544670D01*
Y-189140D01*
G01X-4248890Y-3538840D02*
X-3933060D01*
G01X-4292320Y-3069940D02*
X-4367150D01*
Y-1131160D01*
X-4154160D01*
G01X-4055500Y-2203500D02*
Y-2257000D01*
X-3941160D01*
Y-2692500D01*
X-3894110D01*
G01X-3800500Y-1908280D02*
X-3945220D01*
Y-2157000D01*
X-4102000D01*
Y-2505550D01*
X-3971160D01*
Y-2808280D01*
X-3903500D01*
G01X-4260650Y-2807500D02*
Y-1668000D01*
X-2314000D01*
Y-1693500D01*
X-1040990D01*
Y-1643500D01*
X41140D01*
Y-1269340D01*
G01X-3798720Y-2891720D02*
X-4001160D01*
Y-2649000D01*
X-4092660D01*
G01X-4009000Y-2454000D02*
Y-2303500D01*
G01X-3991720Y-2103500D02*
Y-1861780D01*
X-3690000D01*
Y-1823500D01*
X-2144500D01*
Y-2081020D01*
X-2060370D01*
G01X-4200660Y-1000660D02*
X-3710500D01*
Y-1345840D01*
X-3043060D01*
Y-1398000D01*
G01X-3903060Y-1119340D02*
X-3800500D01*
Y-1567500D01*
X-2363500D01*
Y-1345830D01*
X-1049990D01*
Y-1206180D01*
G01X-4200660Y953000D02*
Y936500D01*
X-4214160D01*
Y-877660D01*
X-3688560D01*
Y-784660D01*
G01X-3779300Y2457840D02*
X-4368840D01*
Y-954160D01*
X-4052150D01*
G01X-3949560D02*
X-3073060D01*
Y-1168650D01*
G01X-2714000Y-937660D02*
X-2760500D01*
Y-896580D01*
X-3388560D01*
Y-907660D01*
X-4338840D01*
Y2411340D01*
X-3624000D01*
Y2700000D01*
G01X-3997040Y-582340D02*
X-3891530D01*
Y-658840D01*
X-967000D01*
Y-97000D01*
X-908280D01*
G01X-3900000Y992500D02*
Y946000D01*
X-3939000D01*
Y-159150D01*
X-3903060D01*
Y-205650D01*
G01X-2966940Y-735340D02*
X-4145150D01*
Y-36610D01*
X-4061160D01*
Y269500D01*
X-4077660D01*
Y316000D01*
G01X-4264170Y-355840D02*
Y-309340D01*
X-4245840D01*
Y576500D01*
X-4307160D01*
Y733440D01*
X-4245840D01*
Y876500D01*
X-4247160D01*
Y1089500D01*
X-4199340D01*
Y2365000D01*
X-3547500D01*
G01X-4130250Y2060260D02*
Y2013760D01*
X-4154160D01*
Y906500D01*
X-4184160D01*
Y-831160D01*
X-3735060D01*
G01X-992500Y993000D02*
X-945220D01*
Y9500D01*
X-997000D01*
Y-628840D01*
X-3861530D01*
Y-252150D01*
X-3996060D01*
Y-198690D01*
G01X-807500Y-3500D02*
Y-50000D01*
X-849990D01*
Y-688840D01*
X-3951530D01*
Y-628840D01*
X-4046500D01*
Y-96610D01*
X-4031160D01*
Y876510D01*
X-4061170D01*
Y1119000D01*
X-4014660D01*
Y1250000D01*
G01X-4061160Y2274840D02*
Y1149000D01*
X-4094160D01*
Y876500D01*
X-4154160D01*
Y163000D01*
X-4107660D01*
G01X-3903500Y1091720D02*
X-3846000D01*
Y-192150D01*
X-3801530D01*
Y-598840D01*
X-1027000D01*
Y46000D01*
X-1000000D01*
Y92500D01*
G01X-2914200Y2564340D02*
X-2960700D01*
Y2538300D01*
X-3241300D01*
Y2858700D01*
X-4067000D01*
Y3630940D01*
X1598700D01*
Y3584440D01*
G01X-379300Y2138340D02*
Y3025200D01*
X-1232660D01*
Y3528000D01*
X-4007000D01*
Y2948700D01*
X-3017300D01*
Y2584800D01*
X-3066650D01*
G01X-3932000Y3300000D02*
Y3405000D01*
X-1661650D01*
Y2637840D01*
X-1433430D01*
Y2091840D01*
X-1154100D01*
Y807510D01*
X-1103500D01*
G01X-2563530Y-3346500D02*
X-2813500D01*
Y-3262500D01*
X-3163500D01*
Y-3283480D01*
X-3346500D01*
Y-3384720D01*
G01X-1301250Y-2108280D02*
X-1533410D01*
Y-2769500D01*
X-1994500D01*
Y-2731780D01*
X-2853500D01*
Y-2853500D01*
X-2953500D01*
Y-3054500D01*
X-3093500D01*
Y-3153500D01*
X-3516490D01*
Y-3291720D01*
X-3696500D01*
G01X-558720Y-3728840D02*
X-604490D01*
Y-3669400D01*
X-697490D01*
Y-3699400D01*
X-1253500D01*
Y-3404830D01*
X-1729030D01*
Y-3685340D01*
X-2853500D01*
Y-3545840D01*
X-3327000D01*
Y-3618470D01*
X-3461830D01*
Y-3686670D01*
X-3729940D01*
Y-3541250D01*
G01X-3791720Y-3103500D02*
X-3745220D01*
Y-3139000D01*
X-3546490D01*
Y-2853500D01*
X-3123500D01*
Y-2453500D01*
X-1831160D01*
Y-2470000D01*
X-1574060D01*
Y-2061780D01*
X-1144480D01*
Y-2091720D01*
X-1097980D01*
G01X-2708280Y-3191720D02*
X-2754780D01*
Y-3153500D01*
X-3063490D01*
Y-3202500D01*
X-3223500D01*
Y-3253480D01*
X-3463500D01*
Y-3384720D01*
X-3743000D01*
G01X-2279700Y-3500670D02*
X-3572110D01*
Y-3640170D01*
G01X-3396500Y-2991720D02*
X-3350000D01*
Y-2953500D01*
X-3093500D01*
Y-2483950D01*
X-2763500D01*
Y-2546500D01*
X-2157270D01*
G01X-1754660Y-2660500D02*
Y-2709500D01*
X-1964500D01*
Y-2671780D01*
X-2823500D01*
Y-2513950D01*
X-3063500D01*
Y-2986000D01*
X-3123500D01*
Y-3046500D01*
X-3396490D01*
Y-3096500D01*
G01X-1301250Y-1991720D02*
X-1347750D01*
Y-1968780D01*
X-1634060D01*
Y-2440000D01*
X-1801160D01*
Y-2423500D01*
X-3153500D01*
Y-2753500D01*
X-3661780D01*
Y-2861000D01*
X-3738220D01*
Y-2986000D01*
X-3603500D01*
Y-3091720D01*
G01X-1735160Y-2393500D02*
X-3191060D01*
X-3238500Y-2440940D01*
X-3365770D01*
X-3393000Y-2468170D01*
Y-2531280D01*
X-3415220Y-2553500D01*
X-3750000D01*
Y-2692500D01*
X-3796500D01*
G01X-3891720Y-3107500D02*
Y-3008280D01*
X-3797610D01*
G01X-2191000Y-2246500D02*
X-2773500D01*
X-2822500Y-2197500D01*
X-3167330D01*
X-3193810Y-2223980D01*
X-3269710D01*
X-3296940Y-2251210D01*
Y-2324100D01*
X-3323820Y-2350980D01*
X-3425000D01*
X-3454960Y-2380940D01*
X-3772160D01*
X-3891720Y-2500500D01*
G01X-3692500Y-2601750D02*
Y-2646500D01*
X-3250440D01*
Y-2487440D01*
G01X-1892840Y-1991000D02*
X-1900100Y-1998260D01*
Y-2056770D01*
X-1934590Y-2091260D01*
Y-2153500D01*
X-1907360Y-2180730D01*
Y-2219270D01*
X-1934590Y-2246500D01*
X-1973130D01*
X-1989630Y-2230000D01*
X-2108730D01*
X-2171730Y-2293000D01*
X-2194840D01*
X-2265340Y-2363500D01*
X-3218180D01*
X-3265620Y-2410940D01*
X-3599160D01*
X-3691720Y-2503500D01*
G01X-3800500Y-2008280D02*
Y-2054780D01*
X-3845370D01*
Y-2253500D01*
X-3393000D01*
Y-2304480D01*
G01X-1953860Y-2200000D02*
X-2553500D01*
Y-2153500D01*
X-2868500D01*
Y-2154780D01*
X-3696490D01*
Y-2103500D01*
G01X-2072530Y-2144020D02*
X-2293990D01*
Y-2058500D01*
X-2786490D01*
Y-2054500D01*
X-3646500D01*
Y-2008280D01*
X-3693000D01*
G01X-2191000Y-1954000D02*
X-2463500D01*
Y-1953500D01*
X-3752370D01*
Y-2160500D01*
X-3796500D01*
Y-2207000D01*
G01X-2308280Y-1907500D02*
Y-1853500D01*
X-3552500D01*
Y-1899360D01*
X-3599000D01*
G01X-3166060Y-2262000D02*
X-2906560D01*
Y-2317000D01*
X-2853500D01*
G01X-3707500Y-1444500D02*
X-2679500D01*
Y-1395170D01*
G01X-3439500Y-1209340D02*
X-3393000D01*
Y-1245150D01*
X-2684530D01*
Y-1192840D01*
X-2586500D01*
Y-1254160D01*
X-1953860D01*
Y-1237660D01*
X-1907360D01*
G01X-3754000Y-1491000D02*
Y-1537500D01*
X-2907000D01*
Y-1491000D01*
G01X-3503060Y-1152150D02*
Y-1314160D01*
X-1142990D01*
Y-1280730D01*
X-1096490D01*
G01X-804010Y699000D02*
X-750000D01*
Y-733690D01*
X-627000D01*
Y-886690D01*
X-2414000D01*
Y-866580D01*
X-3553500D01*
Y-784650D01*
G01X-3192500Y-91720D02*
X-3093500D01*
Y2272000D01*
X-2553500D01*
G01X-3447010Y-298650D02*
Y507000D01*
X-3400500D01*
G01X-1107500Y92000D02*
Y-384160D01*
X-3707500D01*
Y1002390D01*
G01X-1103500Y-453490D02*
X-1740560D01*
Y-538840D01*
X-3676500D01*
Y-522340D01*
G01X-1150000Y-517910D02*
Y-568840D01*
X-3745240D01*
Y857010D01*
X-3791720D01*
Y903510D01*
G01X-3666940Y-439340D02*
X-1877060D01*
G01X-1096500Y1191720D02*
Y1145220D01*
X-1050010D01*
Y138500D01*
X-1256610D01*
Y-261160D01*
X-3047500D01*
Y-345150D01*
X-3523500D01*
Y-209000D01*
X-3570010D01*
G01X-3503500Y-108280D02*
Y-61780D01*
X-3546000D01*
Y84780D01*
X-3646500D01*
Y736500D01*
X-3553500D01*
Y2277840D01*
G01X-1305650Y-192500D02*
X-1352150D01*
Y-146500D01*
X-3253500D01*
Y893000D01*
X-3307000D01*
G01Y783000D02*
Y446500D01*
X-3346510D01*
Y-193000D01*
X-3201000D01*
G01X-3207000Y499000D02*
Y780000D01*
X-3153500D01*
Y2501340D01*
X-2735970D01*
Y3028220D01*
G01X-3499500Y0D02*
Y144780D01*
X-3546500D01*
Y706500D01*
X-3453500D01*
Y1968840D01*
G01X-3649890Y2231340D02*
Y856500D01*
X-3676500D01*
Y8280D01*
X-3600000D01*
G01X-3160500Y553500D02*
Y600000D01*
X-3123500D01*
Y2471340D01*
X-2576750D01*
G01X-3353500Y2517840D02*
Y630000D01*
G01X-3301000Y1967260D02*
Y1392500D01*
G01X-3407000Y2013760D02*
Y1292500D01*
G01X-3712900Y2184840D02*
X-3891720D01*
Y1192500D01*
G01X-3696390D02*
Y1844260D01*
G01X-3297000Y3300000D02*
Y3375000D01*
X-1724660D01*
Y1676500D01*
X-1253500D01*
Y903500D01*
X-1203500D01*
G01X-2701280Y-3092500D02*
X-2654780D01*
Y-3253500D01*
X-1193500D01*
Y-3638250D01*
X-1029940D01*
Y-3545840D01*
X-736500D01*
Y-3455840D01*
X-553500D01*
Y-3153500D01*
X-308280D01*
Y-3101000D01*
G01X-2353500Y-3569760D02*
X-2400000D01*
Y-3545840D01*
X-2760500D01*
Y-3547170D01*
X-2807000D01*
G01X1855200Y-3795700D02*
X1808700D01*
Y-3821840D01*
X-1427400D01*
Y-3452240D01*
X-1550400D01*
Y-3715340D01*
X-3056560D01*
Y-3592340D01*
G01X-2400000Y-3407670D02*
Y-3300000D01*
G01D02*
X-2700000D01*
G01X-2399780Y-3203500D02*
X-2060570D01*
G01X-2807000Y-2998720D02*
X-2323280D01*
Y-3108280D01*
X-2207500D01*
G01X-2907000Y-3092500D02*
Y-3045220D01*
X-2701280D01*
Y-3092500D01*
G01X-2900000Y-2991720D02*
X-2853500D01*
Y-2952220D01*
X-2266560D01*
Y-2991720D01*
X-2207500D01*
G01X-2807000Y-2800000D02*
Y-2848500D01*
X-2501780D01*
Y-2922220D01*
X-2064000D01*
Y-3146000D01*
X-950000D01*
Y-3309000D01*
G01X-1301250Y-2197610D02*
Y-2799500D01*
X-2054500D01*
Y-2761780D01*
X-2545220D01*
Y-2802000D01*
X-2591720D01*
G01X-1737860Y-3049140D02*
X-2034000D01*
Y-2892220D01*
X-2392500D01*
Y-2808280D01*
G01X-2508280Y-2008280D02*
X-2307500D01*
G01X-3026560Y-1100710D02*
X-2980060D01*
Y-1076410D01*
X-2616490D01*
Y-1161160D01*
X-2471450D01*
Y-1181650D01*
X-2303000D01*
Y-1161160D01*
X-1998410D01*
Y-1185910D01*
X-1951910D01*
G01X-2424950Y-1135150D02*
X-2363000D01*
Y-1131160D01*
X-1940640D01*
Y-1139410D01*
X-1894140D01*
G01X-1003490Y-995650D02*
X-2460760D01*
G01X-1376340Y-949150D02*
X-2603060D01*
Y-1009660D01*
X-2981040D01*
G01X-103060Y-975160D02*
X-160500D01*
Y-1112160D01*
X-1545870D01*
Y-1284160D01*
X-2633000D01*
Y-1239340D01*
G01X-2469500Y-1088650D02*
X-1622370D01*
G01X-868280Y-840190D02*
X-2174000D01*
Y-836580D01*
X-2920060D01*
Y-782550D01*
G01X-1452840Y-100000D02*
X-1499340D01*
Y-101280D01*
X-2853500D01*
Y-1000D01*
X-2907500D01*
G01X-1207500Y-100250D02*
Y-354160D01*
X-2966940D01*
Y-337660D01*
G01X-2837000Y-307660D02*
X-2707500D01*
G01X-800000Y-738330D02*
X-2491010D01*
G01X-2807000Y-3500D02*
Y-54780D01*
X-1592370D01*
G01X-2801750Y93000D02*
X-2213500D01*
Y52500D01*
X-1358660D01*
G01X-2991720Y93000D02*
Y146500D01*
X-1954160D01*
Y163000D01*
X-1907660D01*
G01X-3008280Y567010D02*
Y893000D01*
G01X-1336370Y-50500D02*
X-1515870D01*
Y-7500D01*
X-2453500D01*
Y0D01*
X-2500000D01*
G01X-2908280Y846500D02*
Y800000D01*
X-2908290D01*
Y676500D01*
X-2908280D01*
Y630000D01*
G01X-2535000Y3173000D02*
Y3041730D01*
X-2507000D01*
Y2133760D01*
X-3054780D01*
Y46500D01*
X-2333500D01*
Y22500D01*
X-1455870D01*
Y6000D01*
X-1312160D01*
Y198500D01*
X-1203500D01*
Y591730D01*
G01X-1552160Y647900D02*
Y546500D01*
X-2463500D01*
Y461780D01*
X-2872000D01*
Y539000D01*
G01X-2407000Y607500D02*
Y693000D01*
X-2861790D01*
Y769500D01*
G01X-2500000Y607500D02*
X-2546500D01*
Y646500D01*
X-2815280D01*
G01X-2107000Y205000D02*
X-2507500D01*
G01X-2500000Y991720D02*
X-2546500D01*
Y946500D01*
X-2954780D01*
Y347320D01*
X-1668900D01*
Y314500D01*
X-1622400D01*
G01X-2396490Y1402500D02*
X-2044000D01*
Y1769500D01*
G01X-2815290Y850010D02*
X-2546500D01*
Y891720D01*
X-2500000D01*
G01X-1953860Y667550D02*
X-2188270D01*
Y723010D01*
X-2500000D01*
Y791720D01*
G01X-2408000Y3173000D02*
Y2948730D01*
X-2452700D01*
Y1309500D01*
X-1560330D01*
Y846500D01*
X-1469340D01*
Y427000D01*
X-1267000D01*
Y638230D01*
X-1154000D01*
Y603500D01*
X-1107500D01*
G01X-2499200Y1639000D02*
Y1097610D01*
G01X-2307500Y991920D02*
Y1038220D01*
X-2553500D01*
Y1639000D01*
X-2735970D01*
G01X-2396500Y991720D02*
Y943350D01*
X-1892840D01*
Y623000D01*
G01X-1497940Y1339500D02*
X-1967500D01*
Y2261340D01*
X-2376200D01*
Y2318500D01*
G01X-1103500Y-3192500D02*
X-1890860D01*
G01X-2326200Y-3311830D02*
Y-3358330D01*
X-1223500D01*
Y-3669400D01*
X-727490D01*
Y-3639400D01*
X-574490D01*
Y-3682340D01*
X-482220D01*
Y-3699400D01*
X-220060D01*
Y-3682340D01*
X-89560D01*
Y-3745340D01*
X146510D01*
G01X-2208280Y-2500000D02*
X-2161780D01*
Y-2486570D01*
X-1861160D01*
Y-2521000D01*
X-1648160D01*
Y-2567490D01*
X-1601660D01*
G01X-1103500Y-3007500D02*
Y-2935010D01*
X-1741530D01*
G01X-2131000Y-2838720D02*
X-1254750D01*
Y-2203500D01*
X-1194740D01*
G01X-1101740Y-2303500D02*
X-1148240D01*
Y-2888510D01*
X-1955830D01*
G01X-1003500Y-3007500D02*
Y-3054000D01*
X-1691360D01*
Y-2996800D01*
G01X-1924060Y-1647000D02*
X-1877560D01*
Y-1659930D01*
X-1301250D01*
Y-1608280D01*
G01Y-1891720D02*
X-1347750D01*
Y-1853500D01*
X-1724060D01*
Y-2190500D01*
X-1754660D01*
Y-2237000D01*
G01X-1894140Y-1139410D02*
X-1575870D01*
Y-1052160D01*
X-926990D01*
Y-978160D01*
X-627000D01*
G01X-1003500Y-1453500D02*
X-2155450D01*
G01X-1892210Y-1042150D02*
X-2072890D01*
G01X-1912200Y-793690D02*
X-720000D01*
Y-835760D01*
X-673500D01*
G01X-2191000Y1226500D02*
Y1180000D01*
X-2237040D01*
Y973560D01*
X-1862840D01*
Y669500D01*
X-1786340D01*
Y593000D01*
X-1663330D01*
G01X-1975780Y394630D02*
X-2308280D01*
G01X-2128000Y1263000D02*
X-1861160D01*
G01X-1611840Y1103500D02*
X-1768160D01*
Y1226250D01*
G01X-2190540Y1096500D02*
Y1143000D01*
X-1832840D01*
Y732500D01*
X-1499340D01*
Y163000D01*
X-1607360D01*
G01X-2154000Y3173000D02*
Y2888710D01*
X-1784660D01*
Y1646500D01*
X-1331160D01*
Y1068220D01*
X-1376500D01*
Y796500D01*
X-1342030D01*
Y698230D01*
X-1376500D01*
Y639800D01*
G01X-1434940Y1356000D02*
Y1479000D01*
X-1861160D01*
Y2789720D01*
G01X-1388530Y750000D02*
X-1406500D01*
Y1128220D01*
X-1361160D01*
Y1539000D01*
X-1814660D01*
Y2845200D01*
X-2361500D01*
Y2935200D01*
G01X-2227000Y2798700D02*
X-1907660D01*
Y1723000D01*
G01X-1900000Y3173000D02*
X-1814660D01*
Y2935220D01*
G01X-807000Y1392500D02*
Y2121840D01*
X-1323240D01*
Y2684340D01*
X-1615150D01*
G01X-1366930Y-3596350D02*
Y-3775340D01*
X-256530D01*
G01X-963000Y-3622900D02*
Y-3638840D01*
X-853500D01*
Y-3576400D01*
X-676500D01*
Y-3515840D01*
X-453500D01*
Y-3579400D01*
X-403060D01*
Y-3639120D01*
X-310060D01*
Y-3592340D01*
X-278280D01*
G01X-1003500Y-3197780D02*
Y-3385400D01*
X-1029940D01*
Y-3462590D01*
G01X-1050000Y-3311830D02*
X-1147000D01*
Y-3477290D01*
G01X-1076440Y-3591750D02*
Y-3515840D01*
X-796500D01*
Y-3097570D01*
G01X-1097970Y-2391720D02*
X-1051470D01*
Y-2351490D01*
X-957000D01*
Y-1961000D01*
X-723500D01*
Y-1703500D01*
X393000D01*
Y791730D01*
G01X-557070Y-2277310D02*
X-557880Y-2276500D01*
X-627480D01*
X-680000Y-2329020D01*
Y-2350510D01*
X-782990Y-2453500D01*
X-952720D01*
X-991720Y-2492500D01*
G01X-1194740Y-2507500D02*
Y-2250000D01*
X-1051480D01*
Y-1901000D01*
X-850160D01*
Y-1791720D01*
X-800000D01*
G01X-1003500Y-2891720D02*
Y-2845220D01*
X-1038220D01*
Y-2646000D01*
X-885220D01*
Y-2646500D01*
X-747500D01*
Y-2601000D01*
X-701000D01*
G01X-504740Y-1808280D02*
X-551240D01*
Y-2158500D01*
X-684030D01*
X-684310Y-2158220D01*
X-722850D01*
X-723130Y-2158500D01*
X-903500D01*
Y-2207500D01*
G01X-1320130Y-1515280D02*
X-894770D01*
Y-1537500D01*
X-242560D01*
Y-1507500D01*
X-196060D01*
G01X-1424250Y-1158660D02*
X-254290D01*
G01X-859500Y-1054660D02*
X-283500D01*
Y-645330D01*
X-253500D01*
Y598950D01*
X-196770D01*
G01X-1325580Y503500D02*
X-1439340D01*
Y1057000D01*
X-1454420D01*
Y1103500D01*
G01X-803500Y103940D02*
X-853500D01*
Y1967260D01*
X-953000D01*
G01X-896490Y-4000D02*
Y42500D01*
X-915220D01*
Y1051120D01*
X-957000D01*
Y1776000D01*
X-1056990D01*
G01X-1208280Y796500D02*
Y856500D01*
X-1283500D01*
Y991720D01*
X-1330000D01*
G01X-1598650Y2471340D02*
Y2114270D01*
X-1207000Y1722620D01*
Y1100000D01*
G01X-1003500Y1097610D02*
Y1599110D01*
G01X-1330000Y912610D02*
Y826500D01*
X-1266990D01*
Y743000D01*
X-1150000D01*
Y699000D01*
X-1103500D01*
G01X-1003500Y2184840D02*
X-1247330D01*
Y2620220D01*
G01X-691000Y753500D02*
X-753500D01*
Y2321340D01*
X-1200830D01*
Y2816940D01*
G01X-108280Y1291720D02*
Y3055200D01*
X-1137000D01*
Y3584440D01*
G01X-524000Y3300000D02*
Y3375000D01*
X-1107000D01*
Y3085200D01*
X-78280D01*
Y2015340D01*
X14720D01*
G01X-1568650Y3451500D02*
Y2965200D01*
X-836050D01*
Y2516050D01*
X-653500D01*
Y853500D01*
G01X-1336150Y3375000D02*
Y2995200D01*
X-607000D01*
Y1391720D01*
G01X2230000Y1325000D02*
X2423650D01*
Y-78280D01*
X2423660D01*
Y-3749200D01*
X1547750D01*
Y-3668840D01*
X76500D01*
Y-3545840D01*
X-403050D01*
Y-3314660D01*
X-453500D01*
G01X2023000Y1830000D02*
Y-78270D01*
X2368840D01*
Y-2056560D01*
X2215440D01*
Y-2461620D01*
X2255440D01*
Y-3719040D01*
X1637750D01*
Y-3638840D01*
X136500D01*
Y-3515840D01*
X-373050D01*
Y-3208280D01*
X-500000D01*
G01X-203500Y-3101000D02*
X-253500D01*
Y-3469340D01*
X-312900D01*
G01X-300000Y-3008280D02*
X-253500D01*
Y-3054500D01*
X-153500D01*
Y-3139000D01*
X0D01*
Y-3003500D01*
G01X-799000Y-2007500D02*
X-663500D01*
Y-1758500D01*
X-445220D01*
Y-2394790D01*
X-653500D01*
Y-2853500D01*
X-743000D01*
Y-3061000D01*
X-653500D01*
Y-3358330D01*
X-702230D01*
G01X1453980Y-3749200D02*
X1407480D01*
Y-3791840D01*
X-166060D01*
Y-3728840D01*
G01X266940Y-3745340D02*
Y-3698840D01*
X-35800D01*
Y-3639400D01*
X-280060D01*
Y-3669400D01*
X-433060D01*
Y-3639400D01*
X-544490D01*
Y-3609400D01*
X-757490D01*
Y-3622900D01*
X-807000D01*
G01X-453500Y-2585220D02*
Y-2951750D01*
G01D02*
X-650000D01*
Y-2991720D01*
X-696500D01*
G01X-453500Y-2951750D02*
Y-2998250D01*
X-492500D01*
G01X-500000Y-3100000D02*
X-377000D01*
Y-2645220D01*
X-253500D01*
Y-2220480D01*
G01X1338840Y2400000D02*
Y2081700D01*
X1144700D01*
Y-1463500D01*
X975340D01*
Y-1853500D01*
X344230D01*
Y-1938220D01*
X236500D01*
Y-1853500D01*
X-53500D01*
Y-3092500D01*
X-102300D01*
G01X-596490Y-3003500D02*
X-549990D01*
Y-3044750D01*
X-407000D01*
Y-2615220D01*
X-292220D01*
Y-2369220D01*
X-346500D01*
Y-1793500D01*
X434230D01*
Y-1810000D01*
X945340D01*
Y-325640D01*
G01X-591720Y-2900000D02*
Y-2853500D01*
X-553500D01*
Y-2424790D01*
X-415220D01*
Y-1733500D01*
X607670D01*
G01X-482990Y-2522220D02*
Y-2454790D01*
X-385220D01*
Y-1763500D01*
X524230D01*
Y-1780000D01*
X801350D01*
Y-1564000D01*
X754770D01*
Y-1101540D01*
X838840D01*
Y-511660D01*
X745840D01*
Y1990200D01*
X808840D01*
Y2450720D01*
X169500D01*
Y2231340D01*
G01X-103060Y-2199000D02*
Y-2152500D01*
X-146500D01*
Y-1823500D01*
X297730D01*
Y-1891720D01*
G01X-499500Y-945160D02*
Y-898660D01*
X-453500D01*
Y100000D01*
X-591720D01*
G01X-330000Y-322840D02*
Y-898660D01*
G01X-478000Y2700000D02*
Y2105350D01*
X-453500D01*
Y346500D01*
X-406500D01*
Y-952160D01*
G01X-833060Y-1299340D02*
X-7890D01*
Y-1131160D01*
G01X-563000Y-1207660D02*
Y-1254160D01*
X-56560D01*
Y-792150D01*
X-100890D01*
Y-688840D01*
X-6920D01*
G01X-237000Y-1005660D02*
Y-732150D01*
X-137000D01*
Y-214660D01*
G01X-6630Y-1345840D02*
X-641850D01*
G01X-591720Y-1000D02*
Y-47500D01*
X-553500D01*
Y-574590D01*
X-523750D01*
G01X-360000Y-249000D02*
Y2013760D01*
G01X-591720Y100000D02*
Y146500D01*
X-553500D01*
Y2091840D01*
G01X-53500Y1799640D02*
Y146500D01*
X-200000D01*
Y100000D01*
G01X-696500Y92000D02*
Y138500D01*
X-653500D01*
Y593000D01*
G01X-154780Y2015350D02*
Y1968850D01*
X-153500D01*
Y1338220D01*
X-154780D01*
Y1245220D01*
X-153500D01*
Y936750D01*
X-207000D01*
Y661950D01*
G01X-253500Y860260D02*
Y2510190D01*
X-332800D01*
Y2828700D01*
G01X-308280Y1391720D02*
Y2373690D01*
G01X-707000Y1291720D02*
Y2138340D01*
G01X-534440Y3421500D02*
Y3584440D01*
G01X-270000Y3300000D02*
Y3375000D01*
X1645200D01*
Y-1056000D01*
G01X-397000Y3300000D02*
Y3405000D01*
X1705200D01*
Y3324510D01*
X2353000D01*
G01X514040Y-3592340D02*
X1697750D01*
Y-3688960D01*
X2101840D01*
Y-1846560D01*
X2338840D01*
Y-919500D01*
X1922500D01*
Y2154840D01*
G01X100000Y-3306980D02*
X146500D01*
Y-3446480D01*
X1771500D01*
Y-2456000D01*
X1341300D01*
Y-1676970D01*
G01X-50000Y-3328150D02*
X13500D01*
Y-3476480D01*
X1825200D01*
Y-1713280D01*
G01X1425000Y-3011500D02*
Y-3346500D01*
X346500D01*
Y-3050640D01*
X250000D01*
Y-3008280D01*
X203500D01*
G01X400060Y-3745340D02*
X1318250D01*
G01X609570Y-3545840D02*
X1770480D01*
Y-3658960D01*
X2055340D01*
Y-2016660D01*
G01X546500Y-3097040D02*
Y-3253140D01*
X1227450D01*
Y-3120990D01*
G01X403060Y-1904140D02*
Y-1968220D01*
X206500D01*
Y-1953500D01*
X53500D01*
Y-3154780D01*
X250000D01*
Y-3143640D01*
X294110D01*
Y-3097140D01*
G01X609500Y-3193000D02*
Y-3097140D01*
X1059210D01*
G01X100000Y-3399980D02*
X53500D01*
Y-3193000D01*
X300000D01*
G01X100000Y-3091720D02*
X146500D01*
Y-2650450D01*
X306500D01*
Y-2393000D01*
X1169850D01*
Y-1687000D01*
G01X635000Y-2810060D02*
X815000D01*
Y-2869990D01*
X1273950D01*
G01X509000Y-2650450D02*
X555500D01*
Y-2678500D01*
X1438450D01*
Y-2905000D01*
X1525000D01*
Y-3011500D01*
G01X407500Y-3096500D02*
X454000D01*
Y-3050440D01*
X1104010D01*
G01X544660Y-2966060D02*
Y-2953500D01*
X1210960D01*
Y-3044490D01*
X1300000D01*
Y-3150650D01*
G01X292110Y-2896500D02*
X339000D01*
Y-2725000D01*
X1279700D01*
G01X509000Y-2850000D02*
Y-2919560D01*
X1285450D01*
Y-2965660D01*
G01X196500Y-2891720D02*
X239500D01*
Y-2695000D01*
X443000D01*
Y-2503500D01*
X561170D01*
Y-2543000D01*
X987150D01*
Y-2528500D01*
X1646500D01*
Y-3041500D01*
X1725000D01*
G01X391720Y-2792500D02*
X438220D01*
Y-2763560D01*
X965000D01*
Y-2823490D01*
X1378450D01*
Y-3149050D01*
G01X396500Y-2503500D02*
Y-2439500D01*
X1082810D01*
G01X192500Y-2591720D02*
X246500D01*
Y-2046500D01*
X577660D01*
G01X365000Y3173000D02*
Y3074700D01*
X1568700D01*
Y-1523500D01*
X1051840D01*
Y-2114000D01*
X714160D01*
Y-2160030D01*
X396500D01*
Y-2207500D01*
G01X293000Y-2108280D02*
X654160D01*
Y-2067500D01*
X801950D01*
G01X496060Y-2300000D02*
Y-2253500D01*
X1049550D01*
Y-2263000D01*
X1096050D01*
G01X303500Y-2308280D02*
X350000D01*
Y-2346500D01*
X1082810D01*
G01X100000Y-2308280D02*
X146500D01*
Y-2000000D01*
X1005340D01*
Y-1493500D01*
X1191200D01*
Y1548700D01*
G01X16340Y-1021660D02*
X76500D01*
Y-7500D01*
X-8280D01*
G01X509000Y842500D02*
X450010D01*
Y-999150D01*
G01X496510Y-642340D02*
Y-1114660D01*
X450290D01*
Y-1161160D01*
G01X546500Y-1548990D02*
X719940D01*
Y-712650D01*
X714160D01*
Y2357720D01*
X590200D01*
G01X111000Y3173000D02*
Y3085210D01*
X128700D01*
Y2570720D01*
X123000D01*
Y1456500D01*
X52220D01*
Y138220D01*
X106500D01*
Y-1478280D01*
X193000D01*
G01X449560Y-1453500D02*
X689940D01*
Y-892650D01*
X684160D01*
Y1403000D01*
X416000D01*
Y2341750D01*
G01X529850Y1050000D02*
X654160D01*
Y-1012650D01*
X643440D01*
Y-1059150D01*
G01X339500Y2232060D02*
Y1419000D01*
X239500D01*
Y421720D01*
X153500D01*
Y-898660D01*
X296940D01*
G01X509000Y750000D02*
X496310D01*
Y-415840D01*
X591400D01*
Y-788970D01*
G01X-7000Y91720D02*
X-54780D01*
Y-124660D01*
X46500D01*
Y-793090D01*
X-5940D01*
G01X291720Y492500D02*
Y223000D01*
X246500D01*
Y-642340D01*
G01X296500Y-793090D02*
Y-493060D01*
G01X191720Y596500D02*
Y643000D01*
X146000D01*
Y838220D01*
X191720D01*
Y892500D01*
G01X553550Y696500D02*
Y176500D01*
G01X5720Y1291720D02*
Y1884240D01*
G01X193000Y1103500D02*
Y1150000D01*
X153500D01*
Y1799620D01*
X276500D01*
Y2404220D01*
X751070D01*
G01X76500Y1682630D02*
Y2420190D01*
G01X284000Y2700000D02*
Y2858700D01*
X1398700D01*
Y2005200D01*
X1341300D01*
G01X1254160Y2231340D02*
X1174700D01*
Y2798700D01*
X538000D01*
Y2700000D01*
G01X852340Y996500D02*
Y1219510D01*
X868840D01*
Y1750200D01*
X838840D01*
Y2480720D01*
X185300D01*
Y2965210D01*
X238000D01*
Y3173000D01*
G01X970350Y-44500D02*
Y1846140D01*
X868840D01*
Y2527220D01*
X293000D01*
G01X1470000Y-967840D02*
X1371300D01*
Y1958700D01*
X1428700D01*
Y2968200D01*
X492000D01*
G01X684150Y-3196600D02*
X730650D01*
Y-3206640D01*
X980540D01*
G01X730650Y-2486000D02*
X1216350D01*
Y-1826560D01*
G01X801350Y-2160500D02*
X847850D01*
Y-2153500D01*
X1098340D01*
Y-2063150D01*
G01Y-1916500D02*
Y-1553500D01*
X1598700D01*
Y3173000D01*
X1000000D01*
G01X1014670Y-1387000D02*
X1063350D01*
Y2141700D01*
X1046000D01*
Y2700000D01*
G01X1207660Y-1600000D02*
X1692340D01*
G01X801910Y-1178040D02*
X868840D01*
Y437000D01*
X815590D01*
G01X898840Y1043000D02*
Y-1437000D01*
X801910D01*
G01X1014660Y-1264000D02*
Y-189140D01*
X970350D01*
Y-44500D01*
G01X1016850Y1159500D02*
Y1898700D01*
X945380D01*
Y1990720D01*
G01X1475000Y-3056050D02*
Y-3299640D01*
X1633060D01*
G01X1918200Y-3612460D02*
Y-3136460D01*
X1901700D01*
Y-3089960D01*
G01X1876000Y-1780060D02*
Y-1826560D01*
X1855200D01*
Y-3612460D01*
G01X1507660Y-1646500D02*
X2292340D01*
Y-1600000D01*
G01X1575000Y-2267450D02*
X1507660D01*
Y-1646500D01*
G01X4200000Y3200000D02*
X1969000D01*
Y-427650D01*
G01X1783000Y2831780D02*
Y-713340D01*
X1777000D01*
Y-759840D01*
G01X1876000Y1703700D02*
Y121220D01*
G01X2114810Y1656460D02*
Y1453700D01*
X2817720D01*
Y-3542200D01*
X2655910D01*
G01X1846000Y2465000D02*
Y2718000D01*
G01X4200000Y2692000D02*
Y2823840D01*
X2100000D01*
G01X1900000Y2595000D02*
Y2823840D01*
G01X2100000Y3545500D02*
Y3375510D01*
X1900000D01*
G01X2962560Y-5695400D02*
Y-5529110D01*
X2456020D01*
Y-4388000D01*
X2292870D01*
Y-4087480D01*
X2363360D01*
Y-3997480D01*
X2452190D01*
Y-3847460D01*
X2607660D01*
Y-1700000D01*
G01X2267660Y-3795700D02*
X2314160D01*
Y-3787460D01*
X2538840D01*
Y-2143500D01*
X2498170D01*
Y-235640D01*
G01X2658850Y-3479200D02*
Y121220D01*
G01X2377160Y-3672700D02*
Y-2149560D01*
X2377150D01*
Y-2103060D01*
G01X2771220Y-3368340D02*
Y197720D01*
X2470150D01*
Y74720D01*
G01X3240500Y3250000D02*
X2778700D01*
G01X2268550Y3849810D02*
Y3386000D01*
G54D13*
X-3932000Y3173000D03*
Y3300000D03*
X-3170000Y3173000D03*
X-3297000D03*
X-3424000D03*
X-3551000D03*
X-3678000D03*
X-3805000D03*
Y3300000D03*
X-3678000D03*
X-3551000D03*
X-3424000D03*
X-3297000D03*
X-3170000D03*
X-2408000Y3173000D03*
X-2535000D03*
X-2662000D03*
X-2789000D03*
X-2916000D03*
X-3043000D03*
Y3300000D03*
X-2916000D03*
X-2789000D03*
X-2662000D03*
X-2535000D03*
X-2408000D03*
X-1900000Y3173000D03*
X-2027000D03*
X-2154000D03*
X-2281000D03*
Y3300000D03*
X-2154000D03*
X-2027000D03*
X-1900000D03*
X-905000Y3173000D03*
X-1032000D03*
Y3300000D03*
X-905000D03*
X-143000Y3173000D03*
X-270000D03*
X-397000D03*
X-524000D03*
X-651000D03*
X-778000D03*
Y3300000D03*
X-651000D03*
X-524000D03*
X-397000D03*
X-270000D03*
X-143000D03*
X619000Y3173000D03*
X492000D03*
X365000D03*
X238000D03*
X111000D03*
X-16000D03*
Y3300000D03*
X111000D03*
X238000D03*
X365000D03*
X492000D03*
X619000D03*
X1000000Y3173000D03*
X873000D03*
X746000D03*
Y3300000D03*
X873000D03*
X1000000D03*
G54D23*
G01X-4289500Y-5690670D02*
X-4280170Y-5696500D01*
X-4269670Y-5700000D01*
X-4260330D01*
X-4251000Y-5696500D01*
X-4244000Y-5690670D01*
X-4240500Y-5682500D01*
X-4242830Y-5674330D01*
X-4248670Y-5667330D01*
X-4259170Y-5662670D01*
X-4273170Y-5660330D01*
X-4281330Y-5655670D01*
X-4284830Y-5647500D01*
X-4282500Y-5639330D01*
X-4276670Y-5633500D01*
X-4268500Y-5630000D01*
X-4260330D01*
X-4252170Y-5632330D01*
X-4245170Y-5638170D01*
G01X-4166000Y-5723330D02*
Y-5653330D01*
G01Y-5663830D02*
X-4160170Y-5658000D01*
X-4154330Y-5654500D01*
X-4145000Y-5653330D01*
X-4136830Y-5654500D01*
X-4128670Y-5660330D01*
X-4125170Y-5668500D01*
X-4124000Y-5676670D01*
X-4125170Y-5684830D01*
X-4128670Y-5693000D01*
X-4135670Y-5697670D01*
X-4145000Y-5700000D01*
X-4153170Y-5698830D01*
X-4161330Y-5695330D01*
X-4166000Y-5690670D01*
G01X-4025000Y-5653330D02*
Y-5700000D01*
G01Y-5634670D02*
X-4027330Y-5633500D01*
Y-5631170D01*
X-4025000Y-5630000D01*
X-4022670Y-5631170D01*
Y-5633500D01*
X-4025000Y-5634670D01*
G01X-3931830Y-5700000D02*
Y-5630000D01*
X-3878170Y-5700000D01*
Y-5630000D01*
G01X-3811830Y-5700000D02*
Y-5630000D01*
X-3758170Y-5700000D01*
Y-5630000D01*
G01X-3680170Y-5676670D02*
X-3649830D01*
G01X-3570670Y-5686000D02*
X-3563670Y-5694170D01*
X-3554330Y-5698830D01*
X-3543830Y-5700000D01*
X-3534500Y-5698830D01*
X-3525170Y-5693000D01*
X-3519330Y-5686000D01*
X-3518170Y-5679000D01*
X-3520500Y-5670840D01*
X-3528670Y-5665000D01*
X-3536830Y-5662670D01*
X-3547330D01*
G01X-3536830D02*
X-3529830Y-5659170D01*
X-3524000Y-5653330D01*
X-3521670Y-5646330D01*
X-3524000Y-5639330D01*
X-3529830Y-5633500D01*
X-3540330Y-5630000D01*
X-3550830Y-5631170D01*
X-3561330Y-5635830D01*
G01X-3460000Y-5723330D02*
X-3390000D01*
G01X-3328330Y-5630000D02*
Y-5700000D01*
X-3281670D01*
G01X-3210670Y-5689500D02*
X-3203670Y-5695330D01*
X-3195500Y-5698830D01*
X-3185000Y-5700000D01*
X-3174500Y-5697670D01*
X-3166330Y-5693000D01*
X-3160500Y-5684830D01*
X-3159330Y-5675500D01*
X-3161670Y-5666170D01*
X-3167500Y-5660330D01*
X-3175670Y-5655670D01*
X-3183830Y-5654500D01*
X-3192000Y-5655670D01*
X-3202500Y-5660330D01*
X-3199000Y-5630000D01*
X-3167500D01*
G54D14*
X-100000Y-5235000D03*
Y-4600000D03*
X408000Y-4917500D03*
G54D15*
X2187220Y-3197860D03*
Y-2771140D03*
Y-2529840D03*
X3500000Y-1732280D03*
G54D16*
X2195000Y-600000D03*
Y352500D03*
X4100000Y35000D03*
Y-282500D03*
Y-600000D03*
Y352500D03*
G54D17*
X1473000Y-500940D03*
X1727000Y-199060D03*
Y-699060D03*
X1473000Y-940D03*
G54D18*
X2962560Y-5695400D03*
X2708560D03*
X3780440D03*
X4034440D03*
G54D19*
X2800000Y-5289000D03*
X3943000D03*
M02*
