G04 ================== begin FILE IDENTIFICATION RECORD ==================*
G04 Layout Name:  /home/amu4/spinnaker/PCB/spinnaker2_test_pcb_lib/bunnybot/physical/bunny15.brd*
G04 Film Name:    VCC1V8*
G04 File Format:  Gerber RS274X*
G04 File Origin:  16.01-S5*
G04 Origin Date:  Fri Oct  7 14:45:45 2011*
G04 *
G04 Layer:  ETCH/VCC1V8*
G04 Layer:  PIN/VCC1V8*
G04 Layer:  VIA CLASS/VCC1V8*
G04 *
G04 Offset:    (0.0000 0.0000)*
G04 Mirror:    No*
G04 Mode:      Negative*
G04 Rotation:  0*
G04 FullContactRelief:  No*
G04 UndefLineWidth:     0.0000*
G04 ================== end FILE IDENTIFICATION RECORD ====================*
%FSLAX55Y55*MOMM*%
%IR0*IPPOS*OFA0.00000B0.00000*MIA0B0*SFA1.00000B1.00000*%
%ADD15C,.55*%
%ADD16C,.55*%
%ADD10C,.48*%
%ADD11C,.48*%
%ADD14C,.9144*%
%ADD12C,1.524*%
%ADD17C,1.905*%
%ADD19C,2.5908*%
%ADD18C,3.7592*%
%ADD13C,3.9878*%
%ADD20C,.2*%
%ADD21C,.25*%
%ADD29C,.8504*%
%ADD22C,.7804*%
%ADD30C,1.2148*%
%ADD25C,2.3832*%
%ADD23C,1.8244*%
%ADD26C,4.0596*%
%ADD24C,4.2882*%
%ADD27C,1.6974*%
%ADD28C,2.9674*%
G75*
%LPD*%
G75*
G36*
G01X-5754000Y-6254000D02*
X5754000D01*
Y4254000D01*
X-5754000D01*
Y-6254000D01*
G37*
%LPC*%
G75*
G36*
G01X-2899970Y-5899990D02*
Y-5399970D01*
X-4399990D01*
Y-4300000D01*
X2736300D01*
G02X2745300Y-4327000I1J-15000D01*
G03X2854700I54700J-73000D01*
G02X2863700Y-4300000I8999J12000D01*
G01X2990300D01*
G02X2999300Y-4327000I1J-15000D01*
G03X3108700I54700J-73000D01*
G02X3117700Y-4300000I8999J12000D01*
G01X3244300D01*
G02X3253300Y-4327000I1J-15000D01*
G03X3362700I54700J-73000D01*
G02X3371700Y-4300000I8999J12000D01*
G01X3498300D01*
G02X3507300Y-4327000I1J-15000D01*
G03X3616700I54700J-73000D01*
G02X3625700Y-4300000I8999J12000D01*
G01X3752300D01*
G02X3761300Y-4327000I1J-15000D01*
G03X3870700I54700J-73000D01*
G02X3879700Y-4300000I8999J12000D01*
G01X4399990D01*
Y-5899990D01*
X-2899970D01*
G37*
G36*
G01X-4399990Y-3900000D02*
Y3899990D01*
X2227560D01*
G02X2238940Y3875220I-3J-15000D01*
G03X2298160I29610J-25410D01*
G02X2309540Y3899990I11383J9770D01*
G01X4399990D01*
Y-3900000D01*
X-4399990D01*
G37*
%LPD*%
G75*
G36*
G01X2437410Y-5699470D02*
G02X2381630I-27890J-27290D01*
G03Y-5678480I-10716J10495D01*
G02X2381640Y-5623890I27890J27290D01*
G03Y-5602910I-10721J10490D01*
G02X2381630Y-5548320I27880J27300D01*
G03Y-5527330I-10716J10495D01*
G02X2376990Y-5521590I27890J27290D01*
G03X2351990I-12500J-8290D01*
G02X2286930I-32530J21550D01*
G03X2261920I-12505J-8283D01*
G02X2196860I-32530J21550D01*
G03X2171860I-12500J-8290D01*
G02X2106800I-32530J21550D01*
G03X2081790I-12505J-8283D01*
G02Y-5478490I-32530J21550D01*
G03X2106800I12505J8283D01*
G02X2171860I32530J-21550D01*
G03X2196860I12500J8290D01*
G02X2261920I32530J-21550D01*
G03X2286930I12505J8283D01*
G02X2351990I32530J-21550D01*
G03X2376990I12500J8290D01*
G02X2437410Y-5527330I32529J-21551D01*
G03Y-5548320I10716J-10495D01*
G02X2437400Y-5602910I-27890J-27290D01*
G03Y-5623890I10721J-10490D01*
G02X2437410Y-5678480I-27880J-27300D01*
G03Y-5699470I10716J-10495D01*
G37*
G36*
G01X-1352430Y3410460D02*
G02X-1375130Y3373130I16277J-35464D01*
G03X-1396370Y3386040I-14981J-720D01*
G02X-1373670Y3423370I-16277J35464D01*
G03X-1352430Y3410460I14981J720D01*
G37*
G36*
G01X-980040Y3129880D02*
G02X-1075120Y3224960I-51960J43120D01*
G03Y3248040I-9580J11540D01*
G02X-980040Y3343120I43120J51960D01*
G03X-956960I11540J9580D01*
G02X-853040I51960J-43120D01*
G03X-829960I11540J9580D01*
G02X-726040I51960J-43120D01*
G03X-702960I11540J9580D01*
G02X-599040I51960J-43120D01*
G03X-575960I11540J9580D01*
G02X-472040I51960J-43120D01*
G03X-448960I11540J9580D01*
G02X-345040I51960J-43120D01*
G03X-321960I11540J9580D01*
G02X-218040I51960J-43120D01*
G03X-194960I11540J9580D01*
G02X-91040I51960J-43120D01*
G03X-67960I11540J9580D01*
G02X35960I51960J-43120D01*
G03X59040I11540J9580D01*
G02X162960I51960J-43120D01*
G03X186040I11540J9580D01*
G02X289960I51960J-43120D01*
G03X313040I11540J9580D01*
G02X416960I51960J-43120D01*
G03X440040I11540J9580D01*
G02X543960I51960J-43120D01*
G03X567040I11540J9580D01*
G02X670960I51960J-43120D01*
G03X694040I11540J9580D01*
G02X797960I51960J-43120D01*
G03X821040I11540J9580D01*
G02X924960I51960J-43120D01*
G03X948040I11540J9580D01*
G02X1043120Y3248040I51960J-43120D01*
G03Y3224960I9580J-11540D01*
G02X948040Y3129880I-43120J-51960D01*
G03X924960I-11540J-9580D01*
G02X821040I-51960J43120D01*
G03X797960I-11540J-9580D01*
G02X694040I-51960J43120D01*
G03X670960I-11540J-9580D01*
G02X567040I-51960J43120D01*
G03X543960I-11540J-9580D01*
G02X440040I-51960J43120D01*
G03X416960I-11540J-9580D01*
G02X313040I-51960J43120D01*
G03X289960I-11540J-9580D01*
G02X186040I-51960J43120D01*
G03X162960I-11540J-9580D01*
G02X59040I-51960J43120D01*
G03X35960I-11540J-9580D01*
G02X-67960I-51960J43120D01*
G03X-91040I-11540J-9580D01*
G02X-194960I-51960J43120D01*
G03X-218040I-11540J-9580D01*
G02X-321960I-51960J43120D01*
G03X-345040I-11540J-9580D01*
G02X-448960I-51960J43120D01*
G03X-472040I-11540J-9580D01*
G02X-575960I-51960J43120D01*
G03X-599040I-11540J-9580D01*
G02X-702960I-51960J43120D01*
G03X-726040I-11540J-9580D01*
G02X-829960I-51960J43120D01*
G03X-853040I-11540J-9580D01*
G02X-956960I-51960J43120D01*
G03X-980040I-11540J-9580D01*
G37*
G36*
G01X-3880040D02*
G02X-3975120Y3224960I-51960J43120D01*
G03Y3248040I-9580J11540D01*
G02X-3880040Y3343120I43120J51960D01*
G03X-3856960I11540J9580D01*
G02X-3753040I51960J-43120D01*
G03X-3729960I11540J9580D01*
G02X-3626040I51960J-43120D01*
G03X-3602960I11540J9580D01*
G02X-3499040I51960J-43120D01*
G03X-3475960I11540J9580D01*
G02X-3372040I51960J-43120D01*
G03X-3348960I11540J9580D01*
G02X-3245040I51960J-43120D01*
G03X-3221960I11540J9580D01*
G02X-3118040I51960J-43120D01*
G03X-3094960I11540J9580D01*
G02X-2991040I51960J-43120D01*
G03X-2967960I11540J9580D01*
G02X-2864040I51960J-43120D01*
G03X-2840960I11540J9580D01*
G02X-2737040I51960J-43120D01*
G03X-2713960I11540J9580D01*
G02X-2610040I51960J-43120D01*
G03X-2586960I11540J9580D01*
G02X-2483040I51960J-43120D01*
G03X-2459960I11540J9580D01*
G02X-2356040I51960J-43120D01*
G03X-2332960I11540J9580D01*
G02X-2229040I51960J-43120D01*
G03X-2205960I11540J9580D01*
G02X-2102040I51960J-43120D01*
G03X-2078960I11540J9580D01*
G02X-1975040I51960J-43120D01*
G03X-1951960I11540J9580D01*
G02X-1856880Y3248040I51960J-43120D01*
G03Y3224960I9580J-11540D01*
G02X-1951960Y3129880I-43120J-51960D01*
G03X-1975040I-11540J-9580D01*
G02X-2078960I-51960J43120D01*
G03X-2102040I-11540J-9580D01*
G02X-2205960I-51960J43120D01*
G03X-2229040I-11540J-9580D01*
G02X-2332960I-51960J43120D01*
G03X-2356040I-11540J-9580D01*
G02X-2459960I-51960J43120D01*
G03X-2483040I-11540J-9580D01*
G02X-2586960I-51960J43120D01*
G03X-2610040I-11540J-9580D01*
G02X-2713960I-51960J43120D01*
G03X-2737040I-11540J-9580D01*
G02X-2840960I-51960J43120D01*
G03X-2864040I-11540J-9580D01*
G02X-2967960I-51960J43120D01*
G03X-2991040I-11540J-9580D01*
G02X-3094960I-51960J43120D01*
G03X-3118040I-11540J-9580D01*
G02X-3221960I-51960J43120D01*
G03X-3245040I-11540J-9580D01*
G02X-3348960I-51960J43120D01*
G03X-3372040I-11540J-9580D01*
G02X-3475960I-51960J43120D01*
G03X-3499040I-11540J-9580D01*
G02X-3602960I-51960J43120D01*
G03X-3626040I-11540J-9580D01*
G02X-3729960I-51960J43120D01*
G03X-3753040I-11540J-9580D01*
G02X-3856960I-51960J43120D01*
G03X-3880040I-11540J-9580D01*
G37*
G36*
G01X-1206610Y2855530D02*
G02X-1237530Y2830190I5782J-38589D01*
G03X-1253870Y2850110I-14111J5086D01*
G02X-1222950Y2875450I-5782J38589D01*
G03X-1206610Y2855530I14111J-5086D01*
G37*
G36*
G01X-1993850Y2658180D02*
G02X-2023510Y2615340I9053J-37955D01*
G03X-2047100Y2625690I-14885J-1869D01*
G02X-2037220Y2766180I-52901J74313D01*
G03X-2015210Y2767670I10318J10887D01*
G02X-1991630Y2704800I30410J-24452D01*
G03X-2009180Y2691440I-2618J-14768D01*
G02X-2011830Y2676610I-90817J8576D01*
G03X-1993850Y2658180I14498J-3841D01*
G37*
G36*
G01X-2650550Y2598500D02*
G02X-2699590Y2638980I-38918J2797D01*
G03X-2690000Y2660040I-3895J14487D01*
G02X-2631690Y2611910I82002J39959D01*
G03X-2650550Y2598500I-3899J-14484D01*
G37*
G36*
G01X-3044840Y2617160D02*
G02X-3105120Y2591340I-21810J-32358D01*
G03X-3119350Y2608840I-14787J2512D01*
G02X-3047690Y2639540I3352J91160D01*
G03X-3044840Y2617160I11229J-9941D01*
G37*
G36*
G01X-994470Y2521400D02*
G02X-1020370Y2554650I-38860J-3558D01*
G03X-1000460Y2570160I4975J14148D01*
G02X-996930Y2590280I38858J3552D01*
G03X-1007050Y2611240I-13582J6365D01*
G02X-1076920Y2692580I21049J88760D01*
G03X-1096070Y2705760I-14949J-1218D01*
G02X-1074810Y2765280I-10928J37460D01*
G03X-1051640Y2763340I12376J8475D01*
G02X-933400Y2625470I65643J-63341D01*
G03X-934980Y2602250I8651J-12252D01*
G02X-974560Y2536910I-26618J-28534D01*
G03X-994470Y2521400I-4975J-14148D01*
G37*
G36*
G01X-1552130Y2463860D02*
G02X-1591170Y2424820I-20J-39020D01*
G03X-1598670Y2432320I-7500J0D01*
G02X-1559630Y2471360I20J39020D01*
G03X-1552130Y2463860I7500J0D01*
G37*
G36*
G01X-3528430Y2307740D02*
G02X-3574230Y2310900I-25072J-29900D01*
G03X-3572570Y2335100I-7974J12704D01*
G02X-3526770Y2331940I25072J29900D01*
G03X-3528430Y2307740I7974J-12704D01*
G37*
G36*
G01X-3674180Y2180000D02*
G02X-3706110Y2223260I-38718J4836D01*
G03X-3688610Y2236180I2614J14771D01*
G02X-3656680Y2192920I38718J-4836D01*
G03X-3674180Y2180000I-2614J-14771D01*
G37*
G36*
G01X3327090Y2021910D02*
G02Y2078090I-27090J28090D01*
G03X3347910I10410J10793D01*
G02X3402090I27090J-28090D01*
G03X3422910I10410J10793D01*
G02Y2021910I27090J-28090D01*
G03X3402090I-10410J-10793D01*
G02X3347910I-27090J28090D01*
G03X3327090I-10410J-10793D01*
G37*
G36*
G01X-3414500Y1967500D02*
G02X-3453500Y2007860I-39000J1337D01*
G01X-3446250D01*
X-3446000Y2015100D01*
G02X-3407000Y1974740I39000J-1337D01*
G01X-3414250D01*
X-3414500Y1967500D01*
G37*
G36*
G01X991890Y1984220D02*
G02X952870Y1944360I-9J-39020D01*
G03X945370Y1951700I-7499J-160D01*
G02X922550Y2022370I7J39022D01*
G03Y2046690I-8774J12160D01*
G02X968210I22830J31650D01*
G03Y2022370I8774J-12160D01*
G02X984390Y1991560I-22832J-31644D01*
G03X991890Y1984220I7499J160D01*
G37*
G36*
G01X-1273370Y1929870D02*
G02X-1328400Y1928110I-26631J-28520D01*
G03X-1328740Y1938740I-5455J5146D01*
G02X-1340760Y1961930I26633J28515D01*
G03X-1354560Y1974840I-14861J-2054D01*
G02X-1313150Y2019090I2758J38920D01*
G03X-1299350Y2006180I14861J2054D01*
G02X-1273710Y1940500I-2760J-38922D01*
G03X-1273370Y1929870I5455J-5146D01*
G37*
G36*
G01X-2482200Y1936070D02*
G02X-2536830Y1914230I-17800J-34721D01*
G03X-2544150Y1932540I-14159J4958D01*
G02X-2489520Y1954380I17800J34721D01*
G03X-2482200Y1936070I14159J-4958D01*
G37*
G36*
G01X-901500Y1934260D02*
G02X-936790Y1908280I1497J-38992D01*
G03X-951500Y1928270I-14141J5001D01*
G02X-916210Y1954250I-1497J38992D01*
G03X-901500Y1934260I14141J-5001D01*
G37*
G36*
G01X3327090Y1826830D02*
G02Y1883010I-27090J28090D01*
G03X3347910I10410J10793D01*
G02X3402090I27090J-28090D01*
G03X3422910I10410J10793D01*
G02Y1826830I27090J-28090D01*
G03X3402090I-10410J-10793D01*
G02X3347910I-27090J28090D01*
G03X3327090I-10410J-10793D01*
G37*
G36*
G01X-2016530Y1797220D02*
G02X-2079040Y1752320I-27476J-27711D01*
G03X-2096530Y1760170I-13468J-6599D01*
G02X-2101560Y1836400I-10468J37590D01*
G03X-2084590Y1849310I2096J14853D01*
G02X-2017060Y1817970I38692J-5053D01*
G03X-2016530Y1797220I11087J-10099D01*
G37*
G36*
G01X-1064500Y1722960D02*
G02X-1108910Y1762810I-39000J1208D01*
G03X-1095990Y1777210I-2074J14857D01*
G02X-1051580Y1737360I39000J-1208D01*
G03X-1064500Y1722960I2074J-14857D01*
G37*
G36*
G01X-1515340Y1727420D02*
G02X-1593130Y1723020I-38770J-4417D01*
G03X-1600310Y1730510I-7498J-2D01*
G02X-1568700Y1794500I1651J38987D01*
G03X-1543420Y1798160I11513J9614D01*
G02X-1502430Y1743990I35809J-15497D01*
G03X-1515340Y1727420I1994J-14868D01*
G37*
G36*
G01X2620650Y1708110D02*
G02X2579350I-20650J-33110D01*
G03Y1733560I-7938J12725D01*
G02X2579340Y1799770I20650J33108D01*
G03Y1825230I-7936J12730D01*
G02X2579350Y1891440I20660J33102D01*
G03Y1916890I-7938J12725D01*
G02X2627090Y1978090I20659J33105D01*
G03X2647910I10410J10793D01*
G02X2702090I27090J-28090D01*
G03X2722910I10410J10793D01*
G02X2770650Y1916890I27081J-28095D01*
G03Y1891440I7938J-12725D01*
G02X2770660Y1825230I-20650J-33108D01*
G03Y1799770I7936J-12730D01*
G02X2770650Y1733560I-20660J-33102D01*
G03Y1708110I7938J-12725D01*
G02X2729350I-20650J-33110D01*
G03Y1733560I-7938J12725D01*
G02X2729340Y1799770I20650J33108D01*
G03Y1825230I-7936J12730D01*
G02X2729350Y1891440I20660J33102D01*
G03Y1916890I-7938J12725D01*
G02X2722910Y1921910I20639J33118D01*
G03X2702090I-10410J-10793D01*
G02X2647910I-27090J28090D01*
G03X2627090I-10410J-10793D01*
G02X2620650Y1916890I-27079J28098D01*
G03Y1891440I7938J-12725D01*
G02X2620660Y1825230I-20650J-33108D01*
G03Y1799770I7936J-12730D01*
G02X2620650Y1733560I-20660J-33102D01*
G03Y1708110I7938J-12725D01*
G37*
G36*
G01X-2469370Y1664150D02*
G02X-2529610Y1663450I-29832J-25151D01*
G03X-2529830Y1682510I-11693J9396D01*
G02X-2469590Y1683210I29832J25151D01*
G03X-2469370Y1664150I11693J-9396D01*
G37*
G36*
G01X820870Y1626620D02*
G02X763810I-28530J-26620D01*
G03Y1647080I-10970J10230D01*
G02X820870I28530J26620D01*
G03Y1626620I10970J-10230D01*
G37*
G36*
G01X-4255180Y1611900D02*
G02X-4306250Y1636460I-37163J-11898D01*
G03X-4297310Y1655040I-5347J14014D01*
G02X-4246240Y1630480I37163J11898D01*
G03X-4255180Y1611900I5347J-14014D01*
G37*
G36*
G01X-1000250Y1637990D02*
G02X-1042160Y1593810I-3252J-38883D01*
G03X-1055770Y1606730I-14863J-2028D01*
G02X-1013860Y1650910I3252J38883D01*
G03X-1000250Y1637990I14863J2028D01*
G37*
G36*
G01X-2114860Y1544440D02*
G02X-2147960Y1577620I-38637J-5444D01*
G03X-2130980Y1594560I2125J14850D01*
G02X-2097880Y1561380I38637J5444D01*
G03X-2114860Y1544440I-2125J-14850D01*
G37*
G36*
G01X2177250Y1649420D02*
G02X2142250Y1599930I52747J-74424D01*
G03X2124210Y1618590I-14427J4102D01*
G02X2153650Y1660220I-9399J37871D01*
G03X2177250Y1649420I14930J1440D01*
G37*
G36*
G01X-1464460Y1319460D02*
G02X-1536250Y1346900I-33479J20042D01*
G03X-1547750Y1364390I-14728J2842D01*
G02X-1501050Y1395100I8387J38108D01*
G03X-1489550Y1377610I14728J-2842D01*
G02X-1478580Y1373380I-8394J-38108D01*
G03X-1468420Y1376040I3724J6510D01*
G02X-1454300Y1322120I33480J-20041D01*
G03X-1464460Y1319460I-3724J-6510D01*
G37*
G36*
G01X-2153790Y1214740D02*
G02X-2182700Y1264630I-37208J11760D01*
G03X-2165210Y1274760I3191J14654D01*
G02X-2136300Y1224870I37208J-11760D01*
G03X-2153790Y1214740I-3191J-14654D01*
G37*
G36*
G01X-682120Y1234680D02*
G02X-722930Y1231570I-17881J-34681D01*
G03X-724880Y1257040I-8820J12134D01*
G02X-684070Y1260150I17881J34681D01*
G03X-682120Y1234680I8820J-12134D01*
G37*
G36*
G01X-1869230Y1206790D02*
G02X-1912500Y1238720I-38427J-6790D01*
G03X-1899590Y1256210I-1859J14882D01*
G02X-1856320Y1224280I38427J6790D01*
G03X-1869230Y1206790I1859J-14882D01*
G37*
G36*
G01X-3382580Y1234920D02*
G02X-3422470Y1231900I-17416J-34919D01*
G03X-3424420Y1257580I-8644J12258D01*
G02X-3384530Y1260600I17416J34919D01*
G03X-3382580Y1234920I8644J-12258D01*
G37*
G36*
G01X-3856190Y1176360D02*
G02X-3863520Y1219470I-35529J16137D01*
G03X-3839030Y1223640I10834J10372D01*
G02X-3831700Y1180530I35529J-16137D01*
G03X-3856190Y1176360I-10834J-10372D01*
G37*
G36*
G01X-2336540Y1217790D02*
G02X-2339300Y1169110I29039J-26065D01*
G03X-2362680Y1170430I-12218J-8699D01*
G02X-2359920Y1219110I-29039J26065D01*
G03X-2336540Y1217790I12218J8699D01*
G37*
G36*
G01X319790Y1140030D02*
G02X271990Y1136360I-21543J-32531D01*
G03X270180Y1159970I-10091J11101D01*
G02X317980Y1163640I21543J32531D01*
G03X319790Y1140030I10091J-11101D01*
G37*
G36*
G01X-2106660Y1050020D02*
G02X-2184700Y1050010I-39020J-20D01*
G03X-2191930Y1057500I-7498J-4D01*
G02X-2158250Y1118400I1388J38996D01*
G03X-2133420I12415J8425D01*
G02X-2099480Y1057510I32292J-21904D01*
G03X-2106660Y1050020I318J-7492D01*
G37*
G36*
G01X-3682520Y1032370D02*
G02X-3724520Y1037500I-24975J-29980D01*
G03X-3721470Y1062520I-6549J13494D01*
G02X-3679470Y1057390I24975J29980D01*
G03X-3682520Y1032370I6549J-13494D01*
G37*
G36*
G01X891360Y996480D02*
G02X852320Y1035520I-39020J20D01*
G03X859820Y1043020I0J7500D01*
G02X898860Y1003980I39020J-20D01*
G03X891360Y996480I0J-7500D01*
G37*
G36*
G01X-2364310Y969670D02*
G02X-2364410Y1013910I-32191J22047D01*
G03X-2339690Y1013970I12339J8533D01*
G02X-2339590Y969730I32191J-22047D01*
G03X-2364310Y969670I-12339J-8533D01*
G37*
G36*
G01X569780Y947820D02*
G02X546420Y985770I-38960J2183D01*
G03X567390Y998680I5995J13748D01*
G02X590750Y960730I38960J-2183D01*
G03X569780Y947820I-5995J-13748D01*
G37*
G36*
G01X-1303430Y941180D02*
G02X-1356570I-26570J-28570D01*
G03Y963150I-10220J10985D01*
G02X-1303430I26570J28570D01*
G03Y941180I10220J-10985D01*
G37*
G36*
G01X-1180970Y935360D02*
G02X-1226030I-22530J-31860D01*
G03Y959860I-8654J12250D01*
G02X-1180970I22530J31860D01*
G03Y935360I8654J-12250D01*
G37*
G36*
G01X-975760Y834950D02*
G02X-1022730Y841460I-27739J-27441D01*
G03X-1019460Y865060I-7395J13051D01*
G02X-972490Y858550I27739J27441D01*
G03X-975760Y834950I7395J-13051D01*
G37*
G36*
G01X-2827780Y788640D02*
G02X-2897090Y786140I-34010J-19136D01*
G03X-2909990Y807520I-13567J6396D01*
G02X-2872980Y829860I1716J38983D01*
G03X-2860080Y808480I13567J-6396D01*
G02X-2843560Y804000I-1704J-38982D01*
G03X-2836070Y816980I3489J6638D01*
G02X-2814870Y810990I20779J33029D01*
G03X-2827780Y788640I160J-14996D01*
G37*
G36*
G01X839650Y692010D02*
G02X804440Y671410I-808J-39010D01*
G03X791530Y693490I-13225J7082D01*
G02X765570Y760890I810J39011D01*
G03X768070Y779630I-10294J10910D01*
G02X828120Y771610I33281J20370D01*
G03X825620Y752870I10294J-10910D01*
G02X826740Y714090I-33281J-20367D01*
G03X839650Y692010I13225J-7082D01*
G37*
G36*
G01X606170Y688950D02*
G02X565210Y644640I-2310J-38951D01*
G03X551240Y657550I-14858J-2064D01*
G02X514530Y696730I2309J38951D01*
G03X502160Y711580I-14998J84D01*
G02X488840Y783410I6838J38418D01*
G03Y809090I-7752J12840D01*
G02X529160I20160J33410D01*
G03Y783410I7752J-12840D01*
G02X548020Y749770I-20160J-33409D01*
G03X560390Y734920I14998J-84D01*
G02X592200Y701860I-6842J-38417D01*
G03X606170Y688950I14858J2064D01*
G37*
G36*
G01X-1898430Y661620D02*
G02X-1931330Y616560I5587J-38620D01*
G03X-1948270Y628930I-14792J-2473D01*
G02X-1978470Y697830I-5591J38618D01*
G03X-1974440Y716020I-9464J11638D01*
G02X-1914730Y702780I35101J17040D01*
G03X-1918760Y684590I9464J-11638D01*
G02X-1915370Y673990I-35092J-17065D01*
G03X-1898430Y661620I14792J2473D01*
G37*
G36*
G01X-1326270Y655020D02*
G02X-1346240Y596920I12770J-36871D01*
G03X-1363730Y602930I-12583J-8165D01*
G02X-1343760Y661030I-12770J36871D01*
G03X-1326270Y655020I12583J8165D01*
G37*
G36*
G01X-2466410Y587640D02*
G02Y627360I-33590J19860D01*
G03X-2440590I12910J7633D01*
G02Y587640I33590J-19860D01*
G03X-2466410I-12910J-7633D01*
G37*
G36*
G01X-173040Y629920D02*
G02X-229080Y620820I-23730J-30972D01*
G03X-230730Y630980I-6214J4205D01*
G02X-201780Y700620I23733J30971D01*
G03X-184980Y712990I2010J14864D01*
G02X-151720Y667840I38479J-6480D01*
G03X-168520Y655470I-2010J-14864D01*
G02X-174690Y640080I-38475J6493D01*
G03X-173040Y629920I6214J-4205D01*
G37*
G36*
G01X-1636770Y564410D02*
G02X-1692050Y619420I-26560J28590D01*
G03Y629570I-5519J5075D01*
G02X-1624940Y649080I28708J26429D01*
G03X-1607440Y631670I14761J-2663D01*
G02X-1604550Y632090I7053J-38378D01*
G03X-1591170Y647250I-1620J14914D01*
G02X-1547940Y609110I39013J650D01*
G03X-1561320Y593950I1620J-14914D01*
G02X-1626610Y564460I-39012J-648D01*
G03X-1636770Y564410I-5053J-5542D01*
G37*
G36*
G01X-2840700Y515700D02*
G02X-2850450Y571530I-31300J23300D01*
G03X-2840300Y573300I4139J6254D01*
G02X-2830550Y517470I31300J-23300D01*
G03X-2840700Y515700I-4139J-6254D01*
G37*
G36*
G01X-2579380Y541410D02*
G02X-2620620I-20620J-33130D01*
G03Y566870I-7928J12730D01*
G02X-2579380I20620J33130D01*
G03Y541410I7928J-12730D01*
G37*
G36*
G01X-3167990Y499730D02*
G02X-3212430Y537640I-39012J-729D01*
G03X-3199510Y552770I-2078J14856D01*
G02X-3155070Y514860I39012J729D01*
G03X-3167990Y499730I2078J-14856D01*
G37*
G36*
G01X-2979190Y521010D02*
G02X-3037370I-29090J-26010D01*
G03Y541000I-11181J9995D01*
G02X-2979190I29090J26010D01*
G03Y521010I11181J-9995D01*
G37*
G36*
G01X837010Y469610D02*
G02X782220Y457230I-21425J-32611D01*
G03X779930Y467390I-6411J3893D01*
G02X834720Y479770I21425J32611D01*
G03X837010Y469610I6411J-3893D01*
G37*
G36*
G01X-1550900Y415190D02*
G02X-1584520Y371400I5063J-38688D01*
G03X-1601340Y384310I-14872J-1965D01*
G02X-1635770Y448690I-5060J38690D01*
G03X-1637440Y470070I-11291J9873D01*
G02X-1583030Y474310I25038J29929D01*
G03X-1581360Y452930I11291J-9873D01*
G02X-1567720Y428100I-25046J-29920D01*
G03X-1550900Y415190I14872J1965D01*
G37*
G36*
G01X2627090Y321910D02*
G02X2579350Y383110I-27081J28095D01*
G03Y408560I-7938J12725D01*
G02X2579340Y474770I20650J33108D01*
G03Y500230I-7936J12730D01*
G02X2579350Y566440I20660J33102D01*
G03Y591890I-7938J12725D01*
G02X2620650I20650J33110D01*
G03Y566440I7938J-12725D01*
G02X2620660Y500230I-20650J-33108D01*
G03Y474770I7936J-12730D01*
G02X2620650Y408560I-20660J-33102D01*
G03Y383110I7938J-12725D01*
G02X2627090Y378090I-20639J-33118D01*
G03X2647910I10410J10793D01*
G02X2702090I27090J-28090D01*
G03X2722910I10410J10793D01*
G02X2729350Y383110I27079J-28098D01*
G03Y408560I-7938J12725D01*
G02X2729340Y474770I20650J33108D01*
G03Y500230I-7936J12730D01*
G02X2729350Y566440I20660J33102D01*
G03Y591890I-7938J12725D01*
G02X2770650I20650J33110D01*
G03Y566440I7938J-12725D01*
G02X2770660Y500230I-20650J-33108D01*
G03Y474770I7936J-12730D01*
G02X2770650Y408560I-20660J-33102D01*
G03Y383110I7938J-12725D01*
G02X2722910Y321910I-20659J-33105D01*
G03X2702090I-10410J-10793D01*
G02X2647910I-27090J28090D01*
G03X2627090I-10410J-10793D01*
G37*
G36*
G01X-82310Y234130D02*
G02X-128260Y238510I-25961J-29131D01*
G03X-125970Y262590I-7688J12880D01*
G02X-80020Y258210I25961J29131D01*
G03X-82310Y234130I7688J-12880D01*
G37*
G36*
G01X-2566590Y184840D02*
G02Y225160I-33410J20160D01*
G03X-2540910I12840J7752D01*
G02Y184840I33410J-20160D01*
G03X-2566590I-12840J-7752D01*
G37*
G36*
G01X-1571390Y132920D02*
G02X-1625890Y119920I-20948J-32920D01*
G03X-1628310Y130080I-6447J3833D01*
G02X-1629750Y194960I20949J32921D01*
G03Y219530I-8602J12285D01*
G02X-1640920Y271420I22380J31965D01*
G03X-1643340Y281580I-6450J3832D01*
G02X-1588850Y294580I20941J32922D01*
G03X-1586430Y284420I6450J-3832D01*
G02X-1584980Y219540I-20941J-32924D01*
G03Y194970I8602J-12285D01*
G02X-1573810Y143080I-22380J-31965D01*
G03X-1571390Y132920I6447J-3833D01*
G37*
G36*
G01X-1874250Y130450D02*
G02X-1930610Y122390I-24402J-30450D01*
G03X-1932060Y132550I-6139J4307D01*
G02X-1875700Y140610I24402J30450D01*
G03X-1874250Y130450I6139J-4307D01*
G37*
G36*
G01X-4078950Y126420D02*
G02X-4136370I-28710J-26420D01*
G03Y136580I-5522J5080D01*
G02X-4078950I28710J26420D01*
G03Y126420I5522J-5080D01*
G37*
G36*
G01X-139740Y115580D02*
G02X-143070Y74830I31460J-23082D01*
G03X-168540Y76920I-13378J-6786D01*
G02X-165210Y117670I-31460J23082D01*
G03X-139740Y115580I13378J6786D01*
G37*
G36*
G01X-1355300Y91380D02*
G02X-1397410Y47940I-3357J-38876D01*
G03X-1411020Y61120I-14895J-1764D01*
G02X-1368910Y104560I3357J38876D01*
G03X-1355300Y91380I14895J1764D01*
G37*
G36*
G01X2497700Y25850D02*
G02X2442600I-27550J-27630D01*
G03Y47090I-10595J10620D01*
G02X2497700I27550J27630D01*
G03Y25850I10595J-10620D01*
G37*
G36*
G01X-864230Y-25940D02*
G02X-864470Y18310I-32260J21951D01*
G03X-839760Y18440I12310J8571D01*
G02X-839520Y-25810I32260J-21951D01*
G03X-864230Y-25940I-12310J-8571D01*
G37*
G36*
G01X-135020Y-80330D02*
G02X-141380Y-127350I27520J-27662D01*
G03X-164980Y-124160I-13022J-7445D01*
G02X-158620Y-77140I-27520J27662D01*
G03X-135020Y-80330I13022J7445D01*
G37*
G36*
G01X-3533050Y-82800D02*
G02X-3538240Y-126050I29550J-25482D01*
G03X-3562950Y-123090I-13351J-6837D01*
G02X-3557760Y-79840I-29550J25482D01*
G03X-3533050Y-82800I13351J6837D01*
G37*
G36*
G01X-2959400Y-177050D02*
G02X-2967450Y-233400I22400J-31950D01*
G03X-2977600Y-231950I-5849J-4694D01*
G02X-2969550Y-175600I-22400J31950D01*
G03X-2959400Y-177050I5849J4694D01*
G37*
G36*
G01X-3618560Y-236740D02*
G02Y-181260I-27440J27740D01*
G03X-3597450I10555J10659D01*
G02Y-236740I27440J-27740D01*
G03X-3618560I-10555J-10659D01*
G37*
G36*
G01X2537190Y-235660D02*
G02X2498150Y-196620I-39020J20D01*
G03X2505650Y-189120I0J7500D01*
G02X2544690Y-228160I39020J-20D01*
G03X2537190Y-235660I0J-7500D01*
G37*
G36*
G01X-83730Y-222140D02*
G02X-122950Y-266590I-579J-39017D01*
G03X-137580Y-253680I-14853J-2087D01*
G02X-169780Y-235830I582J39018D01*
G03X-179940Y-233470I-6299J-4069D01*
G02X-167220Y-178830I-20059J33470D01*
G03X-157060Y-181190I6299J4069D01*
G02X-98360Y-209230I20059J-33469D01*
G03X-83730Y-222140I14853J2087D01*
G37*
G36*
G01X-3307500Y-292490D02*
G02X-3351910Y-252540I-38998J1308D01*
G03X-3339000Y-238190I-2082J14855D01*
G02X-3294590Y-278140I38998J-1308D01*
G03X-3307500Y-292490I2082J-14855D01*
G37*
G36*
G01X-3161370Y-293160D02*
G02X-3205400Y-260010I-38629J-5492D01*
G03X-3192630Y-243040I-2082J14857D01*
G02X-3192990Y-239200I38624J5558D01*
G03X-3200560Y-232020I-7491J-317D01*
G02X-3162010Y-191350I-438J39020D01*
G03X-3154440Y-198530I7491J317D01*
G02X-3148600Y-276190I434J-39017D01*
G03X-3161370Y-293160I2082J-14857D01*
G37*
G36*
G01X-1348770Y-335270D02*
G02Y-280050I-27570J27610D01*
G03X-1327570I10600J10616D01*
G02Y-335270I27570J-27610D01*
G03X-1348770I-10600J-10616D01*
G37*
G36*
G01X-316430Y-286260D02*
G02X-365240Y-306090I-13571J-36582D01*
G03X-373570Y-285580I-13547J6445D01*
G02X-355530Y-210240I13580J36578D01*
G03X-338870Y-196630I1714J14904D01*
G02X-304470Y-238760I38872J-3370D01*
G03X-321130Y-252370I-1714J-14904D01*
G02X-324760Y-265750I-38873J3364D01*
G03X-316430Y-286260I13547J-6445D01*
G37*
G36*
G01X-3236580Y-521050D02*
G02Y-463630I-26420J28710D01*
G03X-3226420I5080J5522D01*
G02Y-521050I26420J-28710D01*
G03X-3236580I-5080J-5522D01*
G37*
G36*
G01X1474590Y-458450D02*
G02X1431530Y-491550I-1590J-42490D01*
G03X1418290Y-473300I-14631J3314D01*
G02X1460360Y-440960I3599J38851D01*
G03X1474590Y-458450I14791J-2500D01*
G37*
G36*
G01X-1111770Y-510120D02*
G02X-1154650Y-479170I-38232J-7790D01*
G03X-1141730Y-461280I-1780J14896D01*
G02X-1098850Y-492230I38232J7790D01*
G03X-1111770Y-510120I1780J-14896D01*
G37*
G36*
G01X-3639620Y-535090D02*
G02X-3697620Y-489530I-36879J12750D01*
G03X-3694970Y-466490I-8126J12607D01*
G02X-3627920Y-439740I28030J27148D01*
G03X-3609330Y-454450I14998J-148D01*
G02X-3618380Y-526760I9329J-37889D01*
G03X-3639620Y-535090I-7064J-13232D01*
G37*
G36*
G01X-3969390Y-554810D02*
G02X-4026830Y-557140I-27651J-27531D01*
G03X-4027650Y-536870I-11452J9688D01*
G02X-3970210Y-534540I27651J27531D01*
G03X-3969390Y-554810I11452J-9688D01*
G37*
G36*
G01X-561090Y-676120D02*
G02X-563640Y-630650I-32911J20961D01*
G03X-550780Y-628580I5838J4710D01*
G02X-547600Y-622060I36507J-13770D01*
G03X-550240Y-603240I-12816J7797D01*
G02X-541280Y-539730I26490J28650D01*
G03X-534690Y-519460I-6743J13398D01*
G02X-482470Y-536450I34688J17870D01*
G03X-489060Y-556720I6743J-13398D01*
G02X-490420Y-594870I-34690J-17863D01*
G03X-487780Y-613690I12816J-7797D01*
G02X-538950Y-672560I-26489J-28649D01*
G03X-561090Y-676120I-9488J-11620D01*
G37*
G36*
G01X1782100Y-721160D02*
G02X1738060Y-757390I-5100J-38683D01*
G03X1724110Y-741480I-14972J943D01*
G02X1769180Y-704400I2888J42420D01*
G03X1782100Y-721160I14884J-1886D01*
G37*
G36*
G01X-2915180Y-743840D02*
G02X-2958810Y-787160I-4883J-38713D01*
G03X-2971820Y-774050I-14895J-1771D01*
G02X-2928190Y-730730I4883J38713D01*
G03X-2915180Y-743840I14895J1771D01*
G37*
G36*
G01X-2517550Y-790820D02*
G02X-2548220Y-751960I-39012J743D01*
G03X-2530020Y-737590I3202J14654D01*
G02X-2499350Y-776450I39012J-743D01*
G03X-2517550Y-790820I-3202J-14654D01*
G37*
G36*
G01X-8190Y-754130D02*
G02X-44950Y-792360I2254J-38955D01*
G03X-58410Y-777150I-14999J287D01*
G02X-59010Y-699590I4017J38813D01*
G03X-45830Y-685850I-1772J14892D01*
G02X-2300Y-727590I38908J-2992D01*
G03X-15480Y-741330I1772J-14892D01*
G02X-16000Y-745310I-38901J3059D01*
G03X-8190Y-754130I7380J-1333D01*
G37*
G36*
G01X-3696040Y-831180D02*
G02X-3735080Y-792140I-39020J20D01*
G03X-3727580Y-784640I0J7500D01*
G02X-3688540Y-823680I39020J-20D01*
G03X-3696040Y-831180I0J-7500D01*
G37*
G36*
G01X582920Y-841760D02*
G02X539270Y-800850I-38961J2172D01*
G03X552440Y-786800I-1805J14890D01*
G02X596090Y-827710I38961J-2172D01*
G03X582920Y-841760I1805J-14890D01*
G37*
G36*
G01X302170Y-859990D02*
G02X258130Y-894660I-5226J-38668D01*
G03X245210Y-878260I-14922J1534D01*
G02X211790Y-844960I5230J38669D01*
G03X197790Y-832050I-14856J-2064D01*
G02X239020Y-793210I2209J38958D01*
G03X247150Y-800710I7500J-26D01*
G02X250050Y-800570I3330J-38878D01*
G03X257480Y-793080I-69J7499D01*
G02X296890Y-832110I39021J-11D01*
G03X289460Y-839600I69J-7499D01*
G02X289250Y-843590I-39018J53D01*
G03X302170Y-859990I14922J-1534D01*
G37*
G36*
G01X-2672110Y-916320D02*
G02X-2681060Y-971190I22550J-31843D01*
G03X-2691450Y-969500I-6053J-4430D01*
G02X-2682500Y-914630I-22550J31843D01*
G03X-2672110Y-916320I6053J4430D01*
G37*
G36*
G01X-1349920Y-977860D02*
G02Y-920440I-26420J28710D01*
G03X-1339760I5080J5522D01*
G02Y-977860I26420J-28710D01*
G03X-1349920I-5080J-5522D01*
G37*
G36*
G01X-101190Y-936180D02*
G02X-138520Y-958880I-1866J-38977D01*
G03X-151430Y-937640I-13630J6259D01*
G02X-114100Y-914940I1866J38977D01*
G03X-101190Y-936180I13630J-6259D01*
G37*
G36*
G01X-3127070Y-1055860D02*
G02X-3166060Y-1015190I-38990J1645D01*
G01X-3158850D01*
X-3158550Y-1008010D01*
G02X-3119560Y-1048680I38990J-1645D01*
G01X-3126770D01*
X-3127070Y-1055860D01*
G37*
G36*
G01X31130Y-1131180D02*
G02X-7910Y-1092140I-39020J20D01*
G03X-410Y-1084640I0J7500D01*
G02X1660Y-1072130I39019J-30D01*
G03X-4530Y-1054630I-14205J4820D01*
G02X53290Y-1034190I20868J32970D01*
G03X59480Y-1051690I14205J-4820D01*
G02X38630Y-1123680I-20870J-32970D01*
G03X31130Y-1131180I0J-7500D01*
G37*
G36*
G01X-4152960Y-1092160D02*
G02X-4192800Y-1136570I-1198J-39000D01*
G03X-4207200Y-1123660I-14856J-2084D01*
G02X-4228490Y-1052770I1199J39002D01*
G03X-4227000Y-1029450I-8640J12260D01*
G02X-4178170Y-1032550I26341J28789D01*
G03X-4179660Y-1055870I8640J-12260D01*
G02X-4167360Y-1079250I-26343J-28784D01*
G03X-4152960Y-1092160I14856J2084D01*
G37*
G36*
G01X-2423300Y-1096160D02*
G02X-2463970Y-1135130I-1648J-38987D01*
G03X-2471150Y-1127640I-7498J-2D01*
G02X-2502000Y-1110250I1651J38988D01*
G03X-2526170Y-1109140I-12492J-8300D01*
G02X-2524060Y-1063060I-30389J24480D01*
G03X-2499890Y-1064170I12492J8300D01*
G02X-2430480Y-1088670I30389J-24478D01*
G03X-2423300Y-1096160I7498J2D01*
G37*
G36*
G01X-3035410Y-1158380D02*
G02X-3077120Y-1129840I-37647J-10270D01*
G03X-3064210Y-1110980I-1559J14916D01*
G02X-3022500Y-1139520I37647J10270D01*
G03X-3035410Y-1158380I1559J-14916D01*
G37*
G36*
G01X-2864300Y-1182900D02*
G02X-2934570Y-1180560I-35698J-15751D01*
G03X-2937810Y-1170400I-6646J3477D01*
G02X-2898790Y-1102940I17744J34751D01*
G03X-2878640Y-1099400I8176J12577D01*
G02X-2808480Y-1122890I31141J-23511D01*
G03X-2800980Y-1130390I7500J0D01*
G02X-2840020Y-1169430I-20J-39020D01*
G03X-2847520Y-1161930I-7500J0D01*
G02X-2849720Y-1161870I-37J39022D01*
G03X-2864300Y-1182900I-858J-14974D01*
G37*
G36*
G01X502750Y-1168740D02*
G02X461350Y-1212990I-2748J-38921D01*
G03X447540Y-1200080I-14861J-2055D01*
G02X488940Y-1155830I2748J38921D01*
G03X502750Y-1168740I14861J2055D01*
G37*
G36*
G01X-200360Y-1168640D02*
G02X-238850Y-1211280I362J-39018D01*
G03X-253930Y-1197680I-14934J-1399D01*
G02X-215440Y-1155040I-362J39018D01*
G03X-200360Y-1168640I14934J1399D01*
G37*
G36*
G01X-536580Y-1236370D02*
G02Y-1178950I-26420J28710D01*
G03X-526420I5080J5522D01*
G02Y-1236370I26420J-28710D01*
G03X-536580I-5080J-5522D01*
G37*
G36*
G01X-3446500Y-1170950D02*
G02X-3478410Y-1206420I7002J-38388D01*
G03X-3496060Y-1190540I-14957J1125D01*
G02X-3464150Y-1155070I-7002J38388D01*
G03X-3446500Y-1170950I14957J-1125D01*
G37*
G36*
G01X-1900530Y-1199240D02*
G02X-1946370Y-1238700I-6832J-38419D01*
G03X-1958740Y-1224330I-14992J-397D01*
G02X-1948840Y-1147010I6819J38421D01*
G03X-1932800Y-1134100I1181J14952D01*
G02X-1903590Y-1177270I38659J-5310D01*
G03X-1912910Y-1184760I-1823J-7276D01*
G02X-1912900Y-1184870I-39000J-1150D01*
G03X-1900530Y-1199240I14992J397D01*
G37*
G36*
G01X-1060430Y-1265820D02*
G02X-1098960Y-1241790I-36058J-14911D01*
G03X-1086050Y-1221090I-952J14970D01*
G02X-1047520Y-1245120I36058J14911D01*
G03X-1060430Y-1265820I952J-14970D01*
G37*
G36*
G01X28850Y-1329590D02*
G02X-7600Y-1306830I-35478J-16250D01*
G03X5660Y-1285590I-375J14993D01*
G02X42110Y-1308350I35478J16250D01*
G03X28850Y-1329590I375J-14993D01*
G37*
G36*
G01X-4149580Y-1429710D02*
G02Y-1372290I-26420J28710D01*
G03X-4139420I5080J5522D01*
G02Y-1429710I26420J-28710D01*
G03X-4149580I-5080J-5522D01*
G37*
G36*
G01X-2526510Y-1444950D02*
G02X-2557210Y-1406380I-39017J447D01*
G03X-2539020Y-1391890I3191J14656D01*
G02X-2508320Y-1430460I39017J-447D01*
G03X-2526510Y-1444950I-3191J-14656D01*
G37*
G36*
G01X224050Y-1454650D02*
G02X167000Y-1449180I-31053J-23629D01*
G03X168950Y-1428910I-9988J11190D01*
G02X226000Y-1434380I31053J23629D01*
G03X224050Y-1454650I9988J-11190D01*
G37*
G36*
G01X-3813410Y-1510860D02*
G02Y-1471140I-33590J19860D01*
G03X-3787590I12910J7633D01*
G02X-3754020Y-1451980I33588J-19861D01*
G03X-3746520Y-1444480I0J7500D01*
G02X-3668800Y-1439540I39019J-29D01*
G03X-3651580Y-1452460I14881J1899D01*
G02X-3684200Y-1495960I6081J-38541D01*
G03X-3701420Y-1483040I-14881J-1899D01*
G02X-3707480Y-1483520I-6102J38538D01*
G03X-3714980Y-1491020I0J-7500D01*
G02X-3787590Y-1510860I-39021J19D01*
G03X-3813410I-12910J-7633D01*
G37*
G36*
G01X830300Y-1473830D02*
G02X772870Y-1473320I-28950J-26168D01*
G03X772960Y-1463170I-5472J5124D01*
G02X830390Y-1463680I28950J26168D01*
G03X830300Y-1473830I5472J-5124D01*
G37*
G36*
G01X-2103180Y-1461120D02*
G02X-2145110Y-1505290I-3271J-38882D01*
G03X-2158720Y-1492380I-14861J-2038D01*
G02X-2116790Y-1448210I3271J38882D01*
G03X-2103180Y-1461120I14861J2038D01*
G37*
G36*
G01X585360Y-1552470D02*
G02X543030Y-1510120I-38864J3484D01*
G03X556640Y-1496520I-1330J14941D01*
G02X598970Y-1538870I38864J-3484D01*
G03X585360Y-1552470I1330J-14941D01*
G37*
G36*
G01X1375850Y-1695100D02*
G02X1370820Y-1651450I-34550J18133D01*
G03X1395450Y-1648620I11351J9806D01*
G02X1451460Y-1634160I34552J-18130D01*
G03X1473020Y-1628540I8246J12530D01*
G02X1486200Y-1679090I34640J-17961D01*
G03X1464640Y-1684710I-8246J-12530D01*
G02X1400480Y-1692270I-34642J17960D01*
G03X1375850Y-1695100I-11351J-9806D01*
G37*
G36*
G01X1877220Y-1741060D02*
G02X1838090Y-1770820I-1220J-39001D01*
G03X1823980Y-1752280I-14575J3547D01*
G02X1863110Y-1722520I1220J39001D01*
G03X1877220Y-1741060I14575J-3547D01*
G37*
G36*
G01X-4016980Y-1851020D02*
G02X-4056020Y-1811980I-39020J20D01*
G03X-4048520Y-1804480I0J7500D01*
G02X-4009480Y-1843520I39020J-20D01*
G03X-4016980Y-1851020I0J-7500D01*
G37*
G36*
G01X-3562150Y-2027310D02*
G02X-3566170Y-1982910I-33909J19312D01*
G03X-3541650Y-1980690I11488J9641D01*
G02X-3537630Y-2025090I33909J-19312D01*
G03X-3562150Y-2027310I-11488J-9641D01*
G37*
G36*
G01X-1156080Y-2022270D02*
G02X-1163370Y-1982320I-36422J13994D01*
G03X-1138160Y-1977730I11207J9973D01*
G02X-1124760Y-1960210I36429J-13978D01*
G03X-1123720Y-1936830I-8852J12107D01*
G02X-1074960Y-1939010I25740J29329D01*
G03X-1076000Y-1962390I8852J-12107D01*
G02X-1130870Y-2017680I-25742J-29325D01*
G03X-1156080Y-2022270I-11207J-9973D01*
G37*
G36*
G01X2036040Y-1982750D02*
G02X2021800Y-2036600I19300J-33912D01*
G03X2011640Y-2033910I-6450J-3829D01*
G02X2025880Y-1980060I-19300J33912D01*
G03X2036040Y-1982750I6450J3829D01*
G37*
G36*
G01X-1907960Y-2042930D02*
G02X-1946410Y-1998480I-38640J5430D01*
G03X-1931480Y-1985570I77J15000D01*
G02X-1915820Y-1959470I38638J-5435D01*
G03X-1917440Y-1934200I-8838J12120D01*
G02X-1875670Y-1931530I18784J34200D01*
G03X-1874050Y-1956800I8838J-12120D01*
G02X-1893030Y-2030020I-18788J-34200D01*
G03X-1907960Y-2042930I-77J-15000D01*
G37*
G36*
G01X-4057290Y-2023580D02*
G02X-4114710I-28710J-26420D01*
G03Y-2013420I-5522J5080D01*
G02X-4057290I28710J26420D01*
G03Y-2023580I5522J-5080D01*
G37*
G36*
G01X1130330Y-2040810D02*
G02X1074170Y-2032520I-31990J-22341D01*
G03X1075670Y-2022340I-4650J5886D01*
G02X1079910Y-1972560I31990J22346D01*
G03X1077330Y-1949380I-10663J10547D01*
G02X1126090Y-1943940I21015J32879D01*
G03X1128670Y-1967120I10663J-10547D01*
G02X1131830Y-2030630I-21011J-32879D01*
G03X1130330Y-2040810I4650J-5886D01*
G37*
G36*
G01X-776750Y-2063660D02*
G02X-822520Y-2063140I-23244J-31340D01*
G03X-822250Y-2038840I-8661J12248D01*
G02X-776480Y-2039360I23244J31340D01*
G03X-776750Y-2063660I8661J-12248D01*
G37*
G36*
G01X-2039690Y-2122950D02*
G02X-2095180Y-2112240I-32845J-21068D01*
G03X-2093210Y-2102090I-4347J6110D01*
G02X-2037720Y-2112800I32845J21068D01*
G03X-2039690Y-2122950I4347J-6110D01*
G37*
G36*
G01X-1279300Y-2165350D02*
G02X-1323200I-21950J-32260D01*
G03Y-2140540I-8434J12405D01*
G02X-1279300I21950J32260D01*
G03Y-2165350I8434J-12405D01*
G37*
G36*
G01X-4029080Y-2232210D02*
G02Y-2174790I-26420J28710D01*
G03X-4018920I5080J5522D01*
G02Y-2232210I26420J-28710D01*
G03X-4029080I-5080J-5522D01*
G37*
G36*
G01X793870Y-2207020D02*
G02X754830Y-2167980I-39020J20D01*
G03X762330Y-2160480I0J7500D01*
G02X781710Y-2126780I39021J-17D01*
G03X781880Y-2100960I-7551J12960D01*
G02X821590Y-2101220I20075J33460D01*
G03X821420Y-2127040I7551J-12960D01*
G02X801370Y-2199520I-20072J-33461D01*
G03X793870Y-2207020I0J-7500D01*
G37*
G36*
G01X3095240Y-2291210D02*
G02Y-2231390I-25050J29910D01*
G03X3114510I9635J11504D01*
G02X3164610I25050J-29910D01*
G03X3183880I9635J11504D01*
G02X3233980I25050J-29910D01*
G03X3253250I9635J11504D01*
G02Y-2291210I25050J-29910D01*
G03X3233980I-9635J-11504D01*
G02X3183880I-25050J29910D01*
G03X3164610I-9635J-11504D01*
G02X3114510I-25050J29910D01*
G03X3095240I-9635J-11504D01*
G37*
G36*
G01X1610150Y-2250520D02*
G02X1552370Y-2235660I-35155J-16930D01*
G03X1557190Y-2216930I-8696J12223D01*
G02X1614970Y-2231790I35155J16930D01*
G03X1610150Y-2250520I8696J-12223D01*
G37*
G36*
G01X-3217550Y-2291470D02*
G02X-3222380Y-2243360I-32890J20995D01*
G03X-3198950Y-2241010I10788J10422D01*
G02X-3194120Y-2289120I32890J-20995D01*
G03X-3217550Y-2291470I-10788J-10422D01*
G37*
G36*
G01X-261020Y-2274680D02*
G02X-305390Y-2237850I-38980J-1818D01*
G03X-292480Y-2222300I-2071J14854D01*
G02X-248110Y-2259130I38980J1818D01*
G03X-261020Y-2274680I2071J-14854D01*
G37*
G36*
G01X-1725950Y-2273580D02*
G02X-1783370I-28710J-26420D01*
G03Y-2263420I-5522J5080D01*
G02X-1725950I28710J26420D01*
G03Y-2273580I5522J-5080D01*
G37*
G36*
G01X-3354200Y-2308650D02*
G02X-3393000Y-2265460I-38800J4167D01*
G03X-3385510Y-2257760I-6J7499D01*
G02X-3385430Y-2254040I39010J1022D01*
G03X-3392920Y-2246020I-7481J521D01*
G02X-3354080Y-2204260I-82J39019D01*
G03X-3341160Y-2218070I14965J1052D01*
G02X-3341290Y-2295390I-5344J-38651D01*
G03X-3354200Y-2308650I2003J-14865D01*
G37*
G36*
G01X-3656930Y-2325170D02*
G02X-3660260Y-2284420I-34790J17668D01*
G03X-3634790Y-2282330I12092J8876D01*
G02X-3631460Y-2323080I34790J-17668D01*
G03X-3656930Y-2325170I-12092J-8876D01*
G37*
G36*
G01X1463430Y-2395270D02*
G02X1422690Y-2349550I-38429J6768D01*
G03X1436570Y-2337180I-892J14973D01*
G02X1477310Y-2382900I38429J-6768D01*
G03X1463430Y-2395270I892J-14973D01*
G37*
G36*
G01X-1076870Y-2358900D02*
G02X-1121800Y-2360820I-21104J-32820D01*
G03X-1122840Y-2336320I-9153J11884D01*
G02X-1077910Y-2334400I21104J32820D01*
G03X-1076870Y-2358900I9153J-11884D01*
G37*
G36*
G01X221340Y-2359840D02*
G02X173600Y-2363770I-21343J-32662D01*
G03X171660Y-2340160I-10147J11051D01*
G02X159580Y-2327640I21332J32670D01*
G03X133750Y-2327850I-12853J-7737D01*
G02X133420Y-2288140I-33751J19576D01*
G03X159250Y-2287930I12853J7737D01*
G02X219400Y-2336230I33758J-19564D01*
G03X221340Y-2359840I10147J-11051D01*
G37*
G36*
G01X-1399610Y-2371180D02*
G02X-1405660Y-2430770I21860J-32322D01*
G03X-1424790Y-2428820I-10733J-10479D01*
G02X-1418740Y-2369230I-21860J32322D01*
G03X-1399610Y-2371180I10733J10479D01*
G37*
G36*
G01X1983670Y-2394470D02*
G02X1931950Y-2369040I-37467J-10892D01*
G03X1940870Y-2350890I-5485J13963D01*
G02X1992590Y-2376320I37467J10892D01*
G03X1983670Y-2394470I5485J-13963D01*
G37*
G36*
G01X1102670Y-2405910D02*
G02X1062950I-19860J-33590D01*
G03Y-2380090I-7633J12910D01*
G02X1063600Y-2312540I19860J33587D01*
G03X1067270Y-2289350I-7389J13055D01*
G02X1073090Y-2231450I28780J26350D01*
G03X1074960Y-2221290I-4413J6064D01*
G02X1130620Y-2231550I32700J21290D01*
G03X1128750Y-2241710I4413J-6064D01*
G02X1115260Y-2296960I-32700J-21288D01*
G03X1111590Y-2320150I7389J-13055D01*
G02X1102670Y-2380090I-28779J-26351D01*
G03Y-2405910I7633J-12910D01*
G37*
G36*
G01X3095240Y-2479890D02*
G02Y-2420070I-25050J29910D01*
G03X3114510I9635J11504D01*
G02X3164610I25050J-29910D01*
G03X3183880I9635J11504D01*
G02X3233980I25050J-29910D01*
G03X3253250I9635J11504D01*
G02Y-2479890I25050J-29910D01*
G03X3233980I-9635J-11504D01*
G02X3183880I-25050J29910D01*
G03X3164610I-9635J-11504D01*
G02X3114510I-25050J29910D01*
G03X3095240I-9635J-11504D01*
G37*
G36*
G01X-931460Y-2476920D02*
G02X-934790Y-2517670I31460J-23082D01*
G03X-960260Y-2515580I-13378J-6786D01*
G02X-1019220Y-2464820I-31465J23074D01*
G03X-1022490Y-2441080I-10576J10638D01*
G02X-975990Y-2434680I19000J34081D01*
G03X-972720Y-2458420I10576J-10638D01*
G02X-956930Y-2474830I-18998J-34082D01*
G03X-931460Y-2476920I13378J6786D01*
G37*
G36*
G01X-3657810Y-2522800D02*
G02X-3659380Y-2481670I-33911J19301D01*
G03X-3633910Y-2480700I12434J8393D01*
G02X-3632340Y-2521830I33911J-19301D01*
G03X-3657810Y-2522800I-12434J-8393D01*
G37*
G36*
G01X-574380Y-2493690D02*
G02X-629430Y-2495490I-26622J-28529D01*
G03X-630120Y-2474250I-10925J10276D01*
G02X-575070Y-2472450I26622J28529D01*
G03X-574380Y-2493690I10925J-10276D01*
G37*
G36*
G01X-415380Y-2576870D02*
G02X-491190Y-2575120I-38118J-8347D01*
G03X-499380Y-2557630I-14490J3877D01*
G02X-456350Y-2493710I16389J35411D01*
G03X-435250Y-2493090I10237J10963D01*
G02X-402470Y-2558770I28248J-26922D01*
G03X-415380Y-2576870I1741J-14896D01*
G37*
G36*
G01X-2168890Y-2602610D02*
G02X-2209820Y-2569330I-38607J-5672D01*
G03X-2195880Y-2552170I-898J14972D01*
G02X-2195920Y-2551890I38610J5659D01*
G03X-2210080Y-2538980I-14854J-2072D01*
G02X-2169630Y-2494610I1802J38980D01*
G03X-2155470Y-2507520I14854J2072D01*
G02X-2154950Y-2585450I-1798J-38979D01*
G03X-2168890Y-2602610I898J-14972D01*
G37*
G36*
G01X1219890Y-2627540D02*
G02X1175600Y-2586350I-38938J2538D01*
G03X1188510Y-2572460I-2058J14858D01*
G02X1232800Y-2613650I38938J-2538D01*
G03X1219890Y-2627540I2058J-14858D01*
G37*
G36*
G01X-1875700Y-2640610D02*
G02X-1932060Y-2632550I-31958J-22390D01*
G03X-1930610Y-2622390I-4689J5853D01*
G02X-1932090Y-2579890I31959J22389D01*
G03X-1934590Y-2561310I-12854J7729D01*
G02X-1874220Y-2553180I26929J28239D01*
G03X-1871720Y-2571760I12854J-7729D01*
G02X-1874250Y-2630450I-26929J-28239D01*
G03X-1875700Y-2640610I4689J-5853D01*
G37*
G36*
G01X-3779230Y-2657510D02*
G02X-3822280Y-2663200I-17276J-34989D01*
G03X-3825550Y-2638490I-9906J11260D01*
G02X-3842590Y-2622080I17273J34988D01*
G03X-3866580Y-2618810I-13192J-7143D01*
G02X-3914470Y-2558100I-28082J27092D01*
G03X-3913650Y-2532770I-7613J12925D01*
G02X-3871910Y-2534120I21936J32270D01*
G03X-3872730Y-2559450I7613J-12925D01*
G02X-3860350Y-2573140I-21929J-32273D01*
G03X-3836360Y-2576410I13192J7143D01*
G02X-3782500Y-2632800I28083J-27093D01*
G03X-3779230Y-2657510I9906J-11260D01*
G37*
G36*
G01X-2878410Y-2662490D02*
G02X-2921590I-21590J-32500D01*
G03Y-2637500I-8303J12495D01*
G02X-2878410I21590J32500D01*
G03Y-2662490I8303J-12495D01*
G37*
G36*
G01X-1700560Y-2684030D02*
G02X-1737120Y-2716820I1968J-38971D01*
G03X-1752690Y-2699470I-14811J2370D01*
G02X-1716130Y-2666680I-1968J38971D01*
G03X-1700560Y-2684030I14811J-2370D01*
G37*
G36*
G01X-4214590Y-2834940D02*
G02X-4268390Y-2860550I-16069J-35559D01*
G03X-4276720Y-2843060I-14504J3821D01*
G02X-4222920Y-2817450I16069J35559D01*
G03X-4214590Y-2834940I14504J-3821D01*
G37*
G36*
G01X652380Y-2853700D02*
G02X579480Y-2872860I-33880J-19359D01*
G03X566570Y-2857930I-15000J77D01*
G02X562260Y-2857070I5468J38632D01*
G03X544770Y-2865600I-3741J-14526D01*
G02X518740Y-2812220I-35768J15595D01*
G03X536230Y-2803690I3741J14526D01*
G02X594300Y-2787270I35767J-15600D01*
G03X604450Y-2785780I4281J6157D01*
G02X655040Y-2843540I30547J-24280D01*
G03X652380Y-2853700I3850J-6436D01*
G37*
G36*
G01X217710Y-2858970D02*
G02X172760Y-2860750I-21213J-32750D01*
G03X171790Y-2836250I-9121J11908D01*
G02X216740Y-2834470I21213J32750D01*
G03X217710Y-2858970I9121J-11908D01*
G37*
G36*
G01X-558590Y-2920620D02*
G02Y-2879380I-33130J20620D01*
G03X-533130I12730J7928D01*
G02Y-2920620I33130J-20620D01*
G03X-558590I-12730J-7928D01*
G37*
G36*
G01X3734400Y-2931270D02*
G02X3686350Y-2898360I-38700J-4971D01*
G03X3697640Y-2881880I-3589J14566D01*
G02X3745690Y-2914790I38700J4971D01*
G03X3734400Y-2931270I3589J-14566D01*
G37*
G36*
G01X333580Y-3012380D02*
G02X333240Y-2972060I-33579J19878D01*
G03X358920Y-2971840I12774J7860D01*
G02X359260Y-3012160I33579J-19878D01*
G03X333580Y-3012380I-12774J-7860D01*
G37*
G36*
G01X-81830Y-2959760D02*
G02X-122080Y-2958430I-21229J-32740D01*
G03X-121230Y-2932740I-7305J13101D01*
G02X-80980Y-2934070I21229J32740D01*
G03X-81830Y-2959760I7305J-13101D01*
G37*
G36*
G01X-2982130Y-2959850D02*
G02X-3022340Y-2958330I-21368J-32650D01*
G03X-3021370Y-2932650I-7248J13132D01*
G02X-2981160Y-2934170I21368J32650D01*
G03X-2982130Y-2959850I7248J-13132D01*
G37*
G36*
G01X598770Y-2962010D02*
G02X571040Y-3013480I8888J-37994D01*
G03X553550Y-3004050I-14079J-5177D01*
G02X581280Y-2952580I-8888J37994D01*
G03X598770Y-2962010I14079J5177D01*
G37*
G36*
G01X-1878950Y-2973580D02*
G02X-1936370I-28710J-26420D01*
G03Y-2963420I-5522J5080D01*
G02X-1946500Y-2940780I28705J26430D01*
G03X-1959870Y-2927320I-14928J-1458D01*
G02X-1916990Y-2884730I4042J38811D01*
G03X-1903620Y-2898190I14928J1458D01*
G02X-1878950Y-2963420I-4042J-38809D01*
G03Y-2973580I5522J-5080D01*
G37*
G36*
G01X-1361160Y-2972470D02*
G02X-1362980Y-3029850I25509J-29528D01*
G03X-1373140Y-3029530I-5254J-5351D01*
G02X-1371320Y-2972150I-25509J29528D01*
G03X-1361160Y-2972470I5254J5351D01*
G37*
G36*
G01X-1131700Y-2980530D02*
G02X-1139030Y-3023640I28199J-26973D01*
G03X-1163520Y-3019470I-13656J-6202D01*
G02X-1156190Y-2976360I-28199J26973D01*
G03X-1131700Y-2980530I13656J6202D01*
G37*
G36*
G01X-1698850Y-3049970D02*
G02X-1743280Y-3010500I-39010J829D01*
G03X-1730370Y-2995970I-2087J14855D01*
G02X-1729960Y-2991120I39008J-855D01*
G03X-1743890Y-2973960I-14841J2187D01*
G02X-1702930Y-2940690I2356J38948D01*
G03X-1689000Y-2957850I14841J-2187D01*
G02X-1685940Y-3035440I-2361J-38948D01*
G03X-1698850Y-3049970I2087J-14855D01*
G37*
G36*
G01X1513430Y-3062820D02*
G02X1436570I-38430J6770D01*
G03X1422690Y-3050450I-14772J-2603D01*
G02X1463430Y-3004730I2311J38952D01*
G03X1477310Y-3017100I14772J2603D01*
G02X1477950Y-3017140I-2114J-38962D01*
G03X1486010Y-3009960I567J7478D01*
G02X1527310Y-3050450I38989J-1539D01*
G03X1513430Y-3062820I892J-14973D01*
G37*
G36*
G01X-4263610Y-3043510D02*
G02X-4321040Y-3043530I-28706J-26430D01*
G03X-4321050Y-3033370I-5522J5075D01*
G02X-4263620Y-3033350I28706J26430D01*
G03X-4263610Y-3043510I5522J-5075D01*
G37*
G36*
G01X-2787140Y-3058130D02*
G02X-2826860I-19860J-33590D01*
G03Y-3032310I-7633J12910D01*
G02X-2787140I19860J33590D01*
G03Y-3058130I7633J-12910D01*
G37*
G36*
G01X-3659660Y-3114740D02*
G02X-3660060Y-3069700I-32061J22237D01*
G03X-3635560Y-3069480I12172J8769D01*
G02X-3635160Y-3114520I32061J-22237D01*
G03X-3659660Y-3114740I-12172J-8769D01*
G37*
G36*
G01X238770Y-3124970D02*
G02X233680Y-3083550I-35270J16688D01*
G03X258840Y-3080450I11599J9512D01*
G02X263930Y-3121870I35270J-16688D01*
G03X238770Y-3124970I-11599J-9512D01*
G37*
G36*
G01X1328880Y-3176890D02*
G02X1263630Y-3164800I-28883J26239D01*
G03X1243490Y-3156560I-13979J-5434D01*
G02X1263820Y-3106840I-16037J35574D01*
G03X1283960Y-3115080I13979J5434D01*
G02X1327790Y-3123260I16040J-35570D01*
G03X1349570Y-3122810I10677J10536D01*
G02X1350660Y-3176440I28880J-26239D01*
G03X1328880Y-3176890I-10677J-10536D01*
G37*
G36*
G01X-679200Y-3159480D02*
G02X-726780Y-3164120I-20796J-33018D01*
G03X-729080Y-3140520I-10292J10909D01*
G02X-742630Y-3126010I20807J33012D01*
G03X-767130Y-3123250I-13207J-7116D01*
G02X-762150Y-3079060I-29371J25686D01*
G03X-737650Y-3081820I13207J7116D01*
G02X-681500Y-3135880I29372J-25682D01*
G03X-679200Y-3159480I10292J-10909D01*
G37*
G36*
G01X658550Y-3167150D02*
G02X655830Y-3223440I25600J-29448D01*
G03X635100Y-3222450I-10882J-10324D01*
G02X637820Y-3166160I-25600J29448D01*
G03X658550Y-3167150I10882J10324D01*
G37*
G36*
G01X-1924170Y-3225070D02*
G02X-1930700Y-3168340I-29689J25323D01*
G03X-1920550Y-3167180I4452J6033D01*
G02X-1914020Y-3223910I29689J-25323D01*
G03X-1924170Y-3225070I-4452J-6033D01*
G37*
G36*
G01X1018540Y-3197800D02*
G02X967180Y-3169980I-38003J-8840D01*
G03X976660Y-3152480I-5131J14097D01*
G02X1013010Y-3104650I38004J8845D01*
G03X1020190Y-3097160I-318J7492D01*
G02X1057770Y-3058150I39019J18D01*
G03X1064990Y-3050620I-281J7496D01*
G02X1105450Y-3089430I39019J182D01*
G03X1098230Y-3096960I281J-7496D01*
G02X1060860Y-3136130I-39021J-183D01*
G03X1053680Y-3143620I318J-7492D01*
G02X1028020Y-3180300I-39020J-19D01*
G03X1018540Y-3197800I5131J-14097D01*
G37*
G36*
G01X2992300Y-3273560D02*
G02X2893440Y-3174700I-52300J46560D01*
G03Y-3152300I-9974J11200D01*
G02X2992300Y-3053440I46560J52300D01*
G03X3014700I11200J9974D01*
G02X3119300I52300J-46560D01*
G03X3141700I11200J9974D01*
G02X3246300I52300J-46560D01*
G03X3268700I11200J9974D01*
G02X3293570Y-3035580I52290J-46568D01*
G03X3300130Y-3013390I-5879J13803D01*
G02X3341200Y-2953550I32353J21809D01*
G03X3359540Y-2939590I3353J14622D01*
G02X3389800Y-2979350I38980J-1728D01*
G03X3371460Y-2993310I-3353J-14622D01*
G02X3359550Y-3019680I-38980J1731D01*
G03X3361320Y-3042750I10404J-10805D01*
G02X3373300Y-3053440I-40323J-57246D01*
G03X3395700I11200J9974D01*
G02X3500300I52300J-46560D01*
G03X3522700I11200J9974D01*
G02X3627300I52300J-46560D01*
G03X3649700I11200J9974D01*
G02X3754300I52300J-46560D01*
G03X3776700I11200J9974D01*
G02X3881300I52300J-46560D01*
G03X3903700I11200J9974D01*
G02X4008300I52300J-46560D01*
G03X4030700I11200J9974D01*
G02X4129560Y-3152300I52300J-46560D01*
G03Y-3174700I9974J-11200D01*
G02X4030700Y-3273560I-46560J-52300D01*
G03X4008300I-11200J-9974D01*
G02X3903700I-52300J46560D01*
G03X3881300I-11200J-9974D01*
G02X3776700I-52300J46560D01*
G03X3754300I-11200J-9974D01*
G02X3649700I-52300J46560D01*
G03X3627300I-11200J-9974D01*
G02X3522700I-52300J46560D01*
G03X3500300I-11200J-9974D01*
G02X3395700I-52300J46560D01*
G03X3373300I-11200J-9974D01*
G02X3268700I-52300J46560D01*
G03X3246300I-11200J-9974D01*
G02X3141700I-52300J46560D01*
G03X3119300I-11200J-9974D01*
G02X3014700I-52300J46560D01*
G03X2992300I-11200J-9974D01*
G37*
G36*
G01X-2348390Y-3279740D02*
G02X-2357310Y-3335380I22191J-32093D01*
G03X-2377810Y-3332090I-11966J-9048D01*
G02X-2368890Y-3276450I-22191J32093D01*
G03X-2348390Y-3279740I11966J9048D01*
G37*
G36*
G01X-3915670Y-3339350D02*
G02X-3954660Y-3298680I-38990J1645D01*
G01X-3947450D01*
X-3947150Y-3291500D01*
G02X-3908160Y-3332170I38990J-1645D01*
G01X-3915370D01*
X-3915670Y-3339350D01*
G37*
G36*
G01X-698060Y-3319530D02*
G02X-740900Y-3363540I-4169J-38798D01*
G03X-754170Y-3350630I-14864J-2004D01*
G02X-711330Y-3306620I4169J38798D01*
G03X-698060Y-3319530I14864J2004D01*
G37*
G36*
G01X-574030Y-3338620D02*
G02X-631190Y-3334540I-30466J-24380D01*
G03X-630460Y-3324380I-5127J5475D01*
G02X-573300Y-3328460I30466J24380D01*
G03X-574030Y-3338620I5127J-5475D01*
G37*
G36*
G01X-3307490Y-3383820D02*
G02X-3351920Y-3346080I-39009J-901D01*
G03X-3339010Y-3330880I-2086J14854D01*
G02X-3294580Y-3368620I39009J901D01*
G03X-3307490Y-3383820I2086J-14854D01*
G37*
G36*
G01X-3065050Y-3387030D02*
G02X-3103720Y-3356830I-38010J-8812D01*
G03X-3088980Y-3341170I-248J15000D01*
G02X-3011020I38980J1710D01*
G03X-2996160Y-3356820I14986J-650D01*
G02X-3035480Y-3394130I-338J-39018D01*
G03X-3050340Y-3378480I-14986J650D01*
G02X-3056490Y-3377940I327J39020D01*
G03X-3065050Y-3387030I-1255J-7394D01*
G37*
G36*
G01X-29600Y-3378480D02*
G02X-87010Y-3367890I-33402J-20170D01*
G03X-83400Y-3348320I-9234J11821D01*
G02X-25990Y-3358910I33402J20170D01*
G03X-29600Y-3378480I9234J-11821D01*
G37*
G36*
G01X119860Y-3366390D02*
G02X80140I-19860J-33590D01*
G03Y-3340570I-7633J12910D01*
G02X119860I19860J33590D01*
G03Y-3366390I7633J-12910D01*
G37*
G36*
G01X-2507310Y-3369330D02*
G02X-2538580Y-3401810I7310J-38330D01*
G03X-2556220Y-3384830I-14830J2246D01*
G02X-2524950Y-3352350I-7310J38330D01*
G03X-2507310Y-3369330I14830J-2246D01*
G37*
G36*
G01X-1792860Y-3415320D02*
G02X-1835340Y-3457380I-3593J-38854D01*
G03X-1848900Y-3443680I-14950J-1236D01*
G02X-1806420Y-3401620I3593J38854D01*
G03X-1792860Y-3415320I14950J1236D01*
G37*
G36*
G01X2685800Y-3517120D02*
G02X2628490Y-3514440I-29891J-25081D01*
G03X2628960Y-3504280I-5273J5335D01*
G02X2686270Y-3506960I29891J25081D01*
G03X2685800Y-3517120I5273J-5335D01*
G37*
G36*
G01X405280Y-3543490D02*
G02X361250Y-3578080I-5222J-38670D01*
G03X348340Y-3561650I-14916J1567D01*
G02X392370Y-3527060I5222J38670D01*
G03X405280Y-3543490I14916J-1567D01*
G37*
G36*
G01X233710Y-3611990D02*
G02X214640Y-3556170I-33710J19651D01*
G03X233230Y-3549820I5630J13903D01*
G02X252300Y-3605640I33710J-19651D01*
G03X233710Y-3611990I-5630J-13903D01*
G37*
G36*
G01X-523980Y-3561560D02*
G02X-537940Y-3601450I23981J-30780D01*
G03X-561740Y-3593120I-14585J-3507D01*
G02X-547780Y-3553230I-23981J30780D01*
G03X-523980Y-3561560I14585J3507D01*
G37*
G36*
G01X-36450Y-3621220D02*
G02X-36710Y-3563790I-26550J28595D01*
G03X-26550Y-3563740I5053J5542D01*
G02X-26290Y-3621170I26550J-28595D01*
G03X-36450Y-3621220I-5053J-5542D01*
G37*
G36*
G01X-328190Y-3619410D02*
G02X-328380Y-3565630I-28370J26790D01*
G03X-306650Y-3565550I10827J10381D01*
G02X-250010Y-3565450I28367J-26791D01*
G03X-228270I10870J10342D01*
G02Y-3619230I28270J-26890D01*
G03X-250010I-10870J-10342D01*
G02X-306460Y-3619330I-28273J26891D01*
G03X-328190Y-3619410I-10827J-10381D01*
G37*
G36*
G01X-1340660Y-3625200D02*
G02X-1344860Y-3564170I-26270J28852D01*
G03X-1326270Y-3562890I8487J12368D01*
G02X-1322070Y-3623920I26270J-28852D01*
G03X-1340660Y-3625200I-8487J-12368D01*
G37*
G36*
G01X-3888760Y-3568990D02*
G02X-3944060Y-3591280I-18239J-34492D01*
G03X-3951300Y-3573330I-14251J4687D01*
G02X-3951650Y-3573150I17668J34784D01*
G03X-3962440Y-3581770I-3569J-6596D01*
G02X-3990660Y-3554450I-37563J-10566D01*
G03X-3972070Y-3539600I3593J14562D01*
G02X-3961770Y-3512420I39011J758D01*
G03Y-3502260I-5522J5080D01*
G02X-3904350I28710J26420D01*
G03Y-3512420I5522J-5080D01*
G02X-3896000Y-3551040I-28711J-26420D01*
G03X-3888760Y-3568990I14251J-4687D01*
G37*
G36*
G01X1881620Y-3641170D02*
G02Y-3583750I-26420J28710D01*
G03X1891780I5080J5522D01*
G02Y-3641170I26420J-28710D01*
G03X1881620I-5080J-5522D01*
G37*
G36*
G01X-927280Y-3638600D02*
G02X-953220Y-3585130I-35721J15698D01*
G03X-935720Y-3576640I3764J14522D01*
G02X-909780Y-3630110I35721J-15698D01*
G03X-927280Y-3638600I-3764J-14522D01*
G37*
G36*
G01X-2447120Y-3599850D02*
G02X-2487390Y-3644240I-1626J-38986D01*
G03X-2501630Y-3631330I-14855J-2077D01*
G02X-2461360Y-3586940I1626J38986D01*
G03X-2447120Y-3599850I14855J2077D01*
G37*
G36*
G01X-3572090Y-3601150D02*
G02X-3611130Y-3640190I-20J-39020D01*
G03X-3618630Y-3632690I-7500J0D01*
G02X-3657610Y-3592340I18J39021D01*
G03X-3671030Y-3576910I-14988J515D01*
G02X-3691930Y-3568070I4094J38807D01*
G03X-3702090Y-3568580I-4804J-5759D01*
G02X-3704950Y-3511280I-27850J27331D01*
G03X-3694790Y-3510770I4804J5759D01*
G02X-3627940Y-3539430I27852J-27330D01*
G03X-3614520Y-3554860I14988J-515D01*
G02X-3579590Y-3593650I-4092J-38807D01*
G03X-3572090Y-3601150I7500J0D01*
G37*
G36*
G01X-4205250Y-3718670D02*
G02X-4245790Y-3757650I-1520J-38990D01*
G03X-4253000Y-3750150I-7500J6D01*
G02X-4279500Y-3684000I1518J38991D01*
G03X-4278780Y-3663920I-10771J10439D01*
G02X-4220870Y-3666000I29893J25080D01*
G03X-4221590Y-3686080I10771J-10439D01*
G02X-4212460Y-3711170I-29889J-25083D01*
G03X-4205250Y-3718670I7500J-6D01*
G37*
G54D29*
X1727000Y-199060D03*
G54D22*
X2300000Y-4584500D03*
X1587050Y-4800000D03*
X2146300Y-4996180D03*
X823840Y-5200000D03*
X2059010Y-5600040D03*
X2310770Y-5726760D03*
X2212030D03*
X2113280D03*
X2014530D03*
X1915790D03*
X1817040D03*
X2956300Y3746000D03*
X2345050D03*
X845050Y3700000D03*
X145050D03*
X-554950D03*
X-1284950D03*
X-2054950D03*
X-2784950D03*
X-3484950D03*
X-4184950D03*
X1598700Y3584440D03*
X-534440D03*
X-1137000D03*
X1700000Y3548000D03*
X2100000Y3545500D03*
X2571650Y3543190D03*
X-1568650Y3451500D03*
X-534440Y3421500D03*
X2268550Y3386000D03*
X1900000Y3375510D03*
X2353000Y3324510D03*
X3978700Y3300000D03*
X1700000Y3278010D03*
X3240500Y3250000D03*
X2778700D03*
X1900000Y3187710D03*
X-1459150Y3074720D03*
X-2735970Y3028220D03*
X1398700Y3014700D03*
X2612040Y3000000D03*
X492000Y2968200D03*
X-1814660Y2935220D03*
X-2361500Y2935200D03*
X3354000Y2891000D03*
X-1505650Y2838240D03*
X1783000Y2831780D03*
X-1412650Y2830960D03*
X-332800Y2828700D03*
X2100000Y2823840D03*
X1900000D03*
X-2227000Y2798700D03*
X-1861160Y2789720D03*
X1846000Y2718000D03*
X3392340Y2700000D03*
X-1615150Y2684340D03*
X2893000Y2641500D03*
X-1247330Y2620220D03*
X1900000Y2595000D03*
X-2914200Y2564340D03*
X2306500Y2530000D03*
X293000Y2527220D03*
X-31780Y2517840D03*
X-3353500D03*
X-3468700Y2505430D03*
X-2576750Y2471340D03*
X-789560Y2469550D03*
X1846000Y2465000D03*
X-3779300Y2457840D03*
X76500Y2420190D03*
X-1369740D03*
X751070Y2404220D03*
X2306500Y2400000D03*
X1338840D03*
X-308280Y2373690D03*
X-1984800Y2365000D03*
X-2600000D03*
X590200Y2357720D03*
X416000Y2341750D03*
X1736500Y2335000D03*
X-177500Y2325760D03*
X-1645160Y2318500D03*
X-2105420D03*
X-2376200D03*
X-3253500D03*
X3507660Y2300000D03*
X1098200D03*
X961840Y2278560D03*
X-4061160Y2274840D03*
X-2553500Y2272000D03*
X2306500Y2270000D03*
X339500Y2232060D03*
X1254160Y2231340D03*
X760660D03*
X636700D03*
X169500D03*
X1736500Y2205000D03*
X-1003500Y2184840D03*
X-2228420D03*
X1922500Y2154840D03*
X-379300Y2138340D03*
X-707000D03*
X-1507450D03*
X-2383370D03*
X-553500Y2091840D03*
X-2244400Y2060260D03*
X-4130250D03*
X-154780Y2015350D03*
X14720Y2015340D03*
X-360000Y2013760D03*
X-2349370D03*
X1341300Y2005200D03*
X-3301000Y1967260D03*
X3450000Y1952460D03*
X3300000D03*
X500000Y1901350D03*
X200000D03*
X-200000D03*
X-2200000D03*
X-1552160Y1895270D03*
X-500000Y1892340D03*
X-2900000D03*
X-3200000D03*
X-3600000D03*
X-4000000D03*
X-2346430Y1890760D03*
X5720Y1884240D03*
X-3696390Y1844260D03*
X2023000Y1830000D03*
X-3845220Y1800660D03*
X885340Y1799640D03*
X-53500D03*
X-1203060Y1789140D03*
X-1371600Y1761900D03*
X-1907660Y1723000D03*
X-3200000Y1707660D03*
X-4000000D03*
X1876000Y1703700D03*
X200000Y1693120D03*
X-500000D03*
X76500Y1682630D03*
X292500Y1659120D03*
X-2244550Y1650440D03*
X-2735970Y1639000D03*
X607660Y1600000D03*
X-1407660D03*
X-1592340D03*
X-1907660D03*
X-4107660D03*
X1191200Y1548700D03*
X-4245840Y1499000D03*
X546500Y1484010D03*
X822340Y1423700D03*
X-2396490Y1402500D03*
X-807000Y1392500D03*
X-2600000D03*
X-3301000D03*
X-308280Y1391720D03*
X-607000D03*
X-2145910Y1356000D03*
X496510Y1296500D03*
X-2808280Y1293000D03*
X5720Y1291720D03*
X-108280D03*
X-1407660Y1263000D03*
X-4014660Y1250000D03*
X-1768160Y1226250D03*
X915340Y1206000D03*
X801350Y1200000D03*
X-200000D03*
X-300000D03*
X-500000D03*
X-800000D03*
X-900000D03*
X-1606840D03*
X-2900000D03*
X-3000000D03*
X-3200000D03*
X-3500000D03*
X-3600000D03*
X-4292340D03*
X391720Y1192500D03*
X-3696390D03*
X-1096500Y1191720D03*
X1016850Y1159500D03*
X606030Y1103500D03*
X193000D03*
X-1454420D03*
X-1611840D03*
X-200000Y1100000D03*
X-300000D03*
X-500000D03*
X-700000D03*
X-800000D03*
X-900000D03*
X-1207000D03*
X-2900000D03*
X-3000000D03*
X-3200000D03*
X-3400000D03*
X-3500000D03*
X-3600000D03*
X-1003500Y1097610D03*
X-2499200D03*
X-1105150Y1096500D03*
X-2403500Y1091720D03*
X-3796500D03*
X-3903500D03*
X529850Y1050000D03*
X-4011830D03*
X191720Y1003500D03*
X-200000Y1000000D03*
X-300000D03*
X-500000D03*
X-700000D03*
X-800000D03*
X-2900000D03*
X-3000000D03*
X-3200000D03*
X-3400000D03*
X-3500000D03*
X-3600000D03*
X-1103510Y996500D03*
X-992500Y993000D03*
X-3900000Y992500D03*
X-2500000Y991720D03*
X-4200660Y953000D03*
X-4009180Y950000D03*
X-3791720Y903510D03*
X-1100010Y903500D03*
X-800000Y900000D03*
X-3500000D03*
X-3600000D03*
X-2201780Y896570D03*
X292500Y896500D03*
X-2296490D03*
X-2396490D03*
X-1485840Y893000D03*
X-1616830D03*
X-1786340D03*
X-3008280D03*
X-3307000D03*
X191720Y892500D03*
X-2500000Y891720D03*
X-500000Y875260D03*
X-146500Y874880D03*
X-2008130Y866940D03*
X-253500Y860260D03*
X-653500Y853500D03*
X-1103500Y807510D03*
X606000Y800000D03*
X0D03*
X-800000D03*
X-1606840D03*
X-2600000D03*
X-2700000D03*
X-3500000D03*
X-3600000D03*
X-3892500D03*
X-4107660D03*
X-4292340D03*
X291720Y796500D03*
X-1208280D03*
X98720Y795000D03*
X393000Y791730D03*
X192500Y791720D03*
X-2403500D03*
X-2500000D03*
X-3307000Y783000D03*
X-691000Y753500D03*
X-1388530Y750000D03*
X-804010Y699000D03*
X-1103500D03*
X291720Y696500D03*
X2939500Y688350D03*
X-407000Y661010D03*
X-4260660Y656940D03*
X-2815280Y646500D03*
X-2908280Y630000D03*
X-3353500D03*
X-991720Y607500D03*
X-1107500Y603500D03*
X-2291730D03*
X98720Y600000D03*
X0D03*
X-800000D03*
X-2700000D03*
X-3500000D03*
X-3600000D03*
X-3791740D03*
X292500Y596500D03*
X191720D03*
X-653500Y593000D03*
X-1203500Y591730D03*
X1016850Y576500D03*
X-311250Y569000D03*
X-150000Y509000D03*
X-1003500Y508280D03*
X-3400500Y507000D03*
X-1325580Y503500D03*
X100000Y500000D03*
X0D03*
X-1898650D03*
X-4292340D03*
X291720Y492500D03*
X-2308280D03*
X-4092660Y409000D03*
X100000Y400000D03*
X0D03*
X-300000D03*
X-500000D03*
X-600000D03*
X-2600000D03*
X-2700000D03*
X-2800000D03*
X-3200000D03*
X-3300000D03*
X-1975780Y394630D03*
X-2308280D03*
X1700000Y378040D03*
X-1309000Y319500D03*
X-4077660Y316000D03*
X100000Y300000D03*
X0D03*
X-300000D03*
X-500000D03*
X-600000D03*
X-2600000D03*
X-2700000D03*
X-2800000D03*
X-3000000D03*
X-3200000D03*
X-3300000D03*
X-2107000Y205000D03*
X100000Y200000D03*
X0D03*
X-300000D03*
X-500000D03*
X-600000D03*
X-2700000D03*
X-2800000D03*
X-3000000D03*
X-3200000D03*
X-3300000D03*
X1714100Y193840D03*
X553550Y176500D03*
X2658850Y121220D03*
X1876000D03*
X-3396500Y107500D03*
X-803500Y103940D03*
X801350Y100000D03*
X607660D03*
X-591720D03*
X-2098780D03*
X-3200000D03*
X-4292340D03*
X-2801750Y93000D03*
X-2991720D03*
X-1000000Y92500D03*
X-696500Y92000D03*
X-1107500D03*
X-7000Y91720D03*
X-3600000Y8280D03*
X-307890Y6510D03*
X-2500000Y0D03*
X-3499500D03*
X-591720Y-1000D03*
X-2907500D03*
X-3008280D03*
X-3300010D03*
X-3396490D03*
X293000Y-3500D03*
X-2807000D03*
X-8280Y-7500D03*
X-2607500Y-8280D03*
X970350Y-44500D03*
X542810D03*
X-1336370Y-50500D03*
X-1592370Y-54780D03*
X-3192500Y-91720D03*
X-3796490D03*
X-3892500D03*
X-908280Y-97000D03*
X-300000Y-100000D03*
X-600000D03*
X-700000D03*
X-1452840D03*
X-2900000D03*
X-3000000D03*
X-3300000D03*
X-3400000D03*
X-1207500Y-100250D03*
X-903500Y-192500D03*
X-1305650D03*
X-3996060Y-198690D03*
X792340Y-200000D03*
X-600000D03*
X-700000D03*
X-1592340D03*
X-1898650D03*
X-3400000D03*
X-4292340D03*
X-3903060Y-205650D03*
X-796500Y-249000D03*
X-4098650Y-279340D03*
X-500000Y-298650D03*
X-3447010D03*
X-4000000D03*
X200000Y-307660D03*
X-2500000D03*
X-2707500D03*
X-2837000D03*
X1470000Y-325640D03*
X945340D03*
X-2966940Y-337660D03*
X-4264170Y-355840D03*
X-648250Y-369340D03*
X1969000Y-427650D03*
X-1877060Y-439340D03*
X500000Y-492340D03*
X200000D03*
X0D03*
X-200000D03*
X-2200000D03*
X-2500000D03*
X-2700000D03*
X-2900000D03*
X-3014500D03*
X296500Y-493060D03*
X-900000Y-493750D03*
X-1300000Y-499990D03*
X-1499340Y-511170D03*
X-90500Y-520090D03*
X-703500Y-527760D03*
X496510Y-642340D03*
X246500D03*
X-201530D03*
X-4001840Y-675340D03*
X-2649560Y-735350D03*
X-800000Y-738330D03*
X-3186500Y-781840D03*
X-3553500Y-784650D03*
X-1912200Y-793690D03*
X-3061000Y-798250D03*
X-673500Y-835760D03*
X-868280Y-840190D03*
X-330000Y-898660D03*
X-1148240Y-941170D03*
X-2837000Y-943080D03*
X-499500Y-945160D03*
X-406500Y-952160D03*
X-3949560Y-954160D03*
X-4052150D03*
X1470000Y-967840D03*
X-627000Y-978160D03*
X-1003490Y-995650D03*
X-2460760D03*
X450010Y-999150D03*
X-237000Y-1005660D03*
X-3263000Y-1007710D03*
X-2981040Y-1009660D03*
X-3549560Y-1040710D03*
X-1892210Y-1042150D03*
X-2072890D03*
X-859500Y-1054660D03*
X-4066500D03*
X1645200Y-1056000D03*
X643440Y-1059150D03*
X-103060Y-1068650D03*
X-1622370Y-1088650D03*
X-3903060Y-1119340D03*
X-1424250Y-1158660D03*
X801910Y-1178040D03*
X-1647320Y-1185910D03*
X-3200000Y-1198650D03*
X200000Y-1207660D03*
X-900000D03*
X-1300000D03*
X-2200000D03*
X-2517950D03*
X-3600000D03*
X-4000000D03*
X-2633000Y-1239340D03*
X-703500Y-1252840D03*
X-1499270Y-1253860D03*
X1014660Y-1264000D03*
X596940Y-1286560D03*
X-833060Y-1299340D03*
X-4206000Y-1308000D03*
X-641850Y-1345840D03*
X1014670Y-1387000D03*
X-3200000Y-1392340D03*
X-4000000D03*
X-1300000Y-1394280D03*
X-2679500Y-1395170D03*
X-3346500D03*
X-3043060Y-1398000D03*
X3342200Y-1400000D03*
X-1545770Y-1407000D03*
X-2061930D03*
X-500000Y-1413000D03*
X-330000Y-1431000D03*
X449560Y-1453500D03*
X-1003500D03*
X-684500Y-1491000D03*
X-2746500D03*
X-2907000D03*
X-1592340Y-1500000D03*
X-1898650D03*
X-196060Y-1507500D03*
X-1320130Y-1515280D03*
X1938100Y-1533060D03*
X-4066500Y-1561500D03*
X91720Y-1597000D03*
X-300000D03*
X-607500D03*
X-908280D03*
X2292340Y-1600000D03*
X2107660D03*
X1692340D03*
X1207660D03*
X-1207500Y-1608280D03*
X-1301250D03*
X754850Y-1610500D03*
X-1924060Y-1647000D03*
X1169850Y-1687000D03*
X2607660Y-1700000D03*
X607670Y-1733500D03*
X-800000Y-1791720D03*
X-608000Y-1805000D03*
X-3796500Y-1806390D03*
X-896660Y-1807500D03*
X-504740Y-1808280D03*
X1216350Y-1826560D03*
X1901700Y-1873060D03*
X297730Y-1891720D03*
X-1301250D03*
X-3599000Y-1899360D03*
X1778700Y-1900000D03*
X801350D03*
X-200000D03*
X-300000D03*
X-800000D03*
X-1592340D03*
X-3000000D03*
X-3200000D03*
X-3500000D03*
X403060Y-1904140D03*
X-491720Y-1905000D03*
X-2308280Y-1907500D03*
X-1194740Y-1907890D03*
X-3800500Y-1908280D03*
X-2191000Y-1954000D03*
X-2029340Y-1988020D03*
X-1301250Y-1991720D03*
X-200000Y-2000000D03*
X-300000D03*
X-500000D03*
X-3000000D03*
X-3200000D03*
X-895000Y-2008280D03*
X-2307500D03*
X-2508280D03*
X-3693000D03*
X-3800500D03*
X-1571660Y-2015280D03*
X577660Y-2046500D03*
X-1003500Y-2091720D03*
X-1097980D03*
X-200000Y-2100000D03*
X-300000D03*
X-500000D03*
X-3503060Y-2101000D03*
X-3598990D03*
X2377150Y-2103060D03*
X-3696490Y-2103500D03*
X-3991720D03*
X-2801000Y-2105000D03*
X293000Y-2108280D03*
X-907500D03*
X-2491750D03*
X-3005000D03*
X-3200000D03*
X-3798870D03*
X-1770560Y-2144000D03*
X-1003500Y-2192490D03*
X-103060Y-2199000D03*
X-1953860Y-2200000D03*
X-1194740Y-2203500D03*
X-703580Y-2204720D03*
X-800000Y-2205000D03*
X-3893500Y-2205890D03*
X500000Y-2206770D03*
X-3595000Y-2207000D03*
X-3691720D03*
X-3796500D03*
X396500Y-2207500D03*
X-903500D03*
X-2191000Y-2246500D03*
X-557070Y-2277310D03*
X2303440Y-2293500D03*
X1675000D03*
X-1004980Y-2296500D03*
X607660Y-2300000D03*
X496060D03*
X0D03*
X-2092340D03*
X-2600000D03*
X-2700000D03*
X-3500000D03*
X-3791720D03*
X-4009000Y-2303500D03*
X-891720Y-2305000D03*
X-3891720Y-2307500D03*
X303500Y-2308280D03*
X-795000D03*
X-2983060Y-2308500D03*
X1294800Y-2309770D03*
X-2853500Y-2317000D03*
X-207000Y-2348290D03*
X-633500D03*
X3278300Y-2355640D03*
X3070190D03*
X-1735160Y-2393500D03*
X7000Y-2395000D03*
X2492340Y-2400000D03*
X2291940D03*
X-100000Y-2405000D03*
X-338720Y-2445720D03*
X-4009000Y-2454000D03*
X730650Y-2486000D03*
X-3250440Y-2487440D03*
X-3346500D03*
X-3796500Y-2491720D03*
X198250Y-2492500D03*
X621660Y-2496500D03*
X100000D03*
X-800000Y-2500000D03*
X-2600000D03*
X-2700000D03*
X-3491720D03*
X-4010Y-2501000D03*
X-153500D03*
X396500Y-2503500D03*
X-1091720Y-2505720D03*
X-1194740Y-2507500D03*
X509000Y-2550000D03*
X-1601660Y-2567490D03*
X-1745090Y-2567500D03*
X192500Y-2591720D03*
X-100000D03*
X-992500D03*
X-1101570Y-2598720D03*
X1700000Y-2600000D03*
X1600000D03*
X1500000D03*
X792340D03*
X-2600000D03*
X-2700000D03*
X-701000Y-2601000D03*
X-3692500Y-2601750D03*
X100000Y-2603950D03*
X-4092660Y-2649000D03*
X-1407660Y-2650000D03*
X509000Y-2650450D03*
X-1579910Y-2666940D03*
X-305000Y-2691720D03*
X-991720Y-2692500D03*
X-1101570D03*
X-3894110D03*
X193000Y-2696950D03*
X1700000Y-2700000D03*
X1600000D03*
X1500000D03*
X-100000D03*
X-500000D03*
X-600000D03*
X-3000000D03*
X-3200000D03*
X-3300000D03*
X-3691720Y-2703500D03*
X7000Y-2708280D03*
X1279700Y-2725000D03*
X-1398900Y-2750000D03*
X-4107660Y-2767190D03*
X1082810Y-2771500D03*
X292500Y-2791720D03*
X-3807500D03*
X-1101740Y-2792490D03*
X391720Y-2792500D03*
X-991720D03*
X-2695000Y-2792990D03*
X-3708280Y-2796500D03*
X1700000Y-2800000D03*
X1600000D03*
X1500000D03*
X100000D03*
X-100000D03*
X-300000D03*
X-500000D03*
X-600000D03*
X-2807000D03*
X-3000000D03*
X-3200000D03*
X-3300000D03*
X-2591720Y-2802000D03*
X-7000Y-2808280D03*
X-2392500D03*
X-3903500D03*
X1912600Y-2825000D03*
X-2131000Y-2838720D03*
X1273950Y-2869990D03*
X-1003500Y-2891720D03*
X-3798720D03*
X-2608280Y-2895000D03*
X-2705000D03*
X292110Y-2896500D03*
X100000D03*
X-300000Y-2900000D03*
X-3200000D03*
X-3300000D03*
X-3691720Y-2907500D03*
X1911500Y-2918500D03*
X1285450Y-2965660D03*
X-696500Y-2991720D03*
X-2207500D03*
X-2900000D03*
X-3396500D03*
X100000Y-2992500D03*
X1994710Y-2995000D03*
X-492500Y-2998250D03*
X792340Y-3000000D03*
X-1594360D03*
X-2110500D03*
X-3200000D03*
X-4107660D03*
X0Y-3003500D03*
X-201750D03*
X-596490D03*
X-3496490D03*
X-1003500Y-3007500D03*
X203500Y-3008280D03*
X-300000D03*
X-3797610D03*
X1725000Y-3041500D03*
X1901700Y-3089960D03*
X100000Y-3091720D03*
X-102300Y-3092500D03*
X-2701280D03*
X-2907000D03*
X-3292500Y-3093000D03*
X-900000Y-3095640D03*
X407500Y-3096500D03*
X-3396490D03*
X546500Y-3097040D03*
X-500000Y-3100000D03*
X-203500Y-3101000D03*
X-308280D03*
X-600250D03*
X-3007500D03*
X-3791720Y-3103500D03*
X-3891720Y-3107500D03*
X-2207500Y-3108280D03*
X-2403060D03*
X-2708280Y-3191720D03*
X-3603500D03*
X-1103500Y-3192500D03*
X300000Y-3193000D03*
X1675000Y-3197150D03*
X-1003500Y-3197780D03*
X-200000Y-3200000D03*
X-300000D03*
X-600000D03*
X-3000000D03*
X-3300000D03*
X-3400000D03*
X-2060570Y-3203500D03*
X-2399780D03*
X-500000Y-3208280D03*
X-3696500Y-3291720D03*
X193000Y-3292500D03*
X1633060Y-3299640D03*
X1372700D03*
X-3393000Y-3299980D03*
X1006800Y-3300000D03*
X801350D03*
X-200000D03*
X-300000D03*
X-1592340D03*
X-1907660D03*
X-2700000D03*
X-4292340D03*
X2301940Y-3300360D03*
X-950000Y-3309000D03*
X-2950000D03*
X-1050000Y-3311830D03*
X-453500Y-3314660D03*
X-3550000Y-3338220D03*
X298250Y-3339000D03*
X2771220Y-3368340D03*
X-3743000Y-3384720D03*
X1500000Y-3393980D03*
X1300000D03*
X200000Y-3398650D03*
X2000000Y-3399980D03*
X-500000Y-3407660D03*
X-3200000D03*
X-2400000Y-3407670D03*
X-1366520Y-3451330D03*
X-1029940Y-3462590D03*
X-312900Y-3469340D03*
X-1626900Y-3475040D03*
X-1147000Y-3477290D03*
X-4066940Y-3492340D03*
X-1473900Y-3498740D03*
X-2279700Y-3500670D03*
X-4248890Y-3538840D03*
X609570Y-3545840D03*
X-2807000Y-3547170D03*
X-2353500Y-3569760D03*
X-1076440Y-3591750D03*
X514040Y-3592340D03*
X-2200000D03*
X-2700000D03*
X-2900000D03*
X-3056560D03*
X-3200000D03*
X-807000Y-3622900D03*
X2377160Y-3672700D03*
X-3385330Y-3694970D03*
X-3796430D03*
X-650990Y-3715900D03*
X-166060Y-3728840D03*
X-558720D03*
X1318250Y-3745340D03*
X400060D03*
X266940D03*
X146510D03*
X1453980Y-3749200D03*
X-3960440Y-3757660D03*
X-256530Y-3775340D03*
X2267660Y-3795700D03*
X1855200D03*
X2131170Y-3800520D03*
X-4113440Y-3804160D03*
G54D30*
X3500000Y-1732280D03*
X2187220Y-2529840D03*
Y-2771140D03*
Y-3197860D03*
G54D25*
X4146200Y-4984200D03*
X2596800D03*
G54D23*
X3943000Y-4654000D03*
X3689000D03*
X3435000D03*
X3181000D03*
X2927000D03*
X1100000Y-4700000D03*
X846000D03*
X-1041400Y-5273040D03*
X4200000Y3200000D03*
Y2946000D03*
X1300000Y2700000D03*
X1046000D03*
X792000D03*
X538000D03*
X284000D03*
X30000D03*
X-224000D03*
X-478000D03*
X-732000D03*
X-2354000D03*
X-2862000D03*
X-3370000D03*
X-3624000D03*
X-3878000D03*
X-4132000D03*
X4200000Y2692000D03*
X2500000Y2500000D03*
X4200000Y2438000D03*
X2500000Y2246000D03*
X2230000Y1830000D03*
X1470000D03*
Y1575000D03*
X2230000Y1325000D03*
X1470000D03*
X2230000Y1070000D03*
X1470000D03*
G54D26*
X3943000Y-5289000D03*
X2800000D03*
G54D24*
X-100000Y-4600000D03*
X408000Y-4917500D03*
X-100000Y-5235000D03*
G54D27*
X4034440Y-5695400D03*
X3780440D03*
X2962560D03*
X2708560D03*
G54D28*
X4100000Y352500D03*
X2195000D03*
X4100000Y35000D03*
Y-282500D03*
Y-600000D03*
X2195000D03*
G54D15*
X1473000Y-500940D03*
X1727000Y-199060D03*
Y-699060D03*
G54D10*
X-3933060Y-3475840D03*
X-4000000Y-3592340D03*
X-4292340Y-3300000D03*
X-3954660Y-3337700D03*
X-4248890Y-3638840D03*
X-3907000Y-3603480D03*
X-3908160Y-3293150D03*
X-3960440Y-3757660D03*
X-4206770D03*
X-4251480Y-3711160D03*
X-4113440Y-3804160D03*
X-4066940Y-3492340D03*
X-3933060Y-3538840D03*
X-4248890D03*
X-4107660Y-3000000D03*
X-4230660Y-2870500D03*
X-4292340Y-3006940D03*
X-4292320Y-3069940D03*
X-4107660Y-2767190D03*
X-3894110Y-2692500D03*
X-3891720Y-3107500D03*
X-3903500Y-2808280D03*
X-4260650Y-2807500D03*
X-4092660Y-2649000D03*
X-4009000Y-2454000D03*
X-3891720Y-2500500D03*
X-3894660Y-2591720D03*
X-4086000Y-1987000D03*
Y-2050000D03*
X-3992500Y-2203500D03*
X-3991720Y-2103500D03*
X-3893500Y-2205890D03*
X-3891720Y-2307500D03*
X-4055500Y-2203500D03*
X-4009500Y-1804500D03*
X-4056000Y-1851000D03*
X-4009000Y-2303500D03*
X-4113000Y-1401000D03*
X-4000000Y-1392340D03*
X-4176000Y-1401000D03*
X-4000000Y-1207660D03*
X-4200660Y-1000660D03*
X-4066500Y-1054660D03*
Y-1561500D03*
X-4154160Y-1131160D03*
X-3903060Y-1119340D03*
X-4052150Y-954160D03*
X-3949560D03*
X-4206000Y-1308000D03*
Y-1084660D03*
X-4000000Y-298650D03*
Y-509340D03*
X-4292340Y-200000D03*
X-4098650Y-279340D03*
X-3997040Y-582340D03*
X-3903060Y-205650D03*
X-4001840Y-675340D03*
X-4264170Y-355840D03*
X-3892500Y-91720D03*
X-3996060Y-198690D03*
X-4107660Y100000D03*
X-4292340Y500000D03*
Y100000D03*
X-4092660Y409000D03*
X-4077660Y316000D03*
X-4107660Y163000D03*
X-4260660Y656940D03*
X-4107660Y800000D03*
X-4292340Y1200000D03*
Y800000D03*
X-4011830Y1050000D03*
X-3900000Y992500D03*
X-4200660Y953000D03*
X-4009180Y950000D03*
X-3892500Y800000D03*
X-4014660Y1250000D03*
X-3903500Y1091720D03*
X-3891720Y1192500D03*
X-4000000Y1707660D03*
X-4107660Y1600000D03*
X-4000000Y1892340D03*
X-4292340Y1600000D03*
X-4260150Y1666940D03*
X-4245840Y1499000D03*
X-4130250Y2060260D03*
X-4061160Y2274840D03*
X-4184950Y3700000D03*
X-3200000Y-3407660D03*
X-3393000Y-3299980D03*
X-3400000Y-3200000D03*
X-3666940Y-3538100D03*
X-3200000Y-3592340D03*
X-3300000Y-3200000D03*
Y-3329980D03*
X-3385330Y-3694970D03*
X-3603500Y-3191720D03*
X-3550000Y-3338220D03*
X-3346500Y-3384720D03*
X-3796430Y-3694970D03*
X-3696500Y-3291720D03*
X-3729940Y-3541250D03*
X-3618610Y-3593670D03*
X-3743000Y-3384720D03*
X-3572110Y-3640170D03*
X-3200000Y-3000000D03*
Y-2700000D03*
Y-2800000D03*
Y-2900000D03*
X-3491720Y-2500000D03*
X-3300000Y-2700000D03*
Y-2800000D03*
X-3600000Y-2500000D03*
X-3300000Y-2900000D03*
X-3292500Y-3093000D03*
X-3396500Y-2991720D03*
X-3396490Y-3096500D03*
X-3603500Y-3091720D03*
X-3691720Y-3092500D03*
X-3808280Y-2603500D03*
X-3691720Y-2703500D03*
X-3807500Y-2791720D03*
X-3796500Y-2692500D03*
X-3346500Y-2487440D03*
X-3708280Y-2796500D03*
X-3791720Y-3103500D03*
X-3797610Y-3008280D03*
X-3798720Y-2891720D03*
X-3691720Y-2907500D03*
X-3496490Y-3003500D03*
X-3796500Y-2491720D03*
X-3250440Y-2487440D03*
X-3692500Y-2601750D03*
X-3691720Y-2503500D03*
X-3500000Y-2300000D03*
X-3600000D03*
X-3200000Y-2108280D03*
X-3596060Y-2008000D03*
X-3595000Y-2207000D03*
X-3503060Y-2101000D03*
X-3200000Y-2000000D03*
X-3507740D03*
X-3200000Y-1900000D03*
X-3500000D03*
X-3393000Y-2207000D03*
Y-2304480D03*
X-3800500Y-2008280D03*
X-3696490Y-2103500D03*
X-3693000Y-2008280D03*
X-3798870Y-2108280D03*
X-3598990Y-2101000D03*
X-3796500Y-2207000D03*
X-3691720D03*
X-3791720Y-2300000D03*
X-3691720Y-2307500D03*
X-3346500Y-2256720D03*
X-3796500Y-1806390D03*
X-3800500Y-1908280D03*
X-3599000Y-1899360D03*
X-3250440Y-2270480D03*
X-3166060Y-2262000D03*
X-3200000Y-1392340D03*
Y-1198650D03*
X-3600000Y-1207660D03*
X-3263000Y-1007710D03*
X-3847000Y-1491000D03*
X-3645500D03*
X-3549560Y-1040710D03*
X-3119560Y-1009660D03*
X-3707500Y-1444500D03*
X-3439500Y-1209340D03*
X-3346500Y-1395170D03*
X-3754000Y-1491000D03*
X-3503060Y-1152150D03*
X-3735060Y-831160D03*
X-3166060Y-1054210D03*
X-3346500Y-291180D03*
X-3200000Y-298650D03*
X-3400000Y-100000D03*
Y-200000D03*
X-3200000Y-492340D03*
X-3600000D03*
X-3300000Y-100000D03*
Y-239500D03*
X-3263000Y-492340D03*
X-3192500Y-91720D03*
X-3447010Y-298650D03*
X-3186500Y-781840D03*
X-3154000Y-237550D03*
X-3676500Y-522340D03*
X-3688560Y-784660D03*
X-3666940Y-439340D03*
X-3592500Y-97610D03*
X-3570010Y-209000D03*
X-3503500Y-108280D03*
X-3646000Y-209000D03*
X-3796490Y-91720D03*
X-3553500Y-784650D03*
X-3201000Y-193000D03*
X-3200000Y100000D03*
X-3300010Y-1000D03*
X-3200000Y400000D03*
Y300000D03*
Y200000D03*
X-3300000Y400000D03*
X-3500000Y600000D03*
X-3300000Y300000D03*
X-3600000Y600000D03*
X-3300000Y200000D03*
X-3207000Y499000D03*
X-3396500Y107500D03*
X-3400500Y507000D03*
X-3791740Y600000D03*
X-3396490Y-1000D03*
X-3499500Y0D03*
X-3600000Y8280D03*
X-3160500Y553500D03*
X-3353500Y630000D03*
X-3500000Y800000D03*
X-3600000D03*
X-3200000Y1000000D03*
X-3400000D03*
X-3200000Y1100000D03*
X-3500000Y900000D03*
X-3400000Y1100000D03*
X-3500000Y1000000D03*
Y1100000D03*
X-3200000Y1200000D03*
X-3600000Y900000D03*
X-3400000Y1200000D03*
X-3600000Y1000000D03*
X-3500000Y1200000D03*
X-3600000Y1100000D03*
Y1200000D03*
X-3707500Y1002390D03*
X-3696490Y1092500D03*
X-3791720Y903510D03*
X-3301000Y1392500D03*
X-3407000Y1292500D03*
X-3803500Y1207500D03*
X-3796500Y1091720D03*
X-3307000Y893000D03*
X-3696390Y1192500D03*
X-3307000Y783000D03*
X-3200000Y1707660D03*
Y1892340D03*
X-3600000D03*
X-3845220Y1800660D03*
X-3453500Y1968840D03*
X-3301000Y1967260D03*
X-3407000Y2013760D03*
X-3712900Y2184840D03*
X-3696390Y1844260D03*
X-3547500Y2365000D03*
X-3468700Y2505430D03*
X-3649890Y2231340D03*
X-3553500Y2277840D03*
X-3253500Y2318500D03*
X-3353500Y2517840D03*
X-3779300Y2457840D03*
X-3484950Y3700000D03*
X-2807000Y-3547170D03*
X-2353500Y-3569760D03*
X-2500000Y-3407660D03*
X-3050000Y-3339460D03*
X-3000000Y-3200000D03*
X-2500000Y-3592340D03*
X-2700000D03*
X-2900000D03*
X-2950000Y-3309000D03*
X-2563530Y-3346500D03*
X-2708280Y-3191720D03*
X-2448750Y-3638840D03*
X-2996500Y-3395840D03*
X-3056560Y-3592340D03*
X-3103060Y-3395840D03*
X-2400000Y-3407670D03*
X-2700000Y-3300000D03*
X-2400000D03*
X-2399780Y-3203500D03*
X-2807000Y-3091720D03*
X-3007500Y-3101000D03*
X-2807000Y-2998720D03*
X-2907000Y-3092500D03*
X-2701280D03*
X-2900000Y-2991720D03*
X-2700000Y-2500000D03*
X-2600000D03*
X-2900000Y-2694990D03*
Y-2605000D03*
X-2608280Y-2895000D03*
X-2705000D03*
X-2695000Y-2792990D03*
X-3000000Y-2700000D03*
Y-2800000D03*
X-2700000Y-2600000D03*
X-3000000Y-2900000D03*
X-2600000Y-2600000D03*
X-3003500Y-2992500D03*
X-2807000Y-2800000D03*
X-2591720Y-2802000D03*
X-2392500Y-2808280D03*
X-2403060Y-3108280D03*
X-2491750Y-2108280D03*
X-3005000D03*
X-3000000Y-2000000D03*
Y-1900000D03*
X-2801000Y-2105000D03*
X-2700000Y-2300000D03*
X-2600000D03*
X-2983060Y-2308500D03*
X-2853500Y-2317000D03*
X-2508280Y-2008280D03*
X-2847500Y-1122910D03*
X-2920060Y-1135650D03*
X-3026560Y-1100710D03*
X-2424950Y-1135150D03*
X-2649560Y-948160D03*
X-2500000Y-1392340D03*
X-2517950Y-1207660D03*
X-2900000Y-1198650D03*
X-3043060Y-1398000D03*
X-2565530Y-1444500D03*
X-2460760Y-995650D03*
X-2556560Y-1084660D03*
X-2679500Y-1395170D03*
X-2746500Y-1491000D03*
X-2907000D03*
X-2981040Y-1009660D03*
X-3073060Y-1168650D03*
X-2837000Y-943080D03*
X-2801000Y-1169410D03*
X-2633000Y-1239340D03*
X-2469500Y-1088650D03*
X-2714000Y-937660D03*
X-3014500Y-492340D03*
X-2920060Y-782550D03*
X-2649560Y-735350D03*
X-2500000Y-307660D03*
X-3000000Y-100000D03*
Y-200000D03*
X-2500000Y-492340D03*
X-2700000D03*
X-2900000D03*
X-2937000Y-209000D03*
X-2900000Y-100000D03*
X-2556560Y-790080D03*
X-2966940Y-735340D03*
Y-337660D03*
X-3061000Y-798250D03*
X-2707500Y-307660D03*
X-2837000D03*
X-2491010Y-738330D03*
X-2807000Y-3500D03*
X-3008280Y-1000D03*
X-2801750Y93000D03*
X-2991720D03*
X-2907500Y-1000D03*
X-2700000Y600000D03*
X-2600000D03*
Y205000D03*
Y508280D03*
X-3008280Y495000D03*
X-2809000Y550000D03*
X-2800000Y400000D03*
X-3000000Y300000D03*
X-2700000Y400000D03*
X-2800000Y300000D03*
X-2700000D03*
X-3000000Y200000D03*
X-2600000Y400000D03*
X-2800000Y200000D03*
X-2600000Y300000D03*
X-2700000Y200000D03*
X-3008280Y567010D03*
X-2500000Y0D03*
X-2908280Y630000D03*
X-2872000Y539000D03*
X-2407000Y607500D03*
X-2815280Y646500D03*
X-2500000Y607500D03*
X-2507500Y205000D03*
X-2607500Y-8280D03*
X-3000000Y1000000D03*
Y1100000D03*
Y1200000D03*
X-2900000Y1000000D03*
X-2700000Y800000D03*
X-2900000Y1100000D03*
X-2600000Y800000D03*
X-2900000Y1200000D03*
X-3008280Y893000D03*
X-2396490Y1402500D03*
X-2391720Y1196500D03*
X-2808280Y1293000D03*
X-2396490Y896500D03*
X-2500000Y891720D03*
X-2815290Y850010D03*
X-2403500Y791720D03*
X-2500000D03*
X-2908280Y846500D03*
X-2600000Y1392500D03*
X-2861790Y769500D03*
X-2403500Y1091720D03*
X-2499200Y1097610D03*
X-2396500Y991720D03*
X-2500000D03*
Y1707660D03*
Y1901350D03*
X-2900000Y1892340D03*
X-2383370Y2138340D03*
X-2499200Y1639000D03*
X-2735970D03*
X-2526350Y1967260D03*
X-2349370Y2013760D03*
X-2553500Y2272000D03*
X-2914200Y2564340D03*
X-3066650Y2584800D03*
X-2361500Y2935200D03*
X-2600000Y2365000D03*
X-2376200Y2318500D03*
X-2576750Y2471340D03*
X-2689470Y2601300D03*
X-2735970Y3028220D03*
X-2784950Y3700000D03*
X-1845310Y-3404830D03*
X-1592340Y-3300000D03*
X-1907660D03*
X-2200000Y-3592340D03*
X-1890860Y-3192500D03*
X-1796450Y-3454170D03*
X-2279700Y-3500670D03*
X-1953860Y-3199750D03*
X-1626900Y-3475040D03*
X-2326200Y-3311830D03*
X-2060570Y-3203500D03*
X-2207500Y-3108280D03*
Y-2608280D03*
Y-2991720D03*
X-2110500Y-3000000D03*
X-1907660Y-2533070D03*
X-1898650Y-2600000D03*
X-1594360Y-3000000D03*
X-1907660D03*
X-1601660Y-2567490D03*
X-2208280Y-2500000D03*
X-1907660Y-2663000D03*
X-1741530Y-2935010D03*
X-1907660Y-2937000D03*
X-2157270Y-2546500D03*
X-1754660Y-2660500D03*
X-1735160Y-2393500D03*
X-2131000Y-2838720D03*
X-1955830Y-2888510D03*
X-1691360Y-2996800D03*
X-1737860Y-3049140D03*
X-1698590Y-2723000D03*
X-1745090Y-2567500D03*
X-2092340Y-2300000D03*
X-1754660D03*
X-1898650Y-1900000D03*
X-1592340D03*
X-1770560Y-2144000D03*
X-1953860Y-2200000D03*
X-2072530Y-2144020D03*
X-2060370Y-2081020D03*
X-1924060Y-1647000D03*
X-1754660Y-2237000D03*
X-2191000Y-1954000D03*
X-1946600Y-2037500D03*
X-2029340Y-1988020D03*
X-2308280Y-1907500D03*
X-2191000Y-2246500D03*
X-1892840Y-1991000D03*
X-2307500Y-2008280D03*
X-1951910Y-1185910D03*
X-1894140Y-1139410D03*
X-2106450Y-1500000D03*
X-1898650D03*
X-1592340D03*
X-2200000Y-1207660D03*
X-1907360Y-1237660D03*
X-2155450Y-1453500D03*
X-1647320Y-1185910D03*
X-2072890Y-1042150D03*
X-1892210D03*
X-2061930Y-1407000D03*
X-1622370Y-1088650D03*
X-1912200Y-793690D03*
X-1898650Y-200000D03*
X-1592340D03*
X-2200000Y-492340D03*
X-1877060Y-439340D03*
X-1592370Y-54780D03*
X-1907660Y163000D03*
X-2098780Y100000D03*
X-1612400Y500000D03*
X-1898650D03*
Y100000D03*
X-1592340D03*
X-1663340Y656000D03*
X-1663330Y593000D03*
X-2308280Y394630D03*
X-1975780D03*
X-1953860Y667550D03*
X-1606400Y423000D03*
X-1600330Y593300D03*
X-1607370Y251500D03*
X-2291730Y603500D03*
X-2308280Y492500D03*
X-2107000Y205000D03*
X-1607360Y163000D03*
X-1892840Y623000D03*
X-1622400Y314500D03*
X-2008130Y866940D03*
X-1939340Y733060D03*
X-1606840Y1200000D03*
Y800000D03*
X-1907660Y1200000D03*
X-2145910Y1356000D03*
X-2191000Y1226500D03*
X-1861160Y1263000D03*
X-2128000D03*
X-2101130Y1096500D03*
X-2307500Y1191720D03*
X-2296490Y896500D03*
X-1768160Y1226250D03*
X-1611840Y1103500D03*
X-1616830Y893000D03*
X-1786340D03*
X-2145680Y1050000D03*
X-2190540Y1096500D03*
X-2201780Y896570D03*
X-2307500Y991920D03*
X-2092340Y1600000D03*
X-2200000Y1901350D03*
X-1592340Y1600000D03*
X-1907660D03*
X-1598660Y1769500D03*
X-2044000D03*
X-2244550Y1650440D03*
X-2107000Y1797760D03*
X-2153500Y1539000D03*
X-1907660Y1723000D03*
X-2244400Y2060260D03*
X-2346430Y1890760D03*
X-2228420Y2184840D03*
X-2045900Y1844260D03*
X-1984800Y2743220D03*
Y2365000D03*
X-1814660Y2935220D03*
X-1861160Y2789720D03*
X-2227000Y2798700D03*
X-1615150Y2684340D03*
X-1645160Y2318500D03*
X-2105420D03*
X-1598650Y2471340D03*
X-1984800Y2620220D03*
X-2054950Y3700000D03*
X-1366930Y-3596350D03*
X-1366520Y-3451330D03*
X-900000Y-3592340D03*
X-1300000Y-3591740D03*
X-963000Y-3622900D03*
X-1029940Y-3462590D03*
X-1003500Y-3197780D03*
X-950000Y-3309000D03*
X-1103500Y-3192500D03*
X-1147000Y-3477290D03*
X-1050000Y-3311830D03*
X-1076440Y-3591750D03*
X-1473900Y-3498740D03*
X-1446650Y-2396500D03*
X-1398650Y-3000000D03*
X-1579910Y-2666940D03*
X-900000Y-2500000D03*
X-1097970Y-2391720D03*
X-1407660Y-2650000D03*
X-1101570Y-2598720D03*
X-991720Y-2692500D03*
X-1398900Y-2750000D03*
X-1101570Y-2692500D03*
X-991720Y-2792500D03*
X-1103500Y-3007500D03*
X-1003500D03*
X-900000Y-3095640D03*
X-1377750Y-2403500D03*
X-1003490Y-2407000D03*
X-991720Y-2492500D03*
X-1194740Y-2507500D03*
X-1091720Y-2505720D03*
X-992500Y-2591720D03*
X-1101740Y-2792490D03*
X-1003500Y-2891720D03*
X-1191720Y-2992500D03*
X-1335650Y-3002000D03*
X-891720Y-2305000D03*
X-895000Y-2008280D03*
X-1003500Y-2192490D03*
X-903500Y-2207500D03*
X-1004980Y-2296500D03*
X-1207500Y-1608280D03*
X-1301250D03*
Y-1891720D03*
X-896660Y-1807500D03*
X-1301250Y-1991720D03*
X-1194740Y-1907890D03*
X-1101740Y-1991720D03*
X-1097980Y-1907500D03*
X-1301250Y-2108280D03*
X-1192500Y-2008280D03*
X-1097980Y-2091720D03*
X-1003500D03*
X-1301250Y-2197610D03*
X-1194740Y-2203500D03*
X-1101740Y-2303500D03*
X-907500Y-2108280D03*
X-908280Y-1597000D03*
X-1571660Y-2015280D03*
X-868280Y-840190D03*
X-1545770Y-1407000D03*
X-1300000Y-1394280D03*
X-900000Y-1207660D03*
X-1300000D03*
X-1320130Y-1515280D03*
X-833060Y-1299340D03*
X-1424250Y-1158660D03*
X-859500Y-1054660D03*
X-1313340Y-949150D03*
X-1148240Y-941170D03*
X-1003490Y-995650D03*
X-1003500Y-1453500D03*
X-1049990Y-1206180D03*
X-1096490Y-1280730D03*
X-1376340Y-949150D03*
X-1499270Y-1253860D03*
X-1452840Y-100000D03*
X-1300000Y-307660D03*
X-900000Y-493750D03*
X-1300000Y-499990D03*
X-1499340Y-511170D03*
X-908280Y-97000D03*
X-1103500Y-453490D03*
X-1207500Y-100250D03*
X-1150000Y-517910D03*
X-1376340Y-307660D03*
X-1305650Y-192500D03*
X-903500D03*
X-1358660Y52500D03*
X-1407660Y100000D03*
X-1336370Y-50500D03*
X-1545840Y376500D03*
X-1313500Y618150D03*
X-1203500Y591730D03*
X-1107500Y603500D03*
X-991720Y607500D03*
X-1376500Y639800D03*
X-1325580Y503500D03*
X-1003500Y508280D03*
X-1107500Y92000D03*
X-1103500Y699000D03*
X-1552160Y647900D03*
X-1000000Y92500D03*
X-896490Y-4000D03*
X-1309000Y319500D03*
X-1485840Y893000D03*
X-900000Y1100000D03*
Y1200000D03*
X-1454420Y1103500D03*
X-1203500Y903500D03*
X-1434940Y1356000D03*
X-1100010Y903500D03*
X-991720Y892500D03*
X-1388530Y750000D03*
X-1330000Y991720D03*
X-1208280Y796500D03*
X-1103500Y807510D03*
X-1003500D03*
X-1539360Y1402500D03*
X-1497940Y1339500D03*
X-1407660Y1263000D03*
X-1096500Y1191720D03*
X-1207000Y1100000D03*
X-1105150Y1096500D03*
X-1003500Y1097610D03*
X-1330000Y912610D03*
X-1203500Y991720D03*
X-1103510Y996500D03*
X-992500Y993000D03*
X-1407660Y1600000D03*
X-1371600Y1761900D03*
X-900000Y1895270D03*
X-1300000Y1901350D03*
X-1507610Y1782660D03*
X-1552160Y1895270D03*
X-1203060Y1789140D03*
X-1554110Y1723000D03*
X-1103500Y1724170D03*
X-1003500Y2184840D03*
Y1599110D03*
X-1507450Y2138340D03*
X-1302110Y1967260D03*
X-953000D03*
X-1351800Y2013760D03*
X-1056990Y1776000D03*
X-1052520Y1645610D03*
X-1259650Y2888700D03*
X-1505650Y2838240D03*
X-1107000Y2743220D03*
X-1369740Y2420190D03*
X-1200830Y2816940D03*
X-1412650Y2830960D03*
X-1247330Y2620220D03*
X-961600Y2573720D03*
X-1033330Y2517840D03*
X-1552150Y2424840D03*
X-1284950Y3700000D03*
X-1137000Y3584440D03*
X-1459150Y3074720D03*
X-1412650Y3421500D03*
X-1568650Y3451500D03*
X-1336150Y3375000D03*
X-256530Y-3775340D03*
X-585720Y-3562340D03*
X-63000Y-3592620D03*
Y-3398650D03*
X-650990Y-3715900D03*
X-453500Y-3314660D03*
X-500000Y-3208280D03*
X-312900Y-3469340D03*
X-500000Y-3407660D03*
X-604490Y-3363000D03*
X-700000Y-3192500D03*
X-300000Y-3200000D03*
Y-3300000D03*
X-200000Y-3592340D03*
X-500000D03*
X-200000Y-3200000D03*
X-600000D03*
X-200000Y-3300000D03*
X-600000D03*
X-278280Y-3592340D03*
X-356560Y-3592620D03*
X-702230Y-3358330D03*
X-166060Y-3728840D03*
X-558720D03*
X-750000Y-3311830D03*
X-807000Y-3622900D03*
X-492500Y-2998250D03*
X-696500Y-2991720D03*
X-453500Y-2585220D03*
X-103060Y-2992500D03*
X-500000Y-3100000D03*
X-308280Y-3101000D03*
X-102300Y-3092500D03*
X-596490Y-3003500D03*
X-600250Y-3101000D03*
X-591720Y-2900000D03*
X-407000Y-2520010D03*
X-203500Y-3101000D03*
X-201750Y-3003500D03*
X-300000Y-3008280D03*
X-100000Y-2405000D03*
X-500000Y-2700000D03*
Y-2800000D03*
Y-2900000D03*
X-100000Y-2591720D03*
X-305000Y-2691720D03*
X-600000Y-2700000D03*
X-100000D03*
X-800000Y-2500000D03*
X-300000Y-2800000D03*
X-600000D03*
X-100000D03*
X-300000Y-2900000D03*
X-100000D03*
X-153500Y-2501000D03*
X-482990Y-2522220D03*
X-601000D03*
X-796500Y-3097570D03*
X-708280Y-3107500D03*
X-338720Y-2445720D03*
X-603500D03*
X-701000Y-2601000D03*
X-253500Y-2220480D03*
X-795000Y-2308280D03*
X-300000Y-2100000D03*
Y-2000000D03*
Y-1900000D03*
X-608000Y-1805000D03*
X-491720Y-1905000D03*
X-800000Y-2095000D03*
Y-2205000D03*
X-500000Y-2100000D03*
X-200000D03*
X-500000Y-2000000D03*
X-200000D03*
Y-1900000D03*
X-800000D03*
X-703580Y-2204720D03*
X-504740Y-1808280D03*
X-207000Y-2348290D03*
X-633500D03*
X-799000Y-2007500D03*
X-607500Y-1597000D03*
X-557070Y-2277310D03*
X-300000Y-2276500D03*
Y-1597000D03*
X-800000Y-1791720D03*
X-103060Y-2199000D03*
X-330000Y-1431000D03*
X-499500Y-945160D03*
X-103060Y-1068650D03*
X-330000Y-898660D03*
X-673500Y-835760D03*
X-627000Y-978160D03*
X-406500Y-952160D03*
X-500000Y-1413000D03*
X-200000Y-1207660D03*
X-500000D03*
X-196060Y-1507500D03*
X-254290Y-1158660D03*
X-563000Y-1207660D03*
X-684500Y-1491000D03*
X-703500Y-1252840D03*
X-237000Y-1005660D03*
X-149560Y-898660D03*
X-641850Y-1345840D03*
X-103060Y-975160D03*
X-107500Y-107990D03*
X-523750Y-574590D03*
X-330000Y-322840D03*
X-192500Y-96500D03*
X-500000Y-298650D03*
X-300000Y-100000D03*
X-700000D03*
X-300000Y-200000D03*
X-700000D03*
X-500000Y-501590D03*
X-200000Y-492340D03*
X-600000Y-100000D03*
Y-200000D03*
X-200000D03*
X-594000Y-655160D03*
X-703500Y-527760D03*
X-90500Y-520090D03*
X-514270Y-642340D03*
X-201530D03*
X-137000Y-214660D03*
X-360000Y-249000D03*
X-796500D03*
X-800000Y-738330D03*
X-84310Y-261160D03*
X-648250Y-369340D03*
X-307890Y6510D03*
X-591720Y100000D03*
X-108280Y92500D03*
X-591720Y-1000D03*
X-200000Y100000D03*
X-500000Y400000D03*
Y300000D03*
Y200000D03*
X-108280Y205000D03*
X-150000Y509000D03*
X-300000Y400000D03*
X-600000D03*
X-800000Y600000D03*
X-300000Y300000D03*
X-600000D03*
X-300000Y200000D03*
X-600000D03*
X-653500Y593000D03*
X-696500Y92000D03*
X-196770Y598950D03*
X-207000Y661950D03*
X-100000Y291720D03*
X-804010Y699000D03*
X-311250Y569000D03*
X-803500Y103940D03*
X-807500Y-3500D03*
X-407000Y661010D03*
X-300000Y1000000D03*
Y1100000D03*
X-800000Y800000D03*
X-300000Y1200000D03*
X-500000Y1000000D03*
X-200000D03*
X-700000D03*
X-500000Y1100000D03*
X-200000D03*
X-800000Y900000D03*
X-700000Y1100000D03*
X-800000Y1000000D03*
Y1100000D03*
X-500000Y1200000D03*
X-200000D03*
X-700000D03*
X-800000D03*
X-108280Y1291720D03*
X-253500Y860260D03*
X-146500Y874880D03*
Y706510D03*
X-308280Y1391720D03*
X-691000Y753500D03*
X-653500Y853500D03*
X-607000Y1391720D03*
X-807000Y1392500D03*
X-707000Y1291720D03*
X-500000Y875260D03*
X-553500Y2091840D03*
X-500000Y1693120D03*
X-200000Y1901350D03*
X-500000Y1892340D03*
X-379300Y2138340D03*
X-154780Y2015350D03*
X-707000Y2138340D03*
X-360000Y2013760D03*
X-332800Y2828700D03*
X-177500Y2325760D03*
X-789560Y2469550D03*
X-308280Y2373690D03*
X-554950Y3700000D03*
X-534440Y3584440D03*
Y3421500D03*
X514040Y-3592340D03*
X100000Y-3306980D03*
X193000Y-3292500D03*
X-50000Y-3328150D03*
X400060Y-3745340D03*
Y-3582160D03*
X609570Y-3545840D03*
X200000Y-3398650D03*
X353560Y-3522980D03*
X200000Y-3592340D03*
X0D03*
X684150Y-3196600D03*
X266940Y-3745340D03*
Y-3569470D03*
X298250Y-3339000D03*
X146510Y-3745340D03*
X609500Y-3193000D03*
X300000D03*
X100000Y-3399980D03*
X193000Y-2696950D03*
X100000Y-3091720D03*
X203500Y-3108280D03*
X193000Y-2803500D03*
X203500Y-3008280D03*
X635000Y-2810060D03*
X292500Y-2791720D03*
X509000Y-2650450D03*
X546500Y-3097040D03*
X407500Y-3096500D03*
X544660Y-2966060D03*
X392500Y-2991720D03*
X292110Y-2896500D03*
X0Y-3003500D03*
X509000Y-2850000D03*
X618500Y-2873060D03*
X196500Y-2891720D03*
X100000Y-2800000D03*
X572000Y-2819290D03*
X391720Y-2792500D03*
X607660Y-3000000D03*
X100000Y-2496500D03*
X621660D03*
X100000Y-2896500D03*
X7000Y-2395000D03*
Y-2708280D03*
X-7000Y-2808280D03*
X100000Y-2603950D03*
Y-2992500D03*
X-4010Y-2501000D03*
X294110Y-3097140D03*
X200000Y-2392500D03*
X509000Y-2550000D03*
X396500Y-2503500D03*
X198250Y-2492500D03*
X192500Y-2591720D03*
X300000Y-2992500D03*
X607670Y-1733500D03*
X607660Y-2300000D03*
X0D03*
X403060Y-1904140D03*
X500000Y-2206770D03*
X396500Y-2207500D03*
X293000Y-2108280D03*
X496060Y-2300000D03*
X303500Y-2308280D03*
X193000Y-2307500D03*
X100000Y-2308280D03*
X577660Y-2046500D03*
X91720Y-1597000D03*
X297730Y-1891720D03*
X200000Y-1405280D03*
X595500Y-1500000D03*
X500000Y-1207660D03*
X200000D03*
X16340Y-1021660D03*
X596940Y-1286560D03*
X450010Y-999150D03*
X-7890Y-1131160D03*
X450290Y-1161160D03*
X546500Y-1548990D03*
X193000Y-1478280D03*
X449560Y-1453500D03*
X543960Y-839590D03*
X250440D03*
X38610Y-1084660D03*
X643440Y-1059150D03*
X41140Y-1269340D03*
X296940Y-898660D03*
X-6630Y-1345840D03*
X-54390Y-738340D03*
X200000Y-307660D03*
X500000Y-492340D03*
X200000D03*
X0D03*
X591400Y-788970D03*
X496510Y-642340D03*
X-6920Y-688840D03*
X200000Y-793090D03*
X-5940D03*
X246500Y-642340D03*
X296500Y-493060D03*
Y-793090D03*
X607660Y100000D03*
X98720Y600000D03*
X0D03*
Y500000D03*
Y400000D03*
Y300000D03*
X100000Y500000D03*
Y400000D03*
Y300000D03*
X0Y200000D03*
X100000D03*
X-8280Y-7500D03*
X191720Y596500D03*
X291720Y696500D03*
X603860Y650000D03*
X553550Y176500D03*
Y696500D03*
X292500Y596500D03*
X-7000Y91720D03*
X291720Y492500D03*
X293000Y-3500D03*
X542810Y-44500D03*
X606000Y800000D03*
X98720Y795000D03*
X0Y800000D03*
X509000Y842500D03*
X292500Y896500D03*
X291720Y796500D03*
X191720Y892500D03*
X509000Y750000D03*
X393000Y791730D03*
X5720Y1291720D03*
X192500Y791720D03*
X496510Y1296500D03*
X391720Y1192500D03*
X291720D03*
X529850Y1050000D03*
X606030Y1103500D03*
X298250Y1107500D03*
X193000Y1103500D03*
X530820Y950000D03*
X606350Y996500D03*
X191720Y1003500D03*
X-53500Y1799640D03*
X200000Y1693120D03*
X607660Y1600000D03*
X500000Y1901350D03*
X200000D03*
X5720Y1884240D03*
X14720Y2015340D03*
X546500Y1484010D03*
X292500Y1659120D03*
X76500Y1682630D03*
X169500Y2231340D03*
X492000Y2968200D03*
X590200Y2357720D03*
X416000Y2341750D03*
X636700Y2231340D03*
X76500Y2420190D03*
X339500Y2232060D03*
X-31780Y2517840D03*
X293000Y2527220D03*
X145050Y3700000D03*
X823840Y-5200000D03*
X1006800Y-3300000D03*
X1014660Y-3143640D03*
X1318250Y-3745340D03*
X1227450Y-3120990D03*
X1372700Y-3299640D03*
X1300000Y-3150650D03*
X1378450Y-3149050D03*
X801350Y-3300000D03*
X1300000Y-3393980D03*
X980540Y-3206640D03*
X1453980Y-3749200D03*
X1425000Y-3011500D03*
X1273950Y-2869990D03*
X1180950Y-2625000D03*
X1227450Y-2575000D03*
X1104010Y-3050440D03*
X1425000Y-2388500D03*
X1082810Y-2771500D03*
X1279700Y-2725000D03*
X1285450Y-2965660D03*
X792340Y-2600000D03*
Y-3000000D03*
X730650Y-2486000D03*
X1082810Y-2439500D03*
X1059210Y-3097140D03*
X754850Y-1610500D03*
Y-2207000D03*
X1341300Y-1676970D03*
X1169850Y-1687000D03*
X1294800Y-2309770D03*
X1098340Y-2063150D03*
X801350Y-2160500D03*
X1207660Y-1600000D03*
X801350Y-1900000D03*
X1107660Y-2000000D03*
Y-2200000D03*
X801950Y-2067500D03*
X1430000Y-1666750D03*
X1096050Y-2263000D03*
X1098340Y-1916500D03*
X1082810Y-2346500D03*
X1216350Y-1826560D03*
X1014670Y-1387000D03*
X801350Y-1500000D03*
X801910Y-1178040D03*
Y-1437000D03*
X1014660Y-1264000D03*
X945340Y-325640D03*
X792340Y-200000D03*
X1421890Y-434450D03*
X801350Y500000D03*
Y100000D03*
X815590Y437000D03*
X1016850Y576500D03*
X838840Y653000D03*
X970350Y-44500D03*
X822340Y1423700D03*
X801350Y800000D03*
Y1200000D03*
X852340Y996500D03*
X1016850Y1159500D03*
X792340Y732500D03*
X915340Y1206000D03*
X898840Y1043000D03*
X945380Y2078340D03*
X991880Y1945200D03*
X1341300Y2005200D03*
X885340Y1799640D03*
X792340Y1600000D03*
X1191200Y1548700D03*
X792340Y1673700D03*
X945380Y1990720D03*
X1338840Y2400000D03*
X961840Y2278560D03*
X1254160Y2231340D03*
X1098200Y2300000D03*
X760660Y2231340D03*
X751070Y2404220D03*
X845050Y3700000D03*
X1398700Y3014700D03*
X2059010Y-5600040D03*
X2049260Y-5500040D03*
X2139330D03*
X2212030Y-5726760D03*
X2113280D03*
X2014530D03*
X1915790D03*
X1817040D03*
X2146300Y-4996180D03*
X1587050Y-4800000D03*
X2131170Y-3800520D03*
X1633060Y-3299640D03*
X1918200Y-3612460D03*
X1675000Y-3197150D03*
X2000000Y-3399980D03*
X1500000Y-3393980D03*
X1855200Y-3795700D03*
Y-3612460D03*
X1946200Y-2405360D03*
X1475000Y-3056050D03*
X1525000Y-3011500D03*
X1901700Y-3089960D03*
X1912600Y-2825000D03*
X1725000Y-3041500D03*
X1994710Y-2995000D03*
X1911500Y-2918500D03*
X1500000Y-2600000D03*
X1600000D03*
X1700000D03*
Y-2700000D03*
X1600000D03*
X1500000D03*
Y-2800000D03*
X1600000D03*
X1700000D03*
X1825200Y-1713280D03*
X1475000Y-2343950D03*
X2055340Y-2016660D03*
X1507660Y-1646500D03*
X1575000Y-2267450D03*
X1692340Y-1600000D03*
X1978340Y-2340000D03*
X1778700Y-1900000D03*
X2107660Y-1600000D03*
X1992340Y-2000000D03*
X1592340Y-2200000D03*
X1675000Y-2293500D03*
X1901700Y-1873060D03*
X1876000Y-1780060D03*
X1938100Y-1533060D03*
X1470000Y-967840D03*
X1645200Y-1056000D03*
X1969000Y-427650D03*
X1470000Y-325640D03*
X1777000Y-759840D03*
X1714100Y193840D03*
X1700000Y378040D03*
X1876000Y121220D03*
X1922500Y2154840D03*
X2023000Y1830000D03*
X1736500Y2205000D03*
X2114810Y1656460D03*
X1876000Y1703700D03*
X1846000Y2718000D03*
Y2465000D03*
X2100000Y2823840D03*
X1900000D03*
Y2595000D03*
X1736500Y2335000D03*
X1783000Y2831780D03*
X1900000Y3375510D03*
X2100000Y3545500D03*
X1700000Y3278010D03*
Y3548000D03*
X1900000Y3187710D03*
X1598700Y3584440D03*
X2229390Y-5500040D03*
X2319460D03*
X2409520D03*
Y-5575610D03*
Y-5651190D03*
Y-5726760D03*
X2310770D03*
X2300000Y-4584500D03*
X2267660Y-3795700D03*
X2301940Y-3300360D03*
X2658850Y-3479200D03*
X2377160Y-3672700D03*
X2655910Y-3542200D03*
X2771220Y-3368340D03*
X2291940Y-2400000D03*
X2492340D03*
X2292340Y-1600000D03*
X2303440Y-2293500D03*
X2377150Y-2103060D03*
X2607660Y-1700000D03*
X2498170Y-235640D03*
X2544670Y-189140D03*
X2939500Y688350D03*
X2658850Y121220D03*
X2600000Y441670D03*
Y533330D03*
Y625000D03*
X2750000D03*
Y533330D03*
Y441670D03*
Y350000D03*
X2675000D03*
X2600000D03*
X2470150Y74720D03*
Y-1780D03*
X2600000Y1675000D03*
Y1766670D03*
Y1858330D03*
Y1950000D03*
X2675000D03*
X2750000D03*
Y1858330D03*
Y1766670D03*
Y1675000D03*
X2893000Y2641500D03*
X2306500Y2530000D03*
Y2400000D03*
Y2270000D03*
X2778700Y3250000D03*
X2345050Y3746000D03*
X2612040Y3000000D03*
X2571650Y3543190D03*
X2956300Y3746000D03*
X2353000Y3324510D03*
X2268550Y3386000D03*
Y3849810D03*
X3695700Y-2936240D03*
X3736340Y-2876910D03*
X3332480Y-2991580D03*
X3398520Y-2941320D03*
X3070190Y-2355640D03*
X3278300D03*
Y-2449980D03*
X3208930D03*
X3139560D03*
X3070190D03*
Y-2261300D03*
X3139560D03*
X3208930D03*
X3278300D03*
X3342200Y-1400000D03*
X3300000Y1952460D03*
Y2050000D03*
X3375000D03*
X3450000D03*
Y1952460D03*
Y1854920D03*
X3375000D03*
X3300000D03*
X3354000Y2891000D03*
X3507660Y2300000D03*
X3392340Y2700000D03*
X3240500Y3250000D03*
X3978700Y3300000D03*
G54D14*
X2187220Y-3197860D03*
Y-2771140D03*
Y-2529840D03*
X3500000Y-1732280D03*
G54D17*
X2962560Y-5695400D03*
X2708560D03*
X3780440D03*
X4034440D03*
G54D19*
X2596800Y-4984200D03*
X4146200D03*
G54D18*
X2800000Y-5289000D03*
X3943000D03*
G54D13*
X-100000Y-5235000D03*
Y-4600000D03*
X408000Y-4917500D03*
%LPC*%
G75*
G54D20*
G01X-2100000Y2601280D02*
Y2700000D01*
G01D02*
Y2798720D01*
G01X-2198720Y2700000D02*
X-2100000D01*
G01X1371280Y1325000D02*
X1470000D01*
G01X1300000Y2601280D02*
Y2700000D01*
G01D02*
Y2798720D01*
G01X1201280Y2700000D02*
X1300000D01*
G01D02*
X1398720D01*
G01X1470000Y1226280D02*
Y1325000D01*
G01D02*
Y1423720D01*
G01Y1325000D02*
X1568720D01*
G01X2131280Y1830000D02*
X2230000D01*
G01X2131280Y1575000D02*
X2230000D01*
G01Y1731280D02*
Y1830000D01*
G01D02*
Y1928720D01*
G01Y1830000D02*
X2328720D01*
G01X2230000Y1476280D02*
Y1575000D01*
G01D02*
Y1673720D01*
G01Y1575000D02*
X2328720D01*
G54D11*
X-4107660Y-3300000D03*
X-4107650Y-2582050D03*
X-4086000Y-1917950D03*
X-4098650Y-200000D03*
X-4107660Y500000D03*
Y1200000D03*
X-3403500Y-3547170D03*
X-3491720Y-2900000D03*
X-3400000Y-2700000D03*
X-3500000Y-2600000D03*
Y-2700000D03*
X-3400000Y-2800000D03*
X-3500000D03*
X-3600000Y-2600000D03*
Y-2700000D03*
X-3400000Y-2900000D03*
X-3600000Y-2800000D03*
Y-2900000D03*
X-3300000Y-2108280D03*
Y-2000000D03*
Y-1900000D03*
X-3600000Y-1394000D03*
Y-298650D03*
X-3400000Y400000D03*
X-3500000Y500000D03*
Y400000D03*
X-3400000Y300000D03*
X-3500000D03*
X-3600000Y500000D03*
Y400000D03*
X-3400000Y200000D03*
X-3600000Y300000D03*
X-3500000Y200000D03*
X-3600000D03*
X-3300000Y1000000D03*
Y1100000D03*
Y1200000D03*
X-3600000Y1707660D03*
X-2900000Y-3398650D03*
X-2950000Y-2560450D03*
X-2900000Y-2800000D03*
Y-2900000D03*
X-2850000Y-2244000D03*
X-2605000Y-2107000D03*
X-2608280Y-1905000D03*
X-2700000Y-2200000D03*
X-2800000Y-2000000D03*
X-2700000D03*
X-2600000Y-2200000D03*
X-2800000Y-1900000D03*
X-2700000D03*
X-2600000Y-2000000D03*
X-2900000Y-1394000D03*
Y-307660D03*
Y400000D03*
Y300000D03*
Y200000D03*
X-2800000Y1000000D03*
X-2700000Y900000D03*
X-2800000Y1100000D03*
X-2700000Y1000000D03*
Y1100000D03*
X-2600000Y900000D03*
X-2800000Y1200000D03*
X-2600000Y1000000D03*
X-2700000Y1200000D03*
X-2600000Y1100000D03*
Y1200000D03*
X-2900000Y1707660D03*
X-2137070Y-3300000D03*
X-2200000Y-3407660D03*
X-2110500Y-2600000D03*
X-2092340Y-1900000D03*
X-2200000Y-1404500D03*
X-1592370Y-522340D03*
X-2073060Y-307660D03*
X-2200000D03*
X-2098780Y500000D03*
X-2118000Y1200000D03*
X-2200000Y1699440D03*
X-966940Y-3461900D03*
X-1407660Y-3300000D03*
X-1461900Y-2749550D03*
X-900000Y-2700000D03*
Y-2800000D03*
Y-2900000D03*
X-1545770Y-1613430D03*
X-900000Y-1392340D03*
Y-298650D03*
X-1398650Y-200000D03*
X-1208280Y696500D03*
X-991720Y205000D03*
Y300000D03*
X-1407660Y1200000D03*
X-900000Y1707660D03*
X-200000Y-3398650D03*
X-691720Y-2900000D03*
X-791720D03*
X-200000Y-2700000D03*
X-700000D03*
X-800000Y-2600000D03*
X-200000Y-2800000D03*
X-800000Y-2700000D03*
X-700000Y-2800000D03*
X-800000D03*
X-200000Y-2900000D03*
X-597740Y-1905000D03*
X-600000Y-2100000D03*
X-100000D03*
X-600000Y-2000000D03*
X-100000D03*
Y-1900000D03*
X-200000Y-1410500D03*
Y-298650D03*
X-703500Y196940D03*
X-200000Y400000D03*
X-700000D03*
X-800000Y500000D03*
X-200000Y300000D03*
X-700000D03*
X-800000D03*
X-200000Y200000D03*
X-600000Y1000000D03*
X-100000D03*
X-600000Y1100000D03*
X-100000D03*
X-600000Y1200000D03*
X-100000D03*
X-200000Y1693120D03*
X500000Y-3399980D03*
X607660Y-3300000D03*
Y-2600000D03*
Y-1900000D03*
X100000Y-2208280D03*
X0Y-2200000D03*
Y-2100000D03*
Y-2000000D03*
X100000Y-2100000D03*
X0Y-1900000D03*
X100000Y-2000000D03*
Y-1900000D03*
X500000Y-1393060D03*
X569000Y-321660D03*
X600810Y-200000D03*
X607660Y500000D03*
Y1200000D03*
X0Y900000D03*
Y1000000D03*
Y1100000D03*
X100000Y900000D03*
Y1000000D03*
X0Y1200000D03*
X100000Y1100000D03*
Y1200000D03*
X500000Y1707660D03*
X1100000Y-3399980D03*
X1180950Y-2771500D03*
X1292340Y-2000000D03*
Y-2200000D03*
X792340Y-1010150D03*
X1292340Y2300000D03*
X1700000Y-3392340D03*
X1900000Y3576160D03*
X2800000Y2223840D03*
X2306500Y2595000D03*
X3700000Y995830D03*
Y1091670D03*
Y1187500D03*
Y1283330D03*
Y1379170D03*
Y900000D03*
Y1475000D03*
Y1570830D03*
Y1858330D03*
Y1954170D03*
Y2050000D03*
X3692340Y2300000D03*
X3900000Y1379170D03*
X3766670Y2050000D03*
X3833330D03*
X3900000D03*
Y1954170D03*
Y1858330D03*
Y1762500D03*
Y1666670D03*
Y1570830D03*
Y1475000D03*
G54D21*
G01X-4289500Y-5690670D02*
X-4280170Y-5696500D01*
X-4269670Y-5700000D01*
X-4260330D01*
X-4251000Y-5696500D01*
X-4244000Y-5690670D01*
X-4240500Y-5682500D01*
X-4242830Y-5674330D01*
X-4248670Y-5667330D01*
X-4259170Y-5662670D01*
X-4273170Y-5660330D01*
X-4281330Y-5655670D01*
X-4284830Y-5647500D01*
X-4282500Y-5639330D01*
X-4276670Y-5633500D01*
X-4268500Y-5630000D01*
X-4260330D01*
X-4252170Y-5632330D01*
X-4245170Y-5638170D01*
G01X-4166000Y-5723330D02*
Y-5653330D01*
G01Y-5663830D02*
X-4160170Y-5658000D01*
X-4154330Y-5654500D01*
X-4145000Y-5653330D01*
X-4136830Y-5654500D01*
X-4128670Y-5660330D01*
X-4125170Y-5668500D01*
X-4124000Y-5676670D01*
X-4125170Y-5684830D01*
X-4128670Y-5693000D01*
X-4135670Y-5697670D01*
X-4145000Y-5700000D01*
X-4153170Y-5698830D01*
X-4161330Y-5695330D01*
X-4166000Y-5690670D01*
G01X-4025000Y-5653330D02*
Y-5700000D01*
G01Y-5634670D02*
X-4027330Y-5633500D01*
Y-5631170D01*
X-4025000Y-5630000D01*
X-4022670Y-5631170D01*
Y-5633500D01*
X-4025000Y-5634670D01*
G01X-3931830Y-5700000D02*
Y-5630000D01*
X-3878170Y-5700000D01*
Y-5630000D01*
G01X-3811830Y-5700000D02*
Y-5630000D01*
X-3758170Y-5700000D01*
Y-5630000D01*
G01X-3680170Y-5676670D02*
X-3649830D01*
G01X-3570670Y-5686000D02*
X-3563670Y-5694170D01*
X-3554330Y-5698830D01*
X-3543830Y-5700000D01*
X-3534500Y-5698830D01*
X-3525170Y-5693000D01*
X-3519330Y-5686000D01*
X-3518170Y-5679000D01*
X-3520500Y-5670840D01*
X-3528670Y-5665000D01*
X-3536830Y-5662670D01*
X-3547330D01*
G01X-3536830D02*
X-3529830Y-5659170D01*
X-3524000Y-5653330D01*
X-3521670Y-5646330D01*
X-3524000Y-5639330D01*
X-3529830Y-5633500D01*
X-3540330Y-5630000D01*
X-3550830Y-5631170D01*
X-3561330Y-5635830D01*
G01X-3460000Y-5723330D02*
X-3390000D01*
G01X-3328330Y-5630000D02*
Y-5700000D01*
X-3281670D01*
G01X-3171000D02*
Y-5630000D01*
X-3214170Y-5680170D01*
X-3155830D01*
G54D12*
X-2100000Y2700000D03*
X1470000Y1325000D03*
X1300000Y2700000D03*
X2230000Y1575000D03*
Y1830000D03*
G54D16*
X1473000Y-940D03*
M02*
