G04 ================== begin FILE IDENTIFICATION RECORD ==================*
G04 Layout Name:  /home/amu4/spinnaker/PCB/spinnaker2_test_pcb_lib/bunnybot/physical/bunny15.brd*
G04 Film Name:    PASTEBOT*
G04 File Format:  Gerber RS274X*
G04 File Origin:  16.01-S5*
G04 Origin Date:  Fri Oct  7 14:45:45 2011*
G04 *
G04 Layer:  PIN/PASTEMASK_BOTTOM*
G04 *
G04 Offset:    (0.0000 0.0000)*
G04 Mirror:    No*
G04 Mode:      Positive*
G04 Rotation:  0*
G04 FullContactRelief:  No*
G04 UndefLineWidth:     0.0000*
G04 ================== end FILE IDENTIFICATION RECORD ====================*
%FSLAX55Y55*MOMM*%
%IR0*IPPOS*OFA0.00000B0.00000*MIA0B0*SFA1.00000B1.00000*%
%ADD12R,.8128X1.397*%
%ADD13R,1.397X.8128*%
%ADD11R,.3556X.6096*%
%ADD10R,.6096X.3556*%
%LPD*%
G75*
G54D10*
X-4000000Y-3538100D03*
Y-3461900D03*
Y-1261900D03*
Y-1338100D03*
Y-438100D03*
Y-361900D03*
Y1838100D03*
Y1761900D03*
X-3200000Y-3538100D03*
Y-3461900D03*
X-3600000Y-3538100D03*
Y-3461900D03*
X-3200000Y-1261900D03*
Y-1338100D03*
X-3600000Y-1261900D03*
Y-1338100D03*
X-3200000Y-438100D03*
Y-361900D03*
X-3600000Y-438100D03*
Y-361900D03*
X-3200000Y1838100D03*
Y1761900D03*
X-3600000Y1838100D03*
Y1761900D03*
X-2700000Y-3461900D03*
Y-3538100D03*
X-2500000D03*
Y-3461900D03*
X-2900000Y-3538100D03*
Y-3461900D03*
X-2500000Y-1261900D03*
Y-1338100D03*
X-2900000Y-1261900D03*
Y-1338100D03*
X-2700000Y-361900D03*
Y-438100D03*
X-2500000D03*
Y-361900D03*
X-2900000Y-438100D03*
Y-361900D03*
X-2500000Y1838100D03*
Y1761900D03*
X-2900000Y1838100D03*
Y1761900D03*
X-2200000Y-3538100D03*
Y-3461900D03*
Y-1261900D03*
Y-1338100D03*
Y-438100D03*
Y-361900D03*
Y1838100D03*
Y1761900D03*
X-1300000Y-3538100D03*
Y-3461900D03*
X-900000Y-3538100D03*
Y-3461900D03*
X-1300000Y-1261900D03*
Y-1338100D03*
X-900000Y-1261900D03*
Y-1338100D03*
X-1300000Y-438100D03*
Y-361900D03*
X-900000Y-438100D03*
Y-361900D03*
X-1300000Y1838100D03*
Y1761900D03*
X-900000Y1838100D03*
Y1761900D03*
X-500000Y-3538100D03*
Y-3461900D03*
X-200000Y-3538100D03*
Y-3461900D03*
X-500000Y-1261900D03*
Y-1338100D03*
X-200000Y-1261900D03*
Y-1338100D03*
X-500000Y-438100D03*
Y-361900D03*
X-200000Y-438100D03*
Y-361900D03*
X-500000Y1838100D03*
Y1761900D03*
X-200000Y1838100D03*
Y1761900D03*
X0Y-3461900D03*
Y-3538100D03*
X200000D03*
Y-3461900D03*
X500000Y-3538100D03*
Y-3461900D03*
X200000Y-1261900D03*
Y-1338100D03*
X500000Y-1261900D03*
Y-1338100D03*
X0Y-361900D03*
Y-438100D03*
X200000D03*
Y-361900D03*
X500000Y-438100D03*
Y-361900D03*
X200000Y1838100D03*
Y1761900D03*
X500000Y1838100D03*
Y1761900D03*
G54D11*
X-4238100Y-3300000D03*
X-4161900D03*
X-4238100Y-3000000D03*
X-4161900D03*
X-4238100Y-2600000D03*
X-4161900D03*
X-4238100Y-2300000D03*
X-4161900D03*
X-4238100Y-1900000D03*
X-4161900D03*
X-4238100Y-1500000D03*
X-4161900D03*
X-4238100Y-200000D03*
X-4161900D03*
X-4238100Y100000D03*
X-4161900D03*
X-4238100Y500000D03*
X-4161900D03*
X-4238100Y800000D03*
X-4161900D03*
X-4238100Y1200000D03*
X-4161900D03*
X-4238100Y1600000D03*
X-4161900D03*
X-1961900Y-3300000D03*
X-2038100D03*
X-1961900Y-3000000D03*
X-2038100D03*
X-1961900Y-2600000D03*
X-2038100D03*
X-1961900Y-2300000D03*
X-2038100D03*
X-1961900Y-1900000D03*
X-2038100D03*
X-1961900Y-1500000D03*
X-2038100D03*
X-1961900Y-200000D03*
X-2038100D03*
X-1961900Y100000D03*
X-2038100D03*
X-1961900Y500000D03*
X-2038100D03*
X-1961900Y800000D03*
X-2038100D03*
X-1961900Y1200000D03*
X-2038100D03*
X-1961900Y1600000D03*
X-2038100D03*
X-1538100Y-3300000D03*
X-1461900D03*
X-1538100Y-3000000D03*
X-1461900D03*
X-1538100Y-2600000D03*
X-1461900D03*
X-1538100Y-2300000D03*
X-1461900D03*
X-1538100Y-1900000D03*
X-1461900D03*
X-1538100Y-1500000D03*
X-1461900D03*
X-1538100Y-200000D03*
X-1461900D03*
X-1538100Y100000D03*
X-1461900D03*
X-1538100Y500000D03*
X-1461900D03*
X-1538100Y800000D03*
X-1461900D03*
X-1538100Y1200000D03*
X-1461900D03*
X-1538100Y1600000D03*
X-1461900D03*
X661900Y-3300000D03*
Y-3000000D03*
Y-2600000D03*
Y-2300000D03*
Y-1900000D03*
Y-1500000D03*
Y-200000D03*
Y100000D03*
Y500000D03*
Y800000D03*
Y1200000D03*
Y1600000D03*
X738100Y-3300000D03*
Y-3000000D03*
Y-2600000D03*
Y-2300000D03*
Y-1900000D03*
Y-1500000D03*
Y-200000D03*
Y100000D03*
Y500000D03*
Y800000D03*
Y1200000D03*
Y1600000D03*
G54D12*
X-3999060Y3700000D03*
X-3299060D03*
X-3098400D03*
X-3798400D03*
X-2599060D03*
X-2398400D03*
X-1650940Y-900000D03*
X-1851600D03*
X-1899060Y3700000D03*
X-1698400D03*
X-1099060D03*
X-898400D03*
X-399060D03*
X-198400D03*
X300940D03*
X501600D03*
X1000940D03*
X1201600D03*
G54D13*
X900000Y-1100940D03*
Y-1301600D03*
X1900000Y2900940D03*
Y3499060D03*
Y3298400D03*
Y3101600D03*
M02*
