G04 ================== begin FILE IDENTIFICATION RECORD ==================*
G04 Layout Name:  /home/amu4/spinnaker/PCB/spinnaker2_test_pcb_lib/bunnybot/physical/bunny15.brd*
G04 Film Name:    SOLDERTOP*
G04 File Format:  Gerber RS274X*
G04 File Origin:  16.01-S5*
G04 Origin Date:  Fri Oct  7 14:45:45 2011*
G04 *
G04 Layer:  PIN/SOLDERMASK_TOP*
G04 *
G04 Offset:    (0.0000 0.0000)*
G04 Mirror:    No*
G04 Mode:      Positive*
G04 Rotation:  0*
G04 FullContactRelief:  No*
G04 UndefLineWidth:     0.0000*
G04 ================== end FILE IDENTIFICATION RECORD ====================*
%FSLAX55Y55*MOMM*%
%IR0*IPPOS*OFA0.00000B0.00000*MIA0B0*SFA1.00000B1.00000*%
%ADD30R,1.8X.5*%
%ADD11C,.5*%
%ADD23C,.4516*%
%AMMACRO27*
4,1,4,.425,-.2525,
-.425,-.2525,
-.425,.2525,
.425,.2525,
.425,-.2525,
0.0*
%
%ADD27MACRO27*%
%AMMACRO20*
4,1,4,-.2525,-.425,
-.2525,.425,
.2525,.425,
.2525,-.425,
-.2525,-.425,
0.0*
%
%ADD20MACRO20*%
%ADD16R,1.774X.854*%
%ADD31R,1.1X3.3*%
%ADD17R,1.016X1.6002*%
%ADD13C,1.2*%
%ADD10C,3.*%
%ADD29R,1.6002X1.016*%
%ADD35C,1.35*%
%ADD37R,2.95X2.8*%
%ADD36R,2.5146X1.016*%
%ADD38R,2.8X2.95*%
%ADD28C,2.921*%
%ADD26R,3.301X3.301*%
%ADD25R,1.6256X1.016*%
%ADD33C,3.048*%
%ADD32C,1.905*%
%ADD24R,5.85X2.35*%
%AMMACRO21*
4,1,4,.2525,.425,
.2525,-.425,
-.2525,-.425,
-.2525,.425,
.2525,.425,
0.0*
%
%ADD21MACRO21*%
%AMMACRO19*
4,1,4,-.425,.2525,
.425,.2525,
.425,-.2525,
-.425,-.2525,
-.425,.2525,
0.0*
%
%ADD19MACRO19*%
%ADD39R,1.55X1.55*%
%ADD22R,.4064X.6604*%
%ADD34C,2.3368*%
%ADD18R,.6604X.4064*%
%ADD15C,4.2926*%
%ADD12C,1.6764*%
%ADD14R,1.7526X2.5146*%
%LPD*%
G75*
G54D10*
X-5100000Y-4500000D03*
Y2500000D03*
X-4200000Y2400000D03*
X3300000Y-3750000D03*
X3700000Y2800000D03*
X5100000Y2500000D03*
G54D20*
X1425250Y-2937500D03*
X1775250D03*
X1675250D03*
X1625250D03*
X1575250D03*
X1525250D03*
X1475250D03*
X1725250D03*
G54D11*
X-3950000Y-3250000D03*
Y-3150000D03*
Y-3050000D03*
Y-2950000D03*
Y-2850000D03*
Y-2750000D03*
Y-2650000D03*
Y-2550000D03*
Y-2450000D03*
Y-2350000D03*
Y-2050000D03*
Y-2150000D03*
Y-2250000D03*
Y-1950000D03*
Y-1750000D03*
Y-1850000D03*
Y-1650000D03*
Y-1550000D03*
Y-150000D03*
Y-50000D03*
Y50000D03*
Y150000D03*
Y250000D03*
Y350000D03*
Y450000D03*
Y550000D03*
Y650000D03*
Y750000D03*
Y1050000D03*
Y950000D03*
Y850000D03*
Y1150000D03*
Y1350000D03*
Y1250000D03*
Y1450000D03*
Y1550000D03*
X-3450000Y-3250000D03*
Y-3150000D03*
X-3550000D03*
Y-3250000D03*
X-3650000D03*
Y-3150000D03*
X-3750000Y-3250000D03*
Y-3150000D03*
X-3850000Y-3250000D03*
Y-3150000D03*
X-3150000D03*
Y-3250000D03*
X-3250000Y-3150000D03*
Y-3250000D03*
X-3350000Y-3150000D03*
Y-3250000D03*
X-3450000Y-3050000D03*
Y-2950000D03*
X-3550000D03*
Y-3050000D03*
X-3650000D03*
Y-2950000D03*
X-3750000Y-3050000D03*
Y-2950000D03*
X-3850000Y-3050000D03*
Y-2950000D03*
X-3450000Y-2850000D03*
Y-2750000D03*
Y-2650000D03*
X-3550000D03*
Y-2750000D03*
Y-2850000D03*
X-3650000D03*
Y-2750000D03*
Y-2650000D03*
X-3750000Y-2850000D03*
Y-2750000D03*
Y-2650000D03*
X-3850000Y-2850000D03*
Y-2750000D03*
Y-2650000D03*
X-3450000Y-2550000D03*
Y-2450000D03*
X-3550000D03*
Y-2550000D03*
X-3650000D03*
Y-2450000D03*
X-3750000Y-2550000D03*
Y-2450000D03*
X-3850000Y-2550000D03*
Y-2450000D03*
X-3150000Y-2950000D03*
Y-3050000D03*
X-3250000Y-2950000D03*
Y-3050000D03*
X-3350000Y-2950000D03*
Y-3050000D03*
X-3150000Y-2650000D03*
Y-2750000D03*
Y-2850000D03*
X-3250000Y-2650000D03*
Y-2750000D03*
Y-2850000D03*
X-3350000Y-2650000D03*
Y-2750000D03*
Y-2850000D03*
X-3450000Y-2350000D03*
X-3550000D03*
X-3650000D03*
X-3750000D03*
X-3850000D03*
X-3450000Y-2050000D03*
Y-2150000D03*
Y-2250000D03*
Y-1950000D03*
X-3550000D03*
Y-2250000D03*
Y-2150000D03*
Y-2050000D03*
X-3650000D03*
Y-2150000D03*
Y-2250000D03*
Y-1950000D03*
X-3750000Y-2050000D03*
Y-2150000D03*
Y-2250000D03*
Y-1950000D03*
X-3850000Y-2050000D03*
Y-2150000D03*
Y-2250000D03*
Y-1950000D03*
X-3450000Y-1750000D03*
Y-1850000D03*
Y-1650000D03*
X-3550000D03*
Y-1850000D03*
Y-1750000D03*
X-3650000D03*
Y-1850000D03*
Y-1650000D03*
X-3750000Y-1750000D03*
Y-1850000D03*
Y-1650000D03*
X-3850000Y-1750000D03*
Y-1850000D03*
Y-1650000D03*
X-3150000Y-1950000D03*
Y-2150000D03*
Y-2050000D03*
X-3250000Y-1950000D03*
Y-2150000D03*
Y-2050000D03*
X-3350000Y-1950000D03*
Y-2150000D03*
Y-2050000D03*
X-3150000Y-1650000D03*
Y-1850000D03*
Y-1750000D03*
X-3250000Y-1650000D03*
Y-1850000D03*
Y-1750000D03*
X-3350000Y-1650000D03*
Y-1850000D03*
Y-1750000D03*
X-3450000Y-1550000D03*
X-3550000D03*
X-3650000D03*
X-3750000D03*
X-3850000D03*
X-3150000D03*
X-3250000D03*
X-3350000D03*
X-3450000Y-150000D03*
X-3550000D03*
X-3650000D03*
X-3750000D03*
X-3850000D03*
X-3150000D03*
X-3250000D03*
X-3350000D03*
X-3450000Y-50000D03*
Y50000D03*
Y150000D03*
X-3550000D03*
Y50000D03*
Y-50000D03*
X-3650000D03*
Y50000D03*
Y150000D03*
X-3750000Y-50000D03*
Y50000D03*
Y150000D03*
X-3850000Y-50000D03*
Y50000D03*
Y150000D03*
X-3450000Y250000D03*
Y350000D03*
Y450000D03*
X-3550000D03*
Y350000D03*
Y250000D03*
X-3650000D03*
Y350000D03*
Y450000D03*
X-3750000Y250000D03*
Y350000D03*
Y450000D03*
X-3850000Y250000D03*
Y350000D03*
Y450000D03*
X-3450000Y550000D03*
Y650000D03*
X-3550000D03*
Y550000D03*
X-3650000D03*
Y650000D03*
X-3750000Y550000D03*
Y650000D03*
X-3850000Y550000D03*
Y650000D03*
X-3150000Y150000D03*
Y50000D03*
Y-50000D03*
X-3250000Y150000D03*
Y50000D03*
Y-50000D03*
X-3350000Y150000D03*
Y50000D03*
Y-50000D03*
X-3150000Y450000D03*
Y350000D03*
Y250000D03*
X-3250000Y450000D03*
Y350000D03*
Y250000D03*
X-3350000Y450000D03*
Y350000D03*
Y250000D03*
X-3450000Y750000D03*
X-3550000D03*
X-3650000D03*
X-3750000D03*
X-3850000D03*
X-3450000Y1050000D03*
Y950000D03*
Y850000D03*
Y1150000D03*
X-3550000D03*
Y850000D03*
Y950000D03*
Y1050000D03*
X-3650000D03*
Y950000D03*
Y850000D03*
Y1150000D03*
X-3750000Y1050000D03*
Y950000D03*
Y850000D03*
Y1150000D03*
X-3850000Y1050000D03*
Y950000D03*
Y850000D03*
Y1150000D03*
X-3450000Y1350000D03*
Y1250000D03*
Y1450000D03*
X-3550000D03*
Y1250000D03*
Y1350000D03*
X-3650000D03*
Y1250000D03*
Y1450000D03*
X-3750000Y1350000D03*
Y1250000D03*
Y1450000D03*
X-3850000Y1350000D03*
Y1250000D03*
Y1450000D03*
X-3150000Y1150000D03*
Y950000D03*
Y1050000D03*
X-3250000Y1150000D03*
Y950000D03*
Y1050000D03*
X-3350000Y1150000D03*
Y950000D03*
Y1050000D03*
X-3150000Y1450000D03*
Y1250000D03*
Y1350000D03*
X-3250000Y1450000D03*
Y1250000D03*
Y1350000D03*
X-3350000Y1450000D03*
Y1250000D03*
Y1350000D03*
X-3450000Y1550000D03*
X-3550000D03*
X-3650000D03*
X-3750000D03*
X-3850000D03*
X-3150000D03*
X-3250000D03*
X-3350000D03*
X-3050000Y-3250000D03*
Y-3150000D03*
X-2950000Y-3250000D03*
Y-3150000D03*
X-2850000D03*
Y-3250000D03*
X-2750000Y-3150000D03*
Y-3250000D03*
X-2650000Y-3150000D03*
Y-3250000D03*
X-2550000Y-3150000D03*
Y-3250000D03*
X-2450000Y-3150000D03*
Y-3250000D03*
X-3050000Y-3050000D03*
Y-2950000D03*
Y-2850000D03*
Y-2750000D03*
Y-2650000D03*
X-2950000Y-3050000D03*
Y-2950000D03*
Y-2850000D03*
Y-2750000D03*
Y-2650000D03*
X-2850000Y-2950000D03*
Y-3050000D03*
Y-2650000D03*
Y-2750000D03*
Y-2850000D03*
X-2750000Y-2950000D03*
Y-3050000D03*
Y-2650000D03*
Y-2750000D03*
Y-2850000D03*
Y-2450000D03*
Y-2550000D03*
X-2650000Y-2950000D03*
Y-3050000D03*
Y-2650000D03*
Y-2750000D03*
Y-2850000D03*
Y-2450000D03*
Y-2550000D03*
X-2550000Y-2950000D03*
Y-3050000D03*
Y-2650000D03*
Y-2750000D03*
Y-2850000D03*
Y-2450000D03*
Y-2550000D03*
X-2450000Y-2950000D03*
Y-3050000D03*
Y-2650000D03*
Y-2750000D03*
Y-2850000D03*
Y-2450000D03*
Y-2550000D03*
X-3050000Y-2050000D03*
Y-2150000D03*
Y-1950000D03*
Y-1750000D03*
Y-1850000D03*
Y-1650000D03*
X-2950000Y-2050000D03*
Y-2150000D03*
Y-1950000D03*
Y-1750000D03*
Y-1850000D03*
Y-1650000D03*
X-2850000Y-1950000D03*
Y-2150000D03*
Y-2050000D03*
Y-1650000D03*
Y-1850000D03*
Y-1750000D03*
X-2750000Y-2350000D03*
Y-1950000D03*
Y-2250000D03*
Y-2150000D03*
Y-2050000D03*
Y-1650000D03*
Y-1850000D03*
Y-1750000D03*
X-2650000Y-2350000D03*
Y-1950000D03*
Y-2250000D03*
Y-2150000D03*
Y-2050000D03*
Y-1650000D03*
Y-1850000D03*
Y-1750000D03*
X-2550000Y-2350000D03*
Y-1950000D03*
Y-2250000D03*
Y-2150000D03*
Y-2050000D03*
Y-1650000D03*
Y-1850000D03*
Y-1750000D03*
X-2450000Y-2350000D03*
Y-1950000D03*
Y-2250000D03*
Y-2150000D03*
Y-2050000D03*
Y-1650000D03*
Y-1850000D03*
Y-1750000D03*
X-3050000Y-1550000D03*
X-2950000D03*
X-2850000D03*
X-2750000D03*
X-2650000D03*
X-2550000D03*
X-2450000D03*
X-3050000Y-150000D03*
X-2950000D03*
X-2850000D03*
X-2750000D03*
X-2650000D03*
X-2550000D03*
X-2450000D03*
X-3050000Y-50000D03*
Y50000D03*
Y150000D03*
Y250000D03*
Y350000D03*
Y450000D03*
X-2950000Y-50000D03*
Y50000D03*
Y150000D03*
Y250000D03*
Y350000D03*
Y450000D03*
X-2850000Y150000D03*
Y50000D03*
Y-50000D03*
Y450000D03*
Y350000D03*
Y250000D03*
X-2750000Y150000D03*
Y50000D03*
Y-50000D03*
Y450000D03*
Y350000D03*
Y250000D03*
Y650000D03*
Y550000D03*
X-2650000Y150000D03*
Y50000D03*
Y-50000D03*
Y450000D03*
Y350000D03*
Y250000D03*
Y650000D03*
Y550000D03*
X-2550000Y150000D03*
Y50000D03*
Y-50000D03*
Y450000D03*
Y350000D03*
Y250000D03*
Y650000D03*
Y550000D03*
X-2450000Y150000D03*
Y50000D03*
Y-50000D03*
Y450000D03*
Y350000D03*
Y250000D03*
Y650000D03*
Y550000D03*
X-3050000Y1050000D03*
Y950000D03*
Y1150000D03*
Y1350000D03*
Y1250000D03*
Y1450000D03*
X-2950000Y1050000D03*
Y950000D03*
Y1150000D03*
Y1350000D03*
Y1250000D03*
Y1450000D03*
X-2850000Y1150000D03*
Y950000D03*
Y1050000D03*
Y1450000D03*
Y1250000D03*
Y1350000D03*
X-2750000Y750000D03*
Y1150000D03*
Y850000D03*
Y950000D03*
Y1050000D03*
Y1450000D03*
Y1250000D03*
Y1350000D03*
X-2650000Y750000D03*
Y1150000D03*
Y850000D03*
Y950000D03*
Y1050000D03*
Y1450000D03*
Y1250000D03*
Y1350000D03*
X-2550000Y750000D03*
Y1150000D03*
Y850000D03*
Y950000D03*
Y1050000D03*
Y1450000D03*
Y1250000D03*
Y1350000D03*
X-2450000Y750000D03*
Y1150000D03*
Y850000D03*
Y950000D03*
Y1050000D03*
Y1450000D03*
Y1250000D03*
Y1350000D03*
X-3050000Y1550000D03*
X-2950000D03*
X-2850000D03*
X-2750000D03*
X-2650000D03*
X-2550000D03*
X-2450000D03*
X-2250000Y-3150000D03*
Y-3250000D03*
X-2350000D03*
Y-3150000D03*
X-2250000Y-2950000D03*
Y-3050000D03*
Y-2650000D03*
Y-2750000D03*
Y-2850000D03*
Y-2450000D03*
Y-2550000D03*
X-2350000Y-2850000D03*
Y-3050000D03*
Y-2950000D03*
Y-2550000D03*
Y-2750000D03*
Y-2650000D03*
Y-2450000D03*
X-2250000Y-2350000D03*
Y-1950000D03*
Y-2250000D03*
Y-2150000D03*
Y-2050000D03*
Y-1650000D03*
Y-1850000D03*
Y-1750000D03*
X-2350000Y-2350000D03*
Y-2250000D03*
Y-2150000D03*
Y-2050000D03*
Y-1950000D03*
Y-1850000D03*
Y-1750000D03*
Y-1650000D03*
X-2250000Y-1550000D03*
X-2350000D03*
X-2250000Y-150000D03*
X-2350000D03*
X-2250000Y150000D03*
Y50000D03*
Y-50000D03*
Y450000D03*
Y350000D03*
Y250000D03*
Y650000D03*
Y550000D03*
X-2350000Y250000D03*
Y-50000D03*
Y50000D03*
Y150000D03*
Y550000D03*
Y350000D03*
Y450000D03*
Y650000D03*
X-2250000Y750000D03*
Y1150000D03*
Y850000D03*
Y950000D03*
Y1050000D03*
Y1450000D03*
Y1250000D03*
Y1350000D03*
X-2350000Y750000D03*
Y850000D03*
Y950000D03*
Y1050000D03*
Y1150000D03*
Y1250000D03*
Y1350000D03*
Y1450000D03*
X-2250000Y1550000D03*
X-2350000D03*
X-850000Y-3150000D03*
Y-3250000D03*
X-950000D03*
Y-3150000D03*
X-1050000Y-3250000D03*
Y-3150000D03*
X-1150000Y-3250000D03*
Y-3150000D03*
X-1250000Y-3250000D03*
Y-3150000D03*
X-850000Y-2950000D03*
Y-3050000D03*
X-950000D03*
Y-2950000D03*
X-1050000Y-3050000D03*
Y-2950000D03*
X-1150000Y-3050000D03*
Y-2950000D03*
X-1250000Y-3050000D03*
Y-2950000D03*
X-850000Y-2650000D03*
Y-2750000D03*
Y-2850000D03*
X-950000D03*
Y-2750000D03*
Y-2650000D03*
X-1050000Y-2850000D03*
Y-2750000D03*
Y-2650000D03*
X-1150000Y-2850000D03*
Y-2750000D03*
Y-2650000D03*
X-1250000Y-2850000D03*
Y-2750000D03*
Y-2650000D03*
X-850000Y-2450000D03*
Y-2550000D03*
X-950000D03*
Y-2450000D03*
X-1050000Y-2550000D03*
Y-2450000D03*
X-1150000Y-2550000D03*
Y-2450000D03*
X-1250000Y-2550000D03*
Y-2450000D03*
X-850000Y-2350000D03*
X-950000D03*
X-1050000D03*
X-1150000D03*
X-1250000D03*
X-850000Y-1950000D03*
Y-2250000D03*
Y-2150000D03*
Y-2050000D03*
X-950000D03*
Y-2150000D03*
Y-2250000D03*
Y-1950000D03*
X-1050000Y-2050000D03*
Y-2150000D03*
Y-2250000D03*
Y-1950000D03*
X-1150000Y-2050000D03*
Y-2150000D03*
Y-2250000D03*
Y-1950000D03*
X-1250000Y-2050000D03*
Y-2150000D03*
Y-2250000D03*
Y-1950000D03*
X-850000Y-1650000D03*
Y-1850000D03*
Y-1750000D03*
X-950000D03*
Y-1850000D03*
Y-1650000D03*
X-1050000Y-1750000D03*
Y-1850000D03*
Y-1650000D03*
X-1150000Y-1750000D03*
Y-1850000D03*
Y-1650000D03*
X-1250000Y-1750000D03*
Y-1850000D03*
Y-1650000D03*
X-850000Y-1550000D03*
X-950000D03*
X-1050000D03*
X-1150000D03*
X-1250000D03*
X-850000Y-150000D03*
X-950000D03*
X-1050000D03*
X-1150000D03*
X-1250000D03*
X-850000Y150000D03*
Y50000D03*
Y-50000D03*
X-950000D03*
Y50000D03*
Y150000D03*
X-1050000Y-50000D03*
Y50000D03*
Y150000D03*
X-1150000Y-50000D03*
Y50000D03*
Y150000D03*
X-1250000Y-50000D03*
Y50000D03*
Y150000D03*
X-850000Y450000D03*
Y350000D03*
Y250000D03*
X-950000D03*
Y350000D03*
Y450000D03*
X-1050000Y250000D03*
Y350000D03*
Y450000D03*
X-1150000Y250000D03*
Y350000D03*
Y450000D03*
X-1250000Y250000D03*
Y350000D03*
Y450000D03*
X-850000Y650000D03*
Y550000D03*
X-950000D03*
Y650000D03*
X-1050000Y550000D03*
Y650000D03*
X-1150000Y550000D03*
Y650000D03*
X-1250000Y550000D03*
Y650000D03*
X-850000Y750000D03*
X-950000D03*
X-1050000D03*
X-1150000D03*
X-1250000D03*
X-850000Y1150000D03*
Y850000D03*
Y950000D03*
Y1050000D03*
X-950000D03*
Y950000D03*
Y850000D03*
Y1150000D03*
X-1050000Y1050000D03*
Y950000D03*
Y850000D03*
Y1150000D03*
X-1150000Y1050000D03*
Y950000D03*
Y850000D03*
Y1150000D03*
X-1250000Y1050000D03*
Y950000D03*
Y850000D03*
Y1150000D03*
X-850000Y1450000D03*
Y1250000D03*
Y1350000D03*
X-950000D03*
Y1250000D03*
Y1450000D03*
X-1050000Y1350000D03*
Y1250000D03*
Y1450000D03*
X-1150000Y1350000D03*
Y1250000D03*
Y1450000D03*
X-1250000Y1350000D03*
Y1250000D03*
Y1450000D03*
X-850000Y1550000D03*
X-950000D03*
X-1050000D03*
X-1150000D03*
X-1250000D03*
X-750000Y-3250000D03*
Y-3150000D03*
X-450000D03*
Y-3250000D03*
X-550000Y-3150000D03*
Y-3250000D03*
X-650000Y-3150000D03*
Y-3250000D03*
X-350000D03*
Y-3150000D03*
X-250000Y-3250000D03*
Y-3150000D03*
X-150000D03*
Y-3250000D03*
X-750000Y-3050000D03*
Y-2950000D03*
Y-2850000D03*
Y-2750000D03*
Y-2650000D03*
Y-2550000D03*
Y-2450000D03*
X-450000Y-2950000D03*
Y-3050000D03*
X-550000Y-2950000D03*
Y-3050000D03*
X-650000Y-2950000D03*
Y-3050000D03*
X-450000Y-2650000D03*
Y-2750000D03*
Y-2850000D03*
X-550000Y-2650000D03*
Y-2750000D03*
Y-2850000D03*
X-650000Y-2650000D03*
Y-2750000D03*
Y-2850000D03*
X-350000Y-3050000D03*
Y-2950000D03*
Y-2850000D03*
Y-2750000D03*
Y-2650000D03*
X-250000Y-3050000D03*
Y-2950000D03*
Y-2850000D03*
Y-2750000D03*
Y-2650000D03*
X-150000Y-2950000D03*
Y-3050000D03*
Y-2650000D03*
Y-2750000D03*
Y-2850000D03*
X-750000Y-2350000D03*
Y-2050000D03*
Y-2150000D03*
Y-2250000D03*
Y-1950000D03*
Y-1750000D03*
Y-1850000D03*
Y-1650000D03*
X-450000Y-1950000D03*
Y-2150000D03*
Y-2050000D03*
X-550000Y-1950000D03*
Y-2150000D03*
Y-2050000D03*
X-650000Y-1950000D03*
Y-2150000D03*
Y-2050000D03*
X-450000Y-1650000D03*
Y-1850000D03*
Y-1750000D03*
X-550000Y-1650000D03*
Y-1850000D03*
Y-1750000D03*
X-650000Y-1650000D03*
Y-1850000D03*
Y-1750000D03*
X-350000Y-2050000D03*
Y-2150000D03*
Y-1950000D03*
Y-1750000D03*
Y-1850000D03*
Y-1650000D03*
X-250000Y-2050000D03*
Y-2150000D03*
Y-1950000D03*
Y-1750000D03*
Y-1850000D03*
Y-1650000D03*
X-150000Y-1950000D03*
Y-2150000D03*
Y-2050000D03*
Y-1650000D03*
Y-1850000D03*
Y-1750000D03*
X-750000Y-1550000D03*
X-450000D03*
X-550000D03*
X-650000D03*
X-350000D03*
X-250000D03*
X-150000D03*
X-750000Y-150000D03*
X-450000D03*
X-550000D03*
X-650000D03*
X-350000D03*
X-250000D03*
X-150000D03*
X-750000Y-50000D03*
Y50000D03*
Y150000D03*
Y250000D03*
Y350000D03*
Y450000D03*
Y550000D03*
Y650000D03*
X-450000Y150000D03*
Y50000D03*
Y-50000D03*
X-550000Y150000D03*
Y50000D03*
Y-50000D03*
X-650000Y150000D03*
Y50000D03*
Y-50000D03*
X-450000Y450000D03*
Y350000D03*
Y250000D03*
X-550000Y450000D03*
Y350000D03*
Y250000D03*
X-650000Y450000D03*
Y350000D03*
Y250000D03*
X-350000Y-50000D03*
Y50000D03*
Y150000D03*
Y250000D03*
Y350000D03*
Y450000D03*
X-250000Y-50000D03*
Y50000D03*
Y150000D03*
Y250000D03*
Y350000D03*
Y450000D03*
X-150000Y150000D03*
Y50000D03*
Y-50000D03*
Y450000D03*
Y350000D03*
Y250000D03*
X-750000Y750000D03*
Y1050000D03*
Y950000D03*
Y850000D03*
Y1150000D03*
Y1350000D03*
Y1250000D03*
Y1450000D03*
X-450000Y1150000D03*
Y950000D03*
Y1050000D03*
X-550000Y1150000D03*
Y950000D03*
Y1050000D03*
X-650000Y1150000D03*
Y950000D03*
Y1050000D03*
X-450000Y1450000D03*
Y1250000D03*
Y1350000D03*
X-550000Y1450000D03*
Y1250000D03*
Y1350000D03*
X-650000Y1450000D03*
Y1250000D03*
Y1350000D03*
X-350000Y1050000D03*
Y950000D03*
Y1150000D03*
Y1350000D03*
Y1250000D03*
Y1450000D03*
X-250000Y1050000D03*
Y950000D03*
Y1150000D03*
Y1350000D03*
Y1250000D03*
Y1450000D03*
X-150000Y1150000D03*
Y950000D03*
Y1050000D03*
Y1450000D03*
Y1250000D03*
Y1350000D03*
X-750000Y1550000D03*
X-450000D03*
X-550000D03*
X-650000D03*
X-350000D03*
X-250000D03*
X-150000D03*
X450000Y-3150000D03*
Y-3250000D03*
X-50000Y-3150000D03*
Y-3250000D03*
X50000Y-3150000D03*
Y-3250000D03*
X150000Y-3150000D03*
Y-3250000D03*
X250000Y-3150000D03*
Y-3250000D03*
X350000D03*
Y-3150000D03*
X450000Y-2950000D03*
Y-3050000D03*
Y-2650000D03*
Y-2750000D03*
Y-2850000D03*
Y-2450000D03*
Y-2550000D03*
X-50000Y-2950000D03*
Y-3050000D03*
Y-2650000D03*
Y-2750000D03*
Y-2850000D03*
Y-2450000D03*
Y-2550000D03*
X50000Y-2950000D03*
Y-3050000D03*
Y-2650000D03*
Y-2750000D03*
Y-2850000D03*
Y-2450000D03*
Y-2550000D03*
X150000Y-2950000D03*
Y-3050000D03*
Y-2650000D03*
Y-2750000D03*
Y-2850000D03*
Y-2450000D03*
Y-2550000D03*
X250000Y-2950000D03*
Y-3050000D03*
Y-2650000D03*
Y-2750000D03*
Y-2850000D03*
Y-2450000D03*
Y-2550000D03*
X350000Y-2850000D03*
Y-3050000D03*
Y-2950000D03*
Y-2550000D03*
Y-2750000D03*
Y-2650000D03*
Y-2450000D03*
X450000Y-2350000D03*
Y-1950000D03*
Y-2250000D03*
Y-2150000D03*
Y-2050000D03*
Y-1650000D03*
Y-1850000D03*
Y-1750000D03*
X-50000Y-2350000D03*
Y-1950000D03*
Y-2250000D03*
Y-2150000D03*
Y-2050000D03*
Y-1650000D03*
Y-1850000D03*
Y-1750000D03*
X50000Y-2350000D03*
Y-1950000D03*
Y-2250000D03*
Y-2150000D03*
Y-2050000D03*
Y-1650000D03*
Y-1850000D03*
Y-1750000D03*
X150000Y-2350000D03*
Y-1950000D03*
Y-2250000D03*
Y-2150000D03*
Y-2050000D03*
Y-1650000D03*
Y-1850000D03*
Y-1750000D03*
X250000Y-2350000D03*
Y-1950000D03*
Y-2250000D03*
Y-2150000D03*
Y-2050000D03*
Y-1650000D03*
Y-1850000D03*
Y-1750000D03*
X350000Y-2350000D03*
Y-2250000D03*
Y-2150000D03*
Y-2050000D03*
Y-1950000D03*
Y-1850000D03*
Y-1750000D03*
Y-1650000D03*
X450000Y-1550000D03*
X-50000D03*
X50000D03*
X150000D03*
X250000D03*
X350000D03*
X450000Y-150000D03*
X-50000D03*
X50000D03*
X150000D03*
X250000D03*
X350000D03*
X450000Y150000D03*
Y50000D03*
Y-50000D03*
Y450000D03*
Y350000D03*
Y250000D03*
Y650000D03*
Y550000D03*
X-50000Y150000D03*
Y50000D03*
Y-50000D03*
Y450000D03*
Y350000D03*
Y250000D03*
Y650000D03*
Y550000D03*
X50000Y150000D03*
Y50000D03*
Y-50000D03*
Y450000D03*
Y350000D03*
Y250000D03*
Y650000D03*
Y550000D03*
X150000Y150000D03*
Y50000D03*
Y-50000D03*
Y450000D03*
Y350000D03*
Y250000D03*
Y650000D03*
Y550000D03*
X250000Y150000D03*
Y50000D03*
Y-50000D03*
Y450000D03*
Y350000D03*
Y250000D03*
Y650000D03*
Y550000D03*
X350000Y250000D03*
Y-50000D03*
Y50000D03*
Y150000D03*
Y550000D03*
Y350000D03*
Y450000D03*
Y650000D03*
X450000Y750000D03*
Y1150000D03*
Y850000D03*
Y950000D03*
Y1050000D03*
Y1450000D03*
Y1250000D03*
Y1350000D03*
X-50000Y750000D03*
Y1150000D03*
Y850000D03*
Y950000D03*
Y1050000D03*
Y1450000D03*
Y1250000D03*
Y1350000D03*
X50000Y750000D03*
Y1150000D03*
Y850000D03*
Y950000D03*
Y1050000D03*
Y1450000D03*
Y1250000D03*
Y1350000D03*
X150000Y750000D03*
Y1150000D03*
Y850000D03*
Y950000D03*
Y1050000D03*
Y1450000D03*
Y1250000D03*
Y1350000D03*
X250000Y750000D03*
Y1150000D03*
Y850000D03*
Y950000D03*
Y1050000D03*
Y1450000D03*
Y1250000D03*
Y1350000D03*
X350000Y750000D03*
Y850000D03*
Y950000D03*
Y1050000D03*
Y1150000D03*
Y1250000D03*
Y1350000D03*
Y1450000D03*
X450000Y1550000D03*
X-50000D03*
X50000D03*
X150000D03*
X250000D03*
X350000D03*
G54D12*
X-4132000Y2700000D03*
X-3878000D03*
X-3624000D03*
X-3370000D03*
X-3116000D03*
X-2862000D03*
X-2608000D03*
X-2354000D03*
X-2100000D03*
X-1041400Y-5273040D03*
X-986000Y2700000D03*
X-732000D03*
X-478000D03*
X-224000D03*
X30000D03*
X284000D03*
X538000D03*
X846000Y-4700000D03*
X1100000D03*
X1470000Y1070000D03*
Y1325000D03*
Y1830000D03*
Y1575000D03*
X792000Y2700000D03*
X1046000D03*
X1300000D03*
X2230000Y1070000D03*
Y1325000D03*
Y1575000D03*
Y1830000D03*
X2927000Y-4654000D03*
X2800000Y-4400000D03*
X2500000Y2246000D03*
Y2500000D03*
X3689000Y-4654000D03*
X3435000D03*
X3181000D03*
X3562000Y-4400000D03*
X3308000D03*
X3054000D03*
X3943000Y-4654000D03*
X3816000Y-4400000D03*
X4200000Y2438000D03*
Y2692000D03*
Y2946000D03*
Y3200000D03*
G54D21*
X1424750Y-2462500D03*
X1474750D03*
X1524750D03*
X1574750D03*
X1624750D03*
X1674750D03*
X1724750D03*
X1774750D03*
G54D30*
X1615000Y2205000D03*
X2185000D03*
X1615000Y2595000D03*
Y2530000D03*
Y2465000D03*
Y2270000D03*
Y2335000D03*
X2185000Y2270000D03*
Y2335000D03*
Y2595000D03*
Y2530000D03*
Y2465000D03*
Y2400000D03*
X1615000D03*
G54D22*
X1261900Y-1600000D03*
X1338100D03*
X1161900Y-2200000D03*
X1238100D03*
X1161900Y-2000000D03*
X1238100D03*
X1161900Y2300000D03*
X1238100D03*
X1561900Y-1600000D03*
X1638100D03*
X1938100Y-2000000D03*
X1861900D03*
X1938100Y-2200000D03*
X1861900D03*
X1461900D03*
X1538100D03*
X2161900Y-1600000D03*
X1938100D03*
X1861900D03*
X2361900Y-3200000D03*
X2438100D03*
X2361900Y-2400000D03*
X2438100D03*
X2361900Y-3000000D03*
X2438100D03*
X2361900Y-2800000D03*
X2438100D03*
X2361900Y-2600000D03*
X2438100D03*
X2361900Y-2200000D03*
X2438100D03*
X2661900Y-1700000D03*
X2738100D03*
X2238100Y-1600000D03*
X3338100Y2700000D03*
X3261900D03*
X3561900Y2300000D03*
X3638100D03*
G54D13*
X-3932000Y3173000D03*
Y3300000D03*
X-3170000Y3173000D03*
X-3297000D03*
X-3424000D03*
X-3551000D03*
X-3678000D03*
X-3805000D03*
Y3300000D03*
X-3678000D03*
X-3551000D03*
X-3424000D03*
X-3297000D03*
X-3170000D03*
X-2408000Y3173000D03*
X-2535000D03*
X-2662000D03*
X-2789000D03*
X-2916000D03*
X-3043000D03*
Y3300000D03*
X-2916000D03*
X-2789000D03*
X-2662000D03*
X-2535000D03*
X-2408000D03*
X-1900000Y3173000D03*
X-2027000D03*
X-2154000D03*
X-2281000D03*
Y3300000D03*
X-2154000D03*
X-2027000D03*
X-1900000D03*
X-905000Y3173000D03*
X-1032000D03*
Y3300000D03*
X-905000D03*
X-143000Y3173000D03*
X-270000D03*
X-397000D03*
X-524000D03*
X-651000D03*
X-778000D03*
Y3300000D03*
X-651000D03*
X-524000D03*
X-397000D03*
X-270000D03*
X-143000D03*
X619000Y3173000D03*
X492000D03*
X365000D03*
X238000D03*
X111000D03*
X-16000D03*
Y3300000D03*
X111000D03*
X238000D03*
X365000D03*
X492000D03*
X619000D03*
X1000000Y3173000D03*
X873000D03*
X746000D03*
Y3300000D03*
X873000D03*
X1000000D03*
G54D31*
X1700000Y3070000D03*
X2100000D03*
Y3750000D03*
X1700000D03*
G54D14*
X-4033400Y3746000D03*
X-3333400D03*
X-3754000D03*
X-3054000D03*
X-2633400D03*
X-2354000D03*
X-1933400D03*
X-1654000D03*
X-1133400D03*
X-854000D03*
X-433400D03*
X-154000D03*
X266600D03*
X546000D03*
X966600D03*
X1246000D03*
X2466600D03*
X2746000D03*
X3166600D03*
X3446000D03*
X3866600D03*
X4146000D03*
G54D32*
X2962560Y-5695400D03*
X2708560D03*
X3780440D03*
X4034440D03*
G54D23*
X1250000Y-2350000D03*
X1950000Y-3050000D03*
G54D15*
X-100000Y-5235000D03*
Y-4600000D03*
X408000Y-4917500D03*
G54D24*
X1400000Y-1200000D03*
X2350000D03*
G54D33*
X2800000Y-5289000D03*
X3943000D03*
G54D34*
X2596800Y-4984200D03*
X4146200D03*
G54D25*
X1473000Y-100000D03*
Y-600000D03*
X1727000Y-100000D03*
Y-600000D03*
X2973000Y-1400000D03*
X3227000D03*
X3726180Y1694180D03*
X3472180D03*
G54D16*
X1380000Y-5473000D03*
Y-5600000D03*
Y-5219000D03*
Y-5346000D03*
X1900000Y-5473000D03*
Y-5600000D03*
Y-5219000D03*
Y-5346000D03*
X3324860Y914400D03*
Y1041400D03*
Y1168400D03*
Y1295400D03*
X3844860Y914400D03*
Y1041400D03*
Y1168400D03*
Y1295400D03*
G54D26*
X1600000Y-2700000D03*
G54D35*
X2940000Y-3227000D03*
Y-3100000D03*
X3702000Y-3227000D03*
X3575000D03*
X3448000D03*
X3321000D03*
X3194000D03*
X3067000D03*
X3702000Y-3100000D03*
X3575000D03*
X3448000D03*
X3321000D03*
X3194000D03*
X3067000D03*
X4083000Y-3227000D03*
X3956000D03*
X3829000D03*
X4083000Y-3100000D03*
X3956000D03*
X3829000D03*
G54D17*
X900940Y-5200000D03*
X1101600D03*
X1500940Y-4800000D03*
X1701600D03*
X1500940Y-1900000D03*
X1701600D03*
X2500940Y3000000D03*
X2701600D03*
X2500940Y3300000D03*
X2701600D03*
X3700940D03*
X3901600D03*
G54D18*
X1300000Y-3261900D03*
Y-3338100D03*
X1100000D03*
Y-3261900D03*
X1700000Y-3338100D03*
Y-3261900D03*
X1500000D03*
Y-3338100D03*
X2000000D03*
Y-3261900D03*
G54D36*
X3068860Y-2000000D03*
X3528600D03*
G54D27*
X1837500Y-2524750D03*
Y-2824750D03*
Y-2874750D03*
Y-2574750D03*
Y-2624750D03*
Y-2674750D03*
Y-2724750D03*
Y-2774750D03*
G54D19*
X1362500Y-2525250D03*
Y-2575250D03*
Y-2625250D03*
Y-2675250D03*
Y-2725250D03*
Y-2775250D03*
Y-2825250D03*
Y-2875250D03*
G54D28*
X2195000Y-600000D03*
Y352500D03*
X4100000Y35000D03*
Y-282500D03*
Y-600000D03*
Y352500D03*
G54D37*
X2682240Y1460500D03*
Y825500D03*
G54D38*
X3165000Y-2700000D03*
X3800000D03*
G54D29*
X1700000Y300940D03*
Y501600D03*
X2300000Y-5299060D03*
Y-5098400D03*
Y-4701600D03*
Y-4500940D03*
X2800000Y2300940D03*
Y2501600D03*
X3500000Y-1499060D03*
Y-1298400D03*
G54D39*
X3354000Y3000000D03*
X3100000D03*
Y3250000D03*
X3354000D03*
M02*
