G04 ================== begin FILE IDENTIFICATION RECORD ==================*
G04 Layout Name:  /home/amu4/spinnaker/PCB/spinnaker2_test_pcb_lib/bunnybot/physical/bunny15.brd*
G04 Film Name:    BOTTOM*
G04 File Format:  Gerber RS274X*
G04 File Origin:  16.01-S5*
G04 Origin Date:  Wed Oct 12 13:00:12 2011*
G04 *
G04 Layer:  ETCH/BOTTOM*
G04 Layer:  PIN/BOTTOM*
G04 Layer:  VIA CLASS/BOTTOM*
G04 *
G04 Offset:    (0.0000 0.0000)*
G04 Mirror:    No*
G04 Mode:      Positive*
G04 Rotation:  0*
G04 FullContactRelief:  No*
G04 UndefLineWidth:     0.0000*
G04 ================== end FILE IDENTIFICATION RECORD ====================*
%FSLAX55Y55*MOMM*%
%IR0*IPPOS*OFA0.00000B0.00000*MIA0B0*SFA1.00000B1.00000*%
%ADD10C,.5*%
%ADD22C,.55*%
%ADD14C,.48*%
%ADD17R,.762X1.3462*%
%ADD20C,.9144*%
%ADD19R,1.3462X.762*%
%ADD11C,1.*%
%ADD25C,1.1*%
%ADD16C,1.05*%
%ADD15C,1.524*%
%ADD23C,3.048*%
%ADD24C,2.0828*%
%ADD21C,2.667*%
%ADD13R,.3048X.5588*%
%ADD12R,.5588X.3048*%
%ADD18C,3.9878*%
%ADD26C,.2*%
%ADD27C,.15*%
%ADD28C,.25*%
%ADD32C,2.2148*%
%ADD31C,2.8244*%
%ADD30C,1.7804*%
%ADD29C,5.2882*%
G75*
%LPD*%
G75*
G36*
G01X-2849970Y-5899990D02*
Y-5349970D01*
X-4399990D01*
Y-4300000D01*
X730980D01*
Y-4618030D01*
X729660Y-4619950D01*
G03Y-4780050I116340J-80050D01*
G01X730980Y-4781970D01*
Y-4942400D01*
X866760Y-5078180D01*
X2065590D01*
X2067750Y-5080200D01*
G03X2227630Y-4914850I78550J84019D01*
G01X2160920Y-4848140D01*
X1685650D01*
G02X1671430Y-4828360I-2J15000D01*
G03X1502670I-84380J28360D01*
G02X1488450Y-4848140I-14218J-4780D01*
G01X1181720D01*
G02X1173870Y-4820360I2J15000D01*
G03X979400Y-4626520I-73872J120359D01*
G02X966600I-6400J3906D01*
G03X962340Y-4619950I-120577J-73516D01*
G01X961020Y-4618030D01*
Y-4300000D01*
X2220350D01*
Y-4544710D01*
X2219620Y-4546240D01*
G03X2388960Y-4587750I80379J-38259D01*
G01X2389220Y-4580520D01*
X2710920D01*
Y-4828990D01*
G02X2687850Y-4841630I-14999J2D01*
G03X2590210Y-5153230I-91048J-142568D01*
G02X2602630Y-5175690I-586J-14988D01*
G03X2900700Y-5084910I197368J-113309D01*
G02X2907340Y-5056460I6638J13451D01*
G01X3477260D01*
Y-5767920D01*
X3659190D01*
X3661400Y-5771380D01*
G03X3895250Y-5777640I119043J75978D01*
G02X3919630I12190J-8730D01*
G03Y-5613160I114810J82240D01*
G02X3895250I-12190J8730D01*
G03X3661400Y-5619420I-114807J-82238D01*
G01X3659190Y-5622880D01*
X3622300D01*
Y-4911420D01*
X3498370D01*
G02X3487770Y-4885810I2J15000D01*
G01X3605510Y-4768070D01*
X3610630Y-4771480D01*
G03X3803810Y-4736240I78374J117479D01*
G02X3828190I12190J-8730D01*
G03X3938270Y-4512860I114807J82237D01*
G02X3926070Y-4488470I-508J14992D01*
G03X3934490Y-4323160I-110069J88476D01*
G02X3947070Y-4300000I12583J8162D01*
G01X4399990D01*
Y-5899990D01*
X-2849970D01*
G37*
G36*
G01X-4399990Y-1731980D02*
Y-747860D01*
X-4053520D01*
X-4051620Y-749140D01*
G03X-4027420Y-760600I49765J73807D01*
G01X-4022080Y-762210D01*
Y-851240D01*
G02X-4039250Y-866080I-15000J2D01*
G03X-4133350Y-917680I-12899J-88080D01*
G02X-4154770Y-924380I-13682J6150D01*
G03X-4281620Y-1037680I-45892J-76280D01*
G03X-4279800Y-1134440I75619J-46975D01*
G01X-4278520Y-1136340D01*
Y-1256320D01*
X-4279800Y-1258220D01*
G03X-4294980Y-1310550I73802J-49775D01*
G02X-4309980Y-1325980I-14995J-429D01*
G01X-4353360D01*
Y-1500000D01*
G03X-4321540Y-1561330I75014J0D01*
G01X-4318360Y-1563570D01*
Y-1592960D01*
X-4149920D01*
X-4147950Y-1597430D01*
G03X-4044690Y-1647810I81450J35929D01*
G02X-4026020Y-1662350I3671J-14543D01*
G01Y-1716830D01*
X-4031650Y-1718280D01*
G03X-4059280Y-1730700I22150J-86220D01*
G01X-4061180Y-1731980D01*
X-4399990D01*
G37*
G36*
G01X-4048280Y-126600D02*
G03X-4076040Y-113900I-50366J-73402D01*
G01X-4081640Y-112430D01*
Y-107040D01*
X-4127120D01*
Y7040D01*
X-4081640D01*
Y14710D01*
X-4076740Y16520D01*
G03X-4047260Y34610I-30932J83473D01*
G02X-4022080Y23590I10179J-11019D01*
G01Y-113400D01*
X-4026980Y-115210D01*
G03X-4048280Y-126600I30939J-83470D01*
G37*
G36*
G01X-4266320Y-509820D02*
Y-445120D01*
X-4259240Y-444720D01*
G03X-4175210Y-359090I-4929J88882D01*
G01X-4174950Y-351860D01*
X-4150330D01*
X-4148430Y-353140D01*
G03X-4100320Y-368340I49774J73803D01*
G01X-4092960Y-368480D01*
Y-509820D01*
X-4266320D01*
G37*
G36*
G01X-3776760Y1882550D02*
G02X-3798220Y1876260I-13542J6448D01*
G03X-3885290Y1880150I-46999J-75601D01*
G02X-3907040Y1893550I-6750J13396D01*
G01Y1918360D01*
X-3914710D01*
X-3916520Y1923260D01*
G03X-3937790Y1956020I-83481J-30917D01*
G01X-3937820Y1956050D01*
X-3943160Y1961380D01*
X-3798440Y2106100D01*
Y2108390D01*
G02X-3773270Y2119420I15000J3D01*
G03X-3633920Y2143760I60374J65420D01*
G03X-3570780Y2190510I-15968J87579D01*
G03X-3555830Y2188850I17264J87332D01*
G02X-3541220Y2173860I-390J-14995D01*
G01Y1984010D01*
X-3541320Y1983400D01*
G03X-3542350Y1974340I87819J-14572D01*
G02X-3553730Y1968390I-7486J460D01*
G03X-3679830Y1931730I-46270J-76050D01*
G03X-3776760Y1882550I-16562J-87469D01*
G37*
G36*
G01X-4154040Y1692960D02*
Y1750500D01*
X-4118570Y1785970D01*
G02X-4092960Y1775370I10610J-10602D01*
G01Y1692960D01*
X-4154040D01*
G37*
G36*
G01X-4319970Y1740550D02*
Y2262350D01*
G02X-4295870Y2274270I14999J-3D01*
G03X-4153950Y2248740I95874J125728D01*
G02X-4144720Y2244160I2192J-7173D01*
G03X-4039280Y2361130I83564J30682D01*
G02X-4044800Y2369830I1844J7271D01*
G03X-4061640Y2476520I-155202J30177D01*
G02X-4048510Y2498780I13126J7260D01*
G01X-3950080D01*
X-3943480Y2492180D01*
Y2166180D01*
X-4022590Y2087070D01*
G02X-4047190Y2092280I-10605J10608D01*
G03X-4162270Y1977200I-83060J-32020D01*
G02X-4157060Y1952600I-5398J-13995D01*
G01X-4299080Y1810580D01*
Y1747120D01*
X-4302970Y1744980D01*
G03X-4308400Y1741750I42765J-78073D01*
G01X-4310260Y1740550D01*
X-4319970D01*
G37*
G36*
G01X-4004520Y1571520D02*
G02X-4019390Y1588460I3J14999D01*
G03X-4018700Y1603170I-88271J11512D01*
G02X-4003170Y1618700I14994J536D01*
G03X-3942440Y1639750I3177J88963D01*
G02X-3917740Y1628310I9701J-11440D01*
G01Y1571520D01*
X-4004520D01*
G37*
G36*
G01X-4095600Y2909700D02*
X-4158180Y2972280D01*
Y3438980D01*
X-4079520D01*
Y2909700D01*
X-4095600D01*
G37*
G36*
G01X-4295870Y2525730D02*
G02X-4319970Y2537650I-9101J11923D01*
G01Y2598780D01*
G02X-4294360Y2609380I15000J-2D01*
G01X-4255550Y2570570D01*
G02X-4260430Y2546110I-10611J-10600D01*
G03X-4295870Y2525730I60438J-146104D01*
G37*
G36*
G01X-4294360Y3636480D02*
G02X-4319970Y3647080I-10610J10602D01*
G01Y3777290D01*
X-4268260D01*
G02X-4256240Y3753310I4J-15000D01*
G03X-4266770Y3664930I71290J-53311D01*
G02X-4280560Y3644020I-13787J-5910D01*
G01X-4286820D01*
X-4294360Y3636480D01*
G37*
G36*
G01X-3934480Y3007720D02*
Y3055290D01*
X-3927280Y3055570D01*
G03X-3868500Y3074110I-4724J117427D01*
G03X-3741500I63500J98890D01*
G03X-3614500I63500J98890D01*
G03X-3487500I63500J98890D01*
G03X-3360500I63500J98890D01*
G03X-3233500I63500J98890D01*
G03X-3106500I63500J98890D01*
G03X-2979500I63500J98890D01*
G03X-2880990Y3060820I63493J98891D01*
G02X-2861520Y3046500I4469J-14320D01*
G01Y3007720D01*
X-3934480D01*
G37*
G36*
G01X-3402100Y-1791340D02*
G02X-3414900Y-1786030I-5300J5306D01*
G01Y-1513210D01*
G02X-3402100Y-1507900I7500J4D01*
G01X-3399440Y-1510560D01*
Y-1788680D01*
X-3402100Y-1791340D01*
G37*
G36*
G01X-3387220Y-1112230D02*
G02X-3407600Y-1126230I-14999J1D01*
G03X-3419050Y-1122700I-31892J-83112D01*
G03X-3465940Y-1071240I-84007J-29453D01*
G03X-3463300Y-1018720I-83620J30530D01*
G01X-3463530Y-1017810D01*
Y-963680D01*
X-3362890D01*
G02X-3348480Y-982870I6J-15001D01*
G03X-3350380Y-990720I85480J-24844D01*
G01X-3350820Y-992970D01*
X-3387220Y-1029370D01*
Y-1112230D01*
G37*
G36*
G01X-3658600Y-1140650D02*
G02X-3683470Y-1129350I-9870J11296D01*
G01Y-1036730D01*
X-3638780D01*
X-3638520Y-1043960D01*
G03X-3623360Y-1090490I88960J3250D01*
G01X-3622080Y-1092390D01*
Y-1121250D01*
X-3627280Y-1122920D01*
G03X-3658600Y-1140650I27289J-84735D01*
G37*
G36*
G01X-3420990Y-545570D02*
Y-383940D01*
X-3416090Y-382130D01*
G03X-3391320Y-368100I-30924J83477D01*
G03X-3386180Y-370870I44781J76941D01*
G01X-3382020Y-372940D01*
Y-545570D01*
X-3420990D01*
G37*
G36*
G01X-3653990Y1270780D02*
G03X-3713160Y1279930I-42397J-78279D01*
G02X-3730980Y1294660I-2821J14731D01*
G01Y1429020D01*
X-3772700D01*
Y1748980D01*
X-3771420Y1750880D01*
G03X-3764850Y1762370I-73782J49812D01*
G02X-3743390Y1768660I13542J-6448D01*
G03X-3700140Y1755320I47000J75600D01*
G01X-3692960Y1755020D01*
Y1681640D01*
X-3685290D01*
X-3683480Y1676740D01*
G03X-3516520I83480J30920D01*
G01X-3514710Y1681640D01*
X-3507040D01*
Y1872220D01*
G02X-3486480Y1886160I15001J6D01*
G03X-3388870Y1907620I32986J82682D01*
G02X-3366880Y1907390I10888J-10316D01*
G03X-3330990Y1883440I65885J59866D01*
G01X-3326020Y1881670D01*
Y1478090D01*
X-3330990Y1476320D01*
G03X-3389950Y1395920I29994J-83814D01*
G02X-3405240Y1381500I-14991J579D01*
G03X-3495950Y1296150I-1764J-89003D01*
G02X-3503170Y1288960I-7493J304D01*
G03X-3550000Y1273650I3166J-88962D01*
G03X-3653990Y1270780I-50002J-73650D01*
G37*
G36*
G01X-3326020Y2094180D02*
G02X-3350530Y2082580I-14999J-2D01*
G03X-3390100Y2101160I-56463J-68823D01*
G01X-3396180Y2102340D01*
Y2417570D01*
G02X-3377190Y2432030I15000J1D01*
G03X-3264550Y2514370I23688J85810D01*
G02X-3249560Y2528780I14989J-591D01*
G01X-3241480D01*
X-3214130Y2556130D01*
G02X-3188520Y2545530I10610J-10602D01*
G01Y2409730D01*
G02X-3210730Y2396570I-15000J-6D01*
G03X-3327300Y2268720I-42769J-78072D01*
G01X-3326020Y2266820D01*
Y2094180D01*
G37*
G36*
G01X-3773270Y2250260D02*
G02X-3798440Y2261290I-10170J11027D01*
G01Y2353900D01*
G02X-3782840Y2368890I15000J2D01*
G03X-3704250Y2505710I3538J88949D01*
G02X-3691600Y2528780I12646J8069D01*
G01X-3572380D01*
G02X-3557430Y2512580I-3J-15001D01*
G03X-3551570Y2472920I88731J-7152D01*
G02X-3562940Y2452670I-13965J-5476D01*
G03X-3627880Y2326750I15442J-87669D01*
G03X-3632610Y2318670I74355J-48952D01*
G03X-3728870Y2272420I-17282J-87329D01*
G03X-3773270Y2250260I15979J-87575D01*
G37*
G36*
G01X-2512960Y1412020D02*
X-2514540Y1417420D01*
G03X-2526200Y1442280I-85461J-24919D01*
G01X-2527480Y1444180D01*
Y1535830D01*
G02X-2510570Y1550710I15000J2D01*
G03X-2449420Y1565200I11371J88290D01*
G01X-2447520Y1566480D01*
X-2418950D01*
Y1488810D01*
X-2424120Y1487120D01*
G03X-2484120Y1418200I27624J-84626D01*
G01X-2485220Y1412020D01*
X-2512960D01*
G37*
G36*
G01X-2107040Y-3566320D02*
Y-3392960D01*
X-2072880D01*
Y-3566320D01*
X-2107040D01*
G37*
G36*
G01X-1867840Y-3668950D02*
Y-3541580D01*
G02X-1844710Y-3528970I15001J3D01*
G03X-1730110Y-3513530I48262J74801D01*
G02X-1705660Y-3516540I11179J-9998D01*
G03X-1700700Y-3524820I78736J41540D01*
G01X-1699420Y-3526720D01*
Y-3668950D01*
X-1867840D01*
G37*
G36*
G01X-2282260Y-2427480D02*
Y-2332390D01*
G02X-2264380Y-2317670I14999J0D01*
G03X-2250440Y-2319020I13940J71297D01*
G01X-2242680D01*
X-2240780Y-2320300D01*
G03X-2221920Y-2329980I49790J73795D01*
G01X-2217020Y-2331790D01*
Y-2411180D01*
X-2223260Y-2412250D01*
G03X-2258060Y-2426200I14980J-87750D01*
G01X-2259960Y-2427480D01*
X-2282260D01*
G37*
G36*
G01X-2071980Y-1807040D02*
Y-1719520D01*
X-1975740D01*
X-1973840Y-1720800D01*
G03X-1927380Y-1735960I49784J73798D01*
G01X-1920160Y-1736230D01*
Y-1807040D01*
X-2071980D01*
G37*
G36*
G01X-1666240Y-2224980D02*
X-1667480Y-2219000D01*
G03X-1688200Y-2177780I-87179J-18004D01*
G03X-1681600Y-2147240I-82360J33782D01*
G01X-1681340Y-2140010D01*
X-1572880D01*
Y-2207040D01*
X-1618360D01*
Y-2224980D01*
X-1666240D01*
G37*
G36*
G01X-1547820Y-969630D02*
Y-767670D01*
X-1639020D01*
Y-621430D01*
G02X-1619460Y-607140I14999J1D01*
G03X-1536830Y-591910I27089J84799D01*
G03X-1530260Y-594650I37523J80726D01*
G01X-1525360Y-596460D01*
Y-969630D01*
X-1547820D01*
G37*
G36*
G01X-2295280Y3584020D02*
Y3717290D01*
X-2158940D01*
G02X-2143950Y3701960I-6J-14999D01*
G03X-2022630Y3617060I88997J-1957D01*
G02X-2002180Y3603080I5448J-13977D01*
G01Y3584020D01*
X-2295280D01*
G37*
G36*
G01X-1487560Y3488220D02*
G03X-1618430Y3525300I-81092J-36720D01*
G01X-1620330Y3524020D01*
X-1735940D01*
Y3567670D01*
X-1595280D01*
Y3717290D01*
X-1388940D01*
G02X-1373950Y3701960I-6J-14999D01*
G03X-1311930Y3615170I88998J-1957D01*
G01X-1306700Y3613500D01*
Y3600520D01*
X-1335180D01*
Y3504670D01*
G02X-1359190Y3492680I-15000J2D01*
G03X-1464560Y3493820I-53461J-71180D01*
G03X-1487560Y3488220I5426J-72316D01*
G37*
G36*
G01X-1373860Y3100740D02*
X-1375670Y3105640D01*
G03X-1508930Y3148520I-83478J-30920D01*
G01X-1510830Y3147240D01*
X-1767920D01*
G02X-1782870Y3163460I1J15001D01*
G03X-1801110Y3236500I-117132J9547D01*
G03X-1782570Y3295280I-98887J63504D01*
G01X-1782290Y3302480D01*
X-1387830D01*
X-1385930Y3301200D01*
G03X-1342170Y3286180I49787J73797D01*
G01X-1335180Y3285710D01*
Y3100740D01*
X-1373860D01*
G37*
G36*
G01X-1554380Y-3698950D02*
Y-3579560D01*
G02X-1529940Y-3567910I14999J-5D01*
G03X-1471210Y-3587720I56038J69170D01*
G02X-1455780Y-3601790I458J-14994D01*
G03X-1414930Y-3671320I88852J5437D01*
G02X-1423020Y-3698950I-8092J-12630D01*
G01X-1554380D01*
G37*
G36*
G01X-957420Y-3788950D02*
Y-3711990D01*
X-950940Y-3711100D01*
G03X-895780Y-3681260I-12062J88199D01*
G03X-876710Y-3678260I-4218J88920D01*
G03X-837920Y-3706380I69716J55355D01*
G01X-833020Y-3708190D01*
Y-3788950D01*
X-957420D01*
G37*
G36*
G01X-1566320Y-1807040D02*
Y-1717300D01*
G02X-1550520Y-1702320I15001J0D01*
G03X-1516600Y-1697530I4746J88891D01*
G02X-1496680Y-1711710I4919J-14172D01*
G01Y-1807040D01*
X-1566320D01*
G37*
G36*
G01X-898710Y-974740D02*
G02X-919470Y-966230I-6604J13467D01*
G03X-1044460Y-916620I-84018J-29421D01*
G02X-1065330Y-908760I-6899J13320D01*
G03X-1128480Y-854370I-82911J-32409D01*
G01X-1134320Y-853040D01*
Y-727680D01*
X-903930D01*
G02X-888940Y-742050I3J-15001D01*
G03X-887750Y-753320I88943J3694D01*
G03X-873240Y-929070I19466J-86867D01*
G02X-859080Y-944050I-840J-14977D01*
G01Y-965370D01*
X-866030Y-965880D01*
G03X-898710Y-974740I6529J-88780D01*
G37*
G36*
G01X-1004930Y-501730D02*
G02X-1019150Y-481940I-5J15000D01*
G03X-1191340Y-439070I-84346J28461D01*
G03X-1195690Y-441510I41358J-78830D01*
G01X-1197470Y-442570D01*
X-1207040D01*
Y-322960D01*
X-992960D01*
Y-501730D01*
X-1004930D01*
G37*
G36*
G01X-1087980Y1364240D02*
Y1406480D01*
X-1062520D01*
Y1396480D01*
X-896220D01*
X-895960Y1389250D01*
G03X-895290Y1381150I88957J3281D01*
G02X-910170Y1364240I-14879J-1909D01*
G01X-1087980D01*
G37*
G36*
G01X-1061180Y2819540D02*
G03X-1107000Y2832240I-45820J-76306D01*
G01X-1112940D01*
X-1114330Y2837970D01*
G03X-1115790Y2843260I-86501J-21027D01*
G02X-1101460Y2862690I14331J4430D01*
G01X-959820D01*
Y2840040D01*
X-967790D01*
X-968260Y2840100D01*
G03X-1061180Y2819540I-17735J-140100D01*
G37*
G36*
G01X-1282390Y2344520D02*
G02X-1297360Y2360460I0J14999D01*
G03X-1297220Y2365000I-73543J4540D01*
G01Y2368510D01*
X-1295940Y2370410D01*
G03X-1281140Y2428860I-73798J49785D01*
G02X-1266210Y2445320I14927J1461D01*
G01X-1085010D01*
X-1083110Y2444040D01*
G03X-983260Y2444240I49777J73801D01*
G02X-959820Y2431840I8439J-12402D01*
G01Y2344520D01*
X-1282390D01*
G37*
G36*
G01X-1034480Y3037730D02*
Y3055290D01*
X-1027280Y3055570D01*
G03X-968500Y3074110I-4724J117427D01*
G03X-841500I63500J98890D01*
G03X-714500I63500J98890D01*
G03X-587500I63500J98890D01*
G03X-460500I63500J98890D01*
G03X-333500I63500J98890D01*
G03X-206500I63500J98890D01*
G03X-79500I63500J98890D01*
G03X47500I63500J98890D01*
G03X174500I63500J98890D01*
G03X301500I63500J98890D01*
G03X428500I63500J98890D01*
G03X440030Y3067600I63453J98917D01*
G02X441850Y3041750I-6631J-13456D01*
G03X438360Y3039240I50216J-73503D01*
G01X436350Y3037730D01*
X-1034480D01*
G37*
G36*
G01X-642330Y-1167260D02*
G02X-662590Y-1173780I-13368J6802D01*
G03X-699680Y-1163900I-40920J-79057D01*
G02X-714040Y-1148920I639J14986D01*
G01Y-1053200D01*
G02X-688650Y-1042380I14999J3D01*
G03X-551900Y-1025950I61646J64220D01*
G02X-541990Y-1023390I6326J-4028D01*
G03X-530420Y-1028640I42477J78236D01*
G01X-525520Y-1030450D01*
Y-1086610D01*
X-522080D01*
Y-1121250D01*
X-527280Y-1122920D01*
G03X-531500Y-1124400I27342J-84718D01*
G03X-642330Y-1167260I-31504J-83261D01*
G37*
G36*
G01X-410630Y-569820D02*
G02X-423520Y-547140I-4J15001D01*
G03X-413840Y-523970I-76477J45558D01*
G01X-412380Y-518360D01*
X-407040D01*
Y-406330D01*
G02X-383090Y-394290I15002J0D01*
G03X-311140Y-409840I53097J71449D01*
G02X-292960Y-424500I3180J-14658D01*
G01Y-518360D01*
X-285290D01*
X-283480Y-523260D01*
G03X-271170Y-545810I83473J30933D01*
G02X-283160Y-569820I-11993J-9010D01*
G01X-410630D01*
G37*
G36*
G01X-56560Y1364180D02*
G03X-139070Y1375240I-51709J-72462D01*
G02X-159260Y1389320I-5188J14076D01*
G01Y1426480D01*
X73980D01*
Y1381070D01*
G02X51300Y1368190I-14999J2D01*
G03X-44060Y1365520I-45576J-76469D01*
G01X-45960Y1364240D01*
X-53500D01*
G03X-56560Y1364180I0J-78060D01*
G37*
G36*
G01X-501820Y2164360D02*
X-503720Y2165640D01*
G03X-525630Y2176380I-49766J-73807D01*
G01X-530780Y2178080D01*
Y2548420D01*
G02X-512150Y2562970I14999J-3D01*
G03X-363190Y2617760I34154J137030D01*
G02X-338810I12190J-8730D01*
G03X-299980Y2580960I114801J82247D01*
G01X-296520Y2578750D01*
Y2477660D01*
G02X-311050Y2462670I-14999J1D01*
G03Y2284710I2770J-88980D01*
G02X-296520Y2269720I-469J-14991D01*
G01Y2217240D01*
G02X-321290Y2205870I-14998J8D01*
G03X-462780Y2169260I-58009J-67528D01*
G01X-464590Y2164360D01*
X-501820D01*
G37*
G36*
G01X-407040Y1685140D02*
Y1914800D01*
G02X-406610Y1918360I15000J-6D01*
G01X-414710D01*
X-416520Y1923260D01*
G03X-419110Y1929500I-83454J-30981D01*
G02X-408230Y1938940I6815J3135D01*
G03X-396770Y1932690I48237J74817D01*
G01X-392370Y1930690D01*
Y1929790D01*
G02X-387420Y1929070I346J-14995D01*
G03X-271000Y2011970I27419J84691D01*
G01X-270850Y2019320D01*
X-244000D01*
X-243740Y2012090D01*
G03X-237370Y1982140I88959J3268D01*
G03X-286100Y1923960I37367J-80795D01*
G01X-287570Y1918360D01*
X-292960D01*
Y1685140D01*
X-407040D01*
G37*
G36*
G01X-717040Y1631520D02*
Y2034440D01*
G02X-702760Y2049420I14999J-2D01*
G03X-693150Y2050400I-4213J88923D01*
G02X-675820Y2035590I2332J-14816D01*
G01Y1631520D01*
X-717040D01*
G37*
G36*
G01X-84810Y2782240D02*
G02X-109190I-12190J8730D01*
G03X-237520Y2840570I-114803J-82242D01*
G02X-245580Y2846530I-714J7465D01*
G03X-254270Y2870630I-87218J-17832D01*
G02X-241040Y2892690I13233J7061D01*
G01X343480D01*
Y2849750D01*
G02X324210Y2835370I-15001J1D01*
G03X169190Y2782240I-40218J-135373D01*
G02X144810I-12190J8730D01*
G03X-84810I-114810J-82240D01*
G37*
G36*
G01X-610750Y2772520D02*
X-612960Y2775980D01*
G03X-793270Y2827240I-119041J-75979D01*
G02X-814780Y2840750I-6511J13512D01*
G01Y2892690D01*
X-424560D01*
G02X-411330Y2870630I-3J-14999D01*
G03X-419920Y2846990I78534J-41917D01*
G02X-438770Y2835660I-14681J3080D01*
G03X-597040Y2775980I-39232J-135661D01*
G01X-599250Y2772520D01*
X-610750D01*
G37*
G36*
G01X-104300Y2411970D02*
G02X-127690Y2399540I-15000J4D01*
G03X-146580Y2409240I-49819J-73775D01*
G01X-151480Y2411050D01*
Y2578750D01*
X-148020Y2580960D01*
G03X-109190Y2617760I-75971J119047D01*
G02X-84810I12190J-8730D01*
G03X-80390Y2611930I114708J82375D01*
G02X-83420Y2590350I-11726J-9356D01*
G03X-105580Y2468060I51640J-72510D01*
G01X-104300Y2466160D01*
Y2411970D01*
G37*
G36*
G01X-675820Y2241090D02*
G02X-693150Y2226280I-14998J6D01*
G03X-702760Y2227260I-13823J-87943D01*
G02X-717040Y2242240I719J14982D01*
G01Y2417870D01*
X-715760Y2419770D01*
G03X-727800Y2533660I-73800J49780D01*
G02X-718800Y2559400I10405J10805D01*
G03X-694770Y2563770I-13158J140608D01*
G02X-675820Y2549310I3952J-14468D01*
G01Y2241090D01*
G37*
G36*
G01X-95280Y3600520D02*
Y3717290D01*
X41060D01*
G02X56050Y3701960I-6J-14999D01*
G03X93110Y3627700I89000J-1962D01*
G02X84360Y3600520I-8751J-12181D01*
G01X-95280D01*
G37*
G36*
G01X-795280D02*
Y3717290D01*
X-658940D01*
G02X-643950Y3701960I-6J-14999D01*
G03X-610600Y3630520I88999J-1957D01*
G03X-620760Y3606190I76157J-46089D01*
G01X-622190Y3600520D01*
X-795280D01*
G37*
G36*
G01X407040Y-3426340D02*
G02X386490Y-3440280I-15001J-2D01*
G03X362610Y-3434420I-32952J-82695D01*
G02X354630Y-3407890I1520J14922D01*
G03X387250Y-3337360I-56383J68885D01*
G02X402250Y-3322080I14999J279D01*
G01X417150D01*
G02X429100Y-3346150I3J-15000D01*
G03X414230Y-3376150I70901J-53829D01*
G01X412700Y-3381640D01*
X407040D01*
Y-3426340D01*
G37*
G36*
G01X657850Y-3447290D02*
G02X638050Y-3461500I-15000J2D01*
G03X608190Y-3456830I-28486J-84339D01*
G02X592960Y-3441830I-230J14998D01*
G01Y-3392960D01*
X657850D01*
Y-3447290D01*
G37*
G36*
G01X489260Y-3749980D02*
X489040Y-3742700D01*
G03X473860Y-3695560I-88980J-2639D01*
G01X472580Y-3693660D01*
Y-3675190D01*
X481440D01*
X482720Y-3675670D01*
G03X593070Y-3633320I31321J83329D01*
G03X638050Y-3630180I16493J87479D01*
G02X657850Y-3644390I4800J-14212D01*
G01Y-3749980D01*
X489260D01*
G37*
G36*
G01X622960Y-1407040D02*
Y-1371850D01*
X627860Y-1370040D01*
G03X670740Y-1236780I-30920J83478D01*
G01X669460Y-1234880D01*
Y-1144440D01*
X674360Y-1142630D01*
G03X725450Y-1093780I-30920J83479D01*
G02X746920Y-1086710I13819J-5832D01*
G03X753110Y-1090060I45432J76554D01*
G02X753850Y-1103110I-3304J-6733D01*
G03X763410Y-1258310I48059J-74934D01*
G01X767670Y-1260350D01*
Y-1354690D01*
X763410Y-1356730D01*
G03X719870Y-1402450I38506J-80262D01*
G01X717940Y-1407040D01*
X622960D01*
G37*
G36*
G01X677860Y-767070D02*
X676190Y-761850D01*
G03X664650Y-738380I-84790J-27119D01*
G02X676990Y-714860I12344J8521D01*
G01X688020D01*
Y-292960D01*
X818360D01*
Y-285290D01*
X823260Y-283480D01*
G03X859720Y-141820I-30919J83480D01*
G02X871070Y-117020I11354J9801D01*
G01X918670D01*
X920570Y-118300D01*
G03X939430Y-127980I49790J73795D01*
G01X944330Y-129790D01*
Y-236360D01*
X937490Y-236970D01*
G03Y-414310I7850J-88670D01*
G01X944330Y-414920D01*
Y-767070D01*
X677860D01*
G37*
G36*
G01X641230Y192960D02*
X639780Y198600D01*
G03X530850Y262580I-86234J-22098D01*
G02X512020Y277080I-3831J14501D01*
G01Y434290D01*
G02X538650Y443770I15000J5D01*
G03X576740Y416520I69017J56225D01*
G01X581640Y414710D01*
Y407040D01*
X731620D01*
X733550Y402450D01*
G03X806120Y348490I82038J34553D01*
G01X812820Y347770D01*
Y192960D01*
X641230D01*
G37*
G36*
G01X854750Y1271220D02*
G03X823960Y1286100I-53408J-71217D01*
G01X818360Y1287570D01*
Y1292960D01*
X585750D01*
X585460Y1300150D01*
G03X517730Y1382950I-88945J-3655D01*
G01X512020Y1384360D01*
Y1398840D01*
X520590D01*
X521620Y1398540D01*
G03X629980Y1453090I24883J85472D01*
G01X631790Y1457990D01*
X720120D01*
G02X734860Y1440210I2J-14998D01*
G03X866820Y1346590I87477J-16510D01*
G02X889320Y1333600I7500J-12990D01*
G01Y1291290D01*
X884420Y1289480D01*
G03X854750Y1271220I30922J-83478D01*
G37*
G36*
G01X234960Y1264880D02*
G02X219020Y1279850I-941J14970D01*
G01Y1456480D01*
X265700D01*
Y1277790D01*
X260800Y1275980D01*
G03X240090Y1265020I30923J-83478D01*
G03X234960Y1264880I-588J-72519D01*
G37*
G36*
G01X506430Y2387840D02*
G02X492900Y2386600I-7055J2542D01*
G03X489800Y2391530I-76871J-44897D01*
G01X488520Y2393430D01*
Y2547630D01*
G02X506830Y2562260I14999J1D01*
G03X548110Y2559140I31168J137739D01*
G02X564180Y2544180I1071J-14961D01*
G01Y2443010D01*
X559280Y2441200D01*
G03X506430Y2387840I30921J-83478D01*
G37*
G36*
G01X165340Y2351080D02*
G02X152530Y2373880I0J14999D01*
G03X107420Y2503670I-76028J46310D01*
G01X102520Y2505480D01*
Y2578750D01*
X105980Y2580960D01*
G03X144810Y2617760I-75971J119047D01*
G02X169190I12190J-8730D01*
G03X211530Y2578790I114803J82245D01*
G02X214310Y2568850I-3848J-6435D01*
G03X323360Y2443540I78688J-41628D01*
G02X343480Y2429440I5119J-14100D01*
G01Y2393430D01*
X342200Y2391530D01*
G03X328340Y2357270I73796J-49788D01*
G01X327250Y2351080D01*
X165340D01*
G37*
G36*
G01X604720Y3570520D02*
Y3717290D01*
X741060D01*
G02X756050Y3701960I-6J-14999D01*
G03X877370Y3617060I88997J-1957D01*
G02X897820Y3603080I5448J-13977D01*
G01Y3570520D01*
X604720D01*
G37*
G36*
G01X858500Y-3700700D02*
G02X832890Y-3690090I-10610J10604D01*
G01Y-3523400D01*
X999580D01*
G02X1010190Y-3549010I6J-15000D01*
G01X858500Y-3700700D01*
G37*
G36*
G01X1070770Y-3849970D02*
G02X1060160Y-3824360I-6J15000D01*
G01X1246120Y-3638400D01*
X1769880D01*
X1771690Y-3643300D01*
G03X1781400Y-3662240I83504J30851D01*
G01X1782680Y-3664140D01*
Y-3744020D01*
X1781400Y-3745920D01*
G03X1771720Y-3764780I73795J-49790D01*
G01X1769910Y-3769680D01*
X1557860D01*
G02X1542880Y-3753890I-2J14999D01*
G03X1393190Y-3684170I-88897J4690D01*
G02X1382640Y-3683870I-5124J5477D01*
G03X1244450Y-3795120I-64390J-61470D01*
G01X1245730Y-3797020D01*
Y-3849970D01*
X1070770D01*
G37*
G36*
G01X941360Y-2691040D02*
Y-2588520D01*
X1079170D01*
G02X1093850Y-2606620I3J-15000D01*
G03X1099710Y-2661400I87101J-18386D01*
G02X1085560Y-2682520I-13689J-6129D01*
G03X1046160Y-2690370I-2754J-88980D01*
G01X1044690Y-2691040D01*
X941360D01*
G37*
G36*
G01X879920Y-3071120D02*
G02X867290Y-3048030I2J15000D01*
G03X881360Y-2999610I-74949J48033D01*
G01Y-2999600D01*
Y-2992080D01*
X1009460D01*
G02X1023090Y-3013330I-4J-14999D01*
G03X1021760Y-3016380I80922J-37102D01*
G03X977010Y-3062980I37456J-80755D01*
G03X964880Y-3069840I37621J-80676D01*
G01X962980Y-3071120D01*
X879920D01*
G37*
G36*
G01X1564160Y-3124630D02*
G02X1551300Y-3101900I-3J15001D01*
G03X1554870Y-3095360I-76281J45884D01*
G03X1475000Y-2937850I-29869J83859D01*
G03X1420270Y-2922610I-49996J-73652D01*
G02X1404470Y-2907630I-799J14980D01*
G01Y-2865840D01*
G02X1431080Y-2856350I14998J-3D01*
G03X1550000Y-2873650I68916J56350D01*
G03X1650000I50000J73650D01*
G03X1737640Y-2880670I50001J73650D01*
G02X1758980Y-2894260I6340J-13594D01*
G01Y-2939230D01*
G02X1741240Y-2953970I-14999J6D01*
G03X1651190Y-3091260I-16238J-87527D01*
G02X1643980Y-3113710I-12436J-8389D01*
G03X1625220Y-3123350I31020J-83440D01*
G01X1623320Y-3124630D01*
X1564160D01*
G37*
G36*
G01X853630Y-1994980D02*
X851730Y-1993700D01*
G03X845920Y-1990100I-49757J-73814D01*
G02X845880Y-1977080I3707J6521D01*
G03X859280Y-1832410I-44531J77080D01*
G02X869040Y-1806020I9761J11390D01*
G01X917030D01*
Y-1994980D01*
X853630D01*
G37*
G36*
G01X972520Y-1584480D02*
Y-1487410D01*
G02X991430Y-1472930I15001J-2D01*
G03X1013430Y-1476010I23246J85930D01*
G01X1020830Y-1476110D01*
Y-1584480D01*
X972520D01*
G37*
G36*
G01X1280760Y2839900D02*
G02X1263720Y2854760I-2039J14862D01*
G01Y3540520D01*
X1164060D01*
Y3567670D01*
X1304720D01*
Y3717290D01*
X1397480D01*
Y3103970D01*
X1390660Y3103360D01*
G03X1324900Y2964920I8040J-88657D01*
G01X1326180Y2963020D01*
Y2855820D01*
G02X1310110Y2840860I-14999J1D01*
G03X1280760Y2839900I-10083J-140859D01*
G37*
G36*
G01X931190Y2782240D02*
G02X906810I-12190J8730D01*
G03X730730Y2827240I-114808J-82239D01*
G02X709220Y2840750I-6511J13512D01*
G01Y3042280D01*
G02X726690Y3057080I15001J4D01*
G03X809500Y3074110I19317J115921D01*
G03X936500I63500J98890D01*
G03X1050710Y3066980I63501J98889D01*
G02X1072180Y3053450I6471J-13531D01*
G01Y2855820D01*
G02X1056110Y2840860I-14999J1D01*
G03X931190Y2782240I-10114J-140860D01*
G37*
G36*
G01X1287390Y2472650D02*
G02X1263720Y2484890I-8671J12238D01*
G01Y2545240D01*
G02X1280760Y2560100I15001J-2D01*
G03X1310110Y2559140I19267J139899D01*
G02X1326180Y2544180I1071J-14961D01*
G01Y2488320D01*
X1320250Y2487060D01*
G03X1287390Y2472650I18588J-87060D01*
G37*
G36*
G01X847850Y2351080D02*
G02X833890Y2371580I-5J15000D01*
G03X728090Y2490220I-82820J32638D01*
G02X709220Y2504710I-3869J14493D01*
G01Y2559250D01*
G02X730730Y2572760I14999J-2D01*
G03X906810Y2617760I61272J127239D01*
G02X931190I12190J-8730D01*
G03X1056110Y2559140I114806J82240D01*
G02X1072180Y2544180I1071J-14961D01*
G01Y2385290D01*
X1067280Y2383480D01*
G03X1029510Y2356620I30927J-83475D01*
G02X1009840Y2353530I-11576J9540D01*
G03X912060Y2352360I-48000J-74970D01*
G01X910160Y2351080D01*
X847850D01*
G37*
G36*
G01X1788120Y-3378360D02*
X1786790Y-3372530D01*
G03X1772000Y-3339990I-86787J-19815D01*
G02X1784130Y-3316170I12133J8820D01*
G01X1921990D01*
G02X1933240Y-3341090I1J-14999D01*
G03X1915130Y-3373120I66764J-58883D01*
G01X1913470Y-3378360D01*
X1788120D01*
G37*
G36*
G01X1990720Y-3849970D02*
Y-3664140D01*
X1992000Y-3662240D01*
G03X2001710Y-3643300I-73794J49791D01*
G01X2003520Y-3638400D01*
X2058650D01*
Y-3748840D01*
X2057370Y-3750740D01*
G03X2047170Y-3830000I73799J-49784D01*
G02X2033020Y-3849970I-14151J-4971D01*
G01X1990720D01*
G37*
G36*
G01X1961290Y-1754040D02*
X1959480Y-1749140D01*
G03X1949800Y-1730280I-83475J-30930D01*
G01X1948520Y-1728380D01*
Y-1621690D01*
X1954630Y-1620530D01*
G03X1994900Y-1601600I-16533J87470D01*
G02X2019350Y-1611250I9571J-11549D01*
G03X2186680Y-1640980I88305J11252D01*
G02X2213320I13320J-6910D01*
G03X2274480Y-1687210I79026J40977D01*
G01X2280480Y-1688440D01*
Y-1754040D01*
X1961290D01*
G37*
G36*
G01X1535040Y-906980D02*
X1532850Y-904790D01*
G03X1460430Y-879340I-62840J-63053D01*
G02X1443820Y-864420I-1609J14915D01*
G01Y-607520D01*
G02X1460800Y-592650I15000J1D01*
G03X1531670Y-572480I12204J91711D01*
G02X1556180Y-584080I9511J-11599D01*
G01Y-906980D01*
X1535040D01*
G37*
G36*
G01X1443820Y-1257950D02*
Y-1071260D01*
G02X1460430Y-1056340I15001J5D01*
G03X1492800Y-1053890I9579J88502D01*
G02X1511640Y-1068390I3840J-14500D01*
G01Y-1257950D01*
X1443820D01*
G37*
G36*
G01X1674660Y-1512750D02*
G02X1656680Y-1498050I-2981J14699D01*
G01Y-1144490D01*
X1662710Y-1143280D01*
G03X1683090Y-1136550I-17520J87277D01*
G02X1704480Y-1150120I6389J-13572D01*
G01Y-1496020D01*
G02X1689890Y-1511010I-14999J3D01*
G03X1674660Y-1512750I2452J-88989D01*
G37*
G36*
G01X2213320Y-1559020D02*
G02X2186680I-13320J6910D01*
G03X2050860Y-1531460I-79022J-40982D01*
G02X2026410Y-1521810I-9571J11549D01*
G03X1954630Y-1445590I-88307J-11253D01*
G01X1948520Y-1444430D01*
Y-531530D01*
G02X1964310Y-516550I14999J2D01*
G03X1990320Y-514080I4680J88898D01*
G02X2008050Y-533660I3595J-14562D01*
G03X2260530Y-787240I186950J-66344D01*
G02X2280480Y-801390I4952J-14157D01*
G01Y-1511560D01*
X2274480Y-1512790D01*
G03X2213320Y-1559020I17866J-87207D01*
G37*
G36*
G01X1717720Y-107010D02*
G02X1701220Y-92080I-1499J14926D01*
G01Y89840D01*
G02X1715910Y104840I15000J3D01*
G03X1734280Y107140I-1814J89000D01*
G02X1752680Y92530I3399J-14610D01*
G01Y-92070D01*
G02X1736190Y-107000I-15001J-4D01*
G03X1717720Y-107010I-9185J-92061D01*
G37*
G36*
G01X1460430Y-237140D02*
G02X1443820Y-222220I-1609J14915D01*
G01Y-107520D01*
G02X1460800Y-92650I15000J1D01*
G03X1480040Y-93190I12202J91711D01*
G02X1496180Y-108150I1140J-14957D01*
G01Y-222220D01*
G02X1479570Y-237140I-15001J-5D01*
G03X1460430I-9570J-88500D01*
G37*
G36*
G01X2081560Y-437270D02*
G02X2057990Y-425350I-8574J12309D01*
G03X1964310Y-338750I-88991J-2298D01*
G02X1948520Y-323770I-791J14978D01*
G01Y69540D01*
X1949800Y71440D01*
G03X1902950Y206060I-73800J49779D01*
G01X1897720Y207720D01*
Y266360D01*
X1765780D01*
X1763880Y267640D01*
G03X1748880Y275780I-49763J-73809D01*
G02X1746850Y302350I5861J13810D01*
G03X1708040Y466700I-46851J75694D01*
G01X1701220Y467310D01*
Y997480D01*
X2108750D01*
X2110960Y994020D01*
G03X2262070Y932470I119039J75980D01*
G02X2280480Y917860I3410J-14607D01*
G01Y553890D01*
G02X2260530Y539740I-14998J7D01*
G03Y165260I-65530J-187240D01*
G02X2280480Y151110I4952J-14157D01*
G01Y-398610D01*
G02X2260530Y-412760I-14998J7D01*
G03X2081560Y-437270I-65521J-187238D01*
G37*
G36*
G01X1717720Y-607010D02*
G02X1701220Y-592080I-1499J14926D01*
G01Y-306040D01*
G02X1717720Y-291110I15001J4D01*
G03X1736190Y-291120I9285J92051D01*
G02X1752680Y-306050I1489J-14926D01*
G01Y-592070D01*
G02X1736190Y-607000I-15001J-4D01*
G03X1717720Y-607010I-9185J-92061D01*
G37*
G36*
G01X1460800Y90770D02*
G02X1443820Y105640I-1980J14869D01*
G01Y914180D01*
G02X1459890Y929140I14999J-1D01*
G03X1480110I10110J140860D01*
G02X1496180Y914180I1071J-14961D01*
G01Y106270D01*
G02X1480040Y91310I-15000J-3D01*
G03X1460800Y90770I-7038J-92251D01*
G37*
G36*
G01X2302240Y-3407960D02*
Y-3389650D01*
X2309130Y-3389090D01*
G03X2375740Y-3250580I-7190J88729D01*
G01X2374460Y-3248680D01*
Y-2568990D01*
X2965520D01*
Y603060D01*
X2970420Y604870D01*
G03X3013300Y738130I-30920J83478D01*
G01X3012020Y740030D01*
Y2538780D01*
X3296220Y2822980D01*
X3301400Y2819180D01*
G03X3442720Y2898290I52599J71819D01*
G02X3457670Y2914520I14950J1230D01*
G01X3558360D01*
G02X3570630Y2890900I-4J-14999D01*
G03X3829370I129370J-90900D01*
G02X3841640Y2914520I12274J8621D01*
G01X4062210D01*
X4063720Y2908990D01*
G03X4117760Y2831190I136288J36998D01*
G02Y2806810I-8730J-12190D01*
G03Y2577190I82240J-114810D01*
G02Y2552810I-8730J-12190D01*
G03X4282240I82240J-114810D01*
G02Y2577190I8730J12190D01*
G03Y2806810I-82240J114810D01*
G02Y2831190I8730J12190D01*
G03Y3060810I-82240J114810D01*
G02Y3085190I8730J12190D01*
G03X4093940Y3293240I-82241J114803D01*
G02X4067680Y3302690I-11266J9903D01*
G03X4035480Y3231440I-88979J-2689D01*
G02X4059930Y3217980I9572J-11549D01*
G03X4126520Y3079400I140071J-17982D01*
G02Y3066600I-3906J-6400D01*
G03X4117970Y3060950I73531J-120566D01*
G01X4116020Y3059560D01*
X3327680D01*
X2974830Y2706710D01*
G02X2953950Y2706380I-10610J10603D01*
G03X2923920Y2724980I-60958J-64875D01*
G01X2919020Y2726790D01*
Y3644390D01*
G02X2937230Y3659050I15001J6D01*
G03X2906520Y3819800I19071J86952D01*
G01X2904620Y3818520D01*
X2773980D01*
Y3339140D01*
X2767430Y3338300D01*
G03Y3161700I11270J-88300D01*
G01X2773980Y3160860D01*
Y2309130D01*
X2769080Y2307320D01*
G03Y2140360I30920J-83480D01*
G01X2773980Y2138550D01*
Y2053630D01*
G02X2757690Y2038690I-14999J3D01*
G03X2712500Y2030740I-7692J-88689D01*
G03X2637500I-37500J-80740D01*
G03X2523690Y1904160I-37500J-80737D01*
G03X2523680Y1812500I76310J-45838D01*
G03X2523690Y1720840I76320J-45822D01*
G03X2664180Y1613320I76313J-45831D01*
G02X2685820I10820J-10397D01*
G03X2757690Y1586310I64190J61677D01*
G02X2773980Y1571370I1291J-14943D01*
G01Y728630D01*
G02X2757690Y713690I-14999J3D01*
G03X2685820Y686680I-7680J-88687D01*
G02X2664180I-10820J10397D01*
G03X2523690Y579160I-64177J-61689D01*
G03X2523680Y487500I76310J-45838D01*
G03X2523690Y395840I76320J-45822D01*
G03X2637500Y269260I76310J-45843D01*
G03X2712500I37500J80740D01*
G03X2757690Y261310I37498J80739D01*
G02X2773980Y246370I1291J-14943D01*
G01Y-1627480D01*
X2659340D01*
X2657440Y-1626200D01*
G03Y-1773800I-49780J-73800D01*
G01X2659340Y-1772520D01*
X2820480D01*
Y-2423950D01*
X2595970D01*
G02X2581030Y-2407660I4J15000D01*
G03X2502790Y-2311600I-88689J7657D01*
G01X2496170Y-2310810D01*
Y-324920D01*
X2503240Y-324520D01*
G03X2579920Y-270890I-5068J88879D01*
G03X2506860Y-108550I-35249J81747D01*
G01X2505340Y-109260D01*
X2496170D01*
Y-87070D01*
X2501070Y-85260D01*
G03X2550530Y36470I-30922J83477D01*
G03X2471880Y163720I-80382J38249D01*
G02X2457170Y178720I291J14998D01*
G01Y2092280D01*
G02X2474840Y2107040I15000J0D01*
G03X2582240Y2360810I25165J138962D01*
G02Y2385190I8730J12190D01*
G03X2474840Y2638960I-82235J114808D01*
G02X2457170Y2653720I-2670J14760D01*
G01Y3093980D01*
X2544350D01*
G02X2554110Y3067590I-1J-15000D01*
G03X2648590Y3081170I57931J-67590D01*
G01X2644170Y3083160D01*
Y3491510D01*
X2645450Y3493410D01*
G03X2497850I-73800J49780D01*
G01X2499130Y3491510D01*
Y3239020D01*
X2425520D01*
Y3272830D01*
X2426800Y3274730D01*
G03X2353210Y3413530I-73800J49780D01*
G03X2268340Y3296980I-84658J-27529D01*
G03X2279200Y3274730I84654J27543D01*
G01X2280480Y3272830D01*
Y2680290D01*
X2275580Y2678480D01*
G03X2223620Y2562500I30918J-83481D01*
G03X2240690Y2470050I82878J-32498D01*
G02Y2459950I-5542J-5050D01*
G03Y2340050I65810J-59950D01*
G02Y2329950I-5542J-5050D01*
G03X2275580Y2186520I65809J-59950D01*
G01X2280480Y2184710D01*
Y1982140D01*
G02X2262070Y1967530I-15000J-3D01*
G03X2106780Y1898980I-32065J-137529D01*
G02X2083490Y1895310I-13089J7330D01*
G03Y1764690I-60490J-65310D01*
G02X2106780Y1761020I10201J-11000D01*
G03X2109600Y1756200I123274J68888D01*
G02X2104110Y1744830I-6395J-3923D01*
G03X2088830Y1571320I10707J-88371D01*
G03X2145300Y1462000I141171J3678D01*
G02Y1438000I-9000J-12000D01*
G03X2148400Y1209740I84700J-113001D01*
G02Y1185260I-8668J-12240D01*
G03X2110960Y1145980I81599J-115260D01*
G01X2108750Y1142520D01*
X1671220D01*
Y2113940D01*
G02X1693470Y2127070I15000J-1D01*
G03X1807340Y2151090I43030J77930D01*
G02X1834160Y2143860I11935J-9085D01*
G03X1851660Y2208750I88340J10981D01*
G02X1824840Y2215980I-11935J9085D01*
G03X1802310Y2264950I-88341J-10976D01*
G02Y2275050I5542J5050D01*
G03X1822610Y2357560I-65812J59944D01*
G02X1838400Y2376300I14511J3795D01*
G03X1929640Y2495480I7600J88697D01*
G02X1937430Y2514230I14091J5139D01*
G03X1933640Y2677420I-37429J80770D01*
G02X1929440Y2686980I2829J6946D01*
G03X1932050Y2740790I-83441J31016D01*
G03X1983480Y2792920I-32048J83052D01*
G01X1985290Y2797820D01*
X2014710D01*
X2016520Y2792920D01*
G03X2054920Y2900600I83479J30917D01*
G02X2032330Y2913540I-7590J12938D01*
G01Y3455800D01*
G02X2054920Y3468740I15000J2D01*
G03X2033510Y3604690I45081J76760D01*
G01X2031270Y3602180D01*
X1985290D01*
X1983480Y3607080D01*
G03X1816520I-83480J-30920D01*
G01X1814710Y3602180D01*
X1770720D01*
X1768470Y3604890D01*
G03X1673350Y3632940I-68472J-56889D01*
G03X1609140Y3672850I-74652J-48497D01*
G01X1602520Y3673630D01*
Y3777290D01*
X2216870D01*
X2218770Y3776010D01*
G03X2250500Y3762640I49779J73801D01*
G02X2256440Y3754570I-1524J-7343D01*
G03X2363100Y3833170I88607J-8571D01*
G02X2357160Y3841240I1524J7343D01*
G03X2352320Y3879920I-88608J8555D01*
G02X2366440Y3899990I14118J5069D01*
G01X4399990D01*
Y-3059010D01*
G02X4374380Y-3069610I-15000J2D01*
G01X3975450Y-2670680D01*
X3581840D01*
X3400260Y-2852260D01*
X3397210Y-2852310D01*
G03X3317800Y-2903780I1308J-89011D01*
G03X3245380Y-2973170I14676J-87803D01*
G02X3226630Y-2984500I-14674J3103D01*
G03X3130500Y-2998150I-32634J-115500D01*
G03X3003500I-63500J-101850D01*
G03X2820010Y-3097320I-63499J-101848D01*
G02X2805010Y-3111980I-14996J340D01*
G01X2714680D01*
X2418700Y-3407960D01*
X2302240D01*
G37*
G36*
G01X1693470Y2412930D02*
G02X1671220Y2426060I-7250J13131D01*
G01Y3174910D01*
G02X1688210Y3189770I14998J-6D01*
G03X1745080Y3201250I11782J88238D01*
G02X1767670Y3188310I7590J-12938D01*
G01Y2919670D01*
X1761940Y2918270D01*
G03X1754500Y2747440I21058J-86494D01*
G02X1759400Y2738600I-2396J-7106D01*
G03X1812360Y2635580I86602J-20603D01*
G02X1816560Y2626020I-2829J-6946D01*
G03X1816360Y2564520I83440J-31022D01*
G02X1808570Y2545770I-14091J-5139D01*
G03X1759890Y2442440I37432J-80767D01*
G02X1744100Y2423700I-14511J-3795D01*
G03X1693470Y2412930I-7593J-88697D01*
G37*
G36*
G01X1767670Y3367710D02*
G02X1745080Y3354770I-15000J-2D01*
G03X1688210Y3366250I-45088J-76758D01*
G02X1671220Y3381110I-1992J14866D01*
G01Y3444900D01*
G02X1688210Y3459760I14998J-6D01*
G03X1745080Y3471240I11782J88238D01*
G02X1767670Y3458300I7590J-12938D01*
G01Y3367710D01*
G37*
G36*
G01X2855960Y-4911420D02*
Y-4799820D01*
G02X2876340Y-4785820I15000J-2D01*
G03X2957440Y-4791900I50660J131820D01*
G01X2961460Y-4791010D01*
X3056250Y-4885810D01*
G02X3045650Y-4911420I-10602J-10610D01*
G01X2855960D01*
G37*
G36*
G01X2365390Y-4435480D02*
Y-4300000D01*
X2668930D01*
G02X2681510Y-4323160I-3J-14998D01*
G03X2660000Y-4418510I118491J-76832D01*
G02X2645130Y-4435480I-14870J-1970D01*
G01X2365390D01*
G37*
G36*
G01X2494710Y-3900000D02*
Y-3698720D01*
X2907340D01*
Y-3406680D01*
X2872590D01*
G02X2857970Y-3388310I-3J15000D01*
G03X2859710Y-3358650I-86750J19970D01*
G02X2874620Y-3342020I14911J1630D01*
G01X2905700D01*
X2906720Y-3342310D01*
G03X2973280I33280J115310D01*
G01X2974300Y-3342020D01*
X3032700D01*
X3033720Y-3342310D01*
G03X3100280I33280J115310D01*
G01X3101300Y-3342020D01*
X3159700D01*
X3160720Y-3342310D01*
G03X3227280I33280J115310D01*
G01X3228300Y-3342020D01*
X3286700D01*
X3287720Y-3342310D01*
G03X3384500Y-3328850I33289J115311D01*
G03X3511500I63500J101850D01*
G03X3638500I63500J101850D01*
G03X3765500I63500J101850D01*
G03X3892500I63500J101850D01*
G03X4019500I63500J101850D01*
G03X4096690Y-3346240I63499J101849D01*
G02X4113400Y-3361140I1711J-14901D01*
G01Y-3482780D01*
X3746320Y-3849860D01*
X3729390D01*
X3729280Y-3849970D01*
X3444510D01*
G02X3431580Y-3827370I1J15000D01*
G03X3168420I-131580J77370D01*
G02X3155490Y-3849970I-12931J-7600D01*
G01X2770920D01*
X2770960Y-3849930D01*
X2594670D01*
X2544600Y-3900000D01*
X2494710D01*
G37*
G36*
G01X2204360Y-2220980D02*
Y-1899080D01*
X2312130D01*
Y-2024400D01*
X2311430Y-2025910D01*
G03X2304830Y-2051150I65716J-30667D01*
G03X2346230Y-2186540I72319J-51911D01*
G01X2351130Y-2188350D01*
Y-2194750D01*
G02X2331420Y-2208990I-14999J0D01*
G03X2253660Y-2219700I-27978J-84510D01*
G01X2251760Y-2220980D01*
X2204360D01*
G37*
G36*
G01X4314460Y-3849970D02*
G02X4303860Y-3824360I2J15000D01*
G01X4374380Y-3753840D01*
G02X4399990Y-3764440I10610J-10602D01*
G01Y-3849970D01*
X4314460D01*
G37*
G36*
G01X4020780D02*
G02X4015470Y-3837170I-4J7500D01*
G01X4223790Y-3628850D01*
G02X4236590Y-3634160I5300J-5306D01*
G01Y-3644070D01*
X4030690Y-3849970D01*
X4020780D01*
G37*
%LPC*%
G75*
G36*
G01X4140370Y-5175690D02*
G02X3971690Y-5063240I-197363J-113315D01*
G03X3987640Y-5043130I1888J14883D01*
G02X4152790Y-5153230I158562J58930D01*
G03X4140370Y-5175690I586J-14988D01*
G37*
G36*
G01X1866420Y-5800830D02*
G02Y-5652690I-49380J74070D01*
G02X1965160Y-5652680I49378J-74070D01*
G02X1974710Y-5647140I49359J-74085D01*
G03X1978160Y-5637300I-3361J6703D01*
G02X1980990Y-5557170I80849J37260D01*
G02X2094300Y-5423250I68268J57134D01*
G02X2184360I45030J-76790D01*
G02X2274420I45030J-76790D01*
G02X2364490I45035J-76789D01*
G02X2490120Y-5537820I45026J-76791D01*
G02Y-5613400I-80600J-37790D01*
G02Y-5688980I-80600J-37790D01*
G02X2360140Y-5800830I-80604J-37780D01*
G02X2261400Y-5800840I-49378J74070D01*
G02X2162660Y-5800830I-49362J74080D01*
G02X2063900I-49380J74070D01*
G02X1965160Y-5800840I-49378J74070D01*
G02X1866420Y-5800830I-49362J74080D01*
G37*
G36*
G01X2823370Y-5777640D02*
G02Y-5613160I-114810J82240D01*
G03X2847750I12190J8730D01*
G02Y-5777640I114810J-82240D01*
G03X2823370I-12190J-8730D01*
G37*
G36*
G01X3586680Y2259020D02*
G02Y2340980I-79020J40980D01*
G03X3613320I13320J6910D01*
G02Y2259020I79020J-40980D01*
G03X3586680I-13320J-6910D01*
G37*
G36*
G01X3337500Y1774180D02*
G02X3225530Y1903690I-37499J80737D01*
G02Y2001230I74470J48770D01*
G02X3337500Y2130740I74471J48773D01*
G02X3412500I37500J-80740D01*
G02X3524470Y2001230I37499J-80737D01*
G02Y1903690I-74470J-48770D01*
G02X3412500Y1774180I-74471J-48773D01*
G02X3337500I-37500J80740D01*
G37*
G36*
G01X3975020Y1427080D02*
G02X3824980I-75020J-47910D01*
G02Y1522920I75020J47920D01*
G02Y1618750I75022J47915D01*
G02Y1714580I75022J47915D01*
G02Y1810420I75020J47920D01*
G02Y1906250I75022J47915D01*
G02X3811490Y1963700I75019J47924D01*
G02X3800000Y1967460I21877J86288D01*
G02X3788510Y1963700I-33367J82528D01*
G02X3775020Y1906250I-88509J-9526D01*
G02X3624980I-75020J-47920D01*
G02Y2002080I75022J47915D01*
G02X3733340Y2132540I75021J47919D01*
G02X3800000I33330J-82540D01*
G02X3866660I33330J-82540D01*
G02X3975020Y2002080I33339J-82541D01*
G02Y1906250I-75022J-47915D01*
G02Y1810420I-75022J-47915D01*
G02Y1714580I-75020J-47920D01*
G02Y1618750I-75022J-47915D01*
G02Y1522920I-75022J-47915D01*
G02Y1427080I-75020J-47920D01*
G37*
G36*
G01X3775020Y947920D02*
G02X3624980I-75020J-47920D01*
G02Y1043750I75022J47915D01*
G02Y1139580I75022J47915D01*
G02Y1235420I75020J47920D01*
G02Y1331250I75022J47915D01*
G02Y1427080I75022J47915D01*
G02Y1522920I75020J47920D01*
G02X3775020I75020J47910D01*
G02Y1427080I-75020J-47920D01*
G02Y1331250I-75022J-47915D01*
G02Y1235420I-75022J-47915D01*
G02Y1139580I-75020J-47920D01*
G02Y1043750I-75022J-47915D01*
G02Y947920I-75022J-47915D01*
G37*
G36*
G01X4232540Y-452410D02*
G02X3967460I-132540J-147590D01*
G03Y-430090I-10026J11160D01*
G02Y-134910I132540J147590D01*
G03Y-112590I-10026J11160D01*
G02Y182590I132540J147590D01*
G03Y204910I-10026J11160D01*
G02X4232540I132540J147590D01*
G03Y182590I10026J-11160D01*
G02Y-112590I-132540J-147590D01*
G03Y-134910I10026J-11160D01*
G02Y-430090I-132540J-147590D01*
G03Y-452410I10026J-11160D01*
G37*
G36*
G01X3104880Y-2531960D02*
G02X2994690Y-2402810I-34693J81982D01*
G02Y-2308470I75500J47170D01*
G02X3104880Y-2179320I75497J47168D01*
G02X3174240I34680J-81980D01*
G02X3243620I34690J-81980D01*
G02X3353800Y-2308470I34682J-81985D01*
G02Y-2402810I-75500J-47170D01*
G02X3243620Y-2531960I-75498J-47165D01*
G02X3174240I-34690J81980D01*
G02X3104880I-34680J81980D01*
G37*
G54D32*
X3500000Y-1732280D03*
G54D31*
X-1041400Y-5273040D03*
G54D30*
X823840Y-5200000D03*
X3240500Y3250000D03*
X3392340Y2700000D03*
X1876000Y1703700D03*
X2658850Y121220D03*
X3342200Y-1400000D03*
G54D29*
X-100000Y-4600000D03*
X408000Y-4917500D03*
X-100000Y-5235000D03*
%LPD*%
G75*
G36*
G01X2162660Y-5652690D02*
G03X2151350Y-5646290I-49380J-74070D01*
G02X2143520Y-5628020I6410J13560D01*
G03X2147920Y-5595590I-84510J27979D01*
G02X2154160Y-5587820I7489J377D01*
G03X2184360Y-5576830I-14842J87775D01*
G03X2274420I45030J76790D01*
G03X2321520Y-5589040I45039J76789D01*
G03X2328920Y-5613400I88001J13429D01*
G03X2321430Y-5638380I80603J-37781D01*
G03X2261400Y-5652680I-10665J-88380D01*
G03X2162660Y-5652690I-49362J-74080D01*
G37*
G54D10*
X-5100000Y-5000000D03*
Y3000000D03*
X5100000Y-5100000D03*
Y3000000D03*
G54D11*
G01X2146300Y-4996180D02*
X2113280Y-4963160D01*
X914400D01*
X846000Y-4894760D01*
Y-4700000D01*
G01X2189880Y-3522980D02*
X2189480Y-3523380D01*
X1198480D01*
X846000Y-3875860D01*
Y-4700000D01*
G01X2940000Y-3227000D02*
X2762320D01*
X2466340Y-3522980D01*
X2189880D01*
G01X2187220Y-3197860D02*
Y-3520320D01*
X2189880Y-3522980D01*
G01X2187220Y-2771140D02*
Y-3197860D01*
G01Y-2529840D02*
Y-2771140D01*
G01X3067000Y-3227000D02*
X2940000D01*
G01X3321000D02*
X3194000D01*
G01D02*
X3067000D01*
X-5100000Y-4000000D03*
Y2000000D03*
X-4200000Y2400000D03*
X3300000Y-3750000D03*
X3700000Y2800000D03*
X5100000Y2000000D03*
G54D20*
X2187220Y-3197860D03*
Y-2771140D03*
Y-2529840D03*
X3500000Y-1732280D03*
G54D12*
X-4000000Y-3538100D03*
Y-3461900D03*
Y-1261900D03*
Y-1338100D03*
Y-438100D03*
Y-361900D03*
Y1838100D03*
Y1761900D03*
X-3200000Y-3538100D03*
Y-3461900D03*
X-3600000Y-3538100D03*
Y-3461900D03*
X-3200000Y-1261900D03*
Y-1338100D03*
X-3600000Y-1261900D03*
Y-1338100D03*
X-3200000Y-438100D03*
Y-361900D03*
X-3600000Y-438100D03*
Y-361900D03*
X-3200000Y1838100D03*
Y1761900D03*
X-3600000Y1838100D03*
Y1761900D03*
X-2700000Y-3461900D03*
Y-3538100D03*
X-2500000D03*
Y-3461900D03*
X-2900000Y-3538100D03*
Y-3461900D03*
X-2500000Y-1261900D03*
Y-1338100D03*
X-2900000Y-1261900D03*
Y-1338100D03*
X-2700000Y-361900D03*
Y-438100D03*
X-2500000D03*
Y-361900D03*
X-2900000Y-438100D03*
Y-361900D03*
X-2500000Y1838100D03*
Y1761900D03*
X-2900000Y1838100D03*
Y1761900D03*
X-2200000Y-3538100D03*
Y-3461900D03*
Y-1261900D03*
Y-1338100D03*
Y-438100D03*
Y-361900D03*
Y1838100D03*
Y1761900D03*
X-1300000Y-3538100D03*
Y-3461900D03*
X-900000Y-3538100D03*
Y-3461900D03*
X-1300000Y-1261900D03*
Y-1338100D03*
X-900000Y-1261900D03*
Y-1338100D03*
X-1300000Y-438100D03*
Y-361900D03*
X-900000Y-438100D03*
Y-361900D03*
X-1300000Y1838100D03*
Y1761900D03*
X-900000Y1838100D03*
Y1761900D03*
X-500000Y-3538100D03*
Y-3461900D03*
X-200000Y-3538100D03*
Y-3461900D03*
X-500000Y-1261900D03*
Y-1338100D03*
X-200000Y-1261900D03*
Y-1338100D03*
X-500000Y-438100D03*
Y-361900D03*
X-200000Y-438100D03*
Y-361900D03*
X-500000Y1838100D03*
Y1761900D03*
X-200000Y1838100D03*
Y1761900D03*
X0Y-3461900D03*
Y-3538100D03*
X200000D03*
Y-3461900D03*
X500000Y-3538100D03*
Y-3461900D03*
X200000Y-1261900D03*
Y-1338100D03*
X500000Y-1261900D03*
Y-1338100D03*
X0Y-361900D03*
Y-438100D03*
X200000D03*
Y-361900D03*
X500000Y-438100D03*
Y-361900D03*
X200000Y1838100D03*
Y1761900D03*
X500000Y1838100D03*
Y1761900D03*
G54D21*
X2195000Y-600000D03*
Y352500D03*
X4100000Y35000D03*
Y-282500D03*
Y-600000D03*
Y352500D03*
G54D13*
X-4238100Y-3300000D03*
X-4161900D03*
X-4238100Y-3000000D03*
X-4161900D03*
X-4238100Y-2600000D03*
X-4161900D03*
X-4238100Y-2300000D03*
X-4161900D03*
X-4238100Y-1900000D03*
X-4161900D03*
X-4238100Y-1500000D03*
X-4161900D03*
X-4238100Y-200000D03*
X-4161900D03*
X-4238100Y100000D03*
X-4161900D03*
X-4238100Y500000D03*
X-4161900D03*
X-4238100Y800000D03*
X-4161900D03*
X-4238100Y1200000D03*
X-4161900D03*
X-4238100Y1600000D03*
X-4161900D03*
X-1961900Y-3300000D03*
X-2038100D03*
X-1961900Y-3000000D03*
X-2038100D03*
X-1961900Y-2600000D03*
X-2038100D03*
X-1961900Y-2300000D03*
X-2038100D03*
X-1961900Y-1900000D03*
X-2038100D03*
X-1961900Y-1500000D03*
X-2038100D03*
X-1961900Y-200000D03*
X-2038100D03*
X-1961900Y100000D03*
X-2038100D03*
X-1961900Y500000D03*
X-2038100D03*
X-1961900Y800000D03*
X-2038100D03*
X-1961900Y1200000D03*
X-2038100D03*
X-1961900Y1600000D03*
X-2038100D03*
X-1538100Y-3300000D03*
X-1461900D03*
X-1538100Y-3000000D03*
X-1461900D03*
X-1538100Y-2600000D03*
X-1461900D03*
X-1538100Y-2300000D03*
X-1461900D03*
X-1538100Y-1900000D03*
X-1461900D03*
X-1538100Y-1500000D03*
X-1461900D03*
X-1538100Y-200000D03*
X-1461900D03*
X-1538100Y100000D03*
X-1461900D03*
X-1538100Y500000D03*
X-1461900D03*
X-1538100Y800000D03*
X-1461900D03*
X-1538100Y1200000D03*
X-1461900D03*
X-1538100Y1600000D03*
X-1461900D03*
X661900Y-3300000D03*
Y-3000000D03*
Y-2600000D03*
Y-2300000D03*
Y-1900000D03*
Y-1500000D03*
Y-200000D03*
Y100000D03*
Y500000D03*
Y800000D03*
Y1200000D03*
Y1600000D03*
X738100Y-3300000D03*
Y-3000000D03*
Y-2600000D03*
Y-2300000D03*
Y-1900000D03*
Y-1500000D03*
Y-200000D03*
Y100000D03*
Y500000D03*
Y800000D03*
Y1200000D03*
Y1600000D03*
G54D22*
X1473000Y-500940D03*
X1727000Y-199060D03*
Y-699060D03*
X1473000Y-940D03*
G54D23*
X2800000Y-5289000D03*
X3943000D03*
G54D14*
X-3933060Y-3475840D03*
X-4107660Y-3300000D03*
X-4000000Y-3592340D03*
X-4292340Y-3300000D03*
X-3954660Y-3337700D03*
X-4248890Y-3638840D03*
X-3907000Y-3603480D03*
X-3908160Y-3293150D03*
X-3960440Y-3757660D03*
X-4206770D03*
X-4251480Y-3711160D03*
X-4113440Y-3804160D03*
X-4066940Y-3492340D03*
X-3933060Y-3538840D03*
X-4248890D03*
X-4107660Y-3000000D03*
X-4107650Y-2582050D03*
X-4230660Y-2870500D03*
X-4292340Y-3006940D03*
X-4292320Y-3069940D03*
X-4107660Y-2767190D03*
X-3894110Y-2692500D03*
X-3891720Y-3107500D03*
X-3903500Y-2808280D03*
X-4260650Y-2807500D03*
X-4092660Y-2649000D03*
X-4009000Y-2454000D03*
X-3891720Y-2500500D03*
X-3894660Y-2591720D03*
X-4086000Y-1987000D03*
Y-1917950D03*
Y-2050000D03*
X-3992500Y-2203500D03*
X-3991720Y-2103500D03*
X-3893500Y-2205890D03*
X-3891720Y-2307500D03*
X-4055500Y-2203500D03*
X-4009500Y-1804500D03*
X-4056000Y-1851000D03*
X-4009000Y-2303500D03*
X-4113000Y-1401000D03*
X-4000000Y-1392340D03*
X-4176000Y-1401000D03*
X-4000000Y-1207660D03*
X-4200660Y-1000660D03*
X-4066500Y-1054660D03*
Y-1561500D03*
X-4154160Y-1131160D03*
X-3903060Y-1119340D03*
X-4052150Y-954160D03*
X-3949560D03*
X-4206000Y-1308000D03*
Y-1084660D03*
X-4000000Y-298650D03*
X-4098650Y-200000D03*
X-4000000Y-509340D03*
X-4292340Y-200000D03*
X-4098650Y-279340D03*
X-3997040Y-582340D03*
X-3903060Y-205650D03*
X-4001840Y-675340D03*
X-4264170Y-355840D03*
X-3892500Y-91720D03*
X-3996060Y-198690D03*
X-4107660Y100000D03*
Y500000D03*
X-4292340D03*
Y100000D03*
X-4092660Y409000D03*
X-4077660Y316000D03*
X-4107660Y163000D03*
X-4260660Y656940D03*
X-4107660Y800000D03*
Y1200000D03*
X-4292340D03*
Y800000D03*
X-4011830Y1050000D03*
X-3900000Y992500D03*
X-4200660Y953000D03*
X-4009180Y950000D03*
X-3892500Y800000D03*
X-4014660Y1250000D03*
X-3903500Y1091720D03*
X-3891720Y1192500D03*
X-4000000Y1707660D03*
X-4107660Y1600000D03*
X-4000000Y1892340D03*
X-4292340Y1600000D03*
X-4260150Y1666940D03*
X-4245840Y1499000D03*
X-4130250Y2060260D03*
X-4061160Y2274840D03*
X-4184950Y3700000D03*
X-3200000Y-3407660D03*
X-3393000Y-3299980D03*
X-3400000Y-3200000D03*
X-3403500Y-3547170D03*
X-3666940Y-3538100D03*
X-3200000Y-3592340D03*
X-3300000Y-3200000D03*
Y-3329980D03*
X-3385330Y-3694970D03*
X-3603500Y-3191720D03*
X-3550000Y-3338220D03*
X-3346500Y-3384720D03*
X-3796430Y-3694970D03*
X-3696500Y-3291720D03*
X-3729940Y-3541250D03*
X-3618610Y-3593670D03*
X-3743000Y-3384720D03*
X-3572110Y-3640170D03*
X-3200000Y-3000000D03*
Y-2700000D03*
Y-2800000D03*
Y-2900000D03*
X-3491720D03*
X-3400000Y-2700000D03*
X-3500000Y-2600000D03*
Y-2700000D03*
X-3400000Y-2800000D03*
X-3500000D03*
X-3600000Y-2600000D03*
Y-2700000D03*
X-3400000Y-2900000D03*
X-3600000Y-2800000D03*
Y-2900000D03*
X-3491720Y-2500000D03*
X-3300000Y-2700000D03*
Y-2800000D03*
X-3600000Y-2500000D03*
X-3300000Y-2900000D03*
X-3292500Y-3093000D03*
X-3396500Y-2991720D03*
X-3396490Y-3096500D03*
X-3603500Y-3091720D03*
X-3691720Y-3092500D03*
X-3808280Y-2603500D03*
X-3691720Y-2703500D03*
X-3807500Y-2791720D03*
X-3796500Y-2692500D03*
X-3346500Y-2487440D03*
X-3708280Y-2796500D03*
X-3791720Y-3103500D03*
X-3797610Y-3008280D03*
X-3798720Y-2891720D03*
X-3691720Y-2907500D03*
X-3496490Y-3003500D03*
X-3796500Y-2491720D03*
X-3250440Y-2487440D03*
X-3692500Y-2601750D03*
X-3691720Y-2503500D03*
X-3500000Y-2300000D03*
X-3600000D03*
X-3300000Y-2108280D03*
Y-2000000D03*
Y-1900000D03*
X-3200000Y-2108280D03*
X-3596060Y-2008000D03*
X-3595000Y-2207000D03*
X-3503060Y-2101000D03*
X-3200000Y-2000000D03*
X-3507740D03*
X-3200000Y-1900000D03*
X-3500000D03*
X-3393000Y-2207000D03*
Y-2304480D03*
X-3800500Y-2008280D03*
X-3696490Y-2103500D03*
X-3693000Y-2008280D03*
X-3798870Y-2108280D03*
X-3598990Y-2101000D03*
X-3796500Y-2207000D03*
X-3691720D03*
X-3791720Y-2300000D03*
X-3691720Y-2307500D03*
X-3346500Y-2256720D03*
X-3796500Y-1806390D03*
X-3800500Y-1908280D03*
X-3599000Y-1899360D03*
X-3250440Y-2270480D03*
X-3166060Y-2262000D03*
X-3200000Y-1392340D03*
X-3600000Y-1394000D03*
X-3200000Y-1198650D03*
X-3600000Y-1207660D03*
X-3263000Y-1007710D03*
X-3847000Y-1491000D03*
X-3645500D03*
X-3549560Y-1040710D03*
X-3119560Y-1009660D03*
X-3707500Y-1444500D03*
X-3439500Y-1209340D03*
X-3346500Y-1395170D03*
X-3754000Y-1491000D03*
X-3503060Y-1152150D03*
X-3735060Y-831160D03*
X-3166060Y-1054210D03*
X-3346500Y-291180D03*
X-3200000Y-298650D03*
X-3400000Y-100000D03*
Y-200000D03*
X-3600000Y-298650D03*
X-3200000Y-492340D03*
X-3600000D03*
X-3300000Y-100000D03*
Y-239500D03*
X-3263000Y-492340D03*
X-3192500Y-91720D03*
X-3447010Y-298650D03*
X-3186500Y-781840D03*
X-3154000Y-237550D03*
X-3676500Y-522340D03*
X-3688560Y-784660D03*
X-3666940Y-439340D03*
X-3592500Y-97610D03*
X-3570010Y-209000D03*
X-3503500Y-108280D03*
X-3646000Y-209000D03*
X-3796490Y-91720D03*
X-3553500Y-784650D03*
X-3201000Y-193000D03*
X-3200000Y100000D03*
X-3300010Y-1000D03*
X-3200000Y400000D03*
Y300000D03*
Y200000D03*
X-3400000Y400000D03*
X-3500000Y500000D03*
Y400000D03*
X-3400000Y300000D03*
X-3500000D03*
X-3600000Y500000D03*
Y400000D03*
X-3400000Y200000D03*
X-3600000Y300000D03*
X-3500000Y200000D03*
X-3600000D03*
X-3300000Y400000D03*
X-3500000Y600000D03*
X-3300000Y300000D03*
X-3600000Y600000D03*
X-3300000Y200000D03*
X-3207000Y499000D03*
X-3396500Y107500D03*
X-3400500Y507000D03*
X-3791740Y600000D03*
X-3396490Y-1000D03*
X-3499500Y0D03*
X-3600000Y8280D03*
X-3160500Y553500D03*
X-3353500Y630000D03*
X-3500000Y800000D03*
X-3600000D03*
X-3300000Y1000000D03*
Y1100000D03*
Y1200000D03*
X-3200000Y1000000D03*
X-3400000D03*
X-3200000Y1100000D03*
X-3500000Y900000D03*
X-3400000Y1100000D03*
X-3500000Y1000000D03*
Y1100000D03*
X-3200000Y1200000D03*
X-3600000Y900000D03*
X-3400000Y1200000D03*
X-3600000Y1000000D03*
X-3500000Y1200000D03*
X-3600000Y1100000D03*
Y1200000D03*
X-3707500Y1002390D03*
X-3696490Y1092500D03*
X-3791720Y903510D03*
X-3301000Y1392500D03*
X-3407000Y1292500D03*
X-3803500Y1207500D03*
X-3796500Y1091720D03*
X-3307000Y893000D03*
X-3696390Y1192500D03*
X-3307000Y783000D03*
X-3200000Y1707660D03*
X-3600000D03*
X-3200000Y1892340D03*
X-3600000D03*
X-3845220Y1800660D03*
X-3453500Y1968840D03*
X-3301000Y1967260D03*
X-3407000Y2013760D03*
X-3712900Y2184840D03*
X-3696390Y1844260D03*
X-3547500Y2365000D03*
X-3468700Y2505430D03*
X-3649890Y2231340D03*
X-3553500Y2277840D03*
X-3253500Y2318500D03*
X-3353500Y2517840D03*
X-3779300Y2457840D03*
X-3484950Y3700000D03*
X-2807000Y-3547170D03*
X-2353500Y-3569760D03*
X-2500000Y-3407660D03*
X-3050000Y-3339460D03*
X-3000000Y-3200000D03*
X-2900000Y-3398650D03*
X-2500000Y-3592340D03*
X-2700000D03*
X-2900000D03*
X-2950000Y-3309000D03*
X-2563530Y-3346500D03*
X-2708280Y-3191720D03*
X-2448750Y-3638840D03*
X-2996500Y-3395840D03*
X-3056560Y-3592340D03*
X-3103060Y-3395840D03*
X-2400000Y-3407670D03*
X-2700000Y-3300000D03*
X-2400000D03*
X-2399780Y-3203500D03*
X-2807000Y-3091720D03*
X-3007500Y-3101000D03*
X-2807000Y-2998720D03*
X-2907000Y-3092500D03*
X-2701280D03*
X-2900000Y-2991720D03*
X-2700000Y-2500000D03*
X-2600000D03*
X-2950000Y-2560450D03*
X-2900000Y-2800000D03*
Y-2900000D03*
Y-2694990D03*
Y-2605000D03*
X-2608280Y-2895000D03*
X-2705000D03*
X-2695000Y-2792990D03*
X-3000000Y-2700000D03*
Y-2800000D03*
X-2700000Y-2600000D03*
X-3000000Y-2900000D03*
X-2600000Y-2600000D03*
X-3003500Y-2992500D03*
X-2807000Y-2800000D03*
X-2591720Y-2802000D03*
X-2392500Y-2808280D03*
X-2403060Y-3108280D03*
X-2491750Y-2108280D03*
X-3005000D03*
X-3000000Y-2000000D03*
Y-1900000D03*
X-2850000Y-2244000D03*
X-2605000Y-2107000D03*
X-2608280Y-1905000D03*
X-2700000Y-2200000D03*
X-2800000Y-2000000D03*
X-2700000D03*
X-2600000Y-2200000D03*
X-2800000Y-1900000D03*
X-2700000D03*
X-2600000Y-2000000D03*
X-2801000Y-2105000D03*
X-2700000Y-2300000D03*
X-2600000D03*
X-2983060Y-2308500D03*
X-2853500Y-2317000D03*
X-2508280Y-2008280D03*
X-2847500Y-1122910D03*
X-2920060Y-1135650D03*
X-3026560Y-1100710D03*
X-2424950Y-1135150D03*
X-2649560Y-948160D03*
X-2500000Y-1392340D03*
X-2900000Y-1394000D03*
X-2517950Y-1207660D03*
X-2900000Y-1198650D03*
X-3043060Y-1398000D03*
X-2565530Y-1444500D03*
X-2460760Y-995650D03*
X-2556560Y-1084660D03*
X-2679500Y-1395170D03*
X-2746500Y-1491000D03*
X-2907000D03*
X-2981040Y-1009660D03*
X-3073060Y-1168650D03*
X-2837000Y-943080D03*
X-2801000Y-1169410D03*
X-2633000Y-1239340D03*
X-2469500Y-1088650D03*
X-2714000Y-937660D03*
X-3014500Y-492340D03*
X-2920060Y-782550D03*
X-2649560Y-735350D03*
X-2500000Y-307660D03*
X-3000000Y-100000D03*
Y-200000D03*
X-2900000Y-307660D03*
X-2500000Y-492340D03*
X-2700000D03*
X-2900000D03*
X-2937000Y-209000D03*
X-2900000Y-100000D03*
X-2556560Y-790080D03*
X-2966940Y-735340D03*
Y-337660D03*
X-3061000Y-798250D03*
X-2707500Y-307660D03*
X-2837000D03*
X-2491010Y-738330D03*
X-2807000Y-3500D03*
X-3008280Y-1000D03*
X-2801750Y93000D03*
X-2991720D03*
X-2907500Y-1000D03*
X-2700000Y600000D03*
X-2600000D03*
X-2900000Y400000D03*
Y300000D03*
Y200000D03*
X-2600000Y205000D03*
Y508280D03*
X-3008280Y495000D03*
X-2809000Y550000D03*
X-2800000Y400000D03*
X-3000000Y300000D03*
X-2700000Y400000D03*
X-2800000Y300000D03*
X-2700000D03*
X-3000000Y200000D03*
X-2600000Y400000D03*
X-2800000Y200000D03*
X-2600000Y300000D03*
X-2700000Y200000D03*
X-3008280Y567010D03*
X-2500000Y0D03*
X-2908280Y630000D03*
X-2872000Y539000D03*
X-2407000Y607500D03*
X-2815280Y646500D03*
X-2500000Y607500D03*
X-2507500Y205000D03*
X-2607500Y-8280D03*
X-3000000Y1000000D03*
Y1100000D03*
Y1200000D03*
X-2800000Y1000000D03*
X-2700000Y900000D03*
X-2800000Y1100000D03*
X-2700000Y1000000D03*
Y1100000D03*
X-2600000Y900000D03*
X-2800000Y1200000D03*
X-2600000Y1000000D03*
X-2700000Y1200000D03*
X-2600000Y1100000D03*
Y1200000D03*
X-2900000Y1000000D03*
X-2700000Y800000D03*
X-2900000Y1100000D03*
X-2600000Y800000D03*
X-2900000Y1200000D03*
X-3008280Y893000D03*
X-2396490Y1402500D03*
X-2391720Y1196500D03*
X-2808280Y1293000D03*
X-2396490Y896500D03*
X-2500000Y891720D03*
X-2815290Y850010D03*
X-2403500Y791720D03*
X-2500000D03*
X-2908280Y846500D03*
X-2600000Y1392500D03*
X-2861790Y769500D03*
X-2403500Y1091720D03*
X-2499200Y1097610D03*
X-2396500Y991720D03*
X-2500000D03*
Y1707660D03*
X-2900000D03*
X-2500000Y1901350D03*
X-2900000Y1892340D03*
X-2383370Y2138340D03*
X-2499200Y1639000D03*
X-2735970D03*
X-2526350Y1967260D03*
X-2349370Y2013760D03*
X-2553500Y2272000D03*
X-2914200Y2564340D03*
X-3066650Y2584800D03*
X-2361500Y2935200D03*
X-2600000Y2365000D03*
X-2376200Y2318500D03*
X-2576750Y2471340D03*
X-2689470Y2601300D03*
X-2735970Y3028220D03*
X-2784950Y3700000D03*
X-1845310Y-3404830D03*
X-2137070Y-3300000D03*
X-2200000Y-3407660D03*
X-1592340Y-3300000D03*
X-1907660D03*
X-2200000Y-3592340D03*
X-1890860Y-3192500D03*
X-1796450Y-3454170D03*
X-2279700Y-3500670D03*
X-1953860Y-3199750D03*
X-1626900Y-3475040D03*
X-2326200Y-3311830D03*
X-2060570Y-3203500D03*
X-2207500Y-3108280D03*
Y-2608280D03*
Y-2991720D03*
X-2110500Y-3000000D03*
Y-2600000D03*
X-1907660Y-2533070D03*
X-1898650Y-2600000D03*
X-1594360Y-3000000D03*
X-1907660D03*
X-1601660Y-2567490D03*
X-2208280Y-2500000D03*
X-1907660Y-2663000D03*
X-1741530Y-2935010D03*
X-1907660Y-2937000D03*
X-2157270Y-2546500D03*
X-1754660Y-2660500D03*
X-1735160Y-2393500D03*
X-2131000Y-2838720D03*
X-1955830Y-2888510D03*
X-1691360Y-2996800D03*
X-1737860Y-3049140D03*
X-1698590Y-2723000D03*
X-1745090Y-2567500D03*
X-2092340Y-2300000D03*
Y-1900000D03*
X-1754660Y-2300000D03*
X-1898650Y-1900000D03*
X-1592340D03*
X-1770560Y-2144000D03*
X-1953860Y-2200000D03*
X-2072530Y-2144020D03*
X-2060370Y-2081020D03*
X-1924060Y-1647000D03*
X-1754660Y-2237000D03*
X-2191000Y-1954000D03*
X-1946600Y-2037500D03*
X-2029340Y-1988020D03*
X-2308280Y-1907500D03*
X-2191000Y-2246500D03*
X-1892840Y-1991000D03*
X-2307500Y-2008280D03*
X-1951910Y-1185910D03*
X-1894140Y-1139410D03*
X-2106450Y-1500000D03*
X-2200000Y-1404500D03*
X-1898650Y-1500000D03*
X-1592340D03*
X-2200000Y-1207660D03*
X-1907360Y-1237660D03*
X-2155450Y-1453500D03*
X-1647320Y-1185910D03*
X-2072890Y-1042150D03*
X-1892210D03*
X-2061930Y-1407000D03*
X-1622370Y-1088650D03*
X-1912200Y-793690D03*
X-1592370Y-522340D03*
X-2073060Y-307660D03*
X-2200000D03*
X-1898650Y-200000D03*
X-1592340D03*
X-2200000Y-492340D03*
X-1877060Y-439340D03*
X-1592370Y-54780D03*
X-1907660Y163000D03*
X-2098780Y100000D03*
Y500000D03*
X-1612400D03*
X-1898650D03*
Y100000D03*
X-1592340D03*
X-1663340Y656000D03*
X-1663330Y593000D03*
X-2308280Y394630D03*
X-1975780D03*
X-1953860Y667550D03*
X-1606400Y423000D03*
X-1600330Y593300D03*
X-1607370Y251500D03*
X-2291730Y603500D03*
X-2308280Y492500D03*
X-2107000Y205000D03*
X-1607360Y163000D03*
X-1892840Y623000D03*
X-1622400Y314500D03*
X-2008130Y866940D03*
X-2118000Y1200000D03*
X-1939340Y733060D03*
X-1606840Y1200000D03*
Y800000D03*
X-1907660Y1200000D03*
X-2145910Y1356000D03*
X-2191000Y1226500D03*
X-1861160Y1263000D03*
X-2128000D03*
X-2101130Y1096500D03*
X-2307500Y1191720D03*
X-2296490Y896500D03*
X-1768160Y1226250D03*
X-1611840Y1103500D03*
X-1616830Y893000D03*
X-1786340D03*
X-2145680Y1050000D03*
X-2190540Y1096500D03*
X-2201780Y896570D03*
X-2307500Y991920D03*
X-2092340Y1600000D03*
X-2200000Y1699440D03*
Y1901350D03*
X-1592340Y1600000D03*
X-1907660D03*
X-1598660Y1769500D03*
X-2044000D03*
X-2244550Y1650440D03*
X-2107000Y1797760D03*
X-2153500Y1539000D03*
X-1907660Y1723000D03*
X-2244400Y2060260D03*
X-2346430Y1890760D03*
X-2228420Y2184840D03*
X-2045900Y1844260D03*
X-1984800Y2743220D03*
Y2365000D03*
X-1814660Y2935220D03*
X-1861160Y2789720D03*
X-2227000Y2798700D03*
X-1615150Y2684340D03*
X-1645160Y2318500D03*
X-2105420D03*
X-1598650Y2471340D03*
X-1984800Y2620220D03*
X-2054950Y3700000D03*
X-1366930Y-3596350D03*
X-1366520Y-3451330D03*
X-966940Y-3461900D03*
X-1407660Y-3300000D03*
X-900000Y-3592340D03*
X-1300000Y-3591740D03*
X-963000Y-3622900D03*
X-1029940Y-3462590D03*
X-1003500Y-3197780D03*
X-950000Y-3309000D03*
X-1103500Y-3192500D03*
X-1147000Y-3477290D03*
X-1050000Y-3311830D03*
X-1076440Y-3591750D03*
X-1473900Y-3498740D03*
X-1446650Y-2396500D03*
X-1398650Y-3000000D03*
X-1461900Y-2749550D03*
X-900000Y-2700000D03*
Y-2800000D03*
Y-2900000D03*
X-1579910Y-2666940D03*
X-900000Y-2500000D03*
X-1097970Y-2391720D03*
X-1407660Y-2650000D03*
X-1101570Y-2598720D03*
X-991720Y-2692500D03*
X-1398900Y-2750000D03*
X-1101570Y-2692500D03*
X-991720Y-2792500D03*
X-1103500Y-3007500D03*
X-1003500D03*
X-900000Y-3095640D03*
X-1377750Y-2403500D03*
X-1003490Y-2407000D03*
X-991720Y-2492500D03*
X-1194740Y-2507500D03*
X-1091720Y-2505720D03*
X-992500Y-2591720D03*
X-1101740Y-2792490D03*
X-1003500Y-2891720D03*
X-1191720Y-2992500D03*
X-1335650Y-3002000D03*
X-891720Y-2305000D03*
X-1545770Y-1613430D03*
X-895000Y-2008280D03*
X-1003500Y-2192490D03*
X-903500Y-2207500D03*
X-1004980Y-2296500D03*
X-1207500Y-1608280D03*
X-1301250D03*
Y-1891720D03*
X-896660Y-1807500D03*
X-1301250Y-1991720D03*
X-1194740Y-1907890D03*
X-1101740Y-1991720D03*
X-1097980Y-1907500D03*
X-1301250Y-2108280D03*
X-1192500Y-2008280D03*
X-1097980Y-2091720D03*
X-1003500D03*
X-1301250Y-2197610D03*
X-1194740Y-2203500D03*
X-1101740Y-2303500D03*
X-907500Y-2108280D03*
X-908280Y-1597000D03*
X-1571660Y-2015280D03*
X-868280Y-840190D03*
X-1545770Y-1407000D03*
X-1300000Y-1394280D03*
X-900000Y-1392340D03*
Y-1207660D03*
X-1300000D03*
X-1320130Y-1515280D03*
X-833060Y-1299340D03*
X-1424250Y-1158660D03*
X-859500Y-1054660D03*
X-1313340Y-949150D03*
X-1148240Y-941170D03*
X-1003490Y-995650D03*
X-1003500Y-1453500D03*
X-1049990Y-1206180D03*
X-1096490Y-1280730D03*
X-1376340Y-949150D03*
X-1499270Y-1253860D03*
X-1452840Y-100000D03*
X-1300000Y-307660D03*
X-900000Y-298650D03*
X-1398650Y-200000D03*
X-900000Y-493750D03*
X-1300000Y-499990D03*
X-1499340Y-511170D03*
X-908280Y-97000D03*
X-1103500Y-453490D03*
X-1207500Y-100250D03*
X-1150000Y-517910D03*
X-1376340Y-307660D03*
X-1305650Y-192500D03*
X-903500D03*
X-1358660Y52500D03*
X-1407660Y100000D03*
X-1208280Y696500D03*
X-991720Y205000D03*
Y300000D03*
X-1336370Y-50500D03*
X-1545840Y376500D03*
X-1313500Y618150D03*
X-1203500Y591730D03*
X-1107500Y603500D03*
X-991720Y607500D03*
X-1376500Y639800D03*
X-1325580Y503500D03*
X-1003500Y508280D03*
X-1107500Y92000D03*
X-1103500Y699000D03*
X-1552160Y647900D03*
X-1000000Y92500D03*
X-896490Y-4000D03*
X-1309000Y319500D03*
X-1485840Y893000D03*
X-1407660Y1200000D03*
X-900000Y1100000D03*
Y1200000D03*
X-1454420Y1103500D03*
X-1203500Y903500D03*
X-1434940Y1356000D03*
X-1100010Y903500D03*
X-991720Y892500D03*
X-1388530Y750000D03*
X-1330000Y991720D03*
X-1208280Y796500D03*
X-1103500Y807510D03*
X-1003500D03*
X-1539360Y1402500D03*
X-1497940Y1339500D03*
X-1407660Y1263000D03*
X-1096500Y1191720D03*
X-1207000Y1100000D03*
X-1105150Y1096500D03*
X-1003500Y1097610D03*
X-1330000Y912610D03*
X-1203500Y991720D03*
X-1103510Y996500D03*
X-992500Y993000D03*
X-1407660Y1600000D03*
X-1371600Y1761900D03*
X-900000Y1707660D03*
Y1895270D03*
X-1300000Y1901350D03*
X-1507610Y1782660D03*
X-1552160Y1895270D03*
X-1203060Y1789140D03*
X-1554110Y1723000D03*
X-1103500Y1724170D03*
X-1003500Y2184840D03*
Y1599110D03*
X-1507450Y2138340D03*
X-1302110Y1967260D03*
X-953000D03*
X-1351800Y2013760D03*
X-1056990Y1776000D03*
X-1052520Y1645610D03*
X-1259650Y2888700D03*
X-1505650Y2838240D03*
X-1107000Y2743220D03*
X-1369740Y2420190D03*
X-1200830Y2816940D03*
X-1412650Y2830960D03*
X-1247330Y2620220D03*
X-961600Y2573720D03*
X-1033330Y2517840D03*
X-1552150Y2424840D03*
X-1284950Y3700000D03*
X-1137000Y3584440D03*
X-1459150Y3074720D03*
X-1412650Y3421500D03*
X-1568650Y3451500D03*
X-1336150Y3375000D03*
X-256530Y-3775340D03*
X-585720Y-3562340D03*
X-63000Y-3592620D03*
Y-3398650D03*
X-650990Y-3715900D03*
X-453500Y-3314660D03*
X-500000Y-3208280D03*
X-312900Y-3469340D03*
X-500000Y-3407660D03*
X-604490Y-3363000D03*
X-700000Y-3192500D03*
X-300000Y-3200000D03*
Y-3300000D03*
X-200000Y-3398650D03*
Y-3592340D03*
X-500000D03*
X-200000Y-3200000D03*
X-600000D03*
X-200000Y-3300000D03*
X-600000D03*
X-278280Y-3592340D03*
X-356560Y-3592620D03*
X-702230Y-3358330D03*
X-166060Y-3728840D03*
X-558720D03*
X-750000Y-3311830D03*
X-807000Y-3622900D03*
X-492500Y-2998250D03*
X-696500Y-2991720D03*
X-453500Y-2585220D03*
X-103060Y-2992500D03*
X-500000Y-3100000D03*
X-308280Y-3101000D03*
X-102300Y-3092500D03*
X-596490Y-3003500D03*
X-600250Y-3101000D03*
X-591720Y-2900000D03*
X-407000Y-2520010D03*
X-203500Y-3101000D03*
X-201750Y-3003500D03*
X-300000Y-3008280D03*
X-100000Y-2405000D03*
X-500000Y-2700000D03*
Y-2800000D03*
Y-2900000D03*
X-691720D03*
X-791720D03*
X-200000Y-2700000D03*
X-700000D03*
X-800000Y-2600000D03*
X-200000Y-2800000D03*
X-800000Y-2700000D03*
X-700000Y-2800000D03*
X-800000D03*
X-200000Y-2900000D03*
X-100000Y-2591720D03*
X-305000Y-2691720D03*
X-600000Y-2700000D03*
X-100000D03*
X-800000Y-2500000D03*
X-300000Y-2800000D03*
X-600000D03*
X-100000D03*
X-300000Y-2900000D03*
X-100000D03*
X-153500Y-2501000D03*
X-482990Y-2522220D03*
X-601000D03*
X-796500Y-3097570D03*
X-708280Y-3107500D03*
X-338720Y-2445720D03*
X-603500D03*
X-701000Y-2601000D03*
X-253500Y-2220480D03*
X-795000Y-2308280D03*
X-300000Y-2100000D03*
Y-2000000D03*
Y-1900000D03*
X-597740Y-1905000D03*
X-600000Y-2100000D03*
X-100000D03*
X-600000Y-2000000D03*
X-100000D03*
Y-1900000D03*
X-608000Y-1805000D03*
X-491720Y-1905000D03*
X-800000Y-2095000D03*
Y-2205000D03*
X-500000Y-2100000D03*
X-200000D03*
X-500000Y-2000000D03*
X-200000D03*
Y-1900000D03*
X-800000D03*
X-703580Y-2204720D03*
X-504740Y-1808280D03*
X-207000Y-2348290D03*
X-633500D03*
X-799000Y-2007500D03*
X-607500Y-1597000D03*
X-557070Y-2277310D03*
X-300000Y-2276500D03*
Y-1597000D03*
X-800000Y-1791720D03*
X-103060Y-2199000D03*
X-330000Y-1431000D03*
X-499500Y-945160D03*
X-103060Y-1068650D03*
X-330000Y-898660D03*
X-673500Y-835760D03*
X-627000Y-978160D03*
X-406500Y-952160D03*
X-500000Y-1413000D03*
X-200000Y-1410500D03*
Y-1207660D03*
X-500000D03*
X-196060Y-1507500D03*
X-254290Y-1158660D03*
X-563000Y-1207660D03*
X-684500Y-1491000D03*
X-703500Y-1252840D03*
X-237000Y-1005660D03*
X-149560Y-898660D03*
X-641850Y-1345840D03*
X-103060Y-975160D03*
X-107500Y-107990D03*
X-523750Y-574590D03*
X-330000Y-322840D03*
X-192500Y-96500D03*
X-500000Y-298650D03*
X-300000Y-100000D03*
X-700000D03*
X-300000Y-200000D03*
X-700000D03*
X-200000Y-298650D03*
X-500000Y-501590D03*
X-200000Y-492340D03*
X-600000Y-100000D03*
Y-200000D03*
X-200000D03*
X-594000Y-655160D03*
X-703500Y-527760D03*
X-90500Y-520090D03*
X-514270Y-642340D03*
X-201530D03*
X-137000Y-214660D03*
X-360000Y-249000D03*
X-796500D03*
X-800000Y-738330D03*
X-84310Y-261160D03*
X-648250Y-369340D03*
X-307890Y6510D03*
X-591720Y100000D03*
X-108280Y92500D03*
X-591720Y-1000D03*
X-200000Y100000D03*
X-500000Y400000D03*
Y300000D03*
Y200000D03*
X-703500Y196940D03*
X-200000Y400000D03*
X-700000D03*
X-800000Y500000D03*
X-200000Y300000D03*
X-700000D03*
X-800000D03*
X-200000Y200000D03*
X-108280Y205000D03*
X-150000Y509000D03*
X-300000Y400000D03*
X-600000D03*
X-800000Y600000D03*
X-300000Y300000D03*
X-600000D03*
X-300000Y200000D03*
X-600000D03*
X-653500Y593000D03*
X-696500Y92000D03*
X-196770Y598950D03*
X-207000Y661950D03*
X-100000Y291720D03*
X-804010Y699000D03*
X-311250Y569000D03*
X-803500Y103940D03*
X-807500Y-3500D03*
X-407000Y661010D03*
X-300000Y1000000D03*
Y1100000D03*
X-800000Y800000D03*
X-300000Y1200000D03*
X-600000Y1000000D03*
X-100000D03*
X-600000Y1100000D03*
X-100000D03*
X-600000Y1200000D03*
X-100000D03*
X-500000Y1000000D03*
X-200000D03*
X-700000D03*
X-500000Y1100000D03*
X-200000D03*
X-800000Y900000D03*
X-700000Y1100000D03*
X-800000Y1000000D03*
Y1100000D03*
X-500000Y1200000D03*
X-200000D03*
X-700000D03*
X-800000D03*
X-108280Y1291720D03*
X-253500Y860260D03*
X-146500Y874880D03*
Y706510D03*
X-308280Y1391720D03*
X-691000Y753500D03*
X-653500Y853500D03*
X-607000Y1391720D03*
X-807000Y1392500D03*
X-707000Y1291720D03*
X-500000Y875260D03*
X-553500Y2091840D03*
X-500000Y1693120D03*
X-200000D03*
Y1901350D03*
X-500000Y1892340D03*
X-379300Y2138340D03*
X-154780Y2015350D03*
X-707000Y2138340D03*
X-360000Y2013760D03*
X-332800Y2828700D03*
X-177500Y2325760D03*
X-789560Y2469550D03*
X-308280Y2373690D03*
X-554950Y3700000D03*
X-534440Y3584440D03*
Y3421500D03*
X514040Y-3592340D03*
X100000Y-3306980D03*
X193000Y-3292500D03*
X-50000Y-3328150D03*
X400060Y-3745340D03*
Y-3582160D03*
X609570Y-3545840D03*
X200000Y-3398650D03*
X500000Y-3399980D03*
X607660Y-3300000D03*
X353560Y-3522980D03*
X200000Y-3592340D03*
X0D03*
X684150Y-3196600D03*
X266940Y-3745340D03*
Y-3569470D03*
X298250Y-3339000D03*
X146510Y-3745340D03*
X609500Y-3193000D03*
X300000D03*
X100000Y-3399980D03*
X193000Y-2696950D03*
X100000Y-3091720D03*
X203500Y-3108280D03*
X193000Y-2803500D03*
X203500Y-3008280D03*
X635000Y-2810060D03*
X292500Y-2791720D03*
X509000Y-2650450D03*
X546500Y-3097040D03*
X407500Y-3096500D03*
X544660Y-2966060D03*
X392500Y-2991720D03*
X292110Y-2896500D03*
X0Y-3003500D03*
X509000Y-2850000D03*
X618500Y-2873060D03*
X196500Y-2891720D03*
X100000Y-2800000D03*
X572000Y-2819290D03*
X391720Y-2792500D03*
X607660Y-3000000D03*
X100000Y-2496500D03*
X607660Y-2600000D03*
X621660Y-2496500D03*
X100000Y-2896500D03*
X7000Y-2395000D03*
Y-2708280D03*
X-7000Y-2808280D03*
X100000Y-2603950D03*
Y-2992500D03*
X-4010Y-2501000D03*
X294110Y-3097140D03*
X200000Y-2392500D03*
X509000Y-2550000D03*
X396500Y-2503500D03*
X198250Y-2492500D03*
X192500Y-2591720D03*
X300000Y-2992500D03*
X607670Y-1733500D03*
X607660Y-2300000D03*
Y-1900000D03*
X100000Y-2208280D03*
X0Y-2200000D03*
Y-2100000D03*
Y-2000000D03*
X100000Y-2100000D03*
X0Y-1900000D03*
X100000Y-2000000D03*
Y-1900000D03*
X0Y-2300000D03*
X403060Y-1904140D03*
X500000Y-2206770D03*
X396500Y-2207500D03*
X293000Y-2108280D03*
X496060Y-2300000D03*
X303500Y-2308280D03*
X193000Y-2307500D03*
X100000Y-2308280D03*
X577660Y-2046500D03*
X91720Y-1597000D03*
X297730Y-1891720D03*
X200000Y-1405280D03*
X595500Y-1500000D03*
X500000Y-1393060D03*
Y-1207660D03*
X200000D03*
X16340Y-1021660D03*
X596940Y-1286560D03*
X450010Y-999150D03*
X-7890Y-1131160D03*
X450290Y-1161160D03*
X546500Y-1548990D03*
X193000Y-1478280D03*
X449560Y-1453500D03*
X543960Y-839590D03*
X250440D03*
X38610Y-1084660D03*
X643440Y-1059150D03*
X41140Y-1269340D03*
X296940Y-898660D03*
X-6630Y-1345840D03*
X-54390Y-738340D03*
X200000Y-307660D03*
X569000Y-321660D03*
X600810Y-200000D03*
X500000Y-492340D03*
X200000D03*
X0D03*
X591400Y-788970D03*
X496510Y-642340D03*
X-6920Y-688840D03*
X200000Y-793090D03*
X-5940D03*
X246500Y-642340D03*
X296500Y-493060D03*
Y-793090D03*
X607660Y100000D03*
X98720Y600000D03*
X0D03*
X607660Y500000D03*
X0D03*
Y400000D03*
Y300000D03*
X100000Y500000D03*
Y400000D03*
Y300000D03*
X0Y200000D03*
X100000D03*
X-8280Y-7500D03*
X191720Y596500D03*
X291720Y696500D03*
X603860Y650000D03*
X553550Y176500D03*
Y696500D03*
X292500Y596500D03*
X-7000Y91720D03*
X291720Y492500D03*
X293000Y-3500D03*
X542810Y-44500D03*
X606000Y800000D03*
X607660Y1200000D03*
X0Y900000D03*
Y1000000D03*
Y1100000D03*
X100000Y900000D03*
Y1000000D03*
X0Y1200000D03*
X100000Y1100000D03*
Y1200000D03*
X98720Y795000D03*
X0Y800000D03*
X509000Y842500D03*
X292500Y896500D03*
X291720Y796500D03*
X191720Y892500D03*
X509000Y750000D03*
X393000Y791730D03*
X5720Y1291720D03*
X192500Y791720D03*
X496510Y1296500D03*
X391720Y1192500D03*
X291720D03*
X529850Y1050000D03*
X606030Y1103500D03*
X298250Y1107500D03*
X193000Y1103500D03*
X530820Y950000D03*
X606350Y996500D03*
X191720Y1003500D03*
X-53500Y1799640D03*
X200000Y1693120D03*
X607660Y1600000D03*
X500000Y1707660D03*
Y1901350D03*
X200000D03*
X5720Y1884240D03*
X14720Y2015340D03*
X546500Y1484010D03*
X292500Y1659120D03*
X76500Y1682630D03*
X169500Y2231340D03*
X492000Y2968200D03*
X590200Y2357720D03*
X416000Y2341750D03*
X636700Y2231340D03*
X76500Y2420190D03*
X339500Y2232060D03*
X-31780Y2517840D03*
X293000Y2527220D03*
X145050Y3700000D03*
X823840Y-5200000D03*
X1006800Y-3300000D03*
X1014660Y-3143640D03*
X1318250Y-3745340D03*
X1227450Y-3120990D03*
X1372700Y-3299640D03*
X1300000Y-3150650D03*
X1378450Y-3149050D03*
X1100000Y-3399980D03*
X801350Y-3300000D03*
X1300000Y-3393980D03*
X980540Y-3206640D03*
X1453980Y-3749200D03*
X1425000Y-3011500D03*
X1273950Y-2869990D03*
X1180950Y-2625000D03*
X1227450Y-2575000D03*
X1104010Y-3050440D03*
X1425000Y-2388500D03*
X1082810Y-2771500D03*
X1279700Y-2725000D03*
X1285450Y-2965660D03*
X1180950Y-2771500D03*
X792340Y-2600000D03*
Y-3000000D03*
X730650Y-2486000D03*
X1082810Y-2439500D03*
X1059210Y-3097140D03*
X754850Y-1610500D03*
Y-2207000D03*
X1341300Y-1676970D03*
X1169850Y-1687000D03*
X1294800Y-2309770D03*
X1098340Y-2063150D03*
X801350Y-2160500D03*
X1207660Y-1600000D03*
X1292340Y-2000000D03*
Y-2200000D03*
X801350Y-1900000D03*
X1107660Y-2000000D03*
Y-2200000D03*
X801950Y-2067500D03*
X1430000Y-1666750D03*
X1096050Y-2263000D03*
X1098340Y-1916500D03*
X1082810Y-2346500D03*
X1216350Y-1826560D03*
X1014670Y-1387000D03*
X792340Y-1010150D03*
X801350Y-1500000D03*
X801910Y-1178040D03*
Y-1437000D03*
X1014660Y-1264000D03*
X945340Y-325640D03*
X792340Y-200000D03*
X1421890Y-434450D03*
X801350Y500000D03*
Y100000D03*
X815590Y437000D03*
X1016850Y576500D03*
X838840Y653000D03*
X970350Y-44500D03*
X822340Y1423700D03*
X801350Y800000D03*
Y1200000D03*
X852340Y996500D03*
X1016850Y1159500D03*
X792340Y732500D03*
X915340Y1206000D03*
X898840Y1043000D03*
X945380Y2078340D03*
X991880Y1945200D03*
X1341300Y2005200D03*
X885340Y1799640D03*
X792340Y1600000D03*
X1191200Y1548700D03*
X792340Y1673700D03*
X945380Y1990720D03*
X1338840Y2400000D03*
X961840Y2278560D03*
X1254160Y2231340D03*
X1292340Y2300000D03*
X1098200D03*
X760660Y2231340D03*
X751070Y2404220D03*
X845050Y3700000D03*
X1398700Y3014700D03*
X2059010Y-5600040D03*
X2049260Y-5500040D03*
X2139330D03*
X2212030Y-5726760D03*
X2113280D03*
X2014530D03*
X1915790D03*
X1817040D03*
X2146300Y-4996180D03*
X1587050Y-4800000D03*
X2131170Y-3800520D03*
X1633060Y-3299640D03*
X1918200Y-3612460D03*
X1675000Y-3197150D03*
X1700000Y-3392340D03*
X2000000Y-3399980D03*
X1500000Y-3393980D03*
X1855200Y-3795700D03*
Y-3612460D03*
X1946200Y-2405360D03*
X1475000Y-3056050D03*
X1525000Y-3011500D03*
X1901700Y-3089960D03*
X1912600Y-2825000D03*
X1725000Y-3041500D03*
X1994710Y-2995000D03*
X1911500Y-2918500D03*
X1500000Y-2600000D03*
X1600000D03*
X1700000D03*
Y-2700000D03*
X1600000D03*
X1500000D03*
Y-2800000D03*
X1600000D03*
X1700000D03*
X1825200Y-1713280D03*
X1475000Y-2343950D03*
X2055340Y-2016660D03*
X1507660Y-1646500D03*
X1575000Y-2267450D03*
X1692340Y-1600000D03*
X1978340Y-2340000D03*
X1778700Y-1900000D03*
X2107660Y-1600000D03*
X1992340Y-2000000D03*
X1592340Y-2200000D03*
X1675000Y-2293500D03*
X1901700Y-1873060D03*
X1876000Y-1780060D03*
X1938100Y-1533060D03*
X1470000Y-967840D03*
X1645200Y-1056000D03*
X1969000Y-427650D03*
X1470000Y-325640D03*
X1777000Y-759840D03*
X1714100Y193840D03*
X1700000Y378040D03*
X1876000Y121220D03*
X1922500Y2154840D03*
X2023000Y1830000D03*
X1736500Y2205000D03*
X2114810Y1656460D03*
X1876000Y1703700D03*
X1846000Y2718000D03*
Y2465000D03*
X2100000Y2823840D03*
X1900000D03*
Y2595000D03*
X1736500Y2335000D03*
X1783000Y2831780D03*
X1900000Y3375510D03*
X2100000Y3545500D03*
X1900000Y3576160D03*
X1700000Y3278010D03*
Y3548000D03*
X1900000Y3187710D03*
X1598700Y3584440D03*
X2229390Y-5500040D03*
X2319460D03*
X2409520D03*
Y-5575610D03*
Y-5651190D03*
Y-5726760D03*
X2310770D03*
X2300000Y-4584500D03*
X2267660Y-3795700D03*
X2301940Y-3300360D03*
X2658850Y-3479200D03*
X2377160Y-3672700D03*
X2655910Y-3542200D03*
X2771220Y-3368340D03*
X2291940Y-2400000D03*
X2492340D03*
X2292340Y-1600000D03*
X2303440Y-2293500D03*
X2377150Y-2103060D03*
X2607660Y-1700000D03*
X2498170Y-235640D03*
X2544670Y-189140D03*
X2939500Y688350D03*
X2658850Y121220D03*
X2600000Y441670D03*
Y533330D03*
Y625000D03*
X2750000D03*
Y533330D03*
Y441670D03*
Y350000D03*
X2675000D03*
X2600000D03*
X2470150Y74720D03*
Y-1780D03*
X2600000Y1675000D03*
Y1766670D03*
Y1858330D03*
Y1950000D03*
X2675000D03*
X2750000D03*
Y1858330D03*
Y1766670D03*
Y1675000D03*
X2893000Y2641500D03*
X2800000Y2223840D03*
X2306500Y2595000D03*
Y2530000D03*
Y2400000D03*
Y2270000D03*
X2778700Y3250000D03*
X2345050Y3746000D03*
X2612040Y3000000D03*
X2571650Y3543190D03*
X2956300Y3746000D03*
X2353000Y3324510D03*
X2268550Y3386000D03*
Y3849810D03*
X3695700Y-2936240D03*
X3736340Y-2876910D03*
X3332480Y-2991580D03*
X3398520Y-2941320D03*
X3070190Y-2355640D03*
X3278300D03*
Y-2449980D03*
X3208930D03*
X3139560D03*
X3070190D03*
Y-2261300D03*
X3139560D03*
X3208930D03*
X3278300D03*
X3342200Y-1400000D03*
X3700000Y995830D03*
Y1091670D03*
Y1187500D03*
Y1283330D03*
Y1379170D03*
Y900000D03*
Y1475000D03*
Y1570830D03*
Y1858330D03*
Y1954170D03*
Y2050000D03*
X3300000Y1952460D03*
Y2050000D03*
X3375000D03*
X3450000D03*
Y1952460D03*
Y1854920D03*
X3375000D03*
X3300000D03*
X3692340Y2300000D03*
X3354000Y2891000D03*
X3507660Y2300000D03*
X3392340Y2700000D03*
X3240500Y3250000D03*
X3900000Y1379170D03*
X3766670Y2050000D03*
X3833330D03*
X3900000D03*
Y1954170D03*
Y1858330D03*
Y1762500D03*
Y1666670D03*
Y1570830D03*
Y1475000D03*
X3978700Y3300000D03*
G54D24*
X2596800Y-4984200D03*
X4146200D03*
G54D15*
X-4132000Y2700000D03*
X-3878000D03*
X-3624000D03*
X-3370000D03*
X-3116000D03*
X-2862000D03*
X-2608000D03*
X-2354000D03*
X-2100000D03*
X-1041400Y-5273040D03*
X-986000Y2700000D03*
X-732000D03*
X-478000D03*
X-224000D03*
X30000D03*
X284000D03*
X538000D03*
X846000Y-4700000D03*
X1100000D03*
X1470000Y1070000D03*
Y1325000D03*
Y1830000D03*
Y1575000D03*
X792000Y2700000D03*
X1046000D03*
X1300000D03*
X2230000Y1070000D03*
Y1325000D03*
Y1575000D03*
Y1830000D03*
X2962560Y-5695400D03*
X2708560D03*
X2927000Y-4654000D03*
X2800000Y-4400000D03*
X2500000Y2246000D03*
Y2500000D03*
X3780440Y-5695400D03*
X3689000Y-4654000D03*
X3435000D03*
X3181000D03*
X3562000Y-4400000D03*
X3308000D03*
X3054000D03*
X4034440Y-5695400D03*
X3943000Y-4654000D03*
X3816000Y-4400000D03*
X4200000Y2438000D03*
Y2692000D03*
Y2946000D03*
Y3200000D03*
G54D16*
X-3932000Y3173000D03*
Y3300000D03*
X-3170000Y3173000D03*
X-3297000D03*
X-3424000D03*
X-3551000D03*
X-3678000D03*
X-3805000D03*
Y3300000D03*
X-3678000D03*
X-3551000D03*
X-3424000D03*
X-3297000D03*
X-3170000D03*
X-2408000Y3173000D03*
X-2535000D03*
X-2662000D03*
X-2789000D03*
X-2916000D03*
X-3043000D03*
Y3300000D03*
X-2916000D03*
X-2789000D03*
X-2662000D03*
X-2535000D03*
X-2408000D03*
X-1900000Y3173000D03*
X-2027000D03*
X-2154000D03*
X-2281000D03*
Y3300000D03*
X-2154000D03*
X-2027000D03*
X-1900000D03*
X-905000Y3173000D03*
X-1032000D03*
Y3300000D03*
X-905000D03*
X-143000Y3173000D03*
X-270000D03*
X-397000D03*
X-524000D03*
X-651000D03*
X-778000D03*
Y3300000D03*
X-651000D03*
X-524000D03*
X-397000D03*
X-270000D03*
X-143000D03*
X619000Y3173000D03*
X492000D03*
X365000D03*
X238000D03*
X111000D03*
X-16000D03*
Y3300000D03*
X111000D03*
X238000D03*
X365000D03*
X492000D03*
X619000D03*
X1000000Y3173000D03*
X873000D03*
X746000D03*
Y3300000D03*
X873000D03*
X1000000D03*
G54D25*
X2940000Y-3227000D03*
Y-3100000D03*
X3702000Y-3227000D03*
X3575000D03*
X3448000D03*
X3321000D03*
X3194000D03*
X3067000D03*
X3702000Y-3100000D03*
X3575000D03*
X3448000D03*
X3321000D03*
X3194000D03*
X3067000D03*
X4083000Y-3227000D03*
X3956000D03*
X3829000D03*
X4083000Y-3100000D03*
X3956000D03*
X3829000D03*
G54D26*
G01X-4000000Y-3461900D02*
Y-3421660D01*
X-3933060D01*
Y-3475840D01*
G01X-4161900Y-3300000D02*
X-4107660D01*
G01X-4000000Y-3538100D02*
Y-3592340D01*
G01X-4238100Y-3300000D02*
X-4292340D01*
G01X-4161900Y-3000000D02*
X-4107660D01*
G01X-4161900Y-2600000D02*
X-4121660D01*
Y-2582050D01*
X-4107650D01*
G01X-4278340Y-2600000D02*
Y-2300000D01*
G01X-4230660Y-2870500D02*
X-4211650D01*
Y-2758500D01*
X-4278340D01*
Y-2600000D01*
G01X-4238100D02*
X-4278340D01*
G01X-4238100Y-3000000D02*
X-4278340D01*
Y-3006940D01*
X-4292340D01*
G01X-4161900Y-2300000D02*
Y-1987000D01*
X-4086000D01*
G01X-4161900Y-1900000D02*
X-4086000D01*
Y-1917950D01*
G01X-4278340Y-2300000D02*
Y-1900000D01*
X-4238100D01*
G01Y-2300000D02*
X-4278340D01*
G01X-4161900Y-1500000D02*
X-4113000D01*
Y-1401000D01*
G01X-4000000Y-1338100D02*
Y-1392340D01*
G01X-4238100Y-1500000D02*
X-4278340D01*
Y-1401000D01*
X-4176000D01*
G01X-4000000Y-1261900D02*
Y-1207660D01*
G01Y-361900D02*
Y-298650D01*
G01X-4161900Y-200000D02*
X-4098650D01*
G01X-4000000Y-438100D02*
Y-509340D01*
G01X-4238100Y-200000D02*
X-4292340D01*
G01X-4161900Y100000D02*
X-4107660D01*
G01X-4161900Y500000D02*
X-4107660D01*
G01X-4238100D02*
X-4292340D01*
G01X-4238100Y100000D02*
X-4292340D01*
G01X-4161900Y800000D02*
X-4107660D01*
G01X-4161900Y1200000D02*
X-4107660D01*
G01X-4238100D02*
X-4292340D01*
G01X-4238100Y800000D02*
X-4292340D01*
G01X-4000000Y1761900D02*
Y1707660D01*
G01X-4161900Y1600000D02*
X-4107660D01*
G01X-4000000Y1838100D02*
Y1892340D01*
G01X-4238100Y1600000D02*
X-4292340D01*
G01X-3200000Y-3461900D02*
Y-3407660D01*
G01X-3600000Y-3461900D02*
Y-3421660D01*
X-3403500D01*
Y-3547170D01*
G01X-3600000Y-3538100D02*
X-3666940D01*
G01X-3200000D02*
Y-3592340D01*
G01Y-1338100D02*
Y-1392340D01*
G01X-3600000Y-1338100D02*
Y-1394000D01*
G01X-3200000Y-1261900D02*
Y-1198650D01*
G01X-3600000Y-1261900D02*
Y-1207660D01*
G01X-3200000Y-361900D02*
Y-298650D01*
G01X-3600000Y-361900D02*
Y-298650D01*
G01X-3200000Y-438100D02*
Y-492340D01*
G01X-3600000Y-438100D02*
Y-492340D01*
G01X-3200000Y1761900D02*
Y1707660D01*
G01X-3600000Y1761900D02*
Y1707660D01*
G01X-3200000Y1838100D02*
Y1892340D01*
G01X-3600000Y1838100D02*
Y1892340D01*
G01X-2500000Y-3461900D02*
Y-3407660D01*
G01X-2900000Y-3461900D02*
Y-3398650D01*
G01X-2500000Y-3538100D02*
Y-3592340D01*
G01X-2700000Y-3538100D02*
Y-3592340D01*
G01X-2900000Y-3538100D02*
Y-3592340D01*
G01X-2500000Y-1338100D02*
Y-1392340D01*
G01X-2900000Y-1338100D02*
Y-1394000D01*
G01X-2500000Y-1261900D02*
Y-1221660D01*
X-2517950D01*
Y-1207660D01*
G01X-2900000Y-1261900D02*
Y-1198650D01*
G01X-2500000Y-361900D02*
Y-307660D01*
G01X-2900000Y-361900D02*
Y-307660D01*
G01X-2500000Y-438100D02*
Y-492340D01*
G01X-2700000Y-438100D02*
Y-492340D01*
G01X-2900000Y-438100D02*
Y-492340D01*
G01X-2500000Y1761900D02*
Y1707660D01*
G01X-2900000Y1761900D02*
Y1707660D01*
G01X-2500000Y1838100D02*
Y1901350D01*
G01X-2900000Y1838100D02*
Y1892340D01*
G01X-2038100Y-3300000D02*
X-2137070D01*
G01X-2200000Y-3461900D02*
Y-3407660D01*
G01X-1961900Y-3300000D02*
X-1907660D01*
G01X-2200000Y-3538100D02*
Y-3592340D01*
G01X-2038100Y-3000000D02*
X-2110500D01*
G01X-2038100Y-2600000D02*
X-2110500D01*
G01X-1961900Y-2300000D02*
Y-2533070D01*
X-1907660D01*
G01X-1961900Y-2600000D02*
X-1898650D01*
G01X-1961900Y-3000000D02*
X-1907660D01*
G01X-2038100Y-2300000D02*
X-2092340D01*
G01X-2038100Y-1900000D02*
X-2092340D01*
G01X-1538100Y-2300000D02*
X-1754660D01*
G01X-1961900Y-1900000D02*
X-1898650D01*
G01X-2038100Y-1500000D02*
X-2106450D01*
G01X-1650940Y-900000D02*
X-1714040D01*
Y-522340D01*
X-1592370D01*
G01X-2200000Y-1338100D02*
Y-1404500D01*
G01X-1961900Y-1500000D02*
X-1898650D01*
G01X-2200000Y-1261900D02*
Y-1207660D01*
G01X-2038100Y-200000D02*
X-2078340D01*
Y-258660D01*
X-2073060D01*
Y-307660D01*
G01X-2200000Y-361900D02*
Y-307660D01*
G01X-1961900Y-200000D02*
X-1898650D01*
G01X-2200000Y-438100D02*
Y-492340D01*
G01X-2038100Y100000D02*
X-2098780D01*
G01X-2038100Y500000D02*
X-2098780D01*
G01X-1538100D02*
X-1612400D01*
G01X-1961900D02*
X-1898650D01*
G01X-1961900Y100000D02*
X-1898650D01*
G01X-2038100Y800000D02*
X-2078340D01*
Y866940D01*
X-2008130D01*
G01X-2038100Y1200000D02*
X-2118000D01*
G01X-1961900Y800000D02*
X-1921660D01*
Y733060D01*
X-1939340D01*
G01X-1961900Y1200000D02*
X-1907660D01*
G01X-2038100Y1600000D02*
X-2092340D01*
G01X-2200000Y1761900D02*
Y1699440D01*
G01Y1838100D02*
Y1901350D01*
G01X-1961900Y1600000D02*
X-1907660D01*
G01X-1366520Y-3451330D02*
X-1364510D01*
X-1363980Y-3451860D01*
X-1310040D01*
X-1300000Y-3461900D01*
G01X-900000D02*
X-966940D01*
G01X-1461900Y-3300000D02*
X-1407660D01*
G01X-900000Y-3538100D02*
Y-3592340D01*
G01X-1300000Y-3538100D02*
Y-3591740D01*
G01X-1538100Y-3300000D02*
X-1592340D01*
G01X-1461900Y-2300000D02*
Y-2337930D01*
X-1446650D01*
Y-2396500D01*
G01X-1461900Y-3000000D02*
X-1398650D01*
G01X-1461900Y-2600000D02*
Y-2749550D01*
G01X-1538100Y-2600000D02*
Y-2617940D01*
X-1579910D01*
Y-2666940D01*
G01X-1538100Y-3000000D02*
X-1594360D01*
G01X-1461900Y-1900000D02*
X-1421660D01*
Y-1613430D01*
X-1545770D01*
G01X-1538100Y-1900000D02*
X-1592340D01*
G01X-1461900Y-1500000D02*
X-1421660D01*
Y-1407000D01*
X-1545770D01*
G01X-1300000Y-1338100D02*
Y-1394280D01*
G01X-900000Y-1338100D02*
Y-1392340D01*
G01Y-1261900D02*
Y-1207660D01*
G01X-1300000Y-1261900D02*
Y-1207660D01*
G01X-1538100Y-1500000D02*
X-1592340D01*
G01X-1300000Y-361900D02*
Y-307660D01*
G01X-900000Y-361900D02*
Y-298650D01*
G01X-1461900Y-200000D02*
X-1398650D01*
G01X-900000Y-438100D02*
Y-493750D01*
G01X-1300000Y-438100D02*
Y-499990D01*
G01X-1538100Y-200000D02*
X-1592340D01*
G01X-1461900Y100000D02*
X-1407660D01*
G01X-1461900Y500000D02*
X-1386660D01*
Y454500D01*
X-1264500D01*
Y652500D01*
X-1208280D01*
Y696500D01*
G01X-1538100Y100000D02*
X-1592340D01*
G01X-1461900Y800000D02*
X-1421660D01*
Y893000D01*
X-1485840D01*
G01X-1461900Y1200000D02*
X-1407660D01*
G01X-1538100D02*
X-1606840D01*
G01X-1538100Y800000D02*
X-1606840D01*
G01X-1461900Y1600000D02*
X-1407660D01*
G01X-1300000Y1761900D02*
X-1371600D01*
G01X-900000D02*
Y1707660D01*
G01Y1838100D02*
Y1895270D01*
G01X-1300000Y1838100D02*
Y1901350D01*
G01X-1538100Y1600000D02*
X-1592340D01*
G01X-500000Y-3461900D02*
Y-3407660D01*
G01X-200000Y-3461900D02*
Y-3398650D01*
G01Y-3538100D02*
Y-3592340D01*
G01X-500000Y-3538100D02*
Y-3592340D01*
G01Y-1338100D02*
Y-1413000D01*
G01X-200000Y-1338100D02*
Y-1410500D01*
G01Y-1261900D02*
Y-1207660D01*
G01X-500000Y-1261900D02*
Y-1207660D01*
G01Y-361900D02*
Y-298650D01*
G01X-200000Y-361900D02*
Y-298650D01*
G01X-500000Y-438100D02*
Y-501590D01*
G01X-200000Y-438100D02*
Y-492340D01*
G01X-500000Y1761900D02*
Y1693120D01*
G01X-200000Y1761900D02*
Y1693120D01*
G01Y1838100D02*
Y1901350D01*
G01X-500000Y1838100D02*
Y1892340D01*
G01X200000Y-3461900D02*
Y-3398650D01*
G01X500000Y-3461900D02*
Y-3399980D01*
G01X661900Y-3300000D02*
X607660D01*
G01X500000Y-3538100D02*
X462070D01*
Y-3522980D01*
X353560D01*
G01X200000Y-3538100D02*
Y-3592340D01*
G01X0Y-3538100D02*
Y-3592340D01*
G01X661900Y-3000000D02*
X607660D01*
G01X661900Y-2600000D02*
X607660D01*
G01X738100Y-2300000D02*
X778340D01*
Y-2402000D01*
X621660D01*
Y-2496500D01*
G01X661900Y-2300000D02*
X607660D01*
G01X661900Y-1900000D02*
X607660D01*
G01X200000Y-1338100D02*
Y-1405280D01*
G01X661900Y-1500000D02*
X595500D01*
G01X500000Y-1338100D02*
Y-1393060D01*
G01Y-1261900D02*
Y-1207660D01*
G01X200000Y-1261900D02*
Y-1207660D01*
G01Y-361900D02*
Y-307660D01*
G01X500000Y-361900D02*
Y-321660D01*
X569000D01*
G01X661900Y-200000D02*
X600810D01*
G01X500000Y-438100D02*
Y-492340D01*
G01X200000Y-438100D02*
Y-492340D01*
G01X0Y-438100D02*
Y-492340D01*
G01X661900Y100000D02*
X607660D01*
G01X661900Y500000D02*
X607660D01*
G01X661900Y800000D02*
X606000D01*
G01X661900Y1200000D02*
X607660D01*
G01X200000Y1761900D02*
Y1693120D01*
G01X661900Y1600000D02*
X607660D01*
G01X500000Y1761900D02*
Y1707660D01*
G01Y1838100D02*
Y1901350D01*
G01X200000Y1838100D02*
Y1901350D01*
G01X738100Y-3300000D02*
X801350D01*
G01X738100Y-2600000D02*
X792340D01*
G01X738100Y-3000000D02*
X792340D01*
G01X738100Y-1900000D02*
X801350D01*
G01X900000Y-1100940D02*
Y-1010150D01*
X792340D01*
G01X738100Y-1500000D02*
X801350D01*
G01X738100Y-200000D02*
X792340D01*
G01X738100Y500000D02*
X801350D01*
G01X738100Y100000D02*
X801350D01*
G01X738100Y800000D02*
X801350D01*
G01X738100Y1200000D02*
X801350D01*
G01X738100Y1600000D02*
X792340D01*
G01X1900000Y3499060D02*
Y3576160D01*
G01Y3101600D02*
Y3187710D01*
G54D17*
X-3999060Y3700000D03*
X-3299060D03*
X-3098400D03*
X-3798400D03*
X-2599060D03*
X-2398400D03*
X-1650940Y-900000D03*
X-1851600D03*
X-1899060Y3700000D03*
X-1698400D03*
X-1099060D03*
X-898400D03*
X-399060D03*
X-198400D03*
X300940D03*
X501600D03*
X1000940D03*
X1201600D03*
G54D27*
G01X-1029940Y-3462590D02*
Y-3831470D01*
X-4036940D01*
Y-3709980D01*
X-4199640D01*
Y-3189560D01*
X-4061160D01*
Y-2720690D01*
X-4199640D01*
Y-2415550D01*
X-4124160D01*
Y-2096500D01*
X-4086000D01*
Y-2050000D01*
G01X-1147000Y-3477290D02*
Y-3771470D01*
X-3913940D01*
Y-3679980D01*
X-4113440D01*
Y-3367690D01*
X-4031160D01*
Y-2505550D01*
X-4055500D01*
Y-2257000D01*
X-3992500D01*
Y-2203500D01*
G01X-3954660Y-3337700D02*
Y-3291200D01*
X-3998220D01*
Y-2646000D01*
X-3808280D01*
Y-2603500D01*
G01X-3807500Y-2791720D02*
X-3854000D01*
Y-2761780D01*
X-3968220D01*
Y-3216650D01*
X-3861660D01*
Y-3386990D01*
X-3886560D01*
Y-3603480D01*
X-3907000D01*
G01X-3960440Y-3757660D02*
Y-3801470D01*
X-1076440D01*
Y-3591750D01*
G01X-4009500Y-1804500D02*
X-4368840D01*
Y-3757660D01*
X-4206770D01*
G01X-4056000Y-1851000D02*
X-4102500D01*
Y-1849560D01*
X-4338840D01*
Y-3711160D01*
X-4251480D01*
G01X-3903500Y-2808280D02*
Y-2854780D01*
X-3938220D01*
Y-3186650D01*
X-3831660D01*
Y-3416990D01*
X-3842930D01*
Y-3741470D01*
X-1626900D01*
Y-3475040D01*
G01X-4113440Y-3804160D02*
Y-3861470D01*
X760370D01*
Y-3450880D01*
X2071200D01*
Y-2457340D01*
X2423650D01*
Y-1780D01*
X2470150D01*
G01X-4107660Y-2767190D02*
Y-2919560D01*
X-4200360D01*
Y-3069940D01*
X-4292320D01*
G01X-2308280Y492500D02*
X-2393500D01*
Y-861160D01*
X-3628560D01*
Y-904210D01*
X-3785990D01*
Y-1414500D01*
X-3923500D01*
Y-2089990D01*
X-3940000D01*
Y-2591720D01*
X-3894660D01*
G01X-3186500Y-781840D02*
X-3233000D01*
Y-738130D01*
X-3815990D01*
Y-1384500D01*
X-3953500D01*
Y-1967000D01*
X-4039500D01*
Y-2157000D01*
X-4055500D01*
Y-2203500D01*
G01X-4066500Y-1561500D02*
Y-1054660D01*
G01X-3903060Y-205650D02*
Y-1119340D01*
G01X-2861790Y769500D02*
X-2908290D01*
Y736500D01*
X-4307160D01*
Y580440D01*
X-3949560D01*
Y-954160D01*
G01X-4206000Y-1084660D02*
Y-1308000D01*
G01X-4098650Y-279340D02*
X-4199640D01*
Y409000D01*
X-4092660D01*
G01X-4011830Y1050000D02*
X-4338840D01*
Y-582340D01*
X-3997040D01*
G01X-4001840Y-675340D02*
X-4368840D01*
Y1138220D01*
X-3742990D01*
Y1092500D01*
X-3696490D01*
G01X-2815280Y646500D02*
Y706500D01*
X-4260660D01*
Y656940D01*
G01X-4009180Y950000D02*
X-4055680D01*
Y953000D01*
X-4200660D01*
G01X-3803500Y1207500D02*
Y1356500D01*
X-4338840D01*
X-4392490Y1410150D01*
Y3834810D01*
X-4377490Y3849810D01*
X2268550D01*
G01X-4260150Y1666940D02*
Y1675830D01*
X-4226560Y1709420D01*
Y1780540D01*
X-3870960Y2136140D01*
Y2522220D01*
X-3920040Y2571300D01*
X-4153720D01*
X-4284980Y2702560D01*
Y3543300D01*
X-4256780Y3571500D01*
X-2572710D01*
X-2508460Y3635750D01*
Y3700000D01*
X-2398400D01*
G01X-4245840Y1499000D02*
X-3845220D01*
Y1800660D01*
G01X-3008280Y893000D02*
Y939500D01*
X-3027390D01*
X-3046500Y958610D01*
Y1906500D01*
X-3009900Y1943100D01*
Y2784060D01*
X-3045240Y2819400D01*
X-3165810D01*
X-3241300Y2743910D01*
Y2631520D01*
X-3271520Y2601300D01*
X-4000500D01*
X-4005580Y2606380D01*
Y2822180D01*
X-4020580Y2837180D01*
X-4125640D01*
X-4230700Y2942240D01*
Y3511500D01*
X-1808460D01*
Y3700000D01*
X-1698400D01*
G01X-3678000Y3300000D02*
Y3405000D01*
X-4007000D01*
Y2935200D01*
X-2361500D01*
G01X-3999060Y3700000D02*
X-4184950D01*
G01X-702230Y-3358330D02*
X-1940360D01*
Y-3698840D01*
X-3338830D01*
Y-3694970D01*
X-3385330D01*
G01X-3346500Y-3384720D02*
X-3650000D01*
Y-3139000D01*
X-3691720D01*
Y-3092500D01*
G01X-3796430Y-3694970D02*
X-3806440D01*
Y-3458830D01*
X-3801660D01*
Y-3156650D01*
X-3845220D01*
Y-2845220D01*
X-3661780D01*
Y-2750000D01*
X-3691720D01*
Y-2703500D01*
G01X-2746500Y-1491000D02*
Y-2423500D01*
X-2531780D01*
Y-3270000D01*
X-2619560D01*
Y-3638840D01*
X-3266990D01*
Y-3593670D01*
X-3618610D01*
G01X-3797610Y-3008280D02*
X-3745220D01*
Y-3338220D01*
X-3693660D01*
Y-3488830D01*
X-3776440D01*
Y-3648470D01*
X-3689930D01*
Y-3686670D01*
X-3461830D01*
Y-3648470D01*
X-3296990D01*
Y-3668840D01*
X-2559560D01*
Y-3500360D01*
X-2449560D01*
Y-2858510D01*
X-2177500D01*
Y-2838720D01*
X-2131000D01*
G01X-3056560Y-3592340D02*
X-3149560D01*
Y-3253480D01*
X-3557000D01*
Y-3015220D01*
X-3691720D01*
Y-2907500D01*
G01X-3496490Y-3003500D02*
Y-3153500D01*
X-3103060D01*
Y-3395840D01*
G01X-2920060Y-1135650D02*
X-2953500D01*
Y-2202000D01*
X-3029560D01*
Y-2423950D01*
X-3089550D01*
Y-3000000D01*
X-3200000D01*
G01X-3043060Y-1398000D02*
Y-1444500D01*
X-3059560D01*
Y-2393950D01*
X-3119550D01*
Y-2953500D01*
X-3292500D01*
Y-3093000D01*
G01X-3708280Y-2796500D02*
X-3738220D01*
Y-2653500D01*
X-3346500D01*
Y-2487440D01*
G01X-3073060Y-1168650D02*
Y-1215150D01*
X-3089560D01*
Y-2363950D01*
X-3209990D01*
Y-2410940D01*
X-3796500D01*
Y-2491720D01*
G01X-3393000Y-2207000D02*
X-3376500Y-2190500D01*
Y-1868300D01*
X-3326920Y-1818720D01*
Y-1480520D01*
X-3393000Y-1414440D01*
Y-1375900D01*
X-3314700Y-1297600D01*
Y-1059410D01*
X-3263000Y-1007710D01*
G01X-3798870Y-2108280D02*
X-3847000D01*
Y-1491000D01*
G01X-3598990Y-2101000D02*
X-3645500D01*
Y-1491000D01*
G01X-2296490Y896500D02*
Y850000D01*
X-2338230D01*
Y539000D01*
X-2261780D01*
Y441130D01*
X-2359560D01*
Y-891160D01*
X-3536050D01*
Y-964210D01*
X-3755990D01*
Y-1444500D01*
X-3893500D01*
Y-2205890D01*
G01X-3549560Y-1040710D02*
Y-1916210D01*
X-3512270Y-1953500D01*
X-3488470D01*
X-3461240Y-1980730D01*
Y-2019270D01*
X-3488470Y-2046500D01*
X-3514330D01*
X-3549560Y-2081730D01*
Y-2117340D01*
X-3579720Y-2147500D01*
X-3632220D01*
X-3691720Y-2207000D01*
G01X-3891720Y-2307500D02*
Y-2354000D01*
X-3269990D01*
Y-2333950D01*
X-3119560D01*
Y-1009660D01*
G01X-3791720Y-2300000D02*
Y-2253500D01*
X-3750000D01*
Y-1751000D01*
X-3707500D01*
Y-1444500D01*
G01X-3691720Y-2307500D02*
X-3637720Y-2253500D01*
X-3575730D01*
X-3548500Y-2226270D01*
Y-2196140D01*
X-3499860Y-2147500D01*
X-3483790D01*
X-3431240Y-2094950D01*
Y-1903000D01*
X-3453500Y-1880730D01*
X-3487420Y-1846810D01*
Y-1257260D01*
X-3439500Y-1209340D01*
G01X-3346500Y-1395170D02*
X-3296920Y-1444750D01*
Y-1831150D01*
X-3346500Y-1880730D01*
Y-2256720D01*
G01X-3796500Y-1806390D02*
Y-1537500D01*
X-3754000D01*
Y-1491000D01*
G01X-3250440Y-2270480D02*
Y-1104640D01*
X-3212560Y-1066760D01*
Y-1034940D01*
X-3196060Y-1018440D01*
Y-950730D01*
X-3178490Y-933160D01*
X-2841960D01*
X-2837000Y-938120D01*
Y-943080D01*
G01X-3166060Y-1054210D02*
Y-1122150D01*
X-3149560D01*
Y-2215500D01*
X-3166060D01*
Y-2262000D01*
G01X-2801000Y-1169410D02*
Y-1046410D01*
X-2893990D01*
Y-963160D01*
X-3166060D01*
Y-1054210D01*
G01X-3200000Y100000D02*
X-3253500D01*
Y-340360D01*
X-3309500D01*
Y-538840D01*
X-3014500D01*
Y-492340D01*
G01X-3300010Y-1000D02*
Y-47500D01*
X-3346500D01*
Y-291180D01*
G01X-3263000Y-492340D02*
Y-400360D01*
X-3084000D01*
Y567010D01*
X-3008280D01*
G01X-2908280Y630000D02*
X-3114000D01*
Y-191050D01*
X-3154000D01*
Y-237550D01*
G01X-3061000Y-798250D02*
Y-678130D01*
X-3749990D01*
Y553500D01*
X-3791740D01*
Y600000D01*
G01X-3396490Y-1000D02*
X-3453000D01*
Y-222150D01*
X-3493510D01*
Y-618090D01*
X-2783560D01*
Y-781850D01*
X-2603060D01*
Y-171160D01*
X-2453500D01*
Y383510D01*
X-2546500D01*
Y1339500D01*
X-2256430D01*
Y1402500D01*
X-1539360D01*
G01X-3592500Y-97610D02*
Y-162500D01*
X-3523510D01*
Y-400360D01*
X-3666940D01*
Y-439340D01*
G01X-3646000Y-209000D02*
Y-162500D01*
X-3646500D01*
Y553500D01*
X-3160500D01*
G01X-3353500Y630000D02*
X-3400000D01*
Y646500D01*
X-3838240D01*
Y-45220D01*
X-3796490D01*
Y-91720D01*
G01X-2872000Y539000D02*
Y585500D01*
X-2861780D01*
Y676500D01*
X-3892500D01*
Y-91720D01*
G01X-3396500Y107500D02*
X-3353500D01*
Y499000D01*
X-3207000D01*
G01X-3892500Y800000D02*
Y846500D01*
X-3253500D01*
Y2318500D01*
G01X-3307000Y893000D02*
Y950010D01*
X-3796500D01*
Y1091720D01*
G01X-3116000Y2700000D02*
Y783000D01*
X-3307000D01*
G01X-3453500Y1968840D02*
Y2015340D01*
X-3468700D01*
Y2505430D01*
G01X-3878000Y2700000D02*
Y2888700D01*
X-1259650D01*
G01X-3370000Y2700000D02*
Y2858700D01*
X-1552150D01*
Y2838240D01*
X-1505650D01*
G01X-3299060Y3700000D02*
X-3484950D01*
G01X1470000Y-325640D02*
X1568700D01*
Y2738700D01*
X1530000D01*
Y3819810D01*
X-3617800D01*
Y3700000D01*
X-3798400D01*
G01X-1412650Y3421500D02*
X-1459150D01*
Y3405000D01*
X-3424000D01*
Y3300000D01*
G01X-3551000D02*
Y3451500D01*
X-1568650D01*
G01X-2700000Y-3461900D02*
Y-3352150D01*
X-2903500D01*
Y-3153500D01*
X-3007500D01*
Y-3101000D01*
G01X-2460760Y-995650D02*
X-2726000D01*
Y-1444500D01*
X-2670000D01*
Y-1733500D01*
X-2561780D01*
Y-1953500D01*
X-2651500D01*
Y-2363500D01*
X-2501780D01*
Y-3346500D01*
X-2563530D01*
G01X-2591720Y-2802000D02*
Y-2848500D01*
X-2561780D01*
Y-3191720D01*
X-2708280D01*
G01X-2448750Y-3638840D02*
X-2000360D01*
Y-3146000D01*
X-708280D01*
Y-3107500D01*
G01X-2907000Y-1491000D02*
Y-2483950D01*
X-2996500D01*
Y-2653500D01*
X-2953500D01*
Y-3054500D01*
X-3054000D01*
Y-3262960D01*
X-2996500D01*
Y-3395840D01*
G01X-2853500Y-2317000D02*
Y-3300000D01*
X-2700000D01*
G01X-2807000Y-3091720D02*
X-2760500D01*
Y-2603500D01*
X-2803500D01*
Y-2167500D01*
X-2847500D01*
Y-1122910D01*
G01X-2207500Y-2608280D02*
X-2384780D01*
Y-1381000D01*
X-2378450D01*
Y-948160D01*
X-2649560D01*
G01X-3003500Y-2992500D02*
X-3046500D01*
Y-2453950D01*
X-2983060D01*
Y-2308500D01*
G01X-2565530Y-1444500D02*
X-2461780D01*
Y-2061780D01*
X-2538250D01*
Y-2243500D01*
X-2438990D01*
Y-2701780D01*
X-2054500D01*
Y-2842010D01*
X-1907660D01*
Y-2937000D01*
G01X-2403060Y-3108280D02*
X-2326200D01*
Y-3311830D01*
G01X-2424950Y-1135150D02*
Y-2108280D01*
X-2491750D01*
G01X-2633000Y-1239340D02*
Y-1583500D01*
X-2508280D01*
Y-2008280D01*
G01X-2679500Y-1395170D02*
Y-1084660D01*
X-2556560D01*
G01X-3008280Y-1000D02*
Y-47500D01*
X-3046500D01*
Y-399640D01*
X-2700000D01*
Y-361900D01*
G01X-2649560Y-735350D02*
Y-231160D01*
X-2853500D01*
Y-1000D01*
X-2907500D01*
G01X-2556560Y-790080D02*
X-2423500D01*
Y449500D01*
X-2453500D01*
Y791720D01*
X-2403500D01*
G01X-2354000Y2700000D02*
Y2828700D01*
X-2960700D01*
Y1246500D01*
X-2753500D01*
Y-54780D01*
X-2500000D01*
Y0D01*
G01X-2607500Y-8280D02*
Y38220D01*
X-2646500D01*
Y2424840D01*
G01X-2391720Y1196500D02*
Y1238220D01*
X-2256990D01*
Y1143000D01*
X-1739840D01*
Y-445840D01*
X-1499340D01*
Y-511170D01*
G01X-2808280Y1293000D02*
Y2564340D01*
X-2914200D01*
G01X-2396490Y896500D02*
Y943140D01*
X-2155280D01*
Y281500D01*
X-2000360D01*
Y-1587000D01*
X-2191000D01*
Y-1954000D01*
G01X-3066650Y2584800D02*
Y2538300D01*
X-3076500D01*
Y846500D01*
X-2908280D01*
G01X-1203060Y1789140D02*
Y2090260D01*
X-1871480D01*
Y2106760D01*
X-2306870D01*
Y2090260D01*
X-2600000D01*
Y1392500D01*
G01X-2403500Y1091720D02*
Y1138220D01*
X-2438220D01*
Y1309500D01*
X-1709840D01*
Y-385840D01*
X-1452840D01*
Y-1042150D01*
X-1711540D01*
Y-2067490D01*
X-1500360D01*
Y-2463490D01*
X-1352400D01*
Y-2792490D01*
X-1101740D01*
G01X-1507450Y2138340D02*
X-2383370D01*
G01X-500000Y875260D02*
X-423500D01*
Y1321720D01*
X-231780D01*
Y1469000D01*
X-990000D01*
Y1479000D01*
X-2299930D01*
Y1937260D01*
X-2419560D01*
Y1639000D01*
X-2499200D01*
G01X-2735970D02*
Y2798700D01*
X-2479300D01*
Y2573720D01*
X-961600D01*
G01X-1302110Y1967260D02*
X-2526350D01*
G01X1201600Y3700000D02*
X1091540D01*
Y3498000D01*
X-1137000D01*
Y2935210D01*
X-887300D01*
Y2272000D01*
X-2553500D01*
G01X-2600000Y2365000D02*
Y2225500D01*
X-2369860D01*
Y2231340D01*
X-849560D01*
Y1529000D01*
X338220D01*
Y1107500D01*
X298250D01*
G01X-2576750Y2471340D02*
X-1598650D01*
G01X-1033330Y2517840D02*
X-2608000D01*
Y2700000D01*
G01X-2689470Y2601300D02*
Y2554800D01*
X-2646500D01*
Y2424840D01*
G01D02*
X-1552150D01*
G01X-3098400Y3700000D02*
X-2947800D01*
Y3789810D01*
X1470000D01*
Y1830000D01*
G01X501600Y3700000D02*
X391540D01*
Y3528000D01*
X-1262660D01*
Y3028220D01*
X-2735970D01*
G01X-1200830Y2816940D02*
Y2981720D01*
X-2789000D01*
Y3173000D01*
G01X-3043000Y3300000D02*
Y3375000D01*
X-1336150D01*
G01X-2599060Y3700000D02*
X-2784950D01*
G01X-201750Y-3003500D02*
X-149560D01*
Y-3652340D01*
X-347000D01*
Y-3775340D01*
X-760500D01*
Y-3404830D01*
X-1845310D01*
G01X-1955830Y-2888510D02*
X-2279700D01*
Y-3500670D01*
G01X-750000Y-3311830D02*
Y-3249560D01*
X-1953860D01*
Y-3199750D01*
G01X-1398900Y-2750000D02*
Y-2796050D01*
X-1652090D01*
Y-2456560D01*
X-1801160D01*
Y-2396570D01*
X-1831160D01*
Y-2097480D01*
X-1761000D01*
Y-567190D01*
X-1923560D01*
Y-362840D01*
X-1816340D01*
Y789500D01*
X-1859160D01*
Y1096500D01*
X-2101130D01*
G01X-2308280Y394630D02*
Y-1621000D01*
X-2354780D01*
Y-2500000D01*
X-2208280D01*
G01X-1741530Y-2935010D02*
X-1831160D01*
Y-2782010D01*
X-1907660D01*
Y-2663000D01*
G01X-2157270Y-2546500D02*
Y-2500000D01*
X-2144500D01*
Y-1647000D01*
X-1924060D01*
G01X-1691360Y-2996800D02*
Y-2888510D01*
X-1801160D01*
Y-2752010D01*
X-1852150D01*
Y-2553500D01*
X-1861160D01*
Y-2486570D01*
X-1907360D01*
Y-2084000D01*
X-1946600D01*
Y-2037500D01*
G01X-2029340Y-1988020D02*
Y-2034520D01*
X-2000360D01*
Y-2812010D01*
X-1861160D01*
Y-3095640D01*
X-900000D01*
G01X-2145680Y1050000D02*
X-1889160D01*
Y729500D01*
X-1846340D01*
Y-302840D01*
X-1953560D01*
Y-687190D01*
X-1791000D01*
Y-2037500D01*
X-1861160D01*
Y-2456570D01*
X-1831160D01*
Y-2521000D01*
X-1698590D01*
Y-2723000D01*
G01X-1745090Y-2567500D02*
X-1801160D01*
Y-2722010D01*
X-1771160D01*
Y-2839500D01*
X-1335650D01*
Y-3002000D01*
G01X-1770560Y-2144000D02*
Y-2190500D01*
X-1801160D01*
Y-2347000D01*
X-1591530D01*
Y-2520990D01*
X-1407660D01*
Y-2650000D01*
G01X-1571660Y-2015280D02*
X-1638840D01*
Y-1300360D01*
X-1236840D01*
Y-625160D01*
X-703500D01*
Y-527760D01*
G01X-2191000Y-2246500D02*
X-2250440D01*
Y-141150D01*
X-2231780D01*
Y603500D01*
X-2291730D01*
G01X-1892840Y-1991000D02*
X-1847640D01*
Y-1088650D01*
X-1892210D01*
Y-1042150D01*
G01X-1851600Y-900000D02*
X-1912200D01*
G01D02*
Y-793690D01*
G01X-1951910Y-1185910D02*
Y-900000D01*
X-1912200D01*
G01X-1647320Y-1185910D02*
Y-1253860D01*
X-1499270D01*
G01X-2072890Y-1042150D02*
X-2119560D01*
Y-21160D01*
X-2145280D01*
Y158500D01*
X-2107000D01*
Y205000D01*
G01X-2201780Y896570D02*
Y-141160D01*
X-2149560D01*
Y-1407000D01*
X-2061930D01*
G01X-1622370Y-1088650D02*
X-1266840D01*
Y-574250D01*
X-750000D01*
Y-369340D01*
X-648250D01*
G01X-1592370Y-54780D02*
Y-101280D01*
X-1638840D01*
Y-250440D01*
X-857000D01*
Y-153500D01*
X-107500D01*
Y-107990D01*
G01X-1663330Y593000D02*
Y546500D01*
X-1668900D01*
Y-355840D01*
X-1422840D01*
Y-995650D01*
X-1313340D01*
Y-949150D01*
G01X-1877060Y-439340D02*
X-1786340D01*
Y893000D01*
G01X-2145910Y1356000D02*
X-1663340D01*
Y656000D01*
G01X-2307500Y1191720D02*
Y1038610D01*
X-2227000D01*
Y1003280D01*
X-2125280D01*
Y681060D01*
X-2000360D01*
Y441130D01*
X-1975780D01*
Y394630D01*
G01X-1454420Y1103500D02*
X-1611840D01*
G01X-1616830Y893000D02*
Y1038220D01*
X-1361160D01*
Y1263000D01*
X-1407660D01*
G01X-2044000Y1769500D02*
X-1598660D01*
G01X-1507610Y1782660D02*
Y1650440D01*
X-2244550D01*
G01X-1552160Y1895270D02*
X-2107000D01*
Y1797760D01*
G01X191720Y1003500D02*
Y1050000D01*
X146500D01*
Y1499000D01*
X-960000D01*
Y1539000D01*
X-2153500D01*
G01X-1907660Y1723000D02*
X-1554110D01*
G01X-1103500Y1724170D02*
X-1249560D01*
Y2060260D01*
X-2244400D01*
G01X-2346430Y1890760D02*
Y1449000D01*
X-1160500D01*
Y1096500D01*
X-1105150D01*
G01X-1351800Y2013760D02*
X-2349370D01*
G01X-1056990Y1776000D02*
Y2184840D01*
X-2228420D01*
G01X-1052520Y1645610D02*
X-1387500D01*
X-1388390Y1646500D01*
X-1415970D01*
X-1461110Y1691640D01*
Y1801930D01*
X-1488340Y1829160D01*
X-1550070D01*
X-1565170Y1844260D01*
X-2045900D01*
G01X-1107000Y2743220D02*
X-1984800D01*
G01X-1369740Y2420190D02*
Y2365000D01*
X-1984800D01*
G01X-1861160Y2789720D02*
X-1459150D01*
Y2830960D01*
X-1412650D01*
G01X-2105420Y2318500D02*
X-1645160D01*
G01X-1247330Y2620220D02*
X-1984800D01*
G01X-1459150Y3074720D02*
X-2281000D01*
Y3173000D01*
G01X-1899060Y3700000D02*
X-2054950D01*
G01X-1101570Y-2598720D02*
X-1241240D01*
Y-1961780D01*
X-1148240D01*
Y-941170D01*
G01X-991720Y-2692500D02*
Y-2653500D01*
X-601000D01*
Y-2522220D01*
G01X-1101570Y-2692500D02*
X-1292400D01*
Y-2297000D01*
X-1347750D01*
Y-1755220D01*
X-1207500D01*
Y-1608280D01*
G01X-991720Y-2792500D02*
Y-2753500D01*
X-553500D01*
Y-2524240D01*
X-475460Y-2446200D01*
Y-2248170D01*
X-551240Y-2172390D01*
Y-1260040D01*
X-557120Y-1254160D01*
X-563000D01*
Y-1207660D01*
G01X-1192500Y-2008280D02*
Y-2054780D01*
X-1148240D01*
Y-2552220D01*
X-1054900D01*
Y-2901000D01*
X-1238220D01*
Y-3054000D01*
X-957000D01*
Y-3049140D01*
X-646990D01*
Y-3053500D01*
X-407000D01*
Y-3728840D01*
X-558720D01*
G01X-594000Y-655160D02*
X-1206840D01*
Y-1561780D01*
X-1377750D01*
Y-2403500D01*
G01X-607500Y-1597000D02*
X-631000D01*
X-654500Y-1620500D01*
Y-2071280D01*
X-646500Y-2079290D01*
Y-2122100D01*
X-505460Y-2263140D01*
Y-2374900D01*
X-525350Y-2394790D01*
X-720570D01*
X-725000Y-2399220D01*
X-949210D01*
X-956990Y-2407000D01*
X-1003490D01*
G01X-703500Y-1252840D02*
Y-1299340D01*
X-731000Y-1326840D01*
Y-1673500D01*
X-723500Y-1681000D01*
Y-2084270D01*
X-780730Y-2141500D01*
X-802270D01*
X-846500Y-2185730D01*
Y-2216270D01*
X-888730Y-2258500D01*
X-910990D01*
X-958480Y-2305990D01*
Y-2315770D01*
X-985710Y-2343000D01*
X-1005260D01*
X-1051470Y-2389210D01*
Y-2439100D01*
X-1091720Y-2479350D01*
Y-2505720D01*
G01X-992500Y-2591720D02*
X-853500D01*
Y-2445720D01*
X-603500D01*
G01X-149560Y-898660D02*
Y-2293000D01*
X-253500D01*
Y-2615220D01*
X-407000D01*
Y-2853500D01*
X-745220D01*
Y-2961000D01*
X-1191720D01*
Y-2992500D01*
G01X-1003500Y-2192490D02*
X-957000D01*
Y-2015220D01*
X-973160D01*
Y-1520500D01*
X-833060D01*
Y-1299340D01*
G01X-1004980Y-2296500D02*
Y-2250000D01*
X-1050000D01*
Y-1377000D01*
X-956990D01*
Y-1054660D01*
X-859500D01*
G01X-896660Y-1807500D02*
X-850160D01*
Y-1853500D01*
X-753500D01*
Y-1961000D01*
X-799000D01*
Y-2007500D01*
G01X-1097980Y-1907500D02*
Y-1347000D01*
X-1003490D01*
Y-995650D01*
G01X-1003500Y-2091720D02*
Y-1453500D01*
G01X-908280Y-1597000D02*
Y-1643500D01*
X-943160D01*
Y-1961780D01*
X-848500D01*
Y-2108280D01*
X-907500D01*
G01X-1376340Y-307660D02*
Y-949150D01*
G01X-200000Y100000D02*
Y150440D01*
X-1499640D01*
Y-100000D01*
X-1452840D01*
G01X-903500Y-192500D02*
X-1305650D01*
G01X-1358660Y52500D02*
X-1312160D01*
Y45500D01*
X-591720D01*
G01X-1336370Y-50500D02*
X-261000D01*
Y-24000D01*
X-8280D01*
Y-7500D01*
G01X292500Y896500D02*
Y846000D01*
X46500D01*
Y753010D01*
X-463500D01*
Y446500D01*
X-807000D01*
Y376500D01*
X-1545840D01*
G01X291720Y1192500D02*
X239500D01*
Y946500D01*
X-70000D01*
Y783010D01*
X-493500D01*
Y546500D01*
X-897000D01*
Y422000D01*
X-1469340D01*
Y423000D01*
X-1606400D01*
G01X-1313500Y618150D02*
Y593300D01*
X-1600330D01*
G01X-991720Y607500D02*
X-945220D01*
Y646500D01*
X-553500D01*
Y1391720D01*
X-308280D01*
G01X-1003500Y508280D02*
Y554780D01*
X-1038220D01*
Y753500D01*
X-691000D01*
G01X-207000Y661950D02*
X-357750D01*
Y251500D01*
X-1607370D01*
G01X-1203500Y991720D02*
X-1283500D01*
Y686300D01*
X-1505660D01*
Y647900D01*
X-1552160D01*
G01X-407000Y661010D02*
Y346500D01*
X-1262500D01*
Y319500D01*
X-1309000D01*
G01X-1100010Y903500D02*
X-1157000D01*
Y1038220D01*
X-1301160D01*
Y1356000D01*
X-1434940D01*
G01X-653500Y853500D02*
X-897000D01*
Y892500D01*
X-991720D01*
G01X-1003500Y807510D02*
X-1038220D01*
Y946500D01*
X-653500D01*
Y1391720D01*
X-607000D01*
G01X-1103510Y996500D02*
X-1050000D01*
Y1291720D01*
X-707000D01*
G01X-1003500Y1599110D02*
Y2184840D01*
G01X-1099060Y3700000D02*
X-1284950D01*
G01X-1137000Y3584440D02*
X-1008460D01*
Y3700000D01*
X-898400D01*
G01X-778000Y3300000D02*
Y3405000D01*
X-1107000D01*
Y2965210D01*
X416000D01*
Y2341750D01*
G01X-256530Y-3775340D02*
X-119560D01*
Y-3221650D01*
X-55800D01*
Y-2992500D01*
G01X-585720Y-3562340D02*
Y-3515840D01*
X-553500D01*
Y-3100000D01*
X-500000D01*
G01X-600250Y-3101000D02*
X-650990D01*
Y-3715900D01*
G01X-278280Y-3592340D02*
Y-3545840D01*
X-253500D01*
Y-2853500D01*
X-153500D01*
Y-2501000D01*
G01X-207000Y-2348290D02*
Y-2645220D01*
X-359400D01*
Y-3546120D01*
X-356560D01*
Y-3592620D01*
G01X-453500Y-2585220D02*
X-372860D01*
X-292220Y-2504580D01*
Y-2369220D01*
X-376500Y-2284940D01*
Y-1733500D01*
X-346500Y-1703500D01*
Y-1494000D01*
X-330000Y-1477500D01*
Y-1431000D01*
G01X-55800Y-2992500D02*
X-103060D01*
G01X-406500Y-952160D02*
Y-1553500D01*
X-436500Y-1583500D01*
Y-2446220D01*
X-407000Y-2475720D01*
Y-2520010D01*
G01X-338720Y-2445720D02*
X-406500Y-2377940D01*
Y-1673500D01*
X-376500Y-1643500D01*
Y-1115440D01*
X-266720Y-1005660D01*
X-237000D01*
G01X-55800Y-2992500D02*
X-55030D01*
Y-2984990D01*
X-53500D01*
Y-1793500D01*
X-103060D01*
Y-1068650D01*
G01X-253500Y-2220480D02*
Y-1345830D01*
X-300790D01*
Y-1082160D01*
X-190500D01*
Y-959160D01*
X-330000D01*
Y-898660D01*
G01X-504740Y-1808280D02*
Y-1493500D01*
X-449560D01*
Y-1014090D01*
X-453000D01*
Y-852160D01*
X40560D01*
Y-596590D01*
X110440D01*
Y114000D01*
X191720D01*
Y596500D01*
G01X-684500Y-1491000D02*
X-690880Y-1497380D01*
Y-2120150D01*
X-607060Y-2203970D01*
Y-2321850D01*
X-633500Y-2348290D01*
G01X-300000Y-2276500D02*
X-346500Y-2230000D01*
Y-1840000D01*
X-300000Y-1793500D01*
Y-1597000D01*
G01X-800000Y-1791720D02*
Y-1745220D01*
X-786560D01*
Y-784830D01*
X-119560D01*
Y-566590D01*
X-90500D01*
Y-520090D01*
G01X-54390Y-738340D02*
Y-822160D01*
X-627000D01*
Y-978160D01*
G01X293000Y-3500D02*
X140440D01*
Y-648340D01*
X70560D01*
Y-975160D01*
X-103060D01*
G01X-192500Y-96500D02*
Y-61490D01*
X-31620D01*
Y-324160D01*
X-50440D01*
Y-400360D01*
X50440D01*
Y-566590D01*
X-54390D01*
Y-738340D01*
G01X-201530Y-642340D02*
X-514270D01*
G01X-796500Y-249000D02*
X-360000D01*
G01X-84310Y-261160D02*
X-149560D01*
Y-738330D01*
X-800000D01*
G01X0Y-361900D02*
Y-324160D01*
X38220D01*
Y39000D01*
X-61780D01*
Y6510D01*
X-307890D01*
G01X-108280Y92500D02*
Y53010D01*
X-561720D01*
Y45500D01*
X-591720D01*
G01D02*
Y-1000D01*
G01X-653500Y593000D02*
X-523500D01*
Y828760D01*
X-363500D01*
Y1291720D01*
X-108280D01*
G01X-196770Y598950D02*
X-70000D01*
Y676500D01*
X245220D01*
Y696500D01*
X291720D01*
G01X-100000Y291720D02*
X-48280D01*
Y138220D01*
X-7000D01*
Y91720D01*
G01X296500Y-493060D02*
Y-65160D01*
X339500D01*
Y234000D01*
X238220D01*
Y646500D01*
X46500D01*
Y453500D01*
X-311250D01*
Y569000D01*
G01X-146500Y874880D02*
Y1146500D01*
X-53500D01*
Y1291720D01*
X5720D01*
G01X192500Y791720D02*
Y706510D01*
X-146500D01*
G01X945380Y2078340D02*
X898880D01*
Y2091840D01*
X-553500D01*
G01X-224000Y2700000D02*
Y2124840D01*
X991880D01*
Y1945200D01*
G01X-732000Y2700000D02*
X-603300D01*
Y1612620D01*
X481720D01*
Y1530510D01*
X822340D01*
Y1423700D01*
G01X-177500Y2325760D02*
Y2154840D01*
X1063350D01*
Y-931340D01*
X596940D01*
Y-1286560D01*
G01X391720Y1192500D02*
Y1559000D01*
X-789560D01*
Y2469550D01*
G01X945380Y1990720D02*
X61220D01*
Y2061840D01*
X-31780D01*
Y2015350D01*
X-154780D01*
G01X-399060Y3700000D02*
X-554950D01*
G01X-198400D02*
X-308460D01*
Y3584440D01*
X-534440D01*
G01X-651000Y3300000D02*
Y3468000D01*
X1191200D01*
Y1548700D01*
G01X-143000Y3300000D02*
Y3375000D01*
X1144700D01*
Y1562210D01*
X1123350D01*
Y-1687000D01*
X561160D01*
Y-2000000D01*
X577660D01*
Y-2046500D01*
G01X-63000Y-3398650D02*
Y-3592620D01*
G01X193000Y-3292500D02*
X239500D01*
Y-3249560D01*
X877850D01*
Y-3300000D01*
X1006800D01*
G01X203500Y-3108280D02*
Y-3143640D01*
X1014660D01*
G01X292500Y-2791720D02*
Y-2757000D01*
X146500D01*
Y-3200480D01*
X53500D01*
Y-3822500D01*
X730370D01*
Y-3353480D01*
X1020310D01*
Y-3347480D01*
X1633060D01*
Y-3299640D01*
G01X400060Y-3582160D02*
Y-3745340D01*
G01X0Y-3003500D02*
Y-3461900D01*
G01X266940Y-3569470D02*
Y-3745340D01*
G01X146510D02*
Y-3339000D01*
X298250D01*
G01X300000Y-3193000D02*
X609500D01*
G01X193000Y-2696950D02*
X838840D01*
Y-2207000D01*
X754850D01*
G01X203500Y-3008280D02*
Y-2961780D01*
X243000D01*
Y-2803500D01*
X193000D01*
G01X392500Y-2991720D02*
Y-2945220D01*
X438220D01*
Y-2763560D01*
X1036310D01*
Y-2771500D01*
X1082810D01*
G01X618500Y-2873060D02*
X1180510D01*
Y-3197150D01*
X1675000D01*
G01X100000Y-2800000D02*
Y-2650450D01*
X380010D01*
Y-2603950D01*
X561160D01*
Y-2160500D01*
X801350D01*
G01X1911500Y-2918500D02*
Y-2965000D01*
X1948200D01*
Y-3243650D01*
X1150510D01*
Y-2919560D01*
X572000D01*
Y-2819290D01*
G01X-4010Y-2501000D02*
X53500D01*
G01D02*
Y-1703500D01*
X-54390D01*
Y-1021660D01*
X16340D01*
G01X100000Y-2992500D02*
X53500D01*
Y-2501000D01*
G01X200000Y-2392500D02*
X350000D01*
Y-1224160D01*
X403070D01*
Y-155160D01*
X429500D01*
Y206010D01*
X439500D01*
Y1484010D01*
X546500D01*
G01X509000Y-2550000D02*
X449560D01*
Y-1453500D01*
G01X198250Y-2492500D02*
X146500D01*
Y-1300360D01*
X250440D01*
Y-839590D01*
G01X300000Y-2992500D02*
Y-2946000D01*
X339000D01*
Y-2733560D01*
X868840D01*
Y-2114000D01*
X531160D01*
Y-1657000D01*
X1093350D01*
Y2184840D01*
X-31780D01*
Y2517840D01*
G01X607670Y-1733500D02*
X1584160D01*
Y-979500D01*
X1628700D01*
Y1070000D01*
X2230000D01*
G01X500000Y-2206770D02*
Y-1449560D01*
X550440D01*
Y-922650D01*
X449560D01*
Y-215160D01*
X463000D01*
Y32000D01*
X885340D01*
Y996500D01*
X852340D01*
G01X193000Y-2307500D02*
Y-1478280D01*
G01X297730Y-1891720D02*
Y-1089630D01*
X343440D01*
Y-793090D01*
X296500D01*
G01X-7890Y-1131160D02*
X140450D01*
Y-746590D01*
X373000D01*
Y-125160D01*
X399500D01*
Y745230D01*
X291720D01*
Y796500D01*
G01X38610Y-1084660D02*
X110450D01*
Y-708340D01*
X343000D01*
Y-95160D01*
X369500D01*
Y596500D01*
X292500D01*
G01X200000Y-793090D02*
Y-1161160D01*
X91720D01*
Y-1597000D01*
G01X5720Y1884240D02*
Y1947850D01*
X868850D01*
Y1876140D01*
X961840D01*
Y2000D01*
X496310D01*
Y-275160D01*
X615500D01*
Y-642340D01*
X496510D01*
G01X543960Y-839590D02*
X1016850D01*
Y576500D01*
G01X603860Y650000D02*
X792340D01*
Y732500D01*
G01X542810Y-44500D02*
X970350D01*
G01X606030Y1103500D02*
X915340D01*
Y1206000D01*
G01X530820Y950000D02*
X847850D01*
Y699500D01*
X838840D01*
Y653000D01*
G01X606350Y996500D02*
Y1043000D01*
X898840D01*
G01X885340Y1799640D02*
X-53500D01*
G01X292500Y1659120D02*
X745840D01*
Y1673700D01*
X792340D01*
G01X30000Y2700000D02*
Y2278560D01*
X961840D01*
G01X619000Y3173000D02*
Y2981710D01*
X636700D01*
Y2357720D01*
X590200D01*
G01X636700Y2231340D02*
X760660D01*
G01X300940Y3700000D02*
X145050D01*
G01X1318250Y-3745340D02*
Y-3842200D01*
X1918200D01*
Y-3612460D01*
G01X1372700Y-3299640D02*
X1111510D01*
Y-3050440D01*
X1104010D01*
G01X1425000Y-2388500D02*
X1331950D01*
Y-3104150D01*
X1300000D01*
Y-3150650D01*
G01X2055340Y-2016660D02*
Y-2123500D01*
X1180950D01*
Y-2625000D01*
G01X1227450Y-3120990D02*
Y-2575000D01*
G01X801950Y-2067500D02*
X928840D01*
Y-2516000D01*
X1129310D01*
Y-2393000D01*
X1019550D01*
Y-1870000D01*
X1154160D01*
Y-1946500D01*
X1901700D01*
Y-1873060D01*
G01X1082810Y-2439500D02*
X989550D01*
Y-1780060D01*
X1777000D01*
Y-759840D01*
G01X1341300Y-1676970D02*
Y2005200D01*
G01X1169850Y-1687000D02*
X1254160D01*
Y2231340D01*
G01X1294800Y-2309770D02*
X1341300D01*
Y-2297450D01*
X1521500D01*
Y-2493500D01*
X1912600D01*
Y-2825000D01*
G01X1098340Y-2063150D02*
X1931700D01*
Y-1953500D01*
X2131840D01*
Y-2247000D01*
X1628500D01*
Y-2463500D01*
X1994710D01*
Y-2995000D01*
G01X1430000Y-1666750D02*
Y-1330470D01*
X1371300D01*
Y1958700D01*
X1398700D01*
Y3014700D01*
G01X1082810Y-2346500D02*
X1049550D01*
Y-1916500D01*
X1098340D01*
G01X1216350Y-1826560D02*
X2353000D01*
Y3324510D01*
G01X900000Y-1301600D02*
Y-1610500D01*
X754850D01*
G01X1421890Y-434450D02*
X1598700D01*
Y3584440D01*
G01X1000940Y3700000D02*
X845050D01*
G01X2131170Y-3800520D02*
Y-3626200D01*
X2834820D01*
Y-3479200D01*
X2658850D01*
G01X1855200Y-3612460D02*
Y-3795700D01*
G01X2291940Y-2400000D02*
X1951560D01*
X1946200Y-2405360D01*
G01X1901700Y-3089960D02*
X1831500D01*
Y-2523500D01*
X1475000D01*
Y-2343950D01*
G01X1825200Y-1713280D02*
Y193840D01*
X1714100D01*
G01X1675000Y-2293500D02*
X2303440D01*
G01X1876000Y121220D02*
Y-1780060D01*
G01X1900000Y2900940D02*
Y2823840D01*
G01Y3298400D02*
Y3375510D01*
G01X2927000Y-4654000D02*
X3114240Y-4841240D01*
X3429780D01*
X3573780Y-4697240D01*
Y-4602480D01*
X3705860Y-4470400D01*
Y-4319820D01*
X3827720Y-4197960D01*
Y-4197940D01*
X4339110Y-3686550D01*
Y-3136900D01*
X3945410Y-2743200D01*
X3611880D01*
X3429000Y-2926080D01*
X3413760D01*
X3398520Y-2941320D01*
G01X3780440Y-5695400D02*
X3549780D01*
Y-4983940D01*
X2783440D01*
Y-4508000D01*
X2292870D01*
Y-4087480D01*
X2363360D01*
Y-3997480D01*
X2422190D01*
Y-3719200D01*
X2377160D01*
Y-3672700D01*
G01X2301940Y-3300360D02*
Y-2496470D01*
X2893000D01*
Y2641500D01*
G01X2571650Y3543190D02*
Y3166500D01*
X2384650D01*
Y-2056560D01*
X2377150D01*
Y-2103060D01*
G01X2956300Y3746000D02*
X2846500D01*
Y-1700000D01*
X2607660D01*
G01X4200000Y2946000D02*
X4158960Y2987040D01*
X3357720D01*
X2939500Y2568820D01*
Y688350D01*
G01X3054000Y-4400000D02*
X3025700Y-4428300D01*
Y-4639790D01*
X3197150Y-4811240D01*
X3417350D01*
X3543780Y-4684810D01*
Y-4590050D01*
X3675860Y-4457970D01*
Y-4307380D01*
X3805740Y-4177480D01*
X4309110Y-3674110D01*
Y-3154200D01*
X3928110Y-2773200D01*
X3653810D01*
X3469660Y-2957350D01*
Y-2994660D01*
G01X3308000Y-4400000D02*
Y-4390740D01*
X4185920Y-3512820D01*
Y-3202920D01*
X4083000Y-3100000D01*
G01X3181000Y-4654000D02*
X3193590D01*
X3444240Y-4403350D01*
Y-4305840D01*
X4215920Y-3534160D01*
Y-3106680D01*
X3966740Y-2857500D01*
X3755750D01*
X3736340Y-2876910D01*
G01X3695700Y-2936240D02*
X3708530Y-2923410D01*
X3755610D01*
X3756750Y-2922270D01*
X3905270D01*
X4083000Y-3100000D01*
G01X3332480Y-2991580D02*
X3335560Y-2994660D01*
X3469660D01*
G01D02*
Y-3012040D01*
X3557620Y-3100000D01*
X3575000D01*
G54D18*
X-100000Y-5235000D03*
Y-4600000D03*
X408000Y-4917500D03*
G54D28*
G01X-3110500Y-5690670D02*
X-3119830Y-5696500D01*
X-3130330Y-5700000D01*
X-3139670D01*
X-3149000Y-5696500D01*
X-3156000Y-5690670D01*
X-3159500Y-5682500D01*
X-3157170Y-5674330D01*
X-3151330Y-5667330D01*
X-3140830Y-5662670D01*
X-3126830Y-5660330D01*
X-3118670Y-5655670D01*
X-3115170Y-5647500D01*
X-3117500Y-5639330D01*
X-3123330Y-5633500D01*
X-3131500Y-5630000D01*
X-3139670D01*
X-3147830Y-5632330D01*
X-3154830Y-5638170D01*
G01X-3234000Y-5723330D02*
Y-5653330D01*
G01Y-5663830D02*
X-3239830Y-5658000D01*
X-3245670Y-5654500D01*
X-3255000Y-5653330D01*
X-3263170Y-5654500D01*
X-3271330Y-5660330D01*
X-3274830Y-5668500D01*
X-3276000Y-5676670D01*
X-3274830Y-5684830D01*
X-3271330Y-5693000D01*
X-3264330Y-5697670D01*
X-3255000Y-5700000D01*
X-3246830Y-5698830D01*
X-3238670Y-5695330D01*
X-3234000Y-5690670D01*
G01X-3375000Y-5653330D02*
Y-5700000D01*
G01Y-5634670D02*
X-3372670Y-5633500D01*
Y-5631170D01*
X-3375000Y-5630000D01*
X-3377330Y-5631170D01*
Y-5633500D01*
X-3375000Y-5634670D01*
G01X-3468170Y-5700000D02*
Y-5630000D01*
X-3521830Y-5700000D01*
Y-5630000D01*
G01X-3588170Y-5700000D02*
Y-5630000D01*
X-3641830Y-5700000D01*
Y-5630000D01*
G01X-3719830Y-5676670D02*
X-3750170D01*
G01X-3829330Y-5686000D02*
X-3836330Y-5694170D01*
X-3845670Y-5698830D01*
X-3856170Y-5700000D01*
X-3865500Y-5698830D01*
X-3874830Y-5693000D01*
X-3880670Y-5686000D01*
X-3881830Y-5679000D01*
X-3879500Y-5670840D01*
X-3871330Y-5665000D01*
X-3863170Y-5662670D01*
X-3852670D01*
G01X-3863170D02*
X-3870170Y-5659170D01*
X-3876000Y-5653330D01*
X-3878330Y-5646330D01*
X-3876000Y-5639330D01*
X-3870170Y-5633500D01*
X-3859670Y-5630000D01*
X-3849170Y-5631170D01*
X-3838670Y-5635830D01*
G01X-3940000Y-5723330D02*
X-4010000D01*
G01X-4104330Y-5662670D02*
X-4109000Y-5659170D01*
X-4112500Y-5653330D01*
X-4114830Y-5645170D01*
X-4112500Y-5638170D01*
X-4107830Y-5633500D01*
X-4099670Y-5630000D01*
X-4068170D01*
Y-5700000D01*
X-4106670D01*
X-4114830Y-5695330D01*
X-4119500Y-5688330D01*
X-4121830Y-5680170D01*
X-4119500Y-5672000D01*
X-4112500Y-5665000D01*
X-4104330Y-5662670D01*
X-4068170D01*
G01X-4215000Y-5700000D02*
X-4205670Y-5698830D01*
X-4197500Y-5694170D01*
X-4190500Y-5687170D01*
X-4185830Y-5679000D01*
X-4183500Y-5669670D01*
Y-5660330D01*
X-4185830Y-5651000D01*
X-4190500Y-5642830D01*
X-4197500Y-5635830D01*
X-4205670Y-5631170D01*
X-4215000Y-5630000D01*
X-4224330Y-5631170D01*
X-4232500Y-5635830D01*
X-4239500Y-5642830D01*
X-4244170Y-5651000D01*
X-4246500Y-5660330D01*
Y-5669670D01*
X-4244170Y-5679000D01*
X-4239500Y-5687170D01*
X-4232500Y-5694170D01*
X-4224330Y-5698830D01*
X-4215000Y-5700000D01*
G01X-4335000Y-5630000D02*
Y-5700000D01*
G01X-4308170Y-5630000D02*
X-4361830D01*
G54D19*
X900000Y-1100940D03*
Y-1301600D03*
X1900000Y2900940D03*
Y3499060D03*
Y3298400D03*
Y3101600D03*
M02*
