G04 ================== begin FILE IDENTIFICATION RECORD ==================*
G04 Layout Name:  /home/amu4/spinnaker/PCB/spinnaker2_test_pcb_lib/bunnybot/physical/bunny15.brd*
G04 Film Name:    SILKBOT*
G04 File Format:  Gerber RS274X*
G04 File Origin:  16.01-S5*
G04 Origin Date:  Fri Oct  7 14:45:45 2011*
G04 *
G04 Layer:  REF DES/SILKSCREEN_BOTTOM*
G04 Layer:  PACKAGE GEOMETRY/SILKSCREEN_BOTTOM*
G04 Layer:  BOARD GEOMETRY/SILKSCREEN_BOTTOM*
G04 *
G04 Offset:    (0.0000 0.0000)*
G04 Mirror:    No*
G04 Mode:      Positive*
G04 Rotation:  0*
G04 FullContactRelief:  No*
G04 UndefLineWidth:     0.0000*
G04 ================== end FILE IDENTIFICATION RECORD ====================*
%FSLAX55Y55*MOMM*%
%IR0*IPPOS*OFA0.00000B0.00000*MIA0B0*SFA1.00000B1.00000*%
%ADD10C,.5*%
%ADD11C,.2032*%
%ADD12C,.254*%
%ADD13C,.2038*%
G75*
%LPD*%
G75*
G54D10*
G01X-4500000Y4000000D02*
X4500000D01*
Y-6000000D01*
X-4500000D01*
Y4000000D01*
G54D11*
G01X-3931420Y-3583820D02*
Y-3406020D01*
X-4068580D01*
Y-3593980D01*
X-3931420D01*
Y-3535560D01*
G01X-4283820Y-3368580D02*
X-4106020D01*
Y-3231420D01*
X-4293980D01*
Y-3368580D01*
X-4235560D01*
G01X-4283820Y-3068580D02*
X-4106020D01*
Y-2931420D01*
X-4293980D01*
Y-3068580D01*
X-4235560D01*
G01X-4283820Y-2668580D02*
X-4106020D01*
Y-2531420D01*
X-4293980D01*
Y-2668580D01*
X-4235560D01*
G01X-4283820Y-2368580D02*
X-4106020D01*
Y-2231420D01*
X-4293980D01*
Y-2368580D01*
X-4235560D01*
G01X-4283820Y-1968580D02*
X-4106020D01*
Y-1831420D01*
X-4293980D01*
Y-1968580D01*
X-4235560D01*
G01X-4283820Y-1568580D02*
X-4106020D01*
Y-1431420D01*
X-4293980D01*
Y-1568580D01*
X-4235560D01*
G01X-4068580Y-1216180D02*
Y-1393980D01*
X-3931420D01*
Y-1206020D01*
X-4068580D01*
Y-1264440D01*
G01X-3931420Y-483820D02*
Y-306020D01*
X-4068580D01*
Y-493980D01*
X-3931420D01*
Y-435560D01*
G01X-4283820Y-268580D02*
X-4106020D01*
Y-131420D01*
X-4293980D01*
Y-268580D01*
X-4235560D01*
G01X-4283820Y31420D02*
X-4106020D01*
Y168580D01*
X-4293980D01*
Y31420D01*
X-4235560D01*
G01X-4283820Y431420D02*
X-4106020D01*
Y568580D01*
X-4293980D01*
Y431420D01*
X-4235560D01*
G01X-4283820Y731420D02*
X-4106020D01*
Y868580D01*
X-4293980D01*
Y731420D01*
X-4235560D01*
G01X-4283820Y1131420D02*
X-4106020D01*
Y1268580D01*
X-4293980D01*
Y1131420D01*
X-4235560D01*
G01X-4068580Y1883820D02*
Y1706020D01*
X-3931420D01*
Y1893980D01*
X-4068580D01*
Y1835560D01*
G01X-4283820Y1531420D02*
X-4106020D01*
Y1668580D01*
X-4293980D01*
Y1531420D01*
X-4235560D01*
G01X-3996520Y3590780D02*
X-3719660D01*
Y3809220D01*
X-4077800D01*
Y3590780D01*
X-3999060D01*
G01X-3131420Y-3583820D02*
Y-3406020D01*
X-3268580D01*
Y-3593980D01*
X-3131420D01*
Y-3535560D01*
G01X-3531420Y-3583820D02*
Y-3406020D01*
X-3668580D01*
Y-3593980D01*
X-3531420D01*
Y-3535560D01*
G01X-3268580Y-1216180D02*
Y-1393980D01*
X-3131420D01*
Y-1206020D01*
X-3268580D01*
Y-1264440D01*
G01X-3668580Y-1216180D02*
Y-1393980D01*
X-3531420D01*
Y-1206020D01*
X-3668580D01*
Y-1264440D01*
G01X-3131420Y-483820D02*
Y-306020D01*
X-3268580D01*
Y-493980D01*
X-3131420D01*
Y-435560D01*
G01X-3531420Y-483820D02*
Y-306020D01*
X-3668580D01*
Y-493980D01*
X-3531420D01*
Y-435560D01*
G01X-3268580Y1883820D02*
Y1706020D01*
X-3131420D01*
Y1893980D01*
X-3268580D01*
Y1835560D01*
G01X-3668580Y1883820D02*
Y1706020D01*
X-3531420D01*
Y1893980D01*
X-3668580D01*
Y1835560D01*
G01X-3296520Y3590780D02*
X-3019660D01*
Y3809220D01*
X-3377800D01*
Y3590780D01*
X-3299060D01*
G01X-2768580Y-3406020D02*
Y-3593980D01*
X-2631420D01*
Y-3406020D01*
X-2768580D01*
G01X-2431420Y-3583820D02*
Y-3406020D01*
X-2568580D01*
Y-3593980D01*
X-2431420D01*
Y-3535560D01*
G01X-2831420Y-3583820D02*
Y-3406020D01*
X-2968580D01*
Y-3593980D01*
X-2831420D01*
Y-3535560D01*
G01X-2568580Y-1216180D02*
Y-1393980D01*
X-2431420D01*
Y-1206020D01*
X-2568580D01*
Y-1264440D01*
G01X-2968580Y-1216180D02*
Y-1393980D01*
X-2831420D01*
Y-1206020D01*
X-2968580D01*
Y-1264440D01*
G01X-2768580Y-306020D02*
Y-493980D01*
X-2631420D01*
Y-306020D01*
X-2768580D01*
G01X-2431420Y-483820D02*
Y-306020D01*
X-2568580D01*
Y-493980D01*
X-2431420D01*
Y-435560D01*
G01X-2831420Y-483820D02*
Y-306020D01*
X-2968580D01*
Y-493980D01*
X-2831420D01*
Y-435560D01*
G01X-2568580Y1883820D02*
Y1706020D01*
X-2431420D01*
Y1893980D01*
X-2568580D01*
Y1835560D01*
G01X-2968580Y1883820D02*
Y1706020D01*
X-2831420D01*
Y1893980D01*
X-2968580D01*
Y1835560D01*
G01X-2596520Y3590780D02*
X-2319660D01*
Y3809220D01*
X-2677800D01*
Y3590780D01*
X-2599060D01*
G01X-2131420Y-3583820D02*
Y-3406020D01*
X-2268580D01*
Y-3593980D01*
X-2131420D01*
Y-3535560D01*
G01X-1916180Y-3231420D02*
X-2093980D01*
Y-3368580D01*
X-1906020D01*
Y-3231420D01*
X-1964440D01*
G01X-1916180Y-2931420D02*
X-2093980D01*
Y-3068580D01*
X-1906020D01*
Y-2931420D01*
X-1964440D01*
G01X-1916180Y-2531420D02*
X-2093980D01*
Y-2668580D01*
X-1906020D01*
Y-2531420D01*
X-1964440D01*
G01X-1916180Y-2231420D02*
X-2093980D01*
Y-2368580D01*
X-1906020D01*
Y-2231420D01*
X-1964440D01*
G01X-1916180Y-1831420D02*
X-2093980D01*
Y-1968580D01*
X-1906020D01*
Y-1831420D01*
X-1964440D01*
G01X-1653480Y-790780D02*
X-1930340D01*
Y-1009220D01*
X-1572200D01*
Y-790780D01*
X-1650940D01*
G01X-1916180Y-1431420D02*
X-2093980D01*
Y-1568580D01*
X-1906020D01*
Y-1431420D01*
X-1964440D01*
G01X-2268580Y-1216180D02*
Y-1393980D01*
X-2131420D01*
Y-1206020D01*
X-2268580D01*
Y-1264440D01*
G01X-2131420Y-483820D02*
Y-306020D01*
X-2268580D01*
Y-493980D01*
X-2131420D01*
Y-435560D01*
G01X-1916180Y-131420D02*
X-2093980D01*
Y-268580D01*
X-1906020D01*
Y-131420D01*
X-1964440D01*
G01X-1916180Y168580D02*
X-2093980D01*
Y31420D01*
X-1906020D01*
Y168580D01*
X-1964440D01*
G01X-1916180Y568580D02*
X-2093980D01*
Y431420D01*
X-1906020D01*
Y568580D01*
X-1964440D01*
G01X-1916180Y868580D02*
X-2093980D01*
Y731420D01*
X-1906020D01*
Y868580D01*
X-1964440D01*
G01X-1916180Y1268580D02*
X-2093980D01*
Y1131420D01*
X-1906020D01*
Y1268580D01*
X-1964440D01*
G01X-1916180Y1668580D02*
X-2093980D01*
Y1531420D01*
X-1906020D01*
Y1668580D01*
X-1964440D01*
G01X-2268580Y1883820D02*
Y1706020D01*
X-2131420D01*
Y1893980D01*
X-2268580D01*
Y1835560D01*
G01X-1896520Y3590780D02*
X-1619660D01*
Y3809220D01*
X-1977800D01*
Y3590780D01*
X-1899060D01*
G01X-1231420Y-3583820D02*
Y-3406020D01*
X-1368580D01*
Y-3593980D01*
X-1231420D01*
Y-3535560D01*
G01X-1583820Y-3368580D02*
X-1406020D01*
Y-3231420D01*
X-1593980D01*
Y-3368580D01*
X-1535560D01*
G01X-831420Y-3583820D02*
Y-3406020D01*
X-968580D01*
Y-3593980D01*
X-831420D01*
Y-3535560D01*
G01X-1583820Y-3068580D02*
X-1406020D01*
Y-2931420D01*
X-1593980D01*
Y-3068580D01*
X-1535560D01*
G01X-1583820Y-2668580D02*
X-1406020D01*
Y-2531420D01*
X-1593980D01*
Y-2668580D01*
X-1535560D01*
G01X-1583820Y-2368580D02*
X-1406020D01*
Y-2231420D01*
X-1593980D01*
Y-2368580D01*
X-1535560D01*
G01X-1583820Y-1968580D02*
X-1406020D01*
Y-1831420D01*
X-1593980D01*
Y-1968580D01*
X-1535560D01*
G01X-1368580Y-1216180D02*
Y-1393980D01*
X-1231420D01*
Y-1206020D01*
X-1368580D01*
Y-1264440D01*
G01X-1583820Y-1568580D02*
X-1406020D01*
Y-1431420D01*
X-1593980D01*
Y-1568580D01*
X-1535560D01*
G01X-968580Y-1216180D02*
Y-1393980D01*
X-831420D01*
Y-1206020D01*
X-968580D01*
Y-1264440D01*
G01X-1231420Y-483820D02*
Y-306020D01*
X-1368580D01*
Y-493980D01*
X-1231420D01*
Y-435560D01*
G01X-831420Y-483820D02*
Y-306020D01*
X-968580D01*
Y-493980D01*
X-831420D01*
Y-435560D01*
G01X-1583820Y-268580D02*
X-1406020D01*
Y-131420D01*
X-1593980D01*
Y-268580D01*
X-1535560D01*
G01X-1583820Y31420D02*
X-1406020D01*
Y168580D01*
X-1593980D01*
Y31420D01*
X-1535560D01*
G01X-1583820Y431420D02*
X-1406020D01*
Y568580D01*
X-1593980D01*
Y431420D01*
X-1535560D01*
G01X-1583820Y731420D02*
X-1406020D01*
Y868580D01*
X-1593980D01*
Y731420D01*
X-1535560D01*
G01X-1583820Y1131420D02*
X-1406020D01*
Y1268580D01*
X-1593980D01*
Y1131420D01*
X-1535560D01*
G01X-1368580Y1883820D02*
Y1706020D01*
X-1231420D01*
Y1893980D01*
X-1368580D01*
Y1835560D01*
G01X-1583820Y1531420D02*
X-1406020D01*
Y1668580D01*
X-1593980D01*
Y1531420D01*
X-1535560D01*
G01X-968580Y1883820D02*
Y1706020D01*
X-831420D01*
Y1893980D01*
X-968580D01*
Y1835560D01*
G01X-1096520Y3590780D02*
X-819660D01*
Y3809220D01*
X-1177800D01*
Y3590780D01*
X-1099060D01*
G01X-431420Y-3583820D02*
Y-3406020D01*
X-568580D01*
Y-3593980D01*
X-431420D01*
Y-3535560D01*
G01X-131420Y-3583820D02*
Y-3406020D01*
X-268580D01*
Y-3593980D01*
X-131420D01*
Y-3535560D01*
G01X-568580Y-1216180D02*
Y-1393980D01*
X-431420D01*
Y-1206020D01*
X-568580D01*
Y-1264440D01*
G01X-268580Y-1216180D02*
Y-1393980D01*
X-131420D01*
Y-1206020D01*
X-268580D01*
Y-1264440D01*
G01X-431420Y-483820D02*
Y-306020D01*
X-568580D01*
Y-493980D01*
X-431420D01*
Y-435560D01*
G01X-131420Y-483820D02*
Y-306020D01*
X-268580D01*
Y-493980D01*
X-131420D01*
Y-435560D01*
G01X-568580Y1883820D02*
Y1706020D01*
X-431420D01*
Y1893980D01*
X-568580D01*
Y1835560D01*
G01X-268580Y1883820D02*
Y1706020D01*
X-131420D01*
Y1893980D01*
X-268580D01*
Y1835560D01*
G01X-396520Y3590780D02*
X-119660D01*
Y3809220D01*
X-477800D01*
Y3590780D01*
X-399060D01*
G01X-68580Y-3406020D02*
Y-3593980D01*
X68580D01*
Y-3406020D01*
X-68580D01*
G01X268580Y-3583820D02*
Y-3406020D01*
X131420D01*
Y-3593980D01*
X268580D01*
Y-3535560D01*
G01X568580Y-3583820D02*
Y-3406020D01*
X431420D01*
Y-3593980D01*
X568580D01*
Y-3535560D01*
G01X783820Y-3231420D02*
X606020D01*
Y-3368580D01*
X793980D01*
Y-3231420D01*
X735560D01*
G01X783820Y-2931420D02*
X606020D01*
Y-3068580D01*
X793980D01*
Y-2931420D01*
X735560D01*
G01X783820Y-2531420D02*
X606020D01*
Y-2668580D01*
X793980D01*
Y-2531420D01*
X735560D01*
G01X783820Y-2231420D02*
X606020D01*
Y-2368580D01*
X793980D01*
Y-2231420D01*
X735560D01*
G01X783820Y-1831420D02*
X606020D01*
Y-1968580D01*
X793980D01*
Y-1831420D01*
X735560D01*
G01X783820Y-1431420D02*
X606020D01*
Y-1568580D01*
X793980D01*
Y-1431420D01*
X735560D01*
G01X131420Y-1216180D02*
Y-1393980D01*
X268580D01*
Y-1206020D01*
X131420D01*
Y-1264440D01*
G01X431420Y-1216180D02*
Y-1393980D01*
X568580D01*
Y-1206020D01*
X431420D01*
Y-1264440D01*
G01X-68580Y-306020D02*
Y-493980D01*
X68580D01*
Y-306020D01*
X-68580D01*
G01X268580Y-483820D02*
Y-306020D01*
X131420D01*
Y-493980D01*
X268580D01*
Y-435560D01*
G01X568580Y-483820D02*
Y-306020D01*
X431420D01*
Y-493980D01*
X568580D01*
Y-435560D01*
G01X783820Y-131420D02*
X606020D01*
Y-268580D01*
X793980D01*
Y-131420D01*
X735560D01*
G01X783820Y168580D02*
X606020D01*
Y31420D01*
X793980D01*
Y168580D01*
X735560D01*
G01X783820Y568580D02*
X606020D01*
Y431420D01*
X793980D01*
Y568580D01*
X735560D01*
G01X783820Y868580D02*
X606020D01*
Y731420D01*
X793980D01*
Y868580D01*
X735560D01*
G01X783820Y1268580D02*
X606020D01*
Y1131420D01*
X793980D01*
Y1268580D01*
X735560D01*
G01X783820Y1668580D02*
X606020D01*
Y1531420D01*
X793980D01*
Y1668580D01*
X735560D01*
G01X131420Y1883820D02*
Y1706020D01*
X268580D01*
Y1893980D01*
X131420D01*
Y1835560D01*
G01X431420Y1883820D02*
Y1706020D01*
X568580D01*
Y1893980D01*
X431420D01*
Y1835560D01*
G01X303480Y3590780D02*
X580340D01*
Y3809220D01*
X222200D01*
Y3590780D01*
X300940D01*
G01X790780Y-1103480D02*
Y-1380340D01*
X1009220D01*
Y-1022200D01*
X790780D01*
Y-1100940D01*
G01X1003480Y3590780D02*
X1280340D01*
Y3809220D01*
X922200D01*
Y3590780D01*
X1000940D01*
G01X1790780Y3496520D02*
Y3219660D01*
X2009220D01*
Y3577800D01*
X1790780D01*
Y3499060D01*
G54D12*
G01X2004140Y2933960D02*
Y2827280D01*
X1795860D01*
Y2933960D01*
G54D13*
G01X-4500000Y-4000000D02*
X4500000D01*
G01Y-4200000D02*
X-4500000D01*
G01X-3826670Y-3656670D02*
X-3822670Y-3661670D01*
X-3820000Y-3667500D01*
Y-3674170D01*
X-3824000Y-3681670D01*
X-3830670Y-3687500D01*
X-3838670Y-3691670D01*
X-3852000Y-3695000D01*
X-3864000Y-3695830D01*
X-3876000Y-3694170D01*
X-3884000Y-3691670D01*
X-3892000Y-3686670D01*
X-3897330Y-3680830D01*
X-3900000Y-3675000D01*
Y-3669170D01*
X-3897330Y-3663330D01*
X-3893330Y-3658330D01*
X-3888000Y-3654170D01*
G01X-3900000Y-3605000D02*
X-3820000D01*
X-3836000Y-3615000D01*
G01X-3900000D02*
Y-3595000D01*
G01X-3833330Y-3550830D02*
X-3825330Y-3545830D01*
X-3821330Y-3540000D01*
X-3820000Y-3533330D01*
X-3822670Y-3525000D01*
X-3829330Y-3519170D01*
X-3837330Y-3517500D01*
X-3845340Y-3518330D01*
X-3852000Y-3521670D01*
X-3865330Y-3538330D01*
X-3874670Y-3545830D01*
X-3888000Y-3550830D01*
X-3900000Y-3552500D01*
Y-3517500D01*
G01X-3820000Y-3465000D02*
X-3822670Y-3471670D01*
X-3829330Y-3476670D01*
X-3837330Y-3480000D01*
X-3848000Y-3482500D01*
X-3860000Y-3483330D01*
X-3872000Y-3482500D01*
X-3882670Y-3480000D01*
X-3890670Y-3476670D01*
X-3897330Y-3471670D01*
X-3900000Y-3465000D01*
X-3897330Y-3458330D01*
X-3890670Y-3453330D01*
X-3882670Y-3450000D01*
X-3872000Y-3447500D01*
X-3860000Y-3446670D01*
X-3848000Y-3447500D01*
X-3837330Y-3450000D01*
X-3829330Y-3453330D01*
X-3822670Y-3458330D01*
X-3820000Y-3465000D01*
G01X-4306670Y-3173330D02*
X-4311670Y-3177330D01*
X-4317500Y-3180000D01*
X-4324170D01*
X-4331670Y-3176000D01*
X-4337500Y-3169330D01*
X-4341670Y-3161330D01*
X-4345000Y-3148000D01*
X-4345830Y-3136000D01*
X-4344170Y-3124000D01*
X-4341670Y-3116000D01*
X-4336670Y-3108000D01*
X-4330830Y-3102670D01*
X-4325000Y-3100000D01*
X-4319170D01*
X-4313330Y-3102670D01*
X-4308330Y-3106670D01*
X-4304170Y-3112000D01*
G01X-4255000Y-3100000D02*
Y-3180000D01*
X-4265000Y-3164000D01*
G01Y-3100000D02*
X-4245000D01*
G01X-4185000Y-3180000D02*
X-4191670Y-3177330D01*
X-4196670Y-3170670D01*
X-4200000Y-3162670D01*
X-4202500Y-3152000D01*
X-4203330Y-3140000D01*
X-4202500Y-3128000D01*
X-4200000Y-3117330D01*
X-4196670Y-3109330D01*
X-4191670Y-3102670D01*
X-4185000Y-3100000D01*
X-4178330Y-3102670D01*
X-4173330Y-3109330D01*
X-4170000Y-3117330D01*
X-4167500Y-3128000D01*
X-4166670Y-3140000D01*
X-4167500Y-3152000D01*
X-4170000Y-3162670D01*
X-4173330Y-3170670D01*
X-4178330Y-3177330D01*
X-4185000Y-3180000D01*
G01X-4105000Y-3100000D02*
Y-3180000D01*
X-4135830Y-3122670D01*
X-4094170D01*
G01X-4356670Y-3473330D02*
X-4361670Y-3477330D01*
X-4367500Y-3480000D01*
X-4374170D01*
X-4381670Y-3476000D01*
X-4387500Y-3469330D01*
X-4391670Y-3461330D01*
X-4395000Y-3448000D01*
X-4395830Y-3436000D01*
X-4394170Y-3424000D01*
X-4391670Y-3416000D01*
X-4386670Y-3408000D01*
X-4380830Y-3402670D01*
X-4375000Y-3400000D01*
X-4369170D01*
X-4363330Y-3402670D01*
X-4358330Y-3406670D01*
X-4354170Y-3412000D01*
G01X-4305000Y-3400000D02*
Y-3480000D01*
X-4315000Y-3464000D01*
G01Y-3400000D02*
X-4295000D01*
G01X-4235000Y-3480000D02*
X-4241670Y-3477330D01*
X-4246670Y-3470670D01*
X-4250000Y-3462670D01*
X-4252500Y-3452000D01*
X-4253330Y-3440000D01*
X-4252500Y-3428000D01*
X-4250000Y-3417330D01*
X-4246670Y-3409330D01*
X-4241670Y-3402670D01*
X-4235000Y-3400000D01*
X-4228330Y-3402670D01*
X-4223330Y-3409330D01*
X-4220000Y-3417330D01*
X-4217500Y-3428000D01*
X-4216670Y-3440000D01*
X-4217500Y-3452000D01*
X-4220000Y-3462670D01*
X-4223330Y-3470670D01*
X-4228330Y-3477330D01*
X-4235000Y-3480000D01*
G01X-4165000Y-3400000D02*
X-4159170Y-3401330D01*
X-4152500Y-3405330D01*
X-4148330Y-3412000D01*
X-4146670Y-3421330D01*
X-4148330Y-3430660D01*
X-4153330Y-3438670D01*
X-4160830Y-3442670D01*
X-4169170D01*
X-4174170Y-3445330D01*
X-4178330Y-3452000D01*
X-4180000Y-3461330D01*
X-4177500Y-3470670D01*
X-4171670Y-3477330D01*
X-4165000Y-3480000D01*
X-4158330Y-3477330D01*
X-4152500Y-3470670D01*
X-4150000Y-3461330D01*
X-4151670Y-3452000D01*
X-4155830Y-3445330D01*
X-4160830Y-3442670D01*
X-4169170D01*
X-4176670Y-3438670D01*
X-4181670Y-3430660D01*
X-4183330Y-3421330D01*
X-4181670Y-3412000D01*
X-4177500Y-3405330D01*
X-4170830Y-3401330D01*
X-4165000Y-3400000D01*
G01X-4256670Y-2473330D02*
X-4261670Y-2477330D01*
X-4267500Y-2480000D01*
X-4274170D01*
X-4281670Y-2476000D01*
X-4287500Y-2469330D01*
X-4291670Y-2461330D01*
X-4295000Y-2448000D01*
X-4295830Y-2436000D01*
X-4294170Y-2424000D01*
X-4291670Y-2416000D01*
X-4286670Y-2408000D01*
X-4280830Y-2402670D01*
X-4275000Y-2400000D01*
X-4269170D01*
X-4263330Y-2402670D01*
X-4258330Y-2406670D01*
X-4254170Y-2412000D01*
G01X-4219170Y-2409330D02*
X-4213330Y-2402670D01*
X-4206670Y-2400000D01*
X-4200000Y-2402670D01*
X-4194170Y-2410660D01*
X-4190000Y-2422670D01*
X-4188330Y-2434670D01*
Y-2449330D01*
X-4190000Y-2461330D01*
X-4194170Y-2472000D01*
X-4199170Y-2477330D01*
X-4205000Y-2480000D01*
X-4211670Y-2477330D01*
X-4216670Y-2472000D01*
X-4220000Y-2464000D01*
X-4221670Y-2453330D01*
X-4220000Y-2444000D01*
X-4215830Y-2434670D01*
X-4210830Y-2429330D01*
X-4205000Y-2428000D01*
X-4198330Y-2430660D01*
X-4193330Y-2437330D01*
X-4188330Y-2449330D01*
G01X-4150830Y-2433330D02*
X-4145000Y-2442670D01*
X-4140000Y-2448000D01*
X-4133330Y-2450670D01*
X-4127500Y-2448000D01*
X-4123330Y-2442670D01*
X-4120000Y-2434670D01*
X-4119170Y-2425330D01*
X-4120000Y-2417330D01*
X-4123330Y-2409330D01*
X-4128330Y-2402670D01*
X-4134170Y-2400000D01*
X-4140830Y-2402670D01*
X-4146670Y-2410660D01*
X-4150000Y-2422670D01*
X-4150830Y-2436000D01*
X-4149170Y-2453330D01*
X-4146670Y-2462670D01*
X-4142500Y-2472000D01*
X-4136670Y-2478670D01*
X-4130830Y-2480000D01*
X-4125000Y-2477330D01*
X-4120830Y-2470670D01*
G01X-4306670Y-2773330D02*
X-4311670Y-2777330D01*
X-4317500Y-2780000D01*
X-4324170D01*
X-4331670Y-2776000D01*
X-4337500Y-2769330D01*
X-4341670Y-2761330D01*
X-4345000Y-2748000D01*
X-4345830Y-2736000D01*
X-4344170Y-2724000D01*
X-4341670Y-2716000D01*
X-4336670Y-2708000D01*
X-4330830Y-2702670D01*
X-4325000Y-2700000D01*
X-4319170D01*
X-4313330Y-2702670D01*
X-4308330Y-2706670D01*
X-4304170Y-2712000D01*
G01X-4255000Y-2700000D02*
Y-2780000D01*
X-4265000Y-2764000D01*
G01Y-2700000D02*
X-4245000D01*
G01X-4185000Y-2780000D02*
X-4191670Y-2777330D01*
X-4196670Y-2770670D01*
X-4200000Y-2762670D01*
X-4202500Y-2752000D01*
X-4203330Y-2740000D01*
X-4202500Y-2728000D01*
X-4200000Y-2717330D01*
X-4196670Y-2709330D01*
X-4191670Y-2702670D01*
X-4185000Y-2700000D01*
X-4178330Y-2702670D01*
X-4173330Y-2709330D01*
X-4170000Y-2717330D01*
X-4167500Y-2728000D01*
X-4166670Y-2740000D01*
X-4167500Y-2752000D01*
X-4170000Y-2762670D01*
X-4173330Y-2770670D01*
X-4178330Y-2777330D01*
X-4185000Y-2780000D01*
G01X-4115000D02*
X-4121670Y-2777330D01*
X-4126670Y-2770670D01*
X-4130000Y-2762670D01*
X-4132500Y-2752000D01*
X-4133330Y-2740000D01*
X-4132500Y-2728000D01*
X-4130000Y-2717330D01*
X-4126670Y-2709330D01*
X-4121670Y-2702670D01*
X-4115000Y-2700000D01*
X-4108330Y-2702670D01*
X-4103330Y-2709330D01*
X-4100000Y-2717330D01*
X-4097500Y-2728000D01*
X-4096670Y-2740000D01*
X-4097500Y-2752000D01*
X-4100000Y-2762670D01*
X-4103330Y-2770670D01*
X-4108330Y-2777330D01*
X-4115000Y-2780000D01*
G01X-4256670Y-1673330D02*
X-4261670Y-1677330D01*
X-4267500Y-1680000D01*
X-4274170D01*
X-4281670Y-1676000D01*
X-4287500Y-1669330D01*
X-4291670Y-1661330D01*
X-4295000Y-1648000D01*
X-4295830Y-1636000D01*
X-4294170Y-1624000D01*
X-4291670Y-1616000D01*
X-4286670Y-1608000D01*
X-4280830Y-1602670D01*
X-4275000Y-1600000D01*
X-4269170D01*
X-4263330Y-1602670D01*
X-4258330Y-1606670D01*
X-4254170Y-1612000D01*
G01X-4205000Y-1600000D02*
X-4199170Y-1601330D01*
X-4192500Y-1605330D01*
X-4188330Y-1612000D01*
X-4186670Y-1621330D01*
X-4188330Y-1630660D01*
X-4193330Y-1638670D01*
X-4200830Y-1642670D01*
X-4209170D01*
X-4214170Y-1645330D01*
X-4218330Y-1652000D01*
X-4220000Y-1661330D01*
X-4217500Y-1670670D01*
X-4211670Y-1677330D01*
X-4205000Y-1680000D01*
X-4198330Y-1677330D01*
X-4192500Y-1670670D01*
X-4190000Y-1661330D01*
X-4191670Y-1652000D01*
X-4195830Y-1645330D01*
X-4200830Y-1642670D01*
X-4209170D01*
X-4216670Y-1638670D01*
X-4221670Y-1630660D01*
X-4223330Y-1621330D01*
X-4221670Y-1612000D01*
X-4217500Y-1605330D01*
X-4210830Y-1601330D01*
X-4205000Y-1600000D01*
G01X-4135000D02*
X-4129170Y-1601330D01*
X-4122500Y-1605330D01*
X-4118330Y-1612000D01*
X-4116670Y-1621330D01*
X-4118330Y-1630660D01*
X-4123330Y-1638670D01*
X-4130830Y-1642670D01*
X-4139170D01*
X-4144170Y-1645330D01*
X-4148330Y-1652000D01*
X-4150000Y-1661330D01*
X-4147500Y-1670670D01*
X-4141670Y-1677330D01*
X-4135000Y-1680000D01*
X-4128330Y-1677330D01*
X-4122500Y-1670670D01*
X-4120000Y-1661330D01*
X-4121670Y-1652000D01*
X-4125830Y-1645330D01*
X-4130830Y-1642670D01*
X-4139170D01*
X-4146670Y-1638670D01*
X-4151670Y-1630660D01*
X-4153330Y-1621330D01*
X-4151670Y-1612000D01*
X-4147500Y-1605330D01*
X-4140830Y-1601330D01*
X-4135000Y-1600000D01*
G01X-4256670Y-2073330D02*
X-4261670Y-2077330D01*
X-4267500Y-2080000D01*
X-4274170D01*
X-4281670Y-2076000D01*
X-4287500Y-2069330D01*
X-4291670Y-2061330D01*
X-4295000Y-2048000D01*
X-4295830Y-2036000D01*
X-4294170Y-2024000D01*
X-4291670Y-2016000D01*
X-4286670Y-2008000D01*
X-4280830Y-2002670D01*
X-4275000Y-2000000D01*
X-4269170D01*
X-4263330Y-2002670D01*
X-4258330Y-2006670D01*
X-4254170Y-2012000D01*
G01X-4219170Y-2009330D02*
X-4213330Y-2002670D01*
X-4206670Y-2000000D01*
X-4200000Y-2002670D01*
X-4194170Y-2010660D01*
X-4190000Y-2022670D01*
X-4188330Y-2034670D01*
Y-2049330D01*
X-4190000Y-2061330D01*
X-4194170Y-2072000D01*
X-4199170Y-2077330D01*
X-4205000Y-2080000D01*
X-4211670Y-2077330D01*
X-4216670Y-2072000D01*
X-4220000Y-2064000D01*
X-4221670Y-2053330D01*
X-4220000Y-2044000D01*
X-4215830Y-2034670D01*
X-4210830Y-2029330D01*
X-4205000Y-2028000D01*
X-4198330Y-2030660D01*
X-4193330Y-2037330D01*
X-4188330Y-2049330D01*
G01X-4150830Y-2066670D02*
X-4145830Y-2074670D01*
X-4140000Y-2078670D01*
X-4133330Y-2080000D01*
X-4125000Y-2077330D01*
X-4119170Y-2070670D01*
X-4117500Y-2062670D01*
X-4118330Y-2054660D01*
X-4121670Y-2048000D01*
X-4138330Y-2034670D01*
X-4145830Y-2025330D01*
X-4150830Y-2012000D01*
X-4152500Y-2000000D01*
X-4117500D01*
G01X-4173330Y-1193330D02*
X-4177330Y-1188330D01*
X-4180000Y-1182500D01*
Y-1175830D01*
X-4176000Y-1168330D01*
X-4169330Y-1162500D01*
X-4161330Y-1158330D01*
X-4148000Y-1155000D01*
X-4136000Y-1154170D01*
X-4124000Y-1155830D01*
X-4116000Y-1158330D01*
X-4108000Y-1163330D01*
X-4102670Y-1169170D01*
X-4100000Y-1175000D01*
Y-1180830D01*
X-4102670Y-1186670D01*
X-4106670Y-1191670D01*
X-4112000Y-1195830D01*
G01X-4100000Y-1245000D02*
X-4101330Y-1250830D01*
X-4105330Y-1257500D01*
X-4112000Y-1261670D01*
X-4121330Y-1263330D01*
X-4130660Y-1261670D01*
X-4138670Y-1256670D01*
X-4142670Y-1249170D01*
Y-1240830D01*
X-4145330Y-1235830D01*
X-4152000Y-1231670D01*
X-4161330Y-1230000D01*
X-4170670Y-1232500D01*
X-4177330Y-1238330D01*
X-4180000Y-1245000D01*
X-4177330Y-1251670D01*
X-4170670Y-1257500D01*
X-4161330Y-1260000D01*
X-4152000Y-1258330D01*
X-4145330Y-1254170D01*
X-4142670Y-1249170D01*
Y-1240830D01*
X-4138670Y-1233330D01*
X-4130660Y-1228330D01*
X-4121330Y-1226670D01*
X-4112000Y-1228330D01*
X-4105330Y-1232500D01*
X-4101330Y-1239170D01*
X-4100000Y-1245000D01*
G01Y-1325000D02*
X-4180000D01*
X-4122670Y-1294170D01*
Y-1335830D01*
G01X-3826670Y-456670D02*
X-3822670Y-461670D01*
X-3820000Y-467500D01*
Y-474170D01*
X-3824000Y-481670D01*
X-3830670Y-487500D01*
X-3838670Y-491670D01*
X-3852000Y-495000D01*
X-3864000Y-495830D01*
X-3876000Y-494170D01*
X-3884000Y-491670D01*
X-3892000Y-486670D01*
X-3897330Y-480830D01*
X-3900000Y-475000D01*
Y-469170D01*
X-3897330Y-463330D01*
X-3893330Y-458330D01*
X-3888000Y-454170D01*
G01X-3900000Y-406670D02*
X-3882670Y-405000D01*
X-3868000Y-402500D01*
X-3854670Y-399170D01*
X-3840000Y-395000D01*
X-3820000Y-388330D01*
Y-421670D01*
G01X-3833330Y-350830D02*
X-3825330Y-345830D01*
X-3821330Y-340000D01*
X-3820000Y-333330D01*
X-3822670Y-325000D01*
X-3829330Y-319170D01*
X-3837330Y-317500D01*
X-3845340Y-318330D01*
X-3852000Y-321670D01*
X-3865330Y-338330D01*
X-3874670Y-345830D01*
X-3888000Y-350830D01*
X-3900000Y-352500D01*
Y-317500D01*
G01X-4256670Y-373330D02*
X-4261670Y-377330D01*
X-4267500Y-380000D01*
X-4274170D01*
X-4281670Y-376000D01*
X-4287500Y-369330D01*
X-4291670Y-361330D01*
X-4295000Y-348000D01*
X-4295830Y-336000D01*
X-4294170Y-324000D01*
X-4291670Y-316000D01*
X-4286670Y-308000D01*
X-4280830Y-302670D01*
X-4275000Y-300000D01*
X-4269170D01*
X-4263330Y-302670D01*
X-4258330Y-306670D01*
X-4254170Y-312000D01*
G01X-4220830Y-333330D02*
X-4215000Y-342670D01*
X-4210000Y-348000D01*
X-4203330Y-350670D01*
X-4197500Y-348000D01*
X-4193330Y-342670D01*
X-4190000Y-334670D01*
X-4189170Y-325330D01*
X-4190000Y-317330D01*
X-4193330Y-309330D01*
X-4198330Y-302670D01*
X-4204170Y-300000D01*
X-4210830Y-302670D01*
X-4216670Y-310660D01*
X-4220000Y-322670D01*
X-4220830Y-336000D01*
X-4219170Y-353330D01*
X-4216670Y-362670D01*
X-4212500Y-372000D01*
X-4206670Y-378670D01*
X-4200830Y-380000D01*
X-4195000Y-377330D01*
X-4190830Y-370670D01*
G01X-4135000Y-380000D02*
X-4141670Y-377330D01*
X-4146670Y-370670D01*
X-4150000Y-362670D01*
X-4152500Y-352000D01*
X-4153330Y-340000D01*
X-4152500Y-328000D01*
X-4150000Y-317330D01*
X-4146670Y-309330D01*
X-4141670Y-302670D01*
X-4135000Y-300000D01*
X-4128330Y-302670D01*
X-4123330Y-309330D01*
X-4120000Y-317330D01*
X-4117500Y-328000D01*
X-4116670Y-340000D01*
X-4117500Y-352000D01*
X-4120000Y-362670D01*
X-4123330Y-370670D01*
X-4128330Y-377330D01*
X-4135000Y-380000D01*
G01X-4256670Y626670D02*
X-4261670Y622670D01*
X-4267500Y620000D01*
X-4274170D01*
X-4281670Y624000D01*
X-4287500Y630670D01*
X-4291670Y638670D01*
X-4295000Y652000D01*
X-4295830Y664000D01*
X-4294170Y676000D01*
X-4291670Y684000D01*
X-4286670Y692000D01*
X-4280830Y697330D01*
X-4275000Y700000D01*
X-4269170D01*
X-4263330Y697330D01*
X-4258330Y693330D01*
X-4254170Y688000D01*
G01X-4195000Y700000D02*
Y620000D01*
X-4225830Y677330D01*
X-4184170D01*
G01X-4135000Y700000D02*
X-4129170Y698670D01*
X-4122500Y694670D01*
X-4118330Y688000D01*
X-4116670Y678670D01*
X-4118330Y669340D01*
X-4123330Y661330D01*
X-4130830Y657330D01*
X-4139170D01*
X-4144170Y654670D01*
X-4148330Y648000D01*
X-4150000Y638670D01*
X-4147500Y629330D01*
X-4141670Y622670D01*
X-4135000Y620000D01*
X-4128330Y622670D01*
X-4122500Y629330D01*
X-4120000Y638670D01*
X-4121670Y648000D01*
X-4125830Y654670D01*
X-4130830Y657330D01*
X-4139170D01*
X-4146670Y661330D01*
X-4151670Y669340D01*
X-4153330Y678670D01*
X-4151670Y688000D01*
X-4147500Y694670D01*
X-4140830Y698670D01*
X-4135000Y700000D01*
G01X-4256670Y-73330D02*
X-4261670Y-77330D01*
X-4267500Y-80000D01*
X-4274170D01*
X-4281670Y-76000D01*
X-4287500Y-69330D01*
X-4291670Y-61330D01*
X-4295000Y-48000D01*
X-4295830Y-36000D01*
X-4294170Y-24000D01*
X-4291670Y-16000D01*
X-4286670Y-8000D01*
X-4280830Y-2670D01*
X-4275000Y0D01*
X-4269170D01*
X-4263330Y-2670D01*
X-4258330Y-6670D01*
X-4254170Y-12000D01*
G01X-4223330D02*
X-4218330Y-5330D01*
X-4212500Y-1330D01*
X-4205000Y0D01*
X-4197500Y-2670D01*
X-4191670Y-8000D01*
X-4187500Y-17330D01*
X-4186670Y-28000D01*
X-4188330Y-38670D01*
X-4192500Y-45330D01*
X-4198330Y-50670D01*
X-4204170Y-52000D01*
X-4210000Y-50670D01*
X-4217500Y-45330D01*
X-4215000Y-80000D01*
X-4192500D01*
G01X-4150830Y-33330D02*
X-4145000Y-42670D01*
X-4140000Y-48000D01*
X-4133330Y-50670D01*
X-4127500Y-48000D01*
X-4123330Y-42670D01*
X-4120000Y-34670D01*
X-4119170Y-25330D01*
X-4120000Y-17330D01*
X-4123330Y-9330D01*
X-4128330Y-2670D01*
X-4134170Y0D01*
X-4140830Y-2670D01*
X-4146670Y-10660D01*
X-4150000Y-22670D01*
X-4150830Y-36000D01*
X-4149170Y-53330D01*
X-4146670Y-62670D01*
X-4142500Y-72000D01*
X-4136670Y-78670D01*
X-4130830Y-80000D01*
X-4125000Y-77330D01*
X-4120830Y-70670D01*
G01X-4256670Y276670D02*
X-4261670Y272670D01*
X-4267500Y270000D01*
X-4274170D01*
X-4281670Y274000D01*
X-4287500Y280670D01*
X-4291670Y288670D01*
X-4295000Y302000D01*
X-4295830Y314000D01*
X-4294170Y326000D01*
X-4291670Y334000D01*
X-4286670Y342000D01*
X-4280830Y347330D01*
X-4275000Y350000D01*
X-4269170D01*
X-4263330Y347330D01*
X-4258330Y343330D01*
X-4254170Y338000D01*
G01X-4223330D02*
X-4218330Y344670D01*
X-4212500Y348670D01*
X-4205000Y350000D01*
X-4197500Y347330D01*
X-4191670Y342000D01*
X-4187500Y332670D01*
X-4186670Y322000D01*
X-4188330Y311330D01*
X-4192500Y304670D01*
X-4198330Y299330D01*
X-4204170Y298000D01*
X-4210000Y299330D01*
X-4217500Y304670D01*
X-4215000Y270000D01*
X-4192500D01*
G01X-4150830Y283330D02*
X-4145830Y275330D01*
X-4140000Y271330D01*
X-4133330Y270000D01*
X-4125000Y272670D01*
X-4119170Y279330D01*
X-4117500Y287330D01*
X-4118330Y295340D01*
X-4121670Y302000D01*
X-4138330Y315330D01*
X-4145830Y324670D01*
X-4150830Y338000D01*
X-4152500Y350000D01*
X-4117500D01*
G01X-4256670Y1426670D02*
X-4261670Y1422670D01*
X-4267500Y1420000D01*
X-4274170D01*
X-4281670Y1424000D01*
X-4287500Y1430670D01*
X-4291670Y1438670D01*
X-4295000Y1452000D01*
X-4295830Y1464000D01*
X-4294170Y1476000D01*
X-4291670Y1484000D01*
X-4286670Y1492000D01*
X-4280830Y1497330D01*
X-4275000Y1500000D01*
X-4269170D01*
X-4263330Y1497330D01*
X-4258330Y1493330D01*
X-4254170Y1488000D01*
G01X-4195000Y1500000D02*
Y1420000D01*
X-4225830Y1477330D01*
X-4184170D01*
G01X-4135000Y1420000D02*
X-4141670Y1422670D01*
X-4146670Y1429330D01*
X-4150000Y1437330D01*
X-4152500Y1448000D01*
X-4153330Y1460000D01*
X-4152500Y1472000D01*
X-4150000Y1482670D01*
X-4146670Y1490670D01*
X-4141670Y1497330D01*
X-4135000Y1500000D01*
X-4128330Y1497330D01*
X-4123330Y1490670D01*
X-4120000Y1482670D01*
X-4117500Y1472000D01*
X-4116670Y1460000D01*
X-4117500Y1448000D01*
X-4120000Y1437330D01*
X-4123330Y1429330D01*
X-4128330Y1422670D01*
X-4135000Y1420000D01*
G01X-4256670Y1026670D02*
X-4261670Y1022670D01*
X-4267500Y1020000D01*
X-4274170D01*
X-4281670Y1024000D01*
X-4287500Y1030670D01*
X-4291670Y1038670D01*
X-4295000Y1052000D01*
X-4295830Y1064000D01*
X-4294170Y1076000D01*
X-4291670Y1084000D01*
X-4286670Y1092000D01*
X-4280830Y1097330D01*
X-4275000Y1100000D01*
X-4269170D01*
X-4263330Y1097330D01*
X-4258330Y1093330D01*
X-4254170Y1088000D01*
G01X-4195000Y1100000D02*
Y1020000D01*
X-4225830Y1077330D01*
X-4184170D01*
G01X-4125000Y1100000D02*
Y1020000D01*
X-4155830Y1077330D01*
X-4114170D01*
G01X-4173330Y1856670D02*
X-4177330Y1861670D01*
X-4180000Y1867500D01*
Y1874170D01*
X-4176000Y1881670D01*
X-4169330Y1887500D01*
X-4161330Y1891670D01*
X-4148000Y1895000D01*
X-4136000Y1895830D01*
X-4124000Y1894170D01*
X-4116000Y1891670D01*
X-4108000Y1886670D01*
X-4102670Y1880830D01*
X-4100000Y1875000D01*
Y1869170D01*
X-4102670Y1863330D01*
X-4106670Y1858330D01*
X-4112000Y1854170D01*
G01X-4116000Y1823330D02*
X-4106670Y1818330D01*
X-4101330Y1811670D01*
X-4100000Y1804170D01*
X-4101330Y1797500D01*
X-4108000Y1790830D01*
X-4116000Y1786670D01*
X-4124000Y1785830D01*
X-4133330Y1787500D01*
X-4140000Y1793330D01*
X-4142670Y1799170D01*
Y1806670D01*
G01Y1799170D02*
X-4146670Y1794170D01*
X-4153330Y1790000D01*
X-4161330Y1788330D01*
X-4169330Y1790000D01*
X-4176000Y1794170D01*
X-4180000Y1801670D01*
X-4178670Y1809170D01*
X-4173330Y1816670D01*
G01X-4133330Y1750830D02*
X-4142670Y1745000D01*
X-4148000Y1740000D01*
X-4150670Y1733330D01*
X-4148000Y1727500D01*
X-4142670Y1723330D01*
X-4134670Y1720000D01*
X-4125330Y1719170D01*
X-4117330Y1720000D01*
X-4109330Y1723330D01*
X-4102670Y1728330D01*
X-4100000Y1734170D01*
X-4102670Y1740830D01*
X-4110660Y1746670D01*
X-4122670Y1750000D01*
X-4136000Y1750830D01*
X-4153330Y1749170D01*
X-4162670Y1746670D01*
X-4172000Y1742500D01*
X-4178670Y1736670D01*
X-4180000Y1730830D01*
X-4177330Y1725000D01*
X-4170670Y1720830D01*
G01X-3426670Y-3656670D02*
X-3422670Y-3661670D01*
X-3420000Y-3667500D01*
Y-3674170D01*
X-3424000Y-3681670D01*
X-3430670Y-3687500D01*
X-3438670Y-3691670D01*
X-3452000Y-3695000D01*
X-3464000Y-3695830D01*
X-3476000Y-3694170D01*
X-3484000Y-3691670D01*
X-3492000Y-3686670D01*
X-3497330Y-3680830D01*
X-3500000Y-3675000D01*
Y-3669170D01*
X-3497330Y-3663330D01*
X-3493330Y-3658330D01*
X-3488000Y-3654170D01*
G01X-3500000Y-3605000D02*
X-3420000D01*
X-3436000Y-3615000D01*
G01X-3500000D02*
Y-3595000D01*
G01Y-3535000D02*
X-3420000D01*
X-3436000Y-3545000D01*
G01X-3500000D02*
Y-3525000D01*
G01X-3490670Y-3479170D02*
X-3497330Y-3473330D01*
X-3500000Y-3466670D01*
X-3497330Y-3460000D01*
X-3489340Y-3454170D01*
X-3477330Y-3450000D01*
X-3465330Y-3448330D01*
X-3450670D01*
X-3438670Y-3450000D01*
X-3428000Y-3454170D01*
X-3422670Y-3459170D01*
X-3420000Y-3465000D01*
X-3422670Y-3471670D01*
X-3428000Y-3476670D01*
X-3436000Y-3480000D01*
X-3446670Y-3481670D01*
X-3456000Y-3480000D01*
X-3465330Y-3475830D01*
X-3470670Y-3470830D01*
X-3472000Y-3465000D01*
X-3469340Y-3458330D01*
X-3462670Y-3453330D01*
X-3450670Y-3448330D01*
G01X-3373330Y-1243330D02*
X-3377330Y-1238330D01*
X-3380000Y-1232500D01*
Y-1225830D01*
X-3376000Y-1218330D01*
X-3369330Y-1212500D01*
X-3361330Y-1208330D01*
X-3348000Y-1205000D01*
X-3336000Y-1204170D01*
X-3324000Y-1205830D01*
X-3316000Y-1208330D01*
X-3308000Y-1213330D01*
X-3302670Y-1219170D01*
X-3300000Y-1225000D01*
Y-1230830D01*
X-3302670Y-1236670D01*
X-3306670Y-1241670D01*
X-3312000Y-1245830D01*
G01X-3300000Y-1295000D02*
X-3301330Y-1300830D01*
X-3305330Y-1307500D01*
X-3312000Y-1311670D01*
X-3321330Y-1313330D01*
X-3330660Y-1311670D01*
X-3338670Y-1306670D01*
X-3342670Y-1299170D01*
Y-1290830D01*
X-3345330Y-1285830D01*
X-3352000Y-1281670D01*
X-3361330Y-1280000D01*
X-3370670Y-1282500D01*
X-3377330Y-1288330D01*
X-3380000Y-1295000D01*
X-3377330Y-1301670D01*
X-3370670Y-1307500D01*
X-3361330Y-1310000D01*
X-3352000Y-1308330D01*
X-3345330Y-1304170D01*
X-3342670Y-1299170D01*
Y-1290830D01*
X-3338670Y-1283330D01*
X-3330660Y-1278330D01*
X-3321330Y-1276670D01*
X-3312000Y-1278330D01*
X-3305330Y-1282500D01*
X-3301330Y-1289170D01*
X-3300000Y-1295000D01*
G01X-3366670Y-1349170D02*
X-3374670Y-1354170D01*
X-3378670Y-1360000D01*
X-3380000Y-1366670D01*
X-3377330Y-1375000D01*
X-3370670Y-1380830D01*
X-3362670Y-1382500D01*
X-3354660Y-1381670D01*
X-3348000Y-1378330D01*
X-3334670Y-1361670D01*
X-3325330Y-1354170D01*
X-3312000Y-1349170D01*
X-3300000Y-1347500D01*
Y-1382500D01*
G01X-3773330Y-1243330D02*
X-3777330Y-1238330D01*
X-3780000Y-1232500D01*
Y-1225830D01*
X-3776000Y-1218330D01*
X-3769330Y-1212500D01*
X-3761330Y-1208330D01*
X-3748000Y-1205000D01*
X-3736000Y-1204170D01*
X-3724000Y-1205830D01*
X-3716000Y-1208330D01*
X-3708000Y-1213330D01*
X-3702670Y-1219170D01*
X-3700000Y-1225000D01*
Y-1230830D01*
X-3702670Y-1236670D01*
X-3706670Y-1241670D01*
X-3712000Y-1245830D01*
G01X-3700000Y-1295000D02*
X-3701330Y-1300830D01*
X-3705330Y-1307500D01*
X-3712000Y-1311670D01*
X-3721330Y-1313330D01*
X-3730660Y-1311670D01*
X-3738670Y-1306670D01*
X-3742670Y-1299170D01*
Y-1290830D01*
X-3745330Y-1285830D01*
X-3752000Y-1281670D01*
X-3761330Y-1280000D01*
X-3770670Y-1282500D01*
X-3777330Y-1288330D01*
X-3780000Y-1295000D01*
X-3777330Y-1301670D01*
X-3770670Y-1307500D01*
X-3761330Y-1310000D01*
X-3752000Y-1308330D01*
X-3745330Y-1304170D01*
X-3742670Y-1299170D01*
Y-1290830D01*
X-3738670Y-1283330D01*
X-3730660Y-1278330D01*
X-3721330Y-1276670D01*
X-3712000Y-1278330D01*
X-3705330Y-1282500D01*
X-3701330Y-1289170D01*
X-3700000Y-1295000D01*
G01X-3716000Y-1346670D02*
X-3706670Y-1351670D01*
X-3701330Y-1358330D01*
X-3700000Y-1365830D01*
X-3701330Y-1372500D01*
X-3708000Y-1379170D01*
X-3716000Y-1383330D01*
X-3724000Y-1384170D01*
X-3733330Y-1382500D01*
X-3740000Y-1376670D01*
X-3742670Y-1370830D01*
Y-1363330D01*
G01Y-1370830D02*
X-3746670Y-1375830D01*
X-3753330Y-1380000D01*
X-3761330Y-1381670D01*
X-3769330Y-1380000D01*
X-3776000Y-1375830D01*
X-3780000Y-1368330D01*
X-3778670Y-1360830D01*
X-3773330Y-1353330D01*
G01X-3426670Y-456670D02*
X-3422670Y-461670D01*
X-3420000Y-467500D01*
Y-474170D01*
X-3424000Y-481670D01*
X-3430670Y-487500D01*
X-3438670Y-491670D01*
X-3452000Y-495000D01*
X-3464000Y-495830D01*
X-3476000Y-494170D01*
X-3484000Y-491670D01*
X-3492000Y-486670D01*
X-3497330Y-480830D01*
X-3500000Y-475000D01*
Y-469170D01*
X-3497330Y-463330D01*
X-3493330Y-458330D01*
X-3488000Y-454170D01*
G01X-3500000Y-406670D02*
X-3482670Y-405000D01*
X-3468000Y-402500D01*
X-3454670Y-399170D01*
X-3440000Y-395000D01*
X-3420000Y-388330D01*
Y-421670D01*
G01X-3500000Y-335000D02*
X-3420000D01*
X-3436000Y-345000D01*
G01X-3500000D02*
Y-325000D01*
G01X-3373330Y1856670D02*
X-3377330Y1861670D01*
X-3380000Y1867500D01*
Y1874170D01*
X-3376000Y1881670D01*
X-3369330Y1887500D01*
X-3361330Y1891670D01*
X-3348000Y1895000D01*
X-3336000Y1895830D01*
X-3324000Y1894170D01*
X-3316000Y1891670D01*
X-3308000Y1886670D01*
X-3302670Y1880830D01*
X-3300000Y1875000D01*
Y1869170D01*
X-3302670Y1863330D01*
X-3306670Y1858330D01*
X-3312000Y1854170D01*
G01X-3316000Y1823330D02*
X-3306670Y1818330D01*
X-3301330Y1811670D01*
X-3300000Y1804170D01*
X-3301330Y1797500D01*
X-3308000Y1790830D01*
X-3316000Y1786670D01*
X-3324000Y1785830D01*
X-3333330Y1787500D01*
X-3340000Y1793330D01*
X-3342670Y1799170D01*
Y1806670D01*
G01Y1799170D02*
X-3346670Y1794170D01*
X-3353330Y1790000D01*
X-3361330Y1788330D01*
X-3369330Y1790000D01*
X-3376000Y1794170D01*
X-3380000Y1801670D01*
X-3378670Y1809170D01*
X-3373330Y1816670D01*
G01X-3300000Y1725000D02*
X-3380000D01*
X-3322670Y1755830D01*
Y1714170D01*
G01X-3773330Y1856670D02*
X-3777330Y1861670D01*
X-3780000Y1867500D01*
Y1874170D01*
X-3776000Y1881670D01*
X-3769330Y1887500D01*
X-3761330Y1891670D01*
X-3748000Y1895000D01*
X-3736000Y1895830D01*
X-3724000Y1894170D01*
X-3716000Y1891670D01*
X-3708000Y1886670D01*
X-3702670Y1880830D01*
X-3700000Y1875000D01*
Y1869170D01*
X-3702670Y1863330D01*
X-3706670Y1858330D01*
X-3712000Y1854170D01*
G01X-3716000Y1823330D02*
X-3706670Y1818330D01*
X-3701330Y1811670D01*
X-3700000Y1804170D01*
X-3701330Y1797500D01*
X-3708000Y1790830D01*
X-3716000Y1786670D01*
X-3724000Y1785830D01*
X-3733330Y1787500D01*
X-3740000Y1793330D01*
X-3742670Y1799170D01*
Y1806670D01*
G01Y1799170D02*
X-3746670Y1794170D01*
X-3753330Y1790000D01*
X-3761330Y1788330D01*
X-3769330Y1790000D01*
X-3776000Y1794170D01*
X-3780000Y1801670D01*
X-3778670Y1809170D01*
X-3773330Y1816670D01*
G01X-3712000Y1753330D02*
X-3705330Y1748330D01*
X-3701330Y1742500D01*
X-3700000Y1735000D01*
X-3702670Y1727500D01*
X-3708000Y1721670D01*
X-3717330Y1717500D01*
X-3728000Y1716670D01*
X-3738670Y1718330D01*
X-3745330Y1722500D01*
X-3750670Y1728330D01*
X-3752000Y1734170D01*
X-3750670Y1740000D01*
X-3745330Y1747500D01*
X-3780000Y1745000D01*
Y1722500D01*
G01X-3791670Y3500000D02*
Y3420000D01*
X-3770830D01*
X-3764170Y3424000D01*
X-3760000Y3429330D01*
X-3758330Y3440000D01*
X-3760000Y3450670D01*
X-3765000Y3457330D01*
X-3770830Y3461330D01*
X-3791670D01*
G01X-3770830D02*
X-3758330Y3500000D01*
G01X-3720830Y3433330D02*
X-3715830Y3425330D01*
X-3710000Y3421330D01*
X-3703330Y3420000D01*
X-3695000Y3422670D01*
X-3689170Y3429330D01*
X-3687500Y3437330D01*
X-3688330Y3445340D01*
X-3691670Y3452000D01*
X-3708330Y3465330D01*
X-3715830Y3474670D01*
X-3720830Y3488000D01*
X-3722500Y3500000D01*
X-3687500D01*
G01X-3636670D02*
X-3635000Y3482670D01*
X-3632500Y3468000D01*
X-3629170Y3454670D01*
X-3625000Y3440000D01*
X-3618330Y3420000D01*
X-3651670D01*
G01X-2826670Y-3856670D02*
X-2822670Y-3861670D01*
X-2820000Y-3867500D01*
Y-3874170D01*
X-2824000Y-3881670D01*
X-2830670Y-3887500D01*
X-2838670Y-3891670D01*
X-2852000Y-3895000D01*
X-2864000Y-3895830D01*
X-2876000Y-3894170D01*
X-2884000Y-3891670D01*
X-2892000Y-3886670D01*
X-2897330Y-3880830D01*
X-2900000Y-3875000D01*
Y-3869170D01*
X-2897330Y-3863330D01*
X-2893330Y-3858330D01*
X-2888000Y-3854170D01*
G01X-2900000Y-3805000D02*
X-2820000D01*
X-2836000Y-3815000D01*
G01X-2900000D02*
Y-3795000D01*
G01Y-3735000D02*
X-2820000D01*
X-2836000Y-3745000D01*
G01X-2900000D02*
Y-3725000D01*
G01Y-3666670D02*
X-2882670Y-3665000D01*
X-2868000Y-3662500D01*
X-2854670Y-3659170D01*
X-2840000Y-3655000D01*
X-2820000Y-3648330D01*
Y-3681670D01*
G01X-2650000Y-3658330D02*
X-2730000D01*
Y-3679170D01*
X-2726000Y-3685830D01*
X-2720670Y-3690000D01*
X-2710000Y-3691670D01*
X-2699330Y-3690000D01*
X-2692670Y-3685000D01*
X-2688670Y-3679170D01*
Y-3658330D01*
G01Y-3679170D02*
X-2650000Y-3691670D01*
G01X-2666000Y-3726670D02*
X-2656670Y-3731670D01*
X-2651330Y-3738330D01*
X-2650000Y-3745830D01*
X-2651330Y-3752500D01*
X-2658000Y-3759170D01*
X-2666000Y-3763330D01*
X-2674000Y-3764170D01*
X-2683330Y-3762500D01*
X-2690000Y-3756670D01*
X-2692670Y-3750830D01*
Y-3743330D01*
G01Y-3750830D02*
X-2696670Y-3755830D01*
X-2703330Y-3760000D01*
X-2711330Y-3761670D01*
X-2719330Y-3760000D01*
X-2726000Y-3755830D01*
X-2730000Y-3748330D01*
X-2728670Y-3740830D01*
X-2723330Y-3733330D01*
G01X-2650000Y-3825000D02*
X-2730000D01*
X-2672670Y-3794170D01*
Y-3835830D01*
G01X-3026670Y-3656670D02*
X-3022670Y-3661670D01*
X-3020000Y-3667500D01*
Y-3674170D01*
X-3024000Y-3681670D01*
X-3030670Y-3687500D01*
X-3038670Y-3691670D01*
X-3052000Y-3695000D01*
X-3064000Y-3695830D01*
X-3076000Y-3694170D01*
X-3084000Y-3691670D01*
X-3092000Y-3686670D01*
X-3097330Y-3680830D01*
X-3100000Y-3675000D01*
Y-3669170D01*
X-3097330Y-3663330D01*
X-3093330Y-3658330D01*
X-3088000Y-3654170D01*
G01X-3100000Y-3605000D02*
X-3020000D01*
X-3036000Y-3615000D01*
G01X-3100000D02*
Y-3595000D01*
G01Y-3535000D02*
X-3020000D01*
X-3036000Y-3545000D01*
G01X-3100000D02*
Y-3525000D01*
G01Y-3465000D02*
X-3098670Y-3459170D01*
X-3094670Y-3452500D01*
X-3088000Y-3448330D01*
X-3078670Y-3446670D01*
X-3069340Y-3448330D01*
X-3061330Y-3453330D01*
X-3057330Y-3460830D01*
Y-3469170D01*
X-3054670Y-3474170D01*
X-3048000Y-3478330D01*
X-3038670Y-3480000D01*
X-3029330Y-3477500D01*
X-3022670Y-3471670D01*
X-3020000Y-3465000D01*
X-3022670Y-3458330D01*
X-3029330Y-3452500D01*
X-3038670Y-3450000D01*
X-3048000Y-3451670D01*
X-3054670Y-3455830D01*
X-3057330Y-3460830D01*
Y-3469170D01*
X-3061330Y-3476670D01*
X-3069340Y-3481670D01*
X-3078670Y-3483330D01*
X-3088000Y-3481670D01*
X-3094670Y-3477500D01*
X-3098670Y-3470830D01*
X-3100000Y-3465000D01*
G01X-2326670Y-3656670D02*
X-2322670Y-3661670D01*
X-2320000Y-3667500D01*
Y-3674170D01*
X-2324000Y-3681670D01*
X-2330670Y-3687500D01*
X-2338670Y-3691670D01*
X-2352000Y-3695000D01*
X-2364000Y-3695830D01*
X-2376000Y-3694170D01*
X-2384000Y-3691670D01*
X-2392000Y-3686670D01*
X-2397330Y-3680830D01*
X-2400000Y-3675000D01*
Y-3669170D01*
X-2397330Y-3663330D01*
X-2393330Y-3658330D01*
X-2388000Y-3654170D01*
G01X-2400000Y-3605000D02*
X-2320000D01*
X-2336000Y-3615000D01*
G01X-2400000D02*
Y-3595000D01*
G01Y-3535000D02*
X-2320000D01*
X-2336000Y-3545000D01*
G01X-2400000D02*
Y-3525000D01*
G01X-2366670Y-3480830D02*
X-2357330Y-3475000D01*
X-2352000Y-3470000D01*
X-2349330Y-3463330D01*
X-2352000Y-3457500D01*
X-2357330Y-3453330D01*
X-2365330Y-3450000D01*
X-2374670Y-3449170D01*
X-2382670Y-3450000D01*
X-2390670Y-3453330D01*
X-2397330Y-3458330D01*
X-2400000Y-3464170D01*
X-2397330Y-3470830D01*
X-2389340Y-3476670D01*
X-2377330Y-3480000D01*
X-2364000Y-3480830D01*
X-2346670Y-3479170D01*
X-2337330Y-3476670D01*
X-2328000Y-3472500D01*
X-2321330Y-3466670D01*
X-2320000Y-3460830D01*
X-2322670Y-3455000D01*
X-2329330Y-3450830D01*
G01X-2673330Y-1243330D02*
X-2677330Y-1238330D01*
X-2680000Y-1232500D01*
Y-1225830D01*
X-2676000Y-1218330D01*
X-2669330Y-1212500D01*
X-2661330Y-1208330D01*
X-2648000Y-1205000D01*
X-2636000Y-1204170D01*
X-2624000Y-1205830D01*
X-2616000Y-1208330D01*
X-2608000Y-1213330D01*
X-2602670Y-1219170D01*
X-2600000Y-1225000D01*
Y-1230830D01*
X-2602670Y-1236670D01*
X-2606670Y-1241670D01*
X-2612000Y-1245830D01*
G01X-2600000Y-1295000D02*
X-2601330Y-1300830D01*
X-2605330Y-1307500D01*
X-2612000Y-1311670D01*
X-2621330Y-1313330D01*
X-2630660Y-1311670D01*
X-2638670Y-1306670D01*
X-2642670Y-1299170D01*
Y-1290830D01*
X-2645330Y-1285830D01*
X-2652000Y-1281670D01*
X-2661330Y-1280000D01*
X-2670670Y-1282500D01*
X-2677330Y-1288330D01*
X-2680000Y-1295000D01*
X-2677330Y-1301670D01*
X-2670670Y-1307500D01*
X-2661330Y-1310000D01*
X-2652000Y-1308330D01*
X-2645330Y-1304170D01*
X-2642670Y-1299170D01*
Y-1290830D01*
X-2638670Y-1283330D01*
X-2630660Y-1278330D01*
X-2621330Y-1276670D01*
X-2612000Y-1278330D01*
X-2605330Y-1282500D01*
X-2601330Y-1289170D01*
X-2600000Y-1295000D01*
G01X-2680000Y-1365000D02*
X-2677330Y-1358330D01*
X-2670670Y-1353330D01*
X-2662670Y-1350000D01*
X-2652000Y-1347500D01*
X-2640000Y-1346670D01*
X-2628000Y-1347500D01*
X-2617330Y-1350000D01*
X-2609330Y-1353330D01*
X-2602670Y-1358330D01*
X-2600000Y-1365000D01*
X-2602670Y-1371670D01*
X-2609330Y-1376670D01*
X-2617330Y-1380000D01*
X-2628000Y-1382500D01*
X-2640000Y-1383330D01*
X-2652000Y-1382500D01*
X-2662670Y-1380000D01*
X-2670670Y-1376670D01*
X-2677330Y-1371670D01*
X-2680000Y-1365000D01*
G01X-2373330Y-1243330D02*
X-2377330Y-1238330D01*
X-2380000Y-1232500D01*
Y-1225830D01*
X-2376000Y-1218330D01*
X-2369330Y-1212500D01*
X-2361330Y-1208330D01*
X-2348000Y-1205000D01*
X-2336000Y-1204170D01*
X-2324000Y-1205830D01*
X-2316000Y-1208330D01*
X-2308000Y-1213330D01*
X-2302670Y-1219170D01*
X-2300000Y-1225000D01*
Y-1230830D01*
X-2302670Y-1236670D01*
X-2306670Y-1241670D01*
X-2312000Y-1245830D01*
G01X-2300000Y-1293330D02*
X-2317330Y-1295000D01*
X-2332000Y-1297500D01*
X-2345330Y-1300830D01*
X-2360000Y-1305000D01*
X-2380000Y-1311670D01*
Y-1278330D01*
G01X-2309330Y-1350830D02*
X-2302670Y-1356670D01*
X-2300000Y-1363330D01*
X-2302670Y-1370000D01*
X-2310660Y-1375830D01*
X-2322670Y-1380000D01*
X-2334670Y-1381670D01*
X-2349330D01*
X-2361330Y-1380000D01*
X-2372000Y-1375830D01*
X-2377330Y-1370830D01*
X-2380000Y-1365000D01*
X-2377330Y-1358330D01*
X-2372000Y-1353330D01*
X-2364000Y-1350000D01*
X-2353330Y-1348330D01*
X-2344000Y-1350000D01*
X-2334670Y-1354170D01*
X-2329330Y-1359170D01*
X-2328000Y-1365000D01*
X-2330660Y-1371670D01*
X-2337330Y-1376670D01*
X-2349330Y-1381670D01*
G01X-3073330Y-1243330D02*
X-3077330Y-1238330D01*
X-3080000Y-1232500D01*
Y-1225830D01*
X-3076000Y-1218330D01*
X-3069330Y-1212500D01*
X-3061330Y-1208330D01*
X-3048000Y-1205000D01*
X-3036000Y-1204170D01*
X-3024000Y-1205830D01*
X-3016000Y-1208330D01*
X-3008000Y-1213330D01*
X-3002670Y-1219170D01*
X-3000000Y-1225000D01*
Y-1230830D01*
X-3002670Y-1236670D01*
X-3006670Y-1241670D01*
X-3012000Y-1245830D01*
G01X-3000000Y-1295000D02*
X-3001330Y-1300830D01*
X-3005330Y-1307500D01*
X-3012000Y-1311670D01*
X-3021330Y-1313330D01*
X-3030660Y-1311670D01*
X-3038670Y-1306670D01*
X-3042670Y-1299170D01*
Y-1290830D01*
X-3045330Y-1285830D01*
X-3052000Y-1281670D01*
X-3061330Y-1280000D01*
X-3070670Y-1282500D01*
X-3077330Y-1288330D01*
X-3080000Y-1295000D01*
X-3077330Y-1301670D01*
X-3070670Y-1307500D01*
X-3061330Y-1310000D01*
X-3052000Y-1308330D01*
X-3045330Y-1304170D01*
X-3042670Y-1299170D01*
Y-1290830D01*
X-3038670Y-1283330D01*
X-3030660Y-1278330D01*
X-3021330Y-1276670D01*
X-3012000Y-1278330D01*
X-3005330Y-1282500D01*
X-3001330Y-1289170D01*
X-3000000Y-1295000D01*
G01Y-1365000D02*
X-3080000D01*
X-3064000Y-1355000D01*
G01X-3000000D02*
Y-1375000D01*
G01X-2650000Y-558330D02*
X-2730000D01*
Y-579170D01*
X-2726000Y-585830D01*
X-2720670Y-590000D01*
X-2710000Y-591670D01*
X-2699330Y-590000D01*
X-2692670Y-585000D01*
X-2688670Y-579170D01*
Y-558330D01*
G01Y-579170D02*
X-2650000Y-591670D01*
G01X-2666000Y-626670D02*
X-2656670Y-631670D01*
X-2651330Y-638330D01*
X-2650000Y-645830D01*
X-2651330Y-652500D01*
X-2658000Y-659170D01*
X-2666000Y-663330D01*
X-2674000Y-664170D01*
X-2683330Y-662500D01*
X-2690000Y-656670D01*
X-2692670Y-650830D01*
Y-643330D01*
G01Y-650830D02*
X-2696670Y-655830D01*
X-2703330Y-660000D01*
X-2711330Y-661670D01*
X-2719330Y-660000D01*
X-2726000Y-655830D01*
X-2730000Y-648330D01*
X-2728670Y-640830D01*
X-2723330Y-633330D01*
G01X-2730000Y-715000D02*
X-2727330Y-708330D01*
X-2720670Y-703330D01*
X-2712670Y-700000D01*
X-2702000Y-697500D01*
X-2690000Y-696670D01*
X-2678000Y-697500D01*
X-2667330Y-700000D01*
X-2659330Y-703330D01*
X-2652670Y-708330D01*
X-2650000Y-715000D01*
X-2652670Y-721670D01*
X-2659330Y-726670D01*
X-2667330Y-730000D01*
X-2678000Y-732500D01*
X-2690000Y-733330D01*
X-2702000Y-732500D01*
X-2712670Y-730000D01*
X-2720670Y-726670D01*
X-2727330Y-721670D01*
X-2730000Y-715000D01*
G01X-3026670Y-456670D02*
X-3022670Y-461670D01*
X-3020000Y-467500D01*
Y-474170D01*
X-3024000Y-481670D01*
X-3030670Y-487500D01*
X-3038670Y-491670D01*
X-3052000Y-495000D01*
X-3064000Y-495830D01*
X-3076000Y-494170D01*
X-3084000Y-491670D01*
X-3092000Y-486670D01*
X-3097330Y-480830D01*
X-3100000Y-475000D01*
Y-469170D01*
X-3097330Y-463330D01*
X-3093330Y-458330D01*
X-3088000Y-454170D01*
G01X-3100000Y-406670D02*
X-3082670Y-405000D01*
X-3068000Y-402500D01*
X-3054670Y-399170D01*
X-3040000Y-395000D01*
X-3020000Y-388330D01*
Y-421670D01*
G01Y-335000D02*
X-3022670Y-341670D01*
X-3029330Y-346670D01*
X-3037330Y-350000D01*
X-3048000Y-352500D01*
X-3060000Y-353330D01*
X-3072000Y-352500D01*
X-3082670Y-350000D01*
X-3090670Y-346670D01*
X-3097330Y-341670D01*
X-3100000Y-335000D01*
X-3097330Y-328330D01*
X-3090670Y-323330D01*
X-3082670Y-320000D01*
X-3072000Y-317500D01*
X-3060000Y-316670D01*
X-3048000Y-317500D01*
X-3037330Y-320000D01*
X-3029330Y-323330D01*
X-3022670Y-328330D01*
X-3020000Y-335000D01*
G01X-2326670Y-506670D02*
X-2322670Y-511670D01*
X-2320000Y-517500D01*
Y-524170D01*
X-2324000Y-531670D01*
X-2330670Y-537500D01*
X-2338670Y-541670D01*
X-2352000Y-545000D01*
X-2364000Y-545830D01*
X-2376000Y-544170D01*
X-2384000Y-541670D01*
X-2392000Y-536670D01*
X-2397330Y-530830D01*
X-2400000Y-525000D01*
Y-519170D01*
X-2397330Y-513330D01*
X-2393330Y-508330D01*
X-2388000Y-504170D01*
G01X-2366670Y-470830D02*
X-2357330Y-465000D01*
X-2352000Y-460000D01*
X-2349330Y-453330D01*
X-2352000Y-447500D01*
X-2357330Y-443330D01*
X-2365330Y-440000D01*
X-2374670Y-439170D01*
X-2382670Y-440000D01*
X-2390670Y-443330D01*
X-2397330Y-448330D01*
X-2400000Y-454170D01*
X-2397330Y-460830D01*
X-2389340Y-466670D01*
X-2377330Y-470000D01*
X-2364000Y-470830D01*
X-2346670Y-469170D01*
X-2337330Y-466670D01*
X-2328000Y-462500D01*
X-2321330Y-456670D01*
X-2320000Y-450830D01*
X-2322670Y-445000D01*
X-2329330Y-440830D01*
G01X-2400000Y-385000D02*
X-2398670Y-379170D01*
X-2394670Y-372500D01*
X-2388000Y-368330D01*
X-2378670Y-366670D01*
X-2369340Y-368330D01*
X-2361330Y-373330D01*
X-2357330Y-380830D01*
Y-389170D01*
X-2354670Y-394170D01*
X-2348000Y-398330D01*
X-2338670Y-400000D01*
X-2329330Y-397500D01*
X-2322670Y-391670D01*
X-2320000Y-385000D01*
X-2322670Y-378330D01*
X-2329330Y-372500D01*
X-2338670Y-370000D01*
X-2348000Y-371670D01*
X-2354670Y-375830D01*
X-2357330Y-380830D01*
Y-389170D01*
X-2361330Y-396670D01*
X-2369340Y-401670D01*
X-2378670Y-403330D01*
X-2388000Y-401670D01*
X-2394670Y-397500D01*
X-2398670Y-390830D01*
X-2400000Y-385000D01*
G01X-2826670Y-706670D02*
X-2822670Y-711670D01*
X-2820000Y-717500D01*
Y-724170D01*
X-2824000Y-731670D01*
X-2830670Y-737500D01*
X-2838670Y-741670D01*
X-2852000Y-745000D01*
X-2864000Y-745830D01*
X-2876000Y-744170D01*
X-2884000Y-741670D01*
X-2892000Y-736670D01*
X-2897330Y-730830D01*
X-2900000Y-725000D01*
Y-719170D01*
X-2897330Y-713330D01*
X-2893330Y-708330D01*
X-2888000Y-704170D01*
G01X-2866670Y-670830D02*
X-2857330Y-665000D01*
X-2852000Y-660000D01*
X-2849330Y-653330D01*
X-2852000Y-647500D01*
X-2857330Y-643330D01*
X-2865330Y-640000D01*
X-2874670Y-639170D01*
X-2882670Y-640000D01*
X-2890670Y-643330D01*
X-2897330Y-648330D01*
X-2900000Y-654170D01*
X-2897330Y-660830D01*
X-2889340Y-666670D01*
X-2877330Y-670000D01*
X-2864000Y-670830D01*
X-2846670Y-669170D01*
X-2837330Y-666670D01*
X-2828000Y-662500D01*
X-2821330Y-656670D01*
X-2820000Y-650830D01*
X-2822670Y-645000D01*
X-2829330Y-640830D01*
G01X-2890670Y-599170D02*
X-2897330Y-593330D01*
X-2900000Y-586670D01*
X-2897330Y-580000D01*
X-2889340Y-574170D01*
X-2877330Y-570000D01*
X-2865330Y-568330D01*
X-2850670D01*
X-2838670Y-570000D01*
X-2828000Y-574170D01*
X-2822670Y-579170D01*
X-2820000Y-585000D01*
X-2822670Y-591670D01*
X-2828000Y-596670D01*
X-2836000Y-600000D01*
X-2846670Y-601670D01*
X-2856000Y-600000D01*
X-2865330Y-595830D01*
X-2870670Y-590830D01*
X-2872000Y-585000D01*
X-2869340Y-578330D01*
X-2862670Y-573330D01*
X-2850670Y-568330D01*
G01X-2673330Y1856670D02*
X-2677330Y1861670D01*
X-2680000Y1867500D01*
Y1874170D01*
X-2676000Y1881670D01*
X-2669330Y1887500D01*
X-2661330Y1891670D01*
X-2648000Y1895000D01*
X-2636000Y1895830D01*
X-2624000Y1894170D01*
X-2616000Y1891670D01*
X-2608000Y1886670D01*
X-2602670Y1880830D01*
X-2600000Y1875000D01*
Y1869170D01*
X-2602670Y1863330D01*
X-2606670Y1858330D01*
X-2612000Y1854170D01*
G01X-2616000Y1823330D02*
X-2606670Y1818330D01*
X-2601330Y1811670D01*
X-2600000Y1804170D01*
X-2601330Y1797500D01*
X-2608000Y1790830D01*
X-2616000Y1786670D01*
X-2624000Y1785830D01*
X-2633330Y1787500D01*
X-2640000Y1793330D01*
X-2642670Y1799170D01*
Y1806670D01*
G01Y1799170D02*
X-2646670Y1794170D01*
X-2653330Y1790000D01*
X-2661330Y1788330D01*
X-2669330Y1790000D01*
X-2676000Y1794170D01*
X-2680000Y1801670D01*
X-2678670Y1809170D01*
X-2673330Y1816670D01*
G01X-2666670Y1750830D02*
X-2674670Y1745830D01*
X-2678670Y1740000D01*
X-2680000Y1733330D01*
X-2677330Y1725000D01*
X-2670670Y1719170D01*
X-2662670Y1717500D01*
X-2654660Y1718330D01*
X-2648000Y1721670D01*
X-2634670Y1738330D01*
X-2625330Y1745830D01*
X-2612000Y1750830D01*
X-2600000Y1752500D01*
Y1717500D01*
G01X-3073330Y1856670D02*
X-3077330Y1861670D01*
X-3080000Y1867500D01*
Y1874170D01*
X-3076000Y1881670D01*
X-3069330Y1887500D01*
X-3061330Y1891670D01*
X-3048000Y1895000D01*
X-3036000Y1895830D01*
X-3024000Y1894170D01*
X-3016000Y1891670D01*
X-3008000Y1886670D01*
X-3002670Y1880830D01*
X-3000000Y1875000D01*
Y1869170D01*
X-3002670Y1863330D01*
X-3006670Y1858330D01*
X-3012000Y1854170D01*
G01X-3016000Y1823330D02*
X-3006670Y1818330D01*
X-3001330Y1811670D01*
X-3000000Y1804170D01*
X-3001330Y1797500D01*
X-3008000Y1790830D01*
X-3016000Y1786670D01*
X-3024000Y1785830D01*
X-3033330Y1787500D01*
X-3040000Y1793330D01*
X-3042670Y1799170D01*
Y1806670D01*
G01Y1799170D02*
X-3046670Y1794170D01*
X-3053330Y1790000D01*
X-3061330Y1788330D01*
X-3069330Y1790000D01*
X-3076000Y1794170D01*
X-3080000Y1801670D01*
X-3078670Y1809170D01*
X-3073330Y1816670D01*
G01X-3016000Y1753330D02*
X-3006670Y1748330D01*
X-3001330Y1741670D01*
X-3000000Y1734170D01*
X-3001330Y1727500D01*
X-3008000Y1720830D01*
X-3016000Y1716670D01*
X-3024000Y1715830D01*
X-3033330Y1717500D01*
X-3040000Y1723330D01*
X-3042670Y1729170D01*
Y1736670D01*
G01Y1729170D02*
X-3046670Y1724170D01*
X-3053330Y1720000D01*
X-3061330Y1718330D01*
X-3069330Y1720000D01*
X-3076000Y1724170D01*
X-3080000Y1731670D01*
X-3078670Y1739170D01*
X-3073330Y1746670D01*
G01X-2373330Y1856670D02*
X-2377330Y1861670D01*
X-2380000Y1867500D01*
Y1874170D01*
X-2376000Y1881670D01*
X-2369330Y1887500D01*
X-2361330Y1891670D01*
X-2348000Y1895000D01*
X-2336000Y1895830D01*
X-2324000Y1894170D01*
X-2316000Y1891670D01*
X-2308000Y1886670D01*
X-2302670Y1880830D01*
X-2300000Y1875000D01*
Y1869170D01*
X-2302670Y1863330D01*
X-2306670Y1858330D01*
X-2312000Y1854170D01*
G01X-2316000Y1823330D02*
X-2306670Y1818330D01*
X-2301330Y1811670D01*
X-2300000Y1804170D01*
X-2301330Y1797500D01*
X-2308000Y1790830D01*
X-2316000Y1786670D01*
X-2324000Y1785830D01*
X-2333330Y1787500D01*
X-2340000Y1793330D01*
X-2342670Y1799170D01*
Y1806670D01*
G01Y1799170D02*
X-2346670Y1794170D01*
X-2353330Y1790000D01*
X-2361330Y1788330D01*
X-2369330Y1790000D01*
X-2376000Y1794170D01*
X-2380000Y1801670D01*
X-2378670Y1809170D01*
X-2373330Y1816670D01*
G01X-2300000Y1735000D02*
X-2380000D01*
X-2364000Y1745000D01*
G01X-2300000D02*
Y1725000D01*
G01X-3091670Y3500000D02*
Y3420000D01*
X-3070830D01*
X-3064170Y3424000D01*
X-3060000Y3429330D01*
X-3058330Y3440000D01*
X-3060000Y3450670D01*
X-3065000Y3457330D01*
X-3070830Y3461330D01*
X-3091670D01*
G01X-3070830D02*
X-3058330Y3500000D01*
G01X-3020830Y3433330D02*
X-3015830Y3425330D01*
X-3010000Y3421330D01*
X-3003330Y3420000D01*
X-2995000Y3422670D01*
X-2989170Y3429330D01*
X-2987500Y3437330D01*
X-2988330Y3445340D01*
X-2991670Y3452000D01*
X-3008330Y3465330D01*
X-3015830Y3474670D01*
X-3020830Y3488000D01*
X-3022500Y3500000D01*
X-2987500D01*
G01X-2950830Y3466670D02*
X-2945000Y3457330D01*
X-2940000Y3452000D01*
X-2933330Y3449330D01*
X-2927500Y3452000D01*
X-2923330Y3457330D01*
X-2920000Y3465330D01*
X-2919170Y3474670D01*
X-2920000Y3482670D01*
X-2923330Y3490670D01*
X-2928330Y3497330D01*
X-2934170Y3500000D01*
X-2940830Y3497330D01*
X-2946670Y3489340D01*
X-2950000Y3477330D01*
X-2950830Y3464000D01*
X-2949170Y3446670D01*
X-2946670Y3437330D01*
X-2942500Y3428000D01*
X-2936670Y3421330D01*
X-2930830Y3420000D01*
X-2925000Y3422670D01*
X-2920830Y3429330D01*
G01X-2441670Y3500000D02*
Y3420000D01*
X-2420830D01*
X-2414170Y3424000D01*
X-2410000Y3429330D01*
X-2408330Y3440000D01*
X-2410000Y3450670D01*
X-2415000Y3457330D01*
X-2420830Y3461330D01*
X-2441670D01*
G01X-2420830D02*
X-2408330Y3500000D01*
G01X-2370830Y3433330D02*
X-2365830Y3425330D01*
X-2360000Y3421330D01*
X-2353330Y3420000D01*
X-2345000Y3422670D01*
X-2339170Y3429330D01*
X-2337500Y3437330D01*
X-2338330Y3445340D01*
X-2341670Y3452000D01*
X-2358330Y3465330D01*
X-2365830Y3474670D01*
X-2370830Y3488000D01*
X-2372500Y3500000D01*
X-2337500D01*
G01X-2303330Y3488000D02*
X-2298330Y3494670D01*
X-2292500Y3498670D01*
X-2285000Y3500000D01*
X-2277500Y3497330D01*
X-2271670Y3492000D01*
X-2267500Y3482670D01*
X-2266670Y3472000D01*
X-2268330Y3461330D01*
X-2272500Y3454670D01*
X-2278330Y3449330D01*
X-2284170Y3448000D01*
X-2290000Y3449330D01*
X-2297500Y3454670D01*
X-2295000Y3420000D01*
X-2272500D01*
G01X-2026670Y-3656670D02*
X-2022670Y-3661670D01*
X-2020000Y-3667500D01*
Y-3674170D01*
X-2024000Y-3681670D01*
X-2030670Y-3687500D01*
X-2038670Y-3691670D01*
X-2052000Y-3695000D01*
X-2064000Y-3695830D01*
X-2076000Y-3694170D01*
X-2084000Y-3691670D01*
X-2092000Y-3686670D01*
X-2097330Y-3680830D01*
X-2100000Y-3675000D01*
Y-3669170D01*
X-2097330Y-3663330D01*
X-2093330Y-3658330D01*
X-2088000Y-3654170D01*
G01X-2100000Y-3605000D02*
X-2020000D01*
X-2036000Y-3615000D01*
G01X-2100000D02*
Y-3595000D01*
G01Y-3535000D02*
X-2020000D01*
X-2036000Y-3545000D01*
G01X-2100000D02*
Y-3525000D01*
G01X-2088000Y-3483330D02*
X-2094670Y-3478330D01*
X-2098670Y-3472500D01*
X-2100000Y-3465000D01*
X-2097330Y-3457500D01*
X-2092000Y-3451670D01*
X-2082670Y-3447500D01*
X-2072000Y-3446670D01*
X-2061330Y-3448330D01*
X-2054670Y-3452500D01*
X-2049330Y-3458330D01*
X-2048000Y-3464170D01*
X-2049330Y-3470000D01*
X-2054670Y-3477500D01*
X-2020000Y-3475000D01*
Y-3452500D01*
G01X-1843330Y-3126670D02*
X-1838330Y-3122670D01*
X-1832500Y-3120000D01*
X-1825830D01*
X-1818330Y-3124000D01*
X-1812500Y-3130670D01*
X-1808330Y-3138670D01*
X-1805000Y-3152000D01*
X-1804170Y-3164000D01*
X-1805830Y-3176000D01*
X-1808330Y-3184000D01*
X-1813330Y-3192000D01*
X-1819170Y-3197330D01*
X-1825000Y-3200000D01*
X-1830830D01*
X-1836670Y-3197330D01*
X-1841670Y-3193330D01*
X-1845830Y-3188000D01*
G01X-1895000Y-3200000D02*
Y-3120000D01*
X-1885000Y-3136000D01*
G01Y-3200000D02*
X-1905000D01*
G01X-1965000Y-3120000D02*
X-1958330Y-3122670D01*
X-1953330Y-3129330D01*
X-1950000Y-3137330D01*
X-1947500Y-3148000D01*
X-1946670Y-3160000D01*
X-1947500Y-3172000D01*
X-1950000Y-3182670D01*
X-1953330Y-3190670D01*
X-1958330Y-3197330D01*
X-1965000Y-3200000D01*
X-1971670Y-3197330D01*
X-1976670Y-3190670D01*
X-1980000Y-3182670D01*
X-1982500Y-3172000D01*
X-1983330Y-3160000D01*
X-1982500Y-3148000D01*
X-1980000Y-3137330D01*
X-1976670Y-3129330D01*
X-1971670Y-3122670D01*
X-1965000Y-3120000D01*
G01X-2033330Y-3200000D02*
X-2035000Y-3182670D01*
X-2037500Y-3168000D01*
X-2040830Y-3154670D01*
X-2045000Y-3140000D01*
X-2051670Y-3120000D01*
X-2018330D01*
G01X-1656670Y-3173330D02*
X-1661670Y-3177330D01*
X-1667500Y-3180000D01*
X-1674170D01*
X-1681670Y-3176000D01*
X-1687500Y-3169330D01*
X-1691670Y-3161330D01*
X-1695000Y-3148000D01*
X-1695830Y-3136000D01*
X-1694170Y-3124000D01*
X-1691670Y-3116000D01*
X-1686670Y-3108000D01*
X-1680830Y-3102670D01*
X-1675000Y-3100000D01*
X-1669170D01*
X-1663330Y-3102670D01*
X-1658330Y-3106670D01*
X-1654170Y-3112000D01*
G01X-1605000Y-3100000D02*
Y-3180000D01*
X-1615000Y-3164000D01*
G01Y-3100000D02*
X-1595000D01*
G01X-1535000Y-3180000D02*
X-1541670Y-3177330D01*
X-1546670Y-3170670D01*
X-1550000Y-3162670D01*
X-1552500Y-3152000D01*
X-1553330Y-3140000D01*
X-1552500Y-3128000D01*
X-1550000Y-3117330D01*
X-1546670Y-3109330D01*
X-1541670Y-3102670D01*
X-1535000Y-3100000D01*
X-1528330Y-3102670D01*
X-1523330Y-3109330D01*
X-1520000Y-3117330D01*
X-1517500Y-3128000D01*
X-1516670Y-3140000D01*
X-1517500Y-3152000D01*
X-1520000Y-3162670D01*
X-1523330Y-3170670D01*
X-1528330Y-3177330D01*
X-1535000Y-3180000D01*
G01X-1480830Y-3166670D02*
X-1475830Y-3174670D01*
X-1470000Y-3178670D01*
X-1463330Y-3180000D01*
X-1455000Y-3177330D01*
X-1449170Y-3170670D01*
X-1447500Y-3162670D01*
X-1448330Y-3154660D01*
X-1451670Y-3148000D01*
X-1468330Y-3134670D01*
X-1475830Y-3125330D01*
X-1480830Y-3112000D01*
X-1482500Y-3100000D01*
X-1447500D01*
G01X-1656670Y-3473330D02*
X-1661670Y-3477330D01*
X-1667500Y-3480000D01*
X-1674170D01*
X-1681670Y-3476000D01*
X-1687500Y-3469330D01*
X-1691670Y-3461330D01*
X-1695000Y-3448000D01*
X-1695830Y-3436000D01*
X-1694170Y-3424000D01*
X-1691670Y-3416000D01*
X-1686670Y-3408000D01*
X-1680830Y-3402670D01*
X-1675000Y-3400000D01*
X-1669170D01*
X-1663330Y-3402670D01*
X-1658330Y-3406670D01*
X-1654170Y-3412000D01*
G01X-1605000Y-3400000D02*
Y-3480000D01*
X-1615000Y-3464000D01*
G01Y-3400000D02*
X-1595000D01*
G01X-1535000Y-3480000D02*
X-1541670Y-3477330D01*
X-1546670Y-3470670D01*
X-1550000Y-3462670D01*
X-1552500Y-3452000D01*
X-1553330Y-3440000D01*
X-1552500Y-3428000D01*
X-1550000Y-3417330D01*
X-1546670Y-3409330D01*
X-1541670Y-3402670D01*
X-1535000Y-3400000D01*
X-1528330Y-3402670D01*
X-1523330Y-3409330D01*
X-1520000Y-3417330D01*
X-1517500Y-3428000D01*
X-1516670Y-3440000D01*
X-1517500Y-3452000D01*
X-1520000Y-3462670D01*
X-1523330Y-3470670D01*
X-1528330Y-3477330D01*
X-1535000Y-3480000D01*
G01X-1480830Y-3433330D02*
X-1475000Y-3442670D01*
X-1470000Y-3448000D01*
X-1463330Y-3450670D01*
X-1457500Y-3448000D01*
X-1453330Y-3442670D01*
X-1450000Y-3434670D01*
X-1449170Y-3425330D01*
X-1450000Y-3417330D01*
X-1453330Y-3409330D01*
X-1458330Y-3402670D01*
X-1464170Y-3400000D01*
X-1470830Y-3402670D01*
X-1476670Y-3410660D01*
X-1480000Y-3422670D01*
X-1480830Y-3436000D01*
X-1479170Y-3453330D01*
X-1476670Y-3462670D01*
X-1472500Y-3472000D01*
X-1466670Y-3478670D01*
X-1460830Y-3480000D01*
X-1455000Y-3477330D01*
X-1450830Y-3470670D01*
G01X-1843330Y-2826670D02*
X-1838330Y-2822670D01*
X-1832500Y-2820000D01*
X-1825830D01*
X-1818330Y-2824000D01*
X-1812500Y-2830670D01*
X-1808330Y-2838670D01*
X-1805000Y-2852000D01*
X-1804170Y-2864000D01*
X-1805830Y-2876000D01*
X-1808330Y-2884000D01*
X-1813330Y-2892000D01*
X-1819170Y-2897330D01*
X-1825000Y-2900000D01*
X-1830830D01*
X-1836670Y-2897330D01*
X-1841670Y-2893330D01*
X-1845830Y-2888000D01*
G01X-1895000Y-2900000D02*
Y-2820000D01*
X-1885000Y-2836000D01*
G01Y-2900000D02*
X-1905000D01*
G01X-1965000Y-2820000D02*
X-1958330Y-2822670D01*
X-1953330Y-2829330D01*
X-1950000Y-2837330D01*
X-1947500Y-2848000D01*
X-1946670Y-2860000D01*
X-1947500Y-2872000D01*
X-1950000Y-2882670D01*
X-1953330Y-2890670D01*
X-1958330Y-2897330D01*
X-1965000Y-2900000D01*
X-1971670Y-2897330D01*
X-1976670Y-2890670D01*
X-1980000Y-2882670D01*
X-1982500Y-2872000D01*
X-1983330Y-2860000D01*
X-1982500Y-2848000D01*
X-1980000Y-2837330D01*
X-1976670Y-2829330D01*
X-1971670Y-2822670D01*
X-1965000Y-2820000D01*
G01X-2016670Y-2884000D02*
X-2021670Y-2893330D01*
X-2028330Y-2898670D01*
X-2035830Y-2900000D01*
X-2042500Y-2898670D01*
X-2049170Y-2892000D01*
X-2053330Y-2884000D01*
X-2054170Y-2876000D01*
X-2052500Y-2866670D01*
X-2046670Y-2860000D01*
X-2040830Y-2857330D01*
X-2033330D01*
G01X-2040830D02*
X-2045830Y-2853330D01*
X-2050000Y-2846670D01*
X-2051670Y-2838670D01*
X-2050000Y-2830670D01*
X-2045830Y-2824000D01*
X-2038330Y-2820000D01*
X-2030830Y-2821330D01*
X-2023330Y-2826670D01*
G01X-1943330Y-2426670D02*
X-1938330Y-2422670D01*
X-1932500Y-2420000D01*
X-1925830D01*
X-1918330Y-2424000D01*
X-1912500Y-2430670D01*
X-1908330Y-2438670D01*
X-1905000Y-2452000D01*
X-1904170Y-2464000D01*
X-1905830Y-2476000D01*
X-1908330Y-2484000D01*
X-1913330Y-2492000D01*
X-1919170Y-2497330D01*
X-1925000Y-2500000D01*
X-1930830D01*
X-1936670Y-2497330D01*
X-1941670Y-2493330D01*
X-1945830Y-2488000D01*
G01X-1980830Y-2490670D02*
X-1986670Y-2497330D01*
X-1993330Y-2500000D01*
X-2000000Y-2497330D01*
X-2005830Y-2489340D01*
X-2010000Y-2477330D01*
X-2011670Y-2465330D01*
Y-2450670D01*
X-2010000Y-2438670D01*
X-2005830Y-2428000D01*
X-2000830Y-2422670D01*
X-1995000Y-2420000D01*
X-1988330Y-2422670D01*
X-1983330Y-2428000D01*
X-1980000Y-2436000D01*
X-1978330Y-2446670D01*
X-1980000Y-2456000D01*
X-1984170Y-2465330D01*
X-1989170Y-2470670D01*
X-1995000Y-2472000D01*
X-2001670Y-2469340D01*
X-2006670Y-2462670D01*
X-2011670Y-2450670D01*
G01X-2050830Y-2490670D02*
X-2056670Y-2497330D01*
X-2063330Y-2500000D01*
X-2070000Y-2497330D01*
X-2075830Y-2489340D01*
X-2080000Y-2477330D01*
X-2081670Y-2465330D01*
Y-2450670D01*
X-2080000Y-2438670D01*
X-2075830Y-2428000D01*
X-2070830Y-2422670D01*
X-2065000Y-2420000D01*
X-2058330Y-2422670D01*
X-2053330Y-2428000D01*
X-2050000Y-2436000D01*
X-2048330Y-2446670D01*
X-2050000Y-2456000D01*
X-2054170Y-2465330D01*
X-2059170Y-2470670D01*
X-2065000Y-2472000D01*
X-2071670Y-2469340D01*
X-2076670Y-2462670D01*
X-2081670Y-2450670D01*
G01X-1943330Y-2126670D02*
X-1938330Y-2122670D01*
X-1932500Y-2120000D01*
X-1925830D01*
X-1918330Y-2124000D01*
X-1912500Y-2130670D01*
X-1908330Y-2138670D01*
X-1905000Y-2152000D01*
X-1904170Y-2164000D01*
X-1905830Y-2176000D01*
X-1908330Y-2184000D01*
X-1913330Y-2192000D01*
X-1919170Y-2197330D01*
X-1925000Y-2200000D01*
X-1930830D01*
X-1936670Y-2197330D01*
X-1941670Y-2193330D01*
X-1945830Y-2188000D01*
G01X-1980830Y-2190670D02*
X-1986670Y-2197330D01*
X-1993330Y-2200000D01*
X-2000000Y-2197330D01*
X-2005830Y-2189340D01*
X-2010000Y-2177330D01*
X-2011670Y-2165330D01*
Y-2150670D01*
X-2010000Y-2138670D01*
X-2005830Y-2128000D01*
X-2000830Y-2122670D01*
X-1995000Y-2120000D01*
X-1988330Y-2122670D01*
X-1983330Y-2128000D01*
X-1980000Y-2136000D01*
X-1978330Y-2146670D01*
X-1980000Y-2156000D01*
X-1984170Y-2165330D01*
X-1989170Y-2170670D01*
X-1995000Y-2172000D01*
X-2001670Y-2169340D01*
X-2006670Y-2162670D01*
X-2011670Y-2150670D01*
G01X-2046670Y-2188000D02*
X-2051670Y-2194670D01*
X-2057500Y-2198670D01*
X-2065000Y-2200000D01*
X-2072500Y-2197330D01*
X-2078330Y-2192000D01*
X-2082500Y-2182670D01*
X-2083330Y-2172000D01*
X-2081670Y-2161330D01*
X-2077500Y-2154670D01*
X-2071670Y-2149330D01*
X-2065830Y-2148000D01*
X-2060000Y-2149330D01*
X-2052500Y-2154670D01*
X-2055000Y-2120000D01*
X-2077500D01*
G01X-1943330Y-1726670D02*
X-1938330Y-1722670D01*
X-1932500Y-1720000D01*
X-1925830D01*
X-1918330Y-1724000D01*
X-1912500Y-1730670D01*
X-1908330Y-1738670D01*
X-1905000Y-1752000D01*
X-1904170Y-1764000D01*
X-1905830Y-1776000D01*
X-1908330Y-1784000D01*
X-1913330Y-1792000D01*
X-1919170Y-1797330D01*
X-1925000Y-1800000D01*
X-1930830D01*
X-1936670Y-1797330D01*
X-1941670Y-1793330D01*
X-1945830Y-1788000D01*
G01X-1980830Y-1790670D02*
X-1986670Y-1797330D01*
X-1993330Y-1800000D01*
X-2000000Y-1797330D01*
X-2005830Y-1789340D01*
X-2010000Y-1777330D01*
X-2011670Y-1765330D01*
Y-1750670D01*
X-2010000Y-1738670D01*
X-2005830Y-1728000D01*
X-2000830Y-1722670D01*
X-1995000Y-1720000D01*
X-1988330Y-1722670D01*
X-1983330Y-1728000D01*
X-1980000Y-1736000D01*
X-1978330Y-1746670D01*
X-1980000Y-1756000D01*
X-1984170Y-1765330D01*
X-1989170Y-1770670D01*
X-1995000Y-1772000D01*
X-2001670Y-1769340D01*
X-2006670Y-1762670D01*
X-2011670Y-1750670D01*
G01X-2065000Y-1800000D02*
Y-1720000D01*
X-2055000Y-1736000D01*
G01Y-1800000D02*
X-2075000D01*
G01X-1758330Y-1200000D02*
Y-1120000D01*
X-1779170D01*
X-1785830Y-1124000D01*
X-1790000Y-1129330D01*
X-1791670Y-1140000D01*
X-1790000Y-1150670D01*
X-1785000Y-1157330D01*
X-1779170Y-1161330D01*
X-1758330D01*
G01X-1779170D02*
X-1791670Y-1200000D01*
G01X-1826670Y-1184000D02*
X-1831670Y-1193330D01*
X-1838330Y-1198670D01*
X-1845830Y-1200000D01*
X-1852500Y-1198670D01*
X-1859170Y-1192000D01*
X-1863330Y-1184000D01*
X-1864170Y-1176000D01*
X-1862500Y-1166670D01*
X-1856670Y-1160000D01*
X-1850830Y-1157330D01*
X-1843330D01*
G01X-1850830D02*
X-1855830Y-1153330D01*
X-1860000Y-1146670D01*
X-1861670Y-1138670D01*
X-1860000Y-1130670D01*
X-1855830Y-1124000D01*
X-1848330Y-1120000D01*
X-1840830Y-1121330D01*
X-1833330Y-1126670D01*
G01X-1915000Y-1200000D02*
Y-1120000D01*
X-1905000Y-1136000D01*
G01Y-1200000D02*
X-1925000D01*
G01X-1943330Y-1326670D02*
X-1938330Y-1322670D01*
X-1932500Y-1320000D01*
X-1925830D01*
X-1918330Y-1324000D01*
X-1912500Y-1330670D01*
X-1908330Y-1338670D01*
X-1905000Y-1352000D01*
X-1904170Y-1364000D01*
X-1905830Y-1376000D01*
X-1908330Y-1384000D01*
X-1913330Y-1392000D01*
X-1919170Y-1397330D01*
X-1925000Y-1400000D01*
X-1930830D01*
X-1936670Y-1397330D01*
X-1941670Y-1393330D01*
X-1945830Y-1388000D01*
G01X-1995000Y-1400000D02*
X-2000830Y-1398670D01*
X-2007500Y-1394670D01*
X-2011670Y-1388000D01*
X-2013330Y-1378670D01*
X-2011670Y-1369340D01*
X-2006670Y-1361330D01*
X-1999170Y-1357330D01*
X-1990830D01*
X-1985830Y-1354670D01*
X-1981670Y-1348000D01*
X-1980000Y-1338670D01*
X-1982500Y-1329330D01*
X-1988330Y-1322670D01*
X-1995000Y-1320000D01*
X-2001670Y-1322670D01*
X-2007500Y-1329330D01*
X-2010000Y-1338670D01*
X-2008330Y-1348000D01*
X-2004170Y-1354670D01*
X-1999170Y-1357330D01*
X-1990830D01*
X-1983330Y-1361330D01*
X-1978330Y-1369340D01*
X-1976670Y-1378670D01*
X-1978330Y-1388000D01*
X-1982500Y-1394670D01*
X-1989170Y-1398670D01*
X-1995000Y-1400000D01*
G01X-2063330D02*
X-2065000Y-1382670D01*
X-2067500Y-1368000D01*
X-2070830Y-1354670D01*
X-2075000Y-1340000D01*
X-2081670Y-1320000D01*
X-2048330D01*
G01X-2026670Y-506670D02*
X-2022670Y-511670D01*
X-2020000Y-517500D01*
Y-524170D01*
X-2024000Y-531670D01*
X-2030670Y-537500D01*
X-2038670Y-541670D01*
X-2052000Y-545000D01*
X-2064000Y-545830D01*
X-2076000Y-544170D01*
X-2084000Y-541670D01*
X-2092000Y-536670D01*
X-2097330Y-530830D01*
X-2100000Y-525000D01*
Y-519170D01*
X-2097330Y-513330D01*
X-2093330Y-508330D01*
X-2088000Y-504170D01*
G01X-2066670Y-470830D02*
X-2057330Y-465000D01*
X-2052000Y-460000D01*
X-2049330Y-453330D01*
X-2052000Y-447500D01*
X-2057330Y-443330D01*
X-2065330Y-440000D01*
X-2074670Y-439170D01*
X-2082670Y-440000D01*
X-2090670Y-443330D01*
X-2097330Y-448330D01*
X-2100000Y-454170D01*
X-2097330Y-460830D01*
X-2089340Y-466670D01*
X-2077330Y-470000D01*
X-2064000Y-470830D01*
X-2046670Y-469170D01*
X-2037330Y-466670D01*
X-2028000Y-462500D01*
X-2021330Y-456670D01*
X-2020000Y-450830D01*
X-2022670Y-445000D01*
X-2029330Y-440830D01*
G01X-2100000Y-386670D02*
X-2082670Y-385000D01*
X-2068000Y-382500D01*
X-2054670Y-379170D01*
X-2040000Y-375000D01*
X-2020000Y-368330D01*
Y-401670D01*
G01X-2056670Y226670D02*
X-2061670Y222670D01*
X-2067500Y220000D01*
X-2074170D01*
X-2081670Y224000D01*
X-2087500Y230670D01*
X-2091670Y238670D01*
X-2095000Y252000D01*
X-2095830Y264000D01*
X-2094170Y276000D01*
X-2091670Y284000D01*
X-2086670Y292000D01*
X-2080830Y297330D01*
X-2075000Y300000D01*
X-2069170D01*
X-2063330Y297330D01*
X-2058330Y293330D01*
X-2054170Y288000D01*
G01X-2023330D02*
X-2018330Y294670D01*
X-2012500Y298670D01*
X-2005000Y300000D01*
X-1997500Y297330D01*
X-1991670Y292000D01*
X-1987500Y282670D01*
X-1986670Y272000D01*
X-1988330Y261330D01*
X-1992500Y254670D01*
X-1998330Y249330D01*
X-2004170Y248000D01*
X-2010000Y249330D01*
X-2017500Y254670D01*
X-2015000Y220000D01*
X-1992500D01*
G01X-1953330Y288000D02*
X-1948330Y294670D01*
X-1942500Y298670D01*
X-1935000Y300000D01*
X-1927500Y297330D01*
X-1921670Y292000D01*
X-1917500Y282670D01*
X-1916670Y272000D01*
X-1918330Y261330D01*
X-1922500Y254670D01*
X-1928330Y249330D01*
X-1934170Y248000D01*
X-1940000Y249330D01*
X-1947500Y254670D01*
X-1945000Y220000D01*
X-1922500D01*
G01X-2056670Y626670D02*
X-2061670Y622670D01*
X-2067500Y620000D01*
X-2074170D01*
X-2081670Y624000D01*
X-2087500Y630670D01*
X-2091670Y638670D01*
X-2095000Y652000D01*
X-2095830Y664000D01*
X-2094170Y676000D01*
X-2091670Y684000D01*
X-2086670Y692000D01*
X-2080830Y697330D01*
X-2075000Y700000D01*
X-2069170D01*
X-2063330Y697330D01*
X-2058330Y693330D01*
X-2054170Y688000D01*
G01X-2023330D02*
X-2018330Y694670D01*
X-2012500Y698670D01*
X-2005000Y700000D01*
X-1997500Y697330D01*
X-1991670Y692000D01*
X-1987500Y682670D01*
X-1986670Y672000D01*
X-1988330Y661330D01*
X-1992500Y654670D01*
X-1998330Y649330D01*
X-2004170Y648000D01*
X-2010000Y649330D01*
X-2017500Y654670D01*
X-2015000Y620000D01*
X-1992500D01*
G01X-1935000Y700000D02*
Y620000D01*
X-1945000Y636000D01*
G01Y700000D02*
X-1925000D01*
G01X-2056670Y-73330D02*
X-2061670Y-77330D01*
X-2067500Y-80000D01*
X-2074170D01*
X-2081670Y-76000D01*
X-2087500Y-69330D01*
X-2091670Y-61330D01*
X-2095000Y-48000D01*
X-2095830Y-36000D01*
X-2094170Y-24000D01*
X-2091670Y-16000D01*
X-2086670Y-8000D01*
X-2080830Y-2670D01*
X-2075000Y0D01*
X-2069170D01*
X-2063330Y-2670D01*
X-2058330Y-6670D01*
X-2054170Y-12000D01*
G01X-2023330D02*
X-2018330Y-5330D01*
X-2012500Y-1330D01*
X-2005000Y0D01*
X-1997500Y-2670D01*
X-1991670Y-8000D01*
X-1987500Y-17330D01*
X-1986670Y-28000D01*
X-1988330Y-38670D01*
X-1992500Y-45330D01*
X-1998330Y-50670D01*
X-2004170Y-52000D01*
X-2010000Y-50670D01*
X-2017500Y-45330D01*
X-2015000Y-80000D01*
X-1992500D01*
G01X-1949170Y-9330D02*
X-1943330Y-2670D01*
X-1936670Y0D01*
X-1930000Y-2670D01*
X-1924170Y-10660D01*
X-1920000Y-22670D01*
X-1918330Y-34670D01*
Y-49330D01*
X-1920000Y-61330D01*
X-1924170Y-72000D01*
X-1929170Y-77330D01*
X-1935000Y-80000D01*
X-1941670Y-77330D01*
X-1946670Y-72000D01*
X-1950000Y-64000D01*
X-1951670Y-53330D01*
X-1950000Y-44000D01*
X-1945830Y-34670D01*
X-1940830Y-29330D01*
X-1935000Y-28000D01*
X-1928330Y-30660D01*
X-1923330Y-37330D01*
X-1918330Y-49330D01*
G01X-2056670Y926670D02*
X-2061670Y922670D01*
X-2067500Y920000D01*
X-2074170D01*
X-2081670Y924000D01*
X-2087500Y930670D01*
X-2091670Y938670D01*
X-2095000Y952000D01*
X-2095830Y964000D01*
X-2094170Y976000D01*
X-2091670Y984000D01*
X-2086670Y992000D01*
X-2080830Y997330D01*
X-2075000Y1000000D01*
X-2069170D01*
X-2063330Y997330D01*
X-2058330Y993330D01*
X-2054170Y988000D01*
G01X-1995000Y1000000D02*
Y920000D01*
X-2025830Y977330D01*
X-1984170D01*
G01X-1936670Y1000000D02*
X-1935000Y982670D01*
X-1932500Y968000D01*
X-1929170Y954670D01*
X-1925000Y940000D01*
X-1918330Y920000D01*
X-1951670D01*
G01X-2056670Y1326670D02*
X-2061670Y1322670D01*
X-2067500Y1320000D01*
X-2074170D01*
X-2081670Y1324000D01*
X-2087500Y1330670D01*
X-2091670Y1338670D01*
X-2095000Y1352000D01*
X-2095830Y1364000D01*
X-2094170Y1376000D01*
X-2091670Y1384000D01*
X-2086670Y1392000D01*
X-2080830Y1397330D01*
X-2075000Y1400000D01*
X-2069170D01*
X-2063330Y1397330D01*
X-2058330Y1393330D01*
X-2054170Y1388000D01*
G01X-1995000Y1400000D02*
Y1320000D01*
X-2025830Y1377330D01*
X-1984170D01*
G01X-1953330Y1384000D02*
X-1948330Y1393330D01*
X-1941670Y1398670D01*
X-1934170Y1400000D01*
X-1927500Y1398670D01*
X-1920830Y1392000D01*
X-1916670Y1384000D01*
X-1915830Y1376000D01*
X-1917500Y1366670D01*
X-1923330Y1360000D01*
X-1929170Y1357330D01*
X-1936670D01*
G01X-1929170D02*
X-1924170Y1353330D01*
X-1920000Y1346670D01*
X-1918330Y1338670D01*
X-1920000Y1330670D01*
X-1924170Y1324000D01*
X-1931670Y1320000D01*
X-1939170Y1321330D01*
X-1946670Y1326670D01*
G01X-2006670Y1726670D02*
X-2011670Y1722670D01*
X-2017500Y1720000D01*
X-2024170D01*
X-2031670Y1724000D01*
X-2037500Y1730670D01*
X-2041670Y1738670D01*
X-2045000Y1752000D01*
X-2045830Y1764000D01*
X-2044170Y1776000D01*
X-2041670Y1784000D01*
X-2036670Y1792000D01*
X-2030830Y1797330D01*
X-2025000Y1800000D01*
X-2019170D01*
X-2013330Y1797330D01*
X-2008330Y1793330D01*
X-2004170Y1788000D01*
G01X-1973330Y1784000D02*
X-1968330Y1793330D01*
X-1961670Y1798670D01*
X-1954170Y1800000D01*
X-1947500Y1798670D01*
X-1940830Y1792000D01*
X-1936670Y1784000D01*
X-1935830Y1776000D01*
X-1937500Y1766670D01*
X-1943330Y1760000D01*
X-1949170Y1757330D01*
X-1956670D01*
G01X-1949170D02*
X-1944170Y1753330D01*
X-1940000Y1746670D01*
X-1938330Y1738670D01*
X-1940000Y1730670D01*
X-1944170Y1724000D01*
X-1951670Y1720000D01*
X-1959170Y1721330D01*
X-1966670Y1726670D01*
G01X-1899170Y1790670D02*
X-1893330Y1797330D01*
X-1886670Y1800000D01*
X-1880000Y1797330D01*
X-1874170Y1789340D01*
X-1870000Y1777330D01*
X-1868330Y1765330D01*
Y1750670D01*
X-1870000Y1738670D01*
X-1874170Y1728000D01*
X-1879170Y1722670D01*
X-1885000Y1720000D01*
X-1891670Y1722670D01*
X-1896670Y1728000D01*
X-1900000Y1736000D01*
X-1901670Y1746670D01*
X-1900000Y1756000D01*
X-1895830Y1765330D01*
X-1890830Y1770670D01*
X-1885000Y1772000D01*
X-1878330Y1769340D01*
X-1873330Y1762670D01*
X-1868330Y1750670D01*
G01X-1691670Y3500000D02*
Y3420000D01*
X-1670830D01*
X-1664170Y3424000D01*
X-1660000Y3429330D01*
X-1658330Y3440000D01*
X-1660000Y3450670D01*
X-1665000Y3457330D01*
X-1670830Y3461330D01*
X-1691670D01*
G01X-1670830D02*
X-1658330Y3500000D01*
G01X-1620830Y3433330D02*
X-1615830Y3425330D01*
X-1610000Y3421330D01*
X-1603330Y3420000D01*
X-1595000Y3422670D01*
X-1589170Y3429330D01*
X-1587500Y3437330D01*
X-1588330Y3445340D01*
X-1591670Y3452000D01*
X-1608330Y3465330D01*
X-1615830Y3474670D01*
X-1620830Y3488000D01*
X-1622500Y3500000D01*
X-1587500D01*
G01X-1525000D02*
Y3420000D01*
X-1555830Y3477330D01*
X-1514170D01*
G01X-1126670Y-3656670D02*
X-1122670Y-3661670D01*
X-1120000Y-3667500D01*
Y-3674170D01*
X-1124000Y-3681670D01*
X-1130670Y-3687500D01*
X-1138670Y-3691670D01*
X-1152000Y-3695000D01*
X-1164000Y-3695830D01*
X-1176000Y-3694170D01*
X-1184000Y-3691670D01*
X-1192000Y-3686670D01*
X-1197330Y-3680830D01*
X-1200000Y-3675000D01*
Y-3669170D01*
X-1197330Y-3663330D01*
X-1193330Y-3658330D01*
X-1188000Y-3654170D01*
G01X-1200000Y-3605000D02*
X-1120000D01*
X-1136000Y-3615000D01*
G01X-1200000D02*
Y-3595000D01*
G01Y-3535000D02*
X-1120000D01*
X-1136000Y-3545000D01*
G01X-1200000D02*
Y-3525000D01*
G01Y-3455000D02*
X-1120000D01*
X-1177330Y-3485830D01*
Y-3444170D01*
G01X-1556670Y-2473330D02*
X-1561670Y-2477330D01*
X-1567500Y-2480000D01*
X-1574170D01*
X-1581670Y-2476000D01*
X-1587500Y-2469330D01*
X-1591670Y-2461330D01*
X-1595000Y-2448000D01*
X-1595830Y-2436000D01*
X-1594170Y-2424000D01*
X-1591670Y-2416000D01*
X-1586670Y-2408000D01*
X-1580830Y-2402670D01*
X-1575000Y-2400000D01*
X-1569170D01*
X-1563330Y-2402670D01*
X-1558330Y-2406670D01*
X-1554170Y-2412000D01*
G01X-1519170Y-2409330D02*
X-1513330Y-2402670D01*
X-1506670Y-2400000D01*
X-1500000Y-2402670D01*
X-1494170Y-2410660D01*
X-1490000Y-2422670D01*
X-1488330Y-2434670D01*
Y-2449330D01*
X-1490000Y-2461330D01*
X-1494170Y-2472000D01*
X-1499170Y-2477330D01*
X-1505000Y-2480000D01*
X-1511670Y-2477330D01*
X-1516670Y-2472000D01*
X-1520000Y-2464000D01*
X-1521670Y-2453330D01*
X-1520000Y-2444000D01*
X-1515830Y-2434670D01*
X-1510830Y-2429330D01*
X-1505000Y-2428000D01*
X-1498330Y-2430660D01*
X-1493330Y-2437330D01*
X-1488330Y-2449330D01*
G01X-1425000Y-2400000D02*
Y-2480000D01*
X-1455830Y-2422670D01*
X-1414170D01*
G01X-1556670Y-2773330D02*
X-1561670Y-2777330D01*
X-1567500Y-2780000D01*
X-1574170D01*
X-1581670Y-2776000D01*
X-1587500Y-2769330D01*
X-1591670Y-2761330D01*
X-1595000Y-2748000D01*
X-1595830Y-2736000D01*
X-1594170Y-2724000D01*
X-1591670Y-2716000D01*
X-1586670Y-2708000D01*
X-1580830Y-2702670D01*
X-1575000Y-2700000D01*
X-1569170D01*
X-1563330Y-2702670D01*
X-1558330Y-2706670D01*
X-1554170Y-2712000D01*
G01X-1519170Y-2709330D02*
X-1513330Y-2702670D01*
X-1506670Y-2700000D01*
X-1500000Y-2702670D01*
X-1494170Y-2710660D01*
X-1490000Y-2722670D01*
X-1488330Y-2734670D01*
Y-2749330D01*
X-1490000Y-2761330D01*
X-1494170Y-2772000D01*
X-1499170Y-2777330D01*
X-1505000Y-2780000D01*
X-1511670Y-2777330D01*
X-1516670Y-2772000D01*
X-1520000Y-2764000D01*
X-1521670Y-2753330D01*
X-1520000Y-2744000D01*
X-1515830Y-2734670D01*
X-1510830Y-2729330D01*
X-1505000Y-2728000D01*
X-1498330Y-2730660D01*
X-1493330Y-2737330D01*
X-1488330Y-2749330D01*
G01X-1435000Y-2700000D02*
X-1429170Y-2701330D01*
X-1422500Y-2705330D01*
X-1418330Y-2712000D01*
X-1416670Y-2721330D01*
X-1418330Y-2730660D01*
X-1423330Y-2738670D01*
X-1430830Y-2742670D01*
X-1439170D01*
X-1444170Y-2745330D01*
X-1448330Y-2752000D01*
X-1450000Y-2761330D01*
X-1447500Y-2770670D01*
X-1441670Y-2777330D01*
X-1435000Y-2780000D01*
X-1428330Y-2777330D01*
X-1422500Y-2770670D01*
X-1420000Y-2761330D01*
X-1421670Y-2752000D01*
X-1425830Y-2745330D01*
X-1430830Y-2742670D01*
X-1439170D01*
X-1446670Y-2738670D01*
X-1451670Y-2730660D01*
X-1453330Y-2721330D01*
X-1451670Y-2712000D01*
X-1447500Y-2705330D01*
X-1440830Y-2701330D01*
X-1435000Y-2700000D01*
G01X-1556670Y-1673330D02*
X-1561670Y-1677330D01*
X-1567500Y-1680000D01*
X-1574170D01*
X-1581670Y-1676000D01*
X-1587500Y-1669330D01*
X-1591670Y-1661330D01*
X-1595000Y-1648000D01*
X-1595830Y-1636000D01*
X-1594170Y-1624000D01*
X-1591670Y-1616000D01*
X-1586670Y-1608000D01*
X-1580830Y-1602670D01*
X-1575000Y-1600000D01*
X-1569170D01*
X-1563330Y-1602670D01*
X-1558330Y-1606670D01*
X-1554170Y-1612000D01*
G01X-1505000Y-1600000D02*
X-1499170Y-1601330D01*
X-1492500Y-1605330D01*
X-1488330Y-1612000D01*
X-1486670Y-1621330D01*
X-1488330Y-1630660D01*
X-1493330Y-1638670D01*
X-1500830Y-1642670D01*
X-1509170D01*
X-1514170Y-1645330D01*
X-1518330Y-1652000D01*
X-1520000Y-1661330D01*
X-1517500Y-1670670D01*
X-1511670Y-1677330D01*
X-1505000Y-1680000D01*
X-1498330Y-1677330D01*
X-1492500Y-1670670D01*
X-1490000Y-1661330D01*
X-1491670Y-1652000D01*
X-1495830Y-1645330D01*
X-1500830Y-1642670D01*
X-1509170D01*
X-1516670Y-1638670D01*
X-1521670Y-1630660D01*
X-1523330Y-1621330D01*
X-1521670Y-1612000D01*
X-1517500Y-1605330D01*
X-1510830Y-1601330D01*
X-1505000Y-1600000D01*
G01X-1450830Y-1633330D02*
X-1445000Y-1642670D01*
X-1440000Y-1648000D01*
X-1433330Y-1650670D01*
X-1427500Y-1648000D01*
X-1423330Y-1642670D01*
X-1420000Y-1634670D01*
X-1419170Y-1625330D01*
X-1420000Y-1617330D01*
X-1423330Y-1609330D01*
X-1428330Y-1602670D01*
X-1434170Y-1600000D01*
X-1440830Y-1602670D01*
X-1446670Y-1610660D01*
X-1450000Y-1622670D01*
X-1450830Y-1636000D01*
X-1449170Y-1653330D01*
X-1446670Y-1662670D01*
X-1442500Y-1672000D01*
X-1436670Y-1678670D01*
X-1430830Y-1680000D01*
X-1425000Y-1677330D01*
X-1420830Y-1670670D01*
G01X-1556670Y-2073330D02*
X-1561670Y-2077330D01*
X-1567500Y-2080000D01*
X-1574170D01*
X-1581670Y-2076000D01*
X-1587500Y-2069330D01*
X-1591670Y-2061330D01*
X-1595000Y-2048000D01*
X-1595830Y-2036000D01*
X-1594170Y-2024000D01*
X-1591670Y-2016000D01*
X-1586670Y-2008000D01*
X-1580830Y-2002670D01*
X-1575000Y-2000000D01*
X-1569170D01*
X-1563330Y-2002670D01*
X-1558330Y-2006670D01*
X-1554170Y-2012000D01*
G01X-1519170Y-2009330D02*
X-1513330Y-2002670D01*
X-1506670Y-2000000D01*
X-1500000Y-2002670D01*
X-1494170Y-2010660D01*
X-1490000Y-2022670D01*
X-1488330Y-2034670D01*
Y-2049330D01*
X-1490000Y-2061330D01*
X-1494170Y-2072000D01*
X-1499170Y-2077330D01*
X-1505000Y-2080000D01*
X-1511670Y-2077330D01*
X-1516670Y-2072000D01*
X-1520000Y-2064000D01*
X-1521670Y-2053330D01*
X-1520000Y-2044000D01*
X-1515830Y-2034670D01*
X-1510830Y-2029330D01*
X-1505000Y-2028000D01*
X-1498330Y-2030660D01*
X-1493330Y-2037330D01*
X-1488330Y-2049330D01*
G01X-1435000Y-2080000D02*
X-1441670Y-2077330D01*
X-1446670Y-2070670D01*
X-1450000Y-2062670D01*
X-1452500Y-2052000D01*
X-1453330Y-2040000D01*
X-1452500Y-2028000D01*
X-1450000Y-2017330D01*
X-1446670Y-2009330D01*
X-1441670Y-2002670D01*
X-1435000Y-2000000D01*
X-1428330Y-2002670D01*
X-1423330Y-2009330D01*
X-1420000Y-2017330D01*
X-1417500Y-2028000D01*
X-1416670Y-2040000D01*
X-1417500Y-2052000D01*
X-1420000Y-2062670D01*
X-1423330Y-2070670D01*
X-1428330Y-2077330D01*
X-1435000Y-2080000D01*
G01X-1473330Y-1193330D02*
X-1477330Y-1188330D01*
X-1480000Y-1182500D01*
Y-1175830D01*
X-1476000Y-1168330D01*
X-1469330Y-1162500D01*
X-1461330Y-1158330D01*
X-1448000Y-1155000D01*
X-1436000Y-1154170D01*
X-1424000Y-1155830D01*
X-1416000Y-1158330D01*
X-1408000Y-1163330D01*
X-1402670Y-1169170D01*
X-1400000Y-1175000D01*
Y-1180830D01*
X-1402670Y-1186670D01*
X-1406670Y-1191670D01*
X-1412000Y-1195830D01*
G01X-1400000Y-1243330D02*
X-1417330Y-1245000D01*
X-1432000Y-1247500D01*
X-1445330Y-1250830D01*
X-1460000Y-1255000D01*
X-1480000Y-1261670D01*
Y-1228330D01*
G01X-1400000Y-1315000D02*
X-1401330Y-1320830D01*
X-1405330Y-1327500D01*
X-1412000Y-1331670D01*
X-1421330Y-1333330D01*
X-1430660Y-1331670D01*
X-1438670Y-1326670D01*
X-1442670Y-1319170D01*
Y-1310830D01*
X-1445330Y-1305830D01*
X-1452000Y-1301670D01*
X-1461330Y-1300000D01*
X-1470670Y-1302500D01*
X-1477330Y-1308330D01*
X-1480000Y-1315000D01*
X-1477330Y-1321670D01*
X-1470670Y-1327500D01*
X-1461330Y-1330000D01*
X-1452000Y-1328330D01*
X-1445330Y-1324170D01*
X-1442670Y-1319170D01*
Y-1310830D01*
X-1438670Y-1303330D01*
X-1430660Y-1298330D01*
X-1421330Y-1296670D01*
X-1412000Y-1298330D01*
X-1405330Y-1302500D01*
X-1401330Y-1309170D01*
X-1400000Y-1315000D01*
G01X-1073330Y-1193330D02*
X-1077330Y-1188330D01*
X-1080000Y-1182500D01*
Y-1175830D01*
X-1076000Y-1168330D01*
X-1069330Y-1162500D01*
X-1061330Y-1158330D01*
X-1048000Y-1155000D01*
X-1036000Y-1154170D01*
X-1024000Y-1155830D01*
X-1016000Y-1158330D01*
X-1008000Y-1163330D01*
X-1002670Y-1169170D01*
X-1000000Y-1175000D01*
Y-1180830D01*
X-1002670Y-1186670D01*
X-1006670Y-1191670D01*
X-1012000Y-1195830D01*
G01X-1000000Y-1243330D02*
X-1017330Y-1245000D01*
X-1032000Y-1247500D01*
X-1045330Y-1250830D01*
X-1060000Y-1255000D01*
X-1080000Y-1261670D01*
Y-1228330D01*
G01X-1000000Y-1313330D02*
X-1017330Y-1315000D01*
X-1032000Y-1317500D01*
X-1045330Y-1320830D01*
X-1060000Y-1325000D01*
X-1080000Y-1331670D01*
Y-1298330D01*
G01X-1126670Y-456670D02*
X-1122670Y-461670D01*
X-1120000Y-467500D01*
Y-474170D01*
X-1124000Y-481670D01*
X-1130670Y-487500D01*
X-1138670Y-491670D01*
X-1152000Y-495000D01*
X-1164000Y-495830D01*
X-1176000Y-494170D01*
X-1184000Y-491670D01*
X-1192000Y-486670D01*
X-1197330Y-480830D01*
X-1200000Y-475000D01*
Y-469170D01*
X-1197330Y-463330D01*
X-1193330Y-458330D01*
X-1188000Y-454170D01*
G01X-1166670Y-420830D02*
X-1157330Y-415000D01*
X-1152000Y-410000D01*
X-1149330Y-403330D01*
X-1152000Y-397500D01*
X-1157330Y-393330D01*
X-1165330Y-390000D01*
X-1174670Y-389170D01*
X-1182670Y-390000D01*
X-1190670Y-393330D01*
X-1197330Y-398330D01*
X-1200000Y-404170D01*
X-1197330Y-410830D01*
X-1189340Y-416670D01*
X-1177330Y-420000D01*
X-1164000Y-420830D01*
X-1146670Y-419170D01*
X-1137330Y-416670D01*
X-1128000Y-412500D01*
X-1121330Y-406670D01*
X-1120000Y-400830D01*
X-1122670Y-395000D01*
X-1129330Y-390830D01*
G01X-1166670Y-350830D02*
X-1157330Y-345000D01*
X-1152000Y-340000D01*
X-1149330Y-333330D01*
X-1152000Y-327500D01*
X-1157330Y-323330D01*
X-1165330Y-320000D01*
X-1174670Y-319170D01*
X-1182670Y-320000D01*
X-1190670Y-323330D01*
X-1197330Y-328330D01*
X-1200000Y-334170D01*
X-1197330Y-340830D01*
X-1189340Y-346670D01*
X-1177330Y-350000D01*
X-1164000Y-350830D01*
X-1146670Y-349170D01*
X-1137330Y-346670D01*
X-1128000Y-342500D01*
X-1121330Y-336670D01*
X-1120000Y-330830D01*
X-1122670Y-325000D01*
X-1129330Y-320830D01*
G01X-1556670Y226670D02*
X-1561670Y222670D01*
X-1567500Y220000D01*
X-1574170D01*
X-1581670Y224000D01*
X-1587500Y230670D01*
X-1591670Y238670D01*
X-1595000Y252000D01*
X-1595830Y264000D01*
X-1594170Y276000D01*
X-1591670Y284000D01*
X-1586670Y292000D01*
X-1580830Y297330D01*
X-1575000Y300000D01*
X-1569170D01*
X-1563330Y297330D01*
X-1558330Y293330D01*
X-1554170Y288000D01*
G01X-1523330D02*
X-1518330Y294670D01*
X-1512500Y298670D01*
X-1505000Y300000D01*
X-1497500Y297330D01*
X-1491670Y292000D01*
X-1487500Y282670D01*
X-1486670Y272000D01*
X-1488330Y261330D01*
X-1492500Y254670D01*
X-1498330Y249330D01*
X-1504170Y248000D01*
X-1510000Y249330D01*
X-1517500Y254670D01*
X-1515000Y220000D01*
X-1492500D01*
G01X-1425000Y300000D02*
Y220000D01*
X-1455830Y277330D01*
X-1414170D01*
G01X-1556670Y626670D02*
X-1561670Y622670D01*
X-1567500Y620000D01*
X-1574170D01*
X-1581670Y624000D01*
X-1587500Y630670D01*
X-1591670Y638670D01*
X-1595000Y652000D01*
X-1595830Y664000D01*
X-1594170Y676000D01*
X-1591670Y684000D01*
X-1586670Y692000D01*
X-1580830Y697330D01*
X-1575000Y700000D01*
X-1569170D01*
X-1563330Y697330D01*
X-1558330Y693330D01*
X-1554170Y688000D01*
G01X-1523330D02*
X-1518330Y694670D01*
X-1512500Y698670D01*
X-1505000Y700000D01*
X-1497500Y697330D01*
X-1491670Y692000D01*
X-1487500Y682670D01*
X-1486670Y672000D01*
X-1488330Y661330D01*
X-1492500Y654670D01*
X-1498330Y649330D01*
X-1504170Y648000D01*
X-1510000Y649330D01*
X-1517500Y654670D01*
X-1515000Y620000D01*
X-1492500D01*
G01X-1435000D02*
X-1441670Y622670D01*
X-1446670Y629330D01*
X-1450000Y637330D01*
X-1452500Y648000D01*
X-1453330Y660000D01*
X-1452500Y672000D01*
X-1450000Y682670D01*
X-1446670Y690670D01*
X-1441670Y697330D01*
X-1435000Y700000D01*
X-1428330Y697330D01*
X-1423330Y690670D01*
X-1420000Y682670D01*
X-1417500Y672000D01*
X-1416670Y660000D01*
X-1417500Y648000D01*
X-1420000Y637330D01*
X-1423330Y629330D01*
X-1428330Y622670D01*
X-1435000Y620000D01*
G01X-1556670Y-73330D02*
X-1561670Y-77330D01*
X-1567500Y-80000D01*
X-1574170D01*
X-1581670Y-76000D01*
X-1587500Y-69330D01*
X-1591670Y-61330D01*
X-1595000Y-48000D01*
X-1595830Y-36000D01*
X-1594170Y-24000D01*
X-1591670Y-16000D01*
X-1586670Y-8000D01*
X-1580830Y-2670D01*
X-1575000Y0D01*
X-1569170D01*
X-1563330Y-2670D01*
X-1558330Y-6670D01*
X-1554170Y-12000D01*
G01X-1523330D02*
X-1518330Y-5330D01*
X-1512500Y-1330D01*
X-1505000Y0D01*
X-1497500Y-2670D01*
X-1491670Y-8000D01*
X-1487500Y-17330D01*
X-1486670Y-28000D01*
X-1488330Y-38670D01*
X-1492500Y-45330D01*
X-1498330Y-50670D01*
X-1504170Y-52000D01*
X-1510000Y-50670D01*
X-1517500Y-45330D01*
X-1515000Y-80000D01*
X-1492500D01*
G01X-1435000Y0D02*
X-1429170Y-1330D01*
X-1422500Y-5330D01*
X-1418330Y-12000D01*
X-1416670Y-21330D01*
X-1418330Y-30660D01*
X-1423330Y-38670D01*
X-1430830Y-42670D01*
X-1439170D01*
X-1444170Y-45330D01*
X-1448330Y-52000D01*
X-1450000Y-61330D01*
X-1447500Y-70670D01*
X-1441670Y-77330D01*
X-1435000Y-80000D01*
X-1428330Y-77330D01*
X-1422500Y-70670D01*
X-1420000Y-61330D01*
X-1421670Y-52000D01*
X-1425830Y-45330D01*
X-1430830Y-42670D01*
X-1439170D01*
X-1446670Y-38670D01*
X-1451670Y-30660D01*
X-1453330Y-21330D01*
X-1451670Y-12000D01*
X-1447500Y-5330D01*
X-1440830Y-1330D01*
X-1435000Y0D01*
G01X-1556670Y926670D02*
X-1561670Y922670D01*
X-1567500Y920000D01*
X-1574170D01*
X-1581670Y924000D01*
X-1587500Y930670D01*
X-1591670Y938670D01*
X-1595000Y952000D01*
X-1595830Y964000D01*
X-1594170Y976000D01*
X-1591670Y984000D01*
X-1586670Y992000D01*
X-1580830Y997330D01*
X-1575000Y1000000D01*
X-1569170D01*
X-1563330Y997330D01*
X-1558330Y993330D01*
X-1554170Y988000D01*
G01X-1495000Y1000000D02*
Y920000D01*
X-1525830Y977330D01*
X-1484170D01*
G01X-1450830Y966670D02*
X-1445000Y957330D01*
X-1440000Y952000D01*
X-1433330Y949330D01*
X-1427500Y952000D01*
X-1423330Y957330D01*
X-1420000Y965330D01*
X-1419170Y974670D01*
X-1420000Y982670D01*
X-1423330Y990670D01*
X-1428330Y997330D01*
X-1434170Y1000000D01*
X-1440830Y997330D01*
X-1446670Y989340D01*
X-1450000Y977330D01*
X-1450830Y964000D01*
X-1449170Y946670D01*
X-1446670Y937330D01*
X-1442500Y928000D01*
X-1436670Y921330D01*
X-1430830Y920000D01*
X-1425000Y922670D01*
X-1420830Y929330D01*
G01X-1556670Y1326670D02*
X-1561670Y1322670D01*
X-1567500Y1320000D01*
X-1574170D01*
X-1581670Y1324000D01*
X-1587500Y1330670D01*
X-1591670Y1338670D01*
X-1595000Y1352000D01*
X-1595830Y1364000D01*
X-1594170Y1376000D01*
X-1591670Y1384000D01*
X-1586670Y1392000D01*
X-1580830Y1397330D01*
X-1575000Y1400000D01*
X-1569170D01*
X-1563330Y1397330D01*
X-1558330Y1393330D01*
X-1554170Y1388000D01*
G01X-1495000Y1400000D02*
Y1320000D01*
X-1525830Y1377330D01*
X-1484170D01*
G01X-1450830Y1333330D02*
X-1445830Y1325330D01*
X-1440000Y1321330D01*
X-1433330Y1320000D01*
X-1425000Y1322670D01*
X-1419170Y1329330D01*
X-1417500Y1337330D01*
X-1418330Y1345340D01*
X-1421670Y1352000D01*
X-1438330Y1365330D01*
X-1445830Y1374670D01*
X-1450830Y1388000D01*
X-1452500Y1400000D01*
X-1417500D01*
G01X-1173330Y1856670D02*
X-1177330Y1861670D01*
X-1180000Y1867500D01*
Y1874170D01*
X-1176000Y1881670D01*
X-1169330Y1887500D01*
X-1161330Y1891670D01*
X-1148000Y1895000D01*
X-1136000Y1895830D01*
X-1124000Y1894170D01*
X-1116000Y1891670D01*
X-1108000Y1886670D01*
X-1102670Y1880830D01*
X-1100000Y1875000D01*
Y1869170D01*
X-1102670Y1863330D01*
X-1106670Y1858330D01*
X-1112000Y1854170D01*
G01X-1116000Y1823330D02*
X-1106670Y1818330D01*
X-1101330Y1811670D01*
X-1100000Y1804170D01*
X-1101330Y1797500D01*
X-1108000Y1790830D01*
X-1116000Y1786670D01*
X-1124000Y1785830D01*
X-1133330Y1787500D01*
X-1140000Y1793330D01*
X-1142670Y1799170D01*
Y1806670D01*
G01Y1799170D02*
X-1146670Y1794170D01*
X-1153330Y1790000D01*
X-1161330Y1788330D01*
X-1169330Y1790000D01*
X-1176000Y1794170D01*
X-1180000Y1801670D01*
X-1178670Y1809170D01*
X-1173330Y1816670D01*
G01X-1180000Y1735000D02*
X-1177330Y1741670D01*
X-1170670Y1746670D01*
X-1162670Y1750000D01*
X-1152000Y1752500D01*
X-1140000Y1753330D01*
X-1128000Y1752500D01*
X-1117330Y1750000D01*
X-1109330Y1746670D01*
X-1102670Y1741670D01*
X-1100000Y1735000D01*
X-1102670Y1728330D01*
X-1109330Y1723330D01*
X-1117330Y1720000D01*
X-1128000Y1717500D01*
X-1140000Y1716670D01*
X-1152000Y1717500D01*
X-1162670Y1720000D01*
X-1170670Y1723330D01*
X-1177330Y1728330D01*
X-1180000Y1735000D01*
G01X-1556670Y1726670D02*
X-1561670Y1722670D01*
X-1567500Y1720000D01*
X-1574170D01*
X-1581670Y1724000D01*
X-1587500Y1730670D01*
X-1591670Y1738670D01*
X-1595000Y1752000D01*
X-1595830Y1764000D01*
X-1594170Y1776000D01*
X-1591670Y1784000D01*
X-1586670Y1792000D01*
X-1580830Y1797330D01*
X-1575000Y1800000D01*
X-1569170D01*
X-1563330Y1797330D01*
X-1558330Y1793330D01*
X-1554170Y1788000D01*
G01X-1523330Y1784000D02*
X-1518330Y1793330D01*
X-1511670Y1798670D01*
X-1504170Y1800000D01*
X-1497500Y1798670D01*
X-1490830Y1792000D01*
X-1486670Y1784000D01*
X-1485830Y1776000D01*
X-1487500Y1766670D01*
X-1493330Y1760000D01*
X-1499170Y1757330D01*
X-1506670D01*
G01X-1499170D02*
X-1494170Y1753330D01*
X-1490000Y1746670D01*
X-1488330Y1738670D01*
X-1490000Y1730670D01*
X-1494170Y1724000D01*
X-1501670Y1720000D01*
X-1509170Y1721330D01*
X-1516670Y1726670D01*
G01X-1435000Y1800000D02*
X-1429170Y1798670D01*
X-1422500Y1794670D01*
X-1418330Y1788000D01*
X-1416670Y1778670D01*
X-1418330Y1769340D01*
X-1423330Y1761330D01*
X-1430830Y1757330D01*
X-1439170D01*
X-1444170Y1754670D01*
X-1448330Y1748000D01*
X-1450000Y1738670D01*
X-1447500Y1729330D01*
X-1441670Y1722670D01*
X-1435000Y1720000D01*
X-1428330Y1722670D01*
X-1422500Y1729330D01*
X-1420000Y1738670D01*
X-1421670Y1748000D01*
X-1425830Y1754670D01*
X-1430830Y1757330D01*
X-1439170D01*
X-1446670Y1761330D01*
X-1451670Y1769340D01*
X-1453330Y1778670D01*
X-1451670Y1788000D01*
X-1447500Y1794670D01*
X-1440830Y1798670D01*
X-1435000Y1800000D01*
G01X-891670Y3500000D02*
Y3420000D01*
X-870830D01*
X-864170Y3424000D01*
X-860000Y3429330D01*
X-858330Y3440000D01*
X-860000Y3450670D01*
X-865000Y3457330D01*
X-870830Y3461330D01*
X-891670D01*
G01X-870830D02*
X-858330Y3500000D01*
G01X-820830Y3433330D02*
X-815830Y3425330D01*
X-810000Y3421330D01*
X-803330Y3420000D01*
X-795000Y3422670D01*
X-789170Y3429330D01*
X-787500Y3437330D01*
X-788330Y3445340D01*
X-791670Y3452000D01*
X-808330Y3465330D01*
X-815830Y3474670D01*
X-820830Y3488000D01*
X-822500Y3500000D01*
X-787500D01*
G01X-753330Y3484000D02*
X-748330Y3493330D01*
X-741670Y3498670D01*
X-734170Y3500000D01*
X-727500Y3498670D01*
X-720830Y3492000D01*
X-716670Y3484000D01*
X-715830Y3476000D01*
X-717500Y3466670D01*
X-723330Y3460000D01*
X-729170Y3457330D01*
X-736670D01*
G01X-729170D02*
X-724170Y3453330D01*
X-720000Y3446670D01*
X-718330Y3438670D01*
X-720000Y3430670D01*
X-724170Y3424000D01*
X-731670Y3420000D01*
X-739170Y3421330D01*
X-746670Y3426670D01*
G01X-126670Y-3856670D02*
X-122670Y-3861670D01*
X-120000Y-3867500D01*
Y-3874170D01*
X-124000Y-3881670D01*
X-130670Y-3887500D01*
X-138670Y-3891670D01*
X-152000Y-3895000D01*
X-164000Y-3895830D01*
X-176000Y-3894170D01*
X-184000Y-3891670D01*
X-192000Y-3886670D01*
X-197330Y-3880830D01*
X-200000Y-3875000D01*
Y-3869170D01*
X-197330Y-3863330D01*
X-193330Y-3858330D01*
X-188000Y-3854170D01*
G01X-200000Y-3805000D02*
X-120000D01*
X-136000Y-3815000D01*
G01X-200000D02*
Y-3795000D01*
G01Y-3735000D02*
X-120000D01*
X-136000Y-3745000D01*
G01X-200000D02*
Y-3725000D01*
G01Y-3665000D02*
X-120000D01*
X-136000Y-3675000D01*
G01X-200000D02*
Y-3655000D01*
G01X-326670Y-3656670D02*
X-322670Y-3661670D01*
X-320000Y-3667500D01*
Y-3674170D01*
X-324000Y-3681670D01*
X-330670Y-3687500D01*
X-338670Y-3691670D01*
X-352000Y-3695000D01*
X-364000Y-3695830D01*
X-376000Y-3694170D01*
X-384000Y-3691670D01*
X-392000Y-3686670D01*
X-397330Y-3680830D01*
X-400000Y-3675000D01*
Y-3669170D01*
X-397330Y-3663330D01*
X-393330Y-3658330D01*
X-388000Y-3654170D01*
G01X-400000Y-3605000D02*
X-320000D01*
X-336000Y-3615000D01*
G01X-400000D02*
Y-3595000D01*
G01Y-3535000D02*
X-320000D01*
X-336000Y-3545000D01*
G01X-400000D02*
Y-3525000D01*
G01X-333330Y-3480830D02*
X-325330Y-3475830D01*
X-321330Y-3470000D01*
X-320000Y-3463330D01*
X-322670Y-3455000D01*
X-329330Y-3449170D01*
X-337330Y-3447500D01*
X-345340Y-3448330D01*
X-352000Y-3451670D01*
X-365330Y-3468330D01*
X-374670Y-3475830D01*
X-388000Y-3480830D01*
X-400000Y-3482500D01*
Y-3447500D01*
G01X-726670Y-3656670D02*
X-722670Y-3661670D01*
X-720000Y-3667500D01*
Y-3674170D01*
X-724000Y-3681670D01*
X-730670Y-3687500D01*
X-738670Y-3691670D01*
X-752000Y-3695000D01*
X-764000Y-3695830D01*
X-776000Y-3694170D01*
X-784000Y-3691670D01*
X-792000Y-3686670D01*
X-797330Y-3680830D01*
X-800000Y-3675000D01*
Y-3669170D01*
X-797330Y-3663330D01*
X-793330Y-3658330D01*
X-788000Y-3654170D01*
G01X-800000Y-3605000D02*
X-720000D01*
X-736000Y-3615000D01*
G01X-800000D02*
Y-3595000D01*
G01Y-3535000D02*
X-720000D01*
X-736000Y-3545000D01*
G01X-800000D02*
Y-3525000D01*
G01X-784000Y-3483330D02*
X-793330Y-3478330D01*
X-798670Y-3471670D01*
X-800000Y-3464170D01*
X-798670Y-3457500D01*
X-792000Y-3450830D01*
X-784000Y-3446670D01*
X-776000Y-3445830D01*
X-766670Y-3447500D01*
X-760000Y-3453330D01*
X-757330Y-3459170D01*
Y-3466670D01*
G01Y-3459170D02*
X-753330Y-3454170D01*
X-746670Y-3450000D01*
X-738670Y-3448330D01*
X-730670Y-3450000D01*
X-724000Y-3454170D01*
X-720000Y-3461670D01*
X-721330Y-3469170D01*
X-726670Y-3476670D01*
G01X-673330Y-1193330D02*
X-677330Y-1188330D01*
X-680000Y-1182500D01*
Y-1175830D01*
X-676000Y-1168330D01*
X-669330Y-1162500D01*
X-661330Y-1158330D01*
X-648000Y-1155000D01*
X-636000Y-1154170D01*
X-624000Y-1155830D01*
X-616000Y-1158330D01*
X-608000Y-1163330D01*
X-602670Y-1169170D01*
X-600000Y-1175000D01*
Y-1180830D01*
X-602670Y-1186670D01*
X-606670Y-1191670D01*
X-612000Y-1195830D01*
G01X-600000Y-1243330D02*
X-617330Y-1245000D01*
X-632000Y-1247500D01*
X-645330Y-1250830D01*
X-660000Y-1255000D01*
X-680000Y-1261670D01*
Y-1228330D01*
G01X-633330Y-1299170D02*
X-642670Y-1305000D01*
X-648000Y-1310000D01*
X-650670Y-1316670D01*
X-648000Y-1322500D01*
X-642670Y-1326670D01*
X-634670Y-1330000D01*
X-625330Y-1330830D01*
X-617330Y-1330000D01*
X-609330Y-1326670D01*
X-602670Y-1321670D01*
X-600000Y-1315830D01*
X-602670Y-1309170D01*
X-610660Y-1303330D01*
X-622670Y-1300000D01*
X-636000Y-1299170D01*
X-653330Y-1300830D01*
X-662670Y-1303330D01*
X-672000Y-1307500D01*
X-678670Y-1313330D01*
X-680000Y-1319170D01*
X-677330Y-1325000D01*
X-670670Y-1329170D01*
G01X-373330Y-1193330D02*
X-377330Y-1188330D01*
X-380000Y-1182500D01*
Y-1175830D01*
X-376000Y-1168330D01*
X-369330Y-1162500D01*
X-361330Y-1158330D01*
X-348000Y-1155000D01*
X-336000Y-1154170D01*
X-324000Y-1155830D01*
X-316000Y-1158330D01*
X-308000Y-1163330D01*
X-302670Y-1169170D01*
X-300000Y-1175000D01*
Y-1180830D01*
X-302670Y-1186670D01*
X-306670Y-1191670D01*
X-312000Y-1195830D01*
G01X-300000Y-1243330D02*
X-317330Y-1245000D01*
X-332000Y-1247500D01*
X-345330Y-1250830D01*
X-360000Y-1255000D01*
X-380000Y-1261670D01*
Y-1228330D01*
G01X-312000Y-1296670D02*
X-305330Y-1301670D01*
X-301330Y-1307500D01*
X-300000Y-1315000D01*
X-302670Y-1322500D01*
X-308000Y-1328330D01*
X-317330Y-1332500D01*
X-328000Y-1333330D01*
X-338670Y-1331670D01*
X-345330Y-1327500D01*
X-350670Y-1321670D01*
X-352000Y-1315830D01*
X-350670Y-1310000D01*
X-345330Y-1302500D01*
X-380000Y-1305000D01*
Y-1327500D01*
G01X-326670Y-456670D02*
X-322670Y-461670D01*
X-320000Y-467500D01*
Y-474170D01*
X-324000Y-481670D01*
X-330670Y-487500D01*
X-338670Y-491670D01*
X-352000Y-495000D01*
X-364000Y-495830D01*
X-376000Y-494170D01*
X-384000Y-491670D01*
X-392000Y-486670D01*
X-397330Y-480830D01*
X-400000Y-475000D01*
Y-469170D01*
X-397330Y-463330D01*
X-393330Y-458330D01*
X-388000Y-454170D01*
G01X-366670Y-420830D02*
X-357330Y-415000D01*
X-352000Y-410000D01*
X-349330Y-403330D01*
X-352000Y-397500D01*
X-357330Y-393330D01*
X-365330Y-390000D01*
X-374670Y-389170D01*
X-382670Y-390000D01*
X-390670Y-393330D01*
X-397330Y-398330D01*
X-400000Y-404170D01*
X-397330Y-410830D01*
X-389340Y-416670D01*
X-377330Y-420000D01*
X-364000Y-420830D01*
X-346670Y-419170D01*
X-337330Y-416670D01*
X-328000Y-412500D01*
X-321330Y-406670D01*
X-320000Y-400830D01*
X-322670Y-395000D01*
X-329330Y-390830D01*
G01X-400000Y-325000D02*
X-320000D01*
X-377330Y-355830D01*
Y-314170D01*
G01X-726670Y-456670D02*
X-722670Y-461670D01*
X-720000Y-467500D01*
Y-474170D01*
X-724000Y-481670D01*
X-730670Y-487500D01*
X-738670Y-491670D01*
X-752000Y-495000D01*
X-764000Y-495830D01*
X-776000Y-494170D01*
X-784000Y-491670D01*
X-792000Y-486670D01*
X-797330Y-480830D01*
X-800000Y-475000D01*
Y-469170D01*
X-797330Y-463330D01*
X-793330Y-458330D01*
X-788000Y-454170D01*
G01X-766670Y-420830D02*
X-757330Y-415000D01*
X-752000Y-410000D01*
X-749330Y-403330D01*
X-752000Y-397500D01*
X-757330Y-393330D01*
X-765330Y-390000D01*
X-774670Y-389170D01*
X-782670Y-390000D01*
X-790670Y-393330D01*
X-797330Y-398330D01*
X-800000Y-404170D01*
X-797330Y-410830D01*
X-789340Y-416670D01*
X-777330Y-420000D01*
X-764000Y-420830D01*
X-746670Y-419170D01*
X-737330Y-416670D01*
X-728000Y-412500D01*
X-721330Y-406670D01*
X-720000Y-400830D01*
X-722670Y-395000D01*
X-729330Y-390830D01*
G01X-788000Y-353330D02*
X-794670Y-348330D01*
X-798670Y-342500D01*
X-800000Y-335000D01*
X-797330Y-327500D01*
X-792000Y-321670D01*
X-782670Y-317500D01*
X-772000Y-316670D01*
X-761330Y-318330D01*
X-754670Y-322500D01*
X-749330Y-328330D01*
X-748000Y-334170D01*
X-749330Y-340000D01*
X-754670Y-347500D01*
X-720000Y-345000D01*
Y-322500D01*
G01X-126670Y-706670D02*
X-122670Y-711670D01*
X-120000Y-717500D01*
Y-724170D01*
X-124000Y-731670D01*
X-130670Y-737500D01*
X-138670Y-741670D01*
X-152000Y-745000D01*
X-164000Y-745830D01*
X-176000Y-744170D01*
X-184000Y-741670D01*
X-192000Y-736670D01*
X-197330Y-730830D01*
X-200000Y-725000D01*
Y-719170D01*
X-197330Y-713330D01*
X-193330Y-708330D01*
X-188000Y-704170D01*
G01X-166670Y-670830D02*
X-157330Y-665000D01*
X-152000Y-660000D01*
X-149330Y-653330D01*
X-152000Y-647500D01*
X-157330Y-643330D01*
X-165330Y-640000D01*
X-174670Y-639170D01*
X-182670Y-640000D01*
X-190670Y-643330D01*
X-197330Y-648330D01*
X-200000Y-654170D01*
X-197330Y-660830D01*
X-189340Y-666670D01*
X-177330Y-670000D01*
X-164000Y-670830D01*
X-146670Y-669170D01*
X-137330Y-666670D01*
X-128000Y-662500D01*
X-121330Y-656670D01*
X-120000Y-650830D01*
X-122670Y-645000D01*
X-129330Y-640830D01*
G01X-184000Y-603330D02*
X-193330Y-598330D01*
X-198670Y-591670D01*
X-200000Y-584170D01*
X-198670Y-577500D01*
X-192000Y-570830D01*
X-184000Y-566670D01*
X-176000Y-565830D01*
X-166670Y-567500D01*
X-160000Y-573330D01*
X-157330Y-579170D01*
Y-586670D01*
G01Y-579170D02*
X-153330Y-574170D01*
X-146670Y-570000D01*
X-138670Y-568330D01*
X-130670Y-570000D01*
X-124000Y-574170D01*
X-120000Y-581670D01*
X-121330Y-589170D01*
X-126670Y-596670D01*
G01X-373330Y1856670D02*
X-377330Y1861670D01*
X-380000Y1867500D01*
Y1874170D01*
X-376000Y1881670D01*
X-369330Y1887500D01*
X-361330Y1891670D01*
X-348000Y1895000D01*
X-336000Y1895830D01*
X-324000Y1894170D01*
X-316000Y1891670D01*
X-308000Y1886670D01*
X-302670Y1880830D01*
X-300000Y1875000D01*
Y1869170D01*
X-302670Y1863330D01*
X-306670Y1858330D01*
X-312000Y1854170D01*
G01X-366670Y1820830D02*
X-374670Y1815830D01*
X-378670Y1810000D01*
X-380000Y1803330D01*
X-377330Y1795000D01*
X-370670Y1789170D01*
X-362670Y1787500D01*
X-354660Y1788330D01*
X-348000Y1791670D01*
X-334670Y1808330D01*
X-325330Y1815830D01*
X-312000Y1820830D01*
X-300000Y1822500D01*
Y1787500D01*
G01Y1735000D02*
X-301330Y1729170D01*
X-305330Y1722500D01*
X-312000Y1718330D01*
X-321330Y1716670D01*
X-330660Y1718330D01*
X-338670Y1723330D01*
X-342670Y1730830D01*
Y1739170D01*
X-345330Y1744170D01*
X-352000Y1748330D01*
X-361330Y1750000D01*
X-370670Y1747500D01*
X-377330Y1741670D01*
X-380000Y1735000D01*
X-377330Y1728330D01*
X-370670Y1722500D01*
X-361330Y1720000D01*
X-352000Y1721670D01*
X-345330Y1725830D01*
X-342670Y1730830D01*
Y1739170D01*
X-338670Y1746670D01*
X-330660Y1751670D01*
X-321330Y1753330D01*
X-312000Y1751670D01*
X-305330Y1747500D01*
X-301330Y1740830D01*
X-300000Y1735000D01*
G01X-773330Y1856670D02*
X-777330Y1861670D01*
X-780000Y1867500D01*
Y1874170D01*
X-776000Y1881670D01*
X-769330Y1887500D01*
X-761330Y1891670D01*
X-748000Y1895000D01*
X-736000Y1895830D01*
X-724000Y1894170D01*
X-716000Y1891670D01*
X-708000Y1886670D01*
X-702670Y1880830D01*
X-700000Y1875000D01*
Y1869170D01*
X-702670Y1863330D01*
X-706670Y1858330D01*
X-712000Y1854170D01*
G01X-766670Y1820830D02*
X-774670Y1815830D01*
X-778670Y1810000D01*
X-780000Y1803330D01*
X-777330Y1795000D01*
X-770670Y1789170D01*
X-762670Y1787500D01*
X-754660Y1788330D01*
X-748000Y1791670D01*
X-734670Y1808330D01*
X-725330Y1815830D01*
X-712000Y1820830D01*
X-700000Y1822500D01*
Y1787500D01*
G01X-709330Y1749170D02*
X-702670Y1743330D01*
X-700000Y1736670D01*
X-702670Y1730000D01*
X-710660Y1724170D01*
X-722670Y1720000D01*
X-734670Y1718330D01*
X-749330D01*
X-761330Y1720000D01*
X-772000Y1724170D01*
X-777330Y1729170D01*
X-780000Y1735000D01*
X-777330Y1741670D01*
X-772000Y1746670D01*
X-764000Y1750000D01*
X-753330Y1751670D01*
X-744000Y1750000D01*
X-734670Y1745830D01*
X-729330Y1740830D01*
X-728000Y1735000D01*
X-730660Y1728330D01*
X-737330Y1723330D01*
X-749330Y1718330D01*
G01X-191670Y3500000D02*
Y3420000D01*
X-170830D01*
X-164170Y3424000D01*
X-160000Y3429330D01*
X-158330Y3440000D01*
X-160000Y3450670D01*
X-165000Y3457330D01*
X-170830Y3461330D01*
X-191670D01*
G01X-170830D02*
X-158330Y3500000D01*
G01X-120830Y3433330D02*
X-115830Y3425330D01*
X-110000Y3421330D01*
X-103330Y3420000D01*
X-95000Y3422670D01*
X-89170Y3429330D01*
X-87500Y3437330D01*
X-88330Y3445340D01*
X-91670Y3452000D01*
X-108330Y3465330D01*
X-115830Y3474670D01*
X-120830Y3488000D01*
X-122500Y3500000D01*
X-87500D01*
G01X-50830Y3433330D02*
X-45830Y3425330D01*
X-40000Y3421330D01*
X-33330Y3420000D01*
X-25000Y3422670D01*
X-19170Y3429330D01*
X-17500Y3437330D01*
X-18330Y3445340D01*
X-21670Y3452000D01*
X-38330Y3465330D01*
X-45830Y3474670D01*
X-50830Y3488000D01*
X-52500Y3500000D01*
X-17500D01*
G01X50000Y-3658330D02*
X-30000D01*
Y-3679170D01*
X-26000Y-3685830D01*
X-20670Y-3690000D01*
X-10000Y-3691670D01*
X670Y-3690000D01*
X7330Y-3685000D01*
X11330Y-3679170D01*
Y-3658330D01*
G01Y-3679170D02*
X50000Y-3691670D01*
G01X34000Y-3726670D02*
X43330Y-3731670D01*
X48670Y-3738330D01*
X50000Y-3745830D01*
X48670Y-3752500D01*
X42000Y-3759170D01*
X34000Y-3763330D01*
X26000Y-3764170D01*
X16670Y-3762500D01*
X10000Y-3756670D01*
X7330Y-3750830D01*
Y-3743330D01*
G01Y-3750830D02*
X3330Y-3755830D01*
X-3330Y-3760000D01*
X-11330Y-3761670D01*
X-19330Y-3760000D01*
X-26000Y-3755830D01*
X-30000Y-3748330D01*
X-28670Y-3740830D01*
X-23330Y-3733330D01*
G01X34000Y-3796670D02*
X43330Y-3801670D01*
X48670Y-3808330D01*
X50000Y-3815830D01*
X48670Y-3822500D01*
X42000Y-3829170D01*
X34000Y-3833330D01*
X26000Y-3834170D01*
X16670Y-3832500D01*
X10000Y-3826670D01*
X7330Y-3820830D01*
Y-3813330D01*
G01Y-3820830D02*
X3330Y-3825830D01*
X-3330Y-3830000D01*
X-11330Y-3831670D01*
X-19330Y-3830000D01*
X-26000Y-3825830D01*
X-30000Y-3818330D01*
X-28670Y-3810830D01*
X-23330Y-3803330D01*
G01X373330Y-3656670D02*
X377330Y-3661670D01*
X380000Y-3667500D01*
Y-3674170D01*
X376000Y-3681670D01*
X369330Y-3687500D01*
X361330Y-3691670D01*
X348000Y-3695000D01*
X336000Y-3695830D01*
X324000Y-3694170D01*
X316000Y-3691670D01*
X308000Y-3686670D01*
X302670Y-3680830D01*
X300000Y-3675000D01*
Y-3669170D01*
X302670Y-3663330D01*
X306670Y-3658330D01*
X312000Y-3654170D01*
G01X300000Y-3605000D02*
X380000D01*
X364000Y-3615000D01*
G01X300000D02*
Y-3595000D01*
G01Y-3535000D02*
X380000D01*
X364000Y-3545000D01*
G01X300000D02*
Y-3525000D01*
G01X380000Y-3465000D02*
X377330Y-3471670D01*
X370670Y-3476670D01*
X362670Y-3480000D01*
X352000Y-3482500D01*
X340000Y-3483330D01*
X328000Y-3482500D01*
X317330Y-3480000D01*
X309330Y-3476670D01*
X302670Y-3471670D01*
X300000Y-3465000D01*
X302670Y-3458330D01*
X309330Y-3453330D01*
X317330Y-3450000D01*
X328000Y-3447500D01*
X340000Y-3446670D01*
X352000Y-3447500D01*
X362670Y-3450000D01*
X370670Y-3453330D01*
X377330Y-3458330D01*
X380000Y-3465000D01*
G01X673330Y-3656670D02*
X677330Y-3661670D01*
X680000Y-3667500D01*
Y-3674170D01*
X676000Y-3681670D01*
X669330Y-3687500D01*
X661330Y-3691670D01*
X648000Y-3695000D01*
X636000Y-3695830D01*
X624000Y-3694170D01*
X616000Y-3691670D01*
X608000Y-3686670D01*
X602670Y-3680830D01*
X600000Y-3675000D01*
Y-3669170D01*
X602670Y-3663330D01*
X606670Y-3658330D01*
X612000Y-3654170D01*
G01X600000Y-3605000D02*
X680000D01*
X664000Y-3615000D01*
G01X600000D02*
Y-3595000D01*
G01X680000Y-3535000D02*
X677330Y-3541670D01*
X670670Y-3546670D01*
X662670Y-3550000D01*
X652000Y-3552500D01*
X640000Y-3553330D01*
X628000Y-3552500D01*
X617330Y-3550000D01*
X609330Y-3546670D01*
X602670Y-3541670D01*
X600000Y-3535000D01*
X602670Y-3528330D01*
X609330Y-3523330D01*
X617330Y-3520000D01*
X628000Y-3517500D01*
X640000Y-3516670D01*
X652000Y-3517500D01*
X662670Y-3520000D01*
X670670Y-3523330D01*
X677330Y-3528330D01*
X680000Y-3535000D01*
G01X609330Y-3479170D02*
X602670Y-3473330D01*
X600000Y-3466670D01*
X602670Y-3460000D01*
X610660Y-3454170D01*
X622670Y-3450000D01*
X634670Y-3448330D01*
X649330D01*
X661330Y-3450000D01*
X672000Y-3454170D01*
X677330Y-3459170D01*
X680000Y-3465000D01*
X677330Y-3471670D01*
X672000Y-3476670D01*
X664000Y-3480000D01*
X653330Y-3481670D01*
X644000Y-3480000D01*
X634670Y-3475830D01*
X629330Y-3470830D01*
X628000Y-3465000D01*
X630660Y-3458330D01*
X637330Y-3453330D01*
X649330Y-3448330D01*
G01X856670Y-3126670D02*
X861670Y-3122670D01*
X867500Y-3120000D01*
X874170D01*
X881670Y-3124000D01*
X887500Y-3130670D01*
X891670Y-3138670D01*
X895000Y-3152000D01*
X895830Y-3164000D01*
X894170Y-3176000D01*
X891670Y-3184000D01*
X886670Y-3192000D01*
X880830Y-3197330D01*
X875000Y-3200000D01*
X869170D01*
X863330Y-3197330D01*
X858330Y-3193330D01*
X854170Y-3188000D01*
G01X805000Y-3200000D02*
Y-3120000D01*
X815000Y-3136000D01*
G01Y-3200000D02*
X795000D01*
G01X735000Y-3120000D02*
X741670Y-3122670D01*
X746670Y-3129330D01*
X750000Y-3137330D01*
X752500Y-3148000D01*
X753330Y-3160000D01*
X752500Y-3172000D01*
X750000Y-3182670D01*
X746670Y-3190670D01*
X741670Y-3197330D01*
X735000Y-3200000D01*
X728330Y-3197330D01*
X723330Y-3190670D01*
X720000Y-3182670D01*
X717500Y-3172000D01*
X716670Y-3160000D01*
X717500Y-3148000D01*
X720000Y-3137330D01*
X723330Y-3129330D01*
X728330Y-3122670D01*
X735000Y-3120000D01*
G01X683330Y-3188000D02*
X678330Y-3194670D01*
X672500Y-3198670D01*
X665000Y-3200000D01*
X657500Y-3197330D01*
X651670Y-3192000D01*
X647500Y-3182670D01*
X646670Y-3172000D01*
X648330Y-3161330D01*
X652500Y-3154670D01*
X658330Y-3149330D01*
X664170Y-3148000D01*
X670000Y-3149330D01*
X677500Y-3154670D01*
X675000Y-3120000D01*
X652500D01*
G01X856670Y-2826670D02*
X861670Y-2822670D01*
X867500Y-2820000D01*
X874170D01*
X881670Y-2824000D01*
X887500Y-2830670D01*
X891670Y-2838670D01*
X895000Y-2852000D01*
X895830Y-2864000D01*
X894170Y-2876000D01*
X891670Y-2884000D01*
X886670Y-2892000D01*
X880830Y-2897330D01*
X875000Y-2900000D01*
X869170D01*
X863330Y-2897330D01*
X858330Y-2893330D01*
X854170Y-2888000D01*
G01X805000Y-2900000D02*
Y-2820000D01*
X815000Y-2836000D01*
G01Y-2900000D02*
X795000D01*
G01X735000Y-2820000D02*
X741670Y-2822670D01*
X746670Y-2829330D01*
X750000Y-2837330D01*
X752500Y-2848000D01*
X753330Y-2860000D01*
X752500Y-2872000D01*
X750000Y-2882670D01*
X746670Y-2890670D01*
X741670Y-2897330D01*
X735000Y-2900000D01*
X728330Y-2897330D01*
X723330Y-2890670D01*
X720000Y-2882670D01*
X717500Y-2872000D01*
X716670Y-2860000D01*
X717500Y-2848000D01*
X720000Y-2837330D01*
X723330Y-2829330D01*
X728330Y-2822670D01*
X735000Y-2820000D01*
G01X665000Y-2900000D02*
Y-2820000D01*
X675000Y-2836000D01*
G01Y-2900000D02*
X655000D01*
G01X756670Y-2426670D02*
X761670Y-2422670D01*
X767500Y-2420000D01*
X774170D01*
X781670Y-2424000D01*
X787500Y-2430670D01*
X791670Y-2438670D01*
X795000Y-2452000D01*
X795830Y-2464000D01*
X794170Y-2476000D01*
X791670Y-2484000D01*
X786670Y-2492000D01*
X780830Y-2497330D01*
X775000Y-2500000D01*
X769170D01*
X763330Y-2497330D01*
X758330Y-2493330D01*
X754170Y-2488000D01*
G01X719170Y-2490670D02*
X713330Y-2497330D01*
X706670Y-2500000D01*
X700000Y-2497330D01*
X694170Y-2489340D01*
X690000Y-2477330D01*
X688330Y-2465330D01*
Y-2450670D01*
X690000Y-2438670D01*
X694170Y-2428000D01*
X699170Y-2422670D01*
X705000Y-2420000D01*
X711670Y-2422670D01*
X716670Y-2428000D01*
X720000Y-2436000D01*
X721670Y-2446670D01*
X720000Y-2456000D01*
X715830Y-2465330D01*
X710830Y-2470670D01*
X705000Y-2472000D01*
X698330Y-2469340D01*
X693330Y-2462670D01*
X688330Y-2450670D01*
G01X636670Y-2500000D02*
X635000Y-2482670D01*
X632500Y-2468000D01*
X629170Y-2454670D01*
X625000Y-2440000D01*
X618330Y-2420000D01*
X651670D01*
G01X756670Y-1626670D02*
X761670Y-1622670D01*
X767500Y-1620000D01*
X774170D01*
X781670Y-1624000D01*
X787500Y-1630670D01*
X791670Y-1638670D01*
X795000Y-1652000D01*
X795830Y-1664000D01*
X794170Y-1676000D01*
X791670Y-1684000D01*
X786670Y-1692000D01*
X780830Y-1697330D01*
X775000Y-1700000D01*
X769170D01*
X763330Y-1697330D01*
X758330Y-1693330D01*
X754170Y-1688000D01*
G01X705000Y-1700000D02*
X699170Y-1698670D01*
X692500Y-1694670D01*
X688330Y-1688000D01*
X686670Y-1678670D01*
X688330Y-1669340D01*
X693330Y-1661330D01*
X700830Y-1657330D01*
X709170D01*
X714170Y-1654670D01*
X718330Y-1648000D01*
X720000Y-1638670D01*
X717500Y-1629330D01*
X711670Y-1622670D01*
X705000Y-1620000D01*
X698330Y-1622670D01*
X692500Y-1629330D01*
X690000Y-1638670D01*
X691670Y-1648000D01*
X695830Y-1654670D01*
X700830Y-1657330D01*
X709170D01*
X716670Y-1661330D01*
X721670Y-1669340D01*
X723330Y-1678670D01*
X721670Y-1688000D01*
X717500Y-1694670D01*
X710830Y-1698670D01*
X705000Y-1700000D01*
G01X653330Y-1688000D02*
X648330Y-1694670D01*
X642500Y-1698670D01*
X635000Y-1700000D01*
X627500Y-1697330D01*
X621670Y-1692000D01*
X617500Y-1682670D01*
X616670Y-1672000D01*
X618330Y-1661330D01*
X622500Y-1654670D01*
X628330Y-1649330D01*
X634170Y-1648000D01*
X640000Y-1649330D01*
X647500Y-1654670D01*
X645000Y-1620000D01*
X622500D01*
G01X756670Y-2126670D02*
X761670Y-2122670D01*
X767500Y-2120000D01*
X774170D01*
X781670Y-2124000D01*
X787500Y-2130670D01*
X791670Y-2138670D01*
X795000Y-2152000D01*
X795830Y-2164000D01*
X794170Y-2176000D01*
X791670Y-2184000D01*
X786670Y-2192000D01*
X780830Y-2197330D01*
X775000Y-2200000D01*
X769170D01*
X763330Y-2197330D01*
X758330Y-2193330D01*
X754170Y-2188000D01*
G01X719170Y-2190670D02*
X713330Y-2197330D01*
X706670Y-2200000D01*
X700000Y-2197330D01*
X694170Y-2189340D01*
X690000Y-2177330D01*
X688330Y-2165330D01*
Y-2150670D01*
X690000Y-2138670D01*
X694170Y-2128000D01*
X699170Y-2122670D01*
X705000Y-2120000D01*
X711670Y-2122670D01*
X716670Y-2128000D01*
X720000Y-2136000D01*
X721670Y-2146670D01*
X720000Y-2156000D01*
X715830Y-2165330D01*
X710830Y-2170670D01*
X705000Y-2172000D01*
X698330Y-2169340D01*
X693330Y-2162670D01*
X688330Y-2150670D01*
G01X653330Y-2184000D02*
X648330Y-2193330D01*
X641670Y-2198670D01*
X634170Y-2200000D01*
X627500Y-2198670D01*
X620830Y-2192000D01*
X616670Y-2184000D01*
X615830Y-2176000D01*
X617500Y-2166670D01*
X623330Y-2160000D01*
X629170Y-2157330D01*
X636670D01*
G01X629170D02*
X624170Y-2153330D01*
X620000Y-2146670D01*
X618330Y-2138670D01*
X620000Y-2130670D01*
X624170Y-2124000D01*
X631670Y-2120000D01*
X639170Y-2121330D01*
X646670Y-2126670D01*
G01X756670Y-1726670D02*
X761670Y-1722670D01*
X767500Y-1720000D01*
X774170D01*
X781670Y-1724000D01*
X787500Y-1730670D01*
X791670Y-1738670D01*
X795000Y-1752000D01*
X795830Y-1764000D01*
X794170Y-1776000D01*
X791670Y-1784000D01*
X786670Y-1792000D01*
X780830Y-1797330D01*
X775000Y-1800000D01*
X769170D01*
X763330Y-1797330D01*
X758330Y-1793330D01*
X754170Y-1788000D01*
G01X705000Y-1800000D02*
X699170Y-1798670D01*
X692500Y-1794670D01*
X688330Y-1788000D01*
X686670Y-1778670D01*
X688330Y-1769340D01*
X693330Y-1761330D01*
X700830Y-1757330D01*
X709170D01*
X714170Y-1754670D01*
X718330Y-1748000D01*
X720000Y-1738670D01*
X717500Y-1729330D01*
X711670Y-1722670D01*
X705000Y-1720000D01*
X698330Y-1722670D01*
X692500Y-1729330D01*
X690000Y-1738670D01*
X691670Y-1748000D01*
X695830Y-1754670D01*
X700830Y-1757330D01*
X709170D01*
X716670Y-1761330D01*
X721670Y-1769340D01*
X723330Y-1778670D01*
X721670Y-1788000D01*
X717500Y-1794670D01*
X710830Y-1798670D01*
X705000Y-1800000D01*
G01X649170Y-1790670D02*
X643330Y-1797330D01*
X636670Y-1800000D01*
X630000Y-1797330D01*
X624170Y-1789340D01*
X620000Y-1777330D01*
X618330Y-1765330D01*
Y-1750670D01*
X620000Y-1738670D01*
X624170Y-1728000D01*
X629170Y-1722670D01*
X635000Y-1720000D01*
X641670Y-1722670D01*
X646670Y-1728000D01*
X650000Y-1736000D01*
X651670Y-1746670D01*
X650000Y-1756000D01*
X645830Y-1765330D01*
X640830Y-1770670D01*
X635000Y-1772000D01*
X628330Y-1769340D01*
X623330Y-1762670D01*
X618330Y-1750670D01*
G01X750000Y-858330D02*
X670000D01*
Y-879170D01*
X674000Y-885830D01*
X679330Y-890000D01*
X690000Y-891670D01*
X700670Y-890000D01*
X707330Y-885000D01*
X711330Y-879170D01*
Y-858330D01*
G01Y-879170D02*
X750000Y-891670D01*
G01X734000Y-926670D02*
X743330Y-931670D01*
X748670Y-938330D01*
X750000Y-945830D01*
X748670Y-952500D01*
X742000Y-959170D01*
X734000Y-963330D01*
X726000Y-964170D01*
X716670Y-962500D01*
X710000Y-956670D01*
X707330Y-950830D01*
Y-943330D01*
G01Y-950830D02*
X703330Y-955830D01*
X696670Y-960000D01*
X688670Y-961670D01*
X680670Y-960000D01*
X674000Y-955830D01*
X670000Y-948330D01*
X671330Y-940830D01*
X676670Y-933330D01*
G01X683330Y-999170D02*
X675330Y-1004170D01*
X671330Y-1010000D01*
X670000Y-1016670D01*
X672670Y-1025000D01*
X679330Y-1030830D01*
X687330Y-1032500D01*
X695340Y-1031670D01*
X702000Y-1028330D01*
X715330Y-1011670D01*
X724670Y-1004170D01*
X738000Y-999170D01*
X750000Y-997500D01*
Y-1032500D01*
G01X26670Y-1193330D02*
X22670Y-1188330D01*
X20000Y-1182500D01*
Y-1175830D01*
X24000Y-1168330D01*
X30670Y-1162500D01*
X38670Y-1158330D01*
X52000Y-1155000D01*
X64000Y-1154170D01*
X76000Y-1155830D01*
X84000Y-1158330D01*
X92000Y-1163330D01*
X97330Y-1169170D01*
X100000Y-1175000D01*
Y-1180830D01*
X97330Y-1186670D01*
X93330Y-1191670D01*
X88000Y-1195830D01*
G01X100000Y-1243330D02*
X82670Y-1245000D01*
X68000Y-1247500D01*
X54670Y-1250830D01*
X40000Y-1255000D01*
X20000Y-1261670D01*
Y-1228330D01*
G01X100000Y-1325000D02*
X20000D01*
X77330Y-1294170D01*
Y-1335830D01*
G01X326670Y-1193330D02*
X322670Y-1188330D01*
X320000Y-1182500D01*
Y-1175830D01*
X324000Y-1168330D01*
X330670Y-1162500D01*
X338670Y-1158330D01*
X352000Y-1155000D01*
X364000Y-1154170D01*
X376000Y-1155830D01*
X384000Y-1158330D01*
X392000Y-1163330D01*
X397330Y-1169170D01*
X400000Y-1175000D01*
Y-1180830D01*
X397330Y-1186670D01*
X393330Y-1191670D01*
X388000Y-1195830D01*
G01X400000Y-1243330D02*
X382670Y-1245000D01*
X368000Y-1247500D01*
X354670Y-1250830D01*
X340000Y-1255000D01*
X320000Y-1261670D01*
Y-1228330D01*
G01X384000Y-1296670D02*
X393330Y-1301670D01*
X398670Y-1308330D01*
X400000Y-1315830D01*
X398670Y-1322500D01*
X392000Y-1329170D01*
X384000Y-1333330D01*
X376000Y-1334170D01*
X366670Y-1332500D01*
X360000Y-1326670D01*
X357330Y-1320830D01*
Y-1313330D01*
G01Y-1320830D02*
X353330Y-1325830D01*
X346670Y-1330000D01*
X338670Y-1331670D01*
X330670Y-1330000D01*
X324000Y-1325830D01*
X320000Y-1318330D01*
X321330Y-1310830D01*
X326670Y-1303330D01*
G01X50000Y-558330D02*
X-30000D01*
Y-579170D01*
X-26000Y-585830D01*
X-20670Y-590000D01*
X-10000Y-591670D01*
X670Y-590000D01*
X7330Y-585000D01*
X11330Y-579170D01*
Y-558330D01*
G01Y-579170D02*
X50000Y-591670D01*
G01X-16670Y-629170D02*
X-24670Y-634170D01*
X-28670Y-640000D01*
X-30000Y-646670D01*
X-27330Y-655000D01*
X-20670Y-660830D01*
X-12670Y-662500D01*
X-4660Y-661670D01*
X2000Y-658330D01*
X15330Y-641670D01*
X24670Y-634170D01*
X38000Y-629170D01*
X50000Y-627500D01*
Y-662500D01*
G01X40670Y-700830D02*
X47330Y-706670D01*
X50000Y-713330D01*
X47330Y-720000D01*
X39340Y-725830D01*
X27330Y-730000D01*
X15330Y-731670D01*
X670D01*
X-11330Y-730000D01*
X-22000Y-725830D01*
X-27330Y-720830D01*
X-30000Y-715000D01*
X-27330Y-708330D01*
X-22000Y-703330D01*
X-14000Y-700000D01*
X-3330Y-698330D01*
X6000Y-700000D01*
X15330Y-704170D01*
X20670Y-709170D01*
X22000Y-715000D01*
X19340Y-721670D01*
X12670Y-726670D01*
X670Y-731670D01*
G01X373330Y-456670D02*
X377330Y-461670D01*
X380000Y-467500D01*
Y-474170D01*
X376000Y-481670D01*
X369330Y-487500D01*
X361330Y-491670D01*
X348000Y-495000D01*
X336000Y-495830D01*
X324000Y-494170D01*
X316000Y-491670D01*
X308000Y-486670D01*
X302670Y-480830D01*
X300000Y-475000D01*
Y-469170D01*
X302670Y-463330D01*
X306670Y-458330D01*
X312000Y-454170D01*
G01X333330Y-420830D02*
X342670Y-415000D01*
X348000Y-410000D01*
X350670Y-403330D01*
X348000Y-397500D01*
X342670Y-393330D01*
X334670Y-390000D01*
X325330Y-389170D01*
X317330Y-390000D01*
X309330Y-393330D01*
X302670Y-398330D01*
X300000Y-404170D01*
X302670Y-410830D01*
X310660Y-416670D01*
X322670Y-420000D01*
X336000Y-420830D01*
X353330Y-419170D01*
X362670Y-416670D01*
X372000Y-412500D01*
X378670Y-406670D01*
X380000Y-400830D01*
X377330Y-395000D01*
X370670Y-390830D01*
G01X366670Y-350830D02*
X374670Y-345830D01*
X378670Y-340000D01*
X380000Y-333330D01*
X377330Y-325000D01*
X370670Y-319170D01*
X362670Y-317500D01*
X354660Y-318330D01*
X348000Y-321670D01*
X334670Y-338330D01*
X325330Y-345830D01*
X312000Y-350830D01*
X300000Y-352500D01*
Y-317500D01*
G01X673330Y-456670D02*
X677330Y-461670D01*
X680000Y-467500D01*
Y-474170D01*
X676000Y-481670D01*
X669330Y-487500D01*
X661330Y-491670D01*
X648000Y-495000D01*
X636000Y-495830D01*
X624000Y-494170D01*
X616000Y-491670D01*
X608000Y-486670D01*
X602670Y-480830D01*
X600000Y-475000D01*
Y-469170D01*
X602670Y-463330D01*
X606670Y-458330D01*
X612000Y-454170D01*
G01X633330Y-420830D02*
X642670Y-415000D01*
X648000Y-410000D01*
X650670Y-403330D01*
X648000Y-397500D01*
X642670Y-393330D01*
X634670Y-390000D01*
X625330Y-389170D01*
X617330Y-390000D01*
X609330Y-393330D01*
X602670Y-398330D01*
X600000Y-404170D01*
X602670Y-410830D01*
X610660Y-416670D01*
X622670Y-420000D01*
X636000Y-420830D01*
X653330Y-419170D01*
X662670Y-416670D01*
X672000Y-412500D01*
X678670Y-406670D01*
X680000Y-400830D01*
X677330Y-395000D01*
X670670Y-390830D01*
G01X600000Y-335000D02*
X680000D01*
X664000Y-345000D01*
G01X600000D02*
Y-325000D01*
G01X643330Y226670D02*
X638330Y222670D01*
X632500Y220000D01*
X625830D01*
X618330Y224000D01*
X612500Y230670D01*
X608330Y238670D01*
X605000Y252000D01*
X604170Y264000D01*
X605830Y276000D01*
X608330Y284000D01*
X613330Y292000D01*
X619170Y297330D01*
X625000Y300000D01*
X630830D01*
X636670Y297330D01*
X641670Y293330D01*
X645830Y288000D01*
G01X676670D02*
X681670Y294670D01*
X687500Y298670D01*
X695000Y300000D01*
X702500Y297330D01*
X708330Y292000D01*
X712500Y282670D01*
X713330Y272000D01*
X711670Y261330D01*
X707500Y254670D01*
X701670Y249330D01*
X695830Y248000D01*
X690000Y249330D01*
X682500Y254670D01*
X685000Y220000D01*
X707500D01*
G01X746670Y284000D02*
X751670Y293330D01*
X758330Y298670D01*
X765830Y300000D01*
X772500Y298670D01*
X779170Y292000D01*
X783330Y284000D01*
X784170Y276000D01*
X782500Y266670D01*
X776670Y260000D01*
X770830Y257330D01*
X763330D01*
G01X770830D02*
X775830Y253330D01*
X780000Y246670D01*
X781670Y238670D01*
X780000Y230670D01*
X775830Y224000D01*
X768330Y220000D01*
X760830Y221330D01*
X753330Y226670D01*
G01X643330Y626670D02*
X638330Y622670D01*
X632500Y620000D01*
X625830D01*
X618330Y624000D01*
X612500Y630670D01*
X608330Y638670D01*
X605000Y652000D01*
X604170Y664000D01*
X605830Y676000D01*
X608330Y684000D01*
X613330Y692000D01*
X619170Y697330D01*
X625000Y700000D01*
X630830D01*
X636670Y697330D01*
X641670Y693330D01*
X645830Y688000D01*
G01X705000Y700000D02*
Y620000D01*
X674170Y677330D01*
X715830D01*
G01X750830Y690670D02*
X756670Y697330D01*
X763330Y700000D01*
X770000Y697330D01*
X775830Y689340D01*
X780000Y677330D01*
X781670Y665330D01*
Y650670D01*
X780000Y638670D01*
X775830Y628000D01*
X770830Y622670D01*
X765000Y620000D01*
X758330Y622670D01*
X753330Y628000D01*
X750000Y636000D01*
X748330Y646670D01*
X750000Y656000D01*
X754170Y665330D01*
X759170Y670670D01*
X765000Y672000D01*
X771670Y669340D01*
X776670Y662670D01*
X781670Y650670D01*
G01X643330Y-73330D02*
X638330Y-77330D01*
X632500Y-80000D01*
X625830D01*
X618330Y-76000D01*
X612500Y-69330D01*
X608330Y-61330D01*
X605000Y-48000D01*
X604170Y-36000D01*
X605830Y-24000D01*
X608330Y-16000D01*
X613330Y-8000D01*
X619170Y-2670D01*
X625000Y0D01*
X630830D01*
X636670Y-2670D01*
X641670Y-6670D01*
X645830Y-12000D01*
G01X676670D02*
X681670Y-5330D01*
X687500Y-1330D01*
X695000Y0D01*
X702500Y-2670D01*
X708330Y-8000D01*
X712500Y-17330D01*
X713330Y-28000D01*
X711670Y-38670D01*
X707500Y-45330D01*
X701670Y-50670D01*
X695830Y-52000D01*
X690000Y-50670D01*
X682500Y-45330D01*
X685000Y-80000D01*
X707500D01*
G01X763330Y0D02*
X765000Y-17330D01*
X767500Y-32000D01*
X770830Y-45330D01*
X775000Y-60000D01*
X781670Y-80000D01*
X748330D01*
G01X643330Y926670D02*
X638330Y922670D01*
X632500Y920000D01*
X625830D01*
X618330Y924000D01*
X612500Y930670D01*
X608330Y938670D01*
X605000Y952000D01*
X604170Y964000D01*
X605830Y976000D01*
X608330Y984000D01*
X613330Y992000D01*
X619170Y997330D01*
X625000Y1000000D01*
X630830D01*
X636670Y997330D01*
X641670Y993330D01*
X645830Y988000D01*
G01X705000Y1000000D02*
Y920000D01*
X674170Y977330D01*
X715830D01*
G01X746670Y988000D02*
X751670Y994670D01*
X757500Y998670D01*
X765000Y1000000D01*
X772500Y997330D01*
X778330Y992000D01*
X782500Y982670D01*
X783330Y972000D01*
X781670Y961330D01*
X777500Y954670D01*
X771670Y949330D01*
X765830Y948000D01*
X760000Y949330D01*
X752500Y954670D01*
X755000Y920000D01*
X777500D01*
G01X643330Y1326670D02*
X638330Y1322670D01*
X632500Y1320000D01*
X625830D01*
X618330Y1324000D01*
X612500Y1330670D01*
X608330Y1338670D01*
X605000Y1352000D01*
X604170Y1364000D01*
X605830Y1376000D01*
X608330Y1384000D01*
X613330Y1392000D01*
X619170Y1397330D01*
X625000Y1400000D01*
X630830D01*
X636670Y1397330D01*
X641670Y1393330D01*
X645830Y1388000D01*
G01X705000Y1400000D02*
Y1320000D01*
X674170Y1377330D01*
X715830D01*
G01X765000Y1400000D02*
Y1320000D01*
X755000Y1336000D01*
G01Y1400000D02*
X775000D01*
G01X643330Y1726670D02*
X638330Y1722670D01*
X632500Y1720000D01*
X625830D01*
X618330Y1724000D01*
X612500Y1730670D01*
X608330Y1738670D01*
X605000Y1752000D01*
X604170Y1764000D01*
X605830Y1776000D01*
X608330Y1784000D01*
X613330Y1792000D01*
X619170Y1797330D01*
X625000Y1800000D01*
X630830D01*
X636670Y1797330D01*
X641670Y1793330D01*
X645830Y1788000D01*
G01X676670Y1784000D02*
X681670Y1793330D01*
X688330Y1798670D01*
X695830Y1800000D01*
X702500Y1798670D01*
X709170Y1792000D01*
X713330Y1784000D01*
X714170Y1776000D01*
X712500Y1766670D01*
X706670Y1760000D01*
X700830Y1757330D01*
X693330D01*
G01X700830D02*
X705830Y1753330D01*
X710000Y1746670D01*
X711670Y1738670D01*
X710000Y1730670D01*
X705830Y1724000D01*
X698330Y1720000D01*
X690830Y1721330D01*
X683330Y1726670D01*
G01X763330Y1800000D02*
X765000Y1782670D01*
X767500Y1768000D01*
X770830Y1754670D01*
X775000Y1740000D01*
X781670Y1720000D01*
X748330D01*
G01X326670Y1856670D02*
X322670Y1861670D01*
X320000Y1867500D01*
Y1874170D01*
X324000Y1881670D01*
X330670Y1887500D01*
X338670Y1891670D01*
X352000Y1895000D01*
X364000Y1895830D01*
X376000Y1894170D01*
X384000Y1891670D01*
X392000Y1886670D01*
X397330Y1880830D01*
X400000Y1875000D01*
Y1869170D01*
X397330Y1863330D01*
X393330Y1858330D01*
X388000Y1854170D01*
G01X333330Y1820830D02*
X325330Y1815830D01*
X321330Y1810000D01*
X320000Y1803330D01*
X322670Y1795000D01*
X329330Y1789170D01*
X337330Y1787500D01*
X345340Y1788330D01*
X352000Y1791670D01*
X365330Y1808330D01*
X374670Y1815830D01*
X388000Y1820830D01*
X400000Y1822500D01*
Y1787500D01*
G01X366670Y1750830D02*
X357330Y1745000D01*
X352000Y1740000D01*
X349330Y1733330D01*
X352000Y1727500D01*
X357330Y1723330D01*
X365330Y1720000D01*
X374670Y1719170D01*
X382670Y1720000D01*
X390670Y1723330D01*
X397330Y1728330D01*
X400000Y1734170D01*
X397330Y1740830D01*
X389340Y1746670D01*
X377330Y1750000D01*
X364000Y1750830D01*
X346670Y1749170D01*
X337330Y1746670D01*
X328000Y1742500D01*
X321330Y1736670D01*
X320000Y1730830D01*
X322670Y1725000D01*
X329330Y1720830D01*
G01X-73330Y1856670D02*
X-77330Y1861670D01*
X-80000Y1867500D01*
Y1874170D01*
X-76000Y1881670D01*
X-69330Y1887500D01*
X-61330Y1891670D01*
X-48000Y1895000D01*
X-36000Y1895830D01*
X-24000Y1894170D01*
X-16000Y1891670D01*
X-8000Y1886670D01*
X-2670Y1880830D01*
X0Y1875000D01*
Y1869170D01*
X-2670Y1863330D01*
X-6670Y1858330D01*
X-12000Y1854170D01*
G01X-66670Y1820830D02*
X-74670Y1815830D01*
X-78670Y1810000D01*
X-80000Y1803330D01*
X-77330Y1795000D01*
X-70670Y1789170D01*
X-62670Y1787500D01*
X-54660Y1788330D01*
X-48000Y1791670D01*
X-34670Y1808330D01*
X-25330Y1815830D01*
X-12000Y1820830D01*
X0Y1822500D01*
Y1787500D01*
G01Y1736670D02*
X-17330Y1735000D01*
X-32000Y1732500D01*
X-45330Y1729170D01*
X-60000Y1725000D01*
X-80000Y1718330D01*
Y1751670D01*
G01X476670Y2106670D02*
X472670Y2111670D01*
X470000Y2117500D01*
Y2124170D01*
X474000Y2131670D01*
X480670Y2137500D01*
X488670Y2141670D01*
X502000Y2145000D01*
X514000Y2145830D01*
X526000Y2144170D01*
X534000Y2141670D01*
X542000Y2136670D01*
X547330Y2130830D01*
X550000Y2125000D01*
Y2119170D01*
X547330Y2113330D01*
X543330Y2108330D01*
X538000Y2104170D01*
G01X483330Y2070830D02*
X475330Y2065830D01*
X471330Y2060000D01*
X470000Y2053330D01*
X472670Y2045000D01*
X479330Y2039170D01*
X487330Y2037500D01*
X495340Y2038330D01*
X502000Y2041670D01*
X515330Y2058330D01*
X524670Y2065830D01*
X538000Y2070830D01*
X550000Y2072500D01*
Y2037500D01*
G01X538000Y2003330D02*
X544670Y1998330D01*
X548670Y1992500D01*
X550000Y1985000D01*
X547330Y1977500D01*
X542000Y1971670D01*
X532670Y1967500D01*
X522000Y1966670D01*
X511330Y1968330D01*
X504670Y1972500D01*
X499330Y1978330D01*
X498000Y1984170D01*
X499330Y1990000D01*
X504670Y1997500D01*
X470000Y1995000D01*
Y1972500D01*
G01X508330Y3500000D02*
Y3420000D01*
X529170D01*
X535830Y3424000D01*
X540000Y3429330D01*
X541670Y3440000D01*
X540000Y3450670D01*
X535000Y3457330D01*
X529170Y3461330D01*
X508330D01*
G01X529170D02*
X541670Y3500000D01*
G01X579170Y3433330D02*
X584170Y3425330D01*
X590000Y3421330D01*
X596670Y3420000D01*
X605000Y3422670D01*
X610830Y3429330D01*
X612500Y3437330D01*
X611670Y3445340D01*
X608330Y3452000D01*
X591670Y3465330D01*
X584170Y3474670D01*
X579170Y3488000D01*
X577500Y3500000D01*
X612500D01*
G01X665000D02*
Y3420000D01*
X655000Y3436000D01*
G01Y3500000D02*
X675000D01*
G01X1208330D02*
Y3420000D01*
X1229170D01*
X1235830Y3424000D01*
X1240000Y3429330D01*
X1241670Y3440000D01*
X1240000Y3450670D01*
X1235000Y3457330D01*
X1229170Y3461330D01*
X1208330D01*
G01X1229170D02*
X1241670Y3500000D01*
G01X1279170Y3433330D02*
X1284170Y3425330D01*
X1290000Y3421330D01*
X1296670Y3420000D01*
X1305000Y3422670D01*
X1310830Y3429330D01*
X1312500Y3437330D01*
X1311670Y3445340D01*
X1308330Y3452000D01*
X1291670Y3465330D01*
X1284170Y3474670D01*
X1279170Y3488000D01*
X1277500Y3500000D01*
X1312500D01*
G01X1365000Y3420000D02*
X1358330Y3422670D01*
X1353330Y3429330D01*
X1350000Y3437330D01*
X1347500Y3448000D01*
X1346670Y3460000D01*
X1347500Y3472000D01*
X1350000Y3482670D01*
X1353330Y3490670D01*
X1358330Y3497330D01*
X1365000Y3500000D01*
X1371670Y3497330D01*
X1376670Y3490670D01*
X1380000Y3482670D01*
X1382500Y3472000D01*
X1383330Y3460000D01*
X1382500Y3448000D01*
X1380000Y3437330D01*
X1376670Y3429330D01*
X1371670Y3422670D01*
X1365000Y3420000D01*
G01X1843330Y2726670D02*
X1838330Y2722670D01*
X1832500Y2720000D01*
X1825830D01*
X1818330Y2724000D01*
X1812500Y2730670D01*
X1808330Y2738670D01*
X1805000Y2752000D01*
X1804170Y2764000D01*
X1805830Y2776000D01*
X1808330Y2784000D01*
X1813330Y2792000D01*
X1819170Y2797330D01*
X1825000Y2800000D01*
X1830830D01*
X1836670Y2797330D01*
X1841670Y2793330D01*
X1845830Y2788000D01*
G01X1879170Y2733330D02*
X1884170Y2725330D01*
X1890000Y2721330D01*
X1896670Y2720000D01*
X1905000Y2722670D01*
X1910830Y2729330D01*
X1912500Y2737330D01*
X1911670Y2745340D01*
X1908330Y2752000D01*
X1891670Y2765330D01*
X1884170Y2774670D01*
X1879170Y2788000D01*
X1877500Y2800000D01*
X1912500D01*
G01X1975000D02*
Y2720000D01*
X1944170Y2777330D01*
X1985830D01*
G01X1750000Y3491670D02*
X1670000D01*
Y3470830D01*
X1674000Y3464170D01*
X1679330Y3460000D01*
X1690000Y3458330D01*
X1700670Y3460000D01*
X1707330Y3465000D01*
X1711330Y3470830D01*
Y3491670D01*
G01Y3470830D02*
X1750000Y3458330D01*
G01X1683330Y3420830D02*
X1675330Y3415830D01*
X1671330Y3410000D01*
X1670000Y3403330D01*
X1672670Y3395000D01*
X1679330Y3389170D01*
X1687330Y3387500D01*
X1695340Y3388330D01*
X1702000Y3391670D01*
X1715330Y3408330D01*
X1724670Y3415830D01*
X1738000Y3420830D01*
X1750000Y3422500D01*
Y3387500D01*
G01Y3335000D02*
X1748670Y3329170D01*
X1744670Y3322500D01*
X1738000Y3318330D01*
X1728670Y3316670D01*
X1719340Y3318330D01*
X1711330Y3323330D01*
X1707330Y3330830D01*
Y3339170D01*
X1704670Y3344170D01*
X1698000Y3348330D01*
X1688670Y3350000D01*
X1679330Y3347500D01*
X1672670Y3341670D01*
X1670000Y3335000D01*
X1672670Y3328330D01*
X1679330Y3322500D01*
X1688670Y3320000D01*
X1698000Y3321670D01*
X1704670Y3325830D01*
X1707330Y3330830D01*
Y3339170D01*
X1711330Y3346670D01*
X1719340Y3351670D01*
X1728670Y3353330D01*
X1738000Y3351670D01*
X1744670Y3347500D01*
X1748670Y3340830D01*
X1750000Y3335000D01*
M02*
