G04 ================== begin FILE IDENTIFICATION RECORD ==================*
G04 Layout Name:  /home/amu4/spinnaker/PCB/spinnaker2_test_pcb_lib/bunnybot/physical/bunny15.brd*
G04 Film Name:    PASTETOP*
G04 File Format:  Gerber RS274X*
G04 File Origin:  16.01-S5*
G04 Origin Date:  Fri Oct  7 14:45:45 2011*
G04 *
G04 Layer:  PIN/PASTEMASK_TOP*
G04 *
G04 Offset:    (0.0000 0.0000)*
G04 Mirror:    No*
G04 Mode:      Positive*
G04 Rotation:  0*
G04 FullContactRelief:  No*
G04 UndefLineWidth:     0.0000*
G04 ================== end FILE IDENTIFICATION RECORD ====================*
%FSLAX55Y55*MOMM*%
%IR0*IPPOS*OFA0.00000B0.00000*MIA0B0*SFA1.00000B1.00000*%
%ADD25R,1.7X.4*%
%AMMACRO23*
4,1,21,.35,-.125,
-.225,-.125,
-.246706,-.123101,
-.267753,-.117462,
-.2875,-.108253,
-.305348,-.095756,
-.320756,-.080348,
-.333253,-.0625,
-.342462,-.042753,
-.348101,-.021706,
-.35,0.0,
-.348101,.021706,
-.342462,.042753,
-.333253,.0625,
-.320756,.080348,
-.305348,.095756,
-.2875,.108253,
-.267753,.117462,
-.246706,.123101,
-.225,.125,
.35,.125,
.35,-.125,
0.0*
%
%ADD23MACRO23*%
%AMMACRO16*
4,1,21,-.125,-.35,
-.125,.225,
-.123101,.246706,
-.117462,.267753,
-.108253,.2875,
-.095756,.305348,
-.080348,.320756,
-.0625,.333253,
-.042753,.342462,
-.021706,.348101,
0.0,.35,
.021706,.348101,
.042753,.342462,
.0625,.333253,
.080348,.320756,
.095756,.305348,
.108253,.2875,
.117462,.267753,
.123101,.246706,
.125,.225,
.125,-.35,
-.125,-.35,
0.0*
%
%ADD16MACRO16*%
%ADD12R,1.47X.55*%
%ADD19C,.325*%
%ADD10C,.3492*%
%ADD27R,2.3622X.8636*%
%ADD13R,.8128X1.397*%
%ADD24R,1.397X.8128*%
%ADD21R,1.4732X.8636*%
%AMMACRO17*
4,1,21,.125,.35,
.125,-.225,
.123101,-.246706,
.117462,-.267753,
.108253,-.2875,
.095756,-.305348,
.080348,-.320756,
.0625,-.333253,
.042753,-.342462,
.021706,-.348101,
0.0,-.35,
-.021706,-.348101,
-.042753,-.342462,
-.0625,-.333253,
-.080348,-.320756,
-.095756,-.305348,
-.108253,-.2875,
-.117462,-.267753,
-.123101,-.246706,
-.125,-.225,
-.125,.35,
.125,.35,
0.0*
%
%ADD17MACRO17*%
%AMMACRO15*
4,1,21,-.35,.125,
.225,.125,
.246706,.123101,
.267753,.117462,
.2875,.108253,
.305348,.095756,
.320756,.080348,
.333253,.0625,
.342462,.042753,
.348101,.021706,
.35,0.0,
.348101,-.021706,
.342462,-.042753,
.333253,-.0625,
.320756,-.080348,
.305348,-.095756,
.2875,-.108253,
.267753,-.117462,
.246706,-.123101,
.225,-.125,
-.35,-.125,
-.35,.125,
0.0*
%
%ADD15MACRO15*%
%ADD28R,2.65X2.45*%
%ADD29R,2.45X2.65*%
%ADD20R,5.58X2.08*%
%ADD30R,1.35X1.35*%
%ADD26R,1.0508X3.2508*%
%ADD11R,1.7018X2.4638*%
%ADD18R,.3556X.6096*%
%ADD14R,.6096X.3556*%
%LPD*%
G75*
G54D10*
X-3950000Y-3250000D03*
Y-3150000D03*
Y-3050000D03*
Y-2950000D03*
Y-2850000D03*
Y-2750000D03*
Y-2650000D03*
Y-2550000D03*
Y-2450000D03*
Y-2350000D03*
Y-2050000D03*
Y-2150000D03*
Y-2250000D03*
Y-1950000D03*
Y-1750000D03*
Y-1850000D03*
Y-1650000D03*
Y-1550000D03*
Y-150000D03*
Y-50000D03*
Y50000D03*
Y150000D03*
Y250000D03*
Y350000D03*
Y450000D03*
Y550000D03*
Y650000D03*
Y750000D03*
Y1050000D03*
Y950000D03*
Y850000D03*
Y1150000D03*
Y1350000D03*
Y1250000D03*
Y1450000D03*
Y1550000D03*
X-3450000Y-3250000D03*
Y-3150000D03*
X-3550000D03*
Y-3250000D03*
X-3650000D03*
Y-3150000D03*
X-3750000Y-3250000D03*
Y-3150000D03*
X-3850000Y-3250000D03*
Y-3150000D03*
X-3150000D03*
Y-3250000D03*
X-3250000Y-3150000D03*
Y-3250000D03*
X-3350000Y-3150000D03*
Y-3250000D03*
X-3450000Y-3050000D03*
Y-2950000D03*
X-3550000D03*
Y-3050000D03*
X-3650000D03*
Y-2950000D03*
X-3750000Y-3050000D03*
Y-2950000D03*
X-3850000Y-3050000D03*
Y-2950000D03*
X-3450000Y-2850000D03*
Y-2750000D03*
Y-2650000D03*
X-3550000D03*
Y-2750000D03*
Y-2850000D03*
X-3650000D03*
Y-2750000D03*
Y-2650000D03*
X-3750000Y-2850000D03*
Y-2750000D03*
Y-2650000D03*
X-3850000Y-2850000D03*
Y-2750000D03*
Y-2650000D03*
X-3450000Y-2550000D03*
Y-2450000D03*
X-3550000D03*
Y-2550000D03*
X-3650000D03*
Y-2450000D03*
X-3750000Y-2550000D03*
Y-2450000D03*
X-3850000Y-2550000D03*
Y-2450000D03*
X-3150000Y-2950000D03*
Y-3050000D03*
X-3250000Y-2950000D03*
Y-3050000D03*
X-3350000Y-2950000D03*
Y-3050000D03*
X-3150000Y-2650000D03*
Y-2750000D03*
Y-2850000D03*
X-3250000Y-2650000D03*
Y-2750000D03*
Y-2850000D03*
X-3350000Y-2650000D03*
Y-2750000D03*
Y-2850000D03*
X-3450000Y-2350000D03*
X-3550000D03*
X-3650000D03*
X-3750000D03*
X-3850000D03*
X-3450000Y-2050000D03*
Y-2150000D03*
Y-2250000D03*
Y-1950000D03*
X-3550000D03*
Y-2250000D03*
Y-2150000D03*
Y-2050000D03*
X-3650000D03*
Y-2150000D03*
Y-2250000D03*
Y-1950000D03*
X-3750000Y-2050000D03*
Y-2150000D03*
Y-2250000D03*
Y-1950000D03*
X-3850000Y-2050000D03*
Y-2150000D03*
Y-2250000D03*
Y-1950000D03*
X-3450000Y-1750000D03*
Y-1850000D03*
Y-1650000D03*
X-3550000D03*
Y-1850000D03*
Y-1750000D03*
X-3650000D03*
Y-1850000D03*
Y-1650000D03*
X-3750000Y-1750000D03*
Y-1850000D03*
Y-1650000D03*
X-3850000Y-1750000D03*
Y-1850000D03*
Y-1650000D03*
X-3150000Y-1950000D03*
Y-2150000D03*
Y-2050000D03*
X-3250000Y-1950000D03*
Y-2150000D03*
Y-2050000D03*
X-3350000Y-1950000D03*
Y-2150000D03*
Y-2050000D03*
X-3150000Y-1650000D03*
Y-1850000D03*
Y-1750000D03*
X-3250000Y-1650000D03*
Y-1850000D03*
Y-1750000D03*
X-3350000Y-1650000D03*
Y-1850000D03*
Y-1750000D03*
X-3450000Y-1550000D03*
X-3550000D03*
X-3650000D03*
X-3750000D03*
X-3850000D03*
X-3150000D03*
X-3250000D03*
X-3350000D03*
X-3450000Y-150000D03*
X-3550000D03*
X-3650000D03*
X-3750000D03*
X-3850000D03*
X-3150000D03*
X-3250000D03*
X-3350000D03*
X-3450000Y-50000D03*
Y50000D03*
Y150000D03*
X-3550000D03*
Y50000D03*
Y-50000D03*
X-3650000D03*
Y50000D03*
Y150000D03*
X-3750000Y-50000D03*
Y50000D03*
Y150000D03*
X-3850000Y-50000D03*
Y50000D03*
Y150000D03*
X-3450000Y250000D03*
Y350000D03*
Y450000D03*
X-3550000D03*
Y350000D03*
Y250000D03*
X-3650000D03*
Y350000D03*
Y450000D03*
X-3750000Y250000D03*
Y350000D03*
Y450000D03*
X-3850000Y250000D03*
Y350000D03*
Y450000D03*
X-3450000Y550000D03*
Y650000D03*
X-3550000D03*
Y550000D03*
X-3650000D03*
Y650000D03*
X-3750000Y550000D03*
Y650000D03*
X-3850000Y550000D03*
Y650000D03*
X-3150000Y150000D03*
Y50000D03*
Y-50000D03*
X-3250000Y150000D03*
Y50000D03*
Y-50000D03*
X-3350000Y150000D03*
Y50000D03*
Y-50000D03*
X-3150000Y450000D03*
Y350000D03*
Y250000D03*
X-3250000Y450000D03*
Y350000D03*
Y250000D03*
X-3350000Y450000D03*
Y350000D03*
Y250000D03*
X-3450000Y750000D03*
X-3550000D03*
X-3650000D03*
X-3750000D03*
X-3850000D03*
X-3450000Y1050000D03*
Y950000D03*
Y850000D03*
Y1150000D03*
X-3550000D03*
Y850000D03*
Y950000D03*
Y1050000D03*
X-3650000D03*
Y950000D03*
Y850000D03*
Y1150000D03*
X-3750000Y1050000D03*
Y950000D03*
Y850000D03*
Y1150000D03*
X-3850000Y1050000D03*
Y950000D03*
Y850000D03*
Y1150000D03*
X-3450000Y1350000D03*
Y1250000D03*
Y1450000D03*
X-3550000D03*
Y1250000D03*
Y1350000D03*
X-3650000D03*
Y1250000D03*
Y1450000D03*
X-3750000Y1350000D03*
Y1250000D03*
Y1450000D03*
X-3850000Y1350000D03*
Y1250000D03*
Y1450000D03*
X-3150000Y1150000D03*
Y950000D03*
Y1050000D03*
X-3250000Y1150000D03*
Y950000D03*
Y1050000D03*
X-3350000Y1150000D03*
Y950000D03*
Y1050000D03*
X-3150000Y1450000D03*
Y1250000D03*
Y1350000D03*
X-3250000Y1450000D03*
Y1250000D03*
Y1350000D03*
X-3350000Y1450000D03*
Y1250000D03*
Y1350000D03*
X-3450000Y1550000D03*
X-3550000D03*
X-3650000D03*
X-3750000D03*
X-3850000D03*
X-3150000D03*
X-3250000D03*
X-3350000D03*
X-3050000Y-3250000D03*
Y-3150000D03*
X-2950000Y-3250000D03*
Y-3150000D03*
X-2850000D03*
Y-3250000D03*
X-2750000Y-3150000D03*
Y-3250000D03*
X-2650000Y-3150000D03*
Y-3250000D03*
X-2550000Y-3150000D03*
Y-3250000D03*
X-2450000Y-3150000D03*
Y-3250000D03*
X-3050000Y-3050000D03*
Y-2950000D03*
Y-2850000D03*
Y-2750000D03*
Y-2650000D03*
X-2950000Y-3050000D03*
Y-2950000D03*
Y-2850000D03*
Y-2750000D03*
Y-2650000D03*
X-2850000Y-2950000D03*
Y-3050000D03*
Y-2650000D03*
Y-2750000D03*
Y-2850000D03*
X-2750000Y-2950000D03*
Y-3050000D03*
Y-2650000D03*
Y-2750000D03*
Y-2850000D03*
Y-2450000D03*
Y-2550000D03*
X-2650000Y-2950000D03*
Y-3050000D03*
Y-2650000D03*
Y-2750000D03*
Y-2850000D03*
Y-2450000D03*
Y-2550000D03*
X-2550000Y-2950000D03*
Y-3050000D03*
Y-2650000D03*
Y-2750000D03*
Y-2850000D03*
Y-2450000D03*
Y-2550000D03*
X-2450000Y-2950000D03*
Y-3050000D03*
Y-2650000D03*
Y-2750000D03*
Y-2850000D03*
Y-2450000D03*
Y-2550000D03*
X-3050000Y-2050000D03*
Y-2150000D03*
Y-1950000D03*
Y-1750000D03*
Y-1850000D03*
Y-1650000D03*
X-2950000Y-2050000D03*
Y-2150000D03*
Y-1950000D03*
Y-1750000D03*
Y-1850000D03*
Y-1650000D03*
X-2850000Y-1950000D03*
Y-2150000D03*
Y-2050000D03*
Y-1650000D03*
Y-1850000D03*
Y-1750000D03*
X-2750000Y-2350000D03*
Y-1950000D03*
Y-2250000D03*
Y-2150000D03*
Y-2050000D03*
Y-1650000D03*
Y-1850000D03*
Y-1750000D03*
X-2650000Y-2350000D03*
Y-1950000D03*
Y-2250000D03*
Y-2150000D03*
Y-2050000D03*
Y-1650000D03*
Y-1850000D03*
Y-1750000D03*
X-2550000Y-2350000D03*
Y-1950000D03*
Y-2250000D03*
Y-2150000D03*
Y-2050000D03*
Y-1650000D03*
Y-1850000D03*
Y-1750000D03*
X-2450000Y-2350000D03*
Y-1950000D03*
Y-2250000D03*
Y-2150000D03*
Y-2050000D03*
Y-1650000D03*
Y-1850000D03*
Y-1750000D03*
X-3050000Y-1550000D03*
X-2950000D03*
X-2850000D03*
X-2750000D03*
X-2650000D03*
X-2550000D03*
X-2450000D03*
X-3050000Y-150000D03*
X-2950000D03*
X-2850000D03*
X-2750000D03*
X-2650000D03*
X-2550000D03*
X-2450000D03*
X-3050000Y-50000D03*
Y50000D03*
Y150000D03*
Y250000D03*
Y350000D03*
Y450000D03*
X-2950000Y-50000D03*
Y50000D03*
Y150000D03*
Y250000D03*
Y350000D03*
Y450000D03*
X-2850000Y150000D03*
Y50000D03*
Y-50000D03*
Y450000D03*
Y350000D03*
Y250000D03*
X-2750000Y150000D03*
Y50000D03*
Y-50000D03*
Y450000D03*
Y350000D03*
Y250000D03*
Y650000D03*
Y550000D03*
X-2650000Y150000D03*
Y50000D03*
Y-50000D03*
Y450000D03*
Y350000D03*
Y250000D03*
Y650000D03*
Y550000D03*
X-2550000Y150000D03*
Y50000D03*
Y-50000D03*
Y450000D03*
Y350000D03*
Y250000D03*
Y650000D03*
Y550000D03*
X-2450000Y150000D03*
Y50000D03*
Y-50000D03*
Y450000D03*
Y350000D03*
Y250000D03*
Y650000D03*
Y550000D03*
X-3050000Y1050000D03*
Y950000D03*
Y1150000D03*
Y1350000D03*
Y1250000D03*
Y1450000D03*
X-2950000Y1050000D03*
Y950000D03*
Y1150000D03*
Y1350000D03*
Y1250000D03*
Y1450000D03*
X-2850000Y1150000D03*
Y950000D03*
Y1050000D03*
Y1450000D03*
Y1250000D03*
Y1350000D03*
X-2750000Y750000D03*
Y1150000D03*
Y850000D03*
Y950000D03*
Y1050000D03*
Y1450000D03*
Y1250000D03*
Y1350000D03*
X-2650000Y750000D03*
Y1150000D03*
Y850000D03*
Y950000D03*
Y1050000D03*
Y1450000D03*
Y1250000D03*
Y1350000D03*
X-2550000Y750000D03*
Y1150000D03*
Y850000D03*
Y950000D03*
Y1050000D03*
Y1450000D03*
Y1250000D03*
Y1350000D03*
X-2450000Y750000D03*
Y1150000D03*
Y850000D03*
Y950000D03*
Y1050000D03*
Y1450000D03*
Y1250000D03*
Y1350000D03*
X-3050000Y1550000D03*
X-2950000D03*
X-2850000D03*
X-2750000D03*
X-2650000D03*
X-2550000D03*
X-2450000D03*
X-2250000Y-3150000D03*
Y-3250000D03*
X-2350000D03*
Y-3150000D03*
X-2250000Y-2950000D03*
Y-3050000D03*
Y-2650000D03*
Y-2750000D03*
Y-2850000D03*
Y-2450000D03*
Y-2550000D03*
X-2350000Y-2850000D03*
Y-3050000D03*
Y-2950000D03*
Y-2550000D03*
Y-2750000D03*
Y-2650000D03*
Y-2450000D03*
X-2250000Y-2350000D03*
Y-1950000D03*
Y-2250000D03*
Y-2150000D03*
Y-2050000D03*
Y-1650000D03*
Y-1850000D03*
Y-1750000D03*
X-2350000Y-2350000D03*
Y-2250000D03*
Y-2150000D03*
Y-2050000D03*
Y-1950000D03*
Y-1850000D03*
Y-1750000D03*
Y-1650000D03*
X-2250000Y-1550000D03*
X-2350000D03*
X-2250000Y-150000D03*
X-2350000D03*
X-2250000Y150000D03*
Y50000D03*
Y-50000D03*
Y450000D03*
Y350000D03*
Y250000D03*
Y650000D03*
Y550000D03*
X-2350000Y250000D03*
Y-50000D03*
Y50000D03*
Y150000D03*
Y550000D03*
Y350000D03*
Y450000D03*
Y650000D03*
X-2250000Y750000D03*
Y1150000D03*
Y850000D03*
Y950000D03*
Y1050000D03*
Y1450000D03*
Y1250000D03*
Y1350000D03*
X-2350000Y750000D03*
Y850000D03*
Y950000D03*
Y1050000D03*
Y1150000D03*
Y1250000D03*
Y1350000D03*
Y1450000D03*
X-2250000Y1550000D03*
X-2350000D03*
X-850000Y-3150000D03*
Y-3250000D03*
X-950000D03*
Y-3150000D03*
X-1050000Y-3250000D03*
Y-3150000D03*
X-1150000Y-3250000D03*
Y-3150000D03*
X-1250000Y-3250000D03*
Y-3150000D03*
X-850000Y-2950000D03*
Y-3050000D03*
X-950000D03*
Y-2950000D03*
X-1050000Y-3050000D03*
Y-2950000D03*
X-1150000Y-3050000D03*
Y-2950000D03*
X-1250000Y-3050000D03*
Y-2950000D03*
X-850000Y-2650000D03*
Y-2750000D03*
Y-2850000D03*
X-950000D03*
Y-2750000D03*
Y-2650000D03*
X-1050000Y-2850000D03*
Y-2750000D03*
Y-2650000D03*
X-1150000Y-2850000D03*
Y-2750000D03*
Y-2650000D03*
X-1250000Y-2850000D03*
Y-2750000D03*
Y-2650000D03*
X-850000Y-2450000D03*
Y-2550000D03*
X-950000D03*
Y-2450000D03*
X-1050000Y-2550000D03*
Y-2450000D03*
X-1150000Y-2550000D03*
Y-2450000D03*
X-1250000Y-2550000D03*
Y-2450000D03*
X-850000Y-2350000D03*
X-950000D03*
X-1050000D03*
X-1150000D03*
X-1250000D03*
X-850000Y-1950000D03*
Y-2250000D03*
Y-2150000D03*
Y-2050000D03*
X-950000D03*
Y-2150000D03*
Y-2250000D03*
Y-1950000D03*
X-1050000Y-2050000D03*
Y-2150000D03*
Y-2250000D03*
Y-1950000D03*
X-1150000Y-2050000D03*
Y-2150000D03*
Y-2250000D03*
Y-1950000D03*
X-1250000Y-2050000D03*
Y-2150000D03*
Y-2250000D03*
Y-1950000D03*
X-850000Y-1650000D03*
Y-1850000D03*
Y-1750000D03*
X-950000D03*
Y-1850000D03*
Y-1650000D03*
X-1050000Y-1750000D03*
Y-1850000D03*
Y-1650000D03*
X-1150000Y-1750000D03*
Y-1850000D03*
Y-1650000D03*
X-1250000Y-1750000D03*
Y-1850000D03*
Y-1650000D03*
X-850000Y-1550000D03*
X-950000D03*
X-1050000D03*
X-1150000D03*
X-1250000D03*
X-850000Y-150000D03*
X-950000D03*
X-1050000D03*
X-1150000D03*
X-1250000D03*
X-850000Y150000D03*
Y50000D03*
Y-50000D03*
X-950000D03*
Y50000D03*
Y150000D03*
X-1050000Y-50000D03*
Y50000D03*
Y150000D03*
X-1150000Y-50000D03*
Y50000D03*
Y150000D03*
X-1250000Y-50000D03*
Y50000D03*
Y150000D03*
X-850000Y450000D03*
Y350000D03*
Y250000D03*
X-950000D03*
Y350000D03*
Y450000D03*
X-1050000Y250000D03*
Y350000D03*
Y450000D03*
X-1150000Y250000D03*
Y350000D03*
Y450000D03*
X-1250000Y250000D03*
Y350000D03*
Y450000D03*
X-850000Y650000D03*
Y550000D03*
X-950000D03*
Y650000D03*
X-1050000Y550000D03*
Y650000D03*
X-1150000Y550000D03*
Y650000D03*
X-1250000Y550000D03*
Y650000D03*
X-850000Y750000D03*
X-950000D03*
X-1050000D03*
X-1150000D03*
X-1250000D03*
X-850000Y1150000D03*
Y850000D03*
Y950000D03*
Y1050000D03*
X-950000D03*
Y950000D03*
Y850000D03*
Y1150000D03*
X-1050000Y1050000D03*
Y950000D03*
Y850000D03*
Y1150000D03*
X-1150000Y1050000D03*
Y950000D03*
Y850000D03*
Y1150000D03*
X-1250000Y1050000D03*
Y950000D03*
Y850000D03*
Y1150000D03*
X-850000Y1450000D03*
Y1250000D03*
Y1350000D03*
X-950000D03*
Y1250000D03*
Y1450000D03*
X-1050000Y1350000D03*
Y1250000D03*
Y1450000D03*
X-1150000Y1350000D03*
Y1250000D03*
Y1450000D03*
X-1250000Y1350000D03*
Y1250000D03*
Y1450000D03*
X-850000Y1550000D03*
X-950000D03*
X-1050000D03*
X-1150000D03*
X-1250000D03*
X-750000Y-3250000D03*
Y-3150000D03*
X-450000D03*
Y-3250000D03*
X-550000Y-3150000D03*
Y-3250000D03*
X-650000Y-3150000D03*
Y-3250000D03*
X-350000D03*
Y-3150000D03*
X-250000Y-3250000D03*
Y-3150000D03*
X-150000D03*
Y-3250000D03*
X-750000Y-3050000D03*
Y-2950000D03*
Y-2850000D03*
Y-2750000D03*
Y-2650000D03*
Y-2550000D03*
Y-2450000D03*
X-450000Y-2950000D03*
Y-3050000D03*
X-550000Y-2950000D03*
Y-3050000D03*
X-650000Y-2950000D03*
Y-3050000D03*
X-450000Y-2650000D03*
Y-2750000D03*
Y-2850000D03*
X-550000Y-2650000D03*
Y-2750000D03*
Y-2850000D03*
X-650000Y-2650000D03*
Y-2750000D03*
Y-2850000D03*
X-350000Y-3050000D03*
Y-2950000D03*
Y-2850000D03*
Y-2750000D03*
Y-2650000D03*
X-250000Y-3050000D03*
Y-2950000D03*
Y-2850000D03*
Y-2750000D03*
Y-2650000D03*
X-150000Y-2950000D03*
Y-3050000D03*
Y-2650000D03*
Y-2750000D03*
Y-2850000D03*
X-750000Y-2350000D03*
Y-2050000D03*
Y-2150000D03*
Y-2250000D03*
Y-1950000D03*
Y-1750000D03*
Y-1850000D03*
Y-1650000D03*
X-450000Y-1950000D03*
Y-2150000D03*
Y-2050000D03*
X-550000Y-1950000D03*
Y-2150000D03*
Y-2050000D03*
X-650000Y-1950000D03*
Y-2150000D03*
Y-2050000D03*
X-450000Y-1650000D03*
Y-1850000D03*
Y-1750000D03*
X-550000Y-1650000D03*
Y-1850000D03*
Y-1750000D03*
X-650000Y-1650000D03*
Y-1850000D03*
Y-1750000D03*
X-350000Y-2050000D03*
Y-2150000D03*
Y-1950000D03*
Y-1750000D03*
Y-1850000D03*
Y-1650000D03*
X-250000Y-2050000D03*
Y-2150000D03*
Y-1950000D03*
Y-1750000D03*
Y-1850000D03*
Y-1650000D03*
X-150000Y-1950000D03*
Y-2150000D03*
Y-2050000D03*
Y-1650000D03*
Y-1850000D03*
Y-1750000D03*
X-750000Y-1550000D03*
X-450000D03*
X-550000D03*
X-650000D03*
X-350000D03*
X-250000D03*
X-150000D03*
X-750000Y-150000D03*
X-450000D03*
X-550000D03*
X-650000D03*
X-350000D03*
X-250000D03*
X-150000D03*
X-750000Y-50000D03*
Y50000D03*
Y150000D03*
Y250000D03*
Y350000D03*
Y450000D03*
Y550000D03*
Y650000D03*
X-450000Y150000D03*
Y50000D03*
Y-50000D03*
X-550000Y150000D03*
Y50000D03*
Y-50000D03*
X-650000Y150000D03*
Y50000D03*
Y-50000D03*
X-450000Y450000D03*
Y350000D03*
Y250000D03*
X-550000Y450000D03*
Y350000D03*
Y250000D03*
X-650000Y450000D03*
Y350000D03*
Y250000D03*
X-350000Y-50000D03*
Y50000D03*
Y150000D03*
Y250000D03*
Y350000D03*
Y450000D03*
X-250000Y-50000D03*
Y50000D03*
Y150000D03*
Y250000D03*
Y350000D03*
Y450000D03*
X-150000Y150000D03*
Y50000D03*
Y-50000D03*
Y450000D03*
Y350000D03*
Y250000D03*
X-750000Y750000D03*
Y1050000D03*
Y950000D03*
Y850000D03*
Y1150000D03*
Y1350000D03*
Y1250000D03*
Y1450000D03*
X-450000Y1150000D03*
Y950000D03*
Y1050000D03*
X-550000Y1150000D03*
Y950000D03*
Y1050000D03*
X-650000Y1150000D03*
Y950000D03*
Y1050000D03*
X-450000Y1450000D03*
Y1250000D03*
Y1350000D03*
X-550000Y1450000D03*
Y1250000D03*
Y1350000D03*
X-650000Y1450000D03*
Y1250000D03*
Y1350000D03*
X-350000Y1050000D03*
Y950000D03*
Y1150000D03*
Y1350000D03*
Y1250000D03*
Y1450000D03*
X-250000Y1050000D03*
Y950000D03*
Y1150000D03*
Y1350000D03*
Y1250000D03*
Y1450000D03*
X-150000Y1150000D03*
Y950000D03*
Y1050000D03*
Y1450000D03*
Y1250000D03*
Y1350000D03*
X-750000Y1550000D03*
X-450000D03*
X-550000D03*
X-650000D03*
X-350000D03*
X-250000D03*
X-150000D03*
X450000Y-3150000D03*
Y-3250000D03*
X-50000Y-3150000D03*
Y-3250000D03*
X50000Y-3150000D03*
Y-3250000D03*
X150000Y-3150000D03*
Y-3250000D03*
X250000Y-3150000D03*
Y-3250000D03*
X350000D03*
Y-3150000D03*
X450000Y-2950000D03*
Y-3050000D03*
Y-2650000D03*
Y-2750000D03*
Y-2850000D03*
Y-2450000D03*
Y-2550000D03*
X-50000Y-2950000D03*
Y-3050000D03*
Y-2650000D03*
Y-2750000D03*
Y-2850000D03*
Y-2450000D03*
Y-2550000D03*
X50000Y-2950000D03*
Y-3050000D03*
Y-2650000D03*
Y-2750000D03*
Y-2850000D03*
Y-2450000D03*
Y-2550000D03*
X150000Y-2950000D03*
Y-3050000D03*
Y-2650000D03*
Y-2750000D03*
Y-2850000D03*
Y-2450000D03*
Y-2550000D03*
X250000Y-2950000D03*
Y-3050000D03*
Y-2650000D03*
Y-2750000D03*
Y-2850000D03*
Y-2450000D03*
Y-2550000D03*
X350000Y-2850000D03*
Y-3050000D03*
Y-2950000D03*
Y-2550000D03*
Y-2750000D03*
Y-2650000D03*
Y-2450000D03*
X450000Y-2350000D03*
Y-1950000D03*
Y-2250000D03*
Y-2150000D03*
Y-2050000D03*
Y-1650000D03*
Y-1850000D03*
Y-1750000D03*
X-50000Y-2350000D03*
Y-1950000D03*
Y-2250000D03*
Y-2150000D03*
Y-2050000D03*
Y-1650000D03*
Y-1850000D03*
Y-1750000D03*
X50000Y-2350000D03*
Y-1950000D03*
Y-2250000D03*
Y-2150000D03*
Y-2050000D03*
Y-1650000D03*
Y-1850000D03*
Y-1750000D03*
X150000Y-2350000D03*
Y-1950000D03*
Y-2250000D03*
Y-2150000D03*
Y-2050000D03*
Y-1650000D03*
Y-1850000D03*
Y-1750000D03*
X250000Y-2350000D03*
Y-1950000D03*
Y-2250000D03*
Y-2150000D03*
Y-2050000D03*
Y-1650000D03*
Y-1850000D03*
Y-1750000D03*
X350000Y-2350000D03*
Y-2250000D03*
Y-2150000D03*
Y-2050000D03*
Y-1950000D03*
Y-1850000D03*
Y-1750000D03*
Y-1650000D03*
X450000Y-1550000D03*
X-50000D03*
X50000D03*
X150000D03*
X250000D03*
X350000D03*
X450000Y-150000D03*
X-50000D03*
X50000D03*
X150000D03*
X250000D03*
X350000D03*
X450000Y150000D03*
Y50000D03*
Y-50000D03*
Y450000D03*
Y350000D03*
Y250000D03*
Y650000D03*
Y550000D03*
X-50000Y150000D03*
Y50000D03*
Y-50000D03*
Y450000D03*
Y350000D03*
Y250000D03*
Y650000D03*
Y550000D03*
X50000Y150000D03*
Y50000D03*
Y-50000D03*
Y450000D03*
Y350000D03*
Y250000D03*
Y650000D03*
Y550000D03*
X150000Y150000D03*
Y50000D03*
Y-50000D03*
Y450000D03*
Y350000D03*
Y250000D03*
Y650000D03*
Y550000D03*
X250000Y150000D03*
Y50000D03*
Y-50000D03*
Y450000D03*
Y350000D03*
Y250000D03*
Y650000D03*
Y550000D03*
X350000Y250000D03*
Y-50000D03*
Y50000D03*
Y150000D03*
Y550000D03*
Y350000D03*
Y450000D03*
Y650000D03*
X450000Y750000D03*
Y1150000D03*
Y850000D03*
Y950000D03*
Y1050000D03*
Y1450000D03*
Y1250000D03*
Y1350000D03*
X-50000Y750000D03*
Y1150000D03*
Y850000D03*
Y950000D03*
Y1050000D03*
Y1450000D03*
Y1250000D03*
Y1350000D03*
X50000Y750000D03*
Y1150000D03*
Y850000D03*
Y950000D03*
Y1050000D03*
Y1450000D03*
Y1250000D03*
Y1350000D03*
X150000Y750000D03*
Y1150000D03*
Y850000D03*
Y950000D03*
Y1050000D03*
Y1450000D03*
Y1250000D03*
Y1350000D03*
X250000Y750000D03*
Y1150000D03*
Y850000D03*
Y950000D03*
Y1050000D03*
Y1450000D03*
Y1250000D03*
Y1350000D03*
X350000Y750000D03*
Y850000D03*
Y950000D03*
Y1050000D03*
Y1150000D03*
Y1250000D03*
Y1350000D03*
Y1450000D03*
X450000Y1550000D03*
X-50000D03*
X50000D03*
X150000D03*
X250000D03*
X350000D03*
G54D11*
X-4033400Y3746000D03*
X-3333400D03*
X-3754000D03*
X-3054000D03*
X-2633400D03*
X-2354000D03*
X-1933400D03*
X-1654000D03*
X-1133400D03*
X-854000D03*
X-433400D03*
X-154000D03*
X266600D03*
X546000D03*
X966600D03*
X1246000D03*
X2466600D03*
X2746000D03*
X3166600D03*
X3446000D03*
X3866600D03*
X4146000D03*
G54D20*
X1400000Y-1200000D03*
X2350000D03*
G54D30*
X3354000Y3000000D03*
X3100000D03*
Y3250000D03*
X3354000D03*
G54D21*
X1473000Y-100000D03*
Y-600000D03*
X1727000Y-100000D03*
Y-600000D03*
X2973000Y-1400000D03*
X3227000D03*
X3726180Y1694180D03*
X3472180D03*
G54D12*
X1380000Y-5473000D03*
Y-5600000D03*
Y-5219000D03*
Y-5346000D03*
X1900000Y-5473000D03*
Y-5600000D03*
Y-5219000D03*
Y-5346000D03*
X3324860Y914400D03*
Y1041400D03*
Y1168400D03*
Y1295400D03*
X3844860Y914400D03*
Y1041400D03*
Y1168400D03*
Y1295400D03*
G75*
G36*
G01X1440000Y-2540000D02*
X1535000D01*
Y-2585000D01*
X1552500D01*
Y-2540000D01*
X1647500D01*
Y-2585000D01*
X1665000D01*
Y-2540000D01*
X1760000D01*
Y-2635000D01*
X1712500D01*
Y-2652500D01*
X1760000D01*
Y-2747500D01*
X1712500D01*
Y-2765000D01*
X1760000D01*
Y-2860000D01*
X1665000D01*
Y-2815000D01*
X1647500D01*
Y-2860000D01*
X1552500D01*
Y-2765000D01*
X1647500D01*
Y-2812500D01*
X1665000D01*
Y-2765000D01*
X1710000D01*
Y-2747500D01*
X1665000D01*
Y-2652500D01*
X1710000D01*
Y-2635000D01*
X1665000D01*
Y-2587500D01*
X1647500D01*
Y-2635000D01*
X1552500D01*
Y-2587500D01*
X1535000D01*
Y-2635000D01*
X1487500D01*
Y-2652500D01*
X1535000D01*
Y-2697500D01*
X1552500D01*
Y-2652500D01*
X1647500D01*
Y-2747500D01*
X1552500D01*
Y-2700000D01*
X1535000D01*
Y-2747500D01*
X1487500D01*
Y-2765000D01*
X1535000D01*
Y-2860000D01*
X1440000D01*
Y-2765000D01*
X1485000D01*
Y-2747500D01*
X1440000D01*
Y-2652500D01*
X1485000D01*
Y-2635000D01*
X1440000D01*
Y-2540000D01*
G37*
G54D13*
X900940Y-5200000D03*
X1101600D03*
X1500940Y-4800000D03*
X1701600D03*
X1500940Y-1900000D03*
X1701600D03*
X2500940Y3000000D03*
X2701600D03*
X2500940Y3300000D03*
X2701600D03*
X3700940D03*
X3901600D03*
G54D14*
X1300000Y-3261900D03*
Y-3338100D03*
X1100000D03*
Y-3261900D03*
X1700000Y-3338100D03*
Y-3261900D03*
X1500000D03*
Y-3338100D03*
X2000000D03*
Y-3261900D03*
G54D23*
X1837500Y-2525000D03*
Y-2825000D03*
Y-2875000D03*
Y-2575000D03*
Y-2625000D03*
Y-2675000D03*
Y-2725000D03*
Y-2775000D03*
G54D15*
X1362500Y-2525000D03*
Y-2575000D03*
Y-2625000D03*
Y-2675000D03*
Y-2725000D03*
Y-2775000D03*
Y-2825000D03*
Y-2875000D03*
G54D24*
X1700000Y300940D03*
Y501600D03*
X2300000Y-5299060D03*
Y-5098400D03*
Y-4701600D03*
Y-4500940D03*
X2800000Y2300940D03*
Y2501600D03*
X3500000Y-1499060D03*
Y-1298400D03*
G54D16*
X1425000Y-2937500D03*
X1775000D03*
X1675000D03*
X1625000D03*
X1575000D03*
X1525000D03*
X1475000D03*
X1725000D03*
G54D25*
X1615000Y2205000D03*
X2185000D03*
X1615000Y2595000D03*
Y2530000D03*
Y2465000D03*
Y2270000D03*
Y2335000D03*
X2185000Y2270000D03*
Y2335000D03*
Y2595000D03*
Y2530000D03*
Y2465000D03*
Y2400000D03*
X1615000D03*
G54D26*
X1700000Y3070000D03*
X2100000D03*
Y3750000D03*
X1700000D03*
G54D17*
X1425000Y-2462500D03*
X1475000D03*
X1525000D03*
X1575000D03*
X1625000D03*
X1675000D03*
X1725000D03*
X1775000D03*
G54D18*
X1261900Y-1600000D03*
X1338100D03*
X1161900Y-2200000D03*
X1238100D03*
X1161900Y-2000000D03*
X1238100D03*
X1161900Y2300000D03*
X1238100D03*
X1561900Y-1600000D03*
X1638100D03*
X1938100Y-2000000D03*
X1861900D03*
X1938100Y-2200000D03*
X1861900D03*
X1461900D03*
X1538100D03*
X2161900Y-1600000D03*
X1938100D03*
X1861900D03*
X2361900Y-3200000D03*
X2438100D03*
X2361900Y-2400000D03*
X2438100D03*
X2361900Y-3000000D03*
X2438100D03*
X2361900Y-2800000D03*
X2438100D03*
X2361900Y-2600000D03*
X2438100D03*
X2361900Y-2200000D03*
X2438100D03*
X2661900Y-1700000D03*
X2738100D03*
X2238100Y-1600000D03*
X3338100Y2700000D03*
X3261900D03*
X3561900Y2300000D03*
X3638100D03*
G54D27*
X3068860Y-2000000D03*
X3528600D03*
G54D28*
X2682240Y1460500D03*
Y825500D03*
G54D19*
X1250000Y-2350000D03*
X1950000Y-3050000D03*
G54D29*
X3165000Y-2700000D03*
X3800000D03*
M02*
