G04 ================== begin FILE IDENTIFICATION RECORD ==================*
G04 Layout Name:  /home/amu4/spinnaker/PCB/spinnaker2_test_pcb_lib/bunnybot/physical/bunny15.brd*
G04 Film Name:    SOLDERBOT*
G04 File Format:  Gerber RS274X*
G04 File Origin:  16.01-S5*
G04 Origin Date:  Fri Oct  7 14:45:45 2011*
G04 *
G04 Layer:  PIN/SOLDERMASK_BOTTOM*
G04 *
G04 Offset:    (0.0000 0.0000)*
G04 Mirror:    No*
G04 Mode:      Positive*
G04 Rotation:  0*
G04 FullContactRelief:  No*
G04 UndefLineWidth:     0.0000*
G04 ================== end FILE IDENTIFICATION RECORD ====================*
%FSLAX55Y55*MOMM*%
%IR0*IPPOS*OFA0.00000B0.00000*MIA0B0*SFA1.00000B1.00000*%
%ADD15R,1.016X1.6002*%
%ADD14C,1.2*%
%ADD10C,3.*%
%ADD17R,1.6002X1.016*%
%ADD22C,1.35*%
%ADD18C,2.921*%
%ADD20C,3.048*%
%ADD19C,1.905*%
%ADD12R,.4064X.6604*%
%ADD21C,2.3368*%
%ADD11R,.6604X.4064*%
%ADD16C,4.2926*%
%ADD13C,1.6764*%
%LPD*%
G75*
G54D10*
X-5100000Y-4000000D03*
Y2000000D03*
X-4200000Y2400000D03*
X3300000Y-3750000D03*
X3700000Y2800000D03*
X5100000Y2000000D03*
G54D11*
X-4000000Y-3538100D03*
Y-3461900D03*
Y-1261900D03*
Y-1338100D03*
Y-438100D03*
Y-361900D03*
Y1838100D03*
Y1761900D03*
X-3200000Y-3538100D03*
Y-3461900D03*
X-3600000Y-3538100D03*
Y-3461900D03*
X-3200000Y-1261900D03*
Y-1338100D03*
X-3600000Y-1261900D03*
Y-1338100D03*
X-3200000Y-438100D03*
Y-361900D03*
X-3600000Y-438100D03*
Y-361900D03*
X-3200000Y1838100D03*
Y1761900D03*
X-3600000Y1838100D03*
Y1761900D03*
X-2700000Y-3461900D03*
Y-3538100D03*
X-2500000D03*
Y-3461900D03*
X-2900000Y-3538100D03*
Y-3461900D03*
X-2500000Y-1261900D03*
Y-1338100D03*
X-2900000Y-1261900D03*
Y-1338100D03*
X-2700000Y-361900D03*
Y-438100D03*
X-2500000D03*
Y-361900D03*
X-2900000Y-438100D03*
Y-361900D03*
X-2500000Y1838100D03*
Y1761900D03*
X-2900000Y1838100D03*
Y1761900D03*
X-2200000Y-3538100D03*
Y-3461900D03*
Y-1261900D03*
Y-1338100D03*
Y-438100D03*
Y-361900D03*
Y1838100D03*
Y1761900D03*
X-1300000Y-3538100D03*
Y-3461900D03*
X-900000Y-3538100D03*
Y-3461900D03*
X-1300000Y-1261900D03*
Y-1338100D03*
X-900000Y-1261900D03*
Y-1338100D03*
X-1300000Y-438100D03*
Y-361900D03*
X-900000Y-438100D03*
Y-361900D03*
X-1300000Y1838100D03*
Y1761900D03*
X-900000Y1838100D03*
Y1761900D03*
X-500000Y-3538100D03*
Y-3461900D03*
X-200000Y-3538100D03*
Y-3461900D03*
X-500000Y-1261900D03*
Y-1338100D03*
X-200000Y-1261900D03*
Y-1338100D03*
X-500000Y-438100D03*
Y-361900D03*
X-200000Y-438100D03*
Y-361900D03*
X-500000Y1838100D03*
Y1761900D03*
X-200000Y1838100D03*
Y1761900D03*
X0Y-3461900D03*
Y-3538100D03*
X200000D03*
Y-3461900D03*
X500000Y-3538100D03*
Y-3461900D03*
X200000Y-1261900D03*
Y-1338100D03*
X500000Y-1261900D03*
Y-1338100D03*
X0Y-361900D03*
Y-438100D03*
X200000D03*
Y-361900D03*
X500000Y-438100D03*
Y-361900D03*
X200000Y1838100D03*
Y1761900D03*
X500000Y1838100D03*
Y1761900D03*
G54D20*
X2800000Y-5289000D03*
X3943000D03*
G54D21*
X2596800Y-4984200D03*
X4146200D03*
G54D12*
X-4238100Y-3300000D03*
X-4161900D03*
X-4238100Y-3000000D03*
X-4161900D03*
X-4238100Y-2600000D03*
X-4161900D03*
X-4238100Y-2300000D03*
X-4161900D03*
X-4238100Y-1900000D03*
X-4161900D03*
X-4238100Y-1500000D03*
X-4161900D03*
X-4238100Y-200000D03*
X-4161900D03*
X-4238100Y100000D03*
X-4161900D03*
X-4238100Y500000D03*
X-4161900D03*
X-4238100Y800000D03*
X-4161900D03*
X-4238100Y1200000D03*
X-4161900D03*
X-4238100Y1600000D03*
X-4161900D03*
X-1961900Y-3300000D03*
X-2038100D03*
X-1961900Y-3000000D03*
X-2038100D03*
X-1961900Y-2600000D03*
X-2038100D03*
X-1961900Y-2300000D03*
X-2038100D03*
X-1961900Y-1900000D03*
X-2038100D03*
X-1961900Y-1500000D03*
X-2038100D03*
X-1961900Y-200000D03*
X-2038100D03*
X-1961900Y100000D03*
X-2038100D03*
X-1961900Y500000D03*
X-2038100D03*
X-1961900Y800000D03*
X-2038100D03*
X-1961900Y1200000D03*
X-2038100D03*
X-1961900Y1600000D03*
X-2038100D03*
X-1538100Y-3300000D03*
X-1461900D03*
X-1538100Y-3000000D03*
X-1461900D03*
X-1538100Y-2600000D03*
X-1461900D03*
X-1538100Y-2300000D03*
X-1461900D03*
X-1538100Y-1900000D03*
X-1461900D03*
X-1538100Y-1500000D03*
X-1461900D03*
X-1538100Y-200000D03*
X-1461900D03*
X-1538100Y100000D03*
X-1461900D03*
X-1538100Y500000D03*
X-1461900D03*
X-1538100Y800000D03*
X-1461900D03*
X-1538100Y1200000D03*
X-1461900D03*
X-1538100Y1600000D03*
X-1461900D03*
X661900Y-3300000D03*
Y-3000000D03*
Y-2600000D03*
Y-2300000D03*
Y-1900000D03*
Y-1500000D03*
Y-200000D03*
Y100000D03*
Y500000D03*
Y800000D03*
Y1200000D03*
Y1600000D03*
X738100Y-3300000D03*
Y-3000000D03*
Y-2600000D03*
Y-2300000D03*
Y-1900000D03*
Y-1500000D03*
Y-200000D03*
Y100000D03*
Y500000D03*
Y800000D03*
Y1200000D03*
Y1600000D03*
G54D13*
X-4132000Y2700000D03*
X-3878000D03*
X-3624000D03*
X-3370000D03*
X-3116000D03*
X-2862000D03*
X-2608000D03*
X-2354000D03*
X-2100000D03*
X-1041400Y-5273040D03*
X-986000Y2700000D03*
X-732000D03*
X-478000D03*
X-224000D03*
X30000D03*
X284000D03*
X538000D03*
X846000Y-4700000D03*
X1100000D03*
X1470000Y1070000D03*
Y1325000D03*
Y1830000D03*
Y1575000D03*
X792000Y2700000D03*
X1046000D03*
X1300000D03*
X2230000Y1070000D03*
Y1325000D03*
Y1575000D03*
Y1830000D03*
X2927000Y-4654000D03*
X2800000Y-4400000D03*
X2500000Y2246000D03*
Y2500000D03*
X3689000Y-4654000D03*
X3435000D03*
X3181000D03*
X3562000Y-4400000D03*
X3308000D03*
X3054000D03*
X3943000Y-4654000D03*
X3816000Y-4400000D03*
X4200000Y2438000D03*
Y2692000D03*
Y2946000D03*
Y3200000D03*
G54D22*
X2940000Y-3227000D03*
Y-3100000D03*
X3702000Y-3227000D03*
X3575000D03*
X3448000D03*
X3321000D03*
X3194000D03*
X3067000D03*
X3702000Y-3100000D03*
X3575000D03*
X3448000D03*
X3321000D03*
X3194000D03*
X3067000D03*
X4083000Y-3227000D03*
X3956000D03*
X3829000D03*
X4083000Y-3100000D03*
X3956000D03*
X3829000D03*
G54D14*
X-3932000Y3173000D03*
Y3300000D03*
X-3170000Y3173000D03*
X-3297000D03*
X-3424000D03*
X-3551000D03*
X-3678000D03*
X-3805000D03*
Y3300000D03*
X-3678000D03*
X-3551000D03*
X-3424000D03*
X-3297000D03*
X-3170000D03*
X-2408000Y3173000D03*
X-2535000D03*
X-2662000D03*
X-2789000D03*
X-2916000D03*
X-3043000D03*
Y3300000D03*
X-2916000D03*
X-2789000D03*
X-2662000D03*
X-2535000D03*
X-2408000D03*
X-1900000Y3173000D03*
X-2027000D03*
X-2154000D03*
X-2281000D03*
Y3300000D03*
X-2154000D03*
X-2027000D03*
X-1900000D03*
X-905000Y3173000D03*
X-1032000D03*
Y3300000D03*
X-905000D03*
X-143000Y3173000D03*
X-270000D03*
X-397000D03*
X-524000D03*
X-651000D03*
X-778000D03*
Y3300000D03*
X-651000D03*
X-524000D03*
X-397000D03*
X-270000D03*
X-143000D03*
X619000Y3173000D03*
X492000D03*
X365000D03*
X238000D03*
X111000D03*
X-16000D03*
Y3300000D03*
X111000D03*
X238000D03*
X365000D03*
X492000D03*
X619000D03*
X1000000Y3173000D03*
X873000D03*
X746000D03*
Y3300000D03*
X873000D03*
X1000000D03*
G54D15*
X-3999060Y3700000D03*
X-3299060D03*
X-3098400D03*
X-3798400D03*
X-2599060D03*
X-2398400D03*
X-1650940Y-900000D03*
X-1851600D03*
X-1899060Y3700000D03*
X-1698400D03*
X-1099060D03*
X-898400D03*
X-399060D03*
X-198400D03*
X300940D03*
X501600D03*
X1000940D03*
X1201600D03*
G54D16*
X-100000Y-5235000D03*
Y-4600000D03*
X408000Y-4917500D03*
G54D17*
X900000Y-1100940D03*
Y-1301600D03*
X1900000Y2900940D03*
Y3499060D03*
Y3298400D03*
Y3101600D03*
G54D18*
X2195000Y-600000D03*
Y352500D03*
X4100000Y35000D03*
Y-282500D03*
Y-600000D03*
Y352500D03*
G54D19*
X2962560Y-5695400D03*
X2708560D03*
X3780440D03*
X4034440D03*
M02*
