G04 Layer_Color=16711935*
%FSLAX23Y23*%
%MOIN*%
G70*
G01*
G75*
%ADD12C,0.010*%
%ADD23C,0.098*%
%ADD24C,0.067*%
%ADD25R,0.067X0.067*%
%ADD26C,0.073*%
%ADD27R,0.073X0.073*%
%ADD28C,0.063*%
D12*
X0Y1969D02*
X906D01*
Y0D02*
Y1969D01*
X0Y0D02*
X906D01*
X0D02*
Y1969D01*
D23*
X245Y480D02*
D03*
Y300D02*
D03*
D24*
X275Y1772D02*
D03*
Y1672D02*
D03*
Y1242D02*
D03*
Y1342D02*
D03*
X270Y837D02*
D03*
Y937D02*
D03*
D25*
X275Y1572D02*
D03*
Y1142D02*
D03*
X270Y737D02*
D03*
D26*
X565Y1627D02*
D03*
Y1327D02*
D03*
Y1027D02*
D03*
Y727D02*
D03*
Y1727D02*
D03*
Y1527D02*
D03*
Y1427D02*
D03*
Y1227D02*
D03*
Y1127D02*
D03*
Y927D02*
D03*
Y827D02*
D03*
Y627D02*
D03*
X765Y1527D02*
D03*
Y1427D02*
D03*
Y1227D02*
D03*
Y1127D02*
D03*
Y927D02*
D03*
Y827D02*
D03*
Y627D02*
D03*
X565Y227D02*
D03*
Y327D02*
D03*
Y427D02*
D03*
Y527D02*
D03*
X765Y227D02*
D03*
Y327D02*
D03*
Y427D02*
D03*
Y527D02*
D03*
Y1627D02*
D03*
Y1327D02*
D03*
Y1027D02*
D03*
Y727D02*
D03*
D27*
Y1727D02*
D03*
D28*
X75Y1797D02*
D03*
Y1552D02*
D03*
Y1117D02*
D03*
Y1362D02*
D03*
Y717D02*
D03*
Y962D02*
D03*
M02*
