%FSLAX23Y23*%
%MOIN*%
G70*
G01*
G75*
G04 Layer_Physical_Order=2*
G04 Layer_Color=16711680*
%ADD10C,0.015*%
%ADD11C,0.025*%
%ADD12C,0.120*%
%ADD13C,0.055*%
%ADD14C,0.065*%
%ADD15R,0.065X0.065*%
%ADD16C,0.059*%
%ADD17R,0.059X0.059*%
%ADD18C,0.020*%
D10*
X275Y1772D02*
Y1777D01*
X1259Y1772D02*
Y1777D01*
X275Y3740D02*
Y3745D01*
X1259Y3740D02*
Y3745D01*
D11*
X375Y927D02*
X565D01*
X375D02*
Y942D01*
Y1247D01*
X270Y837D02*
X375Y942D01*
X455Y322D02*
Y737D01*
Y177D02*
Y322D01*
X451Y326D02*
X455Y322D01*
X109Y326D02*
X451D01*
X190Y1142D02*
Y1487D01*
Y822D02*
Y1142D01*
X275D01*
X190Y1487D02*
X275Y1572D01*
X375Y1247D02*
Y1572D01*
X370Y1242D02*
X375Y1247D01*
X275Y1242D02*
X370D01*
X275Y1672D02*
X375Y1572D01*
X190Y822D02*
X275Y737D01*
X455Y177D02*
X490Y142D01*
X680D01*
X765Y227D01*
X275Y737D02*
X455D01*
X1359Y927D02*
X1549D01*
X1359D02*
Y942D01*
Y1247D01*
X1254Y837D02*
X1359Y942D01*
X1439Y322D02*
Y737D01*
Y177D02*
Y322D01*
X1435Y326D02*
X1439Y322D01*
X1093Y326D02*
X1435D01*
X1174Y1142D02*
Y1487D01*
Y822D02*
Y1142D01*
X1259D01*
X1174Y1487D02*
X1259Y1572D01*
X1359Y1247D02*
Y1572D01*
X1354Y1242D02*
X1359Y1247D01*
X1259Y1242D02*
X1354D01*
X1259Y1672D02*
X1359Y1572D01*
X1174Y822D02*
X1259Y737D01*
X1439Y177D02*
X1474Y142D01*
X1664D01*
X1749Y227D01*
X1259Y737D02*
X1439D01*
X375Y2895D02*
X565D01*
X375D02*
Y2910D01*
Y3215D01*
X270Y2805D02*
X375Y2910D01*
X455Y2290D02*
Y2705D01*
Y2145D02*
Y2290D01*
X451Y2294D02*
X455Y2290D01*
X109Y2294D02*
X451D01*
X190Y3110D02*
Y3455D01*
Y2790D02*
Y3110D01*
X275D01*
X190Y3455D02*
X275Y3540D01*
X375Y3215D02*
Y3540D01*
X370Y3210D02*
X375Y3215D01*
X275Y3210D02*
X370D01*
X275Y3640D02*
X375Y3540D01*
X190Y2790D02*
X275Y2705D01*
X455Y2145D02*
X490Y2110D01*
X680D01*
X765Y2195D01*
X275Y2705D02*
X455D01*
X1359Y2895D02*
X1549D01*
X1359D02*
Y2910D01*
Y3215D01*
X1254Y2805D02*
X1359Y2910D01*
X1439Y2290D02*
Y2705D01*
Y2145D02*
Y2290D01*
X1435Y2294D02*
X1439Y2290D01*
X1093Y2294D02*
X1435D01*
X1174Y3110D02*
Y3455D01*
Y2790D02*
Y3110D01*
X1259D01*
X1174Y3455D02*
X1259Y3540D01*
X1359Y3215D02*
Y3540D01*
X1354Y3210D02*
X1359Y3215D01*
X1259Y3210D02*
X1354D01*
X1259Y3640D02*
X1359Y3540D01*
X1174Y2790D02*
X1259Y2705D01*
X1439Y2145D02*
X1474Y2110D01*
X1664D01*
X1749Y2195D01*
X1259Y2705D02*
X1439D01*
D12*
X109Y326D02*
D03*
X265Y176D02*
D03*
X305Y482D02*
D03*
X1093Y326D02*
D03*
X1249Y176D02*
D03*
X1289Y482D02*
D03*
X109Y2294D02*
D03*
X265Y2144D02*
D03*
X305Y2450D02*
D03*
X1093Y2294D02*
D03*
X1249Y2144D02*
D03*
X1289Y2450D02*
D03*
D13*
X75Y962D02*
D03*
Y717D02*
D03*
Y1362D02*
D03*
Y1117D02*
D03*
Y1552D02*
D03*
Y1797D02*
D03*
X1059Y962D02*
D03*
Y717D02*
D03*
Y1362D02*
D03*
Y1117D02*
D03*
Y1552D02*
D03*
Y1797D02*
D03*
X75Y2930D02*
D03*
Y2685D02*
D03*
Y3330D02*
D03*
Y3085D02*
D03*
Y3520D02*
D03*
Y3765D02*
D03*
X1059Y2930D02*
D03*
Y2685D02*
D03*
Y3330D02*
D03*
Y3085D02*
D03*
Y3520D02*
D03*
Y3765D02*
D03*
D14*
X765Y727D02*
D03*
Y1027D02*
D03*
Y1327D02*
D03*
Y1627D02*
D03*
Y527D02*
D03*
Y427D02*
D03*
Y327D02*
D03*
Y227D02*
D03*
X565Y527D02*
D03*
Y427D02*
D03*
Y327D02*
D03*
Y227D02*
D03*
X765Y627D02*
D03*
Y827D02*
D03*
Y927D02*
D03*
Y1127D02*
D03*
Y1227D02*
D03*
Y1427D02*
D03*
Y1527D02*
D03*
X565Y627D02*
D03*
Y827D02*
D03*
Y927D02*
D03*
Y1127D02*
D03*
Y1227D02*
D03*
Y1427D02*
D03*
Y1527D02*
D03*
Y1727D02*
D03*
Y727D02*
D03*
Y1027D02*
D03*
Y1327D02*
D03*
Y1627D02*
D03*
X1749Y727D02*
D03*
Y1027D02*
D03*
Y1327D02*
D03*
Y1627D02*
D03*
Y527D02*
D03*
Y427D02*
D03*
Y327D02*
D03*
Y227D02*
D03*
X1549Y527D02*
D03*
Y427D02*
D03*
Y327D02*
D03*
Y227D02*
D03*
X1749Y627D02*
D03*
Y827D02*
D03*
Y927D02*
D03*
Y1127D02*
D03*
Y1227D02*
D03*
Y1427D02*
D03*
Y1527D02*
D03*
X1549Y627D02*
D03*
Y827D02*
D03*
Y927D02*
D03*
Y1127D02*
D03*
Y1227D02*
D03*
Y1427D02*
D03*
Y1527D02*
D03*
Y1727D02*
D03*
Y727D02*
D03*
Y1027D02*
D03*
Y1327D02*
D03*
Y1627D02*
D03*
X765Y2695D02*
D03*
Y2995D02*
D03*
Y3295D02*
D03*
Y3595D02*
D03*
Y2495D02*
D03*
Y2395D02*
D03*
Y2295D02*
D03*
Y2195D02*
D03*
X565Y2495D02*
D03*
Y2395D02*
D03*
Y2295D02*
D03*
Y2195D02*
D03*
X765Y2595D02*
D03*
Y2795D02*
D03*
Y2895D02*
D03*
Y3095D02*
D03*
Y3195D02*
D03*
Y3395D02*
D03*
Y3495D02*
D03*
X565Y2595D02*
D03*
Y2795D02*
D03*
Y2895D02*
D03*
Y3095D02*
D03*
Y3195D02*
D03*
Y3395D02*
D03*
Y3495D02*
D03*
Y3695D02*
D03*
Y2695D02*
D03*
Y2995D02*
D03*
Y3295D02*
D03*
Y3595D02*
D03*
X1749Y2695D02*
D03*
Y2995D02*
D03*
Y3295D02*
D03*
Y3595D02*
D03*
Y2495D02*
D03*
Y2395D02*
D03*
Y2295D02*
D03*
Y2195D02*
D03*
X1549Y2495D02*
D03*
Y2395D02*
D03*
Y2295D02*
D03*
Y2195D02*
D03*
X1749Y2595D02*
D03*
Y2795D02*
D03*
Y2895D02*
D03*
Y3095D02*
D03*
Y3195D02*
D03*
Y3395D02*
D03*
Y3495D02*
D03*
X1549Y2595D02*
D03*
Y2795D02*
D03*
Y2895D02*
D03*
Y3095D02*
D03*
Y3195D02*
D03*
Y3395D02*
D03*
Y3495D02*
D03*
Y3695D02*
D03*
Y2695D02*
D03*
Y2995D02*
D03*
Y3295D02*
D03*
Y3595D02*
D03*
D15*
X765Y1727D02*
D03*
X1749D02*
D03*
X765Y3695D02*
D03*
X1749D02*
D03*
D16*
X270Y937D02*
D03*
Y837D02*
D03*
X275Y1342D02*
D03*
Y1242D02*
D03*
Y1672D02*
D03*
Y1772D02*
D03*
X1254Y937D02*
D03*
Y837D02*
D03*
X1259Y1342D02*
D03*
Y1242D02*
D03*
Y1672D02*
D03*
Y1772D02*
D03*
X270Y2905D02*
D03*
Y2805D02*
D03*
X275Y3310D02*
D03*
Y3210D02*
D03*
Y3640D02*
D03*
Y3740D02*
D03*
X1254Y2905D02*
D03*
Y2805D02*
D03*
X1259Y3310D02*
D03*
Y3210D02*
D03*
Y3640D02*
D03*
Y3740D02*
D03*
D17*
X270Y737D02*
D03*
X275Y1142D02*
D03*
Y1572D02*
D03*
X1254Y737D02*
D03*
X1259Y1142D02*
D03*
Y1572D02*
D03*
X270Y2705D02*
D03*
X275Y3110D02*
D03*
Y3540D02*
D03*
X1254Y2705D02*
D03*
X1259Y3110D02*
D03*
Y3540D02*
D03*
D18*
X80Y1362D02*
X140D01*
X75Y962D02*
X140Y1027D01*
X455Y1837D02*
X565Y1727D01*
X115Y1837D02*
X455D01*
X75Y1797D02*
X115Y1837D01*
X140Y1027D02*
Y1362D01*
Y1732D01*
X75Y1797D02*
X140Y1732D01*
X1064Y1362D02*
X1124D01*
X1059Y962D02*
X1124Y1027D01*
X1439Y1837D02*
X1549Y1727D01*
X1099Y1837D02*
X1439D01*
X1059Y1797D02*
X1099Y1837D01*
X1124Y1027D02*
Y1362D01*
Y1732D01*
X1059Y1797D02*
X1124Y1732D01*
X80Y3330D02*
X140D01*
X75Y2930D02*
X140Y2995D01*
X455Y3805D02*
X565Y3695D01*
X115Y3805D02*
X455D01*
X75Y3765D02*
X115Y3805D01*
X140Y2995D02*
Y3330D01*
Y3700D01*
X75Y3765D02*
X140Y3700D01*
X1064Y3330D02*
X1124D01*
X1059Y2930D02*
X1124Y2995D01*
X1439Y3805D02*
X1549Y3695D01*
X1099Y3805D02*
X1439D01*
X1059Y3765D02*
X1099Y3805D01*
X1124Y2995D02*
Y3330D01*
Y3700D01*
X1059Y3765D02*
X1124Y3700D01*
M02*
