M48
;Layer_Color=9474304
;FILE_FORMAT=2:3
INCH,LZ
;TYPE=PLATED
T1F00S00C0.033
T2F00S00C0.035
T3F00S00C0.039
T4F00S00C0.065
%
T01
X03205Y01747
Y01992
Y02147
Y02392
Y02582
Y02827
X04189
Y02582
Y02392
Y02147
Y01992
Y01747
Y03715
Y0396
Y04115
Y0436
Y0455
X03205
Y0436
Y04115
Y0396
Y03715
Y04795
X04189
T02
X034Y01767
Y01867
Y01967
X03405Y02172
Y02272
Y02372
Y02602
Y02702
Y02802
X04389
Y02702
Y02602
Y02372
Y02272
Y02172
X04384Y01967
Y01867
Y01767
Y03735
Y03835
Y03935
X04389Y0414
Y0424
Y0434
Y0457
Y0467
X03405
Y0457
Y0434
Y0424
Y0414
X034Y03935
Y03835
Y03735
X03405Y0477
X04389
T03
X03695Y01257
Y01357
Y01457
Y01557
X03895
Y01457
Y01357
Y01257
X04679
Y01357
Y01457
Y01557
X04879
Y01457
Y01357
Y01257
Y01657
Y01757
Y01857
Y01957
Y02057
Y02157
Y02257
Y02357
Y02457
Y02557
Y02657
Y02757
X04679
Y02657
Y02557
Y02457
Y02357
Y02257
Y02157
Y02057
Y01957
Y01857
Y01757
Y01657
X03895
Y01757
Y01857
Y01957
Y02057
Y02157
Y02257
Y02357
Y02457
Y02557
Y02657
Y02757
X03695
Y02657
Y02557
Y02457
Y02357
Y02257
Y02157
Y02057
Y01957
Y01857
Y01757
Y01657
Y03225
Y03325
Y03425
Y03525
Y03625
Y03725
Y03825
Y03925
Y04025
Y04125
Y04225
Y04325
Y04425
Y04525
Y04625
X03895
Y04525
Y04425
Y04325
Y04225
Y04125
Y04025
Y03925
Y03825
Y03725
Y03625
Y03525
Y03425
Y03325
Y03225
X04679
Y03325
Y03425
Y03525
Y03625
Y03725
Y03825
Y03925
Y04025
Y04125
Y04225
Y04325
Y04425
Y04525
Y04625
X04879
Y04525
Y04425
Y04325
Y04225
Y04125
Y04025
Y03925
Y03825
Y03725
Y03625
Y03525
Y03425
Y03325
Y03225
Y04725
X04679
X03895
X03695
T04
X03239Y01356
X03395Y01206
X03435Y01512
X04223Y01356
X04379Y01206
X04419Y01512
X04379Y03174
X04223Y03324
X04419Y0348
X03435
X03395Y03174
X03239Y03324
M30
