G04 Layer_Physical_Order=2*
G04 Layer_Color=16711680*
%FSLAX23Y23*%
%MOIN*%
G70*
G01*
G75*
%ADD10C,0.050*%
%ADD11C,0.015*%
%ADD12C,0.010*%
%ADD13C,0.090*%
%ADD14C,0.059*%
%ADD15R,0.059X0.059*%
%ADD16C,0.065*%
%ADD17R,0.065X0.065*%
%ADD18C,0.055*%
%ADD19C,0.020*%
%ADD20C,0.025*%
D10*
X765Y827D02*
Y927D01*
Y727D02*
Y827D01*
Y627D02*
Y727D01*
Y527D02*
Y627D01*
Y427D02*
Y527D01*
Y327D02*
Y427D01*
Y227D02*
Y327D01*
X565Y827D02*
Y927D01*
Y727D02*
Y827D01*
Y627D02*
Y727D01*
Y527D02*
Y627D01*
Y427D02*
Y527D01*
Y327D02*
Y427D01*
Y227D02*
Y327D01*
X455Y177D02*
Y300D01*
X245D02*
X455D01*
X275Y737D02*
X455D01*
X680Y142D02*
X765Y227D01*
X490Y142D02*
X680D01*
X455Y177D02*
X490Y142D01*
X455Y300D02*
Y737D01*
D11*
X275Y1772D02*
Y1777D01*
D12*
X0Y1969D02*
X906D01*
Y0D02*
Y1969D01*
X0Y0D02*
X906D01*
X0D02*
Y1969D01*
D13*
X245Y480D02*
D03*
Y300D02*
D03*
D14*
X275Y1772D02*
D03*
Y1672D02*
D03*
Y1242D02*
D03*
Y1342D02*
D03*
X270Y837D02*
D03*
Y937D02*
D03*
D15*
X275Y1572D02*
D03*
Y1142D02*
D03*
X270Y737D02*
D03*
D16*
X565Y1627D02*
D03*
Y1327D02*
D03*
Y1027D02*
D03*
Y727D02*
D03*
Y1727D02*
D03*
Y1527D02*
D03*
Y1427D02*
D03*
Y1227D02*
D03*
Y1127D02*
D03*
Y927D02*
D03*
Y827D02*
D03*
Y627D02*
D03*
X765Y1527D02*
D03*
Y1427D02*
D03*
Y1227D02*
D03*
Y1127D02*
D03*
Y927D02*
D03*
Y827D02*
D03*
Y627D02*
D03*
X565Y227D02*
D03*
Y327D02*
D03*
Y427D02*
D03*
Y527D02*
D03*
X765Y227D02*
D03*
Y327D02*
D03*
Y427D02*
D03*
Y527D02*
D03*
Y1627D02*
D03*
Y1327D02*
D03*
Y1027D02*
D03*
Y727D02*
D03*
D17*
Y1727D02*
D03*
D18*
X75Y1797D02*
D03*
Y1552D02*
D03*
Y1117D02*
D03*
Y1362D02*
D03*
Y717D02*
D03*
Y962D02*
D03*
D19*
X817Y1627D02*
G03*
X787Y1674I-52J0D01*
G01*
X781Y1577D02*
G03*
X817Y1627I-16J50D01*
G01*
X781Y1377D02*
G03*
X817Y1427I-16J50D01*
G01*
X743Y1674D02*
G03*
X749Y1577I22J-48D01*
G01*
X817Y1527D02*
G03*
X781Y1577I-52J0D01*
G01*
X749D02*
G03*
X749Y1477I16J-50D01*
G01*
X781D02*
G03*
X817Y1527I-16J50D01*
G01*
Y1427D02*
G03*
X781Y1477I-52J0D01*
G01*
X749D02*
G03*
X749Y1377I16J-50D01*
G01*
X781Y1277D02*
G03*
X817Y1327I-16J50D01*
G01*
X781Y1177D02*
G03*
X817Y1227I-16J50D01*
G01*
X788Y980D02*
G03*
X817Y1027I-23J47D01*
G01*
Y1327D02*
G03*
X781Y1377I-52J0D01*
G01*
X749D02*
G03*
X749Y1277I16J-50D01*
G01*
X817Y1227D02*
G03*
X781Y1277I-52J0D01*
G01*
X749D02*
G03*
X749Y1177I16J-50D01*
G01*
X781Y1077D02*
G03*
X817Y1127I-16J50D01*
G01*
Y1027D02*
G03*
X781Y1077I-52J0D01*
G01*
X817Y1127D02*
G03*
X781Y1177I-52J0D01*
G01*
X749D02*
G03*
X749Y1077I16J-50D01*
G01*
D02*
G03*
X742Y980I16J-50D01*
G01*
X617Y1727D02*
G03*
X556Y1779I-52J0D01*
G01*
X581Y1677D02*
G03*
X617Y1727I-16J50D01*
G01*
X581Y1577D02*
G03*
X617Y1627I-16J50D01*
G01*
D02*
G03*
X581Y1677I-52J0D01*
G01*
Y1477D02*
G03*
X617Y1527I-16J50D01*
G01*
D02*
G03*
X581Y1577I-52J0D01*
G01*
X513Y1736D02*
G03*
X549Y1677I52J-9D01*
G01*
X476Y1858D02*
G03*
X455Y1867I-21J-21D01*
G01*
X476Y1858D02*
G03*
X455Y1867I-21J-21D01*
G01*
X549Y1677D02*
G03*
X549Y1577I16J-50D01*
G01*
D02*
G03*
X549Y1477I16J-50D01*
G01*
X581Y1277D02*
G03*
X617Y1327I-16J50D01*
G01*
D02*
G03*
X581Y1377I-52J0D01*
G01*
Y1177D02*
G03*
X617Y1227I-16J50D01*
G01*
Y1427D02*
G03*
X581Y1477I-52J0D01*
G01*
Y1377D02*
G03*
X617Y1427I-16J50D01*
G01*
X549Y1477D02*
G03*
X549Y1377I16J-50D01*
G01*
D02*
G03*
X549Y1277I16J-50D01*
G01*
X617Y1227D02*
G03*
X581Y1277I-52J0D01*
G01*
X617Y1127D02*
G03*
X581Y1177I-52J0D01*
G01*
X549Y1277D02*
G03*
X549Y1177I16J-50D01*
G01*
X581Y1077D02*
G03*
X617Y1127I-16J50D01*
G01*
Y1027D02*
G03*
X581Y1077I-52J0D01*
G01*
X549Y1177D02*
G03*
X549Y1077I16J-50D01*
G01*
D02*
G03*
X549Y977I16J-50D01*
G01*
X581D02*
G03*
X617Y1027I-16J50D01*
G01*
X549Y977D02*
G03*
X524Y959I16J-50D01*
G01*
X822Y827D02*
G03*
X793Y877I-57J0D01*
G01*
X822Y927D02*
G03*
X788Y980I-57J0D01*
G01*
X793Y877D02*
G03*
X822Y927I-28J50D01*
G01*
X793Y777D02*
G03*
X822Y827I-28J50D01*
G01*
X742Y980D02*
G03*
X737Y877I23J-53D01*
G01*
X822Y727D02*
G03*
X793Y777I-57J0D01*
G01*
Y677D02*
G03*
X822Y727I-28J50D01*
G01*
X793Y577D02*
G03*
X822Y627I-28J50D01*
G01*
D02*
G03*
X793Y677I-57J0D01*
G01*
X737D02*
G03*
X737Y577I28J-50D01*
G01*
X822Y527D02*
G03*
X793Y577I-57J0D01*
G01*
Y477D02*
G03*
X822Y527I-28J50D01*
G01*
Y427D02*
G03*
X793Y477I-57J0D01*
G01*
Y377D02*
G03*
X822Y427I-28J50D01*
G01*
Y327D02*
G03*
X793Y377I-57J0D01*
G01*
X737Y477D02*
G03*
X737Y377I28J-50D01*
G01*
X793Y277D02*
G03*
X822Y327I-28J50D01*
G01*
Y227D02*
G03*
X793Y277I-57J0D01*
G01*
X737D02*
G03*
X822Y227I28J-50D01*
G01*
X737Y377D02*
G03*
X737Y277I28J-50D01*
G01*
Y877D02*
G03*
X737Y777I28J-50D01*
G01*
X610Y900D02*
G03*
X617Y927I-45J27D01*
G01*
Y827D02*
G03*
X610Y854I-52J0D01*
G01*
X737Y777D02*
G03*
X737Y677I28J-50D01*
G01*
X617Y627D02*
G03*
X610Y654I-52J0D01*
G01*
Y600D02*
G03*
X617Y627I-45J27D01*
G01*
X610Y800D02*
G03*
X617Y827I-45J27D01*
G01*
Y927D02*
G03*
X581Y977I-52J0D01*
G01*
X520Y854D02*
G03*
X520Y800I45J-27D01*
G01*
X617Y727D02*
G03*
X610Y754I-52J0D01*
G01*
Y700D02*
G03*
X617Y727I-45J27D01*
G01*
X520Y754D02*
G03*
X520Y700I45J-27D01*
G01*
Y654D02*
G03*
X520Y600I45J-27D01*
G01*
X737Y577D02*
G03*
X737Y477I28J-50D01*
G01*
X617Y527D02*
G03*
X610Y554I-52J0D01*
G01*
Y500D02*
G03*
X617Y527I-45J27D01*
G01*
X610Y400D02*
G03*
X617Y427I-45J27D01*
G01*
D02*
G03*
X610Y454I-52J0D01*
G01*
X520Y554D02*
G03*
X520Y500I45J-27D01*
G01*
X617Y327D02*
G03*
X610Y354I-52J0D01*
G01*
Y300D02*
G03*
X617Y327I-45J27D01*
G01*
X520Y454D02*
G03*
X520Y400I45J-27D01*
G01*
Y354D02*
G03*
X520Y300I45J-27D01*
G01*
X617Y227D02*
G03*
X610Y254I-52J0D01*
G01*
X520D02*
G03*
X617Y227I45J-27D01*
G01*
X324Y1668D02*
G03*
X325Y1672I-49J3D01*
G01*
X407Y1572D02*
G03*
X398Y1595I-32J0D01*
G01*
X407Y1572D02*
G03*
X398Y1595I-32J0D01*
G01*
X325Y1772D02*
G03*
X310Y1807I-50J0D01*
G01*
X240D02*
G03*
X325Y1772I35J-35D01*
G01*
Y1672D02*
G03*
X255Y1626I-50J0D01*
G01*
X325Y1342D02*
G03*
X325Y1342I-50J0D01*
G01*
X312Y1274D02*
G03*
X255Y1196I-37J-32D01*
G01*
X295D02*
G03*
X312Y1209I-20J45D01*
G01*
X123Y1797D02*
G03*
X122Y1802I-48J0D01*
G01*
Y1792D02*
G03*
X123Y1797I-47J5D01*
G01*
X170Y1732D02*
G03*
X161Y1753I-30J0D01*
G01*
X170Y1732D02*
G03*
X161Y1753I-30J0D01*
G01*
X115Y1867D02*
G03*
X94Y1858I0J-30D01*
G01*
X115Y1867D02*
G03*
X94Y1858I0J-30D01*
G01*
X80Y1844D02*
G03*
X80Y1750I-5J-47D01*
G01*
X110Y1584D02*
G03*
X110Y1520I-35J-32D01*
G01*
Y1394D02*
G03*
X110Y1330I-35J-32D01*
G01*
X319Y932D02*
G03*
X320Y937I-49J5D01*
G01*
D02*
G03*
X275Y888I-50J0D01*
G01*
X273Y886D02*
G03*
X250Y791I-3J-49D01*
G01*
X320Y837D02*
G03*
X319Y840I-50J0D01*
G01*
X290Y791D02*
G03*
X320Y837I-20J45D01*
G01*
X310Y480D02*
G03*
X310Y480I-65J0D01*
G01*
X315Y300D02*
G03*
X315Y300I-70J0D01*
G01*
X161Y1006D02*
G03*
X170Y1027I-21J21D01*
G01*
X161Y1006D02*
G03*
X170Y1027I-21J21D01*
G01*
X123Y962D02*
G03*
X122Y967I-48J0D01*
G01*
X110Y1149D02*
G03*
X110Y1085I-35J-32D01*
G01*
X80Y1009D02*
G03*
X123Y962I-5J-47D01*
G01*
Y717D02*
G03*
X123Y717I-48J0D01*
G01*
X817Y1737D02*
X881D01*
X817Y1717D02*
X881D01*
X817Y1777D02*
X881D01*
X817Y1757D02*
X881D01*
X817Y1697D02*
X881D01*
X817Y1677D02*
X881D01*
X808Y1657D02*
X881D01*
X800Y1779D02*
Y1944D01*
X817Y1674D02*
Y1779D01*
X800Y1666D02*
Y1674D01*
X817Y1637D02*
X881D01*
X817Y1617D02*
X881D01*
X787Y1674D02*
X817D01*
X817Y1537D02*
X881D01*
X817Y1517D02*
X881D01*
X808Y1597D02*
X881D01*
X808Y1557D02*
X881D01*
X808Y1497D02*
X881D01*
X817Y1437D02*
X881D01*
X781Y1477D02*
X881D01*
X800Y1566D02*
Y1588D01*
Y1466D02*
Y1488D01*
X808Y1457D02*
X881D01*
X817Y1417D02*
X881D01*
X760Y1779D02*
Y1944D01*
X780Y1779D02*
Y1944D01*
X477Y1857D02*
X881D01*
X497Y1837D02*
X881D01*
X537Y1797D02*
X881D01*
X713Y1779D02*
X817D01*
X517Y1817D02*
X881D01*
X740Y1779D02*
Y1944D01*
X713Y1674D02*
X743D01*
X608Y1657D02*
X722D01*
X608Y1597D02*
X722D01*
X581Y1577D02*
X749D01*
X781D02*
X881D01*
X581Y1477D02*
X749D01*
X740Y1573D02*
Y1581D01*
X608Y1557D02*
X722D01*
X608Y1497D02*
X722D01*
X740Y1473D02*
Y1481D01*
X608Y1457D02*
X722D01*
X608Y1397D02*
X722D01*
X808D02*
X881D01*
X817Y1337D02*
X881D01*
X781Y1377D02*
X881D01*
X808Y1357D02*
X881D01*
X817Y1317D02*
X881D01*
X817Y1237D02*
X881D01*
X808Y1297D02*
X881D01*
X800Y1366D02*
Y1388D01*
X808Y1257D02*
X881D01*
X800Y1266D02*
Y1288D01*
X817Y1217D02*
X881D01*
X808Y1197D02*
X881D01*
X817Y1137D02*
X881D01*
X817Y1117D02*
X881D01*
X808Y1157D02*
X881D01*
X808Y1097D02*
X881D01*
X808Y1057D02*
X881D01*
X817Y1037D02*
X881D01*
X808Y997D02*
X881D01*
X800Y1166D02*
Y1188D01*
Y1066D02*
Y1088D01*
X817Y1017D02*
X881D01*
X800Y972D02*
Y988D01*
X793Y977D02*
X881D01*
X781Y1277D02*
X881D01*
X581Y1377D02*
X749D01*
X781Y1177D02*
X881D01*
X581Y1277D02*
X749D01*
X740Y1373D02*
Y1381D01*
Y1273D02*
Y1281D01*
X608Y1297D02*
X722D01*
X740Y1173D02*
Y1181D01*
X581Y1177D02*
X749D01*
X781Y1077D02*
X881D01*
X581D02*
X749D01*
X608Y1097D02*
X722D01*
X740Y1073D02*
Y1081D01*
X608Y1157D02*
X722D01*
X608Y1057D02*
X722D01*
X608Y997D02*
X722D01*
X581Y977D02*
X737D01*
X720Y1779D02*
Y1944D01*
X713Y1674D02*
Y1779D01*
X581Y1777D02*
X713D01*
X608Y1757D02*
X713D01*
X617Y1737D02*
X713D01*
X617Y1717D02*
X713D01*
X581Y1677D02*
X713D01*
X580Y1777D02*
Y1944D01*
X600Y1766D02*
Y1944D01*
X560Y1779D02*
Y1944D01*
X608Y1697D02*
X713D01*
X600Y1666D02*
Y1688D01*
X720Y1654D02*
Y1674D01*
Y1554D02*
Y1600D01*
X617Y1637D02*
X713D01*
X617Y1617D02*
X713D01*
X617Y1517D02*
X713D01*
X720Y1454D02*
Y1500D01*
X617Y1537D02*
X713D01*
X600Y1566D02*
Y1588D01*
Y1466D02*
Y1488D01*
X520Y1814D02*
Y1944D01*
X540Y1794D02*
Y1944D01*
X500Y1834D02*
Y1944D01*
X476Y1858D02*
X556Y1779D01*
X540Y1673D02*
Y1681D01*
X443Y1807D02*
X513Y1736D01*
X460Y1866D02*
Y1944D01*
X480Y1854D02*
Y1944D01*
X420Y1867D02*
Y1944D01*
X440Y1867D02*
Y1944D01*
X520Y1654D02*
Y1700D01*
X540Y1573D02*
Y1581D01*
X520Y1554D02*
Y1600D01*
X540Y1473D02*
Y1481D01*
X407Y1557D02*
X522D01*
X440Y959D02*
Y1807D01*
X460Y959D02*
Y1789D01*
X420Y959D02*
Y1807D01*
X520Y1454D02*
Y1500D01*
X500Y959D02*
Y1749D01*
X480Y959D02*
Y1769D01*
X720Y1354D02*
Y1400D01*
X617Y1337D02*
X713D01*
X608Y1357D02*
X722D01*
X617Y1317D02*
X713D01*
X720Y1254D02*
Y1300D01*
X617Y1237D02*
X713D01*
X608Y1257D02*
X722D01*
X617Y1437D02*
X713D01*
X617Y1417D02*
X713D01*
X600Y1366D02*
Y1388D01*
Y1266D02*
Y1288D01*
X617Y1217D02*
X713D01*
X720Y1154D02*
Y1200D01*
X608Y1197D02*
X722D01*
X617Y1137D02*
X713D01*
X720Y1054D02*
Y1100D01*
Y963D02*
Y1000D01*
X617Y1117D02*
X713D01*
X600Y1166D02*
Y1188D01*
Y1066D02*
Y1088D01*
X617Y1037D02*
X713D01*
X617Y1017D02*
X713D01*
X600Y966D02*
Y988D01*
X540Y1373D02*
Y1381D01*
X520Y1354D02*
Y1400D01*
Y1254D02*
Y1300D01*
X540Y1273D02*
Y1281D01*
Y1173D02*
Y1181D01*
X520Y1154D02*
Y1200D01*
X407Y977D02*
X549D01*
X540Y1073D02*
Y1081D01*
X520Y1054D02*
Y1100D01*
X407Y1117D02*
X513D01*
X540Y973D02*
Y981D01*
X520Y959D02*
Y1000D01*
X407Y997D02*
X522D01*
X822Y937D02*
X881D01*
X822Y917D02*
X881D01*
X814Y957D02*
X881D01*
X814Y897D02*
X881D01*
X814Y857D02*
X881D01*
X822Y837D02*
X881D01*
X814Y797D02*
X881D01*
X820Y944D02*
Y1944D01*
X822Y817D02*
X881D01*
X800Y872D02*
Y881D01*
X820Y844D02*
Y910D01*
Y744D02*
Y810D01*
X822Y737D02*
X881D01*
X814Y757D02*
X881D01*
X822Y717D02*
X881D01*
Y25D02*
Y1944D01*
X814Y697D02*
X881D01*
X814Y657D02*
X881D01*
X822Y637D02*
X881D01*
X822Y617D02*
X881D01*
X814Y597D02*
X881D01*
X880Y25D02*
Y1944D01*
X881Y25D02*
Y1944D01*
X860Y25D02*
Y1944D01*
X820Y644D02*
Y710D01*
X840Y25D02*
Y1944D01*
X820Y544D02*
Y610D01*
X793Y877D02*
X881D01*
X793Y777D02*
X881D01*
X765Y827D02*
X812D01*
X718Y927D02*
X765D01*
X812D01*
X718Y827D02*
X765D01*
X800Y772D02*
Y781D01*
X610Y877D02*
X737D01*
X765Y727D02*
X812D01*
X793Y677D02*
X881D01*
X793Y577D02*
X881D01*
X718Y727D02*
X765D01*
X800Y672D02*
Y681D01*
X765Y627D02*
X812D01*
X800Y572D02*
Y581D01*
X718Y627D02*
X765D01*
X822Y537D02*
X881D01*
X822Y517D02*
X881D01*
X814Y557D02*
X881D01*
X814Y497D02*
X881D01*
X814Y457D02*
X881D01*
X814Y397D02*
X881D01*
X793Y477D02*
X881D01*
X800Y472D02*
Y481D01*
X820Y444D02*
Y510D01*
X822Y437D02*
X881D01*
X822Y417D02*
X881D01*
X800Y372D02*
Y381D01*
X822Y337D02*
X881D01*
X822Y317D02*
X881D01*
X814Y357D02*
X881D01*
X814Y297D02*
X881D01*
X814Y257D02*
X881D01*
X822Y217D02*
X881D01*
X814Y197D02*
X881D01*
X820Y344D02*
Y410D01*
Y244D02*
Y310D01*
X800Y272D02*
Y281D01*
X822Y237D02*
X881D01*
X820Y25D02*
Y210D01*
X800Y25D02*
Y181D01*
X765Y527D02*
X812D01*
X765Y427D02*
X812D01*
X793Y377D02*
X881D01*
X765Y327D02*
X812D01*
X718Y527D02*
X765D01*
X610Y577D02*
X737D01*
X718Y427D02*
X765D01*
X718Y327D02*
X765D01*
X610Y377D02*
X737D01*
X793Y277D02*
X881D01*
X793Y177D02*
X881D01*
X780Y25D02*
Y171D01*
X765Y227D02*
X812D01*
X718D02*
X765D01*
X610Y277D02*
X737D01*
X765Y179D02*
Y227D01*
X760Y25D02*
Y170D01*
X740Y25D02*
Y175D01*
X720Y863D02*
Y891D01*
X617Y937D02*
X708D01*
X610Y897D02*
X716D01*
X610Y857D02*
X716D01*
X720Y763D02*
Y791D01*
X610Y697D02*
X716D01*
X617Y917D02*
X708D01*
X617Y837D02*
X708D01*
X617Y737D02*
X708D01*
X617Y717D02*
X708D01*
X617Y817D02*
X708D01*
X720Y663D02*
Y691D01*
X610Y677D02*
X737D01*
X700Y25D02*
Y1944D01*
X617Y637D02*
X708D01*
X617Y617D02*
X708D01*
X610Y657D02*
X716D01*
X660Y25D02*
Y1944D01*
X680Y25D02*
Y1944D01*
X640Y25D02*
Y1944D01*
X620Y25D02*
Y1944D01*
X610Y854D02*
Y900D01*
X608Y957D02*
X716D01*
X610Y777D02*
X737D01*
X610Y757D02*
X716D01*
X610Y797D02*
X716D01*
X520Y854D02*
Y894D01*
Y854D02*
Y894D01*
Y754D02*
Y800D01*
X610Y754D02*
Y800D01*
X520Y754D02*
Y800D01*
X610Y654D02*
Y700D01*
X520Y654D02*
Y700D01*
Y654D02*
Y700D01*
X440Y25D02*
Y894D01*
X460Y25D02*
Y894D01*
X420Y25D02*
Y894D01*
X520Y554D02*
Y600D01*
X500Y25D02*
Y894D01*
X480Y25D02*
Y894D01*
X720Y563D02*
Y591D01*
X610Y557D02*
X716D01*
X610Y497D02*
X716D01*
X610Y477D02*
X737D01*
X720Y463D02*
Y491D01*
X610Y457D02*
X716D01*
X617Y537D02*
X708D01*
X617Y517D02*
X708D01*
X617Y437D02*
X708D01*
X610Y454D02*
Y500D01*
X617Y417D02*
X708D01*
X720Y363D02*
Y391D01*
X610Y397D02*
X716D01*
X617Y337D02*
X708D01*
X720Y263D02*
Y291D01*
Y25D02*
Y191D01*
X617Y237D02*
X708D01*
X610Y354D02*
Y400D01*
X617Y317D02*
X708D01*
X617Y217D02*
X708D01*
X610Y254D02*
Y300D01*
Y597D02*
X716D01*
X610Y554D02*
Y600D01*
X520Y454D02*
Y500D01*
X610Y357D02*
X716D01*
X520Y554D02*
Y600D01*
Y454D02*
Y500D01*
Y354D02*
Y400D01*
Y354D02*
Y400D01*
X610Y297D02*
X716D01*
X610Y257D02*
X716D01*
X608Y197D02*
X716D01*
X600Y25D02*
Y188D01*
X581Y177D02*
X737D01*
X520Y254D02*
Y300D01*
Y25D02*
Y200D01*
Y254D02*
Y300D01*
X560Y25D02*
Y175D01*
X580Y25D02*
Y177D01*
X540Y25D02*
Y181D01*
X380Y1867D02*
Y1944D01*
X400Y1867D02*
Y1944D01*
X324Y1777D02*
X473D01*
X322Y1757D02*
X493D01*
X336Y1657D02*
X522D01*
X356Y1637D02*
X513D01*
X324Y1677D02*
X549D01*
X360Y1867D02*
Y1944D01*
Y1633D02*
Y1807D01*
X320Y1867D02*
Y1944D01*
X340Y1867D02*
Y1944D01*
Y1653D02*
Y1807D01*
X320Y1793D02*
Y1807D01*
X400Y1593D02*
Y1807D01*
X376Y1617D02*
X513D01*
X396Y1597D02*
X522D01*
X407Y1577D02*
X549D01*
X407Y1247D02*
Y1572D01*
X380Y1613D02*
Y1807D01*
X330Y1571D02*
X343Y1558D01*
X324Y1668D02*
X398Y1595D01*
X340Y1274D02*
Y1561D01*
X343Y1274D02*
Y1558D01*
X330Y1517D02*
Y1571D01*
X25Y1937D02*
X881D01*
X25Y1917D02*
X881D01*
X25Y1944D02*
X881D01*
X25D02*
X881D01*
X25Y1877D02*
X881D01*
X115Y1867D02*
X455D01*
X25Y1897D02*
X881D01*
X280Y1867D02*
Y1944D01*
X300Y1867D02*
Y1944D01*
X260Y1867D02*
Y1944D01*
X310Y1807D02*
X443D01*
X318Y1797D02*
X453D01*
X310Y1737D02*
X513D01*
X320Y1693D02*
Y1751D01*
X296Y1717D02*
X513D01*
X318Y1697D02*
X522D01*
X275Y1572D02*
X320D01*
X260Y1719D02*
Y1725D01*
X300Y1715D02*
Y1729D01*
X170Y1717D02*
X254D01*
X230Y1572D02*
X275D01*
Y1527D02*
Y1572D01*
X220Y1626D02*
X255D01*
X407Y1457D02*
X522D01*
X407Y1417D02*
X513D01*
X407Y1497D02*
X522D01*
X407Y1477D02*
X549D01*
X407Y1377D02*
X549D01*
X407Y1357D02*
X522D01*
X407Y1397D02*
X522D01*
X330Y1557D02*
X343D01*
X407Y1537D02*
X513D01*
X330D02*
X343D01*
X320Y1363D02*
Y1517D01*
X407Y1517D02*
X513D01*
X407Y1437D02*
X513D01*
X322Y1357D02*
X343D01*
X407Y1297D02*
X522D01*
X407Y1277D02*
X549D01*
X407Y1337D02*
X513D01*
X407Y1317D02*
X513D01*
X407Y1197D02*
X522D01*
X407Y1177D02*
X549D01*
X407Y1257D02*
X522D01*
X324Y1337D02*
X343D01*
X407Y1237D02*
X513D01*
X320Y1274D02*
Y1321D01*
X407Y1217D02*
X513D01*
X330Y1177D02*
X343D01*
X320Y1196D02*
Y1209D01*
X170Y1477D02*
X343D01*
X170Y1457D02*
X343D01*
X170Y1517D02*
X343D01*
X170Y1497D02*
X343D01*
X170Y1417D02*
X343D01*
X318Y1317D02*
X343D01*
X170Y1437D02*
X343D01*
X280Y1391D02*
Y1517D01*
X300Y1385D02*
Y1517D01*
X260Y1389D02*
Y1517D01*
X220D02*
X330D01*
X310Y1377D02*
X343D01*
X170Y1397D02*
X343D01*
X310Y1277D02*
X343D01*
X312Y1274D02*
X343D01*
X296Y1297D02*
X343D01*
X312Y1209D02*
X343D01*
X296Y1197D02*
X343D01*
X295Y1196D02*
X330D01*
X260Y1289D02*
Y1295D01*
X300Y1285D02*
Y1299D01*
X170Y1297D02*
X254D01*
X220Y1196D02*
X255D01*
X220Y1867D02*
Y1944D01*
X240Y1867D02*
Y1944D01*
X200Y1867D02*
Y1944D01*
X127Y1807D02*
X240D01*
X137Y1777D02*
X226D01*
X157Y1757D02*
X228D01*
X123Y1797D02*
X232D01*
X160Y1867D02*
Y1944D01*
X180Y1867D02*
Y1944D01*
X140Y1867D02*
Y1944D01*
Y1774D02*
Y1807D01*
X122Y1802D02*
X127Y1807D01*
X240Y1707D02*
Y1737D01*
X170Y1677D02*
X226D01*
X170Y1737D02*
X240D01*
X170Y1697D02*
X232D01*
X170Y1637D02*
X240D01*
X240Y1626D02*
Y1637D01*
X170Y1657D02*
X228D01*
X160Y1754D02*
Y1807D01*
X122Y1792D02*
X161Y1753D01*
X220Y1517D02*
Y1626D01*
X170Y1362D02*
Y1732D01*
X120Y1867D02*
Y1944D01*
X100Y1863D02*
Y1944D01*
X80Y1844D02*
Y1944D01*
X80Y1844D02*
X94Y1858D01*
X25Y1857D02*
X93D01*
X60Y1842D02*
Y1944D01*
X40Y1829D02*
Y1944D01*
X25Y1837D02*
X49D01*
X25Y1777D02*
X32D01*
X25Y1757D02*
X49D01*
X25Y1817D02*
X32D01*
X80Y1750D02*
X110Y1719D01*
Y1584D02*
Y1719D01*
X25Y1717D02*
X110D01*
X25Y1697D02*
X110D01*
X25Y1657D02*
X110D01*
X25Y1637D02*
X110D01*
X25Y1677D02*
X110D01*
X60Y1597D02*
Y1752D01*
X40Y1584D02*
Y1765D01*
X80Y1599D02*
Y1749D01*
X100Y1592D02*
Y1729D01*
X25Y1737D02*
X93D01*
X170Y1557D02*
X220D01*
X240Y1377D02*
Y1517D01*
X170Y1597D02*
X220D01*
X170Y1577D02*
X220D01*
X170Y1357D02*
X228D01*
X170Y1337D02*
X226D01*
X170Y1377D02*
X240D01*
X170Y1617D02*
X220D01*
X170Y1537D02*
X220D01*
X90Y1597D02*
X110D01*
X100Y1402D02*
Y1511D01*
X110Y1394D02*
Y1520D01*
X80Y1409D02*
Y1505D01*
X170Y1317D02*
X232D01*
X240Y1277D02*
Y1307D01*
X170Y1277D02*
X240D01*
X170Y1257D02*
X228D01*
X170Y1217D02*
X232D01*
X240Y1196D02*
Y1207D01*
X170Y1197D02*
X254D01*
X90Y1317D02*
X110D01*
X100Y1157D02*
Y1321D01*
X80Y1164D02*
Y1315D01*
X170Y1177D02*
X220D01*
X170Y1157D02*
X220D01*
X170Y1237D02*
X226D01*
X25Y1617D02*
X110D01*
X25Y1497D02*
X110D01*
X25Y1477D02*
X110D01*
X25Y1437D02*
X110D01*
X25Y1417D02*
X110D01*
X25Y1457D02*
X110D01*
X25Y1577D02*
X35D01*
X25Y1537D02*
X30D01*
X25Y1597D02*
X60D01*
X25Y1517D02*
X43D01*
X60Y1407D02*
Y1507D01*
X25Y1397D02*
X43D01*
X25Y1297D02*
X110D01*
X25Y1277D02*
X110D01*
X25Y1257D02*
X110D01*
X25Y1197D02*
X110D01*
X25Y1177D02*
X110D01*
X25Y1237D02*
X110D01*
X40Y1394D02*
Y1520D01*
X25Y1377D02*
X30D01*
X25Y1337D02*
X35D01*
X25Y1317D02*
X60D01*
X60Y1162D02*
Y1317D01*
X25Y1217D02*
X110D01*
X407Y1097D02*
X522D01*
X407Y1077D02*
X549D01*
X407Y1157D02*
X522D01*
X407Y1137D02*
X513D01*
X407Y1017D02*
X513D01*
X407Y959D02*
X524D01*
X407Y1057D02*
X522D01*
X330Y1087D02*
Y1196D01*
X407Y959D02*
Y1247D01*
X330Y1157D02*
X343D01*
X330Y1137D02*
X343D01*
X330Y1097D02*
X343D01*
X407Y1037D02*
X513D01*
X330Y1117D02*
X343D01*
X380Y25D02*
Y894D01*
X400Y25D02*
Y894D01*
X375D02*
X520D01*
X360Y25D02*
Y881D01*
X356Y877D02*
X520D01*
X336Y857D02*
X520D01*
X325Y777D02*
X520D01*
X343Y955D02*
Y1209D01*
X340Y953D02*
Y1209D01*
X320Y933D02*
Y1087D01*
X325Y682D02*
Y791D01*
X340Y25D02*
Y861D01*
X320Y791D02*
Y841D01*
X170Y1077D02*
X343D01*
X170Y1057D02*
X343D01*
X170Y1037D02*
X343D01*
X168Y1017D02*
X343D01*
X299Y977D02*
X343D01*
X315Y957D02*
X343D01*
X152Y997D02*
X343D01*
X275Y1142D02*
X320D01*
X275Y1097D02*
Y1142D01*
X230D02*
X275D01*
X280Y985D02*
Y1087D01*
X300Y976D02*
Y1087D01*
X220D02*
X330D01*
X320Y937D02*
X324D01*
X320Y837D02*
X513D01*
X319Y932D02*
X343Y955D01*
X319Y840D02*
X373Y894D01*
X315Y817D02*
X513D01*
X299Y797D02*
X520D01*
X290Y791D02*
X325D01*
X300D02*
Y797D01*
X325Y717D02*
X513D01*
X325Y697D02*
X520D01*
X325Y757D02*
X520D01*
X325Y737D02*
X513D01*
X308Y497D02*
X520D01*
X310Y477D02*
X520D01*
X306Y457D02*
X520D01*
X280Y535D02*
Y682D01*
X300Y515D02*
Y682D01*
X270Y737D02*
X315D01*
X270Y692D02*
Y737D01*
X299Y517D02*
X513D01*
X294Y437D02*
X513D01*
X276Y537D02*
X513D01*
X304Y337D02*
X513D01*
X313Y317D02*
X513D01*
X261Y417D02*
X513D01*
X286Y357D02*
X520D01*
X315Y297D02*
X520D01*
X311Y277D02*
X520D01*
X300Y257D02*
X520D01*
X300Y343D02*
Y445D01*
X320Y25D02*
Y682D01*
X280Y361D02*
Y425D01*
Y25D02*
Y239D01*
X300Y25D02*
Y257D01*
X275Y237D02*
X513D01*
X101Y677D02*
X520D01*
X25Y657D02*
X520D01*
X25Y597D02*
X520D01*
X25Y577D02*
X520D01*
X25Y397D02*
X520D01*
X25Y377D02*
X520D01*
X25Y557D02*
X520D01*
X225Y737D02*
X270D01*
X215Y682D02*
X325D01*
X25Y637D02*
X513D01*
X245Y300D02*
X305D01*
X25Y617D02*
X513D01*
X25Y77D02*
X881D01*
X25Y57D02*
X881D01*
X25Y117D02*
X881D01*
X25Y97D02*
X881D01*
X25Y25D02*
X881D01*
X25D02*
X881D01*
X25Y37D02*
X881D01*
X25Y217D02*
X513D01*
X25Y197D02*
X522D01*
X25Y157D02*
X881D01*
X25Y137D02*
X881D01*
X25Y177D02*
X549D01*
X170Y1137D02*
X220D01*
Y1087D02*
Y1196D01*
X170Y1117D02*
X220D01*
X170Y1097D02*
X220D01*
X260Y985D02*
Y1087D01*
X132Y977D02*
X241D01*
X110Y1149D02*
Y1330D01*
X170Y1027D02*
Y1362D01*
X101Y1157D02*
X110D01*
Y1039D02*
Y1085D01*
X101Y1077D02*
X110D01*
X100Y1029D02*
Y1076D01*
X240Y976D02*
Y1087D01*
X220Y791D02*
Y1807D01*
X200Y527D02*
Y1807D01*
X180Y480D02*
Y1807D01*
X122Y957D02*
X225D01*
X240Y876D02*
Y897D01*
X115Y937D02*
X220D01*
X140Y25D02*
Y984D01*
X160Y25D02*
Y1004D01*
X122Y967D02*
X161Y1006D01*
X120Y732D02*
Y946D01*
X100Y757D02*
Y921D01*
X80Y1009D02*
Y1070D01*
X60Y1007D02*
Y1072D01*
X25Y1057D02*
X110D01*
X25Y1037D02*
X108D01*
X80Y1009D02*
X110Y1039D01*
X25Y1017D02*
X88D01*
X25Y1157D02*
X49D01*
X40Y1149D02*
Y1330D01*
X25Y1137D02*
X32D01*
X25Y1077D02*
X49D01*
X25Y997D02*
X43D01*
X25Y1097D02*
X32D01*
X90Y917D02*
X225D01*
X60Y762D02*
Y917D01*
X25Y917D02*
X60D01*
X25Y897D02*
X241D01*
X80Y764D02*
Y915D01*
X25Y877D02*
X241D01*
X40Y994D02*
Y1085D01*
X25Y25D02*
Y1944D01*
Y25D02*
Y1944D01*
Y937D02*
X35D01*
X40Y749D02*
Y930D01*
X25Y977D02*
X30D01*
X240Y791D02*
Y797D01*
X260Y543D02*
Y682D01*
X215Y791D02*
X250D01*
X240Y545D02*
Y682D01*
Y370D02*
Y415D01*
X260Y368D02*
Y417D01*
X220Y365D02*
Y420D01*
X118Y737D02*
X215D01*
Y682D02*
Y791D01*
X101Y757D02*
X215D01*
X123Y717D02*
X215D01*
X220Y540D02*
Y682D01*
X118Y697D02*
X215D01*
X245Y300D02*
Y360D01*
Y240D02*
Y300D01*
X200Y354D02*
Y433D01*
X185Y300D02*
X245D01*
X240Y25D02*
Y230D01*
X260Y25D02*
Y232D01*
X220Y25D02*
Y235D01*
X100Y25D02*
Y676D01*
X120Y25D02*
Y701D01*
X80Y25D02*
Y670D01*
X180Y25D02*
Y274D01*
X200Y25D02*
Y246D01*
X180Y326D02*
Y480D01*
X25Y817D02*
X225D01*
X25Y797D02*
X241D01*
X25Y857D02*
X225D01*
X25Y837D02*
X220D01*
X25Y537D02*
X214D01*
X25Y517D02*
X191D01*
X25Y777D02*
X215D01*
X25Y757D02*
X49D01*
X25Y737D02*
X32D01*
X25Y677D02*
X49D01*
X25Y497D02*
X182D01*
X25Y697D02*
X32D01*
X25Y417D02*
X229D01*
X25Y357D02*
X204D01*
X25Y457D02*
X184D01*
X25Y437D02*
X196D01*
X25Y257D02*
X190D01*
X25Y237D02*
X215D01*
X25Y337D02*
X186D01*
X40Y25D02*
Y685D01*
X60Y25D02*
Y672D01*
X25Y477D02*
X180D01*
X25Y297D02*
X175D01*
X25Y277D02*
X179D01*
X25Y317D02*
X177D01*
X75Y1797D02*
X140Y1732D01*
Y1362D02*
Y1732D01*
Y1027D02*
Y1362D01*
X75Y1797D02*
X115Y1837D01*
X455D01*
X565Y1727D01*
X75Y962D02*
X140Y1027D01*
X80Y1362D02*
X140D01*
D20*
X190Y822D02*
X275Y737D01*
Y1672D02*
X375Y1572D01*
X275Y1242D02*
X370D01*
X375Y1247D01*
Y1572D01*
X190Y1487D02*
X275Y1572D01*
X190Y1142D02*
X275D01*
X190Y822D02*
Y1142D01*
Y1487D01*
X270Y837D02*
X375Y942D01*
Y1247D01*
Y927D02*
Y942D01*
Y927D02*
X565D01*
M02*
