M48
;Layer_Color=9474304
;FILE_FORMAT=2:3
INCH,LZ
;TYPE=PLATED
T1F00S00C0.033
T2F00S00C0.035
T3F00S00C0.039
T4F00S00C0.065
%
T01
X01775Y0286
Y03105
Y0326
Y03505
Y03695
Y0394
T02
X0197Y0288
Y0298
Y0308
X01975Y03285
Y03385
Y03485
Y03715
Y03815
Y03915
T03
X02265Y0237
Y0247
Y0257
Y0267
Y0277
Y0287
Y0297
Y0307
X02465
Y0297
Y0287
Y0277
Y0267
Y0257
Y0247
Y0237
Y0317
Y0327
Y0337
Y0347
Y0357
Y0367
Y0377
Y0387
X02265
Y0377
Y0367
Y0357
Y0347
Y0337
Y0327
Y0317
T04
X01809Y02469
X01965Y02319
X02005Y02625
M30
