G04 Layer_Color=2752767*
%FSLAX23Y23*%
%MOIN*%
G70*
G01*
G75*
%ADD12C,0.010*%
%ADD30C,0.005*%
%ADD31C,0.007*%
D12*
X0Y1969D02*
X906D01*
Y0D02*
Y1969D01*
X0Y0D02*
X906D01*
X0D02*
Y1969D01*
D30*
X225Y460D02*
Y500D01*
X265D01*
Y460D01*
X225D01*
Y280D02*
Y320D01*
X265D01*
Y280D01*
X225D01*
X565Y1607D02*
X545Y1647D01*
X585D01*
X565Y1607D01*
Y1307D02*
X545Y1347D01*
X585D01*
X565Y1307D01*
Y1007D02*
X545Y1047D01*
X585D01*
X565Y1007D01*
Y707D02*
X545Y747D01*
X585D01*
X565Y707D01*
Y1707D02*
X545Y1747D01*
X585D01*
X565Y1707D01*
Y1507D02*
X545Y1547D01*
X585D01*
X565Y1507D01*
Y1407D02*
X545Y1447D01*
X585D01*
X565Y1407D01*
Y1207D02*
X545Y1247D01*
X585D01*
X565Y1207D01*
Y1107D02*
X545Y1147D01*
X585D01*
X565Y1107D01*
Y907D02*
X545Y947D01*
X585D01*
X565Y907D01*
Y807D02*
X545Y847D01*
X585D01*
X565Y807D01*
Y607D02*
X545Y647D01*
X585D01*
X565Y607D01*
X765Y1707D02*
X745Y1747D01*
X785D01*
X765Y1707D01*
Y1507D02*
X745Y1547D01*
X785D01*
X765Y1507D01*
Y1407D02*
X745Y1447D01*
X785D01*
X765Y1407D01*
Y1207D02*
X745Y1247D01*
X785D01*
X765Y1207D01*
Y1107D02*
X745Y1147D01*
X785D01*
X765Y1107D01*
Y907D02*
X745Y947D01*
X785D01*
X765Y907D01*
Y807D02*
X745Y847D01*
X785D01*
X765Y807D01*
Y607D02*
X745Y647D01*
X785D01*
X765Y607D01*
X565Y207D02*
X545Y247D01*
X585D01*
X565Y207D01*
Y307D02*
X545Y347D01*
X585D01*
X565Y307D01*
Y407D02*
X545Y447D01*
X585D01*
X565Y407D01*
Y507D02*
X545Y547D01*
X585D01*
X565Y507D01*
X765Y207D02*
X745Y247D01*
X785D01*
X765Y207D01*
Y307D02*
X745Y347D01*
X785D01*
X765Y307D01*
Y407D02*
X745Y447D01*
X785D01*
X765Y407D01*
Y507D02*
X745Y547D01*
X785D01*
X765Y507D01*
Y1607D02*
X745Y1647D01*
X785D01*
X765Y1607D01*
Y1307D02*
X745Y1347D01*
X785D01*
X765Y1307D01*
Y1007D02*
X745Y1047D01*
X785D01*
X765Y1007D01*
Y707D02*
X745Y747D01*
X785D01*
X765Y707D01*
X75Y1777D02*
X85Y1787D01*
X95D01*
X85Y1797D01*
X95Y1807D01*
X85D01*
X75Y1817D01*
X65Y1807D01*
X55D01*
X65Y1797D01*
X55Y1787D01*
X65D01*
X75Y1777D01*
Y1532D02*
X85Y1542D01*
X95D01*
X85Y1552D01*
X95Y1562D01*
X85D01*
X75Y1572D01*
X65Y1562D01*
X55D01*
X65Y1552D01*
X55Y1542D01*
X65D01*
X75Y1532D01*
Y1097D02*
X85Y1107D01*
X95D01*
X85Y1117D01*
X95Y1127D01*
X85D01*
X75Y1137D01*
X65Y1127D01*
X55D01*
X65Y1117D01*
X55Y1107D01*
X65D01*
X75Y1097D01*
Y1342D02*
X85Y1352D01*
X95D01*
X85Y1362D01*
X95Y1372D01*
X85D01*
X75Y1382D01*
X65Y1372D01*
X55D01*
X65Y1362D01*
X55Y1352D01*
X65D01*
X75Y1342D01*
Y697D02*
X85Y707D01*
X95D01*
X85Y717D01*
X95Y727D01*
X85D01*
X75Y737D01*
X65Y727D01*
X55D01*
X65Y717D01*
X55Y707D01*
X65D01*
X75Y697D01*
Y942D02*
X85Y952D01*
X95D01*
X85Y962D01*
X95Y972D01*
X85D01*
X75Y982D01*
X65Y972D01*
X55D01*
X65Y962D01*
X55Y952D01*
X65D01*
X75Y942D01*
D31*
X295Y1772D02*
G03*
X295Y1772I-20J0D01*
G01*
Y1672D02*
G03*
X295Y1672I-20J0D01*
G01*
Y1572D02*
G03*
X295Y1572I-20J0D01*
G01*
Y1142D02*
G03*
X295Y1142I-20J0D01*
G01*
Y1242D02*
G03*
X295Y1242I-20J0D01*
G01*
Y1342D02*
G03*
X295Y1342I-20J0D01*
G01*
X290Y737D02*
G03*
X290Y737I-20J0D01*
G01*
Y837D02*
G03*
X290Y837I-20J0D01*
G01*
Y937D02*
G03*
X290Y937I-20J0D01*
G01*
M02*
