G04 Layer_Color=65535*
%FSLAX23Y23*%
%MOIN*%
G70*
G01*
G75*
%ADD20C,0.010*%
%ADD21C,0.010*%
%ADD22C,0.008*%
D20*
X135Y1222D02*
Y1269D01*
X159D01*
X166Y1261D01*
Y1246D01*
X159Y1238D01*
X135D01*
X151D02*
X166Y1222D01*
X214D02*
X182D01*
X214Y1253D01*
Y1261D01*
X206Y1269D01*
X190D01*
X182Y1261D01*
X130Y1657D02*
Y1704D01*
X154D01*
X161Y1696D01*
Y1681D01*
X154Y1673D01*
X130D01*
X146D02*
X161Y1657D01*
X177D02*
X193D01*
X185D01*
Y1704D01*
X177Y1696D01*
X295Y1417D02*
Y1464D01*
X319D01*
X326Y1456D01*
Y1441D01*
X319Y1433D01*
X295D01*
X374Y1417D02*
X342D01*
X374Y1448D01*
Y1456D01*
X366Y1464D01*
X350D01*
X342Y1456D01*
X305Y1852D02*
Y1899D01*
X329D01*
X336Y1891D01*
Y1876D01*
X329Y1868D01*
X305D01*
X352Y1852D02*
X368D01*
X360D01*
Y1899D01*
X352Y1891D01*
X285Y1007D02*
Y1054D01*
X309D01*
X316Y1046D01*
Y1031D01*
X309Y1023D01*
X285D01*
X332Y1046D02*
X340Y1054D01*
X356D01*
X364Y1046D01*
Y1038D01*
X356Y1031D01*
X348D01*
X356D01*
X364Y1023D01*
Y1015D01*
X356Y1007D01*
X340D01*
X332Y1015D01*
X130Y822D02*
Y869D01*
X154D01*
X161Y861D01*
Y846D01*
X154Y838D01*
X130D01*
X146D02*
X161Y822D01*
X177Y861D02*
X185Y869D01*
X201D01*
X209Y861D01*
Y853D01*
X201Y846D01*
X193D01*
X201D01*
X209Y838D01*
Y830D01*
X201Y822D01*
X185D01*
X177Y830D01*
X78Y263D02*
X70Y255D01*
Y238D01*
X78Y230D01*
X112D01*
X120Y238D01*
Y255D01*
X112Y263D01*
X95D01*
Y247D01*
X120Y280D02*
X70D01*
X120Y313D01*
X70D01*
Y330D02*
X120D01*
Y355D01*
X112Y363D01*
X78D01*
X70Y355D01*
Y330D01*
X115Y425D02*
Y442D01*
Y433D01*
X65D01*
X73Y425D01*
X115Y500D02*
Y467D01*
X82Y500D01*
X73D01*
X65Y492D01*
Y475D01*
X73Y467D01*
X65Y517D02*
X98D01*
X115Y533D01*
X98Y550D01*
X65D01*
D21*
X169Y480D02*
G03*
X169Y480I-5J0D01*
G01*
Y300D02*
G03*
X169Y300I-5J0D01*
G01*
D22*
X190Y425D02*
X300D01*
X300Y425D02*
Y535D01*
X190D02*
X300D01*
X190Y425D02*
Y535D01*
Y245D02*
X300D01*
X300Y245D02*
Y355D01*
X190D02*
X300D01*
X190Y245D02*
Y355D01*
X375Y1789D02*
X508D01*
X525Y1772D01*
X508Y1755D02*
X525Y1772D01*
X375Y1755D02*
X508D01*
X375Y1689D02*
X508D01*
X525Y1672D01*
X508Y1655D02*
X525Y1672D01*
X375Y1655D02*
X508D01*
X375Y1589D02*
X508D01*
X525Y1572D01*
X508Y1555D02*
X525Y1572D01*
X375Y1555D02*
X508D01*
X325Y1522D02*
Y1822D01*
Y1522D02*
X375D01*
X325Y1822D02*
X375D01*
Y1522D02*
Y1822D01*
Y1092D02*
Y1392D01*
X325D02*
X375D01*
X325Y1092D02*
X375D01*
X325D02*
Y1392D01*
X375Y1125D02*
X508D01*
X525Y1142D01*
X508Y1159D02*
X525Y1142D01*
X375Y1159D02*
X508D01*
X375Y1225D02*
X508D01*
X525Y1242D01*
X508Y1259D02*
X525Y1242D01*
X375Y1259D02*
X508D01*
X375Y1325D02*
X508D01*
X525Y1342D01*
X508Y1359D02*
X525Y1342D01*
X375Y1359D02*
X508D01*
X370Y687D02*
Y987D01*
X320D02*
X370D01*
X320Y687D02*
X370D01*
X320D02*
Y987D01*
X370Y720D02*
X503D01*
X520Y737D01*
X503Y754D02*
X520Y737D01*
X370Y754D02*
X503D01*
X370Y820D02*
X503D01*
X520Y837D01*
X503Y854D02*
X520Y837D01*
X370Y854D02*
X503D01*
X370Y920D02*
X503D01*
X520Y937D01*
X503Y954D02*
X520Y937D01*
X370Y954D02*
X503D01*
X45Y1742D02*
X75D01*
X45Y1607D02*
Y1742D01*
X105Y1607D02*
Y1742D01*
X75D02*
X105D01*
X75Y1597D02*
Y1606D01*
Y1742D02*
Y1751D01*
X45Y1607D02*
X105D01*
X45Y1172D02*
X105D01*
X75Y1307D02*
Y1316D01*
Y1162D02*
Y1171D01*
Y1307D02*
X105D01*
Y1172D02*
Y1307D01*
X45Y1172D02*
Y1307D01*
X75D01*
X45Y772D02*
X105D01*
X75Y907D02*
Y916D01*
Y762D02*
Y771D01*
Y907D02*
X105D01*
Y772D02*
Y907D01*
X45Y772D02*
Y907D01*
X75D01*
M02*
