%FSLAX23Y23*%
%MOIN*%
G70*
G01*
G75*
G04 Layer_Physical_Order=1*
G04 Layer_Color=255*
%ADD10C,0.015*%
%ADD11C,0.025*%
%ADD12C,0.120*%
%ADD13C,0.055*%
%ADD14C,0.065*%
%ADD15R,0.065X0.065*%
%ADD16C,0.059*%
%ADD17R,0.059X0.059*%
D10*
X615Y1777D02*
X765Y1627D01*
X675Y1437D02*
X765Y1527D01*
X675Y1366D02*
Y1437D01*
X586Y1277D02*
X675Y1366D01*
X544Y1277D02*
X586D01*
X515Y1248D02*
X544Y1277D01*
X515Y1182D02*
Y1248D01*
X270Y937D02*
X515Y1182D01*
X75Y717D02*
Y742D01*
X265Y932D01*
X270Y937D01*
X265Y932D02*
X275D01*
X75Y1142D02*
X275Y1342D01*
X75Y1117D02*
Y1142D01*
X275Y1342D02*
X562Y1629D01*
X75Y1572D02*
X275Y1772D01*
X75Y1552D02*
Y1572D01*
X275Y1777D02*
X615D01*
X1599D02*
X1749Y1627D01*
X1659Y1437D02*
X1749Y1527D01*
X1659Y1366D02*
Y1437D01*
X1570Y1277D02*
X1659Y1366D01*
X1529Y1277D02*
X1570D01*
X1499Y1248D02*
X1529Y1277D01*
X1499Y1182D02*
Y1248D01*
X1254Y937D02*
X1499Y1182D01*
X1059Y717D02*
Y742D01*
X1249Y932D01*
X1254Y937D01*
X1249Y932D02*
X1259D01*
X1059Y1142D02*
X1259Y1342D01*
X1059Y1117D02*
Y1142D01*
X1259Y1342D02*
X1547Y1629D01*
X1059Y1572D02*
X1259Y1772D01*
X1059Y1552D02*
Y1572D01*
X1259Y1777D02*
X1599D01*
X615Y3745D02*
X765Y3595D01*
X675Y3405D02*
X765Y3495D01*
X675Y3335D02*
Y3405D01*
X586Y3245D02*
X675Y3335D01*
X544Y3245D02*
X586D01*
X515Y3216D02*
X544Y3245D01*
X515Y3150D02*
Y3216D01*
X270Y2905D02*
X515Y3150D01*
X75Y2685D02*
Y2710D01*
X265Y2900D01*
X270Y2905D01*
X265Y2900D02*
X275D01*
X75Y3110D02*
X275Y3310D01*
X75Y3085D02*
Y3110D01*
X275Y3310D02*
X562Y3598D01*
X75Y3540D02*
X275Y3740D01*
X75Y3520D02*
Y3540D01*
X275Y3745D02*
X615D01*
X1599D02*
X1749Y3595D01*
X1659Y3405D02*
X1749Y3495D01*
X1659Y3335D02*
Y3405D01*
X1570Y3245D02*
X1659Y3335D01*
X1529Y3245D02*
X1570D01*
X1499Y3216D02*
X1529Y3245D01*
X1499Y3150D02*
Y3216D01*
X1254Y2905D02*
X1499Y3150D01*
X1059Y2685D02*
Y2710D01*
X1249Y2900D01*
X1254Y2905D01*
X1249Y2900D02*
X1259D01*
X1059Y3110D02*
X1259Y3310D01*
X1059Y3085D02*
Y3110D01*
X1259Y3310D02*
X1547Y3598D01*
X1059Y3540D02*
X1259Y3740D01*
X1059Y3520D02*
Y3540D01*
X1259Y3745D02*
X1599D01*
D11*
X565Y482D02*
Y527D01*
Y427D02*
Y482D01*
X305D02*
X565D01*
X560Y332D02*
X565Y327D01*
X765Y827D02*
Y927D01*
Y727D02*
Y827D01*
Y627D02*
Y727D01*
Y527D02*
Y627D01*
Y427D02*
Y527D01*
Y327D02*
Y427D01*
Y227D02*
Y327D01*
X565Y827D02*
Y927D01*
Y727D02*
Y827D01*
Y627D02*
Y727D01*
Y527D02*
Y627D01*
Y327D02*
Y427D01*
Y227D02*
Y327D01*
X1549Y482D02*
Y527D01*
Y427D02*
Y482D01*
X1289D02*
X1549D01*
X1544Y332D02*
X1549Y327D01*
X1749Y827D02*
Y927D01*
Y727D02*
Y827D01*
Y627D02*
Y727D01*
Y527D02*
Y627D01*
Y427D02*
Y527D01*
Y327D02*
Y427D01*
Y227D02*
Y327D01*
X1549Y827D02*
Y927D01*
Y727D02*
Y827D01*
Y627D02*
Y727D01*
Y527D02*
Y627D01*
Y327D02*
Y427D01*
Y227D02*
Y327D01*
X565Y2450D02*
Y2495D01*
Y2395D02*
Y2450D01*
X305D02*
X565D01*
X560Y2300D02*
X565Y2295D01*
X765Y2795D02*
Y2895D01*
Y2695D02*
Y2795D01*
Y2595D02*
Y2695D01*
Y2495D02*
Y2595D01*
Y2395D02*
Y2495D01*
Y2295D02*
Y2395D01*
Y2195D02*
Y2295D01*
X565Y2795D02*
Y2895D01*
Y2695D02*
Y2795D01*
Y2595D02*
Y2695D01*
Y2495D02*
Y2595D01*
Y2295D02*
Y2395D01*
Y2195D02*
Y2295D01*
X1549Y2450D02*
Y2495D01*
Y2395D02*
Y2450D01*
X1289D02*
X1549D01*
X1544Y2300D02*
X1549Y2295D01*
X1749Y2795D02*
Y2895D01*
Y2695D02*
Y2795D01*
Y2595D02*
Y2695D01*
Y2495D02*
Y2595D01*
Y2395D02*
Y2495D01*
Y2295D02*
Y2395D01*
Y2195D02*
Y2295D01*
X1549Y2795D02*
Y2895D01*
Y2695D02*
Y2795D01*
Y2595D02*
Y2695D01*
Y2495D02*
Y2595D01*
Y2295D02*
Y2395D01*
Y2195D02*
Y2295D01*
D12*
X109Y326D02*
D03*
X265Y176D02*
D03*
X305Y482D02*
D03*
X1093Y326D02*
D03*
X1249Y176D02*
D03*
X1289Y482D02*
D03*
X109Y2294D02*
D03*
X265Y2144D02*
D03*
X305Y2450D02*
D03*
X1093Y2294D02*
D03*
X1249Y2144D02*
D03*
X1289Y2450D02*
D03*
D13*
X75Y962D02*
D03*
Y717D02*
D03*
Y1362D02*
D03*
Y1117D02*
D03*
Y1552D02*
D03*
Y1797D02*
D03*
X1059Y962D02*
D03*
Y717D02*
D03*
Y1362D02*
D03*
Y1117D02*
D03*
Y1552D02*
D03*
Y1797D02*
D03*
X75Y2930D02*
D03*
Y2685D02*
D03*
Y3330D02*
D03*
Y3085D02*
D03*
Y3520D02*
D03*
Y3765D02*
D03*
X1059Y2930D02*
D03*
Y2685D02*
D03*
Y3330D02*
D03*
Y3085D02*
D03*
Y3520D02*
D03*
Y3765D02*
D03*
D14*
X765Y727D02*
D03*
Y1027D02*
D03*
Y1327D02*
D03*
Y1627D02*
D03*
Y527D02*
D03*
Y427D02*
D03*
Y327D02*
D03*
Y227D02*
D03*
X565Y527D02*
D03*
Y427D02*
D03*
Y327D02*
D03*
Y227D02*
D03*
X765Y627D02*
D03*
Y827D02*
D03*
Y927D02*
D03*
Y1127D02*
D03*
Y1227D02*
D03*
Y1427D02*
D03*
Y1527D02*
D03*
X565Y627D02*
D03*
Y827D02*
D03*
Y927D02*
D03*
Y1127D02*
D03*
Y1227D02*
D03*
Y1427D02*
D03*
Y1527D02*
D03*
Y1727D02*
D03*
Y727D02*
D03*
Y1027D02*
D03*
Y1327D02*
D03*
Y1627D02*
D03*
X1749Y727D02*
D03*
Y1027D02*
D03*
Y1327D02*
D03*
Y1627D02*
D03*
Y527D02*
D03*
Y427D02*
D03*
Y327D02*
D03*
Y227D02*
D03*
X1549Y527D02*
D03*
Y427D02*
D03*
Y327D02*
D03*
Y227D02*
D03*
X1749Y627D02*
D03*
Y827D02*
D03*
Y927D02*
D03*
Y1127D02*
D03*
Y1227D02*
D03*
Y1427D02*
D03*
Y1527D02*
D03*
X1549Y627D02*
D03*
Y827D02*
D03*
Y927D02*
D03*
Y1127D02*
D03*
Y1227D02*
D03*
Y1427D02*
D03*
Y1527D02*
D03*
Y1727D02*
D03*
Y727D02*
D03*
Y1027D02*
D03*
Y1327D02*
D03*
Y1627D02*
D03*
X765Y2695D02*
D03*
Y2995D02*
D03*
Y3295D02*
D03*
Y3595D02*
D03*
Y2495D02*
D03*
Y2395D02*
D03*
Y2295D02*
D03*
Y2195D02*
D03*
X565Y2495D02*
D03*
Y2395D02*
D03*
Y2295D02*
D03*
Y2195D02*
D03*
X765Y2595D02*
D03*
Y2795D02*
D03*
Y2895D02*
D03*
Y3095D02*
D03*
Y3195D02*
D03*
Y3395D02*
D03*
Y3495D02*
D03*
X565Y2595D02*
D03*
Y2795D02*
D03*
Y2895D02*
D03*
Y3095D02*
D03*
Y3195D02*
D03*
Y3395D02*
D03*
Y3495D02*
D03*
Y3695D02*
D03*
Y2695D02*
D03*
Y2995D02*
D03*
Y3295D02*
D03*
Y3595D02*
D03*
X1749Y2695D02*
D03*
Y2995D02*
D03*
Y3295D02*
D03*
Y3595D02*
D03*
Y2495D02*
D03*
Y2395D02*
D03*
Y2295D02*
D03*
Y2195D02*
D03*
X1549Y2495D02*
D03*
Y2395D02*
D03*
Y2295D02*
D03*
Y2195D02*
D03*
X1749Y2595D02*
D03*
Y2795D02*
D03*
Y2895D02*
D03*
Y3095D02*
D03*
Y3195D02*
D03*
Y3395D02*
D03*
Y3495D02*
D03*
X1549Y2595D02*
D03*
Y2795D02*
D03*
Y2895D02*
D03*
Y3095D02*
D03*
Y3195D02*
D03*
Y3395D02*
D03*
Y3495D02*
D03*
Y3695D02*
D03*
Y2695D02*
D03*
Y2995D02*
D03*
Y3295D02*
D03*
Y3595D02*
D03*
D15*
X765Y1727D02*
D03*
X1749D02*
D03*
X765Y3695D02*
D03*
X1749D02*
D03*
D16*
X270Y937D02*
D03*
Y837D02*
D03*
X275Y1342D02*
D03*
Y1242D02*
D03*
Y1672D02*
D03*
Y1772D02*
D03*
X1254Y937D02*
D03*
Y837D02*
D03*
X1259Y1342D02*
D03*
Y1242D02*
D03*
Y1672D02*
D03*
Y1772D02*
D03*
X270Y2905D02*
D03*
Y2805D02*
D03*
X275Y3310D02*
D03*
Y3210D02*
D03*
Y3640D02*
D03*
Y3740D02*
D03*
X1254Y2905D02*
D03*
Y2805D02*
D03*
X1259Y3310D02*
D03*
Y3210D02*
D03*
Y3640D02*
D03*
Y3740D02*
D03*
D17*
X270Y737D02*
D03*
X275Y1142D02*
D03*
Y1572D02*
D03*
X1254Y737D02*
D03*
X1259Y1142D02*
D03*
Y1572D02*
D03*
X270Y2705D02*
D03*
X275Y3110D02*
D03*
Y3540D02*
D03*
X1254Y2705D02*
D03*
X1259Y3110D02*
D03*
Y3540D02*
D03*
M02*
