M48
;Layer_Color=9474304
;FILE_FORMAT=2:3
INCH,LZ
T5F00S00C0.200
%
G90
G05
T05
G00X02625Y02045
M15
G01X02644Y02051
G01X02662Y02061
G01X02677Y02073
G01X0269Y02089
G01X02699Y02107
G01X02704Y02126
G01X02706Y02143
G01X02706Y04112
G01X02704Y04131
G01X02698Y04151
G01X02688Y04168
G01X02675Y04183
G01X0266Y04196
G01X02642Y04205
G01X02622Y0421
G01X02606Y04212
G01X017Y04212
G01X0168Y0421
G01X01661Y04204
G01X01644Y04194
G01X01628Y04181
G01X01616Y04166
G01X01607Y04148
G01X01601Y04129
G01X016Y04112
G01X016Y02143
G01X01602Y02123
G01X01608Y02104
G01X01617Y02087
G01X0163Y02071
G01X01646Y02059
G01X01664Y0205
G01X01683Y02045
G01X017Y02043
G01X02606Y02043
G01X02625Y02045
M16
M17
M30
